<svg width="202" height="32" viewBox="0 0 202 32" fill="none" xmlns="http://www.w3.org/2000/svg">
<rect width="32" height="32" rx="16" fill="url(#paint0_linear_2624_23031)"/>
<path d="M9.6001 15.4345V12.8004C9.6001 9.26577 12.4655 6.40039 16.0001 6.40039V6.40039C19.5347 6.40039 22.4001 9.26577 22.4001 12.8004V13.176" stroke="#E8E8F3" stroke-width="3.2"/>
<path d="M9.60003 12.8008L9.60003 13.8674L9.60003 16.0008L13.8667 16.0008" stroke="#E8E8F3" stroke-width="3.2"/>
<path d="M22.4001 16.5655V19.1996C22.4001 22.7342 19.5348 25.5996 16.0001 25.5996V25.5996C12.4655 25.5996 9.60015 22.7342 9.60015 19.1996V18.824" stroke="#E8E8F3" stroke-width="3.2"/>
<path d="M22.4002 19.2002L22.4002 18.1335L22.4002 16.0002L18.1335 16.0002" stroke="#E8E8F3" stroke-width="3.2"/>
<path d="M38.008 24H40.456V17.016H45.82C47.42 17.016 48.504 16.58 49.072 15.708C49.64 14.828 49.924 13.744 49.924 12.456C49.924 11.16 49.648 10.06 49.096 9.156C48.544 8.252 47.484 7.8 45.916 7.8H38.008V24ZM47.392 24H50.056L46.624 16.212L44.176 16.368L47.392 24ZM40.456 15.468V9.504H45.136C46.024 9.504 46.632 9.776 46.96 10.32C47.296 10.864 47.464 11.588 47.464 12.492C47.464 13.396 47.296 14.12 46.96 14.664C46.632 15.2 46.024 15.468 45.136 15.468H40.456ZM58.2117 24.12V22.524C56.9957 22.524 56.0437 22.084 55.3557 21.204C54.6757 20.316 54.3357 18.868 54.3357 16.86C54.3357 14.74 54.6877 13.276 55.3917 12.468C56.1037 11.66 57.0317 11.256 58.1757 11.256C59.3517 11.256 60.2677 11.644 60.9237 12.42C61.5797 13.188 61.9077 14.5 61.9077 16.356L62.0397 16.092H54.0717V17.604H64.2717C64.3037 17.364 64.3197 17.104 64.3197 16.824C64.3197 14.448 63.8437 12.66 62.8917 11.46C61.9477 10.252 60.3757 9.648 58.1757 9.648C56.0317 9.648 54.4637 10.252 53.4717 11.46C52.4797 12.66 51.9837 14.46 51.9837 16.86C51.9837 19.14 52.4677 20.92 53.4357 22.2C54.4117 23.48 56.0037 24.12 58.2117 24.12ZM58.2117 22.524V24.12C59.4117 24.12 60.3997 23.964 61.1757 23.652C61.9597 23.34 62.5997 22.844 63.0957 22.164C63.5917 21.484 63.9077 20.656 64.0437 19.68L61.8597 19.092C61.7237 19.788 61.5117 20.416 61.2237 20.976C60.9437 21.536 60.5437 21.936 60.0237 22.176C59.5117 22.408 58.9077 22.524 58.2117 22.524ZM76.0594 24H78.3154V5.16H75.9034V21.66L76.0594 24ZM71.4034 24.096C72.9634 24.096 74.2794 23.708 75.3514 22.932C76.4234 22.148 76.9594 21.336 76.9594 20.496L75.9154 19.2C75.9154 20.032 75.5514 20.776 74.8234 21.432C74.1034 22.08 73.2354 22.404 72.2194 22.404C71.1554 22.404 70.3114 22.016 69.6874 21.24C69.0634 20.456 68.7514 19 68.7514 16.872C68.7514 14.744 69.0634 13.292 69.6874 12.516C70.3114 11.732 71.1554 11.34 72.2194 11.34C73.2354 11.34 74.1034 11.668 74.8234 12.324C75.5514 12.98 75.9154 13.72 75.9154 14.544L76.9594 13.26C76.9594 12.412 76.4234 11.6 75.3514 10.824C74.2794 10.04 72.9634 9.648 71.4034 9.648C69.6994 9.648 68.4194 10.244 67.5634 11.436C66.7154 12.628 66.2914 14.436 66.2914 16.86C66.2914 19.284 66.7154 21.096 67.5634 22.296C68.4194 23.496 69.6994 24.096 71.4034 24.096ZM93.4317 24.12C95.8157 24.12 97.5637 23.464 98.6757 22.152C99.7957 20.84 100.356 18.756 100.356 15.9C100.356 13.052 99.7957 10.968 98.6757 9.648C97.5637 8.328 95.8157 7.668 93.4317 7.668C91.0397 7.668 89.2877 8.328 88.1757 9.648C87.0637 10.968 86.5077 13.052 86.5077 15.9C86.5077 18.756 87.0637 20.84 88.1757 22.152C89.2957 23.464 91.0477 24.12 93.4317 24.12ZM93.4317 22.416C92.1037 22.416 91.0237 21.988 90.1917 21.132C89.3677 20.276 88.9557 18.532 88.9557 15.9C88.9557 13.252 89.3677 11.504 90.1917 10.656C91.0237 9.8 92.1037 9.372 93.4317 9.372C94.7597 9.372 95.8357 9.8 96.6597 10.656C97.4917 11.504 97.9077 13.252 97.9077 15.9C97.9077 18.532 97.4917 20.276 96.6597 21.132C95.8357 21.988 94.7597 22.416 93.4317 22.416ZM102.595 24H105.019V12.54L104.491 9.78H102.595V24ZM111.511 24H113.935V15.864C113.935 13.928 113.591 12.408 112.903 11.304C112.223 10.192 111.059 9.636 109.411 9.636C107.755 9.636 106.399 10.156 105.343 11.196C104.295 12.228 103.771 13.324 103.771 14.484L104.947 15.24C104.947 14.12 105.291 13.192 105.979 12.456C106.675 11.712 107.527 11.34 108.535 11.34C109.535 11.34 110.279 11.684 110.767 12.372C111.263 13.06 111.511 14.232 111.511 15.888V24ZM116.888 24H119.324V9.768H116.888V24ZM116.888 5.88V8.04H119.324V5.88H116.888ZM128.22 24.108C130.34 24.108 131.912 23.516 132.936 22.332C133.96 21.148 134.471 19.32 134.471 16.848C134.471 14.376 133.96 12.556 132.936 11.388C131.912 10.22 130.34 9.636 128.22 9.636C126.1 9.636 124.524 10.22 123.492 11.388C122.468 12.556 121.956 14.376 121.956 16.848C121.956 19.32 122.468 21.148 123.492 22.332C124.524 23.516 126.1 24.108 128.22 24.108ZM128.22 22.428C127.108 22.428 126.192 22.04 125.472 21.264C124.752 20.48 124.392 19.012 124.392 16.86C124.392 14.716 124.752 13.256 125.472 12.48C126.192 11.696 127.108 11.304 128.22 11.304C129.332 11.304 130.248 11.696 130.968 12.48C131.688 13.256 132.048 14.716 132.048 16.86C132.048 19.012 131.688 20.48 130.968 21.264C130.248 22.04 129.332 22.428 128.22 22.428ZM136.814 24H139.238V12.54L138.71 9.78H136.814V24ZM145.73 24H148.154V15.864C148.154 13.928 147.81 12.408 147.122 11.304C146.442 10.192 145.278 9.636 143.63 9.636C141.974 9.636 140.618 10.156 139.562 11.196C138.514 12.228 137.99 13.324 137.99 14.484L139.166 15.24C139.166 14.12 139.51 13.192 140.198 12.456C140.894 11.712 141.746 11.34 142.754 11.34C143.754 11.34 144.498 11.684 144.986 12.372C145.482 13.06 145.73 14.232 145.73 15.888V24Z" fill="#202020"/>
<path d="M38.008 24H37.758V24.25H38.008V24ZM40.456 24V24.25H40.706V24H40.456ZM40.456 17.016V16.766H40.206V17.016H40.456ZM49.072 15.708L49.2815 15.8444L49.282 15.8436L49.072 15.708ZM49.096 9.156L49.3094 9.02571L49.096 9.156ZM38.008 7.8V7.55H37.758V7.8H38.008ZM47.392 24L47.1616 24.0971L47.2261 24.25H47.392V24ZM50.056 24V24.25H50.4394L50.2848 23.8992L50.056 24ZM46.624 16.212L46.8528 16.1112L46.7824 15.9514L46.6081 15.9625L46.624 16.212ZM44.176 16.368L44.1601 16.1185L43.809 16.1409L43.9456 16.4651L44.176 16.368ZM40.456 15.468H40.206V15.718H40.456V15.468ZM40.456 9.504V9.254H40.206V9.504H40.456ZM46.96 10.32L46.7459 10.4491L46.7473 10.4514L46.96 10.32ZM46.96 14.664L46.7473 14.5326L46.7468 14.5335L46.96 14.664ZM38.008 24.25H40.456V23.75H38.008V24.25ZM40.706 24V17.016H40.206V24H40.706ZM40.456 17.266H45.82V16.766H40.456V17.266ZM45.82 17.266C47.4567 17.266 48.6462 16.8197 49.2815 15.8444L48.8625 15.5715C48.3618 16.3403 47.3833 16.766 45.82 16.766V17.266ZM49.282 15.8436C49.8816 14.9148 50.174 13.781 50.174 12.456H49.674C49.674 13.707 49.3984 14.7412 48.862 15.5724L49.282 15.8436ZM50.174 12.456C50.174 11.1243 49.8902 9.97688 49.3094 9.02571L48.8826 9.28628C49.4058 10.1431 49.674 11.1957 49.674 12.456H50.174ZM49.3094 9.02571C48.6925 8.01552 47.5259 7.55 45.916 7.55V8.05C47.4422 8.05 48.3955 8.48848 48.8826 9.28628L49.3094 9.02571ZM45.916 7.55H38.008V8.05H45.916V7.55ZM37.758 7.8V24H38.258V7.8H37.758ZM47.392 24.25H50.056V23.75H47.392V24.25ZM50.2848 23.8992L46.8528 16.1112L46.3952 16.3128L49.8272 24.1008L50.2848 23.8992ZM46.6081 15.9625L44.1601 16.1185L44.1919 16.6175L46.6399 16.4615L46.6081 15.9625ZM43.9456 16.4651L47.1616 24.0971L47.6224 23.9029L44.4064 16.2709L43.9456 16.4651ZM40.706 15.468V9.504H40.206V15.468H40.706ZM40.456 9.754H45.136V9.254H40.456V9.754ZM45.136 9.754C45.9751 9.754 46.4801 10.0082 46.7459 10.4491L47.1741 10.1909C46.7839 9.54382 46.0729 9.254 45.136 9.254V9.754ZM46.7473 10.4514C47.0508 10.9428 47.214 11.6161 47.214 12.492H47.714C47.714 11.5599 47.5412 10.7852 47.1727 10.1886L46.7473 10.4514ZM47.214 12.492C47.214 13.3679 47.0508 14.0412 46.7473 14.5326L47.1727 14.7954C47.5412 14.1988 47.714 13.4241 47.714 12.492H47.214ZM46.7468 14.5335C46.4816 14.9668 45.9766 15.218 45.136 15.218V15.718C46.0714 15.718 46.7824 15.4332 47.1732 14.7945L46.7468 14.5335ZM45.136 15.218H40.456V15.718H45.136V15.218ZM58.2117 24.12V24.37H58.4617V24.12H58.2117ZM58.2117 22.524H58.4617V22.274H58.2117V22.524ZM55.3557 21.204L55.1572 21.356L55.1587 21.358L55.3557 21.204ZM55.3917 12.468L55.2041 12.3027L55.2032 12.3038L55.3917 12.468ZM60.9237 12.42L60.7328 12.5814L60.7336 12.5824L60.9237 12.42ZM61.9077 16.356H61.6577L62.1313 16.4678L61.9077 16.356ZM62.0397 16.092L62.2633 16.2038L62.4442 15.842H62.0397V16.092ZM54.0717 16.092V15.842H53.8217V16.092H54.0717ZM54.0717 17.604H53.8217V17.854H54.0717V17.604ZM64.2717 17.604V17.854H64.4906L64.5195 17.637L64.2717 17.604ZM62.8917 11.46L62.6947 11.6139L62.6958 11.6154L62.8917 11.46ZM53.4717 11.46L53.6644 11.6193L53.6649 11.6187L53.4717 11.46ZM53.4357 22.2L53.2363 22.3508L53.2369 22.3516L53.4357 22.2ZM58.2117 22.524V22.274H57.9617V22.524H58.2117ZM58.2117 24.12H57.9617V24.37H58.2117V24.12ZM61.1757 23.652L61.0832 23.4197L61.0824 23.42L61.1757 23.652ZM63.0957 22.164L62.8937 22.0167L63.0957 22.164ZM64.0437 19.68L64.2913 19.7145L64.3217 19.496L64.1087 19.4386L64.0437 19.68ZM61.8597 19.092L61.9247 18.8506L61.6658 18.7809L61.6143 19.0441L61.8597 19.092ZM61.2237 20.976L61.0014 20.8617L61.0001 20.8642L61.2237 20.976ZM60.0237 22.176L60.1269 22.4037L60.1285 22.403L60.0237 22.176ZM58.4617 24.12V22.524H57.9617V24.12H58.4617ZM58.2117 22.274C57.0648 22.274 56.1886 21.8635 55.5526 21.05L55.1587 21.358C55.8987 22.3045 56.9266 22.774 58.2117 22.774V22.274ZM55.5542 21.052C54.9252 20.2306 54.5857 18.8516 54.5857 16.86H54.0857C54.0857 18.8844 54.4262 20.4014 55.1572 21.356L55.5542 21.052ZM54.5857 16.86C54.5857 14.7498 54.9397 13.3673 55.5802 12.6322L55.2032 12.3038C54.4357 13.1847 54.0857 14.7302 54.0857 16.86H54.5857ZM55.5793 12.6333C56.2405 11.8828 57.0984 11.506 58.1757 11.506V11.006C56.965 11.006 55.9668 11.4372 55.2041 12.3027L55.5793 12.6333ZM58.1757 11.506C59.291 11.506 60.132 11.8707 60.7328 12.5814L61.1146 12.2586C60.4034 11.4173 59.4124 11.006 58.1757 11.006V11.506ZM60.7336 12.5824C61.3296 13.2802 61.6577 14.5154 61.6577 16.356H62.1577C62.1577 14.4846 61.8298 13.0958 61.1138 12.2576L60.7336 12.5824ZM62.1313 16.4678L62.2633 16.2038L61.8161 15.9802L61.6841 16.2442L62.1313 16.4678ZM62.0397 15.842H54.0717V16.342H62.0397V15.842ZM53.8217 16.092V17.604H54.3217V16.092H53.8217ZM54.0717 17.854H64.2717V17.354H54.0717V17.854ZM64.5195 17.637C64.5532 17.3846 64.5697 17.1134 64.5697 16.824H64.0697C64.0697 17.0946 64.0542 17.3434 64.0239 17.571L64.5195 17.637ZM64.5697 16.824C64.5697 14.4209 64.0893 12.5673 63.0875 11.3046L62.6958 11.6154C63.5981 12.7527 64.0697 14.4751 64.0697 16.824H64.5697ZM63.0887 11.3061C62.0792 10.0143 60.4176 9.398 58.1757 9.398V9.898C60.3338 9.898 61.8161 10.4897 62.6947 11.6139L63.0887 11.3061ZM58.1757 9.398C55.9862 9.398 54.3339 10.0161 53.2785 11.3013L53.6649 11.6187C54.5935 10.4879 56.0771 9.898 58.1757 9.898V9.398ZM53.279 11.3007C52.2345 12.5642 51.7337 14.4318 51.7337 16.86H52.2337C52.2337 14.4882 52.7248 12.7558 53.6644 11.6193L53.279 11.3007ZM51.7337 16.86C51.7337 19.1722 52.2242 21.0125 53.2363 22.3508L53.6351 22.0492C52.7112 20.8275 52.2337 19.1078 52.2337 16.86H51.7337ZM53.2369 22.3516C54.2763 23.7147 55.9567 24.37 58.2117 24.37V23.87C56.0507 23.87 54.5471 23.2453 53.6345 22.0484L53.2369 22.3516ZM57.9617 22.524V24.12H58.4617V22.524H57.9617ZM58.2117 24.37C59.4309 24.37 60.4534 24.2119 61.2689 23.884L61.0824 23.42C60.346 23.7161 59.3925 23.87 58.2117 23.87V24.37ZM61.2681 23.8843C62.0958 23.5549 62.7738 23.0295 63.2977 22.3113L62.8937 22.0167C62.4256 22.6585 61.8236 23.1251 61.0833 23.4197L61.2681 23.8843ZM63.2977 22.3113C63.8218 21.5928 64.1506 20.7243 64.2913 19.7145L63.7961 19.6455C63.6648 20.5877 63.3616 21.3752 62.8937 22.0167L63.2977 22.3113ZM64.1087 19.4386L61.9247 18.8506L61.7947 19.3334L63.9787 19.9214L64.1087 19.4386ZM61.6143 19.0441C61.4823 19.7198 61.2773 20.325 61.0014 20.8617L61.446 21.0903C61.746 20.507 61.9651 19.8562 62.105 19.1399L61.6143 19.0441ZM61.0001 20.8642C60.7429 21.3785 60.3825 21.7351 59.9189 21.949L60.1285 22.403C60.7049 22.1369 61.1444 21.6935 61.4473 21.0878L61.0001 20.8642ZM59.9205 21.9483C59.4477 22.1625 58.8804 22.274 58.2117 22.274V22.774C58.935 22.774 59.5757 22.6535 60.1269 22.4037L59.9205 21.9483ZM76.0594 24L75.81 24.0166L75.8256 24.25H76.0594V24ZM78.3154 24V24.25H78.5654V24H78.3154ZM78.3154 5.16H78.5654V4.91H78.3154V5.16ZM75.9034 5.16V4.91H75.6534V5.16H75.9034ZM75.9034 21.66H75.6534V21.6683L75.654 21.6766L75.9034 21.66ZM75.3514 22.932L75.498 23.1345L75.499 23.1338L75.3514 22.932ZM76.9594 20.496H77.2094V20.4078L77.1541 20.3392L76.9594 20.496ZM75.9154 19.2L76.1101 19.0432L75.6654 18.4911V19.2H75.9154ZM74.8234 21.432L74.9907 21.6178L74.9908 21.6177L74.8234 21.432ZM69.6874 21.24L69.4918 21.3957L69.4926 21.3967L69.6874 21.24ZM69.6874 12.516L69.8823 12.6727L69.883 12.6717L69.6874 12.516ZM74.8234 12.324L74.6551 12.5088L74.6561 12.5097L74.8234 12.324ZM75.9154 14.544H75.6654V15.2478L76.1094 14.7017L75.9154 14.544ZM76.9594 13.26L77.1534 13.4177L77.2094 13.3488V13.26H76.9594ZM75.3514 10.824L75.2039 11.0258L75.2048 11.0265L75.3514 10.824ZM67.5634 11.436L67.3604 11.2902L67.3597 11.2911L67.5634 11.436ZM67.5634 22.296L67.3593 22.4403L67.3599 22.4412L67.5634 22.296ZM76.0594 24.25H78.3154V23.75H76.0594V24.25ZM78.5654 24V5.16H78.0654V24H78.5654ZM78.3154 4.91H75.9034V5.41H78.3154V4.91ZM75.6534 5.16V21.66H76.1534V5.16H75.6534ZM75.654 21.6766L75.81 24.0166L76.3089 23.9834L76.1529 21.6434L75.654 21.6766ZM71.4034 24.346C73.0064 24.346 74.3762 23.9466 75.498 23.1345L75.2048 22.7295C74.1827 23.4694 72.9205 23.846 71.4034 23.846V24.346ZM75.499 23.1338C76.5973 22.3306 77.2094 21.4534 77.2094 20.496H76.7094C76.7094 21.2186 76.2496 21.9654 75.2039 22.7302L75.499 23.1338ZM77.1541 20.3392L76.1101 19.0432L75.7207 19.3568L76.7648 20.6528L77.1541 20.3392ZM75.6654 19.2C75.6654 19.9485 75.3417 20.6285 74.6561 21.2463L74.9908 21.6177C75.7612 20.9235 76.1654 20.1155 76.1654 19.2H75.6654ZM74.6562 21.2462C73.9845 21.8507 73.177 22.154 72.2194 22.154V22.654C73.2939 22.654 74.2224 22.3093 74.9907 21.6178L74.6562 21.2462ZM72.2194 22.154C71.2252 22.154 70.4552 21.7958 69.8823 21.0833L69.4926 21.3967C70.1677 22.2362 71.0857 22.654 72.2194 22.654V22.154ZM69.883 21.0843C69.6039 20.7336 69.3814 20.2147 69.2299 19.5076C69.0788 18.8024 69.0014 17.9252 69.0014 16.872H68.5014C68.5014 17.9468 68.5801 18.8616 68.741 19.6124C68.9015 20.3613 69.147 20.9624 69.4918 21.3957L69.883 21.0843ZM69.0014 16.872C69.0014 15.8188 69.0788 14.9426 69.2299 14.2395C69.3814 13.5344 69.6037 13.019 69.8823 12.6727L69.4926 12.3593C69.1471 12.789 68.9015 13.3876 68.741 14.1345C68.5801 14.8834 68.5014 15.7972 68.5014 16.872H69.0014ZM69.883 12.6717C70.4563 11.9514 71.2262 11.59 72.2194 11.59V11.09C71.0847 11.09 70.1665 11.5126 69.4918 12.3603L69.883 12.6717ZM72.2194 11.59C73.1761 11.59 73.9832 11.8967 74.6551 12.5088L74.9918 12.1392C74.2236 11.4393 73.2948 11.09 72.2194 11.09V11.59ZM74.6561 12.5097C75.3423 13.1281 75.6654 13.8042 75.6654 14.544H76.1654C76.1654 13.6358 75.7605 12.8319 74.9908 12.1383L74.6561 12.5097ZM76.1094 14.7017L77.1534 13.4177L76.7655 13.1023L75.7215 14.3863L76.1094 14.7017ZM77.2094 13.26C77.2094 12.2948 76.5976 11.4175 75.498 10.6215L75.2048 11.0265C76.2493 11.7825 76.7094 12.5292 76.7094 13.26H77.2094ZM75.499 10.6222C74.3771 9.80167 73.0069 9.398 71.4034 9.398V9.898C72.9199 9.898 74.1818 10.2783 75.2039 11.0258L75.499 10.6222ZM71.4034 9.398C69.6338 9.398 68.2714 10.0216 67.3604 11.2902L67.7665 11.5818C68.5675 10.4664 69.7651 9.898 71.4034 9.898V9.398ZM67.3597 11.2911C66.4676 12.5451 66.0414 14.415 66.0414 16.86H66.5414C66.5414 14.457 66.9633 12.7109 67.7671 11.5809L67.3597 11.2911ZM66.0414 16.86C66.0414 19.3052 66.4677 21.1786 67.3593 22.4403L67.7676 22.1517C66.9632 21.0134 66.5414 19.2628 66.5414 16.86H66.0414ZM67.3599 22.4412C68.2706 23.7179 69.6331 24.346 71.4034 24.346V23.846C69.7658 23.846 68.5682 23.2741 67.767 22.1508L67.3599 22.4412ZM98.6757 22.152L98.4855 21.9897L98.485 21.9904L98.6757 22.152ZM98.6757 9.648L98.4845 9.80907L98.4851 9.80974L98.6757 9.648ZM88.1757 9.648L87.9845 9.48693V9.48693L88.1757 9.648ZM88.1757 22.152L87.985 22.3136L87.9855 22.3143L88.1757 22.152ZM90.1917 21.132L90.0116 21.3054L90.0124 21.3062L90.1917 21.132ZM90.1917 10.656L90.0124 10.4818L90.0124 10.4818L90.1917 10.656ZM96.6597 10.656L96.4796 10.8294L96.4812 10.8311L96.6597 10.656ZM96.6597 21.132L96.4804 20.9578L96.4796 20.9586L96.6597 21.132ZM93.4317 24.37C95.8595 24.37 97.6906 23.7009 98.8664 22.3136L98.485 21.9904C97.4368 23.2271 95.7719 23.87 93.4317 23.87V24.37ZM98.8658 22.3143C100.043 20.9356 100.606 18.7793 100.606 15.9H100.106C100.106 18.7327 99.5486 20.7444 98.4855 21.9897L98.8658 22.3143ZM100.606 15.9C100.606 13.0283 100.043 10.8726 98.8663 9.48625L98.4851 9.80974C99.5487 11.0634 100.106 13.0757 100.106 15.9H100.606ZM98.8669 9.48693C97.6912 8.09133 95.8599 7.418 93.4317 7.418V7.918C95.7714 7.918 97.4362 8.56467 98.4845 9.80907L98.8669 9.48693ZM93.4317 7.418C90.9958 7.418 89.1603 8.09115 87.9845 9.48693L88.3669 9.80907C89.4151 8.56484 91.0836 7.918 93.4317 7.918V7.418ZM87.9845 9.48693C86.8166 10.8733 86.2577 13.0286 86.2577 15.9H86.7577C86.7577 13.0754 87.3108 11.0627 88.3669 9.80907L87.9845 9.48693ZM86.2577 15.9C86.2577 18.779 86.8165 20.935 87.985 22.3136L88.3664 21.9904C87.3109 20.745 86.7577 18.733 86.7577 15.9H86.2577ZM87.9855 22.3143C89.1692 23.7009 91.0038 24.37 93.4317 24.37V23.87C91.0916 23.87 89.4222 23.2271 88.3658 21.9897L87.9855 22.3143ZM93.4317 22.166C92.1629 22.166 91.1504 21.7596 90.371 20.9578L90.0124 21.3062C90.897 22.2164 92.0445 22.666 93.4317 22.666V22.166ZM90.3718 20.9586C90.0028 20.5753 89.7085 19.9734 89.508 19.1245C89.308 18.2779 89.2057 17.2048 89.2057 15.9H88.7057C88.7057 17.2272 88.8094 18.3421 89.0214 19.2395C89.2328 20.1346 89.5566 20.8327 90.0116 21.3054L90.3718 20.9586ZM89.2057 15.9C89.2057 14.5871 89.308 13.509 89.508 12.6604C89.7086 11.8093 90.0028 11.2091 90.371 10.8302L90.0124 10.4818C89.5566 10.9509 89.2328 11.6487 89.0214 12.5456C88.8094 13.445 88.7057 14.5649 88.7057 15.9H89.2057ZM90.371 10.8302C91.1504 10.0284 92.1629 9.622 93.4317 9.622V9.122C92.0445 9.122 90.897 9.57164 90.0124 10.4818L90.371 10.8302ZM93.4317 9.622C94.7005 9.622 95.7085 10.0283 96.4796 10.8294L96.8398 10.4826C95.9629 9.57166 94.8188 9.122 93.4317 9.122V9.622ZM96.4812 10.8311C96.8531 11.2101 97.15 11.8101 97.3525 12.6609C97.5544 13.5093 97.6577 14.5872 97.6577 15.9H98.1577C98.1577 14.5648 98.053 13.4447 97.8389 12.5451C97.6254 11.6479 97.2983 10.9499 96.8381 10.4809L96.4812 10.8311ZM97.6577 15.9C97.6577 17.2047 97.5544 18.2776 97.3525 19.124C97.1501 19.9726 96.8531 20.5743 96.4804 20.9578L96.839 21.3062C97.2983 20.8337 97.6253 20.1354 97.8389 19.24C98.053 18.3424 98.1577 17.2273 98.1577 15.9H97.6577ZM96.4796 20.9586C95.7085 21.7597 94.7005 22.166 93.4317 22.166V22.666C94.8188 22.666 95.9629 22.2163 96.8398 21.3054L96.4796 20.9586ZM102.595 24H102.345V24.25H102.595V24ZM105.019 24V24.25H105.269V24H105.019ZM105.019 12.54H105.269V12.5163L105.264 12.493L105.019 12.54ZM104.491 9.78L104.736 9.73303L104.698 9.53H104.491V9.78ZM102.595 9.78V9.53H102.345V9.78H102.595ZM111.511 24H111.261V24.25H111.511V24ZM113.935 24V24.25H114.185V24H113.935ZM112.903 11.304L112.69 11.4344L112.691 11.4362L112.903 11.304ZM105.343 11.196L105.518 11.3741L105.518 11.3741L105.343 11.196ZM103.771 14.484H103.521V14.6205L103.636 14.6943L103.771 14.484ZM104.947 15.24L104.812 15.4503L105.197 15.6979V15.24H104.947ZM105.979 12.456L105.796 12.2852L105.796 12.2853L105.979 12.456ZM110.767 12.372L110.563 12.5166L110.564 12.5182L110.767 12.372ZM102.595 24.25H105.019V23.75H102.595V24.25ZM105.269 24V12.54H104.769V24H105.269ZM105.264 12.493L104.736 9.73303L104.245 9.82697L104.773 12.587L105.264 12.493ZM104.491 9.53H102.595V10.03H104.491V9.53ZM102.345 9.78V24H102.845V9.78H102.345ZM111.511 24.25H113.935V23.75H111.511V24.25ZM114.185 24V15.864H113.685V24H114.185ZM114.185 15.864C114.185 13.9026 113.837 12.3303 113.115 11.1718L112.691 11.4362C113.345 12.4857 113.685 13.9534 113.685 15.864H114.185ZM113.116 11.1736C112.378 9.96725 111.119 9.386 109.411 9.386V9.886C110.998 9.886 112.067 10.4168 112.69 11.4344L113.116 11.1736ZM109.411 9.386C107.698 9.386 106.276 9.92624 105.167 11.0179L105.518 11.3741C106.522 10.3858 107.812 9.886 109.411 9.886V9.386ZM105.167 11.0179C104.085 12.0836 103.521 13.2402 103.521 14.484H104.021C104.021 13.4078 104.504 12.3724 105.518 11.3741L105.167 11.0179ZM103.636 14.6943L104.812 15.4503L105.082 15.0297L103.906 14.2737L103.636 14.6943ZM105.197 15.24C105.197 14.1757 105.522 13.3111 106.161 12.6267L105.796 12.2853C105.06 13.0729 104.697 14.0643 104.697 15.24H105.197ZM106.161 12.6268C106.811 11.9327 107.597 11.59 108.535 11.59V11.09C107.457 11.09 106.539 11.4913 105.796 12.2852L106.161 12.6268ZM108.535 11.59C109.471 11.59 110.131 11.9076 110.563 12.5166L110.971 12.2274C110.427 11.4604 109.599 11.09 108.535 11.09V11.59ZM110.564 12.5182C111.012 13.1389 111.261 14.2424 111.261 15.888H111.761C111.761 14.2216 111.514 12.9811 110.97 12.2258L110.564 12.5182ZM111.261 15.888V24H111.761V15.888H111.261ZM116.888 24H116.638V24.25H116.888V24ZM119.324 24V24.25H119.574V24H119.324ZM119.324 9.768H119.574V9.518H119.324V9.768ZM116.888 9.768V9.518H116.638V9.768H116.888ZM116.888 5.88V5.63H116.638V5.88H116.888ZM116.888 8.04H116.638V8.29H116.888V8.04ZM119.324 8.04V8.29H119.574V8.04H119.324ZM119.324 5.88H119.574V5.63H119.324V5.88ZM116.888 24.25H119.324V23.75H116.888V24.25ZM119.574 24V9.768H119.074V24H119.574ZM119.324 9.518H116.888V10.018H119.324V9.518ZM116.638 9.768V24H117.138V9.768H116.638ZM116.638 5.88V8.04H117.138V5.88H116.638ZM116.888 8.29H119.324V7.79H116.888V8.29ZM119.574 8.04V5.88H119.074V8.04H119.574ZM119.324 5.63H116.888V6.13H119.324V5.63ZM132.936 22.332L133.125 22.4955L132.936 22.332ZM132.936 11.388L133.123 11.2232L132.936 11.388ZM123.492 11.388L123.304 11.2225L123.304 11.2232L123.492 11.388ZM123.492 22.332L123.302 22.4955L123.303 22.4963L123.492 22.332ZM125.471 21.264L125.287 21.4331L125.288 21.434L125.471 21.264ZM125.471 12.48L125.655 12.65L125.656 12.6491L125.471 12.48ZM130.967 12.48L130.783 12.6491L130.784 12.65L130.967 12.48ZM130.967 21.264L131.151 21.434L131.152 21.4331L130.967 21.264ZM128.219 24.358C130.385 24.358 132.038 23.752 133.125 22.4955L132.746 22.1685C131.785 23.28 130.294 23.858 128.219 23.858V24.358ZM133.125 22.4955C134.205 21.2462 134.721 19.3471 134.721 16.848H134.221C134.221 19.2929 133.714 21.0498 132.746 22.1685L133.125 22.4955ZM134.721 16.848C134.721 14.3493 134.205 12.4571 133.123 11.2232L132.748 11.5528C133.714 12.6549 134.221 14.4027 134.221 16.848H134.721ZM133.123 11.2232C132.036 9.98333 130.384 9.386 128.219 9.386V9.886C130.295 9.886 131.787 10.4567 132.748 11.5528L133.123 11.2232ZM128.219 9.386C126.055 9.386 124.399 9.98338 123.304 11.2225L123.679 11.5535C124.648 10.4566 126.144 9.886 128.219 9.886V9.386ZM123.304 11.2232C122.222 12.4571 121.705 14.3493 121.705 16.848H122.205C122.205 14.4027 122.713 12.6549 123.679 11.5528L123.304 11.2232ZM121.705 16.848C121.705 19.3471 122.222 21.2462 123.302 22.4955L123.681 22.1685C122.713 21.0498 122.205 19.2929 122.205 16.848H121.705ZM123.303 22.4963C124.398 23.752 126.054 24.358 128.219 24.358V23.858C126.145 23.858 124.649 23.28 123.68 22.1677L123.303 22.4963ZM128.219 22.178C127.173 22.178 126.325 21.8161 125.655 21.094L125.288 21.434C126.058 22.2639 127.042 22.678 128.219 22.678V22.178ZM125.656 21.0949C125.004 20.3856 124.642 19.0039 124.642 16.86H124.142C124.142 19.0201 124.499 20.5744 125.287 21.4331L125.656 21.0949ZM124.642 16.86C124.642 14.7239 125.004 13.351 125.655 12.65L125.288 12.31C124.499 13.161 124.142 14.7081 124.142 16.86H124.642ZM125.656 12.6491C126.326 11.9192 127.174 11.554 128.219 11.554V11.054C127.041 11.054 126.057 11.4728 125.287 12.3109L125.656 12.6491ZM128.219 11.554C129.265 11.554 130.113 11.9192 130.783 12.6491L131.152 12.3109C130.382 11.4728 129.398 11.054 128.219 11.054V11.554ZM130.784 12.65C131.435 13.351 131.798 14.7239 131.798 16.86H132.298C132.298 14.7081 131.94 13.161 131.151 12.31L130.784 12.65ZM131.798 16.86C131.798 19.0039 131.435 20.3856 130.783 21.0949L131.152 21.4331C131.94 20.5744 132.298 19.0201 132.298 16.86H131.798ZM130.784 21.094C130.114 21.8161 129.266 22.178 128.219 22.178V22.678C129.397 22.678 130.381 22.2639 131.151 21.434L130.784 21.094ZM136.814 24H136.564V24.25H136.814V24ZM139.238 24V24.25H139.488V24H139.238ZM139.238 12.54H139.488V12.5163L139.483 12.493L139.238 12.54ZM138.71 9.78L138.955 9.73303L138.916 9.53H138.71V9.78ZM136.814 9.78V9.53H136.564V9.78H136.814ZM145.73 24H145.48V24.25H145.73V24ZM148.154 24V24.25H148.404V24H148.154ZM147.122 11.304L146.908 11.4344L146.909 11.4362L147.122 11.304ZM139.562 11.196L139.737 11.3741L139.737 11.3741L139.562 11.196ZM137.99 14.484H137.74V14.6205L137.854 14.6943L137.99 14.484ZM139.166 15.24L139.03 15.4503L139.416 15.6979V15.24H139.166ZM140.198 12.456L140.015 12.2852L140.015 12.2853L140.198 12.456ZM144.986 12.372L144.782 12.5166L144.783 12.5182L144.986 12.372ZM136.814 24.25H139.238V23.75H136.814V24.25ZM139.488 24V12.54H138.988V24H139.488ZM139.483 12.493L138.955 9.73303L138.464 9.82697L138.992 12.587L139.483 12.493ZM138.71 9.53H136.814V10.03H138.71V9.53ZM136.564 9.78V24H137.064V9.78H136.564ZM145.73 24.25H148.154V23.75H145.73V24.25ZM148.404 24V15.864H147.904V24H148.404ZM148.404 15.864C148.404 13.9026 148.056 12.3303 147.334 11.1718L146.909 11.4362C147.563 12.4857 147.904 13.9534 147.904 15.864H148.404ZM147.335 11.1736C146.597 9.96725 145.338 9.386 143.63 9.386V9.886C145.217 9.886 146.286 10.4168 146.908 11.4344L147.335 11.1736ZM143.63 9.386C141.916 9.386 140.495 9.92624 139.386 11.0179L139.737 11.3741C140.741 10.3858 142.031 9.886 143.63 9.886V9.386ZM139.386 11.0179C138.304 12.0836 137.74 13.2402 137.74 14.484H138.24C138.24 13.4078 138.723 12.3724 139.737 11.3741L139.386 11.0179ZM137.854 14.6943L139.03 15.4503L139.301 15.0297L138.125 14.2737L137.854 14.6943ZM139.416 15.24C139.416 14.1757 139.74 13.3111 140.38 12.6267L140.015 12.2853C139.279 13.0729 138.916 14.0643 138.916 15.24H139.416ZM140.38 12.6268C141.029 11.9327 141.816 11.59 142.754 11.59V11.09C141.676 11.09 140.758 11.4913 140.015 12.2852L140.38 12.6268ZM142.754 11.59C143.69 11.59 144.35 11.9076 144.782 12.5166L145.189 12.2274C144.645 11.4604 143.817 11.09 142.754 11.09V11.59ZM144.783 12.5182C145.23 13.1389 145.48 14.2424 145.48 15.888H145.98C145.98 14.2216 145.733 12.9811 145.188 12.2258L144.783 12.5182ZM145.48 15.888V24H145.98V15.888H145.48Z" fill="#202020"/>
<path d="M154.186 10.034H155.32L150.91 23.18H149.79L154.186 10.034ZM163.205 21.5L162.169 19.12H157.003L155.981 21.5H154.567L158.921 11.7H160.321L164.661 21.5H163.205ZM157.535 17.902H161.651L159.579 13.142L157.535 17.902ZM172.477 11.112V21.5H171.175V20.03C170.895 20.5247 170.517 20.9073 170.041 21.178C169.574 21.4393 169.028 21.57 168.403 21.57C167.703 21.57 167.082 21.4113 166.541 21.094C166.009 20.7673 165.593 20.3193 165.295 19.75C164.996 19.1713 164.847 18.5133 164.847 17.776C164.847 17.048 164.996 16.404 165.295 15.844C165.593 15.2747 166.009 14.8313 166.541 14.514C167.082 14.1967 167.698 14.038 168.389 14.038C169.023 14.038 169.579 14.1687 170.055 14.43C170.531 14.6913 170.904 15.0693 171.175 15.564V11.112H172.477ZM168.669 20.45C169.154 20.45 169.583 20.338 169.957 20.114C170.339 19.89 170.638 19.5773 170.853 19.176C171.067 18.7747 171.175 18.322 171.175 17.818C171.175 17.3047 171.067 16.8473 170.853 16.446C170.638 16.0447 170.339 15.732 169.957 15.508C169.583 15.284 169.154 15.172 168.669 15.172C168.183 15.172 167.749 15.2887 167.367 15.522C166.993 15.746 166.699 16.0587 166.485 16.46C166.27 16.8613 166.163 17.314 166.163 17.818C166.163 18.322 166.27 18.7747 166.485 19.176C166.699 19.5773 166.993 19.89 167.367 20.114C167.749 20.338 168.183 20.45 168.669 20.45ZM184.652 14.052C185.502 14.052 186.169 14.3087 186.654 14.822C187.14 15.3353 187.382 16.0353 187.382 16.922V21.5H186.066V17.272C186.066 16.6467 185.894 16.1567 185.548 15.802C185.212 15.4473 184.746 15.27 184.148 15.27C183.448 15.2887 182.898 15.536 182.496 16.012C182.095 16.488 181.894 17.0993 181.894 17.846V21.5H180.578V17.272C180.578 16.6467 180.41 16.1567 180.074 15.802C179.738 15.4473 179.267 15.27 178.66 15.27C177.96 15.2887 177.405 15.536 176.994 16.012C176.593 16.488 176.392 17.0993 176.392 17.846V21.5H175.09V14.094H176.392V15.648C176.878 14.6027 177.797 14.0707 179.15 14.052C179.832 14.052 180.396 14.2153 180.844 14.542C181.302 14.8687 181.61 15.326 181.768 15.914C182.226 14.6913 183.187 14.0707 184.652 14.052ZM189.706 14.094H191.008V21.5H189.706V14.094ZM190.35 11.14C190.583 11.14 190.774 11.2193 190.924 11.378C191.082 11.5367 191.162 11.7373 191.162 11.98C191.162 12.2227 191.082 12.4233 190.924 12.582C190.774 12.7407 190.583 12.82 190.35 12.82C190.116 12.82 189.92 12.7407 189.762 12.582C189.612 12.4233 189.538 12.2227 189.538 11.98C189.538 11.7373 189.612 11.5367 189.762 11.378C189.92 11.2193 190.116 11.14 190.35 11.14ZM197.663 14.052C198.531 14.052 199.213 14.3087 199.707 14.822C200.202 15.326 200.449 16.026 200.449 16.922V21.5H199.147V17.272C199.147 16.6467 198.97 16.1613 198.615 15.816C198.27 15.4613 197.789 15.284 197.173 15.284C196.511 15.2933 195.969 15.508 195.549 15.928C195.139 16.3387 194.905 16.8753 194.849 17.538V21.5H193.547V14.094H194.849V15.662C195.344 14.6073 196.282 14.0707 197.663 14.052Z" fill="#838383"/>
<defs>
<linearGradient id="paint0_linear_2624_23031" x1="16" y1="0" x2="16" y2="32" gradientUnits="userSpaceOnUse">
<stop stop-color="#4B48DC"/>
<stop offset="1" stop-color="#D048DC"/>
</linearGradient>
</defs>
</svg>
