<svg width="1345" height="801" viewBox="0 0 1345 801" fill="none" xmlns="http://www.w3.org/2000/svg">
<g opacity="0.2">
<path d="M1210 -92.9663V128.258C1210 425.111 969.357 665.758 672.504 665.758V665.758C375.651 665.758 135.004 425.112 135.004 128.259V96.7149" stroke="#2421C4" stroke-width="268.75"/>
<path d="M1210 -92.9663V128.258C1210 425.111 969.357 665.758 672.504 665.758V665.758C375.651 665.758 135.004 425.112 135.004 128.259V96.7149" stroke="url(#paint0_linear_244_4100)" stroke-width="268.75"/>
<path d="M1210 128.246L1210 38.6628L1210 -140.504L851.666 -140.504" stroke="#2421C4" stroke-width="268.75"/>
<path d="M1210 128.246L1210 38.6628L1210 -140.504L851.666 -140.504" stroke="url(#paint1_linear_244_4100)" stroke-width="268.75"/>
</g>
<defs>
<linearGradient id="paint0_linear_244_4100" x1="672.504" y1="665.758" x2="672.504" y2="-92.9662" gradientUnits="userSpaceOnUse">
<stop stop-color="#000C7C"/>
<stop offset="1" stop-color="#D048DC"/>
</linearGradient>
<linearGradient id="paint1_linear_244_4100" x1="1176.41" y1="1137.5" x2="1176.41" y2="-266.476" gradientUnits="userSpaceOnUse">
<stop stop-color="#4B48DC"/>
<stop offset="1" stop-color="#D048DC"/>
</linearGradient>
</defs>
</svg>
