<svg width="20" height="20" viewBox="0 0 20 20" fill="none" xmlns="http://www.w3.org/2000/svg">
<g id="vuesax/bold/bank">
<g id="bank">
<path id="Vector" d="M18.3332 15.8333V18.3333H1.6665V15.8333C1.6665 15.375 2.0415 15 2.49984 15H17.4998C17.9582 15 18.3332 15.375 18.3332 15.8333Z" fill="#A4ACAF" stroke="#A4ACAF" stroke-width="1.5" stroke-miterlimit="10" stroke-linecap="round" stroke-linejoin="round"/>
<path id="Vector_2" d="M5.83317 9.1665H4.1665V14.9998H5.83317V9.1665Z" fill="#A4ACAF"/>
<path id="Vector_3" d="M9.16667 9.1665H7.5V14.9998H9.16667V9.1665Z" fill="#A4ACAF"/>
<path id="Vector_4" d="M12.5002 9.1665H10.8335V14.9998H12.5002V9.1665Z" fill="#A4ACAF"/>
<path id="Vector_5" d="M15.8332 9.1665H14.1665V14.9998H15.8332V9.1665Z" fill="#A4ACAF"/>
<path id="Vector_6" d="M19.1668 18.9585H0.833496C0.491829 18.9585 0.208496 18.6752 0.208496 18.3335C0.208496 17.9918 0.491829 17.7085 0.833496 17.7085H19.1668C19.5085 17.7085 19.7918 17.9918 19.7918 18.3335C19.7918 18.6752 19.5085 18.9585 19.1668 18.9585Z" fill="#A4ACAF"/>
<path id="Vector_7" d="M17.8082 4.7917L10.3082 1.7917C10.1415 1.72503 9.85817 1.72503 9.6915 1.7917L2.1915 4.7917C1.89984 4.90837 1.6665 5.25003 1.6665 5.5667V8.33337C1.6665 8.7917 2.0415 9.1667 2.49984 9.1667H17.4998C17.9582 9.1667 18.3332 8.7917 18.3332 8.33337V5.5667C18.3332 5.25003 18.0998 4.90837 17.8082 4.7917ZM9.99984 7.08337C9.30817 7.08337 8.74984 6.52503 8.74984 5.83337C8.74984 5.1417 9.30817 4.58337 9.99984 4.58337C10.6915 4.58337 11.2498 5.1417 11.2498 5.83337C11.2498 6.52503 10.6915 7.08337 9.99984 7.08337Z" fill="#A4ACAF"/>
</g>
</g>
</svg>
