<svg width="520" height="193" viewBox="0 0 520 193" fill="none" xmlns="http://www.w3.org/2000/svg">
<path d="M51.8766 60V4H76.9966C83.4499 4 88.4099 5.30666 91.8766 7.92C95.3432 10.48 97.0766 14 97.0766 18.48C97.0766 21.52 96.3832 24.08 94.9966 26.16C93.6632 28.24 91.8499 29.84 89.5566 30.96C87.2632 32.08 84.7832 32.64 82.1166 32.64L83.5566 30.24C86.7566 30.24 89.5832 30.8 92.0366 31.92C94.4899 33.04 96.4366 34.6933 97.8766 36.88C99.3166 39.0133 100.037 41.68 100.037 44.88C100.037 49.68 98.2232 53.4133 94.5966 56.08C91.0232 58.6933 85.6899 60 78.5966 60H51.8766ZM59.8766 53.52H78.2766C82.7032 53.52 86.0899 52.7733 88.4366 51.28C90.7832 49.7867 91.9566 47.44 91.9566 44.24C91.9566 40.9867 90.7832 38.6133 88.4366 37.12C86.0899 35.6267 82.7032 34.88 78.2766 34.88H59.1566V28.4H76.2766C80.3299 28.4 83.4766 27.6533 85.7166 26.16C87.9566 24.6667 89.0766 22.4267 89.0766 19.44C89.0766 16.4533 87.9566 14.2133 85.7166 12.72C83.4766 11.2267 80.3299 10.48 76.2766 10.48H59.8766V53.52ZM129.143 60.48C125.517 60.48 122.317 59.8133 119.543 58.48C116.823 57.1467 114.69 55.12 113.143 52.4C111.65 49.6267 110.903 46.16 110.903 42V17.6H118.583V41.12C118.583 45.28 119.57 48.4 121.543 50.48C123.57 52.56 126.397 53.6 130.023 53.6C132.69 53.6 135.01 53.0667 136.983 52C138.957 50.88 140.477 49.28 141.543 47.2C142.61 45.0667 143.143 42.5067 143.143 39.52V17.6H150.823V60H143.543V48.56L144.743 51.6C143.357 54.4267 141.277 56.6133 138.503 58.16C135.73 59.7067 132.61 60.48 129.143 60.48ZM167.284 76C165.257 76 163.284 75.6533 161.364 74.96C159.444 74.32 157.791 73.36 156.404 72.08L159.684 66.32C160.751 67.3333 161.924 68.1067 163.204 68.64C164.484 69.1733 165.844 69.44 167.284 69.44C169.151 69.44 170.697 68.96 171.924 68C173.151 67.04 174.297 65.3333 175.364 62.88L178.004 57.04L178.804 56.08L195.444 17.6H202.964L182.404 64.24C181.177 67.2267 179.791 69.5733 178.244 71.28C176.751 72.9867 175.097 74.1867 173.284 74.88C171.471 75.6267 169.471 76 167.284 76ZM177.364 61.36L158.004 17.6H166.004L182.484 55.36L177.364 61.36ZM204.435 71.84L208.435 55.68L209.475 60.32C207.929 60.32 206.622 59.84 205.555 58.88C204.542 57.92 204.035 56.6133 204.035 54.96C204.035 53.36 204.542 52.0533 205.555 51.04C206.622 50.0267 207.902 49.52 209.395 49.52C210.942 49.52 212.195 50.0533 213.155 51.12C214.115 52.1333 214.595 53.4133 214.595 54.96C214.595 55.4933 214.542 56.0267 214.435 56.56C214.382 57.04 214.249 57.6267 214.035 58.32C213.875 58.96 213.609 59.76 213.235 60.72L209.475 71.84H204.435ZM261.645 60.48C257.378 60.48 254.071 59.3333 251.725 57.04C249.378 54.7467 248.205 51.4667 248.205 47.2V8.32H255.885V46.88C255.885 49.1733 256.445 50.9333 257.565 52.16C258.738 53.3867 260.391 54 262.525 54C264.925 54 266.925 53.3333 268.525 52L270.925 57.52C269.751 58.5333 268.338 59.28 266.685 59.76C265.085 60.24 263.405 60.48 261.645 60.48ZM241.005 23.92V17.6H268.045V23.92H241.005ZM280.21 60V17.6H287.57V29.12L286.85 26.24C288.023 23.3067 289.996 21.0667 292.77 19.52C295.543 17.9733 298.956 17.2 303.01 17.2V24.64C302.69 24.5867 302.37 24.56 302.05 24.56C301.783 24.56 301.516 24.56 301.25 24.56C297.143 24.56 293.89 25.7867 291.49 28.24C289.09 30.6933 287.89 34.24 287.89 38.88V60H280.21ZM335.67 60V51.04L335.27 49.36V34.08C335.27 30.8267 334.31 28.32 332.39 26.56C330.524 24.7467 327.697 23.84 323.91 23.84C321.404 23.84 318.95 24.2667 316.55 25.12C314.15 25.92 312.124 27.0133 310.47 28.4L307.27 22.64C309.457 20.88 312.07 19.5467 315.11 18.64C318.204 17.68 321.43 17.2 324.79 17.2C330.604 17.2 335.084 18.6133 338.23 21.44C341.377 24.2667 342.95 28.5867 342.95 34.4V60H335.67ZM321.75 60.48C318.604 60.48 315.83 59.9467 313.43 58.88C311.084 57.8133 309.27 56.3467 307.99 54.48C306.71 52.56 306.07 50.4 306.07 48C306.07 45.7067 306.604 43.6267 307.67 41.76C308.79 39.8933 310.577 38.4 313.03 37.28C315.537 36.16 318.897 35.6 323.11 35.6H336.55V41.12H323.43C319.59 41.12 317.004 41.76 315.67 43.04C314.337 44.32 313.67 45.8667 313.67 47.68C313.67 49.76 314.497 51.44 316.15 52.72C317.804 53.9467 320.097 54.56 323.03 54.56C325.91 54.56 328.417 53.92 330.55 52.64C332.737 51.36 334.31 49.4933 335.27 47.04L336.79 52.32C335.777 54.8267 333.99 56.8267 331.43 58.32C328.87 59.76 325.644 60.48 321.75 60.48ZM374.683 60.48C370.576 60.48 366.896 59.5733 363.643 57.76C360.443 55.9467 357.909 53.4133 356.043 50.16C354.176 46.9067 353.243 43.12 353.243 38.8C353.243 34.48 354.176 30.72 356.043 27.52C357.909 24.2667 360.443 21.7333 363.643 19.92C366.896 18.1067 370.576 17.2 374.683 17.2C378.256 17.2 381.483 18 384.363 19.6C387.243 21.2 389.536 23.6 391.243 26.8C393.003 30 393.883 34 393.883 38.8C393.883 43.6 393.029 47.6 391.323 50.8C389.669 54 387.403 56.4267 384.523 58.08C381.643 59.68 378.363 60.48 374.683 60.48ZM375.323 53.76C377.989 53.76 380.389 53.1467 382.523 51.92C384.709 50.6933 386.416 48.96 387.643 46.72C388.923 44.4267 389.563 41.7867 389.563 38.8C389.563 35.76 388.923 33.1467 387.643 30.96C386.416 28.72 384.709 26.9867 382.523 25.76C380.389 24.5333 377.989 23.92 375.323 23.92C372.603 23.92 370.176 24.5333 368.043 25.76C365.909 26.9867 364.203 28.72 362.923 30.96C361.643 33.1467 361.003 35.76 361.003 38.8C361.003 41.7867 361.643 44.4267 362.923 46.72C364.203 48.96 365.909 50.6933 368.043 51.92C370.176 53.1467 372.603 53.76 375.323 53.76ZM389.803 60V48.56L390.283 38.72L389.483 28.88V0.639997H397.163V60H389.803ZM430.574 60.48C426.041 60.48 422.041 59.5467 418.574 57.68C415.161 55.8133 412.494 53.2533 410.574 50C408.707 46.7467 407.774 43.0133 407.774 38.8C407.774 34.5867 408.681 30.8533 410.494 27.6C412.361 24.3467 414.894 21.8133 418.094 20C421.347 18.1333 425.001 17.2 429.054 17.2C433.161 17.2 436.787 18.1067 439.934 19.92C443.081 21.7333 445.534 24.2933 447.294 27.6C449.107 30.8533 450.014 34.6667 450.014 39.04C450.014 39.36 449.987 39.7333 449.934 40.16C449.934 40.5867 449.907 40.9867 449.854 41.36H413.774V35.84H445.854L442.734 37.76C442.787 35.04 442.227 32.6133 441.054 30.48C439.881 28.3467 438.254 26.6933 436.174 25.52C434.147 24.2933 431.774 23.68 429.054 23.68C426.387 23.68 424.014 24.2933 421.934 25.52C419.854 26.6933 418.227 28.3733 417.054 30.56C415.881 32.6933 415.294 35.1467 415.294 37.92V39.2C415.294 42.0267 415.934 44.56 417.214 46.8C418.547 48.9867 420.387 50.6933 422.734 51.92C425.081 53.1467 427.774 53.76 430.814 53.76C433.321 53.76 435.587 53.3333 437.614 52.48C439.694 51.6267 441.507 50.3467 443.054 48.64L447.294 53.6C445.374 55.84 442.974 57.5467 440.094 58.72C437.267 59.8933 434.094 60.48 430.574 60.48ZM457.638 71.84L461.638 55.68L462.678 60.32C461.132 60.32 459.825 59.84 458.758 58.88C457.745 57.92 457.238 56.6133 457.238 54.96C457.238 53.36 457.745 52.0533 458.758 51.04C459.825 50.0267 461.105 49.52 462.598 49.52C464.145 49.52 465.398 50.0533 466.358 51.12C467.318 52.1333 467.798 53.4133 467.798 54.96C467.798 55.4933 467.745 56.0267 467.638 56.56C467.585 57.04 467.452 57.6267 467.238 58.32C467.078 58.96 466.812 59.76 466.438 60.72L462.678 71.84H457.638ZM28.9207 173.6C23.254 173.6 18.254 172.433 13.9207 170.1C9.65404 167.767 6.3207 164.567 3.9207 160.5C1.58737 156.433 0.420703 151.767 0.420703 146.5C0.420703 141.233 1.55404 136.567 3.8207 132.5C6.15404 128.433 9.3207 125.267 13.3207 123C17.3874 120.667 21.954 119.5 27.0207 119.5C32.154 119.5 36.6874 120.633 40.6207 122.9C44.554 125.167 47.6207 128.367 49.8207 132.5C52.0874 136.567 53.2207 141.333 53.2207 146.8C53.2207 147.2 53.1874 147.667 53.1207 148.2C53.1207 148.733 53.0874 149.233 53.0207 149.7H7.9207V142.8H48.0207L44.1207 145.2C44.1874 141.8 43.4874 138.767 42.0207 136.1C40.554 133.433 38.5207 131.367 35.9207 129.9C33.3874 128.367 30.4207 127.6 27.0207 127.6C23.6874 127.6 20.7207 128.367 18.1207 129.9C15.5207 131.367 13.4874 133.467 12.0207 136.2C10.554 138.867 9.8207 141.933 9.8207 145.4V147C9.8207 150.533 10.6207 153.7 12.2207 156.5C13.8874 159.233 16.1874 161.367 19.1207 162.9C22.054 164.433 25.4207 165.2 29.2207 165.2C32.354 165.2 35.1874 164.667 37.7207 163.6C40.3207 162.533 42.5874 160.933 44.5207 158.8L49.8207 165C47.4207 167.8 44.4207 169.933 40.8207 171.4C37.2874 172.867 33.3207 173.6 28.9207 173.6ZM57.3863 173L80.1863 143.4L80.0863 148.3L58.3863 120H69.0863L85.6863 141.8H81.5863L98.1863 120H108.686L86.6863 148.5L86.7863 143.4L109.786 173H98.8863L81.3863 149.8L85.2863 150.4L68.0863 173H57.3863ZM141.604 173.6C136.204 173.6 131.371 172.433 127.104 170.1C122.904 167.767 119.604 164.567 117.204 160.5C114.804 156.433 113.604 151.767 113.604 146.5C113.604 141.233 114.804 136.567 117.204 132.5C119.604 128.433 122.904 125.267 127.104 123C131.371 120.667 136.204 119.5 141.604 119.5C146.404 119.5 150.671 120.467 154.404 122.4C158.204 124.267 161.138 127.067 163.204 130.8L155.904 135.5C154.171 132.9 152.038 131 149.504 129.8C147.038 128.533 144.371 127.9 141.504 127.9C138.038 127.9 134.938 128.667 132.204 130.2C129.471 131.733 127.304 133.9 125.704 136.7C124.104 139.433 123.304 142.7 123.304 146.5C123.304 150.3 124.104 153.6 125.704 156.4C127.304 159.2 129.471 161.367 132.204 162.9C134.938 164.433 138.038 165.2 141.504 165.2C144.371 165.2 147.038 164.6 149.504 163.4C152.038 162.133 154.171 160.2 155.904 157.6L163.204 162.2C161.138 165.867 158.204 168.7 154.404 170.7C150.671 172.633 146.404 173.6 141.604 173.6ZM203.25 119.5C207.583 119.5 211.383 120.333 214.65 122C217.983 123.667 220.583 126.2 222.45 129.6C224.316 133 225.25 137.3 225.25 142.5V173H215.65V143.6C215.65 138.467 214.383 134.6 211.85 132C209.383 129.4 205.883 128.1 201.35 128.1C197.95 128.1 194.983 128.767 192.45 130.1C189.916 131.433 187.95 133.4 186.55 136C185.216 138.6 184.55 141.833 184.55 145.7V173H174.95V98.8H184.55V134.3L182.65 130.5C184.383 127.033 187.05 124.333 190.65 122.4C194.25 120.467 198.45 119.5 203.25 119.5ZM275.916 173V161.8L275.416 159.7V140.6C275.416 136.533 274.216 133.4 271.816 131.2C269.483 128.933 265.949 127.8 261.216 127.8C258.083 127.8 255.016 128.333 252.016 129.4C249.016 130.4 246.483 131.767 244.416 133.5L240.416 126.3C243.149 124.1 246.416 122.433 250.216 121.3C254.083 120.1 258.116 119.5 262.316 119.5C269.583 119.5 275.183 121.267 279.116 124.8C283.049 128.333 285.016 133.733 285.016 141V173H275.916ZM258.516 173.6C254.583 173.6 251.116 172.933 248.116 171.6C245.183 170.267 242.916 168.433 241.316 166.1C239.716 163.7 238.916 161 238.916 158C238.916 155.133 239.583 152.533 240.916 150.2C242.316 147.867 244.549 146 247.616 144.6C250.749 143.2 254.949 142.5 260.216 142.5H277.016V149.4H260.616C255.816 149.4 252.583 150.2 250.916 151.8C249.249 153.4 248.416 155.333 248.416 157.6C248.416 160.2 249.449 162.3 251.516 163.9C253.583 165.433 256.449 166.2 260.116 166.2C263.716 166.2 266.849 165.4 269.516 163.8C272.249 162.2 274.216 159.867 275.416 156.8L277.316 163.4C276.049 166.533 273.816 169.033 270.616 170.9C267.416 172.7 263.383 173.6 258.516 173.6ZM331.082 119.5C335.415 119.5 339.215 120.333 342.482 122C345.815 123.667 348.415 126.2 350.282 129.6C352.148 133 353.082 137.3 353.082 142.5V173H343.482V143.6C343.482 138.467 342.215 134.6 339.682 132C337.215 129.4 333.715 128.1 329.182 128.1C325.782 128.1 322.815 128.767 320.282 130.1C317.748 131.433 315.782 133.4 314.382 136C313.048 138.6 312.382 141.833 312.382 145.7V173H302.782V120H311.982V134.3L310.482 130.5C312.215 127.033 314.882 124.333 318.482 122.4C322.082 120.467 326.282 119.5 331.082 119.5ZM394.048 193C389.181 193 384.448 192.3 379.848 190.9C375.315 189.567 371.615 187.633 368.748 185.1L373.348 177.7C375.815 179.833 378.848 181.5 382.448 182.7C386.048 183.967 389.815 184.6 393.748 184.6C400.015 184.6 404.615 183.133 407.548 180.2C410.481 177.267 411.948 172.8 411.948 166.8V155.6L412.948 145.1L412.448 134.5V120H421.548V165.8C421.548 175.133 419.215 182 414.548 186.4C409.881 190.8 403.048 193 394.048 193ZM392.848 170.8C387.715 170.8 383.115 169.733 379.048 167.6C375.048 165.4 371.848 162.367 369.448 158.5C367.115 154.633 365.948 150.167 365.948 145.1C365.948 139.967 367.115 135.5 369.448 131.7C371.848 127.833 375.048 124.833 379.048 122.7C383.115 120.567 387.715 119.5 392.848 119.5C397.381 119.5 401.515 120.433 405.248 122.3C408.981 124.1 411.948 126.9 414.148 130.7C416.415 134.5 417.548 139.3 417.548 145.1C417.548 150.833 416.415 155.6 414.148 159.4C411.948 163.2 408.981 166.067 405.248 168C401.515 169.867 397.381 170.8 392.848 170.8ZM393.948 162.4C397.481 162.4 400.615 161.667 403.348 160.2C406.081 158.733 408.215 156.7 409.748 154.1C411.348 151.5 412.148 148.5 412.148 145.1C412.148 141.7 411.348 138.7 409.748 136.1C408.215 133.5 406.081 131.5 403.348 130.1C400.615 128.633 397.481 127.9 393.948 127.9C390.415 127.9 387.248 128.633 384.448 130.1C381.715 131.5 379.548 133.5 377.948 136.1C376.415 138.7 375.648 141.7 375.648 145.1C375.648 148.5 376.415 151.5 377.948 154.1C379.548 156.7 381.715 158.733 384.448 160.2C387.248 161.667 390.415 162.4 393.948 162.4ZM463.491 173.6C457.824 173.6 452.824 172.433 448.491 170.1C444.224 167.767 440.891 164.567 438.491 160.5C436.158 156.433 434.991 151.767 434.991 146.5C434.991 141.233 436.124 136.567 438.391 132.5C440.724 128.433 443.891 125.267 447.891 123C451.958 120.667 456.524 119.5 461.591 119.5C466.724 119.5 471.258 120.633 475.191 122.9C479.124 125.167 482.191 128.367 484.391 132.5C486.658 136.567 487.791 141.333 487.791 146.8C487.791 147.2 487.758 147.667 487.691 148.2C487.691 148.733 487.658 149.233 487.591 149.7H442.491V142.8H482.591L478.691 145.2C478.758 141.8 478.058 138.767 476.591 136.1C475.124 133.433 473.091 131.367 470.491 129.9C467.958 128.367 464.991 127.6 461.591 127.6C458.258 127.6 455.291 128.367 452.691 129.9C450.091 131.367 448.058 133.467 446.591 136.2C445.124 138.867 444.391 141.933 444.391 145.4V147C444.391 150.533 445.191 153.7 446.791 156.5C448.458 159.233 450.758 161.367 453.691 162.9C456.624 164.433 459.991 165.2 463.791 165.2C466.924 165.2 469.758 164.667 472.291 163.6C474.891 162.533 477.158 160.933 479.091 158.8L484.391 165C481.991 167.8 478.991 169.933 475.391 171.4C471.858 172.867 467.891 173.6 463.491 173.6ZM500.721 150.9L508.421 103H519.821L508.321 150.9H500.721ZM501.021 173.6C499.221 173.6 497.721 173 496.521 171.8C495.388 170.6 494.821 169.2 494.821 167.6C494.821 165.6 495.455 163.967 496.721 162.7C498.055 161.433 499.655 160.8 501.521 160.8C503.321 160.8 504.788 161.367 505.921 162.5C507.121 163.633 507.721 165.033 507.721 166.7C507.721 167.967 507.421 169.133 506.821 170.2C506.221 171.267 505.421 172.1 504.421 172.7C503.421 173.3 502.288 173.6 501.021 173.6Z" fill="white"/>
</svg>
