<svg width="286" height="219" viewBox="0 0 286 219" fill="none" xmlns="http://www.w3.org/2000/svg">
<path opacity="0.1" d="M211.683 47.564C218.465 47.564 223.963 41.7545 223.963 34.5883C223.963 27.422 218.465 21.6125 211.683 21.6125C204.901 21.6125 199.403 27.422 199.403 34.5883C199.403 41.7545 204.901 47.564 211.683 47.564Z" fill="#F2F2F2"/>
<path d="M215.006 35.1343C214.889 34.8304 214.675 34.5796 214.401 34.426C214.23 34.3204 214.046 34.2411 213.855 34.1906C213.984 34.1248 214.102 34.0374 214.205 33.9318C214.358 33.7813 214.474 33.5929 214.541 33.3835C214.603 33.1688 214.629 32.944 214.616 32.7198C214.615 32.3475 214.517 31.9827 214.332 31.6656C214.126 31.3758 213.845 31.1551 213.523 31.0302C213.211 30.902 212.88 30.8312 212.544 30.8207V29.317L211.684 29.9053V30.8231H210.995V29.8582L210.113 29.317V30.8231H208.24L208.842 31.9526C208.97 31.9434 209.098 31.9618 209.218 32.0068C209.279 32.0355 209.328 32.0853 209.358 32.148C209.395 32.2816 209.409 32.421 209.399 32.5598V36.6357C209.408 36.7737 209.395 36.9123 209.358 37.0452C209.33 37.1064 209.315 37.1605 209.248 37.1934C209.182 37.2264 209.18 37.224 208.995 37.224H208.992L208.24 38.3536H210.111V39.8597H210.993V38.3536H211.682V39.8597H212.542V38.3442C212.978 38.336 213.409 38.2542 213.82 38.1018C214.202 37.9578 214.536 37.7004 214.782 37.3605C214.996 36.9989 215.114 36.5824 215.122 36.1556C215.144 35.8105 215.105 35.464 215.006 35.1343ZM210.993 32.0939H210.993V32.0626H211.595C211.933 32.0626 213.061 31.9393 213.08 32.9467C213.099 33.9542 211.595 33.913 211.595 33.913H210.993V33.8353H210.993V32.0939ZM210.993 34.9649H211.682C211.822 34.9649 212.303 34.9882 212.478 34.9969C212.549 34.9998 212.62 35.0136 212.688 35.0379C212.712 35.047 212.736 35.0574 212.761 35.0689C212.868 35.1067 212.968 35.1621 213.058 35.2332C213.117 35.2761 213.169 35.3294 213.211 35.3908C213.276 35.4907 213.324 35.6021 213.352 35.7198C213.372 35.8022 213.383 35.887 213.383 35.9721C213.39 36.1343 213.353 36.2953 213.276 36.4357C213.166 36.6223 213.004 36.7685 212.812 36.8546C212.453 37.0097 212.069 37.0873 211.682 37.0829H210.993V34.9649Z" fill="#F9E006"/>
<path d="M254.92 123.916C260.274 123.916 264.614 119.331 264.614 113.674C264.614 108.017 260.274 103.431 254.92 103.431C249.567 103.431 245.227 108.017 245.227 113.674C245.227 119.331 249.567 123.916 254.92 123.916Z" fill="#303030"/>
<path d="M257.543 114.105C257.451 113.865 257.282 113.667 257.066 113.546C256.931 113.462 256.786 113.4 256.634 113.36C256.736 113.308 256.83 113.239 256.911 113.156C257.032 113.037 257.123 112.888 257.176 112.723C257.225 112.553 257.246 112.376 257.236 112.199C257.235 111.905 257.157 111.617 257.011 111.367C256.849 111.138 256.627 110.964 256.373 110.865C256.126 110.764 255.865 110.708 255.6 110.7V109.513L254.921 109.977V110.702H254.378V109.94L253.681 109.513V110.702H252.202L252.678 111.593C252.778 111.586 252.88 111.601 252.975 111.636C253.023 111.659 253.062 111.698 253.085 111.748C253.114 111.853 253.125 111.963 253.117 112.073V115.29C253.125 115.399 253.114 115.508 253.085 115.613C253.063 115.661 253.051 115.704 252.999 115.73C252.946 115.756 252.944 115.754 252.798 115.754H252.797L252.202 116.646H253.68V117.835H254.376V116.646H254.919V117.835H255.599V116.639C255.942 116.632 256.283 116.568 256.607 116.447C256.908 116.334 257.172 116.13 257.366 115.862C257.536 115.577 257.629 115.248 257.635 114.911C257.653 114.639 257.621 114.365 257.543 114.105ZM254.376 111.705H254.376V111.68H254.851C255.118 111.68 256.008 111.583 256.023 112.378C256.038 113.173 254.851 113.141 254.851 113.141H254.376V113.079H254.376V111.705ZM254.376 113.971H254.919C255.03 113.971 255.409 113.989 255.548 113.996C255.604 113.999 255.66 114.01 255.713 114.029C255.733 114.036 255.751 114.044 255.771 114.053C255.855 114.083 255.935 114.127 256.006 114.183C256.052 114.217 256.093 114.259 256.127 114.307C256.178 114.386 256.216 114.474 256.238 114.567C256.254 114.632 256.262 114.699 256.263 114.766C256.268 114.894 256.239 115.021 256.178 115.132C256.091 115.279 255.963 115.395 255.811 115.463C255.528 115.585 255.225 115.646 254.919 115.643H254.376V113.971Z" fill="#F9E006"/>
<path d="M39.0188 176.18C42.9123 176.18 46.0686 172.845 46.0686 168.731C46.0686 164.617 42.9123 161.282 39.0188 161.282C35.1252 161.282 31.9689 164.617 31.9689 168.731C31.9689 172.845 35.1252 176.18 39.0188 176.18Z" fill="#303030"/>
<path d="M40.9273 169.044C40.8604 168.87 40.7376 168.726 40.5802 168.638C40.4823 168.577 40.3767 168.531 40.2665 168.503C40.3407 168.465 40.4087 168.415 40.4678 168.354C40.5558 168.268 40.622 168.159 40.6605 168.039C40.6964 167.916 40.711 167.787 40.7037 167.658C40.7031 167.444 40.6467 167.235 40.5407 167.053C40.4224 166.887 40.2612 166.76 40.0763 166.688C39.8968 166.615 39.7068 166.574 39.5144 166.568V165.705L39.0204 166.042V166.569H38.6252V166.015L38.1188 165.705V166.569H37.0431L37.3889 167.218C37.4622 167.212 37.5357 167.223 37.605 167.249C37.6398 167.265 37.6682 167.294 37.6853 167.33C37.7064 167.407 37.7143 167.487 37.7088 167.566V169.906C37.7141 169.985 37.7062 170.065 37.6853 170.141C37.6692 170.176 37.6606 170.207 37.6223 170.226C37.584 170.245 37.5828 170.244 37.4766 170.244H37.4753L37.0431 170.892H38.1175V171.757H38.6239V170.892H39.0191V171.757H39.5131V170.887C39.7631 170.882 40.0108 170.835 40.2468 170.748C40.4657 170.665 40.6574 170.517 40.7988 170.322C40.922 170.115 40.9895 169.876 40.9939 169.631C41.007 169.432 40.9843 169.233 40.9273 169.044ZM38.6239 167.299H38.624V167.281H38.9694C39.1636 167.281 39.811 167.21 39.8218 167.788C39.8327 168.367 38.9694 168.343 38.9694 168.343H38.624V168.299H38.6239V167.299ZM38.6239 168.947H39.0191C39.0994 168.947 39.3756 168.96 39.4761 168.965C39.5171 168.967 39.5577 168.975 39.5966 168.989C39.6108 168.994 39.6243 169 39.6389 169.007C39.7 169.028 39.7575 169.06 39.8092 169.101C39.8432 169.126 39.873 169.156 39.8972 169.192C39.9347 169.249 39.962 169.313 39.9779 169.38C39.9897 169.428 39.9958 169.476 39.9961 169.525C40.0001 169.618 39.9787 169.711 39.9344 169.791C39.871 169.898 39.778 169.982 39.6679 170.032C39.4621 170.121 39.2415 170.165 39.0191 170.163H38.6239V168.947Z" fill="#F9E006"/>
<path d="M21.3944 217.15L285.764 217.15" stroke="#3F3D56" stroke-opacity="0.4" stroke-width="2" stroke-miterlimit="10"/>
<path d="M220.351 97.881L68.941 0L0.244756 118.64L151.655 216.521L220.351 97.881Z" fill="#EAEAEA"/>
<path d="M162.6 147.2C162.6 154.533 160.666 161.333 156.8 167.6C153.066 173.733 147.466 178.8 140 182.8C132.666 186.667 123.933 188.8 113.8 189.2V205.4H101V189C86.8663 187.8 75.4663 183.6 66.7996 176.4C58.133 169.067 53.533 159.133 52.9996 146.6H89.3996C90.1996 154.6 94.0663 159.733 101 162V130.4C90.5996 127.733 82.2663 125.133 75.9996 122.6C69.8663 120.067 64.4663 116 59.7996 110.4C55.133 104.8 52.7996 97.1333 52.7996 87.4C52.7996 75.2667 57.2663 65.5333 66.1996 58.2C75.2663 50.8667 86.8663 46.7333 101 45.8V29.6H113.8V45.8C127.8 46.8667 138.866 50.9333 147 58C155.133 65.0667 159.666 74.8667 160.6 87.4H124C123.2 80.2 119.8 75.5333 113.8 73.4V104.4C124.866 107.467 133.4 110.2 139.4 112.6C145.4 115 150.733 119 155.4 124.6C160.2 130.067 162.6 137.6 162.6 147.2ZM88.9996 85.8C88.9996 89.1333 89.9996 91.9333 91.9996 94.2C94.133 96.4667 97.133 98.4667 101 100.2V72.4C97.2663 73.0667 94.333 74.5333 92.1996 76.8C90.0663 78.9333 88.9996 81.9333 88.9996 85.8ZM113.8 162.6C117.8 161.933 120.933 160.333 123.2 157.8C125.6 155.267 126.8 152.133 126.8 148.4C126.8 144.933 125.666 142.133 123.4 140C121.266 137.733 118.066 135.8 113.8 134.2V162.6Z" fill="#F9E006"/>
<path opacity="0.1" d="M132.581 165.155C123.77 169.388 112.422 169.088 112.422 169.088H100.142V166.611C105.146 165.135 112.065 164.222 119.714 164.222C124.019 164.207 128.319 164.518 132.581 165.155Z" fill="black"/>
<path opacity="0.1" d="M147.343 172.332C147.343 176.813 134.971 180.442 119.712 180.442C104.454 180.442 92.0817 176.813 92.0817 172.332C92.0817 170.098 95.1595 168.075 100.141 166.611V169.088H112.421C112.421 169.088 123.769 169.388 132.58 165.155C141.357 166.509 147.343 169.214 147.343 172.332Z" fill="black"/>
<path d="M123.242 121.836H111.486V134.281H123.242V121.836Z" fill="#2F2E41"/>
<path d="M115.859 130.636C115.859 130.636 116.832 134.235 115.129 134.492C114.072 134.666 113.071 135.107 112.21 135.778L115.372 140.147H121.211L124.86 136.292C124.86 136.292 119.995 132.436 120.968 130.122C121.941 127.809 115.859 130.636 115.859 130.636Z" fill="#FFB9B9"/>
<path opacity="0.1" d="M115.859 130.636C115.859 130.636 116.832 134.235 115.129 134.492C114.072 134.666 113.071 135.107 112.21 135.778L115.372 140.147H121.211L124.86 136.292C124.86 136.292 119.995 132.436 120.968 130.122C121.941 127.809 115.859 130.636 115.859 130.636Z" fill="black"/>
<path d="M117.318 175.364L122.914 177.42L126.806 177.677L126.562 174.078L118.534 171.57L117.318 175.364Z" fill="#FFB9B9"/>
<path d="M124.495 174.593C124.495 174.593 124.495 178.191 124.981 178.191C125.468 178.191 132.036 177.42 133.982 178.191C135.929 178.963 138.848 176.135 137.388 174.593C135.929 173.05 133.548 170.737 132.062 171.251C130.576 171.765 124.495 173.05 124.495 173.05L124.495 174.593Z" fill="#2F2E41"/>
<path d="M106.614 171.251C106.614 171.251 103.695 177.42 105.641 177.934C107.587 178.449 109.777 177.677 110.02 177.42C110.263 177.163 113.669 176.135 114.156 176.649C114.642 177.163 114.642 174.593 114.642 174.593L106.614 171.251Z" fill="#2F2E41"/>
<path d="M109.046 162.768C109.046 162.768 104.424 169.452 107.83 171.251C111.236 173.05 127.535 173.05 128.752 171.251C129.968 169.452 130.455 163.796 128.752 163.282C127.049 162.768 109.046 162.768 109.046 162.768Z" fill="#2F2E41"/>
<path opacity="0.2" d="M109.046 162.768C109.046 162.768 104.424 169.452 107.83 171.251C111.236 173.05 127.535 173.05 128.752 171.251C129.968 169.452 130.455 163.796 128.752 163.282C127.049 162.768 109.046 162.768 109.046 162.768Z" fill="black"/>
<path d="M117.805 132.436C120.895 132.436 123.4 129.789 123.4 126.523C123.4 123.258 120.895 120.611 117.805 120.611C114.715 120.611 112.21 123.258 112.21 126.523C112.21 129.789 114.715 132.436 117.805 132.436Z" fill="#FFB9B9"/>
<path d="M109.046 135.777L113.912 134.749C113.912 134.749 115.128 138.862 119.02 138.091C122.913 137.32 123.886 134.749 123.886 134.749C123.886 134.749 126.805 136.034 127.049 136.034C127.292 136.034 130.455 137.32 130.455 138.091C130.455 138.862 126.805 146.574 126.805 146.574L127.292 160.454L109.289 159.94L110.506 146.316L109.046 135.777Z" fill="#111111"/>
<path d="M106.369 142.461C106.369 142.461 104.91 156.085 105.883 157.113C106.856 158.141 110.748 160.969 110.748 160.969V157.884L108.802 154.028L110.748 145.031L106.369 142.461Z" fill="#FFB9B9"/>
<path d="M131.549 142.075C131.549 142.075 130.697 156.085 130.697 156.599C130.697 157.113 128.508 158.912 127.778 158.912C127.048 158.912 126.562 157.627 126.562 157.627L128.265 155.571L127.048 145.032L131.549 142.075Z" fill="#FFB9B9"/>
<path d="M129.237 161.74C129.237 161.74 140.184 155.314 140.427 161.74C140.671 168.166 134.832 170.737 134.832 170.737C134.832 170.737 119.749 175.516 119.141 173.769C118.532 172.022 117.316 169.194 118.289 168.937C119.262 168.68 120.479 168.166 120.965 168.68C121.452 169.194 127.534 164.825 127.534 164.825L129.237 161.74Z" fill="#2F2E41"/>
<path opacity="0.2" d="M134.346 160.969C134.346 160.969 132.156 161.997 131.427 162.768C130.697 163.539 127.534 164.825 127.534 164.825" stroke="black" stroke-width="2" stroke-miterlimit="10"/>
<path d="M110.506 136.292L109.047 135.777C109.047 135.777 103.694 141.69 105.397 143.232C107.1 144.774 108.073 145.288 108.56 145.802C109.047 146.317 111.479 146.574 111.479 146.574L110.506 136.292Z" fill="#111111"/>
<path d="M128.266 137.577L130.456 138.091C130.456 138.091 132.159 141.947 132.645 142.461C133.132 142.975 131.915 142.718 131.186 143.746C130.456 144.774 129.726 146.574 128.266 146.574C126.806 146.574 124.86 144.003 124.86 144.003L128.266 137.577Z" fill="#111111"/>
<path d="M109.532 164.053C109.532 164.053 100.287 157.113 97.1246 162.254C93.9619 167.395 110.748 174.336 113.181 175.364C115.614 176.392 117.803 177.42 117.803 177.42C117.803 177.42 119.993 171.765 119.993 170.737C119.993 169.709 118.29 169.709 117.803 169.709C117.317 169.709 115.127 169.194 114.641 168.423C114.154 167.652 109.532 164.053 109.532 164.053Z" fill="#2F2E41"/>
<path opacity="0.2" d="M104.424 162.254C104.424 162.254 106.857 164.31 109.047 164.825C111.236 165.339 111.966 166.624 111.966 166.624" stroke="black" stroke-width="2" stroke-miterlimit="10"/>
<path d="M107.855 152.589L108.05 163.473C108.056 163.832 108.197 164.175 108.441 164.425C108.685 164.675 109.013 164.814 109.353 164.809L128.522 164.582C128.849 164.578 129.162 164.443 129.398 164.205C129.634 163.967 129.776 163.643 129.795 163.298L130.377 152.642C130.387 152.457 130.361 152.271 130.301 152.097C130.241 151.922 130.148 151.763 130.027 151.628C129.907 151.493 129.761 151.386 129.6 151.312C129.439 151.239 129.265 151.201 129.089 151.201H109.145C108.973 151.201 108.803 151.237 108.645 151.307C108.487 151.377 108.344 151.48 108.224 151.609C108.104 151.738 108.01 151.891 107.946 152.06C107.883 152.228 107.852 152.408 107.855 152.589Z" fill="white"/>
<path d="M105.637 135.842C106.159 134.625 106.861 133.482 107.195 132.194C107.596 130.649 107.44 129.014 107.392 127.413C107.316 125.997 107.43 124.577 107.731 123.195C108.037 121.806 108.723 120.543 109.704 119.565C112.254 117.16 116.92 116.987 120.033 117.988C121.26 118.383 122.568 119.134 122.872 120.451C122.918 120.65 122.938 120.855 122.99 121.052C123.245 122.033 124.194 122.653 124.536 123.603C124.979 124.832 124.296 126.169 124.207 127.48C124.103 129.012 124.815 130.458 125.517 131.802C125.935 132.601 126.369 133.453 126.328 134.364C126.293 134.863 126.149 135.346 125.908 135.776C125.461 136.556 124.833 137.203 124.085 137.657C123.336 138.111 122.49 138.356 121.627 138.37C121.066 138.417 120.505 138.277 120.023 137.969C119.264 137.417 119.041 136.304 119.199 135.343C119.358 134.383 119.819 133.515 120.18 132.618C120.291 132.343 120.391 132.063 120.484 131.78C121.604 131.119 122.468 130.061 122.922 128.792C123.376 127.524 123.391 126.127 122.965 124.847C122.539 123.568 121.698 122.489 120.592 121.801C119.486 121.113 118.185 120.86 116.92 121.087C115.654 121.314 114.505 122.006 113.676 123.041C112.846 124.076 112.39 125.387 112.386 126.743C112.383 128.1 112.834 129.413 113.658 130.453C114.483 131.492 115.628 132.19 116.893 132.424C117.165 133.875 117.041 135.378 116.536 136.757C116.076 137.879 115.498 138.943 114.814 139.929C114.534 140.434 114.161 140.875 113.717 141.226C113.424 141.409 113.11 141.551 112.782 141.648C111.408 142.114 109.961 142.49 108.532 142.28C107.102 142.07 105.686 141.159 105.199 139.723C104.772 138.465 105.115 137.059 105.637 135.842Z" fill="#FF003D"/>
<path d="M117.533 126.759C120.813 126.759 123.471 125.167 123.471 123.204C123.471 121.24 120.813 119.648 117.533 119.648C114.254 119.648 111.595 121.24 111.595 123.204C111.595 125.167 114.254 126.759 117.533 126.759Z" fill="#FF003D"/>
<g opacity="0.5">
<path d="M221.346 154.95C223.832 154.95 225.848 152.821 225.848 150.194C225.848 147.567 223.832 145.438 221.346 145.438C218.86 145.438 216.845 147.567 216.845 150.194C216.845 152.821 218.86 154.95 221.346 154.95Z" fill="#F8931A"/>
<path d="M256.831 201.967V147.814" stroke="black" stroke-opacity="0.4" stroke-width="2" stroke-miterlimit="10"/>
<path d="M256.83 155.472C260.833 155.472 264.078 152.044 264.078 147.814C264.078 143.585 260.833 140.156 256.83 140.156C252.828 140.156 249.583 143.585 249.583 147.814C249.583 152.044 252.828 155.472 256.83 155.472Z" fill="#525252" fill-opacity="0.4"/>
<path d="M242.557 178.135C232.088 195.098 234.956 216.674 234.956 216.674C234.956 216.674 254.798 210.746 265.267 193.783C275.736 176.819 272.867 155.244 272.867 155.244C272.867 155.244 253.026 161.171 242.557 178.135Z" fill="#525252" fill-opacity="0.4"/>
<path d="M234.9 216.477C234.9 216.477 234.645 216.434 234.176 216.333C233.802 216.253 233.287 216.139 232.658 215.981C227.035 214.58 212.085 209.845 202.312 197.395C190.079 181.805 190.594 160.024 190.594 160.024C190.594 160.024 209.298 163.236 221.624 177.236C222.158 177.837 222.677 178.461 223.182 179.106C233.827 192.671 234.819 210.922 234.898 215.434C234.908 216.11 234.9 216.477 234.9 216.477Z" fill="#777777" fill-opacity="0.4"/>
<path d="M227.355 178.135C237.824 195.098 234.956 216.674 234.956 216.674C234.956 216.674 215.114 210.746 204.645 193.783C194.176 176.819 197.045 155.244 197.045 155.244C197.045 155.244 216.886 161.171 227.355 178.135Z" stroke="black" stroke-opacity="0.4" stroke-width="2" stroke-miterlimit="10"/>
<path d="M250.422 181.134C249.594 201.367 235.38 217.15 235.38 217.15C235.38 217.15 222.507 200.13 223.335 179.897C224.162 159.665 238.376 143.881 238.376 143.881C238.376 143.881 251.249 160.902 250.422 181.134Z" fill="#777777" fill-opacity="0.4"/>
<path d="M235.379 216.577L238.504 144.707" stroke="black" stroke-opacity="0.4" stroke-width="2" stroke-miterlimit="10"/>
</g>
</svg>
