<svg width="286" height="219" viewBox="0 0 286 219" fill="none" xmlns="http://www.w3.org/2000/svg">
<path opacity="0.1" d="M211.683 47.564C218.465 47.564 223.963 41.7545 223.963 34.5883C223.963 27.422 218.465 21.6125 211.683 21.6125C204.9 21.6125 199.402 27.422 199.402 34.5883C199.402 41.7545 204.9 47.564 211.683 47.564Z" fill="#F2F2F2"/>
<path d="M215.004 35.1343C214.888 34.8304 214.674 34.5796 214.4 34.426C214.229 34.3204 214.045 34.2411 213.853 34.1906C213.983 34.1248 214.101 34.0374 214.204 33.9318C214.357 33.7813 214.473 33.5929 214.54 33.3835C214.602 33.1688 214.628 32.944 214.615 32.7198C214.614 32.3475 214.516 31.9827 214.331 31.6656C214.125 31.3758 213.844 31.1551 213.522 31.0302C213.209 30.902 212.878 30.8312 212.543 30.8207V29.317L211.683 29.9053V30.8231H210.994V29.8582L210.112 29.317V30.8231H208.238L208.841 31.9526C208.968 31.9434 209.096 31.9618 209.217 32.0068C209.278 32.0355 209.327 32.0853 209.357 32.148C209.394 32.2816 209.408 32.421 209.398 32.5598V36.6357C209.407 36.7737 209.393 36.9123 209.357 37.0452C209.329 37.1064 209.314 37.1605 209.247 37.1934C209.181 37.2264 209.178 37.224 208.993 37.224H208.991L208.238 38.3536H210.11V39.8597H210.992V38.3536H211.68V39.8597H212.541V38.3442C212.976 38.336 213.408 38.2542 213.819 38.1018C214.2 37.9578 214.534 37.7004 214.781 37.3605C214.995 36.9989 215.113 36.5824 215.12 36.1556C215.143 35.8105 215.104 35.464 215.004 35.1343ZM210.992 32.0939H210.992V32.0626H211.594C211.932 32.0626 213.06 31.9393 213.079 32.9467C213.098 33.9542 211.594 33.913 211.594 33.913H210.992V33.8353H210.992V32.0939ZM210.992 34.9649H211.68C211.82 34.9649 212.301 34.9882 212.476 34.9969C212.548 34.9998 212.619 35.0136 212.686 35.0379C212.711 35.047 212.735 35.0574 212.76 35.0689C212.867 35.1067 212.967 35.1621 213.057 35.2332C213.116 35.2761 213.168 35.3294 213.21 35.3908C213.275 35.4907 213.323 35.6021 213.351 35.7198C213.371 35.8022 213.382 35.887 213.382 35.9721C213.389 36.1343 213.352 36.2953 213.275 36.4357C213.164 36.6223 213.002 36.7685 212.811 36.8546C212.452 37.0097 212.068 37.0873 211.68 37.0829H210.992V34.9649Z" fill="#F9E006"/>
<path d="M254.92 123.916C260.274 123.916 264.614 119.331 264.614 113.674C264.614 108.017 260.274 103.431 254.92 103.431C249.567 103.431 245.227 108.017 245.227 113.674C245.227 119.331 249.567 123.916 254.92 123.916Z" fill="#303030"/>
<path d="M257.542 114.105C257.45 113.865 257.281 113.667 257.065 113.546C256.93 113.462 256.785 113.4 256.633 113.36C256.735 113.308 256.829 113.239 256.91 113.156C257.031 113.037 257.122 112.888 257.175 112.723C257.224 112.553 257.245 112.376 257.235 112.199C257.234 111.905 257.156 111.617 257.01 111.367C256.848 111.138 256.626 110.964 256.372 110.865C256.125 110.764 255.864 110.708 255.599 110.7V109.513L254.92 109.977V110.702H254.377V109.94L253.68 109.513V110.702H252.201L252.677 111.593C252.777 111.586 252.879 111.601 252.974 111.636C253.022 111.659 253.061 111.698 253.084 111.748C253.113 111.853 253.124 111.963 253.116 112.073V115.29C253.124 115.399 253.113 115.508 253.084 115.613C253.062 115.661 253.05 115.704 252.998 115.73C252.945 115.756 252.943 115.754 252.797 115.754H252.796L252.201 116.646H253.679V117.835H254.375V116.646H254.918V117.835H255.598V116.639C255.941 116.632 256.282 116.568 256.606 116.447C256.907 116.334 257.171 116.13 257.365 115.862C257.535 115.577 257.627 115.248 257.634 114.911C257.652 114.639 257.62 114.365 257.542 114.105ZM254.375 111.705H254.375V111.68H254.85C255.117 111.68 256.007 111.583 256.022 112.378C256.037 113.173 254.85 113.141 254.85 113.141H254.375V113.079H254.375V111.705ZM254.375 113.971H254.918C255.029 113.971 255.408 113.989 255.547 113.996C255.603 113.999 255.659 114.01 255.712 114.029C255.732 114.036 255.75 114.044 255.77 114.053C255.854 114.083 255.934 114.127 256.005 114.183C256.051 114.217 256.092 114.259 256.126 114.307C256.177 114.386 256.215 114.474 256.237 114.567C256.253 114.632 256.261 114.699 256.262 114.766C256.267 114.894 256.238 115.021 256.177 115.132C256.09 115.279 255.962 115.395 255.81 115.463C255.527 115.585 255.224 115.646 254.918 115.643H254.375V113.971Z" fill="#F9E006"/>
<path d="M39.0186 176.18C42.9121 176.18 46.0684 172.845 46.0684 168.731C46.0684 164.617 42.9121 161.282 39.0186 161.282C35.1251 161.282 31.9688 164.617 31.9688 168.731C31.9688 172.845 35.1251 176.18 39.0186 176.18Z" fill="#303030"/>
<path d="M40.9272 169.044C40.8603 168.87 40.7375 168.726 40.5801 168.638C40.4822 168.577 40.3765 168.531 40.2664 168.503C40.3406 168.465 40.4086 168.415 40.4677 168.354C40.5557 168.268 40.6219 168.159 40.6604 168.039C40.6963 167.916 40.7109 167.787 40.7036 167.658C40.703 167.444 40.6466 167.235 40.5406 167.053C40.4223 166.887 40.2611 166.76 40.0762 166.688C39.8967 166.615 39.7067 166.574 39.5143 166.568V165.705L39.0203 166.042V166.569H38.625V166.015L38.1187 165.705V166.569H37.043L37.3888 167.218C37.4621 167.212 37.5356 167.223 37.6049 167.249C37.6397 167.265 37.668 167.294 37.6852 167.33C37.7063 167.407 37.7142 167.487 37.7087 167.566V169.906C37.714 169.985 37.7061 170.065 37.6852 170.141C37.6691 170.176 37.6605 170.207 37.6222 170.226C37.5839 170.245 37.5827 170.244 37.4765 170.244H37.4752L37.043 170.892H38.1174V171.757H38.6238V170.892H39.019V171.757H39.513V170.887C39.763 170.882 40.0107 170.835 40.2467 170.748C40.4656 170.665 40.6573 170.517 40.7987 170.322C40.9219 170.115 40.9894 169.876 40.9938 169.631C41.0069 169.432 40.9842 169.233 40.9272 169.044ZM38.6238 167.299H38.6239V167.281H38.9693C39.1635 167.281 39.8109 167.21 39.8217 167.788C39.8325 168.367 38.9693 168.343 38.9693 168.343H38.6239V168.299H38.6238V167.299ZM38.6238 168.947H39.019C39.0993 168.947 39.3755 168.96 39.476 168.965C39.517 168.967 39.5576 168.975 39.5965 168.989C39.6107 168.994 39.6242 169 39.6388 169.007C39.6999 169.028 39.7574 169.06 39.8091 169.101C39.8431 169.126 39.8729 169.156 39.8971 169.192C39.9346 169.249 39.9619 169.313 39.9778 169.38C39.9896 169.428 39.9957 169.476 39.9959 169.525C40 169.618 39.9786 169.711 39.9343 169.791C39.8709 169.898 39.7779 169.982 39.6678 170.032C39.462 170.121 39.2414 170.165 39.019 170.163H38.6238V168.947Z" fill="#F9E006"/>
<path d="M21.3945 217.15L285.764 217.15" stroke="#3F3D56" stroke-width="2" stroke-miterlimit="10"/>
<path d="M220.35 97.881L68.9395 0L0.243169 118.64L151.654 216.521L220.35 97.881Z" fill="#373737"/>
<path d="M162.6 147.2C162.6 154.533 160.667 161.333 156.8 167.6C153.067 173.733 147.467 178.8 140 182.8C132.667 186.667 123.933 188.8 113.8 189.2V205.4H101V189C86.8667 187.8 75.4667 183.6 66.8 176.4C58.1333 169.067 53.5333 159.133 53 146.6H89.4C90.2 154.6 94.0667 159.733 101 162V130.4C90.6 127.733 82.2667 125.133 76 122.6C69.8667 120.067 64.4667 116 59.8 110.4C55.1333 104.8 52.8 97.1333 52.8 87.4C52.8 75.2667 57.2667 65.5333 66.2 58.2C75.2667 50.8667 86.8667 46.7333 101 45.8V29.6H113.8V45.8C127.8 46.8667 138.867 50.9333 147 58C155.133 65.0667 159.667 74.8667 160.6 87.4H124C123.2 80.2 119.8 75.5333 113.8 73.4V104.4C124.867 107.467 133.4 110.2 139.4 112.6C145.4 115 150.733 119 155.4 124.6C160.2 130.067 162.6 137.6 162.6 147.2ZM89 85.8C89 89.1333 90 91.9333 92 94.2C94.1333 96.4667 97.1333 98.4667 101 100.2V72.4C97.2667 73.0667 94.3333 74.5333 92.2 76.8C90.0667 78.9333 89 81.9333 89 85.8ZM113.8 162.6C117.8 161.933 120.933 160.333 123.2 157.8C125.6 155.267 126.8 152.133 126.8 148.4C126.8 144.933 125.667 142.133 123.4 140C121.267 137.733 118.067 135.8 113.8 134.2V162.6Z" fill="#F9E006"/>
<path opacity="0.1" d="M132.58 165.155C123.769 169.388 112.421 169.088 112.421 169.088H100.141V166.611C105.145 165.135 112.064 164.222 119.712 164.222C124.017 164.207 128.318 164.518 132.58 165.155Z" fill="black"/>
<path opacity="0.1" d="M147.344 172.332C147.344 176.813 134.971 180.442 119.713 180.442C104.454 180.442 92.082 176.813 92.082 172.332C92.082 170.098 95.1598 168.075 100.141 166.611V169.088H112.421C112.421 169.088 123.769 169.388 132.58 165.155C141.357 166.509 147.344 169.214 147.344 172.332Z" fill="black"/>
<path d="M123.241 121.836H111.484V134.281H123.241V121.836Z" fill="#2F2E41"/>
<path d="M115.858 130.636C115.858 130.636 116.831 134.235 115.128 134.492C114.072 134.666 113.07 135.107 112.209 135.778L115.372 140.147H121.21L124.859 136.292C124.859 136.292 119.994 132.436 120.967 130.122C121.94 127.809 115.858 130.636 115.858 130.636Z" fill="#FFB9B9"/>
<path opacity="0.1" d="M115.858 130.636C115.858 130.636 116.831 134.235 115.128 134.492C114.072 134.666 113.07 135.107 112.209 135.778L115.372 140.147H121.21L124.859 136.292C124.859 136.292 119.994 132.436 120.967 130.122C121.94 127.809 115.858 130.636 115.858 130.636Z" fill="black"/>
<path d="M117.316 175.364L122.912 177.42L126.804 177.677L126.561 174.078L118.533 171.57L117.316 175.364Z" fill="#FFB9B9"/>
<path d="M124.494 174.593C124.494 174.593 124.494 178.191 124.981 178.191C125.467 178.191 132.036 177.42 133.982 178.191C135.928 178.963 138.848 176.135 137.388 174.593C135.928 173.05 133.547 170.737 132.062 171.251C130.576 171.765 124.494 173.05 124.494 173.05L124.494 174.593Z" fill="#2F2E41"/>
<path d="M106.613 171.251C106.613 171.251 103.693 177.42 105.64 177.934C107.586 178.449 109.775 177.677 110.019 177.42C110.262 177.163 113.668 176.135 114.154 176.649C114.641 177.163 114.641 174.593 114.641 174.593L106.613 171.251Z" fill="#2F2E41"/>
<path d="M109.047 162.768C109.047 162.768 104.424 169.452 107.83 171.251C111.236 173.05 127.536 173.05 128.752 171.251C129.968 169.452 130.455 163.796 128.752 163.282C127.049 162.768 109.047 162.768 109.047 162.768Z" fill="#2F2E41"/>
<path opacity="0.2" d="M109.047 162.768C109.047 162.768 104.424 169.452 107.83 171.251C111.236 173.05 127.536 173.05 128.752 171.251C129.968 169.452 130.455 163.796 128.752 163.282C127.049 162.768 109.047 162.768 109.047 162.768Z" fill="black"/>
<path d="M117.804 132.436C120.895 132.436 123.4 129.789 123.4 126.523C123.4 123.258 120.895 120.611 117.804 120.611C114.714 120.611 112.209 123.258 112.209 126.523C112.209 129.789 114.714 132.436 117.804 132.436Z" fill="#FFB9B9"/>
<path d="M109.045 135.777L113.91 134.749C113.91 134.749 115.127 138.862 119.019 138.091C122.912 137.32 123.885 134.749 123.885 134.749C123.885 134.749 126.804 136.034 127.048 136.034C127.291 136.034 130.453 137.32 130.453 138.091C130.453 138.862 126.804 146.574 126.804 146.574L127.291 160.454L109.288 159.94L110.505 146.316L109.045 135.777Z" fill="#111111"/>
<path d="M106.368 142.461C106.368 142.461 104.908 156.085 105.881 157.113C106.854 158.141 110.747 160.969 110.747 160.969V157.884L108.801 154.028L110.747 145.031L106.368 142.461Z" fill="#FFB9B9"/>
<path d="M131.548 142.075C131.548 142.075 130.696 156.085 130.696 156.599C130.696 157.113 128.507 158.912 127.777 158.912C127.047 158.912 126.561 157.627 126.561 157.627L128.264 155.571L127.047 145.032L131.548 142.075Z" fill="#FFB9B9"/>
<path d="M129.236 161.74C129.236 161.74 140.183 155.314 140.427 161.74C140.67 168.166 134.831 170.737 134.831 170.737C134.831 170.737 119.748 175.516 119.14 173.769C118.532 172.022 117.315 169.194 118.288 168.937C119.261 168.68 120.478 168.166 120.964 168.68C121.451 169.194 127.533 164.825 127.533 164.825L129.236 161.74Z" fill="#2F2E41"/>
<path opacity="0.2" d="M134.345 160.969C134.345 160.969 132.156 161.997 131.426 162.768C130.696 163.539 127.533 164.825 127.533 164.825" stroke="black" stroke-width="2" stroke-miterlimit="10"/>
<path d="M110.506 136.292L109.046 135.777C109.046 135.777 103.694 141.69 105.397 143.232C107.1 144.774 108.073 145.288 108.56 145.802C109.046 146.317 111.479 146.574 111.479 146.574L110.506 136.292Z" fill="#111111"/>
<path d="M128.265 137.577L130.455 138.091C130.455 138.091 132.158 141.947 132.644 142.461C133.131 142.975 131.914 142.718 131.185 143.746C130.455 144.774 129.725 146.574 128.265 146.574C126.806 146.574 124.859 144.003 124.859 144.003L128.265 137.577Z" fill="#111111"/>
<path d="M109.531 164.053C109.531 164.053 100.286 157.113 97.1237 162.254C93.9611 167.395 110.747 174.336 113.18 175.364C115.613 176.392 117.802 177.42 117.802 177.42C117.802 177.42 119.992 171.765 119.992 170.737C119.992 169.709 118.289 169.709 117.802 169.709C117.316 169.709 115.126 169.194 114.64 168.423C114.153 167.652 109.531 164.053 109.531 164.053Z" fill="#2F2E41"/>
<path opacity="0.2" d="M104.424 162.254C104.424 162.254 106.857 164.31 109.046 164.825C111.236 165.339 111.965 166.624 111.965 166.624" stroke="black" stroke-width="2" stroke-miterlimit="10"/>
<path d="M107.854 152.589L108.048 163.473C108.055 163.832 108.195 164.175 108.439 164.425C108.684 164.675 109.012 164.814 109.352 164.809L128.52 164.582C128.847 164.578 129.16 164.443 129.396 164.205C129.633 163.967 129.775 163.643 129.793 163.298L130.375 152.642C130.385 152.457 130.359 152.271 130.299 152.097C130.239 151.922 130.146 151.763 130.026 151.628C129.905 151.493 129.76 151.386 129.598 151.312C129.437 151.239 129.263 151.201 129.088 151.201H109.143C108.972 151.201 108.802 151.237 108.644 151.307C108.486 151.377 108.343 151.48 108.223 151.609C108.103 151.738 108.008 151.891 107.945 152.06C107.881 152.228 107.851 152.408 107.854 152.589Z" fill="white"/>
<path d="M105.637 135.842C106.159 134.625 106.86 133.482 107.195 132.194C107.595 130.649 107.439 129.014 107.392 127.413C107.316 125.997 107.43 124.577 107.731 123.195C108.037 121.806 108.723 120.543 109.704 119.565C112.254 117.16 116.92 116.987 120.033 117.988C121.26 118.383 122.567 119.134 122.872 120.451C122.918 120.65 122.938 120.855 122.989 121.052C123.244 122.033 124.194 122.653 124.536 123.603C124.979 124.832 124.296 126.169 124.207 127.48C124.102 129.012 124.815 130.458 125.517 131.802C125.935 132.601 126.369 133.453 126.327 134.364C126.293 134.863 126.149 135.346 125.908 135.776C125.461 136.556 124.833 137.203 124.084 137.657C123.335 138.111 122.49 138.356 121.627 138.37C121.066 138.417 120.505 138.277 120.023 137.969C119.263 137.417 119.041 136.304 119.199 135.343C119.357 134.383 119.819 133.515 120.18 132.618C120.291 132.343 120.391 132.063 120.483 131.78C121.604 131.119 122.468 130.061 122.922 128.792C123.376 127.524 123.391 126.127 122.965 124.847C122.538 123.568 121.698 122.489 120.592 121.801C119.486 121.113 118.185 120.86 116.92 121.087C115.654 121.314 114.505 122.006 113.676 123.041C112.846 124.076 112.389 125.387 112.386 126.743C112.383 128.1 112.833 129.413 113.658 130.453C114.482 131.492 115.628 132.19 116.892 132.424C117.165 133.875 117.041 135.378 116.535 136.757C116.075 137.879 115.498 138.943 114.814 139.929C114.534 140.434 114.161 140.875 113.717 141.226C113.424 141.409 113.11 141.551 112.782 141.648C111.408 142.114 109.961 142.49 108.531 142.28C107.102 142.07 105.686 141.159 105.199 139.723C104.772 138.465 105.115 137.059 105.637 135.842Z" fill="#FF003D"/>
<path d="M117.532 126.759C120.811 126.759 123.47 125.167 123.47 123.204C123.47 121.24 120.811 119.648 117.532 119.648C114.252 119.648 111.594 121.24 111.594 123.204C111.594 125.167 114.252 126.759 117.532 126.759Z" fill="#FF003D"/>
<g opacity="0.5">
<path d="M221.345 154.95C223.831 154.95 225.846 152.821 225.846 150.194C225.846 147.567 223.831 145.438 221.345 145.438C218.859 145.438 216.844 147.567 216.844 150.194C216.844 152.821 218.859 154.95 221.345 154.95Z" fill="#F8931A"/>
<path d="M256.83 201.967V147.814" stroke="black" stroke-width="2" stroke-miterlimit="10"/>
<path d="M256.83 155.472C260.832 155.472 264.077 152.044 264.077 147.814C264.077 143.585 260.832 140.156 256.83 140.156C252.827 140.156 249.582 143.585 249.582 147.814C249.582 152.044 252.827 155.472 256.83 155.472Z" fill="#525252"/>
<path d="M242.556 178.135C232.087 195.098 234.955 216.674 234.955 216.674C234.955 216.674 254.797 210.746 265.266 193.783C275.735 176.819 272.866 155.244 272.866 155.244C272.866 155.244 253.024 161.171 242.556 178.135Z" fill="#525252"/>
<path d="M234.9 216.477C234.9 216.477 234.645 216.434 234.176 216.333C233.801 216.253 233.286 216.139 232.657 215.981C227.034 214.58 212.085 209.845 202.311 197.395C190.078 181.805 190.593 160.024 190.593 160.024C190.593 160.024 209.298 163.236 221.623 177.236C222.157 177.837 222.677 178.461 223.182 179.106C233.826 192.671 234.818 210.922 234.897 215.434C234.908 216.11 234.9 216.477 234.9 216.477Z" fill="#777777"/>
<path d="M227.354 178.135C237.823 195.098 234.954 216.674 234.954 216.674C234.954 216.674 215.112 210.746 204.643 193.783C194.175 176.819 197.043 155.244 197.043 155.244C197.043 155.244 216.885 161.171 227.354 178.135Z" stroke="black" stroke-width="2" stroke-miterlimit="10"/>
<path d="M250.42 181.134C249.592 201.367 235.378 217.15 235.378 217.15C235.378 217.15 222.506 200.13 223.333 179.897C224.161 159.665 238.375 143.881 238.375 143.881C238.375 143.881 251.247 160.902 250.42 181.134Z" fill="#777777"/>
<path d="M235.377 216.577L238.502 144.707" stroke="black" stroke-width="2" stroke-miterlimit="10"/>
</g>
</svg>
