<svg width="334" height="186" viewBox="0 0 334 186" fill="none" xmlns="http://www.w3.org/2000/svg">
<path d="M112.16 38.3662V0.566208H129.116C133.472 0.566208 136.82 1.44821 139.16 3.21221C141.5 4.94021 142.67 7.31621 142.67 10.3402C142.67 12.3922 142.202 14.1202 141.266 15.5242C140.366 16.9282 139.142 18.0082 137.594 18.7642C136.046 19.5202 134.372 19.8982 132.572 19.8982L133.544 18.2782C135.704 18.2782 137.612 18.6562 139.268 19.4122C140.924 20.1682 142.238 21.2842 143.21 22.7602C144.182 24.2002 144.668 26.0002 144.668 28.1602C144.668 31.4002 143.444 33.9202 140.996 35.7202C138.584 37.4842 134.984 38.3662 130.196 38.3662H112.16ZM117.56 33.9922H129.98C132.968 33.9922 135.254 33.4882 136.838 32.4802C138.422 31.4722 139.214 29.8882 139.214 27.7282C139.214 25.5322 138.422 23.9302 136.838 22.9222C135.254 21.9142 132.968 21.4102 129.98 21.4102H117.074V17.0362H128.63C131.366 17.0362 133.49 16.5322 135.002 15.5242C136.514 14.5162 137.27 13.0042 137.27 10.9882C137.27 8.97221 136.514 7.46021 135.002 6.45221C133.49 5.44421 131.366 4.94021 128.63 4.94021H117.56V33.9922ZM164.315 38.6902C161.867 38.6902 159.707 38.2402 157.835 37.3402C155.999 36.4402 154.559 35.0722 153.515 33.2362C152.507 31.3642 152.003 29.0242 152.003 26.2162V9.74621H157.187V25.6222C157.187 28.4302 157.853 30.5362 159.185 31.9402C160.553 33.3442 162.461 34.0462 164.909 34.0462C166.709 34.0462 168.275 33.6862 169.607 32.9662C170.939 32.2102 171.965 31.1302 172.685 29.7262C173.405 28.2862 173.765 26.5582 173.765 24.5422V9.74621H178.949V38.3662H174.035V30.6442L174.845 32.6962C173.909 34.6042 172.505 36.0802 170.633 37.1242C168.761 38.1682 166.655 38.6902 164.315 38.6902ZM190.06 49.1662C188.692 49.1662 187.36 48.9322 186.064 48.4642C184.768 48.0322 183.652 47.3842 182.716 46.5202L184.93 42.6322C185.65 43.3162 186.442 43.8382 187.306 44.1982C188.17 44.5582 189.088 44.7382 190.06 44.7382C191.32 44.7382 192.364 44.4142 193.192 43.7662C194.02 43.1182 194.794 41.9662 195.514 40.3102L197.296 36.3682L197.836 35.7202L209.068 9.74621H214.144L200.266 41.2282C199.438 43.2442 198.502 44.8282 197.458 45.9802C196.45 47.1322 195.334 47.9422 194.11 48.4102C192.886 48.9142 191.536 49.1662 190.06 49.1662ZM196.864 39.2842L183.796 9.74621H189.196L200.32 35.2342L196.864 39.2842ZM215.137 46.3582L217.837 35.4502L218.539 38.5822C217.495 38.5822 216.613 38.2582 215.893 37.6102C215.209 36.9622 214.867 36.0802 214.867 34.9642C214.867 33.8842 215.209 33.0022 215.893 32.3182C216.613 31.6342 217.477 31.2922 218.485 31.2922C219.529 31.2922 220.375 31.6522 221.023 32.3722C221.671 33.0562 221.995 33.9202 221.995 34.9642C221.995 35.3242 221.959 35.6842 221.887 36.0442C221.851 36.3682 221.761 36.7642 221.617 37.2322C221.509 37.6642 221.329 38.2042 221.077 38.8522L218.539 46.3582H215.137ZM102.037 100.69C99.1569 100.69 96.9249 99.9162 95.3409 98.3682C93.7569 96.8202 92.9649 94.6062 92.9649 91.7262V65.4822H98.1489V91.5102C98.1489 93.0582 98.5269 94.2462 99.2829 95.0742C100.075 95.9022 101.191 96.3162 102.631 96.3162C104.251 96.3162 105.601 95.8662 106.681 94.9662L108.301 98.6922C107.509 99.3762 106.555 99.8802 105.439 100.204C104.359 100.528 103.225 100.69 102.037 100.69ZM88.1049 76.0122V71.7462H106.357V76.0122H88.1049ZM114.568 100.366V71.7462H119.536V79.5222L119.05 77.5782C119.842 75.5982 121.174 74.0862 123.046 73.0422C124.918 71.9982 127.222 71.4762 129.958 71.4762V76.4982C129.742 76.4622 129.526 76.4442 129.31 76.4442C129.13 76.4442 128.95 76.4442 128.77 76.4442C125.998 76.4442 123.802 77.2722 122.182 78.9282C120.562 80.5842 119.752 82.9782 119.752 86.1102V100.366H114.568ZM152.004 100.366V94.3182L151.734 93.1842V82.8702C151.734 80.6742 151.086 78.9822 149.79 77.7942C148.53 76.5702 146.622 75.9582 144.066 75.9582C142.374 75.9582 140.718 76.2462 139.098 76.8222C137.478 77.3622 136.11 78.1002 134.994 79.0362L132.834 75.1482C134.31 73.9602 136.074 73.0602 138.126 72.4482C140.214 71.8002 142.392 71.4762 144.66 71.4762C148.584 71.4762 151.608 72.4302 153.732 74.3382C155.856 76.2462 156.918 79.1622 156.918 83.0862V100.366H152.004ZM142.608 100.69C140.484 100.69 138.612 100.33 136.992 99.6102C135.408 98.8902 134.184 97.9002 133.32 96.6402C132.456 95.3442 132.024 93.8862 132.024 92.2662C132.024 90.7182 132.384 89.3142 133.104 88.0542C133.86 86.7942 135.066 85.7862 136.722 85.0302C138.414 84.2742 140.682 83.8962 143.526 83.8962H152.598V87.6222H143.742C141.15 87.6222 139.404 88.0542 138.504 88.9182C137.604 89.7822 137.154 90.8262 137.154 92.0502C137.154 93.4542 137.712 94.5882 138.828 95.4522C139.944 96.2802 141.492 96.6942 143.472 96.6942C145.416 96.6942 147.108 96.2622 148.548 95.3982C150.024 94.5342 151.086 93.2742 151.734 91.6182L152.76 95.1822C152.076 96.8742 150.87 98.2242 149.142 99.2322C147.414 100.204 145.236 100.69 142.608 100.69ZM178.338 100.69C175.566 100.69 173.082 100.078 170.886 98.8542C168.726 97.6302 167.016 95.9202 165.756 93.7242C164.496 91.5282 163.866 88.9722 163.866 86.0562C163.866 83.1402 164.496 80.6022 165.756 78.4422C167.016 76.2462 168.726 74.5362 170.886 73.3122C173.082 72.0882 175.566 71.4762 178.338 71.4762C180.75 71.4762 182.928 72.0162 184.872 73.0962C186.816 74.1762 188.364 75.7962 189.516 77.9562C190.704 80.1162 191.298 82.8162 191.298 86.0562C191.298 89.2962 190.722 91.9962 189.57 94.1562C188.454 96.3162 186.924 97.9542 184.98 99.0702C183.036 100.15 180.822 100.69 178.338 100.69ZM178.77 96.1542C180.57 96.1542 182.19 95.7402 183.63 94.9122C185.106 94.0842 186.258 92.9142 187.086 91.4022C187.95 89.8542 188.382 88.0722 188.382 86.0562C188.382 84.0042 187.95 82.2402 187.086 80.7642C186.258 79.2522 185.106 78.0822 183.63 77.2542C182.19 76.4262 180.57 76.0122 178.77 76.0122C176.934 76.0122 175.296 76.4262 173.856 77.2542C172.416 78.0822 171.264 79.2522 170.4 80.7642C169.536 82.2402 169.104 84.0042 169.104 86.0562C169.104 88.0722 169.536 89.8542 170.4 91.4022C171.264 92.9142 172.416 94.0842 173.856 94.9122C175.296 95.7402 176.934 96.1542 178.77 96.1542ZM188.544 100.366V92.6442L188.868 86.0022L188.328 79.3602V60.2982H193.512V100.366H188.544ZM216.064 100.69C213.004 100.69 210.304 100.06 207.964 98.8002C205.66 97.5402 203.86 95.8122 202.564 93.6162C201.304 91.4202 200.674 88.9002 200.674 86.0562C200.674 83.2122 201.286 80.6922 202.51 78.4962C203.77 76.3002 205.48 74.5902 207.64 73.3662C209.836 72.1062 212.302 71.4762 215.038 71.4762C217.81 71.4762 220.258 72.0882 222.382 73.3122C224.506 74.5362 226.162 76.2642 227.35 78.4962C228.574 80.6922 229.186 83.2662 229.186 86.2182C229.186 86.4342 229.168 86.6862 229.132 86.9742C229.132 87.2622 229.114 87.5322 229.078 87.7842H204.724V84.0582H226.378L224.272 85.3542C224.308 83.5182 223.93 81.8802 223.138 80.4402C222.346 79.0002 221.248 77.8842 219.844 77.0922C218.476 76.2642 216.874 75.8502 215.038 75.8502C213.238 75.8502 211.636 76.2642 210.232 77.0922C208.828 77.8842 207.73 79.0182 206.938 80.4942C206.146 81.9342 205.75 83.5902 205.75 85.4622V86.3262C205.75 88.2342 206.182 89.9442 207.046 91.4562C207.946 92.9322 209.188 94.0842 210.772 94.9122C212.356 95.7402 214.174 96.1542 216.226 96.1542C217.918 96.1542 219.448 95.8662 220.816 95.2902C222.22 94.7142 223.444 93.8502 224.488 92.6982L227.35 96.0462C226.054 97.5582 224.434 98.7102 222.49 99.5022C220.582 100.294 218.44 100.69 216.064 100.69ZM234.333 108.358L237.033 97.4502L237.735 100.582C236.691 100.582 235.809 100.258 235.089 99.6102C234.405 98.9622 234.063 98.0802 234.063 96.9642C234.063 95.8842 234.405 95.0022 235.089 94.3182C235.809 93.6342 236.673 93.2922 237.681 93.2922C238.725 93.2922 239.571 93.6522 240.219 94.3722C240.867 95.0562 241.191 95.9202 241.191 96.9642C241.191 97.3242 241.155 97.6842 241.083 98.0442C241.047 98.3682 240.957 98.7642 240.813 99.2322C240.705 99.6642 240.525 100.204 240.273 100.852L237.735 108.358H234.333ZM19.2093 172.75C15.5826 172.75 12.3826 172.004 9.60925 170.51C6.87858 169.017 4.74525 166.969 3.20925 164.366C1.71592 161.764 0.96925 158.777 0.96925 155.406C0.96925 152.036 1.69458 149.049 3.14525 146.446C4.63858 143.844 6.66525 141.817 9.22525 140.366C11.8279 138.873 14.7506 138.126 17.9933 138.126C21.2786 138.126 24.1799 138.852 26.6973 140.302C29.2146 141.753 31.1773 143.801 32.5853 146.446C34.0359 149.049 34.7613 152.1 34.7613 155.598C34.7613 155.854 34.7399 156.153 34.6973 156.494C34.6973 156.836 34.6759 157.156 34.6333 157.454H5.76925V153.038H31.4333L28.9373 154.574C28.9799 152.398 28.5319 150.457 27.5933 148.75C26.6546 147.044 25.3533 145.721 23.6893 144.782C22.0679 143.801 20.1693 143.31 17.9933 143.31C15.8599 143.31 13.9613 143.801 12.2973 144.782C10.6333 145.721 9.33192 147.065 8.39325 148.814C7.45458 150.521 6.98525 152.484 6.98525 154.702V155.726C6.98525 157.988 7.49725 160.014 8.52125 161.806C9.58792 163.556 11.0599 164.921 12.9373 165.902C14.8146 166.884 16.9693 167.374 19.4013 167.374C21.4066 167.374 23.2199 167.033 24.8413 166.35C26.5053 165.668 27.9559 164.644 29.1933 163.278L32.5853 167.246C31.0493 169.038 29.1293 170.404 26.8253 171.342C24.5639 172.281 22.0253 172.75 19.2093 172.75ZM37.4273 172.366L52.0193 153.422L51.9553 156.558L38.0673 138.446H44.9153L55.5393 152.398H52.9153L63.5393 138.446H70.2593L56.1793 156.686L56.2433 153.422L70.9633 172.366H63.9873L52.7873 157.518L55.2833 157.902L44.2753 172.366H37.4273ZM91.3268 172.75C87.8708 172.75 84.7774 172.004 82.0468 170.51C79.3588 169.017 77.2468 166.969 75.7108 164.366C74.1748 161.764 73.4068 158.777 73.4068 155.406C73.4068 152.036 74.1748 149.049 75.7108 146.446C77.2468 143.844 79.3588 141.817 82.0468 140.366C84.7774 138.873 87.8708 138.126 91.3268 138.126C94.3988 138.126 97.1294 138.745 99.5188 139.982C101.951 141.177 103.828 142.969 105.151 145.358L100.479 148.366C99.3694 146.702 98.0041 145.486 96.3828 144.718C94.8041 143.908 93.0974 143.502 91.2628 143.502C89.0441 143.502 87.0601 143.993 85.3108 144.974C83.5614 145.956 82.1748 147.342 81.1508 149.134C80.1268 150.884 79.6148 152.974 79.6148 155.406C79.6148 157.838 80.1268 159.95 81.1508 161.742C82.1748 163.534 83.5614 164.921 85.3108 165.902C87.0601 166.884 89.0441 167.374 91.2628 167.374C93.0974 167.374 94.8041 166.99 96.3828 166.222C98.0041 165.412 99.3694 164.174 100.479 162.51L105.151 165.454C103.828 167.801 101.951 169.614 99.5188 170.894C97.1294 172.132 94.3988 172.75 91.3268 172.75ZM130.78 138.126C133.553 138.126 135.985 138.66 138.076 139.726C140.209 140.793 141.873 142.414 143.068 144.59C144.262 146.766 144.86 149.518 144.86 152.846V172.366H138.716V153.55C138.716 150.265 137.905 147.79 136.284 146.126C134.705 144.462 132.465 143.63 129.564 143.63C127.388 143.63 125.489 144.057 123.868 144.91C122.246 145.764 120.988 147.022 120.092 148.686C119.238 150.35 118.812 152.42 118.812 154.894V172.366H112.668V124.878H118.812V147.598L117.596 145.166C118.705 142.948 120.412 141.22 122.716 139.982C125.02 138.745 127.708 138.126 130.78 138.126ZM177.286 172.366V165.198L176.966 163.854V151.63C176.966 149.028 176.198 147.022 174.662 145.614C173.169 144.164 170.908 143.438 167.878 143.438C165.873 143.438 163.91 143.78 161.99 144.462C160.07 145.102 158.449 145.977 157.126 147.086L154.566 142.478C156.316 141.07 158.406 140.004 160.838 139.278C163.313 138.51 165.894 138.126 168.582 138.126C173.233 138.126 176.817 139.257 179.334 141.518C181.852 143.78 183.11 147.236 183.11 151.886V172.366H177.286ZM166.15 172.75C163.633 172.75 161.414 172.324 159.494 171.47C157.617 170.617 156.166 169.444 155.142 167.95C154.118 166.414 153.606 164.686 153.606 162.766C153.606 160.932 154.033 159.268 154.886 157.774C155.782 156.281 157.212 155.086 159.174 154.19C161.18 153.294 163.868 152.846 167.238 152.846H177.99V157.262H167.494C164.422 157.262 162.353 157.774 161.286 158.798C160.22 159.822 159.686 161.06 159.686 162.51C159.686 164.174 160.348 165.518 161.67 166.542C162.993 167.524 164.828 168.014 167.174 168.014C169.478 168.014 171.484 167.502 173.19 166.478C174.94 165.454 176.198 163.961 176.966 161.998L178.182 166.222C177.372 168.228 175.942 169.828 173.894 171.022C171.846 172.174 169.265 172.75 166.15 172.75ZM212.592 138.126C215.366 138.126 217.798 138.66 219.888 139.726C222.022 140.793 223.686 142.414 224.88 144.59C226.075 146.766 226.672 149.518 226.672 152.846V172.366H220.528V153.55C220.528 150.265 219.718 147.79 218.096 146.126C216.518 144.462 214.278 143.63 211.376 143.63C209.2 143.63 207.302 144.057 205.68 144.91C204.059 145.764 202.8 147.022 201.904 148.686C201.051 150.35 200.624 152.42 200.624 154.894V172.366H194.48V138.446H200.368V147.598L199.408 145.166C200.518 142.948 202.224 141.22 204.528 139.982C206.832 138.745 209.52 138.126 212.592 138.126ZM252.891 185.166C249.776 185.166 246.747 184.718 243.803 183.822C240.901 182.969 238.533 181.732 236.699 180.11L239.643 175.374C241.221 176.74 243.163 177.806 245.467 178.574C247.771 179.385 250.181 179.79 252.699 179.79C256.709 179.79 259.653 178.852 261.531 176.974C263.408 175.097 264.347 172.238 264.347 168.398V161.23L264.987 154.51L264.667 147.726V138.446H270.491V167.758C270.491 173.732 268.997 178.126 266.011 180.942C263.024 183.758 258.651 185.166 252.891 185.166ZM252.123 170.958C248.837 170.958 245.893 170.276 243.291 168.91C240.731 167.502 238.683 165.561 237.147 163.086C235.653 160.612 234.907 157.753 234.907 154.51C234.907 151.225 235.653 148.366 237.147 145.934C238.683 143.46 240.731 141.54 243.291 140.174C245.893 138.809 248.837 138.126 252.123 138.126C255.024 138.126 257.669 138.724 260.059 139.918C262.448 141.07 264.347 142.862 265.755 145.294C267.205 147.726 267.931 150.798 267.931 154.51C267.931 158.18 267.205 161.23 265.755 163.662C264.347 166.094 262.448 167.929 260.059 169.166C257.669 170.361 255.024 170.958 252.123 170.958ZM252.827 165.582C255.088 165.582 257.093 165.113 258.843 164.174C260.592 163.236 261.957 161.934 262.939 160.27C263.963 158.606 264.475 156.686 264.475 154.51C264.475 152.334 263.963 150.414 262.939 148.75C261.957 147.086 260.592 145.806 258.843 144.91C257.093 143.972 255.088 143.502 252.827 143.502C250.565 143.502 248.539 143.972 246.747 144.91C244.997 145.806 243.611 147.086 242.587 148.75C241.605 150.414 241.115 152.334 241.115 154.51C241.115 156.686 241.605 158.606 242.587 160.27C243.611 161.934 244.997 163.236 246.747 164.174C248.539 165.113 250.565 165.582 252.827 165.582ZM297.334 172.75C293.708 172.75 290.508 172.004 287.734 170.51C285.004 169.017 282.87 166.969 281.334 164.366C279.841 161.764 279.094 158.777 279.094 155.406C279.094 152.036 279.82 149.049 281.27 146.446C282.764 143.844 284.79 141.817 287.35 140.366C289.953 138.873 292.876 138.126 296.118 138.126C299.404 138.126 302.305 138.852 304.822 140.302C307.34 141.753 309.302 143.801 310.71 146.446C312.161 149.049 312.886 152.1 312.886 155.598C312.886 155.854 312.865 156.153 312.822 156.494C312.822 156.836 312.801 157.156 312.758 157.454H283.894V153.038H309.558L307.062 154.574C307.105 152.398 306.657 150.457 305.718 148.75C304.78 147.044 303.478 145.721 301.814 144.782C300.193 143.801 298.294 143.31 296.118 143.31C293.985 143.31 292.086 143.801 290.422 144.782C288.758 145.721 287.457 147.065 286.518 148.814C285.58 150.521 285.11 152.484 285.11 154.702V155.726C285.11 157.988 285.622 160.014 286.646 161.806C287.713 163.556 289.185 164.921 291.062 165.902C292.94 166.884 295.094 167.374 297.526 167.374C299.532 167.374 301.345 167.033 302.966 166.35C304.63 165.668 306.081 164.644 307.318 163.278L310.71 167.246C309.174 169.038 307.254 170.404 304.95 171.342C302.689 172.281 300.15 172.75 297.334 172.75ZM321.162 158.222L326.09 127.566H333.386L326.026 158.222H321.162ZM321.354 172.75C320.202 172.75 319.242 172.366 318.474 171.598C317.748 170.83 317.386 169.934 317.386 168.91C317.386 167.63 317.791 166.585 318.602 165.774C319.455 164.964 320.479 164.558 321.674 164.558C322.826 164.558 323.764 164.921 324.49 165.646C325.258 166.372 325.642 167.268 325.642 168.334C325.642 169.145 325.45 169.892 325.066 170.574C324.682 171.257 324.17 171.79 323.53 172.174C322.89 172.558 322.164 172.75 321.354 172.75Z" fill="white"/>
</svg>
