<svg xmlns="http://www.w3.org/2000/svg" viewBox="0 0 335.19 335.17"><g id="Layer_2" data-name="Layer 2"><g id="svg"><g id="svgg"><path id="path0" d="M165,90.56a5.14,5.14,0,1,0,7.41,4.6c0-4-3.65-6.24-7.41-4.6M125.51,96a4,4,0,0,0,2.82,6.78c1.71,0,4.06-2.19,4.06-3.78a4,4,0,0,0-6.88-3m79.33-.68a4,4,0,0,0,1.95,7.45c4.87,0,5.39-7.28.56-7.83a4.56,4.56,0,0,0-2.51.38M136,111.7c-5.55,2.8-3.65,11.46,2.53,11.49,6.79,0,8.42-10.18,1.91-12-2-.56-2.43-.51-4.44.5m59.06-.48a6.11,6.11,0,0,0-2.75,9.62,5.52,5.52,0,0,0,7.57,1.34c6.18-3.62,2-13-4.82-11m-31,4.1c-7.36,3.84-4.32,15.12,3.92,14.56a7.77,7.77,0,0,0,6.38-4.27c3.3-6.52-3.84-13.66-10.3-10.29m64.24,11.27c-1.58.57-1.82.79-2.85,2.69-2.47,4.56,4.15,9.66,8,6.14,4.37-4.06.46-10.83-5.11-8.83m-126,.3a5.13,5.13,0,1,0,5.49.37,6.14,6.14,0,0,0-5.49-.37m46.8,7.3c-9,4.36-8.48,17.5.85,21C161.38,159.5,170.7,145.1,162,136.4a11.75,11.75,0,0,0-13-2.21m28-.5c-12.53,4.47-8.63,23.13,4.66,22.24,11.79-.8,14.73-16.38,4.09-21.7a13.35,13.35,0,0,0-8.75-.54m-51.13,3.69a7,7,0,0,0-4.25,4.07c-4,8.54,8.17,15,13.48,7.18,4.13-6.1-2.16-13.77-9.23-11.25m79.11-.23a7.71,7.71,0,0,0-5.69,9c1.92,9,15.11,7.63,15.11-1.59a7.49,7.49,0,0,0-9.42-7.45m-66.05,19.42a11.46,11.46,0,1,0,10.67,19.36c8.32-8.19.64-22.1-10.67-19.36m52.67,0c-7.55,2-11,9.09-7.86,16,4.35,9.43,18,8.59,21.28-1.31,2.76-8.43-5-16.92-13.42-14.69M107.38,162c-3.84,1.12-5.48,6.75-2.79,9.59,2.4,2.52,4.64,3,7.44,1.57,6.51-3.32,2.39-13.2-4.65-11.16m116.89.15a6,6,0,0,0-1.07,11c3.64,2,7.71.21,8.84-4s-3.5-8.52-7.77-7m21.46,1.3a4.08,4.08,0,0,0-2.94,3.7c0,5.39,7.65,5.61,7.77.22a3.83,3.83,0,0,0-4.83-3.92M86.05,164.61a3.78,3.78,0,0,0-1.3,4.28,3.86,3.86,0,0,0,6.48,1.54c3.53-3.53-1.36-9-5.18-5.82m65.6,15c-7.44,1.42-11.45,10.09-7.78,16.83,4.43,8.13,16.67,7.64,20.4-.81a11.44,11.44,0,0,0-12.62-16m25,.51A11.77,11.77,0,0,0,170,195c4.45,11.81,22.23,8.64,22.18-3.95a11.59,11.59,0,0,0-15.49-10.85m-50.5,3.53a7.83,7.83,0,0,0-4.78,10.23,7.67,7.67,0,0,0,14.05.49c3-6-2.92-12.94-9.27-10.72m78.4,0c-8.33,2.91-6.44,15.13,2.34,15.12,4.38,0,7.46-3.23,7.46-7.81a7.5,7.5,0,0,0-9.8-7.31M101.15,200.35c-3.49,3.49-.73,9.38,4.09,8.73,6.54-.87,6-10.28-.63-10.28-1.68,0-2.09.18-3.46,1.55m125.93-.7c-5.35,4,.22,12.36,5.76,8.63a5.11,5.11,0,0,0-2.91-9.47,4.91,4.91,0,0,0-2.85.84M166,205.93c-8.5,2.31-7,14.95,1.8,15,9.62.09,10.69-14.19,1.14-15.12a10.39,10.39,0,0,0-2.94.08m-30,7.35c-4.51,2.3-4.84,7.4-.68,10.48,2.32,1.72,6.43.85,8.15-1.7,3.48-5.18-2-11.58-7.47-8.78m59-.48A6.07,6.07,0,0,0,192.79,223c2,1.84,3.92,2.2,6.34,1.19,7-2.9,3.15-13.58-4.09-11.34m-69.61,20.83c-1.52,1.81-1.41,3.68.32,5.41,2.08,2.07,5.07,1.4,6.22-1.39,1.65-4-3.77-7.31-6.54-4m78.52,0c-1.95,2.09-1.38,4.8,1.3,6.19a3.88,3.88,0,1,0-1.3-6.19m-39.45,2.08a5.21,5.21,0,0,0-1,7.92c2.1,2.32,6.88,1.81,8.27-.87,2.54-4.91-2.82-10.08-7.31-7.05" style="fill:#fcfbf8;fill-rule:evenodd"/><path id="path1" d="M157.39,16.5a165.11,165.11,0,0,0-22,3.1,126.19,126.19,0,0,0-15.6,4.24,155,155,0,0,0-40.6,20.44c-1.17.81-7.3,5.43-7.6,5.72-.11.11-1.37,1.19-2.8,2.39a155.32,155.32,0,0,0-21.23,22,143.62,143.62,0,0,0-9.37,13.2c-2.61,4.06-7.8,13.79-7.8,14.63,0,.32-.18.57-.4.57s-.4.36-.4.8-.18.8-.4.8-.4.35-.4.78a1.34,1.34,0,0,1-.4,1,2.06,2.06,0,0,0-.4,1.42c0,.65-.18,1.18-.4,1.18s-.4.26-.4.57a.76.76,0,0,1-.39.7c-.22.07-.51,1-.65,2l-.26,1.9H38.57c13.3,0,13.82-.07,13.82-1.77,0-.35.18-.63.4-.63s.4-.27.4-.6.18-.6.4-.6.4-.36.4-.8.18-.8.4-.8a.48.48,0,0,0,.4-.52,2.72,2.72,0,0,1,.7-1.31,29.75,29.75,0,0,0,3.06-5.27c.25-.49.58-.89.74-.9s.3-.27.3-.6.15-.6.34-.6.58-.49.89-1.1A33.24,33.24,0,0,1,63,95.2c.9-1.21,1.92-2.67,2.28-3.24a11,11,0,0,1,1.2-1.6A13.69,13.69,0,0,0,67.61,89c4.25-6.07,18.39-19.45,26-24.57,1.43-1,3-2.08,3.38-2.47a2.6,2.6,0,0,1,1.3-.72.47.47,0,0,0,.52-.4.42.42,0,0,1,.43-.4,8.1,8.1,0,0,0,2.17-1.2,11.12,11.12,0,0,1,2-1.2,4.93,4.93,0,0,0,1.33-.75A131.79,131.79,0,0,1,119.59,50c1.87-.71,3.76-1.45,4.2-1.64s2.06-.73,3.6-1.21,3.16-1,3.6-1.18,1.61-.51,2.6-.77,2.36-.64,3-.85A9.82,9.82,0,0,1,138.9,44a1.83,1.83,0,0,0,1.26-.35,4.91,4.91,0,0,1,2.13-.59c1.05-.14,2.89-.43,4.1-.66,6.06-1.12,10.11-1.38,21.2-1.38,12.34,0,17.56.44,25.2,2.14,1,.22,2.34.51,3,.64,2.21.44,7.31,1.78,8.4,2.2.44.17,1.61.54,2.6.82a9.32,9.32,0,0,1,2.18.85,2,2,0,0,0,1.11.33,3.65,3.65,0,0,1,1.42.37c.38.2,2.22,1,4.09,1.66s5.74,2.46,8.6,3.89l6.1,3c.49.24.9.57.9.74s.2.3.43.3a8.1,8.1,0,0,1,2.17,1.2A8.26,8.26,0,0,0,236,60.4a.41.41,0,0,1,.42.4c0,.22.24.4.53.4a2.7,2.7,0,0,1,1.32.75A10,10,0,0,0,240,63.18a12.32,12.32,0,0,1,1.58,1c.36.3,1.95,1.5,3.52,2.67,5.25,3.92,16,14,19.11,18,.42.53,1.32,1.61,2,2.39a55,55,0,0,1,4,5.13,9.32,9.32,0,0,0,.7,1A32.74,32.74,0,0,1,274,97.88a7.2,7.2,0,0,0,1.2,1.7,4.92,4.92,0,0,1,1.18,2.11c0,.39.16.71.34.71s.77.85,1.3,1.9a19,19,0,0,0,1.16,2.1,8.57,8.57,0,0,1,.77,1.3c.31.61.72,1.1.9,1.1s.33.36.33.8.18.8.4.8.4.37.4.82a3.31,3.31,0,0,0,1,1.8l1,1h25.63v-1.2c0-.66-.18-1.2-.4-1.2s-.4-.36-.4-.8-.18-.8-.4-.8-.4-.27-.4-.6-.18-.6-.4-.6-.4-.63-.4-1.4-.18-1.4-.4-1.4-.4-.36-.4-.8-.18-.8-.4-.8-.4-.25-.4-.56c0-.71-4.55-9.59-6.79-13.25-.94-1.54-2.06-3.42-2.5-4.19a38.43,38.43,0,0,0-3-4.4c-.27-.33-1.49-2-2.72-3.75-5.94-8.35-20.37-23.61-25.91-27.39a7.91,7.91,0,0,1-1.1-.87c-.78-1-13.38-9.86-17.4-12.2L243,35.91c-2-1.19-14.73-7.4-15.8-7.72-.55-.17-1.9-.7-3-1.2-5.82-2.61-15.87-5.61-25.4-7.56a137.38,137.38,0,0,0-23.9-3.06,103.88,103.88,0,0,0-17.5.13M164.94,90c-1,.43-2.95,2.85-2.95,3.66,0,.31.33-.07.74-.84a5.14,5.14,0,1,1,0,4.76c-.37-.74-.67-1.11-.68-.81-.05,3.09,5.46,5.14,8.44,3.15,5.65-3.81.77-12.6-5.5-9.92m-37.4,4.47c-.37.24-.13.35.75.35a2.9,2.9,0,0,0,1.3-.14c0-.37-1.55-.52-2-.21m79.9.38c3.36.83,4.51,5,1.95,7-.66.52-1,1-.77,1,1.15,0,2.37-2.08,2.37-4,0-2.47-1.25-3.92-3.62-4.18l-1.58-.18,1.65.4m-81.94.53c-2.34,1.78-1.52,7.46,1.06,7.45.24,0-.08-.41-.7-.92a4,4,0,0,1-.35-5.86c1.25-1.24,1.24-1.62,0-.67m5-.15c3.15,2,1.92,6.87-1.92,7.6-1.28.25-1.36.32-.46.35,4.42.19,6.46-7.17,2.28-8.24-.4-.11-.37,0,.1.29m73.14.56c-1.82,1.94-1.08,6.34,1.16,6.94.37.1.27-.13-.25-.57-2.37-2-2.23-5.37.3-6.77.64-.36.74-.54.32-.55a2.94,2.94,0,0,0-1.53,1m2.46,7.32a3.3,3.3,0,0,0,1.4,0c.39-.11.07-.19-.7-.19s-1.08.08-.7.19m-70.3,8.14c-1.59.78-3.4,2.92-3.39,4,0,.32.41-.14.9-1a6.42,6.42,0,0,1,6-3.21c1,.15,1.44.09,1.28-.18-.41-.66-3.08-.43-4.81.41m59.25-.49c-.11.18.67.32,1.74.3s1.85-.17,1.75-.33c-.25-.41-3.24-.38-3.49,0m-52.66,1.52a6.32,6.32,0,0,1,2.27,5.53c-.13,1-.08,1.38.17,1a5.26,5.26,0,0,0-.13-4.09c-.67-1.21-2.77-3.49-3.2-3.49-.2,0,.2.47.89,1m49.89.36c-2.61,2.61-1.89,9.79,1,9.79.23,0-.13-.63-.8-1.39a5.92,5.92,0,0,1,.55-8.57c.78-.68,1.24-1.24,1-1.24a6,6,0,0,0-1.78,1.41m8-.63c3.62,2.21,3.41,7.92-.38,10.19-1,.57-1.4,1-1,1,1.13,0,3.79-2.85,4.26-4.59.75-2.72-1.46-7.41-3.49-7.41-.4,0-.15.31.63.78m-36.89,3.16a8,8,0,0,0-1.79,1.5c-.57.73-.56.74.24.06a14.35,14.35,0,0,1,2.39-1.49c.86-.43,1.29-.79,1-.79a4.59,4.59,0,0,0-1.8.72m6.59-.3A7.9,7.9,0,0,1,174.61,125c-.31.77-.44,1.39-.28,1.39,1.12,0,1.61-5.07.7-7.25s-3.77-4.78-5.3-4.73c-.56,0-.51.12.25.42m-9.92,4a3.71,3.71,0,0,0-.34,1.9c.14.53.19.48.23-.2a4.59,4.59,0,0,1,.69-1.9c.36-.55.49-1,.3-1s-.59.54-.88,1.19m-27.66.12a9.25,9.25,0,0,0,4.28,4.28c.43,0,.08-.36-.88-.91a7.6,7.6,0,0,1-2.49-2.49c-.54-1-.9-1.31-.91-.88m11.08,1.73a7.91,7.91,0,0,1-2.2,1.74c-.82.43-1.23.79-.91.8.76,0,3-1.53,3.6-2.49.71-1.13.34-1.17-.49,0m16.17,3.2c-.43,6.07,10.88,8.76,14.15,3.36.2-.33-.26-.08-1,.56-4.68,3.93-12,1.8-12.9-3.76-.13-.81-.18-.84-.23-.16M101.39,127c-.66.54-1,1-.7,1s.5-.14.5-.33c0-2.6,7-1.16,8.23,1.7.4.92.55,1,.56.44.06-3.09-5.87-5-8.59-2.81m125.32-.16c-3.25,2.43-2.49,9.43,1,9.56.19,0-.13-.37-.71-.83-2.11-1.66-2.79-4.2-1.66-6.28,1-1.9,1.27-2.12,2.85-2.69,1.26-.45,1.37-.56.56-.56a4.27,4.27,0,0,0-2.08.8m4.67-.54c4,1,5.13,6.18,2,9.13-.58.54-.89,1-.67,1,1.16,0,2.92-3,2.92-5,0-2.57-2.32-5.49-4.26-5.36-.67,0-.67.06,0,.24M99.12,130.73c-.47,1.65,1.64,5.67,3,5.67.2,0-.18-.51-.85-1.14-1.21-1.13-1.54-1.93-1.76-4.26-.1-1.11-.13-1.13-.38-.27M109.64,133a5,5,0,0,1-1.35,2.15c-.91,1-1.05,1.24-.45.94,1.12-.58,2.25-2.35,2-3.19-.15-.56-.19-.54-.23.1M152,132.8c-.68.22-.06.32,2,.32s2.69-.1,2-.32a6.41,6.41,0,0,0-4,0m27,0c-.54.23.1.34,2,.33s2.51-.1,1.8-.33a5.86,5.86,0,0,0-3.8,0M148.36,134c-2.82,1.48-6,5.61-6,7.74,0,.51.3.09.7-1a12.21,12.21,0,0,1,5.78-6.46c1.16-.56,1.83-1,1.5-1a6.62,6.62,0,0,0-2,.77m27.83-.4c-.29.47.1.47,1.2,0,.78-.33.77-.35-.07-.37a1.44,1.44,0,0,0-1.13.37m9.6.64a18.67,18.67,0,0,1,3.4,2.29l1.4,1.27-1.4-1.54c-1.38-1.51-3.87-3.07-4.88-3-.28,0,.38.47,1.48,1m-25.8.47a11.62,11.62,0,0,1,.17,19.49c-.81.55-1.31,1-1.11,1,2.92,0,6.74-6.29,6.7-11,0-4-3.94-10.26-6.31-10.15-.25,0,0,.32.55.69m13.09.89c-1.87,1.65-3.91,5.12-3.86,6.58,0,.45.35-.12.74-1.26a10.66,10.66,0,0,1,4.23-5.72,5.85,5.85,0,0,0,1.4-1c0-.5-.88,0-2.51,1.43m-69.79,1.27a3.77,3.77,0,0,0,3,0c.36-.22-.19-.34-1.5-.32s-1.83.17-1.55.35m22.1.29a8.4,8.4,0,0,0-4.94,7.53l0,1.51.27-1.8c1-7.06,8.44-10.07,13.16-5.34,1.62,1.62,2.1,1.6.59,0a8.1,8.1,0,0,0-9.13-1.87m77.89.27c-1.91.95-4.06,3.13-3.57,3.62.11.11.52-.33.91-1,1.8-3,7.25-4.06,10.4-1.94a7.64,7.64,0,0,1-4.3,14.07c-1.71,0-2.45.13-2.05.36,1.25.7,4.87,0,6.64-1.2,8.21-5.77.93-18.38-8-13.92m25.78-.56a2.43,2.43,0,0,0,2,0c1.05-.38,1-.42-.87-.42-1.67,0-1.85.06-1.13.41m-38,2.33c.83,1.71,1,1.89,1,1.17a3.73,3.73,0,0,0-.83-1.57l-.81-1,.67,1.4m1.17,5.16c0,4-1.45,7.12-4.29,9.22-1,.77-1.79,1.47-1.7,1.56.75.75,5.11-4.31,6.05-7,.57-1.63.72-5.62.24-6.37-.16-.26-.3.93-.3,2.62m6.87-2.49a2.85,2.85,0,0,0-.22,1.5l0,1.23.32-1.4c.35-1.45.31-1.78-.14-1.33m-56.87,3.33c.32,5.23,5,10.89,8.89,10.78.39,0-.22-.38-1.35-.82-4-1.54-6.65-5.08-7.32-9.84L142,142.6l.16,2.6m56.64.56c-.07,2,3.7,7,4.62,6.12.11-.11-.32-.51-.95-.88a7.9,7.9,0,0,1-3.25-4.81c-.33-1.4-.38-1.45-.42-.43M121,147.2c.48,1.85,3.74,5.35,4.39,4.7.1-.1-.52-.64-1.37-1.21a8.15,8.15,0,0,1-2.41-2.76c-.48-1-.76-1.28-.61-.73m48.19-.2c0,1.61,3.22,7.07,3.86,6.44.1-.11-.27-.65-.83-1.22a12,12,0,0,1-2.6-4.82c-.28-.84-.41-1-.43-.4m-33.24.1a9.25,9.25,0,0,1-1.45,2.37c-1.18,1.56-1.25,1.74-.36.93,1.21-1.11,2.4-3.15,2-3.5-.12-.13-.23,0-.23.2m-9.4,5.33a6.77,6.77,0,0,0,4,0c.45-.18-.37-.31-2-.32s-2.46.09-2,.3m47.69,2c.49.51,1,.82,1.12.7s-.28-.54-.89-.92l-1.12-.71.89.93M157,155.6c-.77.33-.76.34.08.37a1.4,1.4,0,0,0,1.12-.37c.3-.47-.09-.47-1.2,0m19.4,0a2.69,2.69,0,0,0,1.2.39c.54,0,.54-.05,0-.39a2.69,2.69,0,0,0-1.2-.39c-.53,0-.53,0,0,.39m-37.6.57c-4.49,1.25-8.92,5.76-8.76,8.93,0,.46.14.35.34-.3,2.65-8.68,12.41-11.35,19.35-5.29,1.61,1.4,1.63,1.41.47.15a11.31,11.31,0,0,0-11.4-3.49m53-.14c-3.08.75-6.39,2.9-7.42,4.82-.22.41.43-.06,1.45-1,5.7-5.54,14-4.55,18.24,2.17.62,1,1.13,1.6,1.13,1.38,0-3.89-8.46-8.51-13.4-7.32m-38.9.26a9,9,0,0,0,2.2,0c.61-.1.11-.17-1.1-.17s-1.7.07-1.1.17m26.8,0a9,9,0,0,0,2.2,0c.61-.1.11-.17-1.1-.17s-1.7.07-1.1.17m-72.31,5.34c-.18.28.2.34,1.16.15,6.3-1.18,9.3,8.36,3.57,11.38-.83.44-1.26.81-1,.82,2.88.09,5.55-5.87,4-8.91-1.49-2.89-6.68-5.2-7.76-3.44m44.49,1c.37.77.74,1.33.83,1.24a6,6,0,0,0-1.31-2.63c-.1,0,.12.63.48,1.39m71.89-.78c-1.27.55-3.77,3.09-3.77,3.83,0,.22.18.3.4.16a1,1,0,0,0,.4-.79c0-1.5,4.33-3.65,6.34-3.14.68.17.9.11.7-.21-.37-.61-2.53-.53-4.07.15M104.85,163.2c-1.78,1.71-1.57,2,.24.38.82-.76,1.57-1.43,1.67-1.48s0-.1-.24-.1a5.13,5.13,0,0,0-1.67,1.2m124.65-.3a7.82,7.82,0,0,1,2.09,2.5c.44.88.8,1.37.8,1.08,0-1.43-2.62-4.48-3.85-4.48-.18,0,.25.4,1,.9m15.93.25c-.12.19.48.33,1.34.31s1.47-.18,1.37-.35c-.26-.42-2.45-.39-2.71,0m-160,1.42c-2.09,1.94-1.35,7,1,7,.24,0,0-.38-.45-.84-2-1.88-2-4.45,0-6.15.67-.55,1-1,.83-1a3.9,3.9,0,0,0-1.41,1m5.69.26a3.74,3.74,0,0,1,.07,5.6c-1.18,1.18-1.18,1.56,0,.66,2.29-1.76,1.6-7.49-.9-7.49-.22,0,.16.55.83,1.23m91.51-.68a4.38,4.38,0,0,0-.25,1.38c0,.44.16.34.41-.3a2.78,2.78,0,0,0,.25-1.38c-.08-.22-.26-.09-.41.3m67,.48a4,4,0,0,1-1.43,6.42c-.95.41-1,.52-.37.53,1.77,0,3.75-3.22,3.23-5.31-.25-1-1.55-2.67-2.07-2.67-.18,0,.11.46.64,1M153,167.92c0,2,.1,3.05.26,2.48a13.1,13.1,0,0,0,0-5.29c-.15-.37-.29.89-.3,2.81m52.42-.12c0,1.83.14,3.12.3,2.86.39-.61.39-5.76,0-6-.16-.1-.3,1.31-.3,3.14m37.49-2.59c-1.36,2.19.58,6.42,2.93,6.37.56,0,.43-.16-.46-.55-2.23-1-3.46-4.37-2.08-5.74.26-.26.39-.56.28-.67s-.4.17-.67.59M103,165.83c-1.1,2.87,1.62,8.17,4.19,8.17.31,0,0-.34-.64-.75-2.55-1.59-3.2-2.69-3.2-5.48s0-2.85-.35-1.94m116.61,1.93c-.09,2.54,2.57,6.26,4.43,6.23.28,0-.13-.38-.93-.84A6.74,6.74,0,0,1,220,168l-.26-1.8,0,1.56M40.92,173.1a125.56,125.56,0,0,0,14,52.07c1.52,3,3.11,5.86,3.54,6.46a4.93,4.93,0,0,1,.77,1.37c0,.94,9.1,13.34,13.2,18,12.83,14.57,31.81,28,48.2,34.08.88.33,2,.75,2.4.93,14.23,6,40.39,9.51,56.24,7.58,6.79-.83,9.83-1.27,12.76-1.87l4.7-1a139.57,139.57,0,0,0,13.74-4.11,106.92,106.92,0,0,0,14.95-6.5A129.26,129.26,0,0,0,250.79,263a178.73,178.73,0,0,0,15.6-16.23c.77-1,1.61-2.06,1.88-2.39,8.19-10.13,17.17-27.83,20.91-41.2.28-1,.65-2.25.82-2.8s.52-1.85.76-2.9.61-2.67.83-3.6a144.58,144.58,0,0,0,2.8-22.8V168h-9.88l-.27,5.7a116.48,116.48,0,0,1-14.48,50.7c-1.63,3-8.51,13.4-9.64,14.6a18.76,18.76,0,0,0-1.41,1.74c-2.72,3.93-12.14,13.44-17.12,17.27-1,.76-1.89,1.48-2,1.6a75.12,75.12,0,0,1-6.6,4.85c-2.87,1.94-4.55,3-8.4,5.22-1.29.75-9.82,4.94-11.3,5.55l-1.9.77-1.9.78c-22.31,9.31-53.81,10-78.53,1.81-11.8-3.92-28.85-13-34.77-18.47a18.39,18.39,0,0,0-1.69-1.37c-6.6-4.57-17.1-16.09-23.84-26.15-7.81-11.66-11.18-19-15.84-34.4-.5-1.67-1.89-8.28-2.39-11.4-.23-1.43-.59-3.68-.81-5s-.51-5-.66-8.1l-.27-5.7h-10l.25,5.1m190.89-3.18a6.8,6.8,0,0,1-3.22,3.61c-.44.25-.57.45-.3.46,1.37,0,4.75-4.28,4-5.07-.1-.1-.3.35-.44,1m-49.42.19a1.78,1.78,0,0,0,.42,1.3c.27.17.32-.13.14-.88-.36-1.53-.56-1.67-.56-.42m-52.4.4a1.78,1.78,0,0,0,.42,1.3c.27.17.32-.13.14-.88-.36-1.53-.56-1.67-.56-.42m-42.3,1.37a3.3,3.3,0,0,0,1.4,0c.39-.1.07-.19-.7-.19s-1.08.09-.7.19M151.76,173c-2.9,6.12-12.66,8.23-17.38,3.75-1.39-1.32-2.27-1.84-1.41-.84,3.68,4.31,10.93,4.9,15.73,1.27,1.81-1.36,4.45-5,4-5.43-.13-.12-.54.44-.93,1.25m31.45-.67c-.05,1.62,3.33,5,6.38,6.35,4.88,2.19,12.38-.14,14.47-4.49.21-.44-.18-.13-.87.68-5.35,6.36-15.43,5.49-19.21-1.66-.41-.78-.76-1.18-.77-.88m-52.42.35a3.51,3.51,0,0,0,.83,1.37l.82.94-.7-1.2c-.93-1.58-1-1.6-1-1.11m19.42,6.89c-.14.22.38.28,1.28.14,2-.31,2.17-.52.39-.52a2.67,2.67,0,0,0-1.67.38m4.22-.24a9.69,9.69,0,0,0,1.94.38c1.15.14,1.58.1,1.2-.14-.53-.34-3.52-.56-3.14-.24m22.9.17c-.25.16,1.22.29,3.26.29s3.64-.13,3.54-.3c-.24-.39-6.19-.38-6.8,0m-31,2.44c-2.25,2.05-4,4.74-3.92,6.19,0,.5.3.07.7-1a11.55,11.55,0,0,1,4.81-5.93c1-.64,1.54-1.16,1.19-1.16a8.7,8.7,0,0,0-2.78,1.95m12.1-1.83c1.14.83,2.36,1.43,2.36,1.15s-.45-.55-1-.81c-.94-.42-1.75-.63-1.35-.34m14.07,2.38c-1.62,1.65-3.3,4.69-3.28,5.9,0,.33.39-.38.85-1.58a11.81,11.81,0,0,1,2.81-4.1c1.08-1.06,1.81-1.92,1.62-1.92a8.45,8.45,0,0,0-2,1.7m16,0a15,15,0,0,1,2.69,3.57c.42.93.77,1.42.77,1.09,0-1.32-2.89-5.19-4.59-6.1-.44-.24.07.41,1.13,1.44m-26.23.46c4.39,5.69,4,12.16-.93,16.57-1.08,1-1.59,1.55-1.14,1.31,6.21-3.23,7.35-13.45,2.06-18.35l-1.22-1.13,1.23,1.6m-36.9.6c-.29.47.1.47,1.2,0,.78-.33.77-.35-.07-.37a1.44,1.44,0,0,0-1.13.37m5.2,0c1.11.47,1.5.47,1.2,0a1.4,1.4,0,0,0-1.12-.37c-.84,0-.85,0-.08.37m73.2,0c-.29.47.1.47,1.2,0,.78-.33.77-.35-.07-.37a1.44,1.44,0,0,0-1.13.37m6,.36a8.16,8.16,0,0,1,4.05,10.64c-.18.49-.06.41.31-.2,2.26-3.68-1.4-11.25-5.39-11.19-.31,0,.15.34,1,.75m-86.87,1.34c-1.35,1.42-2.13,2.76-2.11,3.57,0,.29.37-.19.8-1.07a9.9,9.9,0,0,1,2.07-2.7c.71-.6,1.1-1.1.88-1.1a4.77,4.77,0,0,0-1.64,1.3m10.58-.24a10.61,10.61,0,0,1,2.08,2.74c.43.88.79,1.36.8,1.07,0-1.2-1.88-3.79-3.39-4.55-.44-.23-.21.11.51.74m67.65.44c-2.76,2.94-3.21,6.6-1.2,9.76,1.08,1.7,3.83,3.89,4.3,3.42.11-.12-.45-.53-1.26-.91-4.43-2.1-5.05-9.29-1.07-12.57.8-.66,1.27-1.2,1.05-1.2a5.75,5.75,0,0,0-1.82,1.5m-9,5.5c0,1.61.14,2.72.3,2.46a10.58,10.58,0,0,0,0-4.92c-.16-.26-.3.85-.3,2.46m-50.09-.2c0,1,.08,1.39.18.9a6,6,0,0,0,0-1.8c-.1-.5-.18-.09-.18.9m-21.66.22c-.09,3,2.53,6.83,5.15,7.54.87.23.84.18-.2-.39a8.26,8.26,0,0,1-4.6-6.75c-.29-2-.3-2-.35-.4m14.93,3.5a7.89,7.89,0,0,1-2.73,3c-2,1.37-2.17,1.69-.29.72A10.58,10.58,0,0,0,136.2,194c.47-1.51,0-1.21-.83.52m7.07-1.15c-.06,1,.82,3.43,1.25,3.43.18,0,.12-.41-.15-.9a10.55,10.55,0,0,1-.77-2.1c-.18-.71-.31-.88-.33-.43m26.78.23c-.1,5.1,10.49,11.53,14.64,8.89.25-.16-1.1-.29-3-.3-5.25,0-9.05-2.48-10.8-7.05-.45-1.17-.83-1.87-.84-1.54M212.79,196c0,.22-.84.94-1.87,1.6-2,1.24-2.08,1.6-.21.63,1.32-.69,3.21-2.64,2.55-2.64a.45.45,0,0,0-.47.41m-22.61,1.48a11.75,11.75,0,0,1-4.19,3.72c-.77.41-1.21.76-1,.77,1.37.06,6.76-4.73,6.08-5.4-.11-.11-.52.3-.92.91m-86.09,1.19a3.3,3.3,0,0,0,1.4,0c.39-.1.07-.19-.7-.19s-1.08.09-.7.19m41.5.68c.94,1,3.58,2.66,4.29,2.62.17,0-.23-.3-.89-.65a27.45,27.45,0,0,1-2.8-1.86l-1.6-1.23,1,1.12m83.91-.68a4.08,4.08,0,0,0,1.6,0c.38-.09,0-.17-.91-.17s-1.19.09-.69.18M100.83,200a4.76,4.76,0,0,0-1.24,1.66c0,.23.38-.05.83-.63a9.75,9.75,0,0,1,1.69-1.66c.47-.33.66-.6.4-.6a4.53,4.53,0,0,0-1.68,1.23m7.1-.13a6.12,6.12,0,0,1,1.88,3.1l.56,2-.23-1.8c-.22-1.75-2.09-4.4-3.11-4.4-.22,0,.18.5.9,1.1m19.56-.82a5.44,5.44,0,0,0,1.8,0c.5-.09.09-.17-.9-.17s-1.39.08-.9.17m78.2,0a9,9,0,0,0,2.2,0c.61-.09.11-.17-1.1-.17s-1.7.08-1.1.17m21.06.23c-3.51,2.66-2.26,9.88,1.7,9.88.29,0-.1-.33-.86-.74a5.19,5.19,0,0,1-.51-8.81c.61-.45.93-.82.71-.82a2.32,2.32,0,0,0-1,.49m6.06.16a5.48,5.48,0,0,1,2.25,3.12c.3.76.48.94.5.48a5.13,5.13,0,0,0-2.13-3.62c-1.33-.87-1.9-.86-.62,0M157,201.88a9.87,9.87,0,0,1-4.2.39c-1.6-.13-2.29-.08-1.8.13,1.84.78,6.77.25,8-.85.52-.48,0-.38-2,.33M99.3,204c0,1,.08,1.39.18.9a6,6,0,0,0,0-1.8c-.1-.49-.18-.09-.18.9m135.94.67a6.5,6.5,0,0,1-.3,1.2c-.21.57-.15.63.23.27a1.33,1.33,0,0,0,.31-1.2c-.11-.41-.21-.53-.24-.27m-69.52.87c-1.32.39-4.53,2.77-4.51,3.35,0,.3.29.18.7-.3a7,7,0,0,1,6.2-2.76c1.55,0,2.43-.12,2-.28a9.24,9.24,0,0,0-4.41,0m-66.13.7c0,.62,2.56,3,3.22,2.95.38,0,.31-.16-.22-.44a9.34,9.34,0,0,1-1.9-1.67c-.6-.69-1.1-1.07-1.1-.84m72.2.33c.44.34,1.33,1.12,2,1.73,1.13,1.07,1.14,1.07.52.1a6.19,6.19,0,0,0-2-1.73c-.86-.47-1-.51-.52-.1m62.38.66a6,6,0,0,1-1.52,1.2c-.69.42-1,.76-.66.76.82,0,3.48-2.39,2.68-2.39-.13,0-.35.2-.5.43m-125.6.35a8.93,8.93,0,0,1-1.58,1c-.66.35-.93.62-.6.63.55,0,3.29-1.95,2.78-2a1.24,1.24,0,0,0-.6.37m51.82,3a6,6,0,0,0-.18,5c.69,2.07,3.28,5.16,4.3,5.14.27,0,.12-.28-.32-.6-3.45-2.53-4.74-6.09-3.44-9.49.24-.61.33-1.1.22-1.1s-.37.46-.58,1m15.32,2.78c0,1.1.08,1.5.17.9a7.43,7.43,0,0,0,0-2c-.1-.5-.17,0-.17,1.1m-39.92-.58c-1.42.7-3.4,2.88-3.4,3.76,0,.19.41-.27.91-1,1.21-1.83,4.07-3.27,5.83-2.95q1.35.24,1.08-.18c-.41-.67-2.66-.47-4.42.39m59.51-.49c-.29.18.36.32,1.49.32s1.79-.14,1.5-.32a3.34,3.34,0,0,0-1.5-.32,3.3,3.3,0,0,0-1.49.32m-3,1.88c-2.63,2.63-1.88,9.79,1,9.79.26,0-.1-.58-.8-1.3A6,6,0,0,1,193,214c.77-.67,1.22-1.22,1-1.22a6,6,0,0,0-1.78,1.41m-49,.59c1.16,1.8,1.16,1.8,1.16,1.37a4.88,4.88,0,0,0-1-1.57l-1-1.2.9,1.4m1.41,2.88c.3,1.4-.44,3.61-1.76,5.23l-1,1.29,1.23-1.13c1.53-1.4,2.45-4.27,1.79-5.58-.42-.84-.43-.83-.22.19m58.23.92a5.69,5.69,0,0,1-3.38,5.41c-1,.45-1.37.78-.93.78,2.29,0,4.76-3.41,4.53-6.31l-.15-1.88-.07,2m-29-.24c-1.14,1.62-3.57,2.64-6.22,2.61-1.42,0-2.29.11-2,.29,1.71,1.09,7.1-.57,8.43-2.6.79-1.2.6-1.46-.21-.3m-41.5,2.44c0,.64,2.08,3.2,2.61,3.2.18,0-.14-.5-.7-1.1a12.15,12.15,0,0,1-1.46-1.9c-.31-.55-.44-.62-.45-.2m7.78,3.6c-.77.33-.76.34.08.37a1.4,1.4,0,0,0,1.12-.37c.3-.47-.09-.47-1.2,0m65.65,7.65c-1.25.34-3.05,1.83-3,2.52,0,.24.42-.1.94-.74a3.58,3.58,0,0,1,2.9-1.41c1.26-.15,1.67-.32,1.15-.46a4.26,4.26,0,0,0-1.95.09m-78.34.23a4.28,4.28,0,0,0,1.6,0c.38-.09,0-.17-.91-.17s-1.19.09-.69.18M125,233.63c-1.62,1.93-1.23,4.54,1,6.26,1.23,1,1.1.48-.23-.85-1.73-1.73-1.84-3.6-.32-5.41.57-.68.95-1.23.84-1.23a5.67,5.67,0,0,0-1.24,1.23m5.3-.95a4.4,4.4,0,0,1,1.3,1.46c.42.69.76,1.06.76.81,0-.67-1.59-2.55-2.12-2.52-.3,0-.28.11.06.25m79.16.53a7.63,7.63,0,0,1,1.29,2.6l.4,1.59-.18-1.58a4.07,4.07,0,0,0-1.28-2.6l-1.1-1,.87,1m-43,1.47a3.3,3.3,0,0,0,1.4,0c.39-.1.07-.19-.7-.19s-1.08.09-.7.19m-2.27.73c-.42.32-.69.66-.59.76s.62-.17,1.17-.59.81-.76.59-.76a2.92,2.92,0,0,0-1.17.59m6.07.42a8.81,8.81,0,0,1,1.69,1.69c.21.38.4.48.4.23,0-.57-2.38-2.95-3-2.95-.23,0,.16.47.87,1m-7.81,1.38a3.15,3.15,0,0,0-.48,1.28c0,.28.27,0,.6-.65.7-1.33.61-1.79-.12-.63m-30.69.82a4.06,4.06,0,0,1-1.53,1.6c-.79.48-1,.77-.6.77.67,0,2.73-2.14,2.73-2.83s-.33-.4-.6.46m71-.19c0,.68,2,2.56,2.74,2.56.38,0,.13-.32-.62-.77a5.84,5.84,0,0,1-1.69-1.5c-.23-.4-.43-.53-.43-.29m7.05.8a4.62,4.62,0,0,1-1.6,1.36c-.6.24-.67.36-.22.37.67,0,2.75-1.81,2.75-2.43s-.12-.41-.93.7M172.45,240c0,1.58.05,1.69.43.9a1.86,1.86,0,0,0,0-1.8c-.38-.79-.43-.68-.43.9M170,244.45a5,5,0,0,1-3.4.62c-1.79-.16-1.86-.14-.72.23a5.83,5.83,0,0,0,5-.9c1.18-1,.9-1-.88,0" style="fill:#fae95b;fill-rule:evenodd"/><path id="path2" d="M160.19.4c-.29.47.1.47,1.2,0,.78-.33.77-.34-.07-.37a1.44,1.44,0,0,0-1.13.37m13-.25c0,.09.45.24,1,.35s1,0,1-.16-.45-.34-1-.34-1,.07-1,.15m-7.3,40.94a21.44,21.44,0,0,0,3.4,0c.94-.08.17-.15-1.7-.15s-2.63.07-1.7.15M155,41.6l-2,.27,2.4,0a18.42,18.42,0,0,0,3.6-.29c1.61-.41-1-.41-4,0m21.2,0a20.55,20.55,0,0,0,3.8.3l2.2,0-2.2-.31a33.4,33.4,0,0,0-3.8-.29h-1.6l1.6.33m-27.8.78-1.8.28,1.6,0a10,10,0,0,0,2.6-.3c1.27-.41.21-.41-2.4,0m35.8,0c1.23.32,4.47.53,4.17.26a17.78,17.78,0,0,0-2.77-.37c-1.63-.13-2.15-.1-1.4.11m-40.6.81-1.4.29,1.4,0a6.69,6.69,0,0,0,2.2-.32l.8-.34-.8,0a16.12,16.12,0,0,0-2.2.32m46,0a3.88,3.88,0,0,0,1.77.41c1.54,0,1.22-.22-.77-.55-1.14-.19-1.43-.15-1,.14m-49.8.82-1.2.31,1.2,0a3.89,3.89,0,0,0,1.8-.35c.75-.48.09-.48-1.8,0m53.8,0a3.37,3.37,0,0,0,1.57.4c1.29,0,1-.22-.77-.53-1-.18-1.22-.14-.8.13m-57,.81c-1.1.28-1.12.31-.2.35a3.32,3.32,0,0,0,1.6-.35c.69-.44.33-.44-1.4,0m60.6,0a3.37,3.37,0,0,0,1.57.4c1.29,0,1-.22-.77-.53-1-.18-1.22-.14-.8.13m-63.6.81c-.82.26-.85.33-.2.35a2.82,2.82,0,0,0,1.4-.35c.71-.45.22-.45-1.2,0m66.8,0a2.82,2.82,0,0,0,1.37.41c1,0,.71-.22-.77-.55-.87-.19-1-.16-.6.14m-69.6.82c-.82.26-.85.33-.2.35a2.82,2.82,0,0,0,1.4-.35c.71-.45.22-.45-1.2,0m72.4-.06A7.78,7.78,0,0,0,205,47c.77.17,1,.13.6-.09a7.78,7.78,0,0,0-1.8-.61c-.76-.17-1-.13-.6.09m-76.4,1.33a16.07,16.07,0,0,0-2.39,1c-.36.35,2.15-.38,3.79-1.11,2.15-.94,1.34-.88-1.4.11m80.6.08c1.4.61,3.4,1.14,3.4.9a19,19,0,0,0-4.27-1.43c-.18,0,.21.24.87.53m-85.7,1.68a3.71,3.71,0,0,0-1.3.77A14,14,0,0,0,124,48.93c.43-.34-1.1,0-2.27.5m92.5.72c1.76.72,3.81,1.63,4.54,2s1.43.61,1.54.5c.31-.31-7.91-3.88-8.84-3.84-.24,0,1,.61,2.76,1.33m-97.32,1.32c-1.17.56-2.05,1.09-2,1.18a10.13,10.13,0,0,0,2.73-1c1.4-.67,2.28-1.19,2-1.18a13.62,13.62,0,0,0-2.72,1M160,51.21A108.4,108.4,0,0,0,133.6,56c-19,5.66-39.87,18.83-52.21,33-1.32,1.52-2.72,3.12-3.12,3.56-9.8,10.75-20.44,31.71-23.87,47-2.18,9.75-3.21,17.25-3.21,23.27,0,3-.14,4.32-.5,4.46s-.4.21,0,.24.5.81.51,2.53a132.63,132.63,0,0,0,3.61,26.1c1.45,5.53,2.5,9.05,3.23,10.9.59,1.5,1.13,2.85,1.52,3.8.21.49.7,1.71,1.1,2.7,8.39,20.75,26.41,41.43,46.94,53.86a127.3,127.3,0,0,0,26.69,11.78l2.8.79a129.37,129.37,0,0,0,13.1,2.71,119.27,119.27,0,0,0,44.8-1.88,138.54,138.54,0,0,0,14.4-4.44,128.9,128.9,0,0,0,23.08-12.07c2-1.33,3.89-2.66,4.26-3,10.09-8.15,15.81-13.64,21.23-20.4l3.42-4.25c4.65-5.77,11.29-18,15.07-27.85.19-.5.51-1.31.72-1.8s.59-1.62.85-2.5a18.79,18.79,0,0,1,.82-2.29,4.37,4.37,0,0,0,.35-1.68,1.67,1.67,0,0,1,.36-1.2,3,3,0,0,0,.57-1.53c.12-.71.42-2.11.67-3.1a115.41,115.41,0,0,0,3.06-22.1c.17-3.3.42-5.1.7-5.11s.32-.08,0-.3-.55-2.59-.7-6.29c-.75-17.56-5.23-33.2-14.51-50.6-4.86-9.13-15.18-21.93-24-29.79-5-4.48-16.55-13-17.58-13a5.23,5.23,0,0,1-1.35-.78c-.6-.43-3.42-1.94-6.26-3.37A115.67,115.67,0,0,0,160,51.21m62,2.39a7.06,7.06,0,0,0,1.8.77c.22,0-.23-.35-1-.77a7.06,7.06,0,0,0-1.8-.77c-.22,0,.23.35,1,.77m-117.7,4.28a6.24,6.24,0,0,0-1.76,1.19,15.12,15.12,0,0,0,3.86-2.1c0-.26,0-.23-2.1.91m126.9.48a3.79,3.79,0,0,0,1.4.82c.43,0-.29-.55-1.6-1.22-.53-.28-.46-.14.2.4M97.77,61.92c-6.28,4.28-7.34,5.06-7.36,5.37a32.45,32.45,0,0,0,4.68-3.1c2.59-1.87,5.2-3.61,5.8-3.89s1.1-.63,1.1-.8c0-.47,0-.46-4.22,2.42m135.42-2.34a.44.44,0,0,0,.45.42,37.48,37.48,0,0,1,4.83,3c2.42,1.65,4.27,2.82,4.13,2.58a41.45,41.45,0,0,0-4.34-3.14c-5.13-3.43-5.07-3.39-5.07-2.88m10.4,6.89c.33.34,1.68,1.48,3,2.52,6,4.77,14.55,13.2,18.31,18.1a6.14,6.14,0,0,0,1.66,1.7c.4,0,0-.48-4-5a104.67,104.67,0,0,0-10.35-10.45c-4.61-4.09-10.26-8.61-8.6-6.88M87,69.89c-1.53,1.26-4.13,3.62-5.78,5.24-2.65,2.62-2.52,2.53,1.21-.79,2.31-2.06,5-4.41,6-5.22s1.69-1.49,1.57-1.5a25,25,0,0,0-3,2.27M29.43,72.66c-.38,1,0,1.13.55.17.24-.45.28-.83.07-.83s-.48.3-.62.66m45.2,9c-1.68,1.79-4.16,4.62-5.52,6.3C66,91.87,65.86,92,66.11,92a21.28,21.28,0,0,0,2.35-2.7c1.17-1.49,3.8-4.55,5.85-6.8s3.65-4.1,3.55-4.1a40.94,40.94,0,0,0-3.23,3.24M170.19,90a6,6,0,0,1,3,5.12c0,7-9.45,8.25-11.52,1.52-.76-2.45,1.11-6.6,3-6.6.3,0,.55-.18.55-.4,0-.66,3.71-.39,5,.36m97.38.24c.46.66,2.4,3.45,4.3,6.2,3.23,4.68,4.71,6.64,3.91,5.2-1-1.79-6.69-10-7.78-11.2s-1.15-1.22-.43-.2M65.11,93.1c-.6.7-5.08,7.37-5.7,8.5-.78,1.42.63-.43,3-3.95,1.41-2.07,2.8-4.09,3.1-4.5.7-1,.38-1-.43-.05m65.07,1.46c2,1,2.61,2,2.61,4.18a4.42,4.42,0,0,1-7.9,3c-3.39-3.78.82-9.48,5.29-7.16m78-.16a1.11,1.11,0,0,0,.86.4,2,2,0,0,1,1.74,1.77c0,.35.18.63.4.63s.4.72.4,1.6-.18,1.6-.4,1.6-.4.24-.4.53c0,1.24-1.95,2.42-4,2.42-6.06,0-6-9.09.08-9.31a1.76,1.76,0,0,1,1.32.36M57.9,104.08c-.55,1-1.21,2.17-1.48,2.72l-.48,1,.82-1a4.23,4.23,0,0,0,.83-1.34,5.21,5.21,0,0,1,.85-1.52c.46-.65.75-1.27.65-1.38s-.65.58-1.19,1.52M276,102.63a1.37,1.37,0,0,0,.37.79,39.73,39.73,0,0,1,2.73,4.68c.63,1.23,1,1.48.62.4-.63-1.66-3.72-6.54-3.72-5.87m-134.8,8.17c0,.22.28.4.62.4a4.13,4.13,0,0,1,2.58,2.58c0,.34.18.62.4.62,1.37,0,.39,5.14-1.33,7-5.53,6.1-15.48-2-10.25-8.34,1.85-2.24,8-4,8-2.3m58.67.19c6.32,3.15,3.94,12.78-3.13,12.68a6.84,6.84,0,0,1-6.17-4.42c-2.25-5.36,4-10.91,9.3-8.26M52.23,115a8.27,8.27,0,0,0-.88,2.46,6.81,6.81,0,0,0,1.21-2.13,8.51,8.51,0,0,0,.88-2.45A6.83,6.83,0,0,0,52.23,115m119.11-.2a8.4,8.4,0,0,1,.09,14.75c-1.7.95-6.08,1.14-7.53.32-1.25-.7-3.51-2.93-3.51-3.46A.41.41,0,0,0,160,126c-.41,0-.91-2.08-.91-3.8s.5-3.8.91-3.8c.19,0,.35-.26.35-.57,0-3,7.11-5,11-3m111.07-.19c0,.62,1.23,3,1.46,2.82a3.77,3.77,0,0,0-.63-1.72c-.45-.85-.82-1.34-.83-1.1m-232.15,5a5.27,5.27,0,0,0-.51,1.82c.08.08.44-.61.81-1.52a4.8,4.8,0,0,0,.51-1.82c-.08-.09-.45.6-.81,1.52m-1.58,4c-.9,2.45-2.9,8.63-3.4,10.51a113.84,113.84,0,0,0-3.27,16c-1,7.85-1.21,10.16-1.14,13.76.05,2.36.12,2.91.19,1.44.23-5.17,1.49-17,2.13-20,.19-.88.56-2.68.83-4,.46-2.25,1.13-5,2-8.2.22-.77.54-1.94.72-2.6s.89-2.8,1.57-4.77a21.34,21.34,0,0,0,1.11-3.71c-.08-.07-.42.63-.77,1.57m237.16-.89c.38,1.51,1.29,3.48,1.29,2.8a8,8,0,0,0-.76-2.2c-.43-.88-.66-1.15-.53-.6M231,125.6a1.35,1.35,0,0,0,1,.4c4,0,5.23,7.21,1.71,10-2.54,2-8.54.93-8.54-1.53a.43.43,0,0,0-.4-.45c-.22,0-.4-1.11-.4-2.52,0-2.73,1.73-5.47,3.46-5.49a2.94,2.94,0,0,0,1.34-.39c.78-.5,1.49-.5,1.8,0m-123.46.86a.59.59,0,0,0,.53.34c.53,0,1.9,1.65,1.92,2.31a3.39,3.39,0,0,0,.49,1.26c2,3.18-3.78,8.14-7.65,6.59-6.82-2.72-4.34-11.92,3-11a3.21,3.21,0,0,1,1.74.53m179.68.34a2.67,2.67,0,0,0,.38,1.2c.35.53.39.53.39,0a2.57,2.57,0,0,0-.39-1.2c-.34-.53-.38-.53-.38,0m.8,2.3c0,.91,2.34,7.76,2.36,7a5.51,5.51,0,0,0-.34-1.8c-.2-.51-.67-2-1-3.22-.59-2-1-2.9-1-2m-128.78,4.52c2.07,1.11,4.76,3.52,4.76,4.26,0,.29.14.52.31.52,1.16,0,2.23,5.84,1.55,8.42-1.22,4.6-3,6.85-7.06,8.74-4.88,2.3-14.8-.61-14.8-4.35,0-.23-.13-.41-.3-.41-.44,0-1.3-2-1.3-3.06a1.53,1.53,0,0,0-.4-1.14c-1.31-.81.65-7.79,2.85-10.15,3.68-3.95,10-5.19,14.39-2.83m25.61-.53a13.89,13.89,0,0,1,6.72,5.91c.29.66.69,1.51.88,1.89a19.84,19.84,0,0,1,0,7.42c-.19.38-.59,1.19-.88,1.81-4,8.53-17.62,8.58-21.51.07-.3-.65-.71-1.5-.9-1.88a19.3,19.3,0,0,1,0-7.42c.19-.38.6-1.22.9-1.87,2.41-5.19,9-7.81,14.79-5.93m-53.06,3.74a8.41,8.41,0,0,1-.82,15.81c-5.11,1.78-10.56-2.42-10.56-8.14,0-6,6.1-10.15,11.38-7.67m77.42-.33c.88.27,1.59.63,1.59.8s.24.3.53.3c2.06,0,4.45,5.63,3.65,8.6-.92,3.38-3.21,6.2-5,6.2a1.22,1.22,0,0,0-.94.4c-.85,1.38-6-.24-8.32-2.6-5.67-5.84.74-16.13,8.53-13.7m81.36,1.9c.15.77.43,2.12.62,3a167.28,167.28,0,0,1,3,23.8c.07,1.21.06-.32,0-3.4A96.73,96.73,0,0,0,292,143.2c-.24-1.21-.58-3-.76-3.9a6.1,6.1,0,0,0-.63-2c-.17-.17-.19.33-.05,1.1M145.19,156.11c6.95,2.45,10.53,10.44,7.49,16.69a14.09,14.09,0,0,1-5.31,5.55c-.64.3-1.49.7-1.87.9a22,22,0,0,1-7.81,0c-.38-.2-1.21-.6-1.85-.9-4.12-1.94-7.23-8.29-6.19-12.65,1.11-4.66,5.06-9.3,7.92-9.3a1.31,1.31,0,0,0,1-.4c.35-.56,4.92-.49,6.6.11m52.29-.06a15,15,0,0,1,3.86,1.95,12.24,12.24,0,0,1-2.08,20.7c-1.88,1-8.55,1.34-9.07.5a1.31,1.31,0,0,0-1-.4c-.43,0-.78-.18-.78-.4a.47.47,0,0,0-.52-.4c-.85,0-3.65-3-4.69-5.08-2.91-5.78-.19-13.53,5.61-16,.77-.33,1.67-.75,2-.93.9-.49,5.41-.44,6.69.08m137.19,4.09a1.41,1.41,0,0,0,.16,1.1c.26.41.35.26.36-.54,0-1.19-.19-1.41-.52-.56M112.09,161.7c4.11,2.32,5.06,7.55,1.94,10.66-6,6-15.2-2.15-9.94-8.81,1.65-2.07,5.87-3.05,8-1.85m117.58.66c6.14,3.89,1.69,14.54-5,12-3.74-1.4-5.06-3.15-5.06-6.69,0-5.29,5.53-8.22,10.08-5.34m-140.28.84a1.25,1.25,0,0,0,1,.4c2.24,0,3.37,4.93,1.6,7-3.54,4.07-9.65.08-7.57-4.94.69-1.65,4.38-3.45,5-2.43m159.51.1c4.87,2.3,1.83,9.77-3.38,8.28-3-.87-4.39-5-2.32-7l1.3-1.26c.65-.63,3.06-.64,4.4,0M.06,168.5c0,2.35.5,3.08.73,1.1l.2-1.8,6.21-.11,6.21-.11.72,8.51c.79,9.41,1.2,13.22,1.84,17.11,1.79,10.78,3.23,16.42,7.46,29.16.1.3.29.45.41.33a18.52,18.52,0,0,0-1.17-4.36c-.77-2.27-1.78-5.48-2.26-7.13s-1-3.55-1.24-4.23a9.28,9.28,0,0,1-.38-2.28,1.86,1.86,0,0,0-.34-1.26,4.3,4.3,0,0,1-.6-1.92c-.14-.94-.44-2.7-.68-3.91a169.63,169.63,0,0,1-2.44-22.2c-.28-4.56-.64-7.72-.9-7.89a46.79,46.79,0,0,0-7.11-.3H.05v1.3m321.23-1c-.35.14-.5,1.36-.52,4.06,0,6.13-1.67,22.44-2.5,24.87-.36,1-.69,4.55-.4,4.26a8.09,8.09,0,0,0,.59-2.37c.18-1.15.52-3.26.75-4.69.9-5.43,2.35-20.11,2.37-23.91v-2.11l6.3.11,6.3.11.2,3.2c.25,3.94.68,3.51.71-.7l0-3.1-6.66,0a70.39,70.39,0,0,0-7.17.24M.2,173.83c.16,3.08.59,3.25.59.24,0-1.36-.16-2.47-.35-2.47s-.31,1-.24,2.23m159,6.3a14,14,0,0,1,6,6c1.13,2.16.45,10.65-.85,10.65-.18,0-.34.25-.34.55,0,2.05-6.62,5.83-10.24,5.85-3.07,0-9.76-3.71-9.76-5.42a5.1,5.1,0,0,0-.74-1.32c-1.14-1.62-2-6.65-1.3-7.38a2.17,2.17,0,0,0,.44-1.32c0-2.19,4.57-7.76,6.37-7.76a1.72,1.72,0,0,0,1.05-.37c1.08-1,6.82-.75,9.36.5m25.91-.45c3.33,1.44,6.91,5.1,6.91,7.07a1.38,1.38,0,0,0,.4,1.05c.5.31.54,5.55.05,6.51-.19.38-.62,1.33-.95,2.1-4.1,9.65-19,8.4-22.27-1.86-2.91-9.17,7.16-18.62,15.86-14.87M.92,184.38a4.61,4.61,0,0,0,.41,1.89c.17.17.27-.54.21-1.58s-.23-1.89-.41-1.89-.26.71-.21,1.58m131.51-.65c4.89,2.58,5.88,9.71,1.85,13.32a8.24,8.24,0,1,1-1.85-13.32m77.88-.14c8,4.28,5.49,15.6-3.48,15.61-8.71,0-11.41-11.53-3.63-15.5a8,8,0,0,1,7.11-.11m123.28,1c0,1,.1,1.8.22,1.68.42-.42.56-3.09.18-3.32s-.4.5-.4,1.64m-.8,6c0,.85.17,1.33.4,1.18a2.06,2.06,0,0,0,.4-1.42c0-.65-.18-1.18-.4-1.18s-.4.64-.4,1.42m-331.2.16A2.06,2.06,0,0,0,2,192.2c.24.15.4-.33.4-1.18s-.18-1.42-.4-1.42-.4.53-.4,1.18m.8,4.57a1.72,1.72,0,0,0,.4,1.25c.23.14.4-.19.4-.75a1.72,1.72,0,0,0-.4-1.25c-.22-.14-.4.19-.4.75m329.64.47c0,1.56,0,1.57.44.44.29-.8.29-1.26,0-1.57s-.44,0-.41,1.13m-224.92,3c1.67.86,2.88,2.14,2.88,3a3.17,3.17,0,0,0,.49,1.37,1.57,1.57,0,0,1,0,1.79l-1,2.06c-1.87,4-8.65,3.16-10.33-1.27-1.75-4.6,3.54-9.26,7.93-7m125.42,0c2.91,1.37,4.27,4.88,2.9,7.51a5.79,5.79,0,0,1-11-2.58c0-4.28,4.16-6.8,8.14-4.93M3.2,199.7c0,1.14.78,1.73.79.6,0-.61-.18-1.1-.4-1.1a.45.45,0,0,0-.39.5m328.29-.27a2.47,2.47,0,0,0-.28,1.34c0,.9.06.94.42.32.46-.78.35-2.14-.14-1.66m-15.07,5.84c-.53,2.27-1.39,5.48-1.89,7.13-.91,3-1.16,4.36-.7,3.9a5.77,5.77,0,0,0,.58-1.57c.19-.73.52-2,.73-2.73s.68-2.57,1-4,.84-3.25,1.07-4a6,6,0,0,0,.29-2.13c-.08-.38-.58,1.16-1.12,3.43m14-1.49a1.07,1.07,0,0,0,.4.82c.22.14.4-.12.4-.58s-.18-.82-.4-.82-.4.26-.4.58m-160.6,1.53c3.06.94,5.8,3.43,5.8,5.26a1.07,1.07,0,0,0,.4.83c.6.37.49,3.1-.18,4.7A8.55,8.55,0,0,1,164.74,221c-1.9-.8-4.35-3.28-4.35-4.41a1.07,1.07,0,0,0-.4-.82c-1.16-.72.08-6.24,1.8-8a12.2,12.2,0,0,1,6.2-2.94,10.27,10.27,0,0,1,1.8.46M329.59,207c0,.33.18.6.4.6s.4-.27.4-.6-.18-.6-.4-.6-.4.27-.4.6m-.8,3.42c0,.46.18.72.4.58a1.07,1.07,0,0,0,.4-.82c0-.32-.18-.58-.4-.58s-.4.37-.4.82M5.7,210.77c0,.43.2.69.38.58.44-.27.39-1.35-.06-1.35-.21,0-.35.35-.32.77M141.76,213c2.56,1.5,4.61,6.66,3,7.64a1.13,1.13,0,0,0-.4.87c0,3.16-6.67,4.69-9.9,2.27-6.46-4.86.3-14.87,7.27-10.78m58.11-.12c3.75,2.11,4.77,6.16,2.41,9.56s-7.81,3.67-10.41.65c-4.7-5.47,1.76-13.71,8-10.21m-193.3.36c0,.44.14.8.31.8s.31-.36.31-.8-.14-.8-.31-.8-.31.36-.31.8m321.42,0c0,.46.18.72.4.58a1.07,1.07,0,0,0,.4-.82c0-.32-.18-.58-.4-.58s-.4.37-.4.82M7.19,216c0,.44.18.8.4.8s.4-.36.4-.8-.18-.8-.4-.8-.4.36-.4.8m320,0c0,.46.18.72.4.58a1.07,1.07,0,0,0,.4-.82c0-.32-.18-.58-.4-.58s-.4.37-.4.82M313,217.6c-.15.47-.18,1-.07,1.06s.32-.19.47-.66.19-.95.08-1.06-.33.19-.48.66m13.4.8c0,.75.11.85.48.48s.38-.59,0-1-.48-.27-.48.48M8.9,220.79c0,.45.21.81.38.81.44,0,.39-1.1-.06-1.38-.21-.13-.35.13-.32.57m317-.55a1.9,1.9,0,0,0-.28,1.13c0,.77,0,.77.42.11s.34-1.72-.14-1.24M311.39,222c-.15.47-.18.95-.07,1.06s.32-.19.47-.66.19-1,.08-1.06-.33.19-.48.66M325,223c.15,1,.64,1.2.64.28,0-.48-.16-.87-.36-.87s-.33.27-.28.59M24.17,224.23l1.14,2.93c.46,1.19.91,2,1,1.69a5.46,5.46,0,0,0-.68-2.26,11,11,0,0,1-.84-2.16,1,1,0,0,0-.46-.67c-.33-.2-.38-.06-.16.47m284.89,3.64a1.86,1.86,0,0,0-.24,1.1c0,.76.06.75.41-.13s.31-1.45-.17-1m-2.2,5c-.73,1.59-1.6,3.34-1.92,3.89a11.09,11.09,0,0,0-.82,1.7c-.12.39-.38.7-.57.7s-.36.36-.36.8-.18.8-.4.8-.4.36-.4.8-.18.8-.4.8-.4.28-.4.63a1.94,1.94,0,0,1-.5,1.15c-1.27,1.34-1.9,2.28-1.9,2.82,0,.33-.18.6-.4.6s-.4.32-.4.71a1.93,1.93,0,0,1-.8,1.29,1.93,1.93,0,0,0-.8,1.29c0,.67-1,.71-16.6.71H263.58l-3.89,3.9c-3.65,3.65-8.21,7.93-9.94,9.31l-2.56,2c-1,.76-1.89,1.5-2,1.63-.48.57-9.51,6.68-11.64,7.87l-2.4,1.35a7.79,7.79,0,0,0-1.16.75c-.11.11-1.46.83-3,1.6a15.06,15.06,0,0,0-2.93,1.69.74.74,0,0,1-.64.3,13.93,13.93,0,0,0-2.87,1.16A74.14,74.14,0,0,1,209,287.75c-7.75,2.59-8,2.65-8.9,2.65a1.46,1.46,0,0,0-1.1.4,2.76,2.76,0,0,1-1.74.4,3.8,3.8,0,0,0-1.88.36,5.21,5.21,0,0,1-2,.59c-.88.12-2.77.42-4.2.65-7.07,1.16-9.82,1.32-21.6,1.32-13.22,0-17.44-.35-25.8-2.14-1.1-.24-2.67-.53-3.5-.65a3.5,3.5,0,0,1-1.72-.57,1.63,1.63,0,0,0-1.18-.36,6.14,6.14,0,0,1-1.88-.36c-.5-.2-1.73-.58-2.72-.85a124,124,0,0,1-12.5-4.36c-3-1.23-13.73-6.67-14.3-7.23a9.43,9.43,0,0,0-1.4-.78c-1.25-.61-12.25-7.94-12.6-8.4a5.61,5.61,0,0,0-1-.84c-2.51-1.72-8.17-6.85-14.21-12.88l-3.11-3.1H55c-16.35,0-16.62,0-16.62-.8,0-.44-.18-.8-.4-.8s-.4-.32-.4-.71a1.93,1.93,0,0,0-.8-1.29,1.87,1.87,0,0,1-.8-1.08c0-.47-.67-1.45-1.9-2.74a2,2,0,0,1-.5-1.15c0-.35-.18-.63-.4-.63s-.4-.36-.4-.8-.18-.8-.4-.8-.4-.34-.4-.77-.14-.82-.31-.9a27.19,27.19,0,0,1-2.25-4,18.22,18.22,0,0,0-2.12-3.73c-.56.56,6.66,14,12.12,22.49,9.22,14.41,24.35,30.3,37.56,39.44a31.2,31.2,0,0,1,2.6,1.92,50.67,50.67,0,0,0,5.35,3.6,22.33,22.33,0,0,1,2.53,1.53,161.57,161.57,0,0,0,22.12,11.29,8.1,8.1,0,0,1,1.78.84,1.93,1.93,0,0,0,1.11.34,4.09,4.09,0,0,1,1.52.4l1.59.8a4.14,4.14,0,0,0,1.53.4,1.72,1.72,0,0,1,1,.27,27.89,27.89,0,0,0,6.54,2.12,1.53,1.53,0,0,1,1.1.37,3,3,0,0,0,1.52.56c.72.12,3.28.68,5.7,1.24a158.08,158.08,0,0,0,63.68,1.19c4.53-.83,7.29-1.47,14.32-3.34a82,82,0,0,0,8.3-2.82,3.31,3.31,0,0,1,1.3-.39,3.56,3.56,0,0,0,1.31-.35c.77-.4,2.67-1.2,3.89-1.65.83-.31,1.63-.67,8.4-3.81,8-3.7,24.59-13.92,27-16.61.11-.13,1.1-.9,2.2-1.74,10.35-7.8,27.23-26.38,32.89-36.17a17.49,17.49,0,0,1,1.31-2.07,86.81,86.81,0,0,0,4.44-7.47c2.56-4.53,6.89-13.74,6.44-13.72a12.18,12.18,0,0,0-1.61,2.9m-177-.89a4.32,4.32,0,0,1-1.44,8.44c-4.89,0-6.47-5.53-2.29-8.08a3.45,3.45,0,0,1,3.73-.36m79.35.48c3.94,2.7,2.3,8-2.47,8-1.86,0-2.26-.17-3.23-1.24-3.47-3.88,1.42-9.65,5.7-6.72m-38.56,2.9c2.56,1.95,3.18,4.58,1.72,7.31-2.93,5.49-10.51,3.44-10.53-2.84a5.5,5.5,0,0,1,8.81-4.47m149.76-.23a1,1,0,0,1-.46.92.55.55,0,0,0-.26.73c.13.39.41.17.86-.7.77-1.49.81-1.72.26-1.72-.22,0-.4.34-.4.77m-6.7,13.13c-.65,1.38-.37,1.58.45.33.35-.54.51-1.07.34-1.17s-.52.28-.79.84M26.35,257.5c.86,1.57,2.38,3.33,2.58,3s-.13-.61-.56-.92a1.76,1.76,0,0,1-.78-1.1c0-.54-.93-1.68-1.38-1.68-.13,0-.07.32.14.7M307,259.57c.12.2-.05.45-.39.56s-.46.17.06.13c.76-.07,1.27-1.06.55-1.06-.25,0-.35.17-.22.37m-277.89,2.3a.87.87,0,0,1,.5.76c0,.31.18.57.4.57a.37.37,0,0,0,.4-.32A1.77,1.77,0,0,0,29,261.63c-.23,0-.19.12.08.24m276.1.34c-.28.34-.43.69-.33.79s.48-.18.85-.61.52-.79.33-.79a1.58,1.58,0,0,0-.85.61m-9.5,12.41c-.58.64-.63,1-.14,1,.34,0,1-1.2.75-1.42-.06-.05-.33.15-.61.44m-256.1.52c0,.55,2.39,3,2.66,2.74.12-.12-.42-.88-1.22-1.67s-1.44-1.27-1.44-1.07m254.5,1.08c-.58.64-.63,1-.14,1s1-1.2.75-1.42c-.06,0-.33.15-.61.44M286,285.6c-.89.88-1.47,1.6-1.29,1.6a7.7,7.7,0,0,0,1.89-1.6c2-2.08,1.5-2.08-.6,0m-237.16,0c0,.19.45.64,1,1s1,.6,1,.52a5.51,5.51,0,0,0-1-1c-.55-.48-1-.72-1-.52m2.29,1.89c-.13.13.19.7.72,1.27,1.26,1.36,1.64,1,.44-.43-.51-.59-1-1-1.16-.84m228.63,4c-.49.53-.73,1-.53,1a2.76,2.76,0,0,0,1.61-1.63c0-.48,0-.46-1.08.67M58.27,293.86c-.12.11.44.82,1.23,1.57,1.88,1.76,2.2,1.45.37-.38-.77-.77-1.49-1.3-1.6-1.19m217,1.17c-.72.75-1.14,1.37-.94,1.37a8.9,8.9,0,0,0,2.85-2.56c0-.53-.66-.12-1.91,1.19M271,298.86l-1.2,1.22,1.5-.94a4.64,4.64,0,0,0,1.5-1.24c0-.57-.6-.25-1.8,1M66,300.3c0,.44.78,1.56.79,1.15,0-.19.27-.12.6.15,1,.84.67.2-.4-.73-.55-.47-1-.73-1-.57m201.59,1.11c-.78.93-.22,1.11.6.19.4-.44.54-.8.32-.8a1.57,1.57,0,0,0-.92.61m-5.6,4c-.75.9-.32,1,.57.14.43-.41.59-.75.35-.75a1.57,1.57,0,0,0-.92.61m-4.9,3c-.38.43-.56.76-.4.76.42,0,1.7-1,1.7-1.33,0-.47-.58-.21-1.3.57m-3.44,2.31c-.68.52-.76.73-.31.73a1,1,0,0,0,.83-.56.46.46,0,0,1,.68-.27c.29.17.36.11.18-.18-.35-.57-.25-.59-1.38.28M82,311a3,3,0,0,0,1.38,1.38c.5,0,.18-.64-.58-1.11-.44-.27-.8-.39-.8-.27m3.6,2.58c0,.22.26.4.57.4a.84.84,0,0,1,.75.5c.09.27.32.36.5.2s0-.57-.44-.89q-1.38-1-1.38-.21m17.82,8.83c.15.23.37.32.49.19s.64.05,1.14.37c.71.47,1,.49,1.2.11s.14-.37,0-.21-.7,0-1.16-.3c-1-.68-2-.79-1.64-.16M220.19,326c-.29.47.1.47,1.2,0,.78-.33.77-.35-.07-.37a1.44,1.44,0,0,0-1.13.37m-101.72,1.41c.41.41,1.92.54,1.92.17,0-.21-.48-.38-1.06-.38s-1,.1-.86.21m2.92,1c-.13.22.13.4.58.4s.82-.18.82-.4-.25-.4-.57-.4a1.07,1.07,0,0,0-.83.4m91,0c0,.22.36.4.8.4s.8-.18.8-.4-.36-.4-.8-.4-.8.18-.8.4m-6.14,1.52c-.11.17.15.34.57.37s.77-.11.77-.32c0-.45-1.07-.5-1.34-.05m-75.46.88c0,.22.47.4,1,.4s.91-.17.77-.4a1.31,1.31,0,0,0-1-.4c-.43,0-.78.18-.78.4m72.4,0c0,.22.26.4.58.4a1,1,0,0,0,.82-.4c.14-.22-.12-.4-.57-.4s-.83.18-.83.4m-69.2.8c0,.22.44.4,1,.4a1.64,1.64,0,0,0,1.22-.4c.15-.23-.26-.4-1-.4s-1.23.18-1.23.4m65.4,0a1.35,1.35,0,0,0,1,.4c.43,0,.77-.18.77-.4s-.46-.4-1-.4-.92.17-.78.4m-4.6.77c0,.21.36.35.8.32s.8-.2.8-.38-.36-.31-.8-.31-.8.17-.8.37m-50.8.81c0,.18.54.3,1.2.28s1.2-.16,1.2-.29-.54-.26-1.2-.28-1.2.11-1.2.29m46,0c0,.2.54.33,1.2.31s1.2-.19,1.2-.36-.54-.3-1.2-.3-1.2.16-1.2.35m-41,.75c.43.43,4.23.47,4.23.05,0-.19-1-.35-2.26-.35s-2.13.13-2,.3m33.43.1c0,.44,3.4.34,3.85-.11.16-.16-.64-.29-1.78-.29s-2.07.18-2.07.4m-23.1.79c1.29.4,16.91.34,17.31-.06.15-.15-3.93-.27-9.07-.27-5.66,0-8.9.13-8.24.33" style="fill:#f1c133;fill-rule:evenodd"/><path id="path3" d="M159.93,41.4a27.8,27.8,0,0,1-4.8.63,96,96,0,0,0-11.34,1.55,134.36,134.36,0,0,0-13.2,3.21A133.84,133.84,0,0,0,105.3,57.7a15.65,15.65,0,0,1-2.9,1.5.41.41,0,0,0-.41.4.4.4,0,0,1-.41.4C100.35,60,89.1,68.39,83,73.88A134.59,134.59,0,0,0,65.59,93c-2.43,3.46-6.3,9.27-6.52,9.76-.14.33-.8,1.5-1.46,2.6a153.76,153.76,0,0,0-7,14.4c-.88,2.12-3.39,9.26-3.83,10.9L46,133.3c-.82,2.92-1.54,5.83-2,8.1-.27,1.32-.64,3.12-.83,4a164.14,164.14,0,0,0-2,19.3v2.9h4.37c6,0,5.63.31,5.63-4.74,0-6,1-13.52,3.21-23.26,3.43-15.29,14.07-36.25,23.87-47,.4-.44,1.8-2,3.12-3.56,26.09-30,70.69-44.22,111.2-35.4,11.31,2.46,27.79,8.88,33.83,13.18a5.23,5.23,0,0,0,1.35.78c1,0,12.55,8.53,17.58,13,8.81,7.86,19.13,20.66,24,29.79,9.28,17.4,13.76,33,14.51,50.6.3,7.06-.11,6.59,5.64,6.59H294v-3.27a143.16,143.16,0,0,0-2-18.73,129.47,129.47,0,0,0-6.09-22.4,141.86,141.86,0,0,0-8.2-17.6l-1.83-3.2c-1.33-2.37-8.43-12.54-9.5-13.6-.11-.11-1.18-1.37-2.38-2.8a129.24,129.24,0,0,0-18.23-17.66C241.92,65.28,234.22,60,233.62,60a.4.4,0,0,1-.43-.35c0-.2-.31-.46-.7-.59a20.32,20.32,0,0,1-2.7-1.44c-6.16-3.74-20.31-9.61-28.2-11.7a129.13,129.13,0,0,0-21.4-4c-4.88-.51-19.89-.93-20.26-.56M1.06,167.87a4.47,4.47,0,0,0-.27,1.9c0,1.2-.11,1.47-.4,1s-.38-.5-.39.1c0,.38.17.7.39.7s.4,1.1.4,2.5c0,1.89-.11,2.35-.44,1.9s-.36-.43-.11.2a18.83,18.83,0,0,1,.47,3.7,7.62,7.62,0,0,0,.44,2.9c.16,0,.34.83.39,1.84.06,1.2-.05,1.74-.33,1.57s-.42-.07-.42.17a.41.41,0,0,0,.4.42c.22,0,.4.63.4,1.4s.18,1.4.4,1.4c.59,0,.5,2.7-.1,2.93-.4.17-.4.21,0,.24s.5.38.5.81a1.34,1.34,0,0,0,.4,1,1.72,1.72,0,0,1,.4,1.25c0,.56-.17.89-.4.75s-.4,0-.4.38.18.62.4.62.4.36.4.8.18.8.4.8.4.49.4,1.1c0,.86-.09,1-.4.5s-.38-.5-.39.1c0,.38.13.7.29.7.64,0,1.33,2.13.8,2.46s-.39.48,0,1.12a3.51,3.51,0,0,1,.51,1.51c0,.61.06.62.39.11s.39-.51.4.07a.88.88,0,0,1-.4.8c-.46.15.39,2.32.9,2.33.17,0,.3.28.3.62s-.19.51-.43.36-.19.11.1.58.66.84.83.84.3.63.3,1.4.18,1.4.4,1.4.4.36.4.8-.2.8-.46.8,0,.37.49.82c.79.69.85.88.36,1.19s-.44.47.31,1c1,.7,1.18,1.61.4,1.92-.37.16-.38.21,0,.24s.39.28.27.59a.75.75,0,0,0,.28.86c.31.2.39.14.2-.16s-.09-.46.14-.46c.59,0,.53,1.09-.08,1.34-.38.15-.37.2,0,.23s.41.21.28.43,0,.29.37.15.62,0,.62.21a.42.42,0,0,1-.4.44c-.58,0-.48.65.2,1.34a2.12,2.12,0,0,1,.6,1.23c0,.35.18.63.4.63s.42.76.43,1.7c0,1.32.11,1.52.37.9s.35-.68.38.3c0,.6.2,1.1.42,1.1a.41.41,0,0,1,.4.42c0,.24-.18.32-.4.18-.7-.44-.42.14.5,1,.5.48.66.74.35.56s-.49-.14-.39.17.32.46.51.43c.39-.08,1,.79,1,1.4,0,.22-.17.13-.39-.2-.33-.51-.38-.5-.39.1,0,.38.17.7.39.7s.42.4.43.9c0,.86.05.86.37.1s.35-.59.38.5a2,2,0,0,0,.82,1.79,1.71,1.71,0,0,1,.8,1.21c0,.38.18.7.4.7s.4.36.4.8.18.8.4.8.4.36.4.8.18.8.4.8.4.36.4.8.18.8.4.8.4.54.4,1.2c0,1,.17,1.2.9,1.21s.79.08.3.4c-.65.43.21,1.36.89.94.17-.11.31.17.31.63s.19.82.42.82a.4.4,0,0,1,.35.5c-.21,1.68.05,2.35.83,2.1.59-.19.8-.07.8.43a2.43,2.43,0,0,0,.85,1.41,1.61,1.61,0,0,1,.66,1.48,2,2,0,0,0,.35,1.49c.3.41.54.56.54.35a1.56,1.56,0,0,0-.48-.88c-.26-.26-.34-.48-.17-.48a1.49,1.49,0,0,1,1.14,1.54c-.09.29.21.79.67,1.11a2.12,2.12,0,0,1,.84,1.68,2.18,2.18,0,0,0,.8,1.67,1.86,1.86,0,0,1,.8,1.05.94.94,0,0,0,.63.7c.34.14.51.43.38.65s.12.4.57.4.8.14.78.3c-.17,1,.06,1.49.44.9s.39-.29.4.7c0,.72.2,1.3.43,1.3s.29-.23.12-.5-.05-.3.4.07.58.63.17.89-.24.33.38.33.88.15.86.31c-.17,1.06.14,1.7.82,1.7.49,0,.82.33.91.9s.36.85.64.79c.75-.15,2.47,1.74,2.47,2.72a2,2,0,0,0,1.82,2c.4,0,.59.22.46.54s.21,1,.71,1.6c.93,1.09,1.7,1.46,1.16.56-.21-.34-.09-.33.37,0s.59.68.49.84.15.7.56,1.18.82.7.9.51.49,0,.93.48.63.71.42.54c-.72-.57-1.07-.3-.43.34a1.31,1.31,0,0,0,1.22.41c.72-.27.8.39.09.71-.27.13-.11.14.36,0a1.27,1.27,0,0,1,1.39,1.57c0,.19.19.24.52.12s.52,0,.39.31A.71.71,0,0,0,54,291c.34.21.39.13.16-.26s-.18-.43,0-.27a5,5,0,0,1,.77,1.2,2.09,2.09,0,0,0,1.24,1.05,1.89,1.89,0,0,1,1,.47,1.44,1.44,0,0,0,.78.46c.91.21,3.21,2.63,3.25,3.42,0,.42.11.5.23.21a.75.75,0,0,1,.57-.5c.2,0,.32.22.26.5a.32.32,0,0,0,.4.4c.28-.05.48,0,.46.2-.15.93.07,1.48.39,1s.45-.37.89.18.48.64,0,.36-.47-.2-.27.13a.5.5,0,0,0,.66.23c.21-.13.49.07.63.43s.37.49.5.28.69.08,1.24.64.69.78.3.49c-.62-.46-.68-.44-.46.12a1.34,1.34,0,0,0,1.22.66,1.31,1.31,0,0,1,1.23.7c.39,1,1.25,1.79,1.69,1.52.21-.13.54.06.75.43a.81.81,0,0,0,1,.42c.42-.16.65,0,.65.34a.61.61,0,0,0,.63.59c.37,0,.51.19.33.47s-.07.38.37.21c.77-.29,1.31.34.58.69-.28.13.08.15.79,0s1.3,0,1.3.2a.41.41,0,0,1-.42.39c-.23,0-.31.18-.18.4a1.3,1.3,0,0,0,1,.4,1.08,1.08,0,0,1,1,.5c.16.4.21.4.23,0a.51.51,0,0,1,.45-.5c.23,0,.37.32.3.7s.12.68.58.64.7.2.7.5c0,.65.67.76.88.14.07-.23.53-.05,1,.4a3,3,0,0,0,1.5.82c.34,0,.59.13.57.3-.15.95.07,1.48.4,1s2,.13,2,.84c0,.16.36.3.8.3s.81.13.81.3c0,.36,1.94,1.3,2.67,1.3a.47.47,0,0,1,.52.4c0,.22.32.4.72.4a1.89,1.89,0,0,1,1.28.8,1.86,1.86,0,0,0,1.09.8.51.51,0,0,1,.52.5c0,.36.1.35.36-.05.4-.65,1.23-.26,1.23.57s.48.75,1.12.1c.27-.26.51-.35.53-.2s.1.46.15.68.13.51.15.65.36,0,.73-.3.56-.36.39-.07.06.67.57.94.79.35.57,0-.09-.36.45-.06a8.58,8.58,0,0,0,1.86.64c.69.14,1,.4.84.68s-.1.34.16.18a.5.5,0,0,1,.68.14,2.32,2.32,0,0,0,1.53.44c1,0,1.12.09.49.33s-.65.34.4.54c.65.13,1.24.07,1.32-.13a.62.62,0,0,1,.54-.37c.23,0,.31.27.18.6s0,.6.48.6a2.12,2.12,0,0,1,1.24.5c.44.41.5.37.3-.2-.14-.38-.08-.7.14-.7s.38.25.38.56a.9.9,0,0,0,1.52.56c.29-.29.58-.15,1,.43a1.89,1.89,0,0,0,1.63.85c.61,0,1.1.18,1.1.4s.32.4.7.39c.6,0,.62-.06.1-.39s-.41-.39.33-.39a2.37,2.37,0,0,1,1.5.55,1.57,1.57,0,0,0,1.37.36c.45-.12.8,0,.8.23s.29.45.63.45.51.18.37.4-.07.4.15.4a.6.6,0,0,0,.52-.41c.15-.45,2.33.4,2.33.91,0,.17.29.3.63.3s.52-.17.39-.38.12-.34.55-.31.72.16.64.28.3.43.83.68,1,.29,1,.09c0-.65,1.44-.37,2.33.46.48.44.87.62.87.4s.56-.42,1.23-.42,1.12.17,1,.4.13.4.58.4.82.18.82.4.47.4,1,.4.92-.17.79-.38.12-.34.55-.31.69.2.58.37.43.32,1.2.32,1.49.22,1.62.5.28.4.47,0a1,1,0,0,1,.82-.5c.33,0,.5.15.39.33s0,.34.35.34.48-.15.36-.34,0-.33.22-.33a.41.41,0,0,1,.42.4c0,.22.45.4,1,.4s1,.18,1,.4a.42.42,0,0,0,.43.4c.23,0,.31-.18.17-.4s.6-.4,2-.4c1.22,0,2.22.18,2.22.4s1.06.4,2.38.4a5.4,5.4,0,0,1,2.62.4,1.44,1.44,0,0,0,1.13.36c.81,0,.81-.06-.13-.36-.56-.18,2.91-.33,8-.33,5.37,0,8.68.12,8.2.33-.65.28-.67.35-.12.37a1.15,1.15,0,0,0,.95-.41c.19-.31.38-.28.62.1s.34.41.35,0,.79-.5,2.6-.5c1.47,0,2.6-.17,2.6-.4s1.54-.4,3.8-.4,3.8-.16,3.8-.4c0-.58,2.3-.49,2.54.1.16.4.21.4.23,0s.48-.5,1-.5,1-.18,1-.4.36-.4.8-.4.8.18.8.4.27.4.6.4.6-.18.6-.4.47-.4,1-.4.91-.17.77-.4.19-.4.75-.4a1.38,1.38,0,0,1,1.19.5c.16.4.21.4.23,0s.39-.5.83-.5.8-.18.8-.4.38-.4.83-.4.71.18.57.4c-.41.67.18.45,1.1-.4s1.9-1.06,1.9-.4a.42.42,0,0,0,.43.4c.23,0,.31-.18.17-.4s.27-.4,1-.4,1.15-.17,1-.4.05-.4.4-.4.54.18.4.4c-.46.76.43.4,1-.4a2.31,2.31,0,0,1,2.06-.8c.81,0,1.58-.23,1.71-.5s.28-.4.47,0a.85.85,0,0,0,.62.5c.22,0,.28-.18.14-.4s0-.4.38-.4.62-.18.62-.4.29-.4.63-.4.51.18.37.4-.1.4.08.4.56-.36.83-.8a1.77,1.77,0,0,1,1.4-.77c.85,0,.86,0,.09.37s-.2.53.77.16c.35-.14.51-.45.36-.7s0-.21.4.09c.59.48.68.45.68-.2s.07-.66.39-.15c.22.33.4.39.4.14a.91.91,0,0,1,.63-.69c.35-.14.51-.07.37.15s-.06.4.16.4a.85.85,0,0,0,.64-.4,1.61,1.61,0,0,1,1.13-.44c.81,0,.81-.06-.13-.36-1.1-.35-.49-.52,1.5-.41.72,0,1.3-.12,1.3-.36s.5-.44,1.1-.46c1,0,1-.06.3-.37-.89-.38-.57-.5,1.2-.45,1,0,1.09,0,.4-.33s-.68-.37.3-.39c.61,0,1.1-.21,1.1-.43a.42.42,0,0,1,.43-.4c.23,0,.31.18.17.4s-.06.4.17.4.6-.36.83-.8c.46-.85,1.43-1.15,1-.3-.14.27.1.09.54-.4a2.72,2.72,0,0,1,1.65-.9c.56,0,.76-.17.57-.47s-.07-.38.39-.21a.63.63,0,0,0,.91-.33,1.12,1.12,0,0,1,1-.59c.41,0,.75-.18.75-.4s.36-.4.8-.4.8-.18.8-.4.36-.4.8-.4.8-.18.8-.4.38-.4.83-.4.71-.18.57-.4.33-.4,1.18-.4c1.16,0,1.42-.15,1.42-.8,0-.44.2-.8.43-.8s.31.18.17.4,0,.4.22.4.56-.37.68-.83c.16-.64.3-.71.55-.3s.34.37.35.06.58-.88,1.28-1.38,1.15-.72,1-.5,0,.42.34.42.51-.25.33-.8-.1-.74.4-.54.64.05.64-.18.29-.33.63-.19c.7.26,3-1.3,4.53-3a2.93,2.93,0,0,1,2-1.11c.55,0,.9-.11.76-.25-.35-.35.65-1.26,1.55-1.42a2.86,2.86,0,0,0,1.46-1.23,2,2,0,0,1,1.7-1.1c.57,0,1-.23,1-.53,0-.71,2.23-2.67,3-2.67a2.09,2.09,0,0,0,1.23-.6c.37-.37.42-.6.14-.6s-.2-.25.17-.63.84-.49,1.09-.33.36.11.18-.18c-.35-.57.67-1.66,1.54-1.66.34,0,.62-.18.62-.4s.41-.4.9-.41.72-.13.5-.3-.07-.62.48-1.15.95-.7,1.07-.4.21,0,.22-.49c0-.69.22-.9.73-.76.85.21,2.74-1.53,2-1.83-.27-.11,0-.22.51-.26s.78-.15.51-.26.07-.78,1.1-1.79,1.75-1.5,1.92-1.4.54-.17.82-.62c.42-.67.42-.76,0-.5s-.41.18,0-.35A1.86,1.86,0,0,1,290,282c.75,0,1.79-1.45,1.43-2-.13-.21.14-.38.59-.38.66,0,.83-.26.83-1.3s.1-1.15.39-.7.39.49.4-.13a2.21,2.21,0,0,1,.6-1.33c.36-.36.6-.42.6-.15s.19.34.41.21a.48.48,0,0,0,.18-.63c-.13-.21,0-.64.36-1s.64-.47.79-.1.22.05.24-.5c0-.8.12-.88.42-.4s.39.36.4-.5.2-1.11.9-1.13c.5,0,.68-.12.4-.23-.68-.28-.62-.81.13-1.09.4-.16.52-.08.33.22s-.1.34.18.17a1.81,1.81,0,0,0,.47-1.36c0-.85.09-.95.39-.48s.4.4.43-.4c0-.55.13-.77.25-.48.31.77,2.12-1.51,2.16-2.72,0-.55.12-.78.23-.5.32.78,1.33-.46,1.33-1.63a2.72,2.72,0,0,1,1.19-1.92c1-.82,1.09-1,.5-1.22s-.63-.28,0-.3c.43,0,.61-.21.44-.48s-.06-.38.27-.27c.64.21,2-1.3,2-2.24a1.64,1.64,0,0,1,.8-1.13,1.64,1.64,0,0,0,.8-1c0-.29-.18-.42-.4-.28s-.4.06-.4-.18.27-.42.59-.42a.37.37,0,0,0,.37-.56c-.13-.35.13-.68.67-.85s.76-.35.33-.63-.42-.35-.06-.35.5-.37.5-.81a.71.71,0,0,1,.8-.8c.44,0,.8-.19.8-.42s-.18-.32-.4-.18c-.53.33-.5.09.14-1.15.3-.57.66-.92.8-.78s.26-.09.26-.51a2,2,0,0,1,.8-1.36,2.19,2.19,0,0,0,.8-1.69c0-.61.18-1.11.4-1.11s.4-.37.4-.82.18-.72.4-.58c.41.25.57-.3.41-1.4,0-.33.05-.47.2-.32.37.36,1.39-.65,1.39-1.37a2,2,0,0,1,.5-1.09c.4-.43.4-.48,0-.26s-.5,0-.5-.34.18-.62.4-.62.4-.34.4-.75a1.09,1.09,0,0,1,.8-1c.62-.16.8-.54.8-1.67,0-.89.16-1.36.41-1.2s.39.1.36-.08c-.22-1.23.08-2.68.43-2.13s.4.19.43-1,.1-1.43.37-.8.35.77.38-.08a1.54,1.54,0,0,1,.42-1.12.89.89,0,0,0,.4-.65c0-.22-.16-.29-.37-.17a.5.5,0,0,1-.66-.23c-.17-.28-.12-.37.13-.22.49.31,1.42-.68,1-1.08s-.49-1.45-.08-1.45c.2,0,.36.3.36.67,0,.92.24.55.56-.87.2-.88.16-1-.14-.6s-.4.44-.41-.3a1.83,1.83,0,0,1,.79-1.39c.44-.28.8-.65.8-.83s-.18-.22-.4-.08-.4-.13-.4-.6.15-.76.32-.65.55-.17.83-.62.32-.69.08-.55-.43-.07-.43-.56.18-.82.4-.82.4-.59.4-1.31a2.21,2.21,0,0,1,.8-1.89c.8-.58,1.16-1.47.4-1s-.41-1,.4-1.89,1-1.51.4-1.51c-.22,0-.4-.27-.4-.6s.18-.6.4-.6.4-.27.4-.6.19-.6.41-.6.2-.34-.1-.85c-.4-.68-.4-.89,0-1s.5-.85.5-1.75a6.68,6.68,0,0,1,.4-2.37l.8-1.58a3.51,3.51,0,0,0,.38-1.3c0-.28-.19-.15-.38.29-.27.64-.34.49-.37-.72,0-.92.13-1.43.37-1.28s.4-.19.4-.75a1.72,1.72,0,0,1,.4-1.25.89.89,0,0,0,.4-.65c0-.22-.18-.29-.4-.15s-.4-.33-.4-1.18.18-1.42.4-1.42.4-.53.4-1.17.23-1.25.5-1.36.4-.21,0-.24-.5-.68-.5-1.85.16-1.73.4-1.58.4,0,.4-.4-.19-.54-.5-.37-.4.18,0-.25a5.33,5.33,0,0,0,.5-2.63c0-1.27.2-2.17.5-2.32s.4-.28,0-.46a1.07,1.07,0,0,1-.49-.9c0-.58.06-.59.39-.07s.39.28.4-.72c0-.75-.16-1.22-.38-1.09s-.43-1-.5-2.88l-.12-3.11-6.3-.11-6.3-.11v2.11c0,2.18-.95,13-1.58,18.31a156.65,156.65,0,0,1-2.8,16c-.19.77-.56,2.3-.82,3.4s-.6,2.45-.78,3-.54,1.81-.82,2.8c-1,3.46-2.26,7.16-4.91,14A160.79,160.79,0,0,1,302,243.73a86.81,86.81,0,0,1-4.44,7.47,17.49,17.49,0,0,0-1.31,2.07c-5.66,9.79-22.54,28.37-32.89,36.17-1.1.84-2.09,1.61-2.2,1.74-2.41,2.69-19,12.91-27,16.61-6.69,3.1-7.56,3.5-8.5,3.86-1.83.71-3.11,1.25-3.79,1.6a3.56,3.56,0,0,1-1.31.35,3.31,3.31,0,0,0-1.3.39,82,82,0,0,1-8.3,2.82l-5.12,1.35c-22.43,5.87-49.82,6.17-72.88.8-2.42-.56-5-1.12-5.7-1.24a3,3,0,0,1-1.52-.56,1.53,1.53,0,0,0-1.1-.37,27.89,27.89,0,0,1-6.54-2.12,1.72,1.72,0,0,0-1-.27,4.44,4.44,0,0,1-1.63-.46c-1.91-1-2.31-1.14-3-1.14a1.93,1.93,0,0,1-1.11-.34,8.1,8.1,0,0,0-1.78-.84,161.57,161.57,0,0,1-22.12-11.29,22.33,22.33,0,0,0-2.53-1.53,50.67,50.67,0,0,1-5.35-3.6,31.2,31.2,0,0,0-2.6-1.92C65.54,285.36,51.26,271,42.64,258.65A162,162,0,0,1,25,226.2c-.59-1.54-1.22-3.16-1.41-3.6A182.92,182.92,0,0,1,18,204c-2-9.11-2.77-14.33-3.91-27.9l-.71-8.5h-6a40.1,40.1,0,0,0-6.31.27" style="fill:#e4a427;fill-rule:evenodd"/><path id="path4" d="M159.54.32c-.08.24-2.31.48-5.43.57a31.92,31.92,0,0,0-5.57.43,11.18,11.18,0,0,1-3.21.28c-1.69,0-2.94.17-2.94.4s-.7.4-1.57.4a3,3,0,0,0-1.83.4c-.36.59-1.09.49-.76-.1.23-.4.17-.4-.26,0a3.79,3.79,0,0,1-2.06.5c-.94,0-1.52.19-1.52.5s-.14.3-.4-.1-.39-.43-.39-.1-.55.5-1.38.5a2.52,2.52,0,0,0-1.63.4,2.46,2.46,0,0,1-1.62.4c-.76,0-1.38.18-1.38.4s-.61.4-1.37.4a2.52,2.52,0,0,0-1.63.4,2,2,0,0,1-1.42.4c-.65,0-1.18.18-1.18.4s-.61.4-1.37.4a2.52,2.52,0,0,0-1.63.4,1.64,1.64,0,0,1-1.22.4,5,5,0,0,0-1.88.46c-1.92,1-2.31,1.14-3.07,1.14a1.35,1.35,0,0,0-1,.37c-.13.21-.62.3-1.1.21s-1,0-1.11.22a2,2,0,0,1-1.22.49,3.73,3.73,0,0,0-1.77.82c-.43.38-1,.63-1.2.55a2.5,2.5,0,0,0-1.42.36,7.35,7.35,0,0,1-2.9,1c-.16,0-.3.1-.3.3,0,.4-2.42,1.35-2.7,1.07-.1-.1-.56.17-1,.59a3.08,3.08,0,0,1-1.78.78c-.53,0-.84.18-.71.4s0,.4-.4.4a2.11,2.11,0,0,0-1.25.6,4.13,4.13,0,0,1-1.67.86,3.82,3.82,0,0,0-1.28.5,5.9,5.9,0,0,1-2.44,1.24,2.29,2.29,0,0,0-1.17.82,2.82,2.82,0,0,1-1.55.89c-.46,0-.84.16-.84.29,0,.44-2.29,1.57-2.6,1.29s-.19-.07,0,.21.05.5-.36.5-.53.18-.35.47.07.38-.4.2a.63.63,0,0,0-.9.34,1.14,1.14,0,0,1-1,.59c-.43,0-.68.16-.56.35s-.1.33-.48.3-.65.18-.59.47-.15.46-.47.4-.61.06-.63.28c-.06.47-1.58,1.16-2.31,1-.27,0-.5.22-.5.58a1,1,0,0,1-.8.86c-.44.12-.8.38-.8.59s-.15.28-.35.16-.68.23-1.09.78-1,1-1.19,1a3.83,3.83,0,0,0-1.5,1,15.47,15.47,0,0,1-2.26,1.69c-.66.39-1.21.85-1.21,1s-.3.31-.66.31-.56.11-.42.25-.68,1.35-1.22,1.35a15,15,0,0,0-2.83,2.4C57.1,42.12,56,43,56,42.77s-.27-.16-.6.17a2.14,2.14,0,0,0-.6,1.25c0,.36-.18.55-.39.41s-.8,0-1.29.38-.7.62-.3.63.51,0,0,.37a1,1,0,0,1-.91.16c-.18-.11-.28,0-.22.13a.3.3,0,0,1-.24.4,2.41,2.41,0,0,0-.83,1c-.26.51-.65.9-.85.87a1.3,1.3,0,0,0-.88.5c-.28.31-.41.56-.27.56s0,.27-.36.6a2,2,0,0,1-1.07.6c-.27,0-.36.28-.22.64s.07.58-.36.42-.61,0-.61.38-.18.5-.4.36-.4,0-.4.42c0,.7-.49,1.31-3.86,4.77a22.33,22.33,0,0,0-2.52,3c-.25.48-.63.75-.85.62s-.36-.09-.33.09c.14.81-.07,1.36-.44,1.13-.22-.14-.4,0-.4.41a1,1,0,0,1-.8.87c-.44.12-.8.42-.8.67a10.48,10.48,0,0,1-1.6,2.56,11.3,11.3,0,0,0-1.6,2.5.36.36,0,0,1-.32.39,5.12,5.12,0,0,0-1.23,1.87c-.69,1.43-1,1.74-1.27,1.3s-.36-.46-.37,0a4.61,4.61,0,0,1-.83,1.7c-.46.64-.68,1.16-.5,1.17s0,.2-.38.43-.61.58-.48.78,0,.38-.22.38-.35.16-.23.35-.13.65-.55,1a1.36,1.36,0,0,0-.52,1.32c.16.42.08.53-.23.34s-.47,0-.47.36-.18.53-.41.39-.36-.1-.3.08c.16.51-.94,2.94-1.25,2.75-.15-.09-.3.22-.33.7s-.26.93-.49,1a.75.75,0,0,0-.42.7c0,.31-.18.57-.4.57s-.4.36-.4.8-.18.8-.4.8-.4.27-.4.6-.18.6-.4.6-.4.28-.4.62c0,.87-1.83,4.21-2.14,3.9-.14-.14-.26.25-.26.87a2.69,2.69,0,0,1-.83,1.84c-.46.4-.73.9-.61,1.1s0,.59-.32.84a1.26,1.26,0,0,0-.37,1.17,1.32,1.32,0,0,1-.44,1.24,1.94,1.94,0,0,0-.63,1.29c0,.51-.17.68-.5.49s-.37-.15-.23,0c.47.52-1.51,6.23-2.15,6.23-.16,0-.19.27-.06.6a3.42,3.42,0,0,1-.61,2c-.47.79-.64,1.3-.39,1.15s.36-.08.2.27-.37.87-.5,1.26-.37.7-.52.7-.29.4-.33.9a18.74,18.74,0,0,1-1.34,4.8,5,5,0,0,0-.37,1.89c0,.67-.18,1.21-.4,1.21s-.4.72-.4,1.6-.18,1.6-.4,1.6-.4.73-.4,1.62-.14,1.54-.32,1.43-.37.55-.42,1.47a4.48,4.48,0,0,1-.48,2.06A3.48,3.48,0,0,0,3.19,136a3.78,3.78,0,0,1-.28,1.74,7.14,7.14,0,0,0-.43,2.36A5.44,5.44,0,0,1,2,142.4a7.9,7.9,0,0,0-.35,2.92,11.71,11.71,0,0,1-.31,3.18A8.49,8.49,0,0,0,1,151c0,1.11-.15,3.85-.23,6.08A16.94,16.94,0,0,1,.38,161a10.87,10.87,0,0,0-.22,3l0,3.17H6.77a46.2,46.2,0,0,1,7.06.3c.26.17.62,3.33.9,7.89a169.63,169.63,0,0,0,2.44,22.2c.24,1.21.54,3,.68,3.91a4.3,4.3,0,0,0,.6,1.92,1.86,1.86,0,0,1,.34,1.26,9.28,9.28,0,0,0,.38,2.28c.2.68.76,2.58,1.24,4.23A120.58,120.58,0,0,0,25.84,227a6,6,0,0,1,.55,1.6c0,.6,4.91,10.4,5.3,10.57.17.08.3.48.3.9s.18.77.4.77.4.36.4.8.18.8.4.8.4.27.4.59c0,.55.63,1.49,1.9,2.83a1.85,1.85,0,0,1,.5,1.06,1.85,1.85,0,0,0,.8,1.12,1.93,1.93,0,0,1,.8,1.29c0,.39.18.71.4.71s.4.36.4.8c0,.79.27.8,16.62.8H71.63l3.11,3.1c6,6,11.7,11.16,14.21,12.88a5.61,5.61,0,0,1,1,.84c.35.46,11.35,7.79,12.6,8.4a9.43,9.43,0,0,1,1.4.78c.57.56,11.32,6,14.3,7.23a126.55,126.55,0,0,0,12.5,4.37c1,.27,2.29.67,2.87.88a4.05,4.05,0,0,0,1.8.24c.41-.08-.44-.46-1.87-.85-2.64-.72-9.14-2.84-10.6-3.46-.44-.18-1.52-.6-2.4-.93C104.2,279,85.22,265.57,72.39,251c-4.1-4.66-13.2-17.06-13.2-18a4.93,4.93,0,0,0-.77-1.37c-2.82-3.95-8.39-16.19-11-24a122.15,122.15,0,0,1-6.54-34.49l-.25-5.1H50.76l.14,3.1.13,3.1.08-3.3.08-3.3H40.79v-3.74a130.06,130.06,0,0,1,2.86-23.06,128.18,128.18,0,0,1,49-75.34c2.62-1.91,2.77-2.35.2-.6-7,4.8-21.26,18.35-25.28,24.1a13.69,13.69,0,0,1-1.13,1.4,11,11,0,0,0-1.2,1.6c-.36.57-1.38,2-2.28,3.24a33.24,33.24,0,0,0-2.18,3.3c-.31.61-.71,1.1-.89,1.1s-.34.27-.34.6-.13.6-.3.6-.49.41-.74.9A29.75,29.75,0,0,1,55.49,107a2.72,2.72,0,0,0-.7,1.31.48.48,0,0,1-.4.52c-.22,0-.4.36-.4.8s-.18.8-.4.8-.4.27-.4.6-.18.6-.4.6-.4.28-.4.63c0,1.7-.52,1.77-13.82,1.77H25.89l.26-1.9c.14-1,.43-2,.65-2a.76.76,0,0,0,.39-.7c0-.31.18-.57.4-.57s.4-.53.4-1.18a2.06,2.06,0,0,1,.4-1.42,1.34,1.34,0,0,0,.4-1c0-.43.18-.78.4-.78s.4-.36.4-.8.18-.8.4-.8.4-.25.4-.57c0-.84,5.19-10.57,7.8-14.63a143.62,143.62,0,0,1,9.37-13.2,155.32,155.32,0,0,1,21.23-22c1.43-1.2,2.69-2.28,2.8-2.39,1.47-1.46,9.54-7.13,15.8-11.1,9.87-6.25,27-13.95,36.8-16.52,16.19-4.25,21.71-5.13,39.1-6.19,11.72-.72,31.52,1.7,45.7,5.59,3.56,1,12.91,4.18,15.2,5.21,1.1.5,2.45,1,3,1.2,1.07.32,13.78,6.53,15.8,7.72l3.2,1.88c4,2.34,16.62,11.18,17.4,12.2a7.91,7.91,0,0,0,1.1.87c5.54,3.78,20,19,25.91,27.39,1.23,1.73,2.45,3.42,2.72,3.75a38.43,38.43,0,0,1,3,4.4c.44.77,1.56,2.65,2.5,4.19,2.24,3.66,6.79,12.54,6.79,13.25,0,.31.18.56.4.56s.4.36.4.8.18.8.4.8.4.63.4,1.4.18,1.4.4,1.4.4.27.4.6.18.6.4.6.4.36.4.8.18.8.4.8.4.54.4,1.2V114H284l-1-1a3.31,3.31,0,0,1-1-1.8c0-.45-.18-.82-.4-.82s-.4-.36-.4-.8-.15-.8-.33-.8-.59-.49-.9-1.1a8.57,8.57,0,0,0-.77-1.3,19,19,0,0,1-1.16-2.1c-.53-1-1.11-1.9-1.3-1.9s-.34-.32-.34-.71a4.92,4.92,0,0,0-1.18-2.11,7.2,7.2,0,0,1-1.2-1.7,32.74,32.74,0,0,0-3.14-4.49,9.32,9.32,0,0,1-.7-1,55,55,0,0,0-4-5.13c-.68-.78-1.58-1.86-2-2.39-1-1.24-11.59-11.91-13.17-13.24-4.18-3.52-9.4-7.43-9.4-7a26,26,0,0,0,3.07,2.51c2.56,1.93,8.39,6.94,12,10.33,14.73,13.81,28.65,38,33.78,58.81a121.4,121.4,0,0,1,3.8,25.7l.26,5.7H284l.09,3.7.08,3.7.13-3.5.14-3.5h10v3.1a144.58,144.58,0,0,1-2.8,22.8c-.22.93-.59,2.55-.83,3.6s-.58,2.35-.76,2.9-.54,1.81-.82,2.8a116.66,116.66,0,0,1-8,20.4,133.22,133.22,0,0,1-12.87,20.8c-.27.33-1.11,1.41-1.88,2.39A178.73,178.73,0,0,1,250.79,263a127.4,127.4,0,0,1-40.36,23.64,139.57,139.57,0,0,1-13.74,4.11l-4.7,1c-2.93.6-6,1-12.76,1.87-10,1.22-29.74-.09-39.62-2.63-2.53-.65-3.35-.7-3-.2a3.5,3.5,0,0,0,1.72.57c.83.12,2.4.41,3.5.65,8.36,1.79,12.58,2.14,25.8,2.14,11.78,0,14.53-.16,21.6-1.32,1.43-.23,3.32-.53,4.2-.65a5.21,5.21,0,0,0,2-.59,3.8,3.8,0,0,1,1.88-.36,2.76,2.76,0,0,0,1.74-.4,1.46,1.46,0,0,1,1.1-.4c.95,0,1.15-.06,8.9-2.65a74.14,74.14,0,0,0,11.56-4.59,13.93,13.93,0,0,1,2.87-1.16.74.74,0,0,0,.64-.3A15.06,15.06,0,0,1,227,280c1.54-.77,2.89-1.49,3-1.6a7.79,7.79,0,0,1,1.16-.75l2.4-1.35c2.13-1.19,11.16-7.3,11.64-7.87.11-.13,1-.87,2-1.63l2.56-2c1.73-1.38,6.29-5.66,9.94-9.31l3.89-3.9h16.61c15.65,0,16.6,0,16.6-.71a1.93,1.93,0,0,1,.8-1.29,1.93,1.93,0,0,0,.8-1.29c0-.39.18-.71.4-.71s.4-.27.4-.6c0-.54.63-1.48,1.9-2.82a1.94,1.94,0,0,0,.5-1.15c0-.35.18-.63.4-.63s.4-.36.4-.8.18-.8.4-.8.4-.36.4-.8.16-.8.36-.8.45-.31.57-.7a11.93,11.93,0,0,1,.81-1.7c.32-.55,1.18-2.26,1.92-3.8a15.62,15.62,0,0,1,1.64-2.93c.17-.08.3-.56.3-1.08a1.61,1.61,0,0,1,.4-1.19,1.34,1.34,0,0,0,.4-1c0-.43.18-.78.4-.78s.4-.41.4-.92a2.42,2.42,0,0,1,.33-1.3,9.16,9.16,0,0,0,.88-2.18,14.38,14.38,0,0,1,.79-2.2c.26-.4.42-.93,2.17-7,1.36-4.76,3.06-11.79,3.48-14.4.19-1.21.54-3.37.78-4.8a181.2,181.2,0,0,0,1.95-21.66c0-4.68-.59-4.34,7.84-4.34h6.55l-.2-3.1c-.1-1.71-.3-5.44-.42-8.3a32.89,32.89,0,0,0-.59-5.87c-.49-.93-.45-1.23.14-.9.4.23.4.18,0-.25a5.47,5.47,0,0,1-.5-2.64,4.5,4.5,0,0,0-.4-2.34,4.7,4.7,0,0,1-.4-2.4,5.26,5.26,0,0,0-.33-2.36,5.14,5.14,0,0,1-.41-2.32c0-1.17-.25-2.18-.47-2.25s-.39-.83-.39-1.67-.16-1.59-.36-1.67-.41-.85-.47-1.73a5.82,5.82,0,0,0-.4-2,5.76,5.76,0,0,1-.41-2,3.9,3.9,0,0,0-.46-1.84,1.75,1.75,0,0,1-.4-1.1c0-.47-.21-.86-.38-.86s-.32-.85-.32-1.9c0-1.37-.12-1.73-.4-1.3s-.38.29-.39-.68a2.26,2.26,0,0,0-.41-1.52,1.53,1.53,0,0,1-.4-1.14,2.4,2.4,0,0,0-.5-1.44c-.4-.43-.39-.48,0-.23s.46.15,0-.64a2.73,2.73,0,0,1-.44-1.25c.05-.17-.12-.3-.36-.3s-.36-.35-.24-.8,0-.8-.3-.8-.61-.72-.74-1.72A10.7,10.7,0,0,0,323,105a2.4,2.4,0,0,1-.39-1.48c.11-.18,0-.33-.22-.33s-.43-.27-.43-.6-.19-.6-.42-.6-.29-.21-.14-.46,0-.7-.45-1-.6-.65-.46-.8,0-.6-.39-1S319.65,98,320,98s.12-.39-.34-.88a3.18,3.18,0,0,1-.82-1.82c0-.53-.17-.84-.4-.7s-.4,0-.4-.38-.18-.62-.4-.62-.4-.45-.4-1-.18-1-.4-1-.4-.35-.4-.77-.13-.82-.3-.9A8.54,8.54,0,0,1,314.82,88a10.91,10.91,0,0,0-1.26-2,1.91,1.91,0,0,1-.43-1,3.76,3.76,0,0,0-.84-1.58,2.79,2.79,0,0,1-.7-1.52c0-.41-.18-.64-.4-.5s-.4-.12-.4-.57a1.78,1.78,0,0,0-.8-1.32,1.71,1.71,0,0,1-.8-1.21c0-.38-.18-.7-.4-.7s-.35-.22-.3-.5-.13-.45-.43-.39-.41-.08-.23-.36,0-.71-.45-1-.6-.54-.43-.54,0-.29-.33-.63-.53-.8-.41-1,0-.37-.32-.37-.94-.68-1.41-1.5a21,21,0,0,0-2.12-2.9,16.61,16.61,0,0,1-1.82-2.5c-.31-.61-.74-1.1-1-1.1s-.39-.39-.39-.87-.1-.76-.22-.64c-.28.28-1.76-1.18-3-3a25.51,25.51,0,0,0-2.45-2.8c-1-.94-1.33-1.54-1-1.67s.29-.21-.12-.23-.93-.57-1.32-1.23-1-1.2-1.29-1.2-.58-.38-.58-.87-.1-.76-.22-.64c-.27.27-3-2.36-3-2.89,0-.21-.27-.27-.6-.14s-.54,0-.34-.52c.15-.4.14-.62,0-.47-.38.34-1.85-.91-1.58-1.34.11-.18-.09-.33-.45-.33s-.52-.19-.38-.43,0-.37-.35-.3-.61,0-.6-.23-.59-.73-1.33-1.19a18.55,18.55,0,0,1-2.8-2.34,9.34,9.34,0,0,0-1.7-1.51A4.26,4.26,0,0,1,274,38c0-.24-.16-.32-.37-.2a.55.55,0,0,1-.7-.27,3.68,3.68,0,0,0-1.13-.95c-.44-.25-.71-.56-.6-.7s-.68-.73-1.76-1.3a15.71,15.71,0,0,1-2.84-1.9c-1.68-1.62-2.63-2.28-3-2.07s-.44-.06-.57-.39a.94.94,0,0,0-.75-.6,2.19,2.19,0,0,1-1.19-.7c-1.14-1.21-1.72-1.57-2.24-1.39-.27.09-.45-.07-.39-.35a.47.47,0,0,0-.29-.6c-1.22-.22-2.16-.7-2-1s-.11-.36-.53-.36a2.89,2.89,0,0,1-1.58-.78c-.46-.42-.91-.69-1-.59s-.41-.09-.69-.42a1.67,1.67,0,0,0-1.08-.61c-.31,0-.46-.18-.33-.4s-.2-.4-.8-.4-.95-.15-.84-.33-.42-.55-1.18-.82-1.38-.64-1.38-.81-.22-.32-.5-.33c-.81,0-5.86-2.81-5.6-3.07s-.15-.24-.63-.24-.87-.18-.87-.4-.36-.4-.8-.4-.8-.2-.8-.43-.22-.36-.5-.27a3.32,3.32,0,0,1-1.77-.54,21.52,21.52,0,0,0-5-1.73,1.22,1.22,0,0,1-.57-.33,1.68,1.68,0,0,0-1-.3.7.7,0,0,1-.74-.64c0-.48-.24-.59-1-.41s-1,.05-1.19-.36-.59-.55-1.25-.43-1,0-1-.25-.11-.33-.25-.19-.63,0-1.09-.33a3.52,3.52,0,0,0-1.74-.59c-.51,0-.92-.14-.92-.3s-.57-.34-1.27-.39a2.81,2.81,0,0,1-1.5-.42,2.54,2.54,0,0,0-1.41-.41,3.13,3.13,0,0,1-1.58-.48,3,3,0,0,0-1.69-.4,2.35,2.35,0,0,1-1.55-.4,2.07,2.07,0,0,0-1.44-.4c-.7,0-1.1-.17-1-.4s-.52-.4-1.77-.4-2-.18-2-.4-.79-.4-1.77-.4a3.55,3.55,0,0,1-2-.4,4.07,4.07,0,0,0-2.22-.4c-1.09,0-2-.18-2-.4s-1.06-.4-2.4-.4-2.4-.15-2.4-.33-1-.38-2.28-.43a7.82,7.82,0,0,1-2.71-.43,4.51,4.51,0,0,0-2-.34c-6.41,0-8.23-.09-7.94-.57s.14-.37-.34,0-.68.42-.85,0-.21-.37-.23,0-.39.38-1.14.17c-1.46-.41-12.55-.3-13.24.13A.58.58,0,0,1,160,.41c-.19-.31-.37-.34-.46-.09M155,41.19c-.66.16,1.14.21,4,.1a51.35,51.35,0,0,0,5.37-.35c.31-.27-8.16,0-9.37.25m15.84-.25a51,51,0,0,0,5.36.35c2.86.11,4.66.06,4-.1-1.2-.3-9.68-.52-9.36-.25M148.59,42c-.51.23.13.27,1.8.12a17.88,17.88,0,0,0,2.77-.39c.36-.32-3.81-.07-4.57.27M182,41.75a17.64,17.64,0,0,0,2.76.39c1.68.15,2.32.11,1.8-.12-.75-.34-4.92-.59-4.56-.27m-37.84,1.07c-.55.25-.31.29.8.12a8.82,8.82,0,0,0,1.77-.39c.34-.31-1.8-.08-2.57.27m44.24-.27a8.79,8.79,0,0,0,1.76.41c1.15.19,1.43.15,1-.14s-3.16-.63-2.76-.27m-48.25,1.07c-.16.27.14.32.88.14,1.53-.37,1.68-.56.42-.56a1.8,1.8,0,0,0-1.3.42m53,0c1.55.49,2.37.49,1.6,0a3.32,3.32,0,0,0-1.6-.35l-1,0,1,.32m-56.4.8c-.79.51.21.51,1.4,0l.8-.34-.8,0a3,3,0,0,0-1.4.37m60,0c1.55.49,2.37.49,1.6,0a3.32,3.32,0,0,0-1.6-.35l-1,0,1,.32m-63.2.8c-.79.51.21.51,1.4,0l.8-.34-.8,0a3,3,0,0,0-1.4.37m66.6,0c1.2.51,2.2.51,1.4,0a3,3,0,0,0-1.4-.37l-.8,0,.8.34M131,46c-.29.47.1.47,1.2,0,.78-.33.77-.35-.07-.37A1.44,1.44,0,0,0,131,46m72,0c1.11.47,1.5.47,1.2,0a1.4,1.4,0,0,0-1.12-.37c-.84,0-.85,0-.08.37m2.6.8a2.69,2.69,0,0,0,1.2.39c.54,0,.54,0,0-.39a2.69,2.69,0,0,0-1.2-.39c-.53,0-.53.05,0,.39m-79.6.8c-.53.34-.53.39,0,.39a2.69,2.69,0,0,0,1.2-.39c.54-.35.54-.39,0-.39a2.69,2.69,0,0,0-1.2.39m-11,4.34a88.32,88.32,0,0,0-10.4,5.46c-.44.37.44,0,1.94-.81s4.93-2.52,7.6-3.81a29.63,29.63,0,0,0,4.46-2.34,25.94,25.94,0,0,0-3.6,1.5m103.44-.58c.47.46,12.76,6.53,12.76,6.31s-.41-.47-.9-.71l-6.16-3.1c-4.63-2.34-6.28-3.06-5.7-2.5M102,58.83l-1,.82,1.3-.64a3.83,3.83,0,0,0,1.3-.82c0-.4-.63-.14-1.6.64m129.6-.64a4,4,0,0,0,1.3.82l1.3.64-1-.82c-1-.78-1.6-1-1.6-.64M97,61.81c-.42.32-.69.66-.59.76s.62-.17,1.17-.59.81-.76.59-.76a2.92,2.92,0,0,0-1.17.59M237.59,62c.55.42,1.07.69,1.17.59s-1.24-1.34-1.77-1.35c-.22,0,0,.34.6.76m1.6,1a3.86,3.86,0,0,0,1,.8c.55.36,1,.5,1,.31s-.45-.55-1-.8-1-.39-1-.31m-74,26.54c0,.17,1,.3,2.16.3s2.07-.13,2-.3a4.71,4.71,0,0,0-2.16-.3c-1.09,0-2,.13-2,.3m-2.15,1.56A3.9,3.9,0,0,0,162,92.53c0,.27.12.28.31,0s.74-.87,1.27-1.48c1.23-1.4.87-1.43-.52,0m7-1c.09.05.7.55,1.36,1.1l1.2,1-1-1.1a3.45,3.45,0,0,0-1.36-1.1c-.22,0-.32,0-.23.1m-8.66,4.47a2.62,2.62,0,0,0,.14,1.66c.29.53.37.3.34-1,0-1.91-.14-2.05-.48-.69m44.07-.25c-.1.17.5.31,1.34.3s1.45-.16,1.35-.32c-.24-.4-2.44-.38-2.69,0m4.36,1.28c.4.44.81.72.91.62s-.93-1.42-1.35-1.42c-.16,0,0,.36.44.8M211,98.8c0,.88.14,1.6.3,1.6s.3-.72.3-1.6-.13-1.6-.3-1.6-.3.72-.3,1.6m-8.59,1.58c0,.8,2,2.83,2.77,2.79.39,0,.29-.16-.27-.38a4.57,4.57,0,0,1-1.7-1.68c-.44-.72-.8-1-.8-.73m-77.24,1.72a3,3,0,0,0,1.6,1.07c.54,0,.55-.06,0-.25a7.2,7.2,0,0,1-1.6-1.07l-1-.85,1,1.1m84.8-.26a4,4,0,0,1-1.35,1c-.58.23-.63.34-.19.35a2.82,2.82,0,0,0,1.57-1c.52-.55.84-1,.72-1a2,2,0,0,0-.75.64m-79.37.59c-.66.42-1,.77-.74.77a3.34,3.34,0,0,0,1.4-.79c1.19-1,.9-1-.66,0m12.4,10c.63.65,1.22,1.11,1.32,1s-1.76-2.22-2.17-2.22c-.16,0,.22.54.85,1.2m49.35-.41c-.52.43-.8.79-.63.8a3.19,3.19,0,0,0,1.18-.79c1.1-1,.68-1-.55,0m-26.75,2c-.63.18,0,.28,1.8.28s2.43-.1,1.8-.28a5.93,5.93,0,0,0-3.6,0m-33.43.59a10.61,10.61,0,0,0-.08,2.7l.13,2.15.19-2.7c.2-2.72.15-3.16-.24-2.15m58.1.52c-.36.35-.33,3,0,3.59.16.26.29-.51.29-1.7s0-2.16,0-2.16a1.92,1.92,0,0,0-.3.27m-28.87,1.33c-.63.66-1,1.19-.77,1.18s2.41-2.38,2.08-2.38a8,8,0,0,0-1.31,1.2m-28.67,3.8a8.29,8.29,0,0,0,2.87,2.77c.33.17.16-.07-.39-.51a17.76,17.76,0,0,1-1.94-1.94c-.53-.64-.77-.78-.54-.32M159,121.42a3.42,3.42,0,0,0,.13,1.89c.31.7.38.51.38-1,0-2.12-.13-2.35-.51-.86m41.84.64c-.77.67-1,1-.59.82.73-.37,2.54-2.1,2.16-2.06a12.13,12.13,0,0,0-1.57,1.24m-63.29,1.43a10.69,10.69,0,0,0,2.4,0c.6-.1,0-.17-1.31-.17s-1.81.08-1.09.17m57.41,0a8.85,8.85,0,0,0,3.73,0c.12-.12-.72-.22-1.86-.23s-2,.08-1.87.19m34.28,2.15c-.45.29-.27.39.73.39.78,0,1.22-.15,1.07-.39-.31-.5-1-.5-1.8,0m5.39,2.61a4.48,4.48,0,0,1,.95,3.45c-.08,1,0,1.78.16,1.68,1-.63,0-4.93-1.52-6.16-.37-.31-.19.16.41,1M99.42,129a3.7,3.7,0,0,0-.48,1.92c.12.31.2.26.23-.12A5.81,5.81,0,0,1,99.8,129c.34-.64.54-1.23.45-1.31s-.46.49-.83,1.27m10.72,2.68c0,1,.08,1.41.3,1.06.43-.68.46-2.23,0-2.48-.17-.11-.33.53-.35,1.42m67.45,1.12c-.8.26-.84.32-.2.33a4.58,4.58,0,0,0,1.6-.33c1-.44,0-.44-1.4,0M234,135.35l-1,1.25,1.15-1.09c.63-.6,1.06-1.16,1-1.25s-.61.41-1.14,1.09m-71.89.75a7.47,7.47,0,0,0,1.83,1.59c.22-.14-2.85-3.29-3.21-3.29-.15,0,.47.77,1.38,1.7m26.65-.3a8.83,8.83,0,0,0,1.56,1.4c.11,0-.41-.63-1.16-1.4a8.57,8.57,0,0,0-1.55-1.4c-.11,0,.41.63,1.15,1.4m-81.4.43c-.88.53-1.42,1-1.2,1a8.05,8.05,0,0,0,3-1.78c0-.27.09-.3-1.8.82m119.22-.08a6.88,6.88,0,0,0,1.78.81c.58.15.34-.08-.57-.55-1.81-.93-2.36-1-1.21-.26m-100.08.16c-.25.16.68.29,2.06.29s2.32-.13,2.07-.29a5.47,5.47,0,0,0-2.07-.3,5.41,5.41,0,0,0-2.06.3m79.77,0a4.51,4.51,0,0,0,1.6,0c.38-.11,0-.18-.91-.18s-1.19.09-.69.18m6.25,2.67c.68.74,1.32,1.28,1.42,1.19s-2-2.54-2.39-2.54c-.15,0,.29.61,1,1.35m-78.16-.45a8.2,8.2,0,0,0,1,1.74,6.16,6.16,0,0,1,1,2.52c0,.57.12.81.24.52.32-.8-.14-2.15-1.26-3.66-.56-.76-1-1.26-1-1.12M169,141.37a3.61,3.61,0,0,0-.07,1.5c.11.68.2.53.35-.57.21-1.55.1-1.92-.28-.93m-27.11,1.26c-.35.9-.3,3.69,0,3.91.17.1.3-.88.3-2.18,0-2.6,0-2.64-.35-1.73m73,2.07c0,1.14.1,1.31.34.71s.14-2.21-.21-2.21a3.72,3.72,0,0,0-.13,1.5M166,144.2a17.34,17.34,0,0,1-.26,1.8l-.21,1,.43-1a3.58,3.58,0,0,0,.27-1.8c-.16-.8-.17-.8-.23,0m2.79,2.08a3.58,3.58,0,0,0,.28,1.87c.17.11.25-.47.17-1.28-.22-2.21-.42-2.48-.45-.59m44.63,3.09a7.09,7.09,0,0,1-1.91,1.81c-.92.67-1.49,1.22-1.27,1.22.61,0,3.95-3.08,3.66-3.38-.13-.14-.35,0-.48.35m-79,.8a9.13,9.13,0,0,1-2.17,1.59c-.69.34-1,.63-.61.63.59,0,4.47-3.14,3.92-3.17a3.87,3.87,0,0,0-1.14.95m36.9,2.11c.33.54,3.47,3.08,3.47,2.8a12,12,0,0,0-1.88-1.72c-1-.85-1.75-1.34-1.59-1.08m17.65,1-1.18,1.3,1.3-1.18a9.18,9.18,0,0,0,1.3-1.3c0-.3-.33,0-1.42,1.18m-62-.41a3.92,3.92,0,0,0,1.66.3,4,4,0,0,0,1.67-.3c.25-.16-.5-.29-1.67-.29s-1.91.13-1.66.29M207,152.8l-2,.27,1.88.07a3.69,3.69,0,0,0,2.12-.34c.14-.22.2-.37.13-.34s-1,.19-2.13.34m-64.16,2.94a6.1,6.1,0,0,0,1.36.42c.88.19,1,.15.6-.14s-2.36-.62-2-.28m48.21.19c-.11.18.33.25,1,.15s1.17-.24,1.17-.33c0-.3-1.95-.14-2.15.18m4.19-.19a6.1,6.1,0,0,0,1.36.42c.88.19,1,.15.6-.14s-2.36-.62-2-.28m-41,.66-2,.27,1.8,0a8.22,8.22,0,0,0,2.6-.31c.92-.39.47-.39-2.4,0m24.12.07a11.57,11.57,0,0,0,5,0c.38-.15-.74-.27-2.49-.27s-2.86.12-2.48.27M150,159.38a27.15,27.15,0,0,1,1.7,2.21c.37.54.66.78.66.54a7.6,7.6,0,0,0-1.7-2.21c-.93-1-1.23-1.22-.66-.54m34.88.32a8.76,8.76,0,0,0-1.27,1.9c-.39.85-.38.89.05.25.28-.42.93-1.27,1.44-1.9,1.11-1.36,1-1.54-.22-.25m36.46,3.6-1.18,1.3,1.3-1.18a9.18,9.18,0,0,0,1.3-1.3c0-.3-.33,0-1.42,1.18m-133.71-.15c-.35.22-.13.32.66.29s1.11-.18,1-.34c-.24-.4-1-.37-1.67.05m94.47,4.45c0,1.65.07,2.32.16,1.5a18.78,18.78,0,0,0,0-3c-.09-.82-.16-.15-.16,1.5m-52.72-.88a4.47,4.47,0,0,0,.12,2.1c.3.79.36.58.34-1.12,0-2.39-.11-2.56-.46-1M102.5,167.8c0,.88.08,1.19.18.7a4.56,4.56,0,0,0,0-1.61c-.1-.38-.18,0-.17.91m129.85,1.31c-.13.8-.08,1.17.15.95a1.77,1.77,0,0,0,.21-1.31c-.12-.81-.18-.75-.36.36M88.59,172c-1.1.28-1.12.31-.2.35A3.32,3.32,0,0,0,90,172c.69-.44.33-.44-1.4,0m19.4,2.19c0,.32,1.52.45,2.21.2s.38-.29-.71-.3a5.09,5.09,0,0,0-1.5.1m117.16.36a3,3,0,0,0,1.91,0c1-.35.94-.38-.77-.35-1.43,0-1.72.13-1.14.39M51.3,177.2a24.14,24.14,0,0,0,.29,4.2c.43,1.66.44-1.43,0-4.8l-.3-2.4v3m151.27-1.1-1.18,1.3,1.3-1.18a9.18,9.18,0,0,0,1.3-1.3c0-.3-.33,0-1.42,1.18m80.86,2.82a16.7,16.7,0,0,0-.12,3.73c.3.3.79-4.6.6-6.05-.08-.66-.3.38-.48,2.32m-138,3.58-1.59,1.7,1.7-1.58c1.59-1.47,1.89-1.82,1.59-1.82a16.62,16.62,0,0,0-1.7,1.7m-93.3,1.7a11,11,0,0,0,.31,2.6l.32,1,0-1a15.15,15.15,0,0,0-.31-2.6l-.33-1.6v1.6m75.42-1.11a10.69,10.69,0,0,0,2.4,0c.6-.09,0-.17-1.31-.17s-1.81.08-1.09.17m78.4,0a10.69,10.69,0,0,0,2.4,0c.6-.09,0-.17-1.31-.17s-1.81.08-1.09.17m76.71,2.19a7.7,7.7,0,0,0-.11,2.39c.1.29.32-.31.48-1.34a7.82,7.82,0,0,0,.11-2.41c-.11-.28-.32.32-.48,1.36m-81.64,0-1.18,1.3,1.3-1.18a9.18,9.18,0,0,0,1.3-1.3c0-.3-.33,0-1.42,1.18M52.87,189a9,9,0,0,0,.32,2.2c.32,1,.32,1,.32-.2a8.52,8.52,0,0,0-.32-2.2c-.31-1-.32-1-.32.2m228.91,1.18a5.42,5.42,0,0,0-.08,2.06c.11.11.32-.64.48-1.66a5.49,5.49,0,0,0,.07-2.05c-.11-.11-.32.63-.47,1.65M136.52,191c0,1.32.08,1.81.16,1.09a10.69,10.69,0,0,0,0-2.4c-.09-.6-.16,0-.16,1.31m5.34-1.93c-.36.35-.33,3,0,3.59.16.26.29-.51.29-1.7s0-2.16,0-2.16a1.92,1.92,0,0,0-.3.27m73,2.13c0,.77.08,1.08.18.7a3.3,3.3,0,0,0,0-1.4c-.1-.39-.18-.07-.18.7M53.61,192.83A27.91,27.91,0,0,0,55,198.31c.37.37.26-.51-.42-3.18s-1-3.33-.94-2.3m227.38,1c-.13.63-.43,1.8-.66,2.6a4.78,4.78,0,0,0-.25,2c.1.3.5-.77.9-2.37a10.17,10.17,0,0,0,.48-3.15c-.12-.12-.33.29-.47.92m-177.66,4.46c-.25.16.41.29,1.46.29s1.72-.13,1.47-.29a3.33,3.33,0,0,0-1.47-.3,3.28,3.28,0,0,0-1.46.3m125.06.08c-.4.26-.09.31,1,.14,2-.3,2.32-.53.77-.52a4,4,0,0,0-1.77.38m-39.8,1.48c-.88.79-1.24,1.25-.8,1,.75-.39,3-2.51,2.57-2.47a14.78,14.78,0,0,0-1.77,1.45m-133.37-.71a30.75,30.75,0,0,0,1.15,4.23,116.33,116.33,0,0,0,29.8,47.9c5.69,5.55,5.12,4.61-.92-1.51A108.24,108.24,0,0,1,63.82,220.2a87.16,87.16,0,0,1-4.2-9.2c-.18-.44-.52-1.3-.77-1.9a45.81,45.81,0,0,1-2.05-5.9c-1.07-3.59-1.54-4.8-1.58-4m224.27.28a2.22,2.22,0,0,0-.3,1.23,4.24,4.24,0,0,1-.35,1.64,18.79,18.79,0,0,0-.82,2.29c-.26.88-.62,2-.8,2.4s-.5,1.25-.72,1.8c-1.88,4.7-3.34,8-5.07,11.4-2.47,4.87-2.42,4.76-2,4.49.67-.42,5.26-10,7.16-14.89,2.5-6.5,3.85-11.32,2.89-10.36M235.7,204c0,1,.08,1.39.18.9a6,6,0,0,0,0-1.8c-.1-.49-.18-.09-.18.9M98.89,204c0,.77.08,1.08.18.7a3.3,3.3,0,0,0,0-1.4c-.1-.38-.18-.07-.18.7m11.3,0c0,.62.14,1,.3.94a1.62,1.62,0,0,0,0-1.88c-.16-.1-.3.32-.3.94m42.71-.91a7,7,0,0,0,2,0c.49-.09,0-.17-1.11-.17s-1.5.09-.89.18m26.79,0a9,9,0,0,0,2.2,0c.61-.09.11-.17-1.1-.17s-1.7.08-1.1.17m-75.86,6.63a1.69,1.69,0,0,0,1.46,0c.67-.3.56-.36-.65-.36s-1.29.09-.81.36m125.6,0a1.69,1.69,0,0,0,1.46,0c.67-.3.56-.36-.65-.36s-1.29.09-.81.36m-53.64,3.88c0,1.28.14,2.12.3,1.86.38-.61.39-3.76,0-4-.16-.1-.3.87-.3,2.14m27.51,5c0,.88.08,1.19.18.7a4.56,4.56,0,0,0,0-1.61c-.1-.38-.18,0-.17.91m64.45,8.47c-1.18,2-5.45,8.54-6.36,9.67-.3.36-1.81,2.23-3.37,4.16a23.07,23.07,0,0,0-2.57,3.5c.29,0,1.4-1.23,2.89-3.2.58-.77,1.39-1.76,1.8-2.2,1.26-1.35,9.16-13.43,8.94-13.65s-.72.66-1.33,1.72m-144.16,9.31a2.22,2.22,0,0,0,.32,1.37c.17.11.25-.42.16-1.18-.2-1.68-.48-1.79-.48-.19m38.1,3.62c0,.77.08,1.08.18.7a3.3,3.3,0,0,0,0-1.4c-.1-.38-.18-.07-.18.7m88.7,9.3c-3.49,3.66-6.44,6.26-13.66,12.1-.37.29-2.35,1.65-4.4,3-3.84,2.56-5.23,3.64-3.61,2.8a107.68,107.68,0,0,0,10.87-7.61c.11-.12,1-.84,2-1.6a99.08,99.08,0,0,0,11.69-10.91c3.26-3.77,1.62-2.51-2.89,2.2m-84.53-3.6a4.08,4.08,0,0,0,3.07,0c.1-.17-.59-.3-1.54-.3s-1.64.13-1.53.3m-75.05,9.77a9.65,9.65,0,0,0,2,1.93c1.1.88,2.49,2,3.08,2.52,2.64,2.23,14.08,9.66,14.08,9.13a7.68,7.68,0,0,0-1.9-1.31,118,118,0,0,1-15.2-10.83c-1.15-1-2.09-1.62-2.08-1.44M226,268.4c-.55.43-.82.78-.6.78a3.81,3.81,0,0,0,1.4-.78c.55-.43.82-.78.6-.78a3.81,3.81,0,0,0-1.4.78m-115.38,1.17a79.06,79.06,0,0,0,8.83,4.42,100.51,100.51,0,0,0-9-4.78c-.09,0,0,.16.2.36m107.58,2.86a44.26,44.26,0,0,0-5.89,3.16,2.92,2.92,0,0,0,1.2-.37c.38-.2,3-1.48,5.8-2.84a44,44,0,0,0,5.32-2.83c.29-.47.81-.69-6.43,2.88M120,274.18c0,.65,14.88,6,15.77,5.68.24-.09-.11-.29-.77-.45a114,114,0,0,1-11.54-4.05c-3.45-1.45-3.46-1.45-3.46-1.18m90.8,1.68c-.33.11-1,.36-1.4.56-1.8.81-12.3,4-15.14,4.58-.63.13-1.05.34-.93.45.42.43,14-3.52,16-4.66a3.27,3.27,0,0,1,1.28-.39,1,1,0,0,0,.82-.4c.14-.22.2-.39.13-.37l-.73.23M137,280.4c1.2.51,2.2.51,1.4,0A3,3,0,0,0,137,280l-.8,0,.8.34m5,1.22a17.15,17.15,0,0,0,3.8.67c.44-.07-.37-.36-1.8-.65-4.24-.85-5.21-.87-2,0m47.6.38-1,.32h1a10.76,10.76,0,0,0,2.2-.31l1.2-.31h-1.2a8.12,8.12,0,0,0-2.2.31m-41.8.8c1.77.45,4,.45,2.6,0a9,9,0,0,0-2.4-.31h-1.4l1.2.31m37.2,0-1.2.31H185a11.61,11.61,0,0,0,2.4-.31l1.2-.31h-1.2a11.61,11.61,0,0,0-2.4.31m-31.6.82a19.53,19.53,0,0,0,3.4.31l1.8,0-1.8-.32a21.64,21.64,0,0,0-3.4-.3h-1.6l1.6.33m25,0-1.8.28,1.8,0a18.62,18.62,0,0,0,3.4-.3l1.6-.33-1.6,0a27.71,27.71,0,0,0-3.4.29m-14.7.7c2.15.07,5.66.07,7.8,0s.39-.13-3.9-.13-6,.06-3.9.13" style="fill:#f4d540;fill-rule:evenodd"/></g></g></g></svg>