<svg width="20" height="20" viewBox="0 0 20 20" fill="none" xmlns="http://www.w3.org/2000/svg">
<path d="M16.6667 10.1663V11.583C16.6667 14.208 15.1667 15.333 12.9167 15.333H5.41675C3.16675 15.333 1.66675 14.208 1.66675 11.583V7.08301C1.66675 4.45801 3.16675 3.33301 5.41675 3.33301H7.66675C7.55841 3.64967 7.50008 3.99967 7.50008 4.37467V7.6247C7.50008 8.43303 7.76675 9.11635 8.24175 9.59135C8.71675 10.0663 9.40008 10.333 10.2084 10.333V11.4914C10.2084 11.9164 10.6917 12.1746 11.0501 11.9413L13.4584 10.333H15.6251C16.0001 10.333 16.3501 10.2746 16.6667 10.1663Z" stroke="#202020" stroke-width="1.5" stroke-miterlimit="10" stroke-linecap="round" stroke-linejoin="round"/>
<path d="M18.3333 4.37533V7.62535C18.3333 8.86701 17.7 9.80028 16.6667 10.167C16.35 10.2753 16 10.3337 15.625 10.3337H13.4583L11.05 11.942C10.6917 12.1753 10.2083 11.917 10.2083 11.492V10.3337C9.4 10.3337 8.71667 10.067 8.24167 9.592C7.76667 9.117 7.5 8.43368 7.5 7.62535V4.37533C7.5 4.00033 7.55833 3.65033 7.66667 3.33366C8.03333 2.30033 8.96667 1.66699 10.2083 1.66699H15.625C17.25 1.66699 18.3333 2.75033 18.3333 4.37533Z" stroke="#202020" stroke-width="1.5" stroke-miterlimit="10" stroke-linecap="round" stroke-linejoin="round"/>
<path d="M6.16675 18.333H12.1667" stroke="#202020" stroke-width="1.5" stroke-miterlimit="10" stroke-linecap="round" stroke-linejoin="round"/>
<path d="M9.16675 15.333V18.333" stroke="#202020" stroke-width="1.5" stroke-miterlimit="10" stroke-linecap="round" stroke-linejoin="round"/>
<path d="M15.4129 6.04167H15.4204" stroke="#202020" stroke-width="1.5" stroke-linecap="round" stroke-linejoin="round"/>
<path d="M13.0797 6.04167H13.0872" stroke="#202020" stroke-width="1.5" stroke-linecap="round" stroke-linejoin="round"/>
<path d="M10.7462 6.04167H10.7537" stroke="#202020" stroke-width="1.5" stroke-linecap="round" stroke-linejoin="round"/>
</svg>
