<svg width="130" height="26" viewBox="0 0 130 26" fill="none" xmlns="http://www.w3.org/2000/svg">
<rect width="130" height="26" rx="8" fill="#01CB63" fill-opacity="0.2"/>
<path d="M16.9301 18.584C16.1928 18.584 15.5115 18.4627 14.8861 18.22C14.2608 17.968 13.7195 17.618 13.2621 17.17C12.8048 16.722 12.4455 16.1947 12.1841 15.588C11.9321 14.9813 11.8061 14.3187 11.8061 13.6C11.8061 12.8813 11.9321 12.2187 12.1841 11.612C12.4455 11.0053 12.8048 10.478 13.2621 10.03C13.7288 9.582 14.2748 9.23667 14.9001 8.994C15.5255 8.742 16.2068 8.616 16.9441 8.616C17.6535 8.616 18.3208 8.73733 18.9461 8.98C19.5715 9.21333 20.0988 9.568 20.5281 10.044L19.8701 10.702C19.4688 10.2913 19.0255 9.99733 18.5401 9.82C18.0548 9.63333 17.5321 9.54 16.9721 9.54C16.3841 9.54 15.8381 9.64267 15.3341 9.848C14.8301 10.044 14.3915 10.3287 14.0181 10.702C13.6448 11.066 13.3508 11.4953 13.1361 11.99C12.9308 12.4753 12.8281 13.012 12.8281 13.6C12.8281 14.188 12.9308 14.7293 13.1361 15.224C13.3508 15.7093 13.6448 16.1387 14.0181 16.512C14.3915 16.876 14.8301 17.1607 15.3341 17.366C15.8381 17.562 16.3841 17.66 16.9721 17.66C17.5321 17.66 18.0548 17.5667 18.5401 17.38C19.0255 17.1933 19.4688 16.8947 19.8701 16.484L20.5281 17.142C20.0988 17.618 19.5715 17.9773 18.9461 18.22C18.3208 18.4627 17.6488 18.584 16.9301 18.584ZM25.1945 18.57C24.4852 18.57 23.8458 18.4113 23.2765 18.094C22.7165 17.7673 22.2732 17.324 21.9465 16.764C21.6198 16.1947 21.4565 15.546 21.4565 14.818C21.4565 14.0807 21.6198 13.432 21.9465 12.872C22.2732 12.312 22.7165 11.8733 23.2765 11.556C23.8365 11.2387 24.4758 11.08 25.1945 11.08C25.9225 11.08 26.5665 11.2387 27.1265 11.556C27.6958 11.8733 28.1392 12.312 28.4565 12.872C28.7832 13.432 28.9465 14.0807 28.9465 14.818C28.9465 15.546 28.7832 16.1947 28.4565 16.764C28.1392 17.324 27.6958 17.7673 27.1265 18.094C26.5572 18.4113 25.9132 18.57 25.1945 18.57ZM25.1945 17.688C25.7265 17.688 26.1978 17.5713 26.6085 17.338C27.0192 17.0953 27.3412 16.7593 27.5745 16.33C27.8172 15.8913 27.9385 15.3873 27.9385 14.818C27.9385 14.2393 27.8172 13.7353 27.5745 13.306C27.3412 12.8767 27.0192 12.5453 26.6085 12.312C26.1978 12.0693 25.7312 11.948 25.2085 11.948C24.6858 11.948 24.2192 12.0693 23.8085 12.312C23.3978 12.5453 23.0712 12.8767 22.8285 13.306C22.5858 13.7353 22.4645 14.2393 22.4645 14.818C22.4645 15.3873 22.5858 15.8913 22.8285 16.33C23.0712 16.7593 23.3978 17.0953 23.8085 17.338C24.2192 17.5713 24.6812 17.688 25.1945 17.688ZM40.1598 11.08C40.7572 11.08 41.2752 11.1967 41.7138 11.43C42.1618 11.654 42.5072 11.9993 42.7498 12.466C43.0018 12.9327 43.1278 13.5207 43.1278 14.23V18.5H42.1338V14.328C42.1338 13.5533 41.9472 12.97 41.5738 12.578C41.2098 12.1767 40.6918 11.976 40.0198 11.976C39.5158 11.976 39.0772 12.0833 38.7038 12.298C38.3398 12.5033 38.0552 12.8067 37.8498 13.208C37.6538 13.6 37.5558 14.076 37.5558 14.636V18.5H36.5618V14.328C36.5618 13.5533 36.3752 12.97 36.0018 12.578C35.6285 12.1767 35.1058 11.976 34.4338 11.976C33.9392 11.976 33.5052 12.0833 33.1318 12.298C32.7585 12.5033 32.4692 12.8067 32.2638 13.208C32.0678 13.6 31.9698 14.076 31.9698 14.636V18.5H30.9758V11.15H31.9278V13.138L31.7738 12.788C31.9978 12.256 32.3572 11.8407 32.8518 11.542C33.3558 11.234 33.9485 11.08 34.6298 11.08C35.3485 11.08 35.9598 11.262 36.4638 11.626C36.9678 11.9807 37.2945 12.5173 37.4438 13.236L37.0518 13.082C37.2665 12.4847 37.6445 12.004 38.1858 11.64C38.7365 11.2667 39.3945 11.08 40.1598 11.08ZM49.6175 18.57C48.9828 18.57 48.4088 18.4253 47.8955 18.136C47.3822 17.8373 46.9715 17.4127 46.6635 16.862C46.3648 16.302 46.2155 15.6207 46.2155 14.818C46.2155 14.0153 46.3648 13.3387 46.6635 12.788C46.9622 12.228 47.3682 11.8033 47.8815 11.514C48.3948 11.2247 48.9735 11.08 49.6175 11.08C50.3175 11.08 50.9428 11.2387 51.4935 11.556C52.0535 11.864 52.4922 12.3027 52.8095 12.872C53.1268 13.432 53.2855 14.0807 53.2855 14.818C53.2855 15.5647 53.1268 16.218 52.8095 16.778C52.4922 17.338 52.0535 17.7767 51.4935 18.094C50.9428 18.4113 50.3175 18.57 49.6175 18.57ZM45.8235 21.216V11.15H46.7755V13.362L46.6775 14.832L46.8175 16.316V21.216H45.8235ZM49.5475 17.688C50.0702 17.688 50.5368 17.5713 50.9475 17.338C51.3582 17.0953 51.6848 16.7593 51.9275 16.33C52.1702 15.8913 52.2915 15.3873 52.2915 14.818C52.2915 14.2487 52.1702 13.7493 51.9275 13.32C51.6848 12.8907 51.3582 12.5547 50.9475 12.312C50.5368 12.0693 50.0702 11.948 49.5475 11.948C49.0248 11.948 48.5535 12.0693 48.1335 12.312C47.7228 12.5547 47.3962 12.8907 47.1535 13.32C46.9202 13.7493 46.8035 14.2487 46.8035 14.818C46.8035 15.3873 46.9202 15.8913 47.1535 16.33C47.3962 16.7593 47.7228 17.0953 48.1335 17.338C48.5535 17.5713 49.0248 17.688 49.5475 17.688ZM55.3118 18.5V8.112H56.3058V18.5H55.3118ZM62.1935 18.57C61.4282 18.57 60.7562 18.4113 60.1775 18.094C59.5989 17.7673 59.1462 17.324 58.8195 16.764C58.4929 16.1947 58.3295 15.546 58.3295 14.818C58.3295 14.09 58.4835 13.446 58.7915 12.886C59.1089 12.326 59.5382 11.8873 60.0795 11.57C60.6302 11.2433 61.2462 11.08 61.9275 11.08C62.6182 11.08 63.2295 11.2387 63.7615 11.556C64.3029 11.864 64.7275 12.3027 65.0355 12.872C65.3435 13.432 65.4975 14.0807 65.4975 14.818C65.4975 14.8647 65.4929 14.916 65.4835 14.972C65.4835 15.0187 65.4835 15.07 65.4835 15.126H59.0855V14.384H64.9515L64.5595 14.678C64.5595 14.146 64.4429 13.6747 64.2095 13.264C63.9855 12.844 63.6775 12.5173 63.2855 12.284C62.8935 12.0507 62.4409 11.934 61.9275 11.934C61.4235 11.934 60.9709 12.0507 60.5695 12.284C60.1682 12.5173 59.8555 12.844 59.6315 13.264C59.4075 13.684 59.2955 14.1647 59.2955 14.706V14.86C59.2955 15.42 59.4169 15.9147 59.6595 16.344C59.9115 16.764 60.2569 17.0953 60.6955 17.338C61.1435 17.5713 61.6522 17.688 62.2215 17.688C62.6695 17.688 63.0849 17.6087 63.4675 17.45C63.8595 17.2913 64.1955 17.0487 64.4755 16.722L65.0355 17.366C64.7089 17.758 64.2982 18.0567 63.8035 18.262C63.3182 18.4673 62.7815 18.57 62.1935 18.57ZM69.8448 18.57C69.1541 18.57 68.6221 18.3833 68.2488 18.01C67.8754 17.6367 67.6888 17.1093 67.6888 16.428V9.526H68.6828V16.372C68.6828 16.8013 68.7901 17.1327 69.0048 17.366C69.2288 17.5993 69.5461 17.716 69.9568 17.716C70.3954 17.716 70.7594 17.59 71.0488 17.338L71.3988 18.052C71.2028 18.2293 70.9648 18.36 70.6848 18.444C70.4141 18.528 70.1341 18.57 69.8448 18.57ZM66.3728 11.976V11.15H70.9228V11.976H66.3728ZM76.0705 18.57C75.3052 18.57 74.6332 18.4113 74.0545 18.094C73.4758 17.7673 73.0232 17.324 72.6965 16.764C72.3698 16.1947 72.2065 15.546 72.2065 14.818C72.2065 14.09 72.3605 13.446 72.6685 12.886C72.9858 12.326 73.4152 11.8873 73.9565 11.57C74.5072 11.2433 75.1232 11.08 75.8045 11.08C76.4952 11.08 77.1065 11.2387 77.6385 11.556C78.1798 11.864 78.6045 12.3027 78.9125 12.872C79.2205 13.432 79.3745 14.0807 79.3745 14.818C79.3745 14.8647 79.3698 14.916 79.3605 14.972C79.3605 15.0187 79.3605 15.07 79.3605 15.126H72.9625V14.384H78.8285L78.4365 14.678C78.4365 14.146 78.3198 13.6747 78.0865 13.264C77.8625 12.844 77.5545 12.5173 77.1625 12.284C76.7705 12.0507 76.3178 11.934 75.8045 11.934C75.3005 11.934 74.8478 12.0507 74.4465 12.284C74.0452 12.5173 73.7325 12.844 73.5085 13.264C73.2845 13.684 73.1725 14.1647 73.1725 14.706V14.86C73.1725 15.42 73.2938 15.9147 73.5365 16.344C73.7885 16.764 74.1338 17.0953 74.5725 17.338C75.0205 17.5713 75.5292 17.688 76.0985 17.688C76.5465 17.688 76.9618 17.6087 77.3445 17.45C77.7365 17.2913 78.0725 17.0487 78.3525 16.722L78.9125 17.366C78.5858 17.758 78.1752 18.0567 77.6805 18.262C77.1952 18.4673 76.6585 18.57 76.0705 18.57ZM84.3237 18.57C83.6237 18.57 82.9937 18.4113 82.4337 18.094C81.8831 17.7767 81.4491 17.338 81.1317 16.778C80.8144 16.2087 80.6557 15.5553 80.6557 14.818C80.6557 14.0713 80.8144 13.418 81.1317 12.858C81.4491 12.298 81.8831 11.864 82.4337 11.556C82.9937 11.2387 83.6237 11.08 84.3237 11.08C84.9677 11.08 85.5417 11.2247 86.0457 11.514C86.5591 11.8033 86.9651 12.228 87.2637 12.788C87.5717 13.3387 87.7257 14.0153 87.7257 14.818C87.7257 15.6113 87.5764 16.288 87.2777 16.848C86.9791 17.408 86.5731 17.8373 86.0597 18.136C85.5557 18.4253 84.9771 18.57 84.3237 18.57ZM84.3937 17.688C84.9164 17.688 85.3831 17.5713 85.7937 17.338C86.2137 17.0953 86.5404 16.7593 86.7737 16.33C87.0164 15.8913 87.1377 15.3873 87.1377 14.818C87.1377 14.2393 87.0164 13.7353 86.7737 13.306C86.5404 12.8767 86.2137 12.5453 85.7937 12.312C85.3831 12.0693 84.9164 11.948 84.3937 11.948C83.8804 11.948 83.4184 12.0693 83.0077 12.312C82.5971 12.5453 82.2704 12.8767 82.0277 13.306C81.7851 13.7353 81.6637 14.2393 81.6637 14.818C81.6637 15.3873 81.7851 15.8913 82.0277 16.33C82.2704 16.7593 82.5971 17.0953 83.0077 17.338C83.4184 17.5713 83.8804 17.688 84.3937 17.688ZM87.1657 18.5V16.288L87.2637 14.804L87.1237 13.32V8.112H88.1177V18.5H87.1657Z" fill="#05A753"/>
<rect x="99.5" y="3" width="20" height="20" rx="10" fill="#05A753"/>
<path d="M103.499 13L107.501 17L115.501 9" stroke="white" stroke-width="1.5" stroke-linecap="round" stroke-linejoin="round"/>
</svg>
