<svg width="17" height="16" viewBox="0 0 17 16" fill="none" xmlns="http://www.w3.org/2000/svg">
<path fill-rule="evenodd" clip-rule="evenodd" d="M3.15261 6.05439H8.80416C9.55143 6.05439 10.1587 6.59267 10.1587 7.23446V12.2649C10.1587 12.9067 9.55147 13.445 8.80416 13.445H3.15261C2.42865 13.445 1.82139 12.9067 1.82139 12.2649V7.23446C1.82139 6.5927 2.42862 6.05439 3.15261 6.05439ZM7.58978 2.12106H13.2646C13.9886 2.12106 14.5959 2.65934 14.5959 3.30113V8.31094C14.5959 8.97336 13.9886 9.51167 13.2646 9.51167H11.9334V7.23449C11.9334 6.48925 11.5831 5.80603 11.0226 5.30922V5.28855H10.9993C10.4389 4.79173 9.66809 4.48118 8.80411 4.48118H6.25859V3.30112C6.25859 2.65936 6.86581 2.12106 7.58981 2.12106L7.58978 2.12106ZM11.9337 11.0849H13.2649C14.1056 11.0849 14.8763 10.7743 15.4368 10.2775L15.4601 10.2568C16.0206 9.76003 16.3709 9.07678 16.3709 8.3109V3.30109C16.3709 2.55585 16.0206 1.87264 15.4601 1.35515H15.4368C14.8763 0.858336 14.1056 0.547791 13.2649 0.547791H7.59006C6.74936 0.547791 5.97863 0.858336 5.41818 1.35515H5.39486C4.8344 1.85197 4.48408 2.55588 4.48408 3.30109V4.48115H3.15286C2.31215 4.48115 1.54143 4.7917 0.957656 5.28851C0.3972 5.806 0.046875 6.48924 0.046875 7.23445V12.2649C0.046875 13.0102 0.3972 13.6934 0.957656 14.1902V14.2109C1.51811 14.7077 2.31219 15.0182 3.15286 15.0182H8.8044C9.66841 15.0182 10.4391 14.7077 10.9996 14.2109L11.0229 14.1902C11.5834 13.6934 11.9337 13.0101 11.9337 12.2649V11.0849Z" fill="white"/>
</svg>
