<svg width="169" height="76" viewBox="0 0 169 76" fill="none" xmlns="http://www.w3.org/2000/svg">
<rect x="0.5" y="0.5" width="168" height="75" rx="7.5" fill="white"/>
<path d="M40.2667 33.9584C39.9917 36.1751 38.175 37.9917 35.9584 38.2667C34.6167 38.4334 33.3667 38.0667 32.3917 37.3501C31.8334 36.9417 31.9667 36.0751 32.6334 35.8751C35.1417 35.1167 37.1167 33.1334 37.8834 30.6251C38.0834 29.9667 38.95 29.8334 39.3584 30.3834C40.0667 31.3667 40.4334 32.6167 40.2667 33.9584Z" fill="#3063E9"/>
<path d="M23.6665 28.3251C23.6665 24.6501 26.6498 21.6667 30.3248 21.6667C33.9998 21.6667 36.9748 24.6501 36.9832 28.3251C36.9832 32.0001 33.9998 34.9834 30.3248 34.9834C26.6498 34.9834 23.6665 32.0001 23.6665 28.3251Z" fill="#3063E9"/>
<path fill-rule="evenodd" clip-rule="evenodd" d="M33.787 27.1301C33.9344 26.1377 33.1843 25.6042 32.1586 25.2483L32.4913 23.904L31.6789 23.7001L31.355 25.009C31.1414 24.9554 30.9221 24.9048 30.7041 24.8547L31.0304 23.5372L30.2185 23.3333L29.8855 24.6771C29.7088 24.6365 29.5352 24.5965 29.3668 24.5543L29.3677 24.5501L28.2474 24.2683L28.0313 25.1423C28.0313 25.1423 28.634 25.2814 28.6213 25.2901C28.9503 25.3728 29.0098 25.5921 28.9998 25.766L28.6208 27.2974C28.6435 27.3033 28.6729 27.3117 28.7053 27.3247L28.6778 27.3178C28.6589 27.313 28.6394 27.3081 28.6194 27.3033L28.0882 29.4486C28.0479 29.5493 27.9459 29.7003 27.7159 29.643C27.724 29.6549 27.1255 29.4945 27.1255 29.4945L26.7222 30.4312L27.7793 30.6967C27.8974 30.7265 28.014 30.7571 28.1294 30.7874C28.2063 30.8076 28.2826 30.8277 28.3585 30.8472L28.0223 32.2069L28.8337 32.4109L29.1667 31.0656C29.3883 31.1262 29.6035 31.1821 29.814 31.2348L29.4822 32.5738L30.2946 32.7777L30.6308 31.4206C32.016 31.6846 33.0577 31.5781 33.4961 30.3161C33.8495 29.2999 33.4786 28.7138 32.7497 28.3315C33.2805 28.2082 33.6803 27.8566 33.787 27.1301ZM31.9309 29.7518C31.7006 30.6841 30.2519 30.2987 29.589 30.1223L29.589 30.1223C29.5294 30.1065 29.4761 30.0923 29.4307 30.0809L29.8767 28.2796C29.9321 28.2935 29.9997 28.3088 30.0763 28.3261C30.7619 28.481 32.1669 28.7986 31.9309 29.7518ZM30.2141 27.4901C30.7667 27.6387 31.9722 27.9627 32.1822 27.1154C32.3966 26.2487 31.225 25.9874 30.6528 25.8598C30.5884 25.8455 30.5316 25.8328 30.4853 25.8212L30.0808 27.455C30.119 27.4646 30.1638 27.4766 30.2141 27.4901Z" fill="white"/>
<path d="M14.268 56.084C13.5307 56.084 12.8493 55.9627 12.224 55.72C11.5987 55.468 11.0573 55.118 10.6 54.67C10.1427 54.222 9.78335 53.6947 9.52202 53.088C9.27002 52.4813 9.14402 51.8187 9.14402 51.1C9.14402 50.3813 9.27002 49.7187 9.52202 49.112C9.78335 48.5053 10.1427 47.978 10.6 47.53C11.0667 47.082 11.6127 46.7367 12.238 46.494C12.8633 46.242 13.5447 46.116 14.282 46.116C14.9913 46.116 15.6587 46.2373 16.284 46.48C16.9093 46.7133 17.4367 47.068 17.866 47.544L17.208 48.202C16.8067 47.7913 16.3633 47.4973 15.878 47.32C15.3927 47.1333 14.87 47.04 14.31 47.04C13.722 47.04 13.176 47.1427 12.672 47.348C12.168 47.544 11.7293 47.8287 11.356 48.202C10.9827 48.566 10.6887 48.9953 10.474 49.49C10.2687 49.9753 10.166 50.512 10.166 51.1C10.166 51.688 10.2687 52.2293 10.474 52.724C10.6887 53.2093 10.9827 53.6387 11.356 54.012C11.7293 54.376 12.168 54.6607 12.672 54.866C13.176 55.062 13.722 55.16 14.31 55.16C14.87 55.16 15.3927 55.0667 15.878 54.88C16.3633 54.6933 16.8067 54.3947 17.208 53.984L17.866 54.642C17.4367 55.118 16.9093 55.4773 16.284 55.72C15.6587 55.9627 14.9867 56.084 14.268 56.084ZM19.8645 56V48.65H20.8165V50.652L20.7185 50.302C20.9238 49.742 21.2692 49.3173 21.7545 49.028C22.2398 48.7293 22.8418 48.58 23.5605 48.58V49.546C23.5232 49.546 23.4858 49.546 23.4485 49.546C23.4112 49.5367 23.3738 49.532 23.3365 49.532C22.5618 49.532 21.9552 49.77 21.5165 50.246C21.0778 50.7127 20.8585 51.38 20.8585 52.248V56H19.8645ZM25.7447 58.786C25.3994 58.786 25.0681 58.73 24.7507 58.618C24.4427 58.506 24.1767 58.338 23.9527 58.114L24.4147 57.372C24.6014 57.5493 24.8021 57.6847 25.0167 57.778C25.2407 57.8807 25.4881 57.932 25.7587 57.932C26.0854 57.932 26.3654 57.8387 26.5987 57.652C26.8414 57.4747 27.0701 57.1573 27.2847 56.7L27.7607 55.622L27.8727 55.468L30.8967 48.65H31.8767L28.1947 56.882C27.9894 57.358 27.7607 57.736 27.5087 58.016C27.2661 58.296 27.0001 58.492 26.7107 58.604C26.4214 58.7253 26.0994 58.786 25.7447 58.786ZM27.7047 56.21L24.3167 48.65H25.3527L28.3487 55.398L27.7047 56.21ZM37.0706 56.07C36.436 56.07 35.862 55.9253 35.3486 55.636C34.8353 55.3373 34.4246 54.9127 34.1166 54.362C33.818 53.802 33.6686 53.1207 33.6686 52.318C33.6686 51.5153 33.818 50.8387 34.1166 50.288C34.4153 49.728 34.8213 49.3033 35.3346 49.014C35.848 48.7247 36.4266 48.58 37.0706 48.58C37.7706 48.58 38.396 48.7387 38.9466 49.056C39.5066 49.364 39.9453 49.8027 40.2626 50.372C40.58 50.932 40.7386 51.5807 40.7386 52.318C40.7386 53.0647 40.58 53.718 40.2626 54.278C39.9453 54.838 39.5066 55.2767 38.9466 55.594C38.396 55.9113 37.7706 56.07 37.0706 56.07ZM33.2766 58.716V48.65H34.2286V50.862L34.1306 52.332L34.2706 53.816V58.716H33.2766ZM37.0006 55.188C37.5233 55.188 37.99 55.0713 38.4006 54.838C38.8113 54.5953 39.138 54.2593 39.3806 53.83C39.6233 53.3913 39.7446 52.8873 39.7446 52.318C39.7446 51.7487 39.6233 51.2493 39.3806 50.82C39.138 50.3907 38.8113 50.0547 38.4006 49.812C37.99 49.5693 37.5233 49.448 37.0006 49.448C36.478 49.448 36.0066 49.5693 35.5866 49.812C35.176 50.0547 34.8493 50.3907 34.6066 50.82C34.3733 51.2493 34.2566 51.7487 34.2566 52.318C34.2566 52.8873 34.3733 53.3913 34.6066 53.83C34.8493 54.2593 35.176 54.5953 35.5866 54.838C36.0066 55.0713 36.478 55.188 37.0006 55.188ZM45.0889 56.07C44.3982 56.07 43.8662 55.8833 43.4929 55.51C43.1196 55.1367 42.9329 54.6093 42.9329 53.928V47.026H43.9269V53.872C43.9269 54.3013 44.0342 54.6327 44.2489 54.866C44.4729 55.0993 44.7902 55.216 45.2009 55.216C45.6396 55.216 46.0036 55.09 46.2929 54.838L46.6429 55.552C46.4469 55.7293 46.2089 55.86 45.9289 55.944C45.6582 56.028 45.3782 56.07 45.0889 56.07ZM41.6169 49.476V48.65H46.1669V49.476H41.6169ZM51.1886 56.07C50.4793 56.07 49.84 55.9113 49.2706 55.594C48.7106 55.2673 48.2673 54.824 47.9406 54.264C47.614 53.6947 47.4506 53.046 47.4506 52.318C47.4506 51.5807 47.614 50.932 47.9406 50.372C48.2673 49.812 48.7106 49.3733 49.2706 49.056C49.8306 48.7387 50.47 48.58 51.1886 48.58C51.9166 48.58 52.5606 48.7387 53.1206 49.056C53.69 49.3733 54.1333 49.812 54.4506 50.372C54.7773 50.932 54.9406 51.5807 54.9406 52.318C54.9406 53.046 54.7773 53.6947 54.4506 54.264C54.1333 54.824 53.69 55.2673 53.1206 55.594C52.5513 55.9113 51.9073 56.07 51.1886 56.07ZM51.1886 55.188C51.7206 55.188 52.192 55.0713 52.6026 54.838C53.0133 54.5953 53.3353 54.2593 53.5686 53.83C53.8113 53.3913 53.9326 52.8873 53.9326 52.318C53.9326 51.7393 53.8113 51.2353 53.5686 50.806C53.3353 50.3767 53.0133 50.0453 52.6026 49.812C52.192 49.5693 51.7253 49.448 51.2026 49.448C50.68 49.448 50.2133 49.5693 49.8026 49.812C49.392 50.0453 49.0653 50.3767 48.8226 50.806C48.58 51.2353 48.4586 51.7393 48.4586 52.318C48.4586 52.8873 48.58 53.3913 48.8226 53.83C49.0653 54.2593 49.392 54.5953 49.8026 54.838C50.2133 55.0713 50.6753 55.188 51.1886 55.188Z" fill="#202020"/>
<path d="M64 38L69 40.8868V35.1132L64 38ZM105 38L100 35.1132V40.8868L105 38ZM68.5 38.5H100.5V37.5H68.5V38.5Z" fill="#3063E9"/>
<path d="M145.267 33.9584C144.992 36.1751 143.175 37.9917 140.958 38.2667C139.617 38.4334 138.367 38.0667 137.392 37.3501C136.833 36.9417 136.967 36.0751 137.633 35.8751C140.142 35.1167 142.117 33.1334 142.883 30.6251C143.083 29.9667 143.95 29.8334 144.358 30.3834C145.067 31.3667 145.433 32.6167 145.267 33.9584Z" fill="#3063E9"/>
<path d="M128.667 28.3251C128.667 24.6501 131.65 21.6667 135.325 21.6667C139 21.6667 141.975 24.6501 141.983 28.3251C141.983 32.0001 139 34.9834 135.325 34.9834C131.65 34.9834 128.667 32.0001 128.667 28.3251Z" fill="#3063E9"/>
<path fill-rule="evenodd" clip-rule="evenodd" d="M138.787 27.1301C138.934 26.1377 138.184 25.6042 137.159 25.2483L137.491 23.904L136.679 23.7001L136.355 25.009C136.141 24.9554 135.922 24.9048 135.704 24.8547L136.03 23.5372L135.218 23.3333L134.886 24.6771C134.709 24.6365 134.535 24.5965 134.367 24.5543L134.368 24.5501L133.247 24.2683L133.031 25.1423C133.031 25.1423 133.634 25.2814 133.621 25.2901C133.95 25.3728 134.01 25.5921 134 25.766L133.621 27.2974C133.644 27.3033 133.673 27.3117 133.705 27.3247L133.678 27.3178C133.659 27.313 133.639 27.3081 133.619 27.3033L133.088 29.4486C133.048 29.5493 132.946 29.7003 132.716 29.643C132.724 29.6549 132.125 29.4945 132.125 29.4945L131.722 30.4312L132.779 30.6967C132.897 30.7265 133.014 30.7571 133.129 30.7874C133.206 30.8076 133.283 30.8277 133.358 30.8472L133.022 32.2069L133.834 32.4109L134.167 31.0656C134.388 31.1262 134.603 31.1821 134.814 31.2348L134.482 32.5738L135.295 32.7777L135.631 31.4206C137.016 31.6846 138.058 31.5781 138.496 30.3161C138.849 29.2999 138.479 28.7138 137.75 28.3315C138.281 28.2082 138.68 27.8566 138.787 27.1301ZM136.931 29.7518C136.701 30.6841 135.252 30.2987 134.589 30.1223L134.589 30.1223C134.529 30.1065 134.476 30.0923 134.431 30.0809L134.877 28.2796C134.932 28.2935 135 28.3088 135.076 28.3261C135.762 28.481 137.167 28.7986 136.931 29.7518ZM135.214 27.4901C135.767 27.6387 136.972 27.9627 137.182 27.1154C137.397 26.2487 136.225 25.9874 135.653 25.8598C135.588 25.8455 135.532 25.8328 135.485 25.8212L135.081 27.455C135.119 27.4646 135.164 27.4766 135.214 27.4901Z" fill="white"/>
<path d="M119.268 56.084C118.531 56.084 117.849 55.9627 117.224 55.72C116.599 55.468 116.057 55.118 115.6 54.67C115.143 54.222 114.783 53.6947 114.522 53.088C114.27 52.4813 114.144 51.8187 114.144 51.1C114.144 50.3813 114.27 49.7187 114.522 49.112C114.783 48.5053 115.143 47.978 115.6 47.53C116.067 47.082 116.613 46.7367 117.238 46.494C117.863 46.242 118.545 46.116 119.282 46.116C119.991 46.116 120.659 46.2373 121.284 46.48C121.909 46.7133 122.437 47.068 122.866 47.544L122.208 48.202C121.807 47.7913 121.363 47.4973 120.878 47.32C120.393 47.1333 119.87 47.04 119.31 47.04C118.722 47.04 118.176 47.1427 117.672 47.348C117.168 47.544 116.729 47.8287 116.356 48.202C115.983 48.566 115.689 48.9953 115.474 49.49C115.269 49.9753 115.166 50.512 115.166 51.1C115.166 51.688 115.269 52.2293 115.474 52.724C115.689 53.2093 115.983 53.6387 116.356 54.012C116.729 54.376 117.168 54.6607 117.672 54.866C118.176 55.062 118.722 55.16 119.31 55.16C119.87 55.16 120.393 55.0667 120.878 54.88C121.363 54.6933 121.807 54.3947 122.208 53.984L122.866 54.642C122.437 55.118 121.909 55.4773 121.284 55.72C120.659 55.9627 119.987 56.084 119.268 56.084ZM124.865 56V48.65H125.817V50.652L125.719 50.302C125.924 49.742 126.269 49.3173 126.755 49.028C127.24 48.7293 127.842 48.58 128.561 48.58V49.546C128.523 49.546 128.486 49.546 128.449 49.546C128.411 49.5367 128.374 49.532 128.337 49.532C127.562 49.532 126.955 49.77 126.517 50.246C126.078 50.7127 125.859 51.38 125.859 52.248V56H124.865ZM130.745 58.786C130.399 58.786 130.068 58.73 129.751 58.618C129.443 58.506 129.177 58.338 128.953 58.114L129.415 57.372C129.601 57.5493 129.802 57.6847 130.017 57.778C130.241 57.8807 130.488 57.932 130.759 57.932C131.085 57.932 131.365 57.8387 131.599 57.652C131.841 57.4747 132.07 57.1573 132.285 56.7L132.761 55.622L132.873 55.468L135.897 48.65H136.877L133.195 56.882C132.989 57.358 132.761 57.736 132.509 58.016C132.266 58.296 132 58.492 131.711 58.604C131.421 58.7253 131.099 58.786 130.745 58.786ZM132.705 56.21L129.317 48.65H130.353L133.349 55.398L132.705 56.21ZM142.071 56.07C141.436 56.07 140.862 55.9253 140.349 55.636C139.835 55.3373 139.425 54.9127 139.117 54.362C138.818 53.802 138.669 53.1207 138.669 52.318C138.669 51.5153 138.818 50.8387 139.117 50.288C139.415 49.728 139.821 49.3033 140.335 49.014C140.848 48.7247 141.427 48.58 142.071 48.58C142.771 48.58 143.396 48.7387 143.947 49.056C144.507 49.364 144.945 49.8027 145.263 50.372C145.58 50.932 145.739 51.5807 145.739 52.318C145.739 53.0647 145.58 53.718 145.263 54.278C144.945 54.838 144.507 55.2767 143.947 55.594C143.396 55.9113 142.771 56.07 142.071 56.07ZM138.277 58.716V48.65H139.229V50.862L139.131 52.332L139.271 53.816V58.716H138.277ZM142.001 55.188C142.523 55.188 142.99 55.0713 143.401 54.838C143.811 54.5953 144.138 54.2593 144.381 53.83C144.623 53.3913 144.745 52.8873 144.745 52.318C144.745 51.7487 144.623 51.2493 144.381 50.82C144.138 50.3907 143.811 50.0547 143.401 49.812C142.99 49.5693 142.523 49.448 142.001 49.448C141.478 49.448 141.007 49.5693 140.587 49.812C140.176 50.0547 139.849 50.3907 139.607 50.82C139.373 51.2493 139.257 51.7487 139.257 52.318C139.257 52.8873 139.373 53.3913 139.607 53.83C139.849 54.2593 140.176 54.5953 140.587 54.838C141.007 55.0713 141.478 55.188 142.001 55.188ZM150.089 56.07C149.398 56.07 148.866 55.8833 148.493 55.51C148.12 55.1367 147.933 54.6093 147.933 53.928V47.026H148.927V53.872C148.927 54.3013 149.034 54.6327 149.249 54.866C149.473 55.0993 149.79 55.216 150.201 55.216C150.64 55.216 151.004 55.09 151.293 54.838L151.643 55.552C151.447 55.7293 151.209 55.86 150.929 55.944C150.658 56.028 150.378 56.07 150.089 56.07ZM146.617 49.476V48.65H151.167V49.476H146.617ZM156.189 56.07C155.479 56.07 154.84 55.9113 154.271 55.594C153.711 55.2673 153.267 54.824 152.941 54.264C152.614 53.6947 152.451 53.046 152.451 52.318C152.451 51.5807 152.614 50.932 152.941 50.372C153.267 49.812 153.711 49.3733 154.271 49.056C154.831 48.7387 155.47 48.58 156.189 48.58C156.917 48.58 157.561 48.7387 158.121 49.056C158.69 49.3733 159.133 49.812 159.451 50.372C159.777 50.932 159.941 51.5807 159.941 52.318C159.941 53.046 159.777 53.6947 159.451 54.264C159.133 54.824 158.69 55.2673 158.121 55.594C157.551 55.9113 156.907 56.07 156.189 56.07ZM156.189 55.188C156.721 55.188 157.192 55.0713 157.603 54.838C158.013 54.5953 158.335 54.2593 158.569 53.83C158.811 53.3913 158.933 52.8873 158.933 52.318C158.933 51.7393 158.811 51.2353 158.569 50.806C158.335 50.3767 158.013 50.0453 157.603 49.812C157.192 49.5693 156.725 49.448 156.203 49.448C155.68 49.448 155.213 49.5693 154.803 49.812C154.392 50.0453 154.065 50.3767 153.823 50.806C153.58 51.2353 153.459 51.7393 153.459 52.318C153.459 52.8873 153.58 53.3913 153.823 53.83C154.065 54.2593 154.392 54.5953 154.803 54.838C155.213 55.0713 155.675 55.188 156.189 55.188Z" fill="#202020"/>
<rect x="0.5" y="0.5" width="168" height="75" rx="7.5" stroke="#3063E9"/>
</svg>
