<svg width="550" height="80" viewBox="0 0 550 80" fill="none" xmlns="http://www.w3.org/2000/svg">
<rect x="1" y="0.5" width="548.5" height="79" rx="7.5" fill="white"/>
<path d="M60.4199 36.0522C60.0899 38.6014 57.9099 40.6906 55.2499 41.0068C53.6399 41.1985 52.1399 40.7768 50.9699 39.9527C50.2999 39.4831 50.4599 38.4864 51.2599 38.2564C54.2699 37.3843 56.6399 35.1035 57.5599 32.2189C57.7999 31.4618 58.8399 31.3085 59.3299 31.941C60.1799 33.0718 60.6199 34.5093 60.4199 36.0522Z" fill="#3063E9"/>
<path d="M40.5 29.5736C40.5 25.3473 44.08 21.9165 48.49 21.9165C52.9 21.9165 56.47 25.3473 56.48 29.5736C56.48 33.7998 52.9 37.2307 48.49 37.2307C44.08 37.2307 40.5 33.7998 40.5 29.5736Z" fill="#3063E9"/>
<path fill-rule="evenodd" clip-rule="evenodd" d="M52.6448 28.1999C52.8216 27.0586 51.9215 26.4451 50.6907 26.0358L51.0899 24.4899L50.1151 24.2554L49.7264 25.7606C49.4701 25.6989 49.2069 25.6408 48.9454 25.5832L49.3368 24.068L48.3626 23.8335L47.963 25.3789C47.7509 25.3323 47.5427 25.2862 47.3405 25.2377L47.3416 25.2328L45.9973 24.9088L45.7379 25.9139C45.7379 25.9139 46.4612 26.0739 46.4459 26.0838C46.8408 26.179 46.9121 26.4312 46.9002 26.6311L46.4454 28.3923C46.4726 28.399 46.5079 28.4087 46.5467 28.4237L46.5137 28.4157L46.5136 28.4157C46.491 28.4102 46.4676 28.4045 46.4437 28.399L45.8062 30.8662C45.7579 30.9819 45.6355 31.1556 45.3595 31.0897C45.3692 31.1034 44.6509 30.919 44.6509 30.919L44.167 31.9961L45.4356 32.3014C45.5772 32.3357 45.7171 32.3709 45.8556 32.4058L45.8557 32.4058C45.948 32.429 46.0395 32.4521 46.1305 32.4746L45.7271 34.0382L46.7008 34.2727L47.1004 32.7257C47.3664 32.7954 47.6246 32.8597 47.8772 32.9203L47.4791 34.4601L48.4539 34.6946L48.8573 33.1339C50.5196 33.4376 51.7696 33.3151 52.2958 31.8637C52.7197 30.6952 52.2747 30.0211 51.4001 29.5815C52.037 29.4397 52.5168 29.0353 52.6448 28.1999ZM50.4175 31.2149C50.1411 32.287 48.4026 31.8437 47.6072 31.6409C47.5357 31.6227 47.4717 31.6064 47.4172 31.5933L47.9525 29.5218C48.0189 29.5378 48.1001 29.5553 48.192 29.5753L48.192 29.5753C49.0147 29.7535 50.7007 30.1187 50.4175 31.2149ZM48.3573 28.6139C49.0205 28.7847 50.467 29.1574 50.719 28.1829C50.9763 27.1863 49.5704 26.8858 48.8837 26.7391C48.8065 26.7226 48.7383 26.708 48.6827 26.6946L48.1974 28.5735C48.2432 28.5845 48.297 28.5983 48.3573 28.6139Z" fill="white"/>
<path d="M30.2349 60.096C29.3922 60.096 28.6135 59.9573 27.8989 59.68C27.1842 59.392 26.5655 58.992 26.0429 58.48C25.5202 57.968 25.1095 57.3653 24.8109 56.672C24.5229 55.9787 24.3789 55.2213 24.3789 54.4C24.3789 53.5787 24.5229 52.8213 24.8109 52.128C25.1095 51.4347 25.5202 50.832 26.0429 50.32C26.5762 49.808 27.2002 49.4133 27.9149 49.136C28.6295 48.848 29.4082 48.704 30.2509 48.704C31.0615 48.704 31.8242 48.8427 32.5389 49.12C33.2535 49.3867 33.8562 49.792 34.3469 50.336L33.5949 51.088C33.1362 50.6187 32.6295 50.2827 32.0749 50.08C31.5202 49.8667 30.9229 49.76 30.2829 49.76C29.6109 49.76 28.9869 49.8773 28.4109 50.112C27.8349 50.336 27.3335 50.6613 26.9069 51.088C26.4802 51.504 26.1442 51.9947 25.8989 52.56C25.6642 53.1147 25.5469 53.728 25.5469 54.4C25.5469 55.072 25.6642 55.6907 25.8989 56.256C26.1442 56.8107 26.4802 57.3013 26.9069 57.728C27.3335 58.144 27.8349 58.4693 28.4109 58.704C28.9869 58.928 29.6109 59.04 30.2829 59.04C30.9229 59.04 31.5202 58.9333 32.0749 58.72C32.6295 58.5067 33.1362 58.1653 33.5949 57.696L34.3469 58.448C33.8562 58.992 33.2535 59.4027 32.5389 59.68C31.8242 59.9573 31.0562 60.096 30.2349 60.096ZM36.6309 60V51.6H37.7189V53.888L37.6069 53.488C37.8415 52.848 38.2362 52.3627 38.7909 52.032C39.3455 51.6907 40.0335 51.52 40.8549 51.52V52.624C40.8122 52.624 40.7695 52.624 40.7269 52.624C40.6842 52.6133 40.6415 52.608 40.5989 52.608C39.7135 52.608 39.0202 52.88 38.5189 53.424C38.0175 53.9573 37.7669 54.72 37.7669 55.712V60H36.6309ZM43.3511 63.184C42.9565 63.184 42.5778 63.12 42.2151 62.992C41.8631 62.864 41.5591 62.672 41.3031 62.416L41.8311 61.568C42.0445 61.7707 42.2738 61.9253 42.5191 62.032C42.7751 62.1493 43.0578 62.208 43.3671 62.208C43.7405 62.208 44.0605 62.1013 44.3271 61.888C44.6045 61.6853 44.8658 61.3227 45.1111 60.8L45.6551 59.568L45.7831 59.392L49.2391 51.6H50.3591L46.1511 61.008C45.9165 61.552 45.6551 61.984 45.3671 62.304C45.0898 62.624 44.7858 62.848 44.4551 62.976C44.1245 63.1147 43.7565 63.184 43.3511 63.184ZM45.5911 60.24L41.7191 51.6H42.9031L46.3271 59.312L45.5911 60.24ZM56.295 60.08C55.5697 60.08 54.9137 59.9147 54.327 59.584C53.7403 59.2427 53.271 58.7573 52.919 58.128C52.5777 57.488 52.407 56.7093 52.407 55.792C52.407 54.8747 52.5777 54.1013 52.919 53.472C53.2603 52.832 53.7243 52.3467 54.311 52.016C54.8977 51.6853 55.559 51.52 56.295 51.52C57.095 51.52 57.8097 51.7013 58.439 52.064C59.079 52.416 59.5803 52.9173 59.943 53.568C60.3057 54.208 60.487 54.9493 60.487 55.792C60.487 56.6453 60.3057 57.392 59.943 58.032C59.5803 58.672 59.079 59.1733 58.439 59.536C57.8097 59.8987 57.095 60.08 56.295 60.08ZM51.959 63.104V51.6H53.047V54.128L52.935 55.808L53.095 57.504V63.104H51.959ZM56.215 59.072C56.8123 59.072 57.3457 58.9387 57.815 58.672C58.2843 58.3947 58.6577 58.0107 58.935 57.52C59.2123 57.0187 59.351 56.4427 59.351 55.792C59.351 55.1413 59.2123 54.5707 58.935 54.08C58.6577 53.5893 58.2843 53.2053 57.815 52.928C57.3457 52.6507 56.8123 52.512 56.215 52.512C55.6177 52.512 55.079 52.6507 54.599 52.928C54.1297 53.2053 53.7563 53.5893 53.479 54.08C53.2123 54.5707 53.079 55.1413 53.079 55.792C53.079 56.4427 53.2123 57.0187 53.479 57.52C53.7563 58.0107 54.1297 58.3947 54.599 58.672C55.079 58.9387 55.6177 59.072 56.215 59.072ZM65.4588 60.08C64.6694 60.08 64.0614 59.8667 63.6348 59.44C63.2081 59.0133 62.9948 58.4107 62.9948 57.632V49.744H64.1308V57.568C64.1308 58.0587 64.2534 58.4373 64.4988 58.704C64.7548 58.9707 65.1174 59.104 65.5868 59.104C66.0881 59.104 66.5041 58.96 66.8348 58.672L67.2348 59.488C67.0108 59.6907 66.7388 59.84 66.4188 59.936C66.1094 60.032 65.7894 60.08 65.4588 60.08ZM61.4908 52.544V51.6H66.6908V52.544H61.4908ZM72.4299 60.08C71.6192 60.08 70.8885 59.8987 70.2379 59.536C69.5979 59.1627 69.0912 58.656 68.7179 58.016C68.3445 57.3653 68.1579 56.624 68.1579 55.792C68.1579 54.9493 68.3445 54.208 68.7179 53.568C69.0912 52.928 69.5979 52.4267 70.2379 52.064C70.8779 51.7013 71.6085 51.52 72.4299 51.52C73.2619 51.52 73.9979 51.7013 74.6379 52.064C75.2885 52.4267 75.7952 52.928 76.1579 53.568C76.5312 54.208 76.7179 54.9493 76.7179 55.792C76.7179 56.624 76.5312 57.3653 76.1579 58.016C75.7952 58.656 75.2885 59.1627 74.6379 59.536C73.9872 59.8987 73.2512 60.08 72.4299 60.08ZM72.4299 59.072C73.0379 59.072 73.5765 58.9387 74.0459 58.672C74.5152 58.3947 74.8832 58.0107 75.1499 57.52C75.4272 57.0187 75.5659 56.4427 75.5659 55.792C75.5659 55.1307 75.4272 54.5547 75.1499 54.064C74.8832 53.5733 74.5152 53.1947 74.0459 52.928C73.5765 52.6507 73.0432 52.512 72.4459 52.512C71.8485 52.512 71.3152 52.6507 70.8459 52.928C70.3765 53.1947 70.0032 53.5733 69.7259 54.064C69.4485 54.5547 69.3099 55.1307 69.3099 55.792C69.3099 56.4427 69.4485 57.0187 69.7259 57.52C70.0032 58.0107 70.3765 58.3947 70.8459 58.672C71.3152 58.9387 71.8432 59.072 72.4299 59.072Z" fill="#202020"/>
<path d="M92.5 40L97.5 42.8868V37.1132L92.5 40ZM458 40L453 37.1132V42.8868L458 40ZM97 40.5H453.5V39.5H97V40.5Z" fill="#E8E8F3"/>
<path d="M509.92 36.0522C509.59 38.6014 507.41 40.6906 504.75 41.0068C503.14 41.1985 501.64 40.7768 500.47 39.9527C499.8 39.4831 499.96 38.4864 500.76 38.2564C503.77 37.3843 506.14 35.1035 507.06 32.2189C507.3 31.4618 508.34 31.3085 508.83 31.941C509.68 33.0718 510.12 34.5093 509.92 36.0522Z" fill="#3063E9"/>
<path d="M490 29.5736C490 25.3473 493.58 21.9165 497.99 21.9165C502.4 21.9165 505.97 25.3473 505.98 29.5736C505.98 33.7998 502.4 37.2307 497.99 37.2307C493.58 37.2307 490 33.7998 490 29.5736Z" fill="#3063E9"/>
<path fill-rule="evenodd" clip-rule="evenodd" d="M502.145 28.1999C502.322 27.0586 501.421 26.4451 500.191 26.0358L500.59 24.4899L499.615 24.2554L499.226 25.7606C498.97 25.6989 498.707 25.6408 498.445 25.5832L498.837 24.068L497.863 23.8335L497.463 25.3789C497.251 25.3323 497.043 25.2862 496.841 25.2377L496.842 25.2328L495.497 24.9088L495.238 25.9139C495.238 25.9139 495.961 26.0739 495.946 26.0838C496.341 26.179 496.412 26.4312 496.4 26.6311L495.945 28.3923C495.973 28.399 496.008 28.4087 496.047 28.4237L496.014 28.4157L496.014 28.4157C495.991 28.4102 495.968 28.4045 495.944 28.399L495.306 30.8662C495.258 30.9819 495.135 31.1556 494.86 31.0897C494.869 31.1034 494.151 30.919 494.151 30.919L493.667 31.9961L494.936 32.3014C495.077 32.3357 495.217 32.3709 495.356 32.4058L495.356 32.4058C495.448 32.429 495.54 32.4521 495.631 32.4746L495.227 34.0382L496.201 34.2727L496.6 32.7257C496.866 32.7954 497.125 32.8597 497.377 32.9203L496.979 34.4601L497.954 34.6946L498.357 33.1339C500.02 33.4376 501.27 33.3151 501.796 31.8637C502.22 30.6952 501.775 30.0211 500.9 29.5815C501.537 29.4397 502.017 29.0353 502.145 28.1999ZM499.917 31.2149C499.641 32.287 497.903 31.8437 497.107 31.6409C497.036 31.6227 496.972 31.6064 496.917 31.5933L497.452 29.5218C497.519 29.5378 497.6 29.5553 497.692 29.5753L497.692 29.5753C498.515 29.7535 500.201 30.1187 499.917 31.2149ZM497.857 28.6139C498.52 28.7847 499.967 29.1574 500.219 28.1829C500.476 27.1863 499.07 26.8858 498.384 26.7391C498.306 26.7226 498.238 26.708 498.183 26.6946L497.697 28.5735C497.743 28.5845 497.797 28.5983 497.857 28.6139Z" fill="white"/>
<path d="M479.735 60.096C478.892 60.096 478.114 59.9573 477.399 59.68C476.684 59.392 476.066 58.992 475.543 58.48C475.02 57.968 474.61 57.3653 474.311 56.672C474.023 55.9787 473.879 55.2213 473.879 54.4C473.879 53.5787 474.023 52.8213 474.311 52.128C474.61 51.4347 475.02 50.832 475.543 50.32C476.076 49.808 476.7 49.4133 477.415 49.136C478.13 48.848 478.908 48.704 479.751 48.704C480.562 48.704 481.324 48.8427 482.039 49.12C482.754 49.3867 483.356 49.792 483.847 50.336L483.095 51.088C482.636 50.6187 482.13 50.2827 481.575 50.08C481.02 49.8667 480.423 49.76 479.783 49.76C479.111 49.76 478.487 49.8773 477.911 50.112C477.335 50.336 476.834 50.6613 476.407 51.088C475.98 51.504 475.644 51.9947 475.399 52.56C475.164 53.1147 475.047 53.728 475.047 54.4C475.047 55.072 475.164 55.6907 475.399 56.256C475.644 56.8107 475.98 57.3013 476.407 57.728C476.834 58.144 477.335 58.4693 477.911 58.704C478.487 58.928 479.111 59.04 479.783 59.04C480.423 59.04 481.02 58.9333 481.575 58.72C482.13 58.5067 482.636 58.1653 483.095 57.696L483.847 58.448C483.356 58.992 482.754 59.4027 482.039 59.68C481.324 59.9573 480.556 60.096 479.735 60.096ZM486.131 60V51.6H487.219V53.888L487.107 53.488C487.342 52.848 487.736 52.3627 488.291 52.032C488.846 51.6907 489.534 51.52 490.355 51.52V52.624C490.312 52.624 490.27 52.624 490.227 52.624C490.184 52.6133 490.142 52.608 490.099 52.608C489.214 52.608 488.52 52.88 488.019 53.424C487.518 53.9573 487.267 54.72 487.267 55.712V60H486.131ZM492.851 63.184C492.456 63.184 492.078 63.12 491.715 62.992C491.363 62.864 491.059 62.672 490.803 62.416L491.331 61.568C491.544 61.7707 491.774 61.9253 492.019 62.032C492.275 62.1493 492.558 62.208 492.867 62.208C493.24 62.208 493.56 62.1013 493.827 61.888C494.104 61.6853 494.366 61.3227 494.611 60.8L495.155 59.568L495.283 59.392L498.739 51.6H499.859L495.651 61.008C495.416 61.552 495.155 61.984 494.867 62.304C494.59 62.624 494.286 62.848 493.955 62.976C493.624 63.1147 493.256 63.184 492.851 63.184ZM495.091 60.24L491.219 51.6H492.403L495.827 59.312L495.091 60.24ZM505.795 60.08C505.07 60.08 504.414 59.9147 503.827 59.584C503.24 59.2427 502.771 58.7573 502.419 58.128C502.078 57.488 501.907 56.7093 501.907 55.792C501.907 54.8747 502.078 54.1013 502.419 53.472C502.76 52.832 503.224 52.3467 503.811 52.016C504.398 51.6853 505.059 51.52 505.795 51.52C506.595 51.52 507.31 51.7013 507.939 52.064C508.579 52.416 509.08 52.9173 509.443 53.568C509.806 54.208 509.987 54.9493 509.987 55.792C509.987 56.6453 509.806 57.392 509.443 58.032C509.08 58.672 508.579 59.1733 507.939 59.536C507.31 59.8987 506.595 60.08 505.795 60.08ZM501.459 63.104V51.6H502.547V54.128L502.435 55.808L502.595 57.504V63.104H501.459ZM505.715 59.072C506.312 59.072 506.846 58.9387 507.315 58.672C507.784 58.3947 508.158 58.0107 508.435 57.52C508.712 57.0187 508.851 56.4427 508.851 55.792C508.851 55.1413 508.712 54.5707 508.435 54.08C508.158 53.5893 507.784 53.2053 507.315 52.928C506.846 52.6507 506.312 52.512 505.715 52.512C505.118 52.512 504.579 52.6507 504.099 52.928C503.63 53.2053 503.256 53.5893 502.979 54.08C502.712 54.5707 502.579 55.1413 502.579 55.792C502.579 56.4427 502.712 57.0187 502.979 57.52C503.256 58.0107 503.63 58.3947 504.099 58.672C504.579 58.9387 505.118 59.072 505.715 59.072ZM514.959 60.08C514.169 60.08 513.561 59.8667 513.135 59.44C512.708 59.0133 512.495 58.4107 512.495 57.632V49.744H513.631V57.568C513.631 58.0587 513.753 58.4373 513.999 58.704C514.255 58.9707 514.617 59.104 515.087 59.104C515.588 59.104 516.004 58.96 516.335 58.672L516.735 59.488C516.511 59.6907 516.239 59.84 515.919 59.936C515.609 60.032 515.289 60.08 514.959 60.08ZM510.991 52.544V51.6H516.191V52.544H510.991ZM521.93 60.08C521.119 60.08 520.389 59.8987 519.738 59.536C519.098 59.1627 518.591 58.656 518.218 58.016C517.845 57.3653 517.658 56.624 517.658 55.792C517.658 54.9493 517.845 54.208 518.218 53.568C518.591 52.928 519.098 52.4267 519.738 52.064C520.378 51.7013 521.109 51.52 521.93 51.52C522.762 51.52 523.498 51.7013 524.138 52.064C524.789 52.4267 525.295 52.928 525.658 53.568C526.031 54.208 526.218 54.9493 526.218 55.792C526.218 56.624 526.031 57.3653 525.658 58.016C525.295 58.656 524.789 59.1627 524.138 59.536C523.487 59.8987 522.751 60.08 521.93 60.08ZM521.93 59.072C522.538 59.072 523.077 58.9387 523.546 58.672C524.015 58.3947 524.383 58.0107 524.65 57.52C524.927 57.0187 525.066 56.4427 525.066 55.792C525.066 55.1307 524.927 54.5547 524.65 54.064C524.383 53.5733 524.015 53.1947 523.546 52.928C523.077 52.6507 522.543 52.512 521.946 52.512C521.349 52.512 520.815 52.6507 520.346 52.928C519.877 53.1947 519.503 53.5733 519.226 54.064C518.949 54.5547 518.81 55.1307 518.81 55.792C518.81 56.4427 518.949 57.0187 519.226 57.52C519.503 58.0107 519.877 58.3947 520.346 58.672C520.815 58.9387 521.343 59.072 521.93 59.072Z" fill="#202020"/>
<rect x="1" y="0.5" width="548.5" height="79" rx="7.5" stroke="#E8E8F3"/>
</svg>
