<svg width="24" height="25" viewBox="0 0 24 25" fill="none" xmlns="http://www.w3.org/2000/svg">
<path fill-rule="evenodd" clip-rule="evenodd" d="M3 6.6665C3 4.04129 3.02811 3.1665 6.5 3.1665C9.97189 3.1665 10 4.04129 10 6.6665C10 9.29172 10.0111 10.1665 6.5 10.1665C2.98893 10.1665 3 9.29172 3 6.6665Z" stroke="#3063E9" stroke-width="1.5" stroke-linecap="round" stroke-linejoin="round"/>
<path fill-rule="evenodd" clip-rule="evenodd" d="M14 6.6665C14 4.04129 14.0281 3.1665 17.5 3.1665C20.9719 3.1665 21 4.04129 21 6.6665C21 9.29172 21.0111 10.1665 17.5 10.1665C13.9889 10.1665 14 9.29172 14 6.6665Z" stroke="#3063E9" stroke-width="1.5" stroke-linecap="round" stroke-linejoin="round"/>
<path fill-rule="evenodd" clip-rule="evenodd" d="M3 17.6665C3 15.0413 3.02811 14.1665 6.5 14.1665C9.97189 14.1665 10 15.0413 10 17.6665C10 20.2917 10.0111 21.1665 6.5 21.1665C2.98893 21.1665 3 20.2917 3 17.6665Z" stroke="#3063E9" stroke-width="1.5" stroke-linecap="round" stroke-linejoin="round"/>
<path fill-rule="evenodd" clip-rule="evenodd" d="M14 17.6665C14 15.0413 14.0281 14.1665 17.5 14.1665C20.9719 14.1665 21 15.0413 21 17.6665C21 20.2917 21.0111 21.1665 17.5 21.1665C13.9889 21.1665 14 20.2917 14 17.6665Z" stroke="#3063E9" stroke-width="1.5" stroke-linecap="round" stroke-linejoin="round"/>
</svg>
