<svg width="73" height="20" viewBox="0 0 73 20" fill="none" xmlns="http://www.w3.org/2000/svg">
<path fill-rule="evenodd" clip-rule="evenodd" d="M12.2815 2.30129H6.73734C5.004 2.29463 3.58317 3.67629 3.54234 5.40879V14.3363C3.504 16.0971 4.89984 17.5563 6.66067 17.5955C6.6865 17.5955 6.7115 17.5963 6.73734 17.5955H13.3948C15.1398 17.5246 16.5148 16.083 16.5023 14.3363V6.69796L12.2815 2.30129Z" stroke="#3063E9" stroke-width="1.5" stroke-linecap="round" stroke-linejoin="round"/>
<path d="M12.0626 2.2915V4.71567C12.0626 5.899 13.0193 6.85817 14.2026 6.8615H16.4984" stroke="#3063E9" stroke-width="1.5" stroke-linecap="round" stroke-linejoin="round"/>
<path d="M11.9067 12.7985H7.40674" stroke="#3063E9" stroke-width="1.5" stroke-linecap="round" stroke-linejoin="round"/>
<path d="M10.2027 9.67155H7.40601" stroke="#3063E9" stroke-width="1.5" stroke-linecap="round" stroke-linejoin="round"/>
<path d="M30.39 5.7C31.342 5.7 32.2007 5.91467 32.966 6.344C33.7407 6.764 34.3473 7.34733 34.786 8.094C35.2247 8.84067 35.444 9.676 35.444 10.6C35.444 11.524 35.22 12.3593 34.772 13.106C34.3333 13.8527 33.7267 14.4407 32.952 14.87C32.1773 15.29 31.3093 15.5 30.348 15.5H26.4V5.7H30.39ZM30.418 14.282C31.0993 14.282 31.7153 14.1233 32.266 13.806C32.826 13.4887 33.2647 13.05 33.582 12.49C33.9087 11.93 34.072 11.3047 34.072 10.614C34.072 9.914 33.9087 9.284 33.582 8.724C33.2553 8.164 32.8073 7.72533 32.238 7.408C31.678 7.08133 31.0527 6.918 30.362 6.918H27.744V14.282H30.418ZM40.2068 8.052C41.3548 8.052 42.2228 8.39267 42.8108 9.074C43.3988 9.746 43.6928 10.684 43.6928 11.888C43.6928 12.0747 43.6882 12.2147 43.6788 12.308H37.8268C37.9295 12.9707 38.2048 13.498 38.6528 13.89C39.1102 14.282 39.6702 14.478 40.3328 14.478C40.7715 14.478 41.1775 14.3987 41.5508 14.24C41.9335 14.0813 42.2648 13.8573 42.5448 13.568L43.2588 14.31C42.8948 14.702 42.4562 15.0053 41.9428 15.22C41.4295 15.4347 40.8602 15.542 40.2348 15.542C39.5068 15.542 38.8582 15.388 38.2888 15.08C37.7288 14.7627 37.2902 14.3193 36.9728 13.75C36.6648 13.1807 36.5108 12.532 36.5108 11.804C36.5108 11.076 36.6648 10.432 36.9728 9.872C37.2902 9.30267 37.7288 8.85933 38.2888 8.542C38.8488 8.21533 39.4882 8.052 40.2068 8.052ZM42.5168 11.3C42.4795 10.628 42.2555 10.1007 41.8448 9.718C41.4342 9.326 40.8928 9.13 40.2208 9.13C39.5675 9.13 39.0215 9.326 38.5828 9.718C38.1535 10.11 37.8968 10.6373 37.8128 11.3H42.5168ZM49.4453 15.01C48.876 15.374 48.2973 15.556 47.7093 15.556C47.1213 15.556 46.6453 15.3833 46.2813 15.038C45.9173 14.6833 45.7353 14.1513 45.7353 13.442V9.34H44.6853V8.346H45.7353V6.358H47.0513V8.346H49.3193V9.34H47.0513V13.204C47.0513 13.6147 47.126 13.9087 47.2753 14.086C47.4246 14.2633 47.6486 14.352 47.9473 14.352C48.302 14.352 48.6846 14.2353 49.0953 14.002L49.4453 15.01ZM55.5558 15.5V14.464C55.0051 15.192 54.1418 15.556 52.9658 15.556C52.4524 15.556 51.9998 15.458 51.6078 15.262C51.2251 15.066 50.9264 14.7953 50.7118 14.45C50.5064 14.1047 50.4038 13.7173 50.4038 13.288C50.4038 12.6253 50.6464 12.1027 51.1318 11.72C51.6264 11.328 52.3124 11.1273 53.1898 11.118H55.5418V10.768C55.5418 10.2453 55.3784 9.844 55.0518 9.564C54.7344 9.27467 54.2678 9.13 53.6518 9.13C52.9051 9.13 52.1444 9.396 51.3698 9.928L50.8238 9.032C51.3558 8.68667 51.8458 8.43933 52.2938 8.29C52.7511 8.13133 53.2924 8.052 53.9178 8.052C54.8418 8.052 55.5558 8.28067 56.0598 8.738C56.5638 9.186 56.8204 9.816 56.8298 10.628L56.8438 15.5H55.5558ZM53.2318 14.478C53.8384 14.478 54.3518 14.3333 54.7718 14.044C55.2011 13.7453 55.4578 13.3533 55.5418 12.868V12.126H53.3718C52.7838 12.126 52.3451 12.2147 52.0558 12.392C51.7758 12.5693 51.6358 12.8493 51.6358 13.232C51.6358 13.6147 51.7804 13.918 52.0698 14.142C52.3591 14.366 52.7464 14.478 53.2318 14.478ZM59.1685 8.094H60.4705V15.5H59.1685V8.094ZM59.8125 5.14C60.0459 5.14 60.2372 5.21933 60.3865 5.378C60.5452 5.53667 60.6245 5.73733 60.6245 5.98C60.6245 6.22267 60.5452 6.42333 60.3865 6.582C60.2372 6.74067 60.0459 6.82 59.8125 6.82C59.5792 6.82 59.3832 6.74067 59.2245 6.582C59.0752 6.42333 59.0005 6.22267 59.0005 5.98C59.0005 5.73733 59.0752 5.53667 59.2245 5.378C59.3832 5.21933 59.5792 5.14 59.8125 5.14ZM63.0803 5.112H64.3823V15.5H63.0803V5.112ZM71.0485 9.732C70.7405 9.54533 70.3998 9.396 70.0265 9.284C69.6625 9.172 69.3125 9.116 68.9765 9.116C68.5845 9.116 68.2672 9.19067 68.0245 9.34C67.7912 9.48 67.6745 9.69933 67.6745 9.998C67.6745 10.2967 67.8052 10.5253 68.0665 10.684C68.3372 10.8333 68.7432 10.9873 69.2845 11.146C69.7978 11.2953 70.2178 11.4447 70.5445 11.594C70.8712 11.7433 71.1465 11.9627 71.3705 12.252C71.6038 12.5413 71.7205 12.924 71.7205 13.4C71.7205 14.1 71.4545 14.632 70.9225 14.996C70.3998 15.36 69.7465 15.542 68.9625 15.542C68.4118 15.542 67.8752 15.4533 67.3525 15.276C66.8392 15.0987 66.4052 14.8467 66.0505 14.52L66.5405 13.568C66.8485 13.848 67.2265 14.072 67.6745 14.24C68.1318 14.408 68.5752 14.492 69.0045 14.492C69.4338 14.492 69.7792 14.4127 70.0405 14.254C70.3018 14.0953 70.4325 13.8527 70.4325 13.526C70.4325 13.19 70.2925 12.938 70.0125 12.77C69.7418 12.602 69.3265 12.434 68.7665 12.266C68.2718 12.126 67.8658 11.986 67.5485 11.846C67.2405 11.6967 66.9745 11.482 66.7505 11.202C66.5358 10.922 66.4285 10.558 66.4285 10.11C66.4285 9.41933 66.6805 8.90133 67.1845 8.556C67.6885 8.21067 68.3185 8.038 69.0745 8.038C69.5225 8.038 69.9612 8.10333 70.3905 8.234C70.8292 8.35533 71.2072 8.52333 71.5245 8.738L71.0485 9.732Z" fill="#3063E9"/>
</svg>
