<svg width="112" height="26" viewBox="0 0 112 26" fill="none" xmlns="http://www.w3.org/2000/svg">
<path d="M13.2629 20.4272V6.05225" stroke="#3063E9" stroke-width="1.5" stroke-linecap="round" stroke-linejoin="round"/>
<path d="M19.0363 14.6294L13.2633 20.4273L7.48932 14.6294" stroke="#3063E9" stroke-width="1.5" stroke-linecap="round" stroke-linejoin="round"/>
<rect x="1.5" y="1.5" width="23" height="23" rx="5" stroke="#3063E9" stroke-width="1.5"/>
<path d="M35.66 7.8C36.748 7.8 37.7293 8.04533 38.604 8.536C39.4893 9.016 40.1827 9.68267 40.684 10.536C41.1853 11.3893 41.436 12.344 41.436 13.4C41.436 14.456 41.18 15.4107 40.668 16.264C40.1667 17.1173 39.4733 17.7893 38.588 18.28C37.7027 18.76 36.7107 19 35.612 19H31.1V7.8H35.66ZM35.692 17.608C36.4707 17.608 37.1747 17.4267 37.804 17.064C38.444 16.7013 38.9453 16.2 39.308 15.56C39.6813 14.92 39.868 14.2053 39.868 13.416C39.868 12.616 39.6813 11.896 39.308 11.256C38.9347 10.616 38.4227 10.1147 37.772 9.752C37.132 9.37867 36.4173 9.192 35.628 9.192H32.636V17.608H35.692ZM47.0073 10.488C47.8499 10.488 48.5966 10.6693 49.2473 11.032C49.9086 11.3947 50.4206 11.9013 50.7833 12.552C51.1566 13.192 51.3433 13.928 51.3433 14.76C51.3433 15.592 51.1566 16.3333 50.7833 16.984C50.4206 17.6347 49.9086 18.1413 49.2473 18.504C48.5966 18.8667 47.8499 19.048 47.0073 19.048C46.1539 19.048 45.3966 18.8667 44.7353 18.504C44.0846 18.1413 43.5726 17.64 43.1993 17C42.8366 16.3493 42.6553 15.6027 42.6553 14.76C42.6553 13.928 42.8366 13.192 43.1993 12.552C43.5726 11.9013 44.0846 11.3947 44.7353 11.032C45.3966 10.6693 46.1539 10.488 47.0073 10.488ZM47.0073 11.784C46.4526 11.784 45.9566 11.912 45.5193 12.168C45.0926 12.424 44.7566 12.7813 44.5113 13.24C44.2766 13.688 44.1593 14.2 44.1593 14.776C44.1593 15.3627 44.2766 15.8853 44.5113 16.344C44.7566 16.8027 45.0926 17.16 45.5193 17.416C45.9566 17.6613 46.4526 17.784 47.0073 17.784C47.5513 17.784 48.0366 17.6613 48.4633 17.416C48.9006 17.16 49.2366 16.8027 49.4713 16.344C49.7166 15.8853 49.8393 15.3627 49.8393 14.776C49.8393 14.2 49.7166 13.688 49.4713 13.24C49.2366 12.7813 48.9006 12.424 48.4633 12.168C48.0366 11.912 47.5513 11.784 47.0073 11.784ZM51.7355 10.536H53.2875L55.6555 17.528L57.9915 10.536H59.5435L61.8955 17.528L64.2315 10.536H65.7675L62.6475 19H61.0955L58.7595 12.344L56.4235 19H54.8715L51.7355 10.536ZM71.9725 10.488C72.9645 10.488 73.7432 10.7813 74.3085 11.368C74.8738 11.944 75.1565 12.744 75.1565 13.768V19H73.6685V14.168C73.6685 13.4533 73.4658 12.8987 73.0605 12.504C72.6658 12.0987 72.1165 11.896 71.4125 11.896C70.6552 11.9067 70.0365 12.152 69.5565 12.632C69.0872 13.1013 68.8205 13.7147 68.7565 14.472V19H67.2685V10.536H68.7565V12.328C69.3218 11.1227 70.3938 10.5093 71.9725 10.488ZM77.8954 7.128H79.3834V19H77.8954V7.128ZM85.8979 10.488C86.7405 10.488 87.4872 10.6693 88.1379 11.032C88.7992 11.3947 89.3112 11.9013 89.6739 12.552C90.0472 13.192 90.2339 13.928 90.2339 14.76C90.2339 15.592 90.0472 16.3333 89.6739 16.984C89.3112 17.6347 88.7992 18.1413 88.1379 18.504C87.4872 18.8667 86.7405 19.048 85.8979 19.048C85.0445 19.048 84.2872 18.8667 83.6259 18.504C82.9752 18.1413 82.4632 17.64 82.0899 17C81.7272 16.3493 81.5459 15.6027 81.5459 14.76C81.5459 13.928 81.7272 13.192 82.0899 12.552C82.4632 11.9013 82.9752 11.3947 83.6259 11.032C84.2872 10.6693 85.0445 10.488 85.8979 10.488ZM85.8979 11.784C85.3432 11.784 84.8472 11.912 84.4099 12.168C83.9832 12.424 83.6472 12.7813 83.4019 13.24C83.1672 13.688 83.0499 14.2 83.0499 14.776C83.0499 15.3627 83.1672 15.8853 83.4019 16.344C83.6472 16.8027 83.9832 17.16 84.4099 17.416C84.8472 17.6613 85.3432 17.784 85.8979 17.784C86.4419 17.784 86.9272 17.6613 87.3539 17.416C87.7912 17.16 88.1272 16.8027 88.3619 16.344C88.6072 15.8853 88.7299 15.3627 88.7299 14.776C88.7299 14.2 88.6072 13.688 88.3619 13.24C88.1272 12.7813 87.7912 12.424 87.3539 12.168C86.9272 11.912 86.4419 11.784 85.8979 11.784ZM97.4834 19V17.816C96.854 18.648 95.8674 19.064 94.5234 19.064C93.9367 19.064 93.4194 18.952 92.9714 18.728C92.534 18.504 92.1927 18.1947 91.9474 17.8C91.7127 17.4053 91.5954 16.9627 91.5954 16.472C91.5954 15.7147 91.8727 15.1173 92.4274 14.68C92.9927 14.232 93.7767 14.0027 94.7794 13.992H97.4674V13.592C97.4674 12.9947 97.2807 12.536 96.9074 12.216C96.5447 11.8853 96.0114 11.72 95.3074 11.72C94.454 11.72 93.5847 12.024 92.6994 12.632L92.0754 11.608C92.6834 11.2133 93.2434 10.9307 93.7554 10.76C94.278 10.5787 94.8967 10.488 95.6114 10.488C96.6674 10.488 97.4834 10.7493 98.0594 11.272C98.6354 11.784 98.9287 12.504 98.9394 13.432L98.9554 19H97.4834ZM94.8274 17.832C95.5207 17.832 96.1074 17.6667 96.5874 17.336C97.078 16.9947 97.3714 16.5467 97.4674 15.992V15.144H94.9874C94.3154 15.144 93.814 15.2453 93.4834 15.448C93.1634 15.6507 93.0034 15.9707 93.0034 16.408C93.0034 16.8453 93.1687 17.192 93.4994 17.448C93.83 17.704 94.2727 17.832 94.8274 17.832ZM109.5 7.128V19H108.012V17.32C107.692 17.8853 107.26 18.3227 106.716 18.632C106.183 18.9307 105.559 19.08 104.844 19.08C104.044 19.08 103.335 18.8987 102.716 18.536C102.108 18.1627 101.634 17.6507 101.292 17C100.951 16.3387 100.78 15.5867 100.78 14.744C100.78 13.912 100.951 13.176 101.292 12.536C101.634 11.8853 102.108 11.3787 102.716 11.016C103.335 10.6533 104.039 10.472 104.828 10.472C105.554 10.472 106.188 10.6213 106.732 10.92C107.276 11.2187 107.703 11.6507 108.012 12.216V7.128H109.5ZM105.148 17.8C105.703 17.8 106.194 17.672 106.62 17.416C107.058 17.16 107.399 16.8027 107.644 16.344C107.89 15.8853 108.012 15.368 108.012 14.792C108.012 14.2053 107.89 13.6827 107.644 13.224C107.399 12.7653 107.058 12.408 106.62 12.152C106.194 11.896 105.703 11.768 105.148 11.768C104.594 11.768 104.098 11.9013 103.66 12.168C103.234 12.424 102.898 12.7813 102.652 13.24C102.407 13.6987 102.284 14.216 102.284 14.792C102.284 15.368 102.407 15.8853 102.652 16.344C102.898 16.8027 103.234 17.16 103.66 17.416C104.098 17.672 104.594 17.8 105.148 17.8Z" fill="#3063E9"/>
</svg>
