<svg width="102" height="44" viewBox="0 0 102 44" fill="none" xmlns="http://www.w3.org/2000/svg">
<rect width="102" height="44" rx="8" fill="#3063E9"/>
<path d="M21.6 16.8H29.376V18.192H23.136V21.648H28.72V23.04H23.136V26.608H29.568V28H21.6V16.8ZM39.7971 16.128V28H38.3091V26.32C37.9891 26.8853 37.5571 27.3227 37.0131 27.632C36.4798 27.9307 35.8558 28.08 35.1411 28.08C34.3411 28.08 33.6318 27.8987 33.0131 27.536C32.4051 27.1627 31.9305 26.6507 31.5891 26C31.2478 25.3387 31.0771 24.5867 31.0771 23.744C31.0771 22.912 31.2478 22.176 31.5891 21.536C31.9305 20.8853 32.4051 20.3787 33.0131 20.016C33.6318 19.6533 34.3358 19.472 35.1251 19.472C35.8505 19.472 36.4851 19.6213 37.0291 19.92C37.5731 20.2187 37.9998 20.6507 38.3091 21.216V16.128H39.7971ZM35.4451 26.8C35.9998 26.8 36.4905 26.672 36.9171 26.416C37.3545 26.16 37.6958 25.8027 37.9411 25.344C38.1865 24.8853 38.3091 24.368 38.3091 23.792C38.3091 23.2053 38.1865 22.6827 37.9411 22.224C37.6958 21.7653 37.3545 21.408 36.9171 21.152C36.4905 20.896 35.9998 20.768 35.4451 20.768C34.8905 20.768 34.3945 20.9013 33.9571 21.168C33.5305 21.424 33.1945 21.7813 32.9491 22.24C32.7038 22.6987 32.5811 23.216 32.5811 23.792C32.5811 24.368 32.7038 24.8853 32.9491 25.344C33.1945 25.8027 33.5305 26.16 33.9571 26.416C34.3945 26.672 34.8905 26.8 35.4451 26.8ZM42.7841 19.536H44.2721V28H42.7841V19.536ZM43.5201 16.16C43.7868 16.16 44.0055 16.2507 44.1761 16.432C44.3575 16.6133 44.4481 16.8427 44.4481 17.12C44.4481 17.3973 44.3575 17.6267 44.1761 17.808C44.0055 17.9893 43.7868 18.08 43.5201 18.08C43.2535 18.08 43.0295 17.9893 42.8481 17.808C42.6775 17.6267 42.5921 17.3973 42.5921 17.12C42.5921 16.8427 42.6775 16.6133 42.8481 16.432C43.0295 16.2507 43.2535 16.16 43.5201 16.16ZM51.7188 27.44C51.0681 27.856 50.4068 28.064 49.7348 28.064C49.0628 28.064 48.5188 27.8667 48.1028 27.472C47.6868 27.0667 47.4788 26.4587 47.4788 25.648V20.96H46.2788V19.824H47.4788V17.552H48.9828V19.824H51.5748V20.96H48.9828V25.376C48.9828 25.8453 49.0681 26.1813 49.2388 26.384C49.4094 26.5867 49.6654 26.688 50.0068 26.688C50.4121 26.688 50.8494 26.5547 51.3188 26.288L51.7188 27.44Z" fill="white"/>
<path d="M71.7474 30.4428H79" stroke="white" stroke-width="1.5" stroke-linecap="round" stroke-linejoin="round"/>
<path fill-rule="evenodd" clip-rule="evenodd" d="M70.78 13.7948C71.5557 12.8678 72.95 12.7319 73.8962 13.4917C73.9485 13.533 75.6295 14.8388 75.6295 14.8388C76.669 15.4672 76.992 16.8031 76.3494 17.8226C76.3153 17.8772 66.8119 29.7645 66.8119 29.7645C66.4958 30.1589 66.0158 30.3918 65.5029 30.3973L61.8635 30.443L61.0435 26.9723C60.9287 26.4843 61.0435 25.9718 61.3597 25.5773L70.78 13.7948Z" stroke="white" stroke-width="1.5" stroke-linecap="round" stroke-linejoin="round"/>
<path d="M69.0208 16.001L74.4731 20.1881" stroke="white" stroke-width="1.5" stroke-linecap="round" stroke-linejoin="round"/>
</svg>
