<svg xmlns="http://www.w3.org/2000/svg" viewBox="0 0 399.65 399.71"><g id="Layer_2" data-name="Layer 2"><g id="svg"><g id="svgg"><path id="path0" d="M184.85.12a21.44,21.44,0,0,0-5.18.55,4.16,4.16,0,0,1-2.06.39c-1,0-1.76.21-1.88.5S171.2,8.25,168,12.66c-.56.77-2.09,2.93-3.4,4.8s-2.63,3.68-2.92,4-1.3,1.8-2.25,3.2a31.68,31.68,0,0,1-2,2.77c-.14.11-1.17,1.55-2.28,3.2s-3.57,5.16-5.48,7.8c-5.35,7.39-5.89,8.2-5.58,8.2a29.12,29.12,0,0,0,4-1.23c.44-.18,1.52-.53,2.4-.8a18.79,18.79,0,0,0,2.29-.82,4.33,4.33,0,0,1,1.68-.35,1.69,1.69,0,0,0,1.23-.4,2,2,0,0,1,1.4-.4,2.08,2.08,0,0,0,1.37-.36,3.5,3.5,0,0,1,1.72-.57c.83-.11,2.32-.42,3.31-.67s2.7-.63,3.8-.84l4-.78a167.35,167.35,0,0,1,24.22-2.37h5.43l3.74-5.3c2.05-2.92,4.4-6.2,5.2-7.3,5.87-8,16-22.61,16-23.08,0-.18-1.16-.32-2.57-.32s-2.63-.18-2.7-.41c-.14-.42-26.89-.82-35.73-.53M263,9.79a8.31,8.31,0,0,0-2.1,2.27l-3.8,5.4c-1.31,1.87-3.43,4.85-4.69,6.62-3.76,5.26-8.58,12.06-10.55,14.9L240,41.63l1,.52a5,5,0,0,0,1.92.51,1.6,1.6,0,0,1,1.18.4,1.43,1.43,0,0,0,1.09.4,17,17,0,0,1,4.51,1.22c.44.18,2,.71,3.4,1.18s3,1,3.4,1.18,1.43.57,2.2.85a169.18,169.18,0,0,1,18.9,8.71c3.68,2.11,4.38,2.51,5.79,3.3.83.47,2.26,1.37,3.18,2a7.68,7.68,0,0,0,2.1,1.16.4.4,0,0,1,.43.37c0,.2.36.49.79.62a3.82,3.82,0,0,1,1.3.74c1.15,1.11,5.89,4.26,6.38,4.25s3.44-4,10.73-14.36l4.29-6.07c6.73-9.46,7-10,6-10a1.81,1.81,0,0,1-1.08-.8,1.86,1.86,0,0,0-1.05-.8c-.25,0-.89-.54-1.41-1.2a3,3,0,0,0-1.57-1.2,3,3,0,0,1-1.52-.84c-.5-.47-1-.75-1.12-.63s-.62-.22-1.12-.76a3.11,3.11,0,0,0-1.38-1c-.27,0-.37-.18-.23-.4s-.14-.4-.6-.4-.74-.18-.6-.41.11-.36-.08-.3c-.48.16-4.12-1.4-4.12-1.78,0-.17-.27-.31-.6-.31s-.6-.18-.6-.4-.25-.4-.56-.4a1,1,0,0,1-.8-.63c-.13-.34-.43-.51-.66-.36s-.75-.12-1.15-.58a2.49,2.49,0,0,0-1.58-.83c-.47,0-.85-.18-.85-.4s-.27-.4-.6-.4-.6-.18-.6-.4-.36-.4-.8-.4-.8-.18-.8-.4-.36-.4-.8-.4-.8-.18-.8-.4-.36-.4-.8-.4-.8-.18-.8-.4-.36-.4-.8-.4-.8-.14-.81-.3c0-.36-1.94-1.3-2.67-1.3a.47.47,0,0,1-.52-.4c0-.22-.36-.4-.8-.4s-.8-.18-.8-.4-.36-.4-.8-.4-.8-.18-.8-.4-.37-.4-.81-.4a4.73,4.73,0,0,1-2.85-1.36.79.79,0,0,0-.87-.13.61.61,0,0,1-.81-.29c-.11-.29-1-.65-2.05-.8s-1.95-.52-2.06-.81a.77.77,0,0,0-.93-.33,1,1,0,0,1-1-.25,1.67,1.67,0,0,0-1.25-.43c-.53,0-1-.17-1-.38s-.5-.43-1.1-.5-1.07-.32-1-.55-.41-.36-1.16-.25c-1,.15-1.2.07-1-.47.27-.7.08-.76-1-.32m-66,65a30.44,30.44,0,0,0-3.72,5.1c-1.27,2.09-3,4.88-3.79,6.2-6.24,10.09-16.29,26.49-19.73,32.2-1.53,2.53-3.1,5-3.48,5.6s-1.06,1.63-1.5,2.4c-1.68,2.91-8.65,14.27-9.75,15.87a12,12,0,0,0-1.14,1.88c0,.12-1.33,2.34-2.94,4.93-3.53,5.67-12.48,20.23-13.46,21.92-.38.66-1.64,2.73-2.8,4.6l-4.32,7c-3.53,5.7-4.84,8.79-3.18,7.5.27-.21,2.12-1.25,4.1-2.31s4.32-2.34,5.2-2.85,2.59-1.42,3.8-2a23.8,23.8,0,0,0,2.4-1.3,21.51,21.51,0,0,1,2.4-1.38c3.49-1.84,6.85-3.64,8.8-4.73,1-.56,4.14-2.27,7-3.81s6-3.25,7-3.8c4.15-2.29,6.34-3.49,8.8-4.8,1.43-.76,3.27-1.77,4.1-2.24s3.44-1.88,5.79-3.13,5.1-2.74,6.1-3.32,3.16-1.73,4.81-2.57l3-1.51,3.8,2.07,6.4,3.48,4.4,2.42c2.21,1.25,4.81,2.66,9,4.89,1.76.93,4.91,2.65,7,3.81,3.42,1.89,6.1,3.34,11.6,6.24a20.54,20.54,0,0,1,2,1.16,21.37,21.37,0,0,0,2.2,1.2,20.16,20.16,0,0,1,2.2,1.19,25.16,25.16,0,0,0,2.4,1.36c4.21,2.21,12.31,6.57,16.55,8.91,1.73,1,3.24,1.74,3.36,1.74a3,3,0,0,1,1,.66c2,1.83.54-1.35-4.33-9.26-1.76-2.86-5.95-9.7-9.31-15.2s-6.73-11-7.48-12.1a16.49,16.49,0,0,1-1.35-2.33,11.2,11.2,0,0,0-1.16-1.91c-.64-.93-1.69-2.58-2.35-3.67-1.12-1.89-5.21-8.57-12.1-19.79-4.91-8-10.7-17.45-13.61-22.2l-4.78-7.8c-1.16-1.87-3.59-5.83-5.4-8.8-7.69-12.61-7.85-12.8-10.64-12.8a3.83,3.83,0,0,0-2.85,1.3M32.07,204.08c-4.65,6.6-6.71,9.5-10,14.12-.9,1.24-3.4,4.78-5.56,7.86s-4.41,6.23-5,7-1.86,2.57-2.82,4a29.67,29.67,0,0,1-3.49,4.65c-.92,1-1.23,2.55-.5,2.55.22,0,.4.81.4,1.8s.18,1.8.4,1.8.4.63.4,1.4.18,1.4.4,1.4.4.73.4,1.62.15,1.53.4,1.38.4.32.4,1.17.18,1.43.4,1.43.4.63.4,1.4.2,1.4.44,1.4.38.48.27,1.2,0,1.2.41,1.2.53.33.36,1.37-.1,1.33.35,1.16.57.11.57,1c0,.69.2,1.25.44,1.25s.35.38.19,1-.09,1,.36,1,.61.37.61,1a1.67,1.67,0,0,0,.43,1.25,1,1,0,0,1,.23,1,.78.78,0,0,0,.39,1,.64.64,0,0,1,.36.85.77.77,0,0,0,.22.9,1.73,1.73,0,0,1,.47,1.31c0,.57.2,1,.45,1s.39.31.32.82,0,.9.2.9.57.58.86,1.3.69,1.61.89,2a3.28,3.28,0,0,1,.38,1.3c0,.33.18.61.4.61s.4.36.4.8.18.8.4.8.4.36.4.8.18.8.4.8.4.36.4.8.18.8.4.8.4.25.4.57c0,1.38.87.88,2.47-1.41,2.57-3.66,4-5.74,4.84-6.81.39-.52,2.87-4,5.51-7.75s5.2-7.34,5.68-8,1.69-2.37,2.67-3.8,2-2.82,2.26-3.09c2.31-2.33,2.42-3.9.61-8.31a16.5,16.5,0,0,1-1.24-4.51,1.42,1.42,0,0,0-.4-1.09,2,2,0,0,1-.4-1.4,2,2,0,0,0-.36-1.38,3,3,0,0,1-.58-1.52c-.12-.72-.41-2.16-.64-3.2a149.86,149.86,0,0,1-4-31.28l-.25-8-4.78,6.79m98.44,19.64c-.73.73.36,2.65,8,14.23l36.59,55.31c6.7,10.12,14.75,22.3,17.89,27.06s6,8.77,6.28,8.89c.5.19.57-3.54.55-27.27l0-27.48-6.28-4.68c-3.45-2.57-8.82-6.62-11.94-9s-8.42-6.42-11.8-9c-7.79-5.91-15.37-11.69-20.73-15.8-16.4-12.55-17.52-13.3-18.54-12.28M59.25,296.1c-2.42,3.43-4.59,6.45-4.82,6.7s-1,1.36-1.78,2.46c-2,3-9.17,13-10.47,14.65-1.08,1.4-1.57,3.06-.74,2.55.23-.14.3,0,.16.38s0,.62.22.62c.53,0,3.23,2.6,3.23,3.12a9.76,9.76,0,0,0,1.7,2.2c.93,1,2.3,2.66,3,3.66a6.82,6.82,0,0,0,1.69,1.82,83.78,83.78,0,0,1,6.46,6c3.36,3.32,7.17,7,8.47,8.1s2.74,2.43,3.2,2.87,1.47,1.3,2.24,1.92l2.8,2.28c1.17,1,5.11,3.93,9.81,7.4,2,1.51,3.39,2.27,3.39,1.93a6.42,6.42,0,0,1,1.21-1.73c.66-.77,2.14-2.75,3.27-4.4s2.18-3.09,2.32-3.2,1-1.36,2-2.77,2-2.84,2.26-3.2c.46-.56,2.52-3.47,8.32-11.77l1.64-2.33-1.24-1.07c-.68-.58-2.84-2.23-4.8-3.66s-3.89-2.86-4.3-3.2l-1.6-1.31c-6.24-5.09-16.24-14.73-19-18.29a27.71,27.71,0,0,0-2.11-2.4,123.54,123.54,0,0,1-8.27-10.6c-1.25-1.76-2.51-3.44-2.79-3.73a1.79,1.79,0,0,1-.51-.9c0-1-.94.11-5,5.87" style="fill:#dcd4b1;fill-rule:evenodd"/><path id="path1" d="M183.76.15a33.35,33.35,0,0,0,4,0c1-.08.09-.15-2.11-.15s-3.05.07-1.89.15M212,.15a30.11,30.11,0,0,0,3.8,0c1-.08.19-.15-1.9-.15s-2.95.07-1.9.15m-37.1.51a6.13,6.13,0,0,1-2.8.4,6.06,6.06,0,0,0-2.8.4,4.7,4.7,0,0,1-2.4.4,4.64,4.64,0,0,0-2.4.4,3.48,3.48,0,0,1-2,.4,3.43,3.43,0,0,0-2,.4,3.55,3.55,0,0,1-2,.4c-1,0-1.77.18-1.77.4s-.8.4-1.78.4a3.49,3.49,0,0,0-2,.4,2.52,2.52,0,0,1-1.63.4c-.75,0-1.37.18-1.37.4s-.63.4-1.4.4-1.4.18-1.4.4-.63.4-1.4.4-1.4.18-1.4.4-.53.4-1.18.4a2.15,2.15,0,0,0-1.4.35,3.36,3.36,0,0,1-1.72.57,29.58,29.58,0,0,0-7,2.06,6,6,0,0,1-1.7.62,9,9,0,0,0-2.12.8,9.27,9.27,0,0,1-2.08.8,3.12,3.12,0,0,0-1.12.35c-.38.19-1.14.53-1.69.75l-2,.79c-.55.21-1.79.78-2.74,1.25a9,9,0,0,1-2.3.86c-.31,0-.56.18-.56.4s-.25.4-.55.4a20,20,0,0,0-3.65,1.6,20.41,20.41,0,0,1-3.63,1.6.72.72,0,0,0-.64.3,10.41,10.41,0,0,1-3.23,2c-.39.12-.7.38-.7.57s-.36.36-.8.36-.8.18-.8.4-.35.4-.77.4-.83.13-.9.3a7.9,7.9,0,0,1-1.93,1.2,23.64,23.64,0,0,0-5,3,9.06,9.06,0,0,1-1.92,1.19c-.62.28-1.12.62-1.12.76s-.54.47-1.2.75-1.2.65-1.2.84-.25.36-.54.36a4.49,4.49,0,0,0-1.8,1.2,4.77,4.77,0,0,1-1.71,1.2,2.11,2.11,0,0,0-1.11.7,7.6,7.6,0,0,1-1.74,1.27c-.61.31-1.1.71-1.1.89a.39.39,0,0,1-.42.34,3.23,3.23,0,0,0-1.35.9A12.26,12.26,0,0,1,76,41.86a2,2,0,0,0-.78.5c-.6.54-1,.83-2.78,2.24C69.36,47,60.18,55.38,59.12,56.78a16.22,16.22,0,0,1-1.5,1.6c-2,1.84-6.94,6.94-8,8.28-.62.77-1.81,2.07-2.62,2.9a6.83,6.83,0,0,0-1.31,1.5c.17,0-.31.59-2.71,3.34A6.3,6.3,0,0,0,41.85,76a10.29,10.29,0,0,1-2.3,2.94,4.19,4.19,0,0,0-.9,1.16,3.65,3.65,0,0,1-.8,1.1,2.89,2.89,0,0,0-.8,1.38c0,.29-.14.53-.32.53s-.6.49-1,1.1a20.29,20.29,0,0,1-1.69,2.3,4.34,4.34,0,0,0-1,1.7c0,.27-.16.5-.35.5s-.58.54-.85,1.2-.66,1.2-.85,1.2-.35.23-.35.52a2.89,2.89,0,0,1-.8,1.38,3.05,3.05,0,0,0-.8,1.28.41.41,0,0,1-.4.42.41.41,0,0,0-.4.43,4.8,4.8,0,0,1-.83,1.6c-.46.64-.71,1.17-.57,1.17s-.12.47-.57,1a3.79,3.79,0,0,0-.83,1.6c0,.3-.18.55-.4.55s-.4.36-.4.8-.18.8-.4.8-.4.36-.4.8-.15.8-.32.8a5.43,5.43,0,0,0-1.3,2,6.07,6.07,0,0,1-1.28,2c-.17,0-.3.25-.3.55a20.29,20.29,0,0,1-1.6,3.66,20,20,0,0,0-1.6,3.65c0,.3-.18.55-.4.55s-.4.25-.4.56a9,9,0,0,1-.86,2.3c-.47,1-1,2.1-1.16,2.54s-.68,1.65-1.14,2.69a11.28,11.28,0,0,0-.84,2.31,10.07,10.07,0,0,1-.76,2.1c-.41.93-1,2.33-1.24,3.1s-.63,1.76-.81,2.2a22.51,22.51,0,0,0-1.59,5.84,1.94,1.94,0,0,1-.4,1.36,2,2,0,0,0-.4,1.42c0,.65-.18,1.18-.4,1.18s-.4.53-.4,1.17a2.08,2.08,0,0,1-.4,1.43,2.41,2.41,0,0,0-.4,1.6,2.46,2.46,0,0,1-.4,1.6,2,2,0,0,0-.4,1.4,2,2,0,0,1-.4,1.4,3.49,3.49,0,0,0-.4,2c0,1-.18,1.78-.4,1.78s-.4.79-.4,1.77a3.55,3.55,0,0,1-.4,2,3.49,3.49,0,0,0-.4,2c0,1-.18,1.78-.4,1.78s-.4,1.05-.4,2.37a5.48,5.48,0,0,1-.4,2.63,5.86,5.86,0,0,0-.4,2.74,6.1,6.1,0,0,1-.5,3c-.73.73-.73,49,0,49.72a6,6,0,0,1,.5,3,5.91,5.91,0,0,0,.4,2.75,5.4,5.4,0,0,1,.4,2.62c0,1.32.17,2.38.4,2.38s.4.9.4,2,.18,2,.4,2,.4.76.4,1.7a5.74,5.74,0,0,0,.4,2.3c.33.51.39.5.39-.09a3.34,3.34,0,0,1,.91-1.66,29.67,29.67,0,0,0,3.49-4.65c1-1.43,2.23-3.23,2.82-4s2.84-3.92,5-7c4-5.64,6.2-8.79,9.21-12.95.89-1.24,3.77-5.3,6.4-9l4.77-6.79.25,8a149.86,149.86,0,0,0,4,31.28c.23,1,.52,2.48.64,3.2a3,3,0,0,0,.58,1.52,2,2,0,0,1,.36,1.38,2,2,0,0,0,.4,1.4,1.42,1.42,0,0,1,.4,1.09,16.5,16.5,0,0,0,1.24,4.51c1.81,4.41,1.7,6-.61,8.31-.26.27-1.28,1.66-2.26,3.09s-2.18,3.14-2.67,3.8-3,4.26-5.68,8-5.12,7.23-5.51,7.75c-.8,1.07-2.27,3.15-4.84,6.81-1.6,2.29-2.47,2.79-2.47,1.41,0-.32-.18-.57-.4-.57s-.4-.36-.4-.8-.18-.8-.4-.8-.4-.36-.4-.8-.18-.8-.4-.8-.4-.36-.4-.8-.18-.8-.4-.8-.4-.28-.4-.61a3.28,3.28,0,0,0-.38-1.3c-.2-.38-.61-1.28-.89-2s-.68-1.3-.86-1.3-.27-.34-.2-.74,0-.77-.27-.8c-.46-.07-.46,0,0,1.84.17.71.47,1.3.67,1.3s.35.36.35.8.18.8.4.8.4.27.4.6a3.57,3.57,0,0,0,.35,1.3c.2.38,1,2,1.7,3.5a30.28,30.28,0,0,0,1.54,3c.2.19,1.71,2.95,2.57,4.69.24.5.57.9.74.9s.3.37.3.81.18.8.4.8.4.34.4.76.13.83.3.9A6.65,6.65,0,0,1,26,300.46a35.18,35.18,0,0,0,1.9,3.27,8.56,8.56,0,0,1,1.12,2.06.59.59,0,0,0,.32.53,15.86,15.86,0,0,1,2.88,4.31.42.42,0,0,0,.4.43c.22,0,.4.24.4.54a4.54,4.54,0,0,0,1.2,1.79,4.59,4.59,0,0,1,1.2,1.77,1.85,1.85,0,0,0,.8,1.1c.44.31.8.76.8,1a4.63,4.63,0,0,0,1,1.62,19.44,19.44,0,0,1,1.69,2.3c.77,1.31,1,1.35,1.48.29.22-.44,2.75-4.08,5.63-8.1s5.66-7.92,6.19-8.69,1.18-1.67,1.45-2,2.4-3.3,4.75-6.6c4.86-6.85,4.63-6.57,4.87-5.9a3.27,3.27,0,0,0,.66,1c.26.27,1.5,1.94,2.75,3.7a123.54,123.54,0,0,0,8.27,10.6,27.71,27.71,0,0,1,2.11,2.4c2.74,3.56,12.74,13.2,19,18.29l1.6,1.31c.41.34,2.34,1.78,4.3,3.2s4.12,3.08,4.8,3.66l1.24,1.07-1.64,2.33c-5.8,8.3-7.86,11.21-8.32,11.77-.29.36-1.31,1.79-2.26,3.2s-1.84,2.66-2,2.77-1.18,1.55-2.32,3.2-2.61,3.63-3.27,4.4a6.42,6.42,0,0,0-1.21,1.73c0,.34-1.35-.42-3.39-1.93-4.7-3.47-8.64-6.43-9.81-7.4l-2.8-2.28c-.77-.62-1.78-1.48-2.24-1.92s-1.9-1.73-3.2-2.87-5.11-4.78-8.47-8.1a83.78,83.78,0,0,0-6.46-6,6.82,6.82,0,0,1-1.69-1.82c-.74-1-2.11-2.65-3-3.66a9.76,9.76,0,0,1-1.7-2.2c0-.52-2.82-3.24-3.08-3s.33.87,1,1.66A6.76,6.76,0,0,1,44.25,327a18.06,18.06,0,0,0,2.4,2.82,17.74,17.74,0,0,1,2.4,2.84c0,.25,4.81,5.18,8.82,9,.26.25,2.17,2.18,4.25,4.3A70.34,70.34,0,0,0,67.37,351a27,27,0,0,1,2.48,2.12,20.79,20.79,0,0,0,2.4,2,28.19,28.19,0,0,1,2.6,2.08,6,6,0,0,0,1.44,1.11,3.45,3.45,0,0,1,1.06.71c2.16,1.82,2.53,2.1,2.81,2.1s.57.36.89.8a1.84,1.84,0,0,0,1.2.8,1.89,1.89,0,0,1,1.2.8,1.81,1.81,0,0,0,1.08.8.47.47,0,0,1,.52.4c0,.22.27.4.6.4s.6.16.6.35c0,1.25,1.66.64,2.68-1,1.59-2.51,1.59-2.51,8.68,1,3.54,1.74,7.07,3.43,7.84,3.77,26.94,11.59,51.63,16.7,80.8,16.7,12.79,0,20.54-.53,29.6-2l5-.8c1.54-.24,3.52-.6,4.4-.8l3.8-.84c10.4-2.3,26.19-7.22,32.71-10.19a22.4,22.4,0,0,1,2.3-1c1.66,0,19.4-9.26,28.19-14.72a202.49,202.49,0,0,0,73.92-82.48c2.65-5.55,4.08-8.7,4.08-9a22.4,22.4,0,0,1,1-2.3c2.93-6.43,7.64-21.48,10.16-32.51,5.47-23.92,6.07-52.36,1.63-78-2.17-12.54-7.68-31.83-11.55-40.4-.4-.88-1-2.32-1.38-3.2-1.59-3.85-2.22-5.19-5.67-12a188.06,188.06,0,0,0-14.53-24.4c-4.53-6.13-10.54-13.93-11.67-15.15a17,17,0,0,1-1.8-2.85A9.77,9.77,0,0,0,334,50.31a44.77,44.77,0,0,1-3.62-3.06,17.71,17.71,0,0,0-2.62-2.19,6.13,6.13,0,0,1-1.5-1.1c-2.07-1.84-2.41-2.1-2.75-2.1-.18,0-.59-.36-.9-.8s-.72-.8-.89-.8a10.14,10.14,0,0,1-2.95-2.3,3.19,3.19,0,0,0-1.36-.9,4.52,4.52,0,0,1-1.64-1.25c-.67-.68-1.31-1.14-1.42-1-.28.28,1.5,2.28,2,2.28a1.88,1.88,0,0,1,1,.8,1.81,1.81,0,0,0,1.08.8c1,0,.74.49-6,10l-4.29,6.07C301,65.06,298,69,297.52,69s-5.23-3.14-6.38-4.25a3.82,3.82,0,0,0-1.3-.74c-.43-.13-.79-.42-.79-.62a.4.4,0,0,0-.43-.37,7.68,7.68,0,0,1-2.1-1.16c-.92-.63-2.35-1.53-3.18-2-1.41-.79-2.11-1.19-5.79-3.3a169.18,169.18,0,0,0-18.9-8.71c-.77-.28-1.76-.67-2.2-.85s-2-.71-3.4-1.18-3-1-3.4-1.18a17,17,0,0,0-4.51-1.22,1.43,1.43,0,0,1-1.09-.4,1.54,1.54,0,0,0-1.15-.4,5.49,5.49,0,0,1-1.93-.49l-1-.49,1.94-2.81c1.06-1.55,3.48-5,5.37-7.61s4.37-6.13,5.52-7.75,3.11-4.41,4.38-6.2,3-4.2,3.76-5.35,1.69-2.1,2-2.1.55-.16.55-.34c0-.42-2.75-1.26-4.13-1.26a1.75,1.75,0,0,1-1.27-.4,2.08,2.08,0,0,0-1.43-.4c-.64,0-1.17-.18-1.17-.4s-.63-.4-1.4-.4-1.4-.18-1.4-.4-.53-.4-1.18-.4a2,2,0,0,1-1.42-.4,2.94,2.94,0,0,0-1.8-.4,2.9,2.9,0,0,1-1.8-.4,3,3,0,0,0-1.83-.4c-.86,0-1.57-.18-1.57-.4s-.8-.4-1.78-.4a3.49,3.49,0,0,1-2-.4,3.48,3.48,0,0,0-2-.4,3.43,3.43,0,0,1-2-.4,4.79,4.79,0,0,0-2.43-.4c-1.19,0-2.17-.18-2.17-.4s-1-.4-2.3-.39l-2.3,0-1.52,2.43c-1.37,2.19-11,15.88-14.69,20.94-.8,1.1-3.15,4.38-5.2,7.3l-3.74,5.3h-5.43a158.14,158.14,0,0,0-19.42,1.61c-3.69.49-9.44,1.58-12.6,2.38-1,.25-2.48.56-3.31.67a3.5,3.5,0,0,0-1.72.57,2.08,2.08,0,0,1-1.37.36,2,2,0,0,0-1.4.4,1.69,1.69,0,0,1-1.23.4,4.33,4.33,0,0,0-1.68.35,18.79,18.79,0,0,1-2.29.82c-.88.27-2,.62-2.4.8a29.12,29.12,0,0,1-4,1.23c-.31,0,.23-.81,5.58-8.2,1.91-2.64,4.37-6.15,5.48-7.8s2.14-3.09,2.28-3.2a31.68,31.68,0,0,0,2-2.77c.95-1.4,2-2.84,2.25-3.2s1.6-2.16,2.92-4,2.84-4,3.4-4.8c3.2-4.41,7.56-10.67,7.73-11.1s.92-.5,1.94-.5a3.42,3.42,0,0,0,2-.4c.15-.25-.66-.4-2.16-.4a5.48,5.48,0,0,0-2.64.4m45.8,0c0,.22,1,.4,2.2.4s2.2-.18,2.2-.4-1-.4-2.2-.4-2.2.18-2.2.4m43.42,9.11c-.5.5-.17.89.75.89a1.69,1.69,0,0,1,1.23.4,1.64,1.64,0,0,0,1.22.4c.54,0,1,.18,1,.4s.44.4,1,.4a1.67,1.67,0,0,1,1.24.42.92.92,0,0,0,.92.28,1.22,1.22,0,0,1,1.07.36c.55.67,3.4,1.16,3.4.58,0-.24-.28-.44-.61-.44a3.4,3.4,0,0,1-1.3-.36c-2.52-1.28-7.25-2.92-7.67-2.66-.23.15-.42.09-.42-.11,0-.44-1.45-.9-1.78-.56m12.4,5a.64.64,0,0,0,.85.39.79.79,0,0,1,.87.13c.75,1,3.26,1.77,3.26,1,0-.22-.36-.4-.8-.4s-.8-.16-.8-.36-.41-.45-.9-.56-1.31-.35-1.81-.5c-.72-.22-.86-.15-.67.34m5.38,2.28c0,.22.36.4.8.4s.8.18.8.4.36.4.8.4.8.18.8.4a.47.47,0,0,0,.52.4c.73,0,2.67.94,2.67,1.3,0,.16.37.3.81.3s.8.18.8.4.36.4.8.4.8.18.8.4.36.4.8.4.8.18.8.4.36.4.8.4.8.18.8.4.27.4.6.4.6.18.6.4.27.4.6.4.6-.18.6-.4-.24-.4-.53-.4a2.89,2.89,0,0,1-1.38-.8,2.9,2.9,0,0,0-1.48-.8c-.34,0-.61-.18-.61-.4s-.36-.4-.8-.4-.8-.18-.8-.4-.35-.4-.77-.4-.83-.14-.9-.31a15.62,15.62,0,0,0-2.93-1.64c-1.54-.74-3.12-1.5-3.5-1.7-.91-.47-1.5-.45-1.5,0m16,7.82c0,.51,1.22,1.41,1.6,1.18.22-.14.51,0,.64.37a1,1,0,0,0,.8.63c.31,0,.56.18.56.4s.25.4.56.4a.8.8,0,0,1,.7.3,22.1,22.1,0,0,0,4.87,2.5c.17,0,.2-.19.06-.41a.47.47,0,0,0-.62-.18c-.21.13-.37.06-.37-.15s-1.38-1.31-3.8-2.67c-5-2.83-5-2.81-5-2.37m11.2,6.78c0,.51,1.59,1.72,1.81,1.38s-.73-1.58-1.38-1.58c-.24,0-.43.09-.43.2m2.4,1.7c0,.42,1.62,1.4,1.88,1.14s-.9-1.44-1.45-1.44c-.24,0-.43.13-.43.3m-90.39,5.22c6.87,1,15.46,2.64,18,3.51,1,.34,3.09,1,4.68,1.4s5.28,1.58,8.2,2.57c4.57,1.55,6.67,2.34,11.32,4.21,2.48,1,14.78,7.14,16.94,8.44a30.93,30.93,0,0,0,2.7,1.55c.19,0,9.22,6,14.16,9.37,10.6,7.3,23.44,20.05,33.05,32.83,2.37,3.14,8.95,12.81,8.95,13.14a29.14,29.14,0,0,0,1.56,2.76c42.2,69.45,21.74,164.92-45.76,213.57-8.83,6.35-29.49,17.93-32,17.93a14.47,14.47,0,0,0-1.89.75c-.93.42-2.77,1.15-4.09,1.64l-3.2,1.2c-22.64,8.86-59,11.43-85.09,6-7-1.45-9.52-2-11.22-2.56-.93-.3-2.5-.77-3.49-1.06-11.62-3.35-26.36-9.68-35.54-15.25a27.82,27.82,0,0,0-2.73-1.54c-.45,0-6.24-4.15-14.69-10.52a166.84,166.84,0,0,1-26.52-25.69c-4.65-5.81-5.16-6.49-12.2-16.33a15,15,0,0,1-1.5-2.33,33.71,33.71,0,0,0-1.87-3.38c-3.81-6.45-9.44-18.4-11.09-23.55L45.66,251c-1.36-4.19-2.77-9.07-3.41-11.9-6.11-26.75-6.42-51-1-75.4C52.35,114.25,87.13,72,133.85,51.25c1.87-.83,4-1.78,4.77-2.1,1.32-.58,13.67-4.61,16.33-5.34l2.8-.78c2.32-.66,6.68-1.67,10.5-2.42a139.51,139.51,0,0,1,17.37-2.35,32.59,32.59,0,0,0,5-.65c.59-.6,24.76.18,30.44,1M197.25,74c-1.22.89-2.17,1.9-2.19,2.33,0,.14.7-.44,1.58-1.27a5.13,5.13,0,0,1,3.1-1.67l1.51-.16-1.4,0a4.23,4.23,0,0,0-2.6.82m7.43,2.9a14.91,14.91,0,0,0,1.28,2c.6.62-.77-1.91-1.52-2.8-.36-.44-.26-.08.24.8m-10.76,1.2c-.25.55-.39,1-.31,1a3.86,3.86,0,0,0,.8-1c.36-.55.5-1,.31-1s-.55.45-.8,1m-1.82,3a8.47,8.47,0,0,0-1,1.89c0,.16.24-.06.54-.5,1.3-1.9,1.93-3,1.76-3a6.82,6.82,0,0,0-1.25,1.59M189.15,86c-1.58,2.47-5.65,9.14-6.29,10.3-.23.41-.2.47.09.2s1.84-2.74,3.58-5.6,3.48-5.7,3.88-6.3.64-1.1.53-1.1a14.57,14.57,0,0,0-1.79,2.5m21.45.5a9.67,9.67,0,0,0,1,1.6l.65.8-.39-.8a10.44,10.44,0,0,0-1.05-1.6l-.65-.8.4.8m2.4,4a9.67,9.67,0,0,0,1,1.6l.65.8-.39-.8a10.44,10.44,0,0,0-1.05-1.6l-.65-.8.4.8m-34.9,13.39c-1,1.51-1.44,2.6-.72,1.79a14.38,14.38,0,0,0,2-3.38,7.37,7.37,0,0,0-1.23,1.59m43.31.21c.67,1.3,1.22,2,1.22,1.6a3.79,3.79,0,0,0-.82-1.4c-.54-.67-.68-.74-.4-.2m-46.14,4.43a8.06,8.06,0,0,0-1.3,2.42c.1.1.54-.43,1-1.17s1.12-1.83,1.5-2.42.61-1.06.51-1.06a12.91,12.91,0,0,0-1.68,2.23m49.34.77c.67,1.3,1.22,2,1.22,1.6a3.79,3.79,0,0,0-.82-1.4c-.54-.67-.68-.73-.4-.2m-51.72,3.2c-.35.55-.93,1.49-1.29,2.1l-.65,1.1.81-1c1-1.15,2.21-3.22,2-3.22a3.33,3.33,0,0,0-.83,1m54.37,1.3c1.34,2.08,1.79,2.67,1.79,2.38a13.76,13.76,0,0,0-2.3-3.48c-.11,0,.12.49.51,1.1m-57.06,3c-.26.49-.74,1.35-1.06,1.9-.55,1-.55,1,.09.2.8-1,1.92-3,1.64-3-.11,0-.41.4-.67.9m59.2.5a9.67,9.67,0,0,0,1,1.6l.65.8-.39-.8a10.44,10.44,0,0,0-1-1.6l-.65-.8.4.8m-61.65,3.5a19.34,19.34,0,0,0-1.06,1.9c-.68,1.4.55-.1,1.4-1.7.7-1.33.48-1.46-.34-.2m-6.4,10.4c-.87,1.35-1.66,3-1.22,2.5a13.88,13.88,0,0,0,2-3.4c-.11,0-.45.4-.78.9m-3.12,5.2c-2.25,3.62-3,4.86-3.76,6-.39.6-.62,1.1-.51,1.1a22.14,22.14,0,0,0,2.18-3.1c2.9-4.59,3.79-6.1,3.58-6.1a10.94,10.94,0,0,0-1.49,2.1m85.43,4.2c1.34,2.08,1.79,2.67,1.79,2.38a13.76,13.76,0,0,0-2.3-3.48c-.11,0,.12.49.51,1.1m-91.83,6.18c-.94,1.6-2,3.37-2.32,3.92s-.42.82-.18.6c.66-.63,4.56-7.09,4.38-7.27a12.93,12.93,0,0,0-1.88,2.75m94.77-1.48a9.67,9.67,0,0,0,1,1.6l.65.8-.39-.8a10.44,10.44,0,0,0-1.05-1.6l-.65-.8.4.8m-99.34,8.83c-.37.57-.59,1.13-.47,1.24s.49-.36.84-1c.78-1.5.56-1.62-.37-.2m-2.4,4c-.37.57-.61,1.1-.52,1.19s.46-.38.85-1c.86-1.46.6-1.57-.33-.15m110.15.77c.67,1.3,1.22,2,1.22,1.6a3.79,3.79,0,0,0-.82-1.4c-.54-.67-.68-.74-.4-.2m-113.34,4.43a8.06,8.06,0,0,0-1.3,2.42c.1.1.54-.43,1-1.17s1.12-1.83,1.5-2.42.61-1.06.51-1.06a12.91,12.91,0,0,0-1.68,2.23m116.54.77c.67,1.3,1.22,2,1.22,1.6a3.79,3.79,0,0,0-.82-1.4c-.54-.67-.68-.73-.4-.2m-118.92,3.2c-.35.55-.93,1.49-1.29,2.1l-.65,1.1.81-1c1-1.15,2.21-3.22,2-3.22a3.33,3.33,0,0,0-.83,1m121.31.8a9.67,9.67,0,0,0,1,1.6l.65.8-.39-.8a10.44,10.44,0,0,0-1-1.6l-.65-.8.4.8m-124,3.46c-.28.52-.76,1.34-1.08,1.84s-.5.9-.39.9c.33,0,2.37-3.27,2.16-3.47s-.42.22-.69.73m-2.47,4a19.34,19.34,0,0,0-1.06,1.9c-.68,1.4.55-.1,1.4-1.7.7-1.33.48-1.46-.34-.2m-3.65,5.89c-1.13,1.71-1.43,2.72-.41,1.41.74-1,1.84-3,1.62-3a8,8,0,0,0-1.21,1.59m138.67.61a13.05,13.05,0,0,0,1.28,2c.37.44.26.08-.23-.8-1.09-1.95-1.91-2.88-1.05-1.2M128.1,185.45a8.47,8.47,0,0,0-1,1.89c0,.16.24-.06.54-.5,1.3-1.9,1.93-3,1.76-3a6.82,6.82,0,0,0-1.25,1.59m2.41,37.91c-.1.16.41.3,1.14.3s1.24-.14,1.13-.3a2.3,2.3,0,0,0-2.27,0m8.14,4.62a7.38,7.38,0,0,0,1.46,1.3c.81.62,1.35.92,1.19.67-.31-.52-2.65-2.25-2.65-2m-5.38,2.58c2.14,3.29,2.7,4.1,2.88,4.1s-.13-.5-.53-1.1c-2.13-3.3-2.7-4.1-2.87-4.1s.13.49.52,1.1m11.78,2.22a7.74,7.74,0,0,0,1.46,1.3c.81.62,1.35.92,1.19.67-.31-.52-2.65-2.25-2.65-2m8.54,6.59c.32.51,2.66,2.24,2.66,2a7.61,7.61,0,0,0-1.47-1.3c-.81-.61-1.34-.91-1.19-.66M4.25,245.66c0,.77.18,1.4.4,1.4s.4-.63.4-1.4-.18-1.4-.4-1.4-.4.63-.4,1.4m.8,3.4c0,.66.18,1.2.4,1.2s.4-.54.4-1.2-.18-1.2-.4-1.2-.4.54-.4,1.2m.8,2.77a2.08,2.08,0,0,0,.4,1.43c.23.14.4-.33.4-1.18s-.18-1.42-.4-1.42-.4.52-.4,1.17m1.06,1.89c-.42.42-.31,2.14.14,2.14.22,0,.4-.54.4-1.2,0-1.25-.08-1.39-.54-.94M175.45,256a7.74,7.74,0,0,0,1.46,1.3c.81.62,1.35.92,1.19.67-.31-.51-2.65-2.25-2.65-2m-168,1.48c0,.66.18,1.2.4,1.2s.4-.54.4-1.2-.18-1.2-.4-1.2-.4.54-.4,1.2m143.82.3c2.14,3.29,2.7,4.1,2.88,4.1s-.13-.5-.53-1.1c-2.13-3.3-2.7-4.1-2.87-4.1s.13.49.52,1.1m27.38.62a7.38,7.38,0,0,0,1.46,1.3c.81.62,1.35.92,1.19.67-.31-.51-2.65-2.25-2.65-2M8.25,260.06c0,.55.18,1,.4,1s.4-.45.4-1-.18-1-.4-1-.4.45-.4,1m.4,1.76c0,.69.48,1.64.84,1.64.2,0,.36-.45.36-1s-.23-1-.6-1-.6.16-.6.36m146.58,1.94a9.37,9.37,0,0,0,1.29,1.7c.29,0-1.24-2.44-1.84-2.93-.31-.26-.07.29.55,1.23m-145.47.31c-.32.33.66,3.42,1.11,3.48.21,0,.43-.25.51-.62s-.07-.67-.3-.67-.43-.54-.43-1.2c0-1.12-.36-1.51-.89-1m177.43.89a8,8,0,0,0,1.54,1.36c.69.49,1.13.69,1,.43a7.8,7.8,0,0,0-1.55-1.35c-.69-.5-1.13-.69-1-.44m3.2,2.41c.32.51,2.66,2.24,2.66,2a7.61,7.61,0,0,0-1.47-1.3c-.81-.62-1.34-.91-1.19-.66M11.05,268.83a1.07,1.07,0,0,0,.4.83,1.32,1.32,0,0,1,.4,1,4.19,4.19,0,0,0,.4,1.57l.8,1.59a3.9,3.9,0,0,1,.4,1.4.59.59,0,0,0,.56.61c.36,0,.49-.28.35-.8s-.38-.8-.59-.8-.27-.34-.14-.76,0-.84-.34-1a.78.78,0,0,1-.38-1,1,1,0,0,0-.23-1,1.67,1.67,0,0,1-.43-1.25c0-.6-.23-1-.6-1a.58.58,0,0,0-.6.57m182.54.93c.32.52,2.66,2.25,2.66,2a7.61,7.61,0,0,0-1.47-1.3c-.81-.61-1.34-.92-1.19-.67m3.46,2.64a4.55,4.55,0,0,0,1.2,1.06c.66.47,1.2.76,1.2.65a4.6,4.6,0,0,0-1.2-1.05c-.66-.47-1.2-.77-1.2-.66m-30.13,9.09a8.5,8.5,0,0,0,1.29,1.7c.32.25.07-.3-.55-1.23-1.29-2-1.8-2.29-.74-.47m2.35,3.47c2.42,3.72,3.51,5.3,3.68,5.3s-.13-.5-.53-1.1c-2.41-3.73-3.51-5.3-3.68-5.3s.14.49.53,1.1m16.4,24.8c2.42,3.72,3.51,5.3,3.68,5.3s-.13-.5-.53-1.1c-2.41-3.73-3.51-5.3-3.68-5.3s.14.49.53,1.1" style="fill:#fbeb53;fill-rule:evenodd"/><path id="path2" d="M190.62,37.61a32.59,32.59,0,0,1-5,.65,139.51,139.51,0,0,0-17.37,2.35c-3.82.75-8.18,1.76-10.5,2.42l-2.8.78c-2.66.73-15,4.76-16.33,5.34C103.42,64.46,78,86.41,59.75,117.3A155.6,155.6,0,0,0,37.6,201.17c.36,15.64,1.28,23.14,4.65,37.89.64,2.83,2,7.71,3.41,11.9l2.05,6.3c1.65,5.15,7.28,17.1,11.09,23.55a33.71,33.71,0,0,1,1.87,3.38,15,15,0,0,0,1.5,2.33c7,9.84,7.55,10.52,12.2,16.33a166.84,166.84,0,0,0,26.52,25.69c8.45,6.37,14.24,10.52,14.69,10.52a27.82,27.82,0,0,1,2.73,1.54c9.18,5.57,23.92,11.9,35.54,15.25,1,.29,2.56.76,3.49,1.06,1.7.53,4.23,1.11,11.22,2.56,22.08,4.59,51.73,3.6,73.49-2.45,3.24-.9,10.43-3.11,11.6-3.57l3.2-1.2c1.32-.49,3.16-1.22,4.09-1.64a14.47,14.47,0,0,1,1.89-.75c2.53,0,23.19-11.58,32-17.93,67.5-48.65,88-144.12,45.76-213.57a29.14,29.14,0,0,1-1.56-2.76c0-.33-6.58-10-8.95-13.14-9.61-12.78-22.45-25.53-33.05-32.83-4.94-3.39-14-9.37-14.16-9.37a30.93,30.93,0,0,1-2.7-1.55c-2.16-1.3-14.46-7.43-16.94-8.44-4.65-1.87-6.75-2.66-11.32-4.21-2.92-1-6.61-2.15-8.2-2.57s-3.69-1.06-4.68-1.4c-2.53-.87-11.12-2.54-18-3.51-5.68-.79-29.85-1.57-30.44-1M335.85,52.16c0,.49,2.17,3.85,3.35,5.17.55.62,1.5,1.8,2.12,2.61s2.46,3.25,4.1,5.4c4.74,6.25,5.8,7.71,8.13,11.32a191.84,191.84,0,0,1,10.85,19c3.45,6.81,4.08,8.15,5.67,12,.36.88,1,2.32,1.38,3.2,2.75,6.09,7.71,22.15,10,32.4,5,22.46,5.9,49.59,2.35,72.8-2.34,15.24-7.89,35.4-12.59,45.71a22.4,22.4,0,0,0-1,2.3c0,.81-6.22,13.54-9.28,19a202.5,202.5,0,0,1-43.62,53.88,208.44,208.44,0,0,1-44.3,29.24c-5.55,2.65-8.7,4.08-9,4.08a22.4,22.4,0,0,0-2.3,1c-6.52,3-22.31,7.89-32.71,10.19l-3.8.84c-.88.2-2.86.56-4.4.8l-5,.8c-28.59,4.68-63.06,1.78-92.08-7.75a142.37,142.37,0,0,1-13.52-4.94c-5.35-2.21-5.83-2.42-12.64-5.77-7.11-3.48-7.09-3.48-8.7-.93-.63,1-1.3,1.7-1.5,1.57s-.36,0-.36.2.32.43.71.43a1.93,1.93,0,0,1,1.29.8,1.84,1.84,0,0,0,1.2.8,1.89,1.89,0,0,1,1.2.8,1.81,1.81,0,0,0,1.08.8.47.47,0,0,1,.52.4c0,.22.27.4.6.4s.6.13.6.3.58.55,1.3.87a6,6,0,0,1,1.5.84,17,17,0,0,0,4.81,2.39,1.89,1.89,0,0,1,1.19.8,1.89,1.89,0,0,0,1.28.8c.4,0,.72.18.72.4s.36.4.8.4.8.18.8.4.36.4.8.4.8.14.8.32.63.57,1.4.88,1.4.69,1.4.87.36.33.8.33.8.18.8.4.45.4,1,.4,1,.18,1,.4.35.4.77.4a1.35,1.35,0,0,1,1,.4,1.31,1.31,0,0,0,1,.4c.43,0,.78.18.78.4s.36.4.8.4.8.18.8.4.36.4.8.4.8.18.8.4.54.4,1.2.4,1.2.18,1.2.4.36.4.8.4.8.18.8.4.45.4,1,.4,1,.18,1,.4.36.4.8.4a4.29,4.29,0,0,1,1.6.4l1.59.8a4.24,4.24,0,0,0,1.58.4,1.35,1.35,0,0,1,1,.4,1.6,1.6,0,0,0,1.2.4,1.61,1.61,0,0,1,1.18.37,6,6,0,0,0,2.42.64c1.21.16,2.2.44,2.2.63s.63.36,1.4.36,1.4.18,1.4.4.54.4,1.2.4,1.2.18,1.2.4.72.4,1.6.4,1.6.18,1.6.4.72.4,1.6.4,1.6.18,1.6.4.72.4,1.6.4,1.6.18,1.6.4.9.4,2,.4,2,.18,2,.4,1,.4,2.2.4,2.2.18,2.2.4,1,.4,2.17.4a4.79,4.79,0,0,1,2.43.4.85.85,0,0,0,.64.4c.22,0,.29-.18.16-.4s-.06-.4.17-.4a.41.41,0,0,1,.43.4c0,.22,1,.4,2.16.4,1.38,0,2.23.18,2.34.5.24.73,49.95.73,50.2,0,.11-.34,1.07-.5,2.91-.5a6.89,6.89,0,0,0,3-.4,3,3,0,0,1,1.82-.4c.87,0,1.58-.18,1.58-.4s.31-.4.7-.4c.59,0,.61.07.1.4s-.51.39.06.39a.87.87,0,0,0,.81-.41c.07-.22,1-.43,2-.45s1.9-.19,1.9-.39.8-.34,1.77-.34a3.55,3.55,0,0,0,2-.4,3,3,0,0,1,1.82-.4c.87,0,1.58-.18,1.58-.4s.72-.4,1.6-.4,1.6-.18,1.6-.4.72-.4,1.6-.4,1.6-.18,1.6-.4.54-.4,1.2-.4,1.2-.18,1.2-.4.63-.4,1.4-.4,1.4-.16,1.4-.36,1-.47,2.19-.63a5.84,5.84,0,0,0,2.42-.64,1.63,1.63,0,0,1,1.19-.37,1.64,1.64,0,0,0,1.2-.4,1.33,1.33,0,0,1,1-.4,3.74,3.74,0,0,0,1.47-.36c.38-.19,1.24-.57,1.9-.84s1.51-.66,1.89-.85a4,4,0,0,1,1.5-.35c.44,0,.81-.18.81-.4s.36-.4.8-.4.8-.18.8-.4.54-.4,1.2-.4,1.2-.18,1.2-.4.36-.4.8-.4.8-.18.8-.4.36-.4.8-.4.8-.18.8-.4.35-.4.77-.4a1.35,1.35,0,0,0,1-.4,1.64,1.64,0,0,1,1.22-.4c.54,0,1-.18,1-.4s.36-.4.8-.4.8-.18.8-.4.36-.4.8-.4.8-.15.8-.33.62-.57,1.38-.87,1.29-.69,1.17-.87.08-.33.42-.33a.58.58,0,0,0,.63-.5c0-.34.14-.3.4.1s.39.43.39.1.37-.5.81-.5.8-.18.8-.4.32-.4.71-.4a1.93,1.93,0,0,0,1.29-.8,1.82,1.82,0,0,1,1.13-.8,16.42,16.42,0,0,0,4.8-2.5c.07-.17.4-.3.72-.3a2.63,2.63,0,0,0,1.37-.74,10.22,10.22,0,0,1,1.88-1.3,7.29,7.29,0,0,0,1.74-1.26,2.1,2.1,0,0,1,1.22-.7,1.86,1.86,0,0,0,1.14-.8,1.84,1.84,0,0,1,1.2-.8,1.89,1.89,0,0,0,1.2-.8,1.84,1.84,0,0,1,1.2-.8,1.89,1.89,0,0,0,1.2-.8,1.83,1.83,0,0,1,1-.8,4.85,4.85,0,0,0,1.7-1.2,4.85,4.85,0,0,1,1.7-1.2,4.11,4.11,0,0,0,1.57-1.2,4,4,0,0,1,1.59-1.2,5.18,5.18,0,0,0,1.83-1.4,6.15,6.15,0,0,1,1.71-1.4,16.86,16.86,0,0,0,2.87-2.4,16.45,16.45,0,0,1,2.87-2.4,47.12,47.12,0,0,0,4.75-4.5c5.29-5.41,4.07-4.19,9.48-9.48a47.12,47.12,0,0,0,4.5-4.75,16.45,16.45,0,0,1,2.4-2.87,16.86,16.86,0,0,0,2.4-2.87,6.15,6.15,0,0,1,1.4-1.71,5.27,5.27,0,0,0,1.4-1.83,4,4,0,0,1,1.2-1.59,4.11,4.11,0,0,0,1.2-1.57,4.85,4.85,0,0,1,1.2-1.7,4.77,4.77,0,0,0,1.2-1.71,1.84,1.84,0,0,1,.8-1,1.89,1.89,0,0,0,.8-1.2,1.84,1.84,0,0,1,.8-1.2,1.89,1.89,0,0,0,.8-1.2,1.84,1.84,0,0,1,.8-1.2,1.89,1.89,0,0,0,.8-1.2,1.84,1.84,0,0,1,.8-1.2,1.87,1.87,0,0,0,.8-1.06.69.69,0,0,1,.3-.61,10.41,10.41,0,0,0,2-3.23c.12-.39.38-.7.57-.7a.41.41,0,0,0,.36-.44,4.22,4.22,0,0,1,.77-1.53,8.12,8.12,0,0,0,1.07-2.25,5.42,5.42,0,0,1,1-1.95,2.61,2.61,0,0,0,.74-1.31.47.47,0,0,1,.4-.52c.22,0,.4-.36.4-.8s.18-.8.4-.8.4-.36.4-.8.14-.8.32-.8.57-.63.88-1.4.69-1.4.87-1.4.33-.36.33-.8.18-.8.4-.8.4-.36.4-.8.18-.8.4-.8.4-.35.4-.78a1.31,1.31,0,0,1,.4-1,1.69,1.69,0,0,0,.4-1.23c0-.53.18-1,.4-1s.4-.36.4-.8.18-.8.4-.8.4-.36.4-.8.18-.8.4-.8.4-.54.4-1.2.18-1.2.4-1.2.4-.36.4-.8.18-.8.4-.8.4-.37.4-.81a4,4,0,0,1,.35-1.5c.19-.38.58-1.23.85-1.89s.65-1.52.84-1.9a3.74,3.74,0,0,0,.36-1.47,1.32,1.32,0,0,1,.4-1,1.56,1.56,0,0,0,.4-1.15,2.16,2.16,0,0,1,.36-1.27,6.72,6.72,0,0,0,.62-2.38,4.23,4.23,0,0,1,.64-2.14c.21-.07.38-.75.38-1.5s.18-1.36.4-1.36.4-.54.4-1.2.18-1.2.4-1.2.4-.72.4-1.6.18-1.6.4-1.6.4-.72.4-1.6.18-1.6.4-1.6.4-.72.4-1.6.18-1.6.4-1.6.4-.9.4-2,.18-2,.4-2,.4-.9.4-2,.18-2,.4-2,.4-1.06.4-2.38a5.4,5.4,0,0,1,.4-2.62,6.89,6.89,0,0,0,.4-3c0-1.84.16-2.8.5-2.91s.5-5.39.5-24.5-.11-24.37-.5-24.5a.71.71,0,0,1-.5-.56c0-.22.18-.28.4-.14s.4.05.4-.18a.41.41,0,0,0-.4-.42c-.23,0-.4-1.2-.4-2.78a6.93,6.93,0,0,0-.4-3,5.48,5.48,0,0,1-.4-2.63c0-1.31-.18-2.37-.4-2.37s-.4-.9-.4-2-.18-2-.4-2-.4-.9-.4-2-.18-2-.4-2-.4-.72-.4-1.6-.18-1.6-.4-1.6-.4-.72-.4-1.6-.18-1.6-.4-1.6-.4-.72-.4-1.6-.18-1.6-.4-1.6-.4-.54-.4-1.2-.18-1.2-.4-1.2-.4-.62-.4-1.37-.17-1.43-.38-1.5a4.14,4.14,0,0,1-.64-2.13,6.66,6.66,0,0,0-.62-2.38,2.22,2.22,0,0,1-.36-1.28,1.51,1.51,0,0,0-.4-1.14,1.35,1.35,0,0,1-.4-1,4.24,4.24,0,0,0-.4-1.58l-.8-1.59a4.29,4.29,0,0,1-.4-1.6c0-.44-.18-.8-.4-.8s-.4-.45-.4-1-.18-1-.4-1-.4-.36-.4-.8-.18-.8-.4-.8-.4-.54-.4-1.2-.18-1.2-.4-1.2-.4-.36-.4-.8-.18-.8-.4-.8-.4-.36-.4-.8-.18-.8-.4-.8-.4-.28-.4-.61a3.9,3.9,0,0,0-.4-1.4l-.8-1.59a3.9,3.9,0,0,1-.4-1.4c0-.33-.18-.6-.4-.6s-.4-.36-.4-.8-.15-.8-.33-.8-.57-.63-.87-1.4-.7-1.4-.88-1.4-.32-.36-.32-.8-.18-.8-.4-.8-.4-.36-.4-.8-.18-.8-.4-.8-.4-.32-.4-.72a1.89,1.89,0,0,0-.8-1.28,1.87,1.87,0,0,1-.8-1.15c0-.78-2.09-4.85-2.49-4.85-.17,0-.31-.36-.31-.8s-.18-.8-.4-.8-.4-.27-.4-.6-.18-.6-.4-.6-.4-.27-.4-.6-.18-.6-.4-.6a.47.47,0,0,1-.4-.52,1.81,1.81,0,0,0-.8-1.08,1.89,1.89,0,0,1-.8-1.2,1.84,1.84,0,0,0-.8-1.2,1.89,1.89,0,0,1-.8-1.2,1.84,1.84,0,0,0-.8-1.2,1.89,1.89,0,0,1-.8-1.2,1.84,1.84,0,0,0-.8-1.2,1.87,1.87,0,0,1-.8-1.13,3.83,3.83,0,0,0-1.2-1.67,4.06,4.06,0,0,1-1.2-1.6,3.93,3.93,0,0,0-1.2-1.6,4.25,4.25,0,0,1-1.2-1.55,5.66,5.66,0,0,0-1.4-1.83,6.21,6.21,0,0,1-1.4-1.76,14.1,14.1,0,0,0-2.2-2.65,13.77,13.77,0,0,1-2.2-2.65c0-.29-2.82-3.16-9.63-9.82-.2-.19-1.62-1.66-3.16-3.26s-2.81-2.77-2.81-2.58M202.24,73.9c1.39.78,2.87,2.83,6,8.39.35.61,1.36,2.25,2.25,3.64,2,3.06,7.91,12.79,9,14.72.43.77,1.31,2.15,1.94,3.08a10.35,10.35,0,0,1,1.16,1.92,19,19,0,0,0,1.6,2.61,19.21,19.21,0,0,1,1.6,2.6,10,10,0,0,0,1.15,1.93c.63.92,1.51,2.3,1.95,3.07.91,1.6,7.34,12.15,10.49,17.2,1.16,1.87,2.47,4,2.91,4.8s1.11,1.85,1.5,2.4,1.06,1.63,1.5,2.4,2.19,3.65,3.9,6.4,3.46,5.62,3.9,6.39,1.31,2.15,1.94,3.08a10.35,10.35,0,0,1,1.16,1.92,19,19,0,0,0,1.6,2.61,19.65,19.65,0,0,1,1.6,2.58,16.09,16.09,0,0,0,1.34,2.32c.74,1.15,2.34,3.72,3.54,5.7s3.54,5.76,5.17,8.4c5.34,8.65,5.3,8.85-3.05,15.22-5.2,4-14.34,10.88-20.8,15.76-3.08,2.32-5.87,4.44-6.2,4.71s-6.18,4.74-13,9.91c-15.43,11.71-17.19,13.05-20.77,15.84-6.09,4.75-4.5,5.37-23.43-9.08-9.18-7-14.83-11.31-19.64-14.95l-12-9.12-14.76-11.2c-10.46-7.91-11-8.87-7.53-14a11.21,11.21,0,0,0,1.13-1.9,25.58,25.58,0,0,1,1.75-2.93c1.84-2.83,7.78-12.5,9.15-14.89.43-.77,1.31-2.15,1.94-3.07a7.83,7.83,0,0,0,1.16-2.11.41.41,0,0,1,.4-.42.42.42,0,0,0,.4-.44,4.2,4.2,0,0,1,.75-1.5c.41-.59,1.11-1.69,1.55-2.46s2.74-4.55,5.1-8.4,4.79-7.81,5.39-8.8,2.05-3.33,3.22-5.2,2.31-3.81,2.55-4.3.57-.9.74-.9.3-.19.3-.41a11.68,11.68,0,0,1,1.35-2.5c1.59-2.45,7.59-12.27,8.75-14.29.43-.77,1.31-2.15,1.94-3.07a10.63,10.63,0,0,0,1.16-1.93,18.55,18.55,0,0,1,1.6-2.6,13.5,13.5,0,0,0,1.6-2.78.41.41,0,0,1,.4-.42.39.39,0,0,0,.4-.37c0-.38,5.28-9.17,8.24-13.73a28.43,28.43,0,0,0,1.76-2.89c0-.18,2.88-4.83,3.49-5.61a11.92,11.92,0,0,0,.82-1.4,4.87,4.87,0,0,1,6.88-2m-68.66,150a13.3,13.3,0,0,1,1.47,1.12,16.11,16.11,0,0,0,1.6,1.2,19.52,19.52,0,0,1,1.6,1.18c.11.13,2.36,1.86,5,3.85,9.2,7,15.2,11.53,15.4,11.77a16.11,16.11,0,0,0,1.6,1.2,19.52,19.52,0,0,1,1.6,1.18c.11.13,2.36,1.86,5,3.84l9.9,7.49c5.08,3.87,11.84,9,19.16,14.56,4.61,3.5,4,3.45,7.61.63,1.61-1.27,3.92-3,5.13-4,3-2.28,14.86-11.28,15.6-11.87.33-.26,2.85-2.17,5.6-4.24,8.9-6.71,18.19-13.79,18.4-14s3.44-2.67,7.4-5.66,8.19-6.18,9.4-7.11c2.56-2,4.12-2.11,4.32-.43.08.77-1.83,3.94-7.7,12.77-4.3,6.46-7.82,11.88-7.82,12a.52.52,0,0,1-.3.43,43.34,43.34,0,0,0-3.7,5.35c-.16.32-11.49,17.44-17.43,26.34-.43.63-1,1.44-1.18,1.8-.5.78-21.13,31.87-26.58,40-3.74,5.62-4.66,6.51-5.87,5.7-.4-.28-8.64-12.65-37.89-56.9-5.31-8-14-21.17-19.35-29.2-12.26-18.43-11.9-17.84-11.36-19.05s1.74-1.23,3.39-.07" style="fill:#fbd304;fill-rule:evenodd"/><path id="path3" d="M199.85,198.46v47.4h.9c.75,0,3.73-1.95,6.3-4.1.33-.28,1.23-.94,2-1.48a17.31,17.31,0,0,0,1.6-1.21,16.7,16.7,0,0,1,1.6-1.22c.77-.53,1.67-1.19,2-1.46,1.82-1.49,6.79-5.29,8-6.12a16.11,16.11,0,0,0,1.6-1.2,16.7,16.7,0,0,1,1.6-1.22,36,36,0,0,0,3.34-2.58c.25-.22,1.54-1.21,2.86-2.2s2.49-1.89,2.6-2,2.36-1.81,5-3.77,4.89-3.68,5-3.82a14.18,14.18,0,0,1,1.6-1.21,16.11,16.11,0,0,0,1.6-1.2,16.7,16.7,0,0,1,1.6-1.22,32.29,32.29,0,0,0,3.34-2.6c.25-.22,1.09-.85,1.86-1.38a16.11,16.11,0,0,0,1.6-1.2,14.6,14.6,0,0,1,1.6-1.2,16.11,16.11,0,0,0,1.6-1.2c.2-.24,4.5-3.51,7.88-6,4.16-3.06,5.32-4.27,5.32-5.5,0-.5-.14-.91-.3-.91s-13.24-6.93-18.5-9.9c-1-.56-2.88-1.58-4.2-2.26a28.18,28.18,0,0,1-2.6-1.43,14.93,14.93,0,0,0-1.8-1c-2.83-1.47-8.77-4.66-10-5.38-.66-.39-3-1.65-5.2-2.81-5-2.64-5.56-2.94-5.8-3.19a20.16,20.16,0,0,0-2.2-1.19,21.37,21.37,0,0,1-2.2-1.2c-.21-.21-2.16-1.27-6.2-3.36a26.18,26.18,0,0,1-2.6-1.45c-.11-.11-1.91-1.09-4-2.17s-4.39-2.29-5.12-2.69a9,9,0,0,0-1.5-.73c-.1,0-.18,21.33-.18,47.4" style="fill:#655d63;fill-rule:evenodd"/><path id="path4" d="M196.65,152.09c-1.87,1-4.12,2.23-5,2.74s-3.39,1.87-5.57,3-4.62,2.46-5.4,2.91-2.6,1.44-4,2.2c-2.46,1.31-4.65,2.51-8.8,4.8-1,.55-4.14,2.25-7,3.8s-6,3.25-7,3.81c-1.95,1.09-5.31,2.89-8.8,4.73a21.51,21.51,0,0,0-2.4,1.38,23.8,23.8,0,0,1-2.4,1.3c-1.21.6-2.92,1.51-3.8,2s-3.22,1.79-5.2,2.85c-6.22,3.31-6.25,3.25,4.61,11.5l14.75,11.2,12,9.12c4.81,3.64,10.46,7.94,19.64,14.95,18.93,14.45,17.34,13.83,23.43,9.08,3.58-2.79,5.34-4.13,20.77-15.84,6.82-5.17,12.67-9.63,13-9.91s3.12-2.39,6.2-4.71c6.46-4.88,15.6-11.8,20.8-15.76,6.31-4.82,7.41-6.26,5.95-7.87a2.43,2.43,0,0,0-1-.75,31.45,31.45,0,0,1-3.43-1.74c-4.24-2.34-12.34-6.7-16.55-8.91a25.16,25.16,0,0,1-2.4-1.36,20.16,20.16,0,0,0-2.2-1.19,21.37,21.37,0,0,1-2.2-1.2,20.54,20.54,0,0,0-2-1.16c-5.5-2.9-8.18-4.35-11.6-6.24-2.09-1.16-5.24-2.88-7-3.81-4.19-2.23-6.79-3.64-9-4.89-1.77-1-3.26-1.8-10.78-5.86-4.5-2.43-3.51-2.4-7.62-.21m4.88-.3c.73.4,3,1.61,5.12,2.69s3.89,2.06,4,2.17a26.18,26.18,0,0,0,2.6,1.45c4,2.09,6,3.15,6.2,3.36a21.37,21.37,0,0,0,2.2,1.2,20.16,20.16,0,0,1,2.2,1.19c.24.25.78.55,5.8,3.19,2.2,1.16,4.54,2.42,5.2,2.81,1.23.72,7.17,3.91,10,5.38a14.93,14.93,0,0,1,1.8,1,28.18,28.18,0,0,0,2.6,1.43c1.32.68,3.21,1.7,4.2,2.26,5.26,3,18.2,9.9,18.5,9.9s.3.41.3.91c0,1.23-1.16,2.44-5.32,5.5-3.38,2.49-7.68,5.76-7.88,6a16.11,16.11,0,0,1-1.6,1.2,14.6,14.6,0,0,0-1.6,1.2,16.11,16.11,0,0,1-1.6,1.2c-.77.53-1.61,1.16-1.86,1.38a32.29,32.29,0,0,1-3.34,2.6,16.7,16.7,0,0,0-1.6,1.22,16.11,16.11,0,0,1-1.6,1.2,14.18,14.18,0,0,0-1.6,1.21c-.11.14-2.36,1.85-5,3.82s-4.89,3.65-5,3.77-1.28,1-2.6,2-2.61,2-2.86,2.2a36,36,0,0,1-3.34,2.58,16.7,16.7,0,0,0-1.6,1.22,16.11,16.11,0,0,1-1.6,1.2c-1.21.83-6.18,4.63-8,6.12-.33.27-1.23.93-2,1.46a16.7,16.7,0,0,0-1.6,1.22,17.31,17.31,0,0,1-1.6,1.21c-.77.54-1.67,1.2-2,1.48-2.57,2.15-5.55,4.1-6.3,4.1h-.9v-47.4c0-26.07.08-47.4.18-47.4a9,9,0,0,1,1.5.73m63.52,73.32c-1.21.93-5.44,4.12-9.4,7.11s-7.29,5.54-7.4,5.66-9.5,7.3-18.4,14c-2.75,2.07-5.27,4-5.6,4.24l-6.81,5.2-10.12,7.73c-2.15,1.65-4.7,3.54-5.67,4.2l-1.76,1.2,0,27.53c0,21.66.08,27.5.47,27.37a47.91,47.91,0,0,0,4.34-5.93c5.13-7.7,26-39.2,26.56-40,.22-.36.75-1.17,1.18-1.8,5.94-8.9,17.27-26,17.43-26.34a43.34,43.34,0,0,1,3.7-5.35.52.52,0,0,0,.3-.43c0-.16,3.52-5.58,7.82-12,5.87-8.83,7.78-12,7.7-12.77-.2-1.68-1.76-1.52-4.32.43" style="fill:#746c7b;fill-rule:evenodd"/></g></g></g></svg>