<svg width="54" height="55" viewBox="0 0 54 55" fill="none" xmlns="http://www.w3.org/2000/svg">
<path fill-rule="evenodd" clip-rule="evenodd" d="M21.6827 4.09741C21.8905 4.24737 22.2255 4.59181 22.2255 4.59181C23.526 5.81072 25.4848 8.84242 26.1139 10.3805C26.127 10.3805 26.5001 11.2951 26.5147 11.7301V11.788C26.5147 12.4546 26.1417 13.0782 25.5419 13.3974C25.2946 13.529 24.6932 13.6514 24.403 13.7104C24.3069 13.73 24.245 13.7426 24.2413 13.7463C23.3841 13.8769 22.0689 13.9631 20.625 13.9631C19.1095 13.9631 17.7373 13.8769 16.8932 13.7166C16.8785 13.7166 16.1076 13.5577 15.8501 13.4553C15.4785 13.2964 15.164 13.0054 14.9636 12.6432C14.8202 12.3537 14.75 12.0478 14.75 11.7301C14.7632 11.3961 14.9782 10.7725 15.0777 10.526C15.7067 8.90033 17.7651 5.79588 19.0232 4.60666C19.1538 4.47402 19.3026 4.33508 19.4061 4.23839C19.4613 4.18681 19.5036 4.14725 19.5235 4.12711C19.838 3.88065 20.2242 3.75 20.6397 3.75C21.0098 3.75 21.3814 3.8658 21.6827 4.09741ZM35.0358 12.7022C35.0358 13.357 34.5135 13.887 33.8684 13.887C33.2232 13.887 32.701 13.357 32.701 12.7022L32.3791 6.97869C32.3791 6.14429 33.0462 5.46875 33.8684 5.46875C34.6905 5.46875 35.3562 6.14429 35.3562 6.97869L35.0358 12.7022ZM38.6499 16.5445C39.0215 16.7048 39.336 16.9944 39.5364 17.3566C39.6798 17.6461 39.75 17.952 39.75 18.2712C39.7368 18.6038 39.5218 19.2288 39.4208 19.4753C38.7933 21.0996 36.7335 24.2041 35.4768 25.3948C35.3484 25.5242 35.2025 25.6604 35.0992 25.7567L35.0991 25.7568C35.0414 25.8107 34.997 25.8521 34.9765 25.8729C34.6605 26.1193 34.2758 26.25 33.8618 26.25C33.4888 26.25 33.1172 26.1342 32.8173 25.9011C32.6095 25.7526 32.2745 25.4082 32.2745 25.4082C30.9726 24.1907 29.0152 21.1575 28.3861 19.6193C28.3715 19.6193 27.9999 18.7062 27.9853 18.2712V18.2133C27.9853 17.5452 28.3569 16.9216 28.9581 16.6024C29.2049 16.4722 29.8044 16.3495 30.0952 16.2899L30.0952 16.2899C30.1923 16.27 30.255 16.2572 30.2587 16.2535C31.1159 16.1228 32.4311 16.0367 33.875 16.0367C35.3905 16.0367 36.7627 16.1228 37.6068 16.2832C37.62 16.2832 38.3924 16.442 38.6499 16.5445ZM20.6319 16.1132C19.9868 16.1132 19.4645 16.6432 19.4645 17.2979L19.1427 23.0213C19.1427 23.8557 19.8098 24.5312 20.6319 24.5312C21.4541 24.5312 22.1197 23.8557 22.1197 23.0213L21.7993 17.2979C21.7993 16.6432 21.2771 16.1132 20.6319 16.1132Z" fill="#3063E9"/>
<rect y="44" width="54" height="20.1356" rx="10.0678" fill="#3063E9"/>
</svg>
