<svg width="40" height="40" viewBox="0 0 40 40" fill="none" xmlns="http://www.w3.org/2000/svg">
<path d="M20 0C8.954 0 0 8.954 0 20C0 31.046 8.954 40 20 40C31.046 40 40 31.046 40 20C40 8.954 31.046 0 20 0Z" fill="url(#paint0_linear_143_3144)"/>
<path d="M22.7066 25.301H27.8826L28.6956 20.043H22.7066V17.169C22.7066 14.985 23.4206 13.048 25.4636 13.048H28.7466V8.46001C28.1696 8.38201 26.9496 8.21201 24.6446 8.21201C19.8306 8.21201 17.0086 10.754 17.0086 16.546V20.044H12.0596V25.302H17.0076V39.754C17.9876 39.9 18.9806 40 19.9996 40C20.9206 40 21.8196 39.916 22.7066 39.796V25.301Z" fill="white"/>
<defs>
<linearGradient id="paint0_linear_143_3144" x1="5.993" y1="5.993" x2="36.615" y2="36.615" gradientUnits="userSpaceOnUse">
<stop stop-color="#2AA4F4"/>
<stop offset="1" stop-color="#007AD9"/>
</linearGradient>
</defs>
</svg>
