<svg width="550" height="81" viewBox="0 0 550 81" fill="none" xmlns="http://www.w3.org/2000/svg">
<rect x="0.5" y="0.5" width="548.5" height="80" rx="7.5" fill="white"/>
<path d="M57.17 26.64C56.74 24.47 55.13 23.52 52.89 23.52H44.11C41.47 23.52 39.71 24.84 39.71 27.92V33.07C39.71 35.29 40.62 36.59 42.12 37.15C42.34 37.23 42.58 37.3 42.83 37.34C43.23 37.43 43.66 37.47 44.11 37.47H52.9C55.54 37.47 57.3 36.15 57.3 33.07V27.92C57.3 27.45 57.26 27.03 57.17 26.64ZM43.53 32C43.53 32.41 43.19 32.75 42.78 32.75C42.37 32.75 42.03 32.41 42.03 32V29C42.03 28.59 42.37 28.25 42.78 28.25C43.19 28.25 43.53 28.59 43.53 29V32ZM48.5 33.14C47.04 33.14 45.86 31.96 45.86 30.5C45.86 29.04 47.04 27.86 48.5 27.86C49.96 27.86 51.14 29.04 51.14 30.5C51.14 31.96 49.96 33.14 48.5 33.14ZM54.96 32C54.96 32.41 54.62 32.75 54.21 32.75C53.8 32.75 53.46 32.41 53.46 32V29C53.46 28.59 53.8 28.25 54.21 28.25C54.62 28.25 54.96 28.59 54.96 29V32Z" fill="#3063E9"/>
<path d="M60.2998 30.9198V36.0698C60.2998 39.1498 58.5398 40.4798 55.8898 40.4798H47.1098C46.3598 40.4798 45.6898 40.3698 45.1098 40.1498C44.6398 39.9798 44.2298 39.7298 43.8998 39.4098C43.7198 39.2398 43.8598 38.9698 44.1098 38.9698H52.8898C56.5898 38.9698 58.7898 36.7698 58.7898 33.0798V27.9198C58.7898 27.6798 59.0598 27.5298 59.2298 27.7098C59.9098 28.4298 60.2998 29.4798 60.2998 30.9198Z" fill="#3063E9"/>
<path d="M37.7003 55.224H43.6203V56.248H37.7003V55.224ZM37.8283 61H36.6443V49.8H44.3243V50.824H37.8283V61ZM46.5293 61V52.6H47.6653V61H46.5293ZM47.1053 50.744C46.8706 50.744 46.6733 50.664 46.5133 50.504C46.3533 50.344 46.2733 50.152 46.2733 49.928C46.2733 49.704 46.3533 49.5173 46.5133 49.368C46.6733 49.208 46.8706 49.128 47.1053 49.128C47.34 49.128 47.5373 49.2027 47.6973 49.352C47.8573 49.5013 47.9373 49.688 47.9373 49.912C47.9373 50.1467 47.8573 50.344 47.6973 50.504C47.548 50.664 47.3506 50.744 47.1053 50.744ZM56.0902 61V59.144L56.0422 58.84V55.736C56.0422 55.0213 55.8395 54.472 55.4342 54.088C55.0395 53.704 54.4475 53.512 53.6582 53.512C53.1142 53.512 52.5969 53.6027 52.1062 53.784C51.6155 53.9653 51.1995 54.2053 50.8582 54.504L50.3462 53.656C50.7729 53.2933 51.2849 53.016 51.8822 52.824C52.4795 52.6213 53.1089 52.52 53.7702 52.52C54.8582 52.52 55.6955 52.792 56.2822 53.336C56.8795 53.8693 57.1782 54.6853 57.1782 55.784V61H56.0902ZM53.1942 61.08C52.5649 61.08 52.0155 60.9787 51.5462 60.776C51.0875 60.5627 50.7355 60.2747 50.4902 59.912C50.2449 59.5387 50.1222 59.112 50.1222 58.632C50.1222 58.1947 50.2235 57.8 50.4262 57.448C50.6395 57.0853 50.9809 56.7973 51.4502 56.584C51.9302 56.36 52.5702 56.248 53.3702 56.248H56.2662V57.096H53.4022C52.5915 57.096 52.0262 57.24 51.7062 57.528C51.3969 57.816 51.2422 58.1733 51.2422 58.6C51.2422 59.08 51.4289 59.464 51.8022 59.752C52.1755 60.04 52.6982 60.184 53.3702 60.184C54.0102 60.184 54.5595 60.04 55.0182 59.752C55.4875 59.4533 55.8289 59.0267 56.0422 58.472L56.2982 59.256C56.0849 59.8107 55.7115 60.2533 55.1782 60.584C54.6555 60.9147 53.9942 61.08 53.1942 61.08ZM62.9197 61.08C62.1304 61.08 61.5224 60.8667 61.0957 60.44C60.669 60.0133 60.4557 59.4107 60.4557 58.632V50.744H61.5917V58.568C61.5917 59.0587 61.7144 59.4373 61.9597 59.704C62.2157 59.9707 62.5784 60.104 63.0477 60.104C63.549 60.104 63.965 59.96 64.2957 59.672L64.6957 60.488C64.4717 60.6907 64.1997 60.84 63.8797 60.936C63.5704 61.032 63.2504 61.08 62.9197 61.08ZM58.9517 53.544V52.6H64.1517V53.544H58.9517Z" fill="#202020"/>
<path d="M92 40.5L97 43.3868V37.6132L92 40.5ZM457.5 40.5L452.5 37.6132V43.3868L457.5 40.5ZM96.5 41H453V40H96.5V41Z" fill="#E8E8F3"/>
<path d="M509.42 36.7501C509.09 39.4101 506.91 41.5901 504.25 41.9201C502.64 42.1201 501.14 41.6801 499.97 40.8201C499.3 40.3301 499.46 39.2901 500.26 39.0501C503.27 38.1401 505.64 35.7601 506.56 32.7501C506.8 31.9601 507.84 31.8001 508.33 32.4601C509.18 33.6401 509.62 35.1401 509.42 36.7501Z" fill="#3063E9"/>
<path d="M489.5 29.99C489.5 25.58 493.08 22 497.49 22C501.9 22 505.47 25.58 505.48 29.99C505.48 34.4 501.9 37.98 497.49 37.98C493.08 37.98 489.5 34.4 489.5 29.99Z" fill="#3063E9"/>
<path fill-rule="evenodd" clip-rule="evenodd" d="M501.645 28.5562C501.822 27.3653 500.921 26.7252 499.691 26.2981L500.09 24.6849L499.115 24.4402L498.726 26.0109C498.47 25.9465 498.207 25.8859 497.945 25.8257L498.337 24.2447L497.363 24L496.963 25.6126C496.751 25.564 496.543 25.5158 496.341 25.4652L496.342 25.4602L494.997 25.1221L494.738 26.1708C494.738 26.1708 495.461 26.3378 495.446 26.3482C495.841 26.4474 495.912 26.7106 495.9 26.9193L495.445 28.757C495.473 28.764 495.508 28.7741 495.547 28.7897L495.514 28.7814L495.514 28.7814C495.491 28.7757 495.468 28.7698 495.444 28.764L494.806 31.3384C494.758 31.4593 494.635 31.6405 494.36 31.5717C494.369 31.5859 493.651 31.3935 493.651 31.3935L493.167 32.5175L494.436 32.8361C494.577 32.8719 494.717 32.9086 494.856 32.945L494.856 32.9451C494.948 32.9693 495.04 32.9933 495.131 33.0168L494.727 34.6484L495.701 34.8931L496.1 33.2788C496.366 33.3515 496.625 33.4187 496.877 33.4819L496.479 35.0886L497.454 35.3333L497.857 33.7048C499.52 34.0216 500.77 33.8938 501.296 32.3794C501.72 31.16 501.275 30.4566 500.4 29.9979C501.037 29.85 501.517 29.428 501.645 28.5562ZM499.417 31.7023C499.141 32.821 497.403 32.3585 496.607 32.1469L496.607 32.1469C496.536 32.1278 496.472 32.1108 496.417 32.0972L496.952 29.9356C497.019 29.9523 497.1 29.9706 497.192 29.9914C498.015 30.1773 499.701 30.5584 499.417 31.7023ZM497.357 28.9882C498.02 29.1665 499.467 29.5554 499.719 28.5386C499.976 27.4985 498.57 27.185 497.884 27.0319C497.806 27.0147 497.738 26.9995 497.683 26.9855L497.197 28.946C497.243 28.9576 497.297 28.972 497.357 28.9882Z" fill="white"/>
<path d="M479.235 61.096C478.392 61.096 477.614 60.9573 476.899 60.68C476.184 60.392 475.566 59.992 475.043 59.48C474.52 58.968 474.11 58.3653 473.811 57.672C473.523 56.9787 473.379 56.2213 473.379 55.4C473.379 54.5787 473.523 53.8213 473.811 53.128C474.11 52.4347 474.52 51.832 475.043 51.32C475.576 50.808 476.2 50.4133 476.915 50.136C477.63 49.848 478.408 49.704 479.251 49.704C480.062 49.704 480.824 49.8427 481.539 50.12C482.254 50.3867 482.856 50.792 483.347 51.336L482.595 52.088C482.136 51.6187 481.63 51.2827 481.075 51.08C480.52 50.8667 479.923 50.76 479.283 50.76C478.611 50.76 477.987 50.8773 477.411 51.112C476.835 51.336 476.334 51.6613 475.907 52.088C475.48 52.504 475.144 52.9947 474.899 53.56C474.664 54.1147 474.547 54.728 474.547 55.4C474.547 56.072 474.664 56.6907 474.899 57.256C475.144 57.8107 475.48 58.3013 475.907 58.728C476.334 59.144 476.835 59.4693 477.411 59.704C477.987 59.928 478.611 60.04 479.283 60.04C479.923 60.04 480.52 59.9333 481.075 59.72C481.63 59.5067 482.136 59.1653 482.595 58.696L483.347 59.448C482.856 59.992 482.254 60.4027 481.539 60.68C480.824 60.9573 480.056 61.096 479.235 61.096ZM485.631 61V52.6H486.719V54.888L486.607 54.488C486.842 53.848 487.236 53.3627 487.791 53.032C488.346 52.6907 489.034 52.52 489.855 52.52V53.624C489.812 53.624 489.77 53.624 489.727 53.624C489.684 53.6133 489.642 53.608 489.599 53.608C488.714 53.608 488.02 53.88 487.519 54.424C487.018 54.9573 486.767 55.72 486.767 56.712V61H485.631ZM492.351 64.184C491.956 64.184 491.578 64.12 491.215 63.992C490.863 63.864 490.559 63.672 490.303 63.416L490.831 62.568C491.044 62.7707 491.274 62.9253 491.519 63.032C491.775 63.1493 492.058 63.208 492.367 63.208C492.74 63.208 493.06 63.1013 493.327 62.888C493.604 62.6853 493.866 62.3227 494.111 61.8L494.655 60.568L494.783 60.392L498.239 52.6H499.359L495.151 62.008C494.916 62.552 494.655 62.984 494.367 63.304C494.09 63.624 493.786 63.848 493.455 63.976C493.124 64.1147 492.756 64.184 492.351 64.184ZM494.591 61.24L490.719 52.6H491.903L495.327 60.312L494.591 61.24ZM505.295 61.08C504.57 61.08 503.914 60.9147 503.327 60.584C502.74 60.2427 502.271 59.7573 501.919 59.128C501.578 58.488 501.407 57.7093 501.407 56.792C501.407 55.8747 501.578 55.1013 501.919 54.472C502.26 53.832 502.724 53.3467 503.311 53.016C503.898 52.6853 504.559 52.52 505.295 52.52C506.095 52.52 506.81 52.7013 507.439 53.064C508.079 53.416 508.58 53.9173 508.943 54.568C509.306 55.208 509.487 55.9493 509.487 56.792C509.487 57.6453 509.306 58.392 508.943 59.032C508.58 59.672 508.079 60.1733 507.439 60.536C506.81 60.8987 506.095 61.08 505.295 61.08ZM500.959 64.104V52.6H502.047V55.128L501.935 56.808L502.095 58.504V64.104H500.959ZM505.215 60.072C505.812 60.072 506.346 59.9387 506.815 59.672C507.284 59.3947 507.658 59.0107 507.935 58.52C508.212 58.0187 508.351 57.4427 508.351 56.792C508.351 56.1413 508.212 55.5707 507.935 55.08C507.658 54.5893 507.284 54.2053 506.815 53.928C506.346 53.6507 505.812 53.512 505.215 53.512C504.618 53.512 504.079 53.6507 503.599 53.928C503.13 54.2053 502.756 54.5893 502.479 55.08C502.212 55.5707 502.079 56.1413 502.079 56.792C502.079 57.4427 502.212 58.0187 502.479 58.52C502.756 59.0107 503.13 59.3947 503.599 59.672C504.079 59.9387 504.618 60.072 505.215 60.072ZM514.459 61.08C513.669 61.08 513.061 60.8667 512.635 60.44C512.208 60.0133 511.995 59.4107 511.995 58.632V50.744H513.131V58.568C513.131 59.0587 513.253 59.4373 513.499 59.704C513.755 59.9707 514.117 60.104 514.587 60.104C515.088 60.104 515.504 59.96 515.835 59.672L516.235 60.488C516.011 60.6907 515.739 60.84 515.419 60.936C515.109 61.032 514.789 61.08 514.459 61.08ZM510.491 53.544V52.6H515.691V53.544H510.491ZM521.43 61.08C520.619 61.08 519.889 60.8987 519.238 60.536C518.598 60.1627 518.091 59.656 517.718 59.016C517.345 58.3653 517.158 57.624 517.158 56.792C517.158 55.9493 517.345 55.208 517.718 54.568C518.091 53.928 518.598 53.4267 519.238 53.064C519.878 52.7013 520.609 52.52 521.43 52.52C522.262 52.52 522.998 52.7013 523.638 53.064C524.289 53.4267 524.795 53.928 525.158 54.568C525.531 55.208 525.718 55.9493 525.718 56.792C525.718 57.624 525.531 58.3653 525.158 59.016C524.795 59.656 524.289 60.1627 523.638 60.536C522.987 60.8987 522.251 61.08 521.43 61.08ZM521.43 60.072C522.038 60.072 522.577 59.9387 523.046 59.672C523.515 59.3947 523.883 59.0107 524.15 58.52C524.427 58.0187 524.566 57.4427 524.566 56.792C524.566 56.1307 524.427 55.5547 524.15 55.064C523.883 54.5733 523.515 54.1947 523.046 53.928C522.577 53.6507 522.043 53.512 521.446 53.512C520.849 53.512 520.315 53.6507 519.846 53.928C519.377 54.1947 519.003 54.5733 518.726 55.064C518.449 55.5547 518.31 56.1307 518.31 56.792C518.31 57.4427 518.449 58.0187 518.726 58.52C519.003 59.0107 519.377 59.3947 519.846 59.672C520.315 59.9387 520.843 60.072 521.43 60.072Z" fill="#202020"/>
<rect x="0.5" y="0.5" width="548.5" height="80" rx="7.5" stroke="#E8E8F3"/>
</svg>
