<svg width="169" height="76" viewBox="0 0 169 76" fill="none" xmlns="http://www.w3.org/2000/svg">
<rect x="0.5" y="0.5" width="168" height="75" rx="7.5" fill="white"/>
<path d="M37.9748 25.5333C37.6165 23.725 36.2748 22.9333 34.4081 22.9333H27.0915C24.8915 22.9333 23.4248 24.0333 23.4248 26.6V30.8917C23.4248 32.7417 24.1831 33.825 25.4331 34.2917C25.6165 34.3583 25.8165 34.4167 26.0248 34.45C26.3581 34.525 26.7165 34.5583 27.0915 34.5583H34.4165C36.6165 34.5583 38.0831 33.4583 38.0831 30.8917V26.6C38.0831 26.2083 38.0498 25.8583 37.9748 25.5333ZM26.6081 30C26.6081 30.3417 26.3248 30.625 25.9831 30.625C25.6415 30.625 25.3581 30.3417 25.3581 30V27.5C25.3581 27.1583 25.6415 26.875 25.9831 26.875C26.3248 26.875 26.6081 27.1583 26.6081 27.5V30ZM30.7498 30.95C29.5331 30.95 28.5498 29.9667 28.5498 28.75C28.5498 27.5333 29.5331 26.55 30.7498 26.55C31.9665 26.55 32.9498 27.5333 32.9498 28.75C32.9498 29.9667 31.9665 30.95 30.7498 30.95ZM36.1331 30C36.1331 30.3417 35.8498 30.625 35.5081 30.625C35.1665 30.625 34.8831 30.3417 34.8831 30V27.5C34.8831 27.1583 35.1665 26.875 35.5081 26.875C35.8498 26.875 36.1331 27.1583 36.1331 27.5V30Z" fill="#3063E9"/>
<path d="M40.5831 29.1001V33.3917C40.5831 35.9584 39.1165 37.0667 36.9081 37.0667H29.5915C28.9665 37.0667 28.4081 36.9751 27.9248 36.7917C27.5331 36.6501 27.1915 36.4417 26.9165 36.1751C26.7665 36.0334 26.8831 35.8084 27.0915 35.8084H34.4081C37.4915 35.8084 39.3248 33.9751 39.3248 30.9001V26.6001C39.3248 26.4001 39.5498 26.2751 39.6915 26.4251C40.2581 27.0251 40.5831 27.9001 40.5831 29.1001Z" fill="#3063E9"/>
<path d="M21.2378 50.946H26.4178V51.842H21.2378V50.946ZM21.3498 56H20.3138V46.2H27.0338V47.096H21.3498V56ZM28.9631 56V48.65H29.9571V56H28.9631ZM29.4671 47.026C29.2618 47.026 29.0891 46.956 28.9491 46.816C28.8091 46.676 28.7391 46.508 28.7391 46.312C28.7391 46.116 28.8091 45.9527 28.9491 45.822C29.0891 45.682 29.2618 45.612 29.4671 45.612C29.6725 45.612 29.8451 45.6773 29.9851 45.808C30.1251 45.9387 30.1951 46.102 30.1951 46.298C30.1951 46.5033 30.1251 46.676 29.9851 46.816C29.8545 46.956 29.6818 47.026 29.4671 47.026ZM37.3289 56V54.376L37.2869 54.11V51.394C37.2869 50.7687 37.1096 50.288 36.7549 49.952C36.4096 49.616 35.8916 49.448 35.2009 49.448C34.7249 49.448 34.2722 49.5273 33.8429 49.686C33.4136 49.8447 33.0496 50.0547 32.7509 50.316L32.3029 49.574C32.6762 49.2567 33.1242 49.014 33.6469 48.846C34.1696 48.6687 34.7202 48.58 35.2989 48.58C36.2509 48.58 36.9836 48.818 37.4969 49.294C38.0196 49.7607 38.2809 50.4747 38.2809 51.436V56H37.3289ZM34.7949 56.07C34.2442 56.07 33.7636 55.9813 33.3529 55.804C32.9516 55.6173 32.6436 55.3653 32.4289 55.048C32.2142 54.7213 32.1069 54.348 32.1069 53.928C32.1069 53.5453 32.1956 53.2 32.3729 52.892C32.5596 52.5747 32.8582 52.3227 33.2689 52.136C33.6889 51.94 34.2489 51.842 34.9489 51.842H37.4829V52.584H34.9769C34.2676 52.584 33.7729 52.71 33.4929 52.962C33.2222 53.214 33.0869 53.5267 33.0869 53.9C33.0869 54.32 33.2502 54.656 33.5769 54.908C33.9036 55.16 34.3609 55.286 34.9489 55.286C35.5089 55.286 35.9896 55.16 36.3909 54.908C36.8016 54.6467 37.1002 54.2733 37.2869 53.788L37.5109 54.474C37.3242 54.9593 36.9976 55.3467 36.5309 55.636C36.0736 55.9253 35.4949 56.07 34.7949 56.07ZM43.3047 56.07C42.6141 56.07 42.0821 55.8833 41.7087 55.51C41.3354 55.1367 41.1487 54.6093 41.1487 53.928V47.026H42.1427V53.872C42.1427 54.3013 42.2501 54.6327 42.4647 54.866C42.6887 55.0993 43.0061 55.216 43.4167 55.216C43.8554 55.216 44.2194 55.09 44.5087 54.838L44.8587 55.552C44.6627 55.7293 44.4247 55.86 44.1447 55.944C43.8741 56.028 43.5941 56.07 43.3047 56.07ZM39.8327 49.476V48.65H44.3827V49.476H39.8327Z" fill="#202020"/>
<path d="M64 38L69 40.8868V35.1132L64 38ZM105 38L100 35.1132V40.8868L105 38ZM68.5 38.5H100.5V37.5H68.5V38.5Z" fill="#3063E9"/>
<path d="M145.267 33.9584C144.992 36.1751 143.175 37.9917 140.958 38.2667C139.617 38.4334 138.367 38.0667 137.392 37.3501C136.833 36.9417 136.967 36.0751 137.633 35.8751C140.142 35.1167 142.117 33.1334 142.883 30.6251C143.083 29.9667 143.95 29.8334 144.358 30.3834C145.067 31.3667 145.433 32.6167 145.267 33.9584Z" fill="#3063E9"/>
<path d="M128.667 28.3251C128.667 24.6501 131.65 21.6667 135.325 21.6667C139 21.6667 141.975 24.6501 141.983 28.3251C141.983 32.0001 139 34.9834 135.325 34.9834C131.65 34.9834 128.667 32.0001 128.667 28.3251Z" fill="#3063E9"/>
<path fill-rule="evenodd" clip-rule="evenodd" d="M138.787 27.1301C138.934 26.1377 138.184 25.6042 137.159 25.2483L137.491 23.904L136.679 23.7001L136.355 25.009C136.141 24.9554 135.922 24.9048 135.704 24.8547L136.03 23.5372L135.218 23.3333L134.886 24.6771C134.709 24.6365 134.535 24.5965 134.367 24.5543L134.368 24.5501L133.247 24.2683L133.031 25.1423C133.031 25.1423 133.634 25.2814 133.621 25.2901C133.95 25.3728 134.01 25.5921 134 25.766L133.621 27.2974C133.644 27.3033 133.673 27.3117 133.705 27.3247L133.678 27.3178L133.678 27.3178C133.659 27.313 133.639 27.3081 133.619 27.3033L133.088 29.4486C133.048 29.5493 132.946 29.7003 132.716 29.643C132.724 29.6549 132.125 29.4945 132.125 29.4945L131.722 30.4312L132.779 30.6967C132.897 30.7265 133.014 30.7571 133.129 30.7874L133.13 30.7875C133.206 30.8076 133.283 30.8277 133.358 30.8472L133.022 32.2069L133.834 32.4109L134.167 31.0656C134.388 31.1262 134.603 31.1821 134.814 31.2348L134.482 32.5738L135.295 32.7777L135.631 31.4206C137.016 31.6846 138.058 31.5781 138.496 30.3161C138.849 29.2999 138.479 28.7138 137.75 28.3315C138.281 28.2082 138.68 27.8566 138.787 27.1301ZM136.931 29.7518C136.701 30.6841 135.252 30.2987 134.589 30.1223L134.589 30.1223C134.529 30.1065 134.476 30.0923 134.431 30.0809L134.877 28.2796C134.932 28.2935 135 28.3088 135.076 28.3261C135.762 28.481 137.167 28.7986 136.931 29.7518ZM135.214 27.4901C135.767 27.6387 136.972 27.9627 137.182 27.1154C137.397 26.2487 136.225 25.9874 135.653 25.8598C135.588 25.8455 135.532 25.8328 135.485 25.8212L135.081 27.455C135.119 27.4645 135.164 27.4766 135.214 27.4901Z" fill="white"/>
<path d="M119.268 56.084C118.531 56.084 117.849 55.9627 117.224 55.72C116.599 55.468 116.057 55.118 115.6 54.67C115.143 54.222 114.783 53.6947 114.522 53.088C114.27 52.4813 114.144 51.8187 114.144 51.1C114.144 50.3813 114.27 49.7187 114.522 49.112C114.783 48.5053 115.143 47.978 115.6 47.53C116.067 47.082 116.613 46.7367 117.238 46.494C117.863 46.242 118.545 46.116 119.282 46.116C119.991 46.116 120.659 46.2373 121.284 46.48C121.909 46.7133 122.437 47.068 122.866 47.544L122.208 48.202C121.807 47.7913 121.363 47.4973 120.878 47.32C120.393 47.1333 119.87 47.04 119.31 47.04C118.722 47.04 118.176 47.1427 117.672 47.348C117.168 47.544 116.729 47.8287 116.356 48.202C115.983 48.566 115.689 48.9953 115.474 49.49C115.269 49.9753 115.166 50.512 115.166 51.1C115.166 51.688 115.269 52.2293 115.474 52.724C115.689 53.2093 115.983 53.6387 116.356 54.012C116.729 54.376 117.168 54.6607 117.672 54.866C118.176 55.062 118.722 55.16 119.31 55.16C119.87 55.16 120.393 55.0667 120.878 54.88C121.363 54.6933 121.807 54.3947 122.208 53.984L122.866 54.642C122.437 55.118 121.909 55.4773 121.284 55.72C120.659 55.9627 119.987 56.084 119.268 56.084ZM124.865 56V48.65H125.817V50.652L125.719 50.302C125.924 49.742 126.269 49.3173 126.755 49.028C127.24 48.7293 127.842 48.58 128.561 48.58V49.546C128.523 49.546 128.486 49.546 128.449 49.546C128.411 49.5367 128.374 49.532 128.337 49.532C127.562 49.532 126.955 49.77 126.517 50.246C126.078 50.7127 125.859 51.38 125.859 52.248V56H124.865ZM130.745 58.786C130.399 58.786 130.068 58.73 129.751 58.618C129.443 58.506 129.177 58.338 128.953 58.114L129.415 57.372C129.601 57.5493 129.802 57.6847 130.017 57.778C130.241 57.8807 130.488 57.932 130.759 57.932C131.085 57.932 131.365 57.8387 131.599 57.652C131.841 57.4747 132.07 57.1573 132.285 56.7L132.761 55.622L132.873 55.468L135.897 48.65H136.877L133.195 56.882C132.989 57.358 132.761 57.736 132.509 58.016C132.266 58.296 132 58.492 131.711 58.604C131.421 58.7253 131.099 58.786 130.745 58.786ZM132.705 56.21L129.317 48.65H130.353L133.349 55.398L132.705 56.21ZM142.071 56.07C141.436 56.07 140.862 55.9253 140.349 55.636C139.835 55.3373 139.425 54.9127 139.117 54.362C138.818 53.802 138.669 53.1207 138.669 52.318C138.669 51.5153 138.818 50.8387 139.117 50.288C139.415 49.728 139.821 49.3033 140.335 49.014C140.848 48.7247 141.427 48.58 142.071 48.58C142.771 48.58 143.396 48.7387 143.947 49.056C144.507 49.364 144.945 49.8027 145.263 50.372C145.58 50.932 145.739 51.5807 145.739 52.318C145.739 53.0647 145.58 53.718 145.263 54.278C144.945 54.838 144.507 55.2767 143.947 55.594C143.396 55.9113 142.771 56.07 142.071 56.07ZM138.277 58.716V48.65H139.229V50.862L139.131 52.332L139.271 53.816V58.716H138.277ZM142.001 55.188C142.523 55.188 142.99 55.0713 143.401 54.838C143.811 54.5953 144.138 54.2593 144.381 53.83C144.623 53.3913 144.745 52.8873 144.745 52.318C144.745 51.7487 144.623 51.2493 144.381 50.82C144.138 50.3907 143.811 50.0547 143.401 49.812C142.99 49.5693 142.523 49.448 142.001 49.448C141.478 49.448 141.007 49.5693 140.587 49.812C140.176 50.0547 139.849 50.3907 139.607 50.82C139.373 51.2493 139.257 51.7487 139.257 52.318C139.257 52.8873 139.373 53.3913 139.607 53.83C139.849 54.2593 140.176 54.5953 140.587 54.838C141.007 55.0713 141.478 55.188 142.001 55.188ZM150.089 56.07C149.398 56.07 148.866 55.8833 148.493 55.51C148.12 55.1367 147.933 54.6093 147.933 53.928V47.026H148.927V53.872C148.927 54.3013 149.034 54.6327 149.249 54.866C149.473 55.0993 149.79 55.216 150.201 55.216C150.64 55.216 151.004 55.09 151.293 54.838L151.643 55.552C151.447 55.7293 151.209 55.86 150.929 55.944C150.658 56.028 150.378 56.07 150.089 56.07ZM146.617 49.476V48.65H151.167V49.476H146.617ZM156.189 56.07C155.479 56.07 154.84 55.9113 154.271 55.594C153.711 55.2673 153.267 54.824 152.941 54.264C152.614 53.6947 152.451 53.046 152.451 52.318C152.451 51.5807 152.614 50.932 152.941 50.372C153.267 49.812 153.711 49.3733 154.271 49.056C154.831 48.7387 155.47 48.58 156.189 48.58C156.917 48.58 157.561 48.7387 158.121 49.056C158.69 49.3733 159.133 49.812 159.451 50.372C159.777 50.932 159.941 51.5807 159.941 52.318C159.941 53.046 159.777 53.6947 159.451 54.264C159.133 54.824 158.69 55.2673 158.121 55.594C157.551 55.9113 156.907 56.07 156.189 56.07ZM156.189 55.188C156.721 55.188 157.192 55.0713 157.603 54.838C158.013 54.5953 158.335 54.2593 158.569 53.83C158.811 53.3913 158.933 52.8873 158.933 52.318C158.933 51.7393 158.811 51.2353 158.569 50.806C158.335 50.3767 158.013 50.0453 157.603 49.812C157.192 49.5693 156.725 49.448 156.203 49.448C155.68 49.448 155.213 49.5693 154.803 49.812C154.392 50.0453 154.065 50.3767 153.823 50.806C153.58 51.2353 153.459 51.7393 153.459 52.318C153.459 52.8873 153.58 53.3913 153.823 53.83C154.065 54.2593 154.392 54.5953 154.803 54.838C155.213 55.0713 155.675 55.188 156.189 55.188Z" fill="#202020"/>
<rect x="0.5" y="0.5" width="168" height="75" rx="7.5" stroke="#3063E9"/>
</svg>
