<svg width="62" height="20" viewBox="0 0 62 20" fill="none" xmlns="http://www.w3.org/2000/svg">
<path d="M6.1579 7.48661H5.3804C3.68457 7.48661 2.30957 8.86161 2.30957 10.5574L2.30957 14.6199C2.30957 16.3149 3.68457 17.6899 5.3804 17.6899H14.6554C16.3512 17.6899 17.7262 16.3149 17.7262 14.6199V10.5491C17.7262 8.85827 16.3554 7.48661 14.6646 7.48661H13.8787" stroke="#838383" stroke-width="1.5" stroke-linecap="round" stroke-linejoin="round"/>
<path d="M10.0178 1.82521V11.8594" stroke="#838383" stroke-width="1.5" stroke-linecap="round" stroke-linejoin="round"/>
<path d="M7.58856 4.26562L10.0177 1.82562L12.4477 4.26562" stroke="#838383" stroke-width="1.5" stroke-linecap="round" stroke-linejoin="round"/>
<path d="M26.4 5.7H32.784L32.77 6.918H27.744V10.138H32.266V11.356H27.744V15.5H26.4V5.7ZM35.533 9.69C35.7757 9.158 36.121 8.75667 36.569 8.486C37.017 8.206 37.549 8.06133 38.165 8.052V9.312C37.409 9.284 36.7977 9.48 36.331 9.9C35.8644 10.32 35.5984 10.8847 35.533 11.594V15.5H34.231V8.094H35.533V9.69ZM42.6567 8.052C43.3941 8.052 44.0474 8.21067 44.6167 8.528C45.1954 8.84533 45.6434 9.28867 45.9607 9.858C46.2874 10.418 46.4507 11.062 46.4507 11.79C46.4507 12.518 46.2874 13.1667 45.9607 13.736C45.6434 14.3053 45.1954 14.7487 44.6167 15.066C44.0474 15.3833 43.3941 15.542 42.6567 15.542C41.9101 15.542 41.2474 15.3833 40.6687 15.066C40.0994 14.7487 39.6514 14.31 39.3247 13.75C39.0074 13.1807 38.8487 12.5273 38.8487 11.79C38.8487 11.062 39.0074 10.418 39.3247 9.858C39.6514 9.28867 40.0994 8.84533 40.6687 8.528C41.2474 8.21067 41.9101 8.052 42.6567 8.052ZM42.6567 9.186C42.1714 9.186 41.7374 9.298 41.3547 9.522C40.9814 9.746 40.6874 10.0587 40.4727 10.46C40.2674 10.852 40.1647 11.3 40.1647 11.804C40.1647 12.3173 40.2674 12.7747 40.4727 13.176C40.6874 13.5773 40.9814 13.89 41.3547 14.114C41.7374 14.3287 42.1714 14.436 42.6567 14.436C43.1327 14.436 43.5574 14.3287 43.9307 14.114C44.3134 13.89 44.6074 13.5773 44.8127 13.176C45.0274 12.7747 45.1347 12.3173 45.1347 11.804C45.1347 11.3 45.0274 10.852 44.8127 10.46C44.6074 10.0587 44.3134 9.746 43.9307 9.522C43.5574 9.298 43.1327 9.186 42.6567 9.186ZM57.834 8.052C58.6834 8.052 59.3507 8.30867 59.836 8.822C60.3214 9.33533 60.564 10.0353 60.564 10.922V15.5H59.248V11.272C59.248 10.6467 59.0754 10.1567 58.73 9.802C58.394 9.44733 57.9274 9.27 57.33 9.27C56.63 9.28867 56.0794 9.536 55.678 10.012C55.2767 10.488 55.076 11.0993 55.076 11.846V15.5H53.76V11.272C53.76 10.6467 53.592 10.1567 53.256 9.802C52.92 9.44733 52.4487 9.27 51.842 9.27C51.142 9.28867 50.5867 9.536 50.176 10.012C49.7747 10.488 49.574 11.0993 49.574 11.846V15.5H48.272V8.094H49.574V9.648C50.0594 8.60267 50.9787 8.07067 52.332 8.052C53.0134 8.052 53.578 8.21533 54.026 8.542C54.4834 8.86867 54.7914 9.326 54.95 9.914C55.4074 8.69133 56.3687 8.07067 57.834 8.052Z" fill="#838383"/>
</svg>
