<svg width="390" height="720" viewBox="0 0 390 720" fill="none" xmlns="http://www.w3.org/2000/svg">
<g clip-path="url(#clip0_2970_24826)">
<g clip-path="url(#clip1_2970_24826)" filter="url(#filter0_i_2970_24826)">
<path d="M513.002 189.745V321.048C513.002 497.239 370.171 640.07 193.98 640.07V640.07C17.7887 640.07 -125.042 497.239 -125.042 321.048V302.326" stroke="#2421C4" stroke-width="159.511"/>
<path d="M513.002 189.745V321.048C513.002 497.239 370.171 640.07 193.98 640.07V640.07C17.7887 640.07 -125.042 497.239 -125.042 321.048V302.326" stroke="url(#paint0_linear_2970_24826)" stroke-width="159.511"/>
</g>
<path d="M-14.933 -9.06836H404.933V259H-14.933V-9.06836Z" fill="url(#paint1_linear_2970_24826)"/>
<path d="M142.16 161.366V123.566H159.116C163.472 123.566 166.82 124.448 169.16 126.212C171.5 127.94 172.67 130.316 172.67 133.34C172.67 135.392 172.202 137.12 171.266 138.524C170.366 139.928 169.142 141.008 167.594 141.764C166.046 142.52 164.372 142.898 162.572 142.898L163.544 141.278C165.704 141.278 167.612 141.656 169.268 142.412C170.924 143.168 172.238 144.284 173.21 145.76C174.182 147.2 174.668 149 174.668 151.16C174.668 154.4 173.444 156.92 170.996 158.72C168.584 160.484 164.984 161.366 160.196 161.366H142.16ZM147.56 156.992H159.98C162.968 156.992 165.254 156.488 166.838 155.48C168.422 154.472 169.214 152.888 169.214 150.728C169.214 148.532 168.422 146.93 166.838 145.922C165.254 144.914 162.968 144.41 159.98 144.41H147.074V140.036H158.63C161.366 140.036 163.49 139.532 165.002 138.524C166.514 137.516 167.27 136.004 167.27 133.988C167.27 131.972 166.514 130.46 165.002 129.452C163.49 128.444 161.366 127.94 158.63 127.94H147.56V156.992ZM194.315 161.69C191.867 161.69 189.707 161.24 187.835 160.34C185.999 159.44 184.559 158.072 183.515 156.236C182.507 154.364 182.003 152.024 182.003 149.216V132.746H187.187V148.622C187.187 151.43 187.853 153.536 189.185 154.94C190.553 156.344 192.461 157.046 194.909 157.046C196.709 157.046 198.275 156.686 199.607 155.966C200.939 155.21 201.965 154.13 202.685 152.726C203.405 151.286 203.765 149.558 203.765 147.542V132.746H208.949V161.366H204.035V153.644L204.845 155.696C203.909 157.604 202.505 159.08 200.633 160.124C198.761 161.168 196.655 161.69 194.315 161.69ZM220.06 172.166C218.692 172.166 217.36 171.932 216.064 171.464C214.768 171.032 213.652 170.384 212.716 169.52L214.93 165.632C215.65 166.316 216.442 166.838 217.306 167.198C218.17 167.558 219.088 167.738 220.06 167.738C221.32 167.738 222.364 167.414 223.192 166.766C224.02 166.118 224.794 164.966 225.514 163.31L227.296 159.368L227.836 158.72L239.068 132.746H244.144L230.266 164.228C229.438 166.244 228.502 167.828 227.458 168.98C226.45 170.132 225.334 170.942 224.11 171.41C222.886 171.914 221.536 172.166 220.06 172.166ZM226.864 162.284L213.796 132.746H219.196L230.32 158.234L226.864 162.284ZM245.137 169.358L247.837 158.45L248.539 161.582C247.495 161.582 246.613 161.258 245.893 160.61C245.209 159.962 244.867 159.08 244.867 157.964C244.867 156.884 245.209 156.002 245.893 155.318C246.613 154.634 247.477 154.292 248.485 154.292C249.529 154.292 250.375 154.652 251.023 155.372C251.671 156.056 251.995 156.92 251.995 157.964C251.995 158.324 251.959 158.684 251.887 159.044C251.851 159.368 251.761 159.764 251.617 160.232C251.509 160.664 251.329 161.204 251.077 161.852L248.539 169.358H245.137ZM132.037 223.69C129.157 223.69 126.925 222.916 125.341 221.368C123.757 219.82 122.965 217.606 122.965 214.726V188.482H128.149V214.51C128.149 216.058 128.527 217.246 129.283 218.074C130.075 218.902 131.191 219.316 132.631 219.316C134.251 219.316 135.601 218.866 136.681 217.966L138.301 221.692C137.509 222.376 136.555 222.88 135.439 223.204C134.359 223.528 133.225 223.69 132.037 223.69ZM118.105 199.012V194.746H136.357V199.012H118.105ZM144.568 223.366V194.746H149.536V202.522L149.05 200.578C149.842 198.598 151.174 197.086 153.046 196.042C154.918 194.998 157.222 194.476 159.958 194.476V199.498C159.742 199.462 159.526 199.444 159.31 199.444C159.13 199.444 158.95 199.444 158.77 199.444C155.998 199.444 153.802 200.272 152.182 201.928C150.562 203.584 149.752 205.978 149.752 209.11V223.366H144.568ZM182.004 223.366V217.318L181.734 216.184V205.87C181.734 203.674 181.086 201.982 179.79 200.794C178.53 199.57 176.622 198.958 174.066 198.958C172.374 198.958 170.718 199.246 169.098 199.822C167.478 200.362 166.11 201.1 164.994 202.036L162.834 198.148C164.31 196.96 166.074 196.06 168.126 195.448C170.214 194.8 172.392 194.476 174.66 194.476C178.584 194.476 181.608 195.43 183.732 197.338C185.856 199.246 186.918 202.162 186.918 206.086V223.366H182.004ZM172.608 223.69C170.484 223.69 168.612 223.33 166.992 222.61C165.408 221.89 164.184 220.9 163.32 219.64C162.456 218.344 162.024 216.886 162.024 215.266C162.024 213.718 162.384 212.314 163.104 211.054C163.86 209.794 165.066 208.786 166.722 208.03C168.414 207.274 170.682 206.896 173.526 206.896H182.598V210.622H173.742C171.15 210.622 169.404 211.054 168.504 211.918C167.604 212.782 167.154 213.826 167.154 215.05C167.154 216.454 167.712 217.588 168.828 218.452C169.944 219.28 171.492 219.694 173.472 219.694C175.416 219.694 177.108 219.262 178.548 218.398C180.024 217.534 181.086 216.274 181.734 214.618L182.76 218.182C182.076 219.874 180.87 221.224 179.142 222.232C177.414 223.204 175.236 223.69 172.608 223.69ZM208.338 223.69C205.566 223.69 203.082 223.078 200.886 221.854C198.726 220.63 197.016 218.92 195.756 216.724C194.496 214.528 193.866 211.972 193.866 209.056C193.866 206.14 194.496 203.602 195.756 201.442C197.016 199.246 198.726 197.536 200.886 196.312C203.082 195.088 205.566 194.476 208.338 194.476C210.75 194.476 212.928 195.016 214.872 196.096C216.816 197.176 218.364 198.796 219.516 200.956C220.704 203.116 221.298 205.816 221.298 209.056C221.298 212.296 220.722 214.996 219.57 217.156C218.454 219.316 216.924 220.954 214.98 222.07C213.036 223.15 210.822 223.69 208.338 223.69ZM208.77 219.154C210.57 219.154 212.19 218.74 213.63 217.912C215.106 217.084 216.258 215.914 217.086 214.402C217.95 212.854 218.382 211.072 218.382 209.056C218.382 207.004 217.95 205.24 217.086 203.764C216.258 202.252 215.106 201.082 213.63 200.254C212.19 199.426 210.57 199.012 208.77 199.012C206.934 199.012 205.296 199.426 203.856 200.254C202.416 201.082 201.264 202.252 200.4 203.764C199.536 205.24 199.104 207.004 199.104 209.056C199.104 211.072 199.536 212.854 200.4 214.402C201.264 215.914 202.416 217.084 203.856 217.912C205.296 218.74 206.934 219.154 208.77 219.154ZM218.544 223.366V215.644L218.868 209.002L218.328 202.36V183.298H223.512V223.366H218.544ZM246.064 223.69C243.004 223.69 240.304 223.06 237.964 221.8C235.66 220.54 233.86 218.812 232.564 216.616C231.304 214.42 230.674 211.9 230.674 209.056C230.674 206.212 231.286 203.692 232.51 201.496C233.77 199.3 235.48 197.59 237.64 196.366C239.836 195.106 242.302 194.476 245.038 194.476C247.81 194.476 250.258 195.088 252.382 196.312C254.506 197.536 256.162 199.264 257.35 201.496C258.574 203.692 259.186 206.266 259.186 209.218C259.186 209.434 259.168 209.686 259.132 209.974C259.132 210.262 259.114 210.532 259.078 210.784H234.724V207.058H256.378L254.272 208.354C254.308 206.518 253.93 204.88 253.138 203.44C252.346 202 251.248 200.884 249.844 200.092C248.476 199.264 246.874 198.85 245.038 198.85C243.238 198.85 241.636 199.264 240.232 200.092C238.828 200.884 237.73 202.018 236.938 203.494C236.146 204.934 235.75 206.59 235.75 208.462V209.326C235.75 211.234 236.182 212.944 237.046 214.456C237.946 215.932 239.188 217.084 240.772 217.912C242.356 218.74 244.174 219.154 246.226 219.154C247.918 219.154 249.448 218.866 250.816 218.29C252.22 217.714 253.444 216.85 254.488 215.698L257.35 219.046C256.054 220.558 254.434 221.71 252.49 222.502C250.582 223.294 248.44 223.69 246.064 223.69ZM264.333 231.358L267.033 220.45L267.735 223.582C266.691 223.582 265.809 223.258 265.089 222.61C264.405 221.962 264.063 221.08 264.063 219.964C264.063 218.884 264.405 218.002 265.089 217.318C265.809 216.634 266.673 216.292 267.681 216.292C268.725 216.292 269.571 216.652 270.219 217.372C270.867 218.056 271.191 218.92 271.191 219.964C271.191 220.324 271.155 220.684 271.083 221.044C271.047 221.368 270.957 221.764 270.813 222.232C270.705 222.664 270.525 223.204 270.273 223.852L267.735 231.358H264.333ZM49.2093 295.75C45.5826 295.75 42.3826 295.004 39.6093 293.51C36.8786 292.017 34.7453 289.969 33.2093 287.366C31.7159 284.764 30.9693 281.777 30.9693 278.406C30.9693 275.036 31.6946 272.049 33.1453 269.446C34.6386 266.844 36.6653 264.817 39.2253 263.366C41.8279 261.873 44.7506 261.126 47.9933 261.126C51.2786 261.126 54.1799 261.852 56.6973 263.302C59.2146 264.753 61.1773 266.801 62.5853 269.446C64.0359 272.049 64.7613 275.1 64.7613 278.598C64.7613 278.854 64.7399 279.153 64.6973 279.494C64.6973 279.836 64.6759 280.156 64.6333 280.454H35.7693V276.038H61.4333L58.9373 277.574C58.9799 275.398 58.5319 273.457 57.5933 271.75C56.6546 270.044 55.3533 268.721 53.6893 267.782C52.0679 266.801 50.1693 266.31 47.9933 266.31C45.8599 266.31 43.9613 266.801 42.2973 267.782C40.6333 268.721 39.3319 270.065 38.3933 271.814C37.4546 273.521 36.9853 275.484 36.9853 277.702V278.726C36.9853 280.988 37.4973 283.014 38.5213 284.806C39.5879 286.556 41.0599 287.921 42.9373 288.902C44.8146 289.884 46.9693 290.374 49.4013 290.374C51.4066 290.374 53.2199 290.033 54.8413 289.35C56.5053 288.668 57.9559 287.644 59.1933 286.278L62.5853 290.246C61.0493 292.038 59.1293 293.404 56.8253 294.342C54.5639 295.281 52.0253 295.75 49.2093 295.75ZM67.4273 295.366L82.0193 276.422L81.9553 279.558L68.0673 261.446H74.9153L85.5393 275.398H82.9153L93.5393 261.446H100.259L86.1793 279.686L86.2433 276.422L100.963 295.366H93.9873L82.7873 280.518L85.2833 280.902L74.2753 295.366H67.4273ZM121.327 295.75C117.871 295.75 114.777 295.004 112.047 293.51C109.359 292.017 107.247 289.969 105.711 287.366C104.175 284.764 103.407 281.777 103.407 278.406C103.407 275.036 104.175 272.049 105.711 269.446C107.247 266.844 109.359 264.817 112.047 263.366C114.777 261.873 117.871 261.126 121.327 261.126C124.399 261.126 127.129 261.745 129.519 262.982C131.951 264.177 133.828 265.969 135.151 268.358L130.479 271.366C129.369 269.702 128.004 268.486 126.383 267.718C124.804 266.908 123.097 266.502 121.263 266.502C119.044 266.502 117.06 266.993 115.311 267.974C113.561 268.956 112.175 270.342 111.151 272.134C110.127 273.884 109.615 275.974 109.615 278.406C109.615 280.838 110.127 282.95 111.151 284.742C112.175 286.534 113.561 287.921 115.311 288.902C117.06 289.884 119.044 290.374 121.263 290.374C123.097 290.374 124.804 289.99 126.383 289.222C128.004 288.412 129.369 287.174 130.479 285.51L135.151 288.454C133.828 290.801 131.951 292.614 129.519 293.894C127.129 295.132 124.399 295.75 121.327 295.75ZM160.78 261.126C163.553 261.126 165.985 261.66 168.076 262.726C170.209 263.793 171.873 265.414 173.068 267.59C174.262 269.766 174.86 272.518 174.86 275.846V295.366H168.716V276.55C168.716 273.265 167.905 270.79 166.284 269.126C164.705 267.462 162.465 266.63 159.564 266.63C157.388 266.63 155.489 267.057 153.868 267.91C152.246 268.764 150.988 270.022 150.092 271.686C149.238 273.35 148.812 275.42 148.812 277.894V295.366H142.668V247.878H148.812V270.598L147.596 268.166C148.705 265.948 150.412 264.22 152.716 262.982C155.02 261.745 157.708 261.126 160.78 261.126ZM207.286 295.366V288.198L206.966 286.854V274.63C206.966 272.028 206.198 270.022 204.662 268.614C203.169 267.164 200.908 266.438 197.878 266.438C195.873 266.438 193.91 266.78 191.99 267.462C190.07 268.102 188.449 268.977 187.126 270.086L184.566 265.478C186.316 264.07 188.406 263.004 190.838 262.278C193.313 261.51 195.894 261.126 198.582 261.126C203.233 261.126 206.817 262.257 209.334 264.518C211.852 266.78 213.11 270.236 213.11 274.886V295.366H207.286ZM196.15 295.75C193.633 295.75 191.414 295.324 189.494 294.47C187.617 293.617 186.166 292.444 185.142 290.95C184.118 289.414 183.606 287.686 183.606 285.766C183.606 283.932 184.033 282.268 184.886 280.774C185.782 279.281 187.212 278.086 189.174 277.19C191.18 276.294 193.868 275.846 197.238 275.846H207.99V280.262H197.494C194.422 280.262 192.353 280.774 191.286 281.798C190.22 282.822 189.686 284.06 189.686 285.51C189.686 287.174 190.348 288.518 191.67 289.542C192.993 290.524 194.828 291.014 197.174 291.014C199.478 291.014 201.484 290.502 203.19 289.478C204.94 288.454 206.198 286.961 206.966 284.998L208.182 289.222C207.372 291.228 205.942 292.828 203.894 294.022C201.846 295.174 199.265 295.75 196.15 295.75ZM242.592 261.126C245.366 261.126 247.798 261.66 249.888 262.726C252.022 263.793 253.686 265.414 254.88 267.59C256.075 269.766 256.672 272.518 256.672 275.846V295.366H250.528V276.55C250.528 273.265 249.718 270.79 248.096 269.126C246.518 267.462 244.278 266.63 241.376 266.63C239.2 266.63 237.302 267.057 235.68 267.91C234.059 268.764 232.8 270.022 231.904 271.686C231.051 273.35 230.624 275.42 230.624 277.894V295.366H224.48V261.446H230.368V270.598L229.408 268.166C230.518 265.948 232.224 264.22 234.528 262.982C236.832 261.745 239.52 261.126 242.592 261.126ZM282.891 308.166C279.776 308.166 276.747 307.718 273.803 306.822C270.901 305.969 268.533 304.732 266.699 303.11L269.643 298.374C271.221 299.74 273.163 300.806 275.467 301.574C277.771 302.385 280.181 302.79 282.699 302.79C286.709 302.79 289.653 301.852 291.531 299.974C293.408 298.097 294.347 295.238 294.347 291.398V284.23L294.987 277.51L294.667 270.726V261.446H300.491V290.758C300.491 296.732 298.997 301.126 296.011 303.942C293.024 306.758 288.651 308.166 282.891 308.166ZM282.123 293.958C278.837 293.958 275.893 293.276 273.291 291.91C270.731 290.502 268.683 288.561 267.147 286.086C265.653 283.612 264.907 280.753 264.907 277.51C264.907 274.225 265.653 271.366 267.147 268.934C268.683 266.46 270.731 264.54 273.291 263.174C275.893 261.809 278.837 261.126 282.123 261.126C285.024 261.126 287.669 261.724 290.059 262.918C292.448 264.07 294.347 265.862 295.755 268.294C297.205 270.726 297.931 273.798 297.931 277.51C297.931 281.18 297.205 284.23 295.755 286.662C294.347 289.094 292.448 290.929 290.059 292.166C287.669 293.361 285.024 293.958 282.123 293.958ZM282.827 288.582C285.088 288.582 287.093 288.113 288.843 287.174C290.592 286.236 291.957 284.934 292.939 283.27C293.963 281.606 294.475 279.686 294.475 277.51C294.475 275.334 293.963 273.414 292.939 271.75C291.957 270.086 290.592 268.806 288.843 267.91C287.093 266.972 285.088 266.502 282.827 266.502C280.565 266.502 278.539 266.972 276.747 267.91C274.997 268.806 273.611 270.086 272.587 271.75C271.605 273.414 271.115 275.334 271.115 277.51C271.115 279.686 271.605 281.606 272.587 283.27C273.611 284.934 274.997 286.236 276.747 287.174C278.539 288.113 280.565 288.582 282.827 288.582ZM327.334 295.75C323.708 295.75 320.508 295.004 317.734 293.51C315.004 292.017 312.87 289.969 311.334 287.366C309.841 284.764 309.094 281.777 309.094 278.406C309.094 275.036 309.82 272.049 311.27 269.446C312.764 266.844 314.79 264.817 317.35 263.366C319.953 261.873 322.876 261.126 326.118 261.126C329.404 261.126 332.305 261.852 334.822 263.302C337.34 264.753 339.302 266.801 340.71 269.446C342.161 272.049 342.886 275.1 342.886 278.598C342.886 278.854 342.865 279.153 342.822 279.494C342.822 279.836 342.801 280.156 342.758 280.454H313.894V276.038H339.558L337.062 277.574C337.105 275.398 336.657 273.457 335.718 271.75C334.78 270.044 333.478 268.721 331.814 267.782C330.193 266.801 328.294 266.31 326.118 266.31C323.985 266.31 322.086 266.801 320.422 267.782C318.758 268.721 317.457 270.065 316.518 271.814C315.58 273.521 315.11 275.484 315.11 277.702V278.726C315.11 280.988 315.622 283.014 316.646 284.806C317.713 286.556 319.185 287.921 321.062 288.902C322.94 289.884 325.094 290.374 327.526 290.374C329.532 290.374 331.345 290.033 332.966 289.35C334.63 288.668 336.081 287.644 337.318 286.278L340.71 290.246C339.174 292.038 337.254 293.404 334.95 294.342C332.689 295.281 330.15 295.75 327.334 295.75ZM351.162 281.222L356.09 250.566H363.386L356.026 281.222H351.162ZM351.354 295.75C350.202 295.75 349.242 295.366 348.474 294.598C347.748 293.83 347.386 292.934 347.386 291.91C347.386 290.63 347.791 289.585 348.602 288.774C349.455 287.964 350.479 287.558 351.674 287.558C352.826 287.558 353.764 287.921 354.49 288.646C355.258 289.372 355.642 290.268 355.642 291.334C355.642 292.145 355.45 292.892 355.066 293.574C354.682 294.257 354.17 294.79 353.53 295.174C352.89 295.558 352.164 295.75 351.354 295.75Z" fill="white"/>
<g filter="url(#filter1_dd_2970_24826)">
<g clip-path="url(#clip2_2970_24826)">
<rect x="286.773" y="514.096" width="176.522" height="99.2439" rx="11.1632" transform="rotate(70.0567 286.773 514.096)" fill="#E8E8F3"/>
<path d="M259.853 604.583C244.99 606.13 231.685 595.333 230.137 580.466C228.59 565.605 239.386 552.299 254.249 550.754C269.114 549.205 282.42 560.001 283.967 574.864C285.515 589.73 274.718 603.035 259.853 604.583Z" fill="#F7931A"/>
<path fill-rule="evenodd" clip-rule="evenodd" d="M264.584 588.056C268.341 587.292 269.279 583.902 269.221 579.754L274.483 579.197L274.157 576.013L269.033 576.556C268.947 575.719 268.843 574.865 268.739 574.017L273.897 573.471L273.571 570.289L268.31 570.845C268.225 570.157 268.143 569.481 268.075 568.821L268.091 568.819L267.643 564.428L264.222 564.791C264.222 564.791 264.508 567.137 264.461 567.103C264.592 568.392 263.882 568.892 263.244 569.083L257.249 569.717C257.258 569.806 257.266 569.923 257.262 570.056L257.251 569.948L257.251 569.948C257.243 569.874 257.235 569.798 257.227 569.72L248.828 570.608C248.414 570.594 247.739 570.425 247.645 569.524C247.613 569.568 247.408 567.209 247.408 567.209L243.518 566.982L243.943 571.125C243.989 571.588 244.031 572.047 244.073 572.501C244.101 572.803 244.128 573.104 244.157 573.401L238.834 573.966L239.159 577.146L244.426 576.589C244.497 577.464 244.576 578.31 244.662 579.135L239.42 579.688L239.746 582.872L245.059 582.311C245.916 587.631 247.656 591.234 252.761 591.164C256.871 591.108 258.493 589.012 258.916 585.896C260.051 587.642 261.835 588.62 264.584 588.056ZM252.747 584.807C249.099 585.194 248.595 579.488 248.364 576.877C248.344 576.643 248.325 576.433 248.307 576.255L255.359 575.509C255.381 575.726 255.414 575.989 255.452 576.287C255.789 578.951 256.479 584.412 252.747 584.807ZM258.634 575.691C258.821 577.869 259.228 582.622 262.545 582.272C265.938 581.912 265.349 577.363 265.062 575.142C265.029 574.892 265.001 574.671 264.982 574.49L258.586 575.166C258.602 575.316 258.617 575.493 258.634 575.691Z" fill="white"/>
<path d="M261.027 620.87L281.806 613.331L285.339 623.067C286.243 625.561 286.438 627.64 285.922 629.305C285.427 630.963 284.358 632.09 282.715 632.686C281.607 633.088 280.564 633.175 279.585 632.948C278.627 632.714 277.772 632.24 277.021 631.527C276.296 630.827 275.751 629.972 275.385 628.963L276.647 629.11C277.071 630.277 277.234 631.405 277.136 632.493C277.058 633.574 276.71 634.529 276.093 635.358C275.482 636.206 274.574 636.849 273.367 637.287C271.585 637.934 269.953 637.754 268.468 636.747C266.983 635.741 265.752 633.892 264.775 631.2L261.027 620.87ZM265.455 623.631L267.717 629.864C268.241 631.309 268.881 632.331 269.636 632.93C270.391 633.53 271.293 633.639 272.341 633.259C273.37 632.885 273.982 632.227 274.177 631.283C274.392 630.331 274.237 629.133 273.713 627.689L271.344 621.158L274.342 620.07L276.431 625.829C276.919 627.175 277.53 628.118 278.264 628.658C279.004 629.218 279.85 629.325 280.799 628.98C281.769 628.629 282.359 628 282.568 627.096C282.784 626.211 282.648 625.096 282.16 623.75L280.178 618.288L265.455 623.631ZM270.645 647.377L288.159 641.023L285.66 634.136L288.925 632.951L295.323 650.584L292.058 651.768L289.559 644.882L272.045 651.236L270.645 647.377ZM278.683 670.455C278.108 668.871 277.831 667.304 277.85 665.752C277.896 664.212 278.211 662.765 278.794 661.411C279.405 660.07 280.263 658.885 281.368 657.857C282.473 656.829 283.797 656.035 285.341 655.475C286.884 654.915 288.41 654.675 289.917 654.755C291.424 654.836 292.836 655.208 294.152 655.873C295.488 656.53 296.657 657.438 297.66 658.597C298.682 659.749 299.484 661.126 300.066 662.729C300.684 664.431 300.95 666.092 300.866 667.713C300.802 669.326 300.372 670.826 299.576 672.212L296.327 670.569C296.865 669.523 297.164 668.463 297.222 667.389C297.3 666.308 297.142 665.224 296.747 664.135C296.352 663.047 295.811 662.112 295.124 661.331C294.445 660.57 293.657 659.971 292.76 659.535C291.87 659.119 290.911 658.885 289.884 658.832C288.865 658.799 287.82 658.976 286.752 659.364C285.683 659.752 284.768 660.285 284.007 660.964C283.253 661.664 282.668 662.458 282.252 663.348C281.843 664.258 281.622 665.223 281.589 666.242C281.563 667.282 281.747 668.346 282.142 669.434C282.537 670.523 283.101 671.46 283.834 672.247C284.588 673.026 285.516 673.641 286.62 674.091L285.15 677.446C283.67 676.886 282.379 676.011 281.275 674.821C280.172 673.632 279.307 672.176 278.683 670.455Z" fill="#202020"/>
<rect x="180.759" y="552.563" width="175.932" height="99.2439" rx="22.5554" transform="rotate(70.0567 180.759 552.563)" fill="#E8E8F3"/>
<path d="M168.32 658.147L172.068 668.477L168.892 669.63L165.144 659.3L168.32 658.147ZM159.523 661.675L163.777 673.4L160.542 674.574L154.887 658.99L175.666 651.451L181.169 666.619L177.934 667.793L173.83 656.484L159.523 661.675ZM163.632 683.091L181.145 676.737L178.647 669.85L181.912 668.665L188.31 686.297L185.044 687.482L182.546 680.596L165.032 686.95L163.632 683.091ZM194.66 703.798L196.06 707.657L175.281 715.196L173.881 711.337L194.66 703.798ZM169.982 700.592L168.582 696.733L189.361 689.193L190.761 693.052L169.982 700.592ZM182.894 708.403L178.769 697.034L182.064 695.839L186.189 707.208L182.894 708.403Z" fill="#202020"/>
</g>
</g>
<g filter="url(#filter2_dd_2970_24826)">
<g clip-path="url(#clip3_2970_24826)">
<rect x="68.9492" y="484.175" width="176.392" height="99.1279" rx="11.1502" transform="rotate(-21.7704 68.9492 484.175)" fill="#E8E8F3"/>
<circle cx="133.361" cy="511.821" r="27.0349" transform="rotate(-21.7704 133.361 511.821)" fill="#EDEFF1"/>
<path d="M123.024 516.311L135.907 518.208L131.617 507.464L126.673 495.086L123.024 516.311Z" fill="#898989"/>
<path d="M126.673 495.085L131.617 507.463L135.907 518.207L143.94 507.957L126.673 495.085Z" fill="#323232"/>
<path d="M131.62 507.465L143.94 507.958L135.91 518.205L131.62 507.465Z" fill="#141414"/>
<path d="M131.617 507.464L131.62 507.464L135.909 518.203L135.907 518.207L123.024 516.311L131.617 507.464Z" fill="#373737"/>
<path d="M123.802 518.259L140.042 528.561L136.684 520.152L123.802 518.259Z" fill="#898989"/>
<path d="M136.684 520.153L140.042 528.562L144.724 509.904L136.684 520.153Z" fill="#323232"/>
<path d="M174.828 493.214L185.022 489.143L186.273 492.277L176.08 496.348L174.828 493.214ZM178.631 501.885L190.201 497.264L191.476 500.457L176.098 506.598L167.909 486.094L182.877 480.117L184.152 483.309L172.992 487.766L178.631 501.885ZM199.88 497.1L192.978 479.818L186.183 482.532L184.896 479.31L202.295 472.362L203.582 475.584L196.786 478.298L203.688 495.579L199.88 497.1ZM219.564 465.465L223.372 463.944L231.56 484.448L227.752 485.969L219.564 465.465ZM217.149 490.203L213.341 491.724L205.153 471.22L208.96 469.7L217.149 490.203ZM224.536 477.064L213.317 481.545L212.019 478.293L223.237 473.813L224.536 477.064Z" fill="#202020"/>
<rect x="110.728" y="588.785" width="175.727" height="99.1279" rx="22.5291" transform="rotate(-21.7704 110.728 588.785)" fill="#E8E8F3"/>
<path d="M216.607 597.825L226.801 593.754L228.052 596.888L217.859 600.959L216.607 597.825ZM220.41 606.495L231.98 601.874L233.255 605.067L217.877 611.208L209.688 590.705L224.656 584.727L225.931 587.92L214.771 592.377L220.41 606.495ZM241.659 601.711L234.757 584.429L227.962 587.143L226.675 583.921L244.074 576.972L245.361 580.194L238.565 582.908L245.467 600.19L241.659 601.711ZM261.343 570.075L265.151 568.554L273.339 589.058L269.531 590.579L261.343 570.075ZM258.928 594.814L255.12 596.335L246.931 575.831L250.739 574.31L258.928 594.814ZM266.315 581.675L255.096 586.155L253.798 582.904L265.016 578.423L266.315 581.675Z" fill="#202020"/>
</g>
</g>
<g filter="url(#filter3_dd_2970_24826)">
<g clip-path="url(#clip4_2970_24826)">
<rect x="44.0428" y="672.335" width="186.321" height="99.0636" rx="11.1429" transform="rotate(-53.8617 44.0428 672.335)" fill="#E8E8F3"/>
<g clip-path="url(#clip5_2970_24826)">
<rect x="75.5036" y="667.431" width="54.034" height="54.034" rx="27.017" transform="rotate(-53.8627 75.5036 667.431)" fill="white"/>
<path fill-rule="evenodd" clip-rule="evenodd" d="M69.1306 676.158L84.001 655.794L127.639 687.659L112.769 708.023L69.1306 676.158ZM98.8714 635.429L113.742 615.065L157.38 646.93L142.51 667.294L98.8714 635.429Z" fill="#0A6A30"/>
</g>
<path d="M146.822 634.23L129.003 621.218L130.992 618.494L152.873 617.339L151.888 618.688L138.167 608.669L140.565 605.385L158.384 618.397L156.395 621.12L134.514 622.276L135.499 620.927L149.22 630.946L146.822 634.23ZM168.203 605.484C167.187 606.876 166.031 607.996 164.735 608.844C163.434 609.664 162.06 610.209 160.614 610.48C159.15 610.738 157.685 610.696 156.218 610.353C154.751 610.01 153.355 609.355 152.032 608.389C150.708 607.422 149.66 606.292 148.887 604.999C148.113 603.706 147.636 602.33 147.453 600.869C147.266 599.38 147.379 597.888 147.793 596.395C148.19 594.889 148.897 593.441 149.913 592.049C151.016 590.539 152.253 589.361 153.625 588.516C155.009 587.653 156.48 587.153 158.038 587.015L158.55 590.59C157.346 590.778 156.286 591.161 155.368 591.74C154.447 592.29 153.633 593.048 152.926 594.016C152.245 594.949 151.765 595.926 151.488 596.947C151.211 597.967 151.142 598.971 151.281 599.957C151.42 600.943 151.753 601.876 152.281 602.756C152.822 603.619 153.55 604.385 154.467 605.054C155.366 605.711 156.309 606.165 157.296 606.418C158.295 606.653 159.294 606.693 160.292 606.537C161.273 606.369 162.202 606.006 163.077 605.449C163.953 604.891 164.738 604.137 165.432 603.187C166.076 602.304 166.56 601.357 166.883 600.344C167.202 599.302 167.303 598.165 167.186 596.935L171.031 596.855C171.096 598.333 170.872 599.835 170.357 601.359C169.838 602.853 169.12 604.228 168.203 605.484ZM168.312 599.67L161.643 594.8L163.929 591.669L171.031 596.855L168.312 599.67ZM176.229 593.959L158.411 580.947L160.4 578.223L182.28 577.067L181.295 578.416L167.575 568.397L169.973 565.113L187.791 578.125L185.802 580.849L163.922 582.005L164.907 580.656L178.627 590.675L176.229 593.959Z" fill="#202020"/>
<rect x="134.955" y="738.723" width="175.612" height="99.063" rx="22.5143" transform="rotate(-53.8617 134.955 738.723)" fill="#E8E8F3"/>
<circle cx="204.167" cy="727.931" r="27.0172" transform="rotate(-53.8617 204.167 727.931)" fill="#EDEFF1"/>
<path d="M197.798 737.218L209.713 731.984L200.376 725.166L189.619 717.311L197.798 737.218Z" fill="#898989"/>
<path d="M189.619 717.312L200.376 725.168L209.713 731.986L211.072 719.043L189.619 717.312Z" fill="#323232"/>
<path d="M200.38 725.166L211.072 719.043L209.714 731.982L200.38 725.166Z" fill="#141414"/>
<path d="M229.428 690.131L235.897 681.273L238.62 683.262L232.152 692.12L229.428 690.131ZM237.25 695.453L244.593 685.398L247.368 687.424L237.609 700.789L219.79 687.777L229.288 674.769L232.063 676.795L224.981 686.494L237.25 695.453ZM252.701 680.121L237.682 669.154L233.37 675.059L230.57 673.014L241.611 657.894L244.411 659.939L240.099 665.844L255.117 676.812L252.701 680.121ZM252.57 642.886L254.987 639.577L272.806 652.589L270.389 655.898L252.57 642.886ZM263.66 665.113L261.244 668.422L243.425 655.41L245.841 652.101L263.66 665.113ZM262.938 650.067L255.819 659.817L252.993 657.753L260.113 648.004L262.938 650.067Z" fill="#202020"/>
<rect x="225.867" y="805.109" width="175.612" height="99.063" rx="22.5143" transform="rotate(-53.8617 225.867 805.109)" fill="#E8E8F3"/>
</g>
</g>
</g>
<rect width="390" height="72.8542" fill="url(#paint2_linear_2970_24826)"/>
<defs>
<filter id="filter0_i_2970_24826" x="-125" y="379.065" width="638.044" height="364.935" filterUnits="userSpaceOnUse" color-interpolation-filters="sRGB">
<feFlood flood-opacity="0" result="BackgroundImageFix"/>
<feBlend mode="normal" in="SourceGraphic" in2="BackgroundImageFix" result="shape"/>
<feColorMatrix in="SourceAlpha" type="matrix" values="0 0 0 0 0 0 0 0 0 0 0 0 0 0 0 0 0 0 127 0" result="hardAlpha"/>
<feOffset dy="-5.9353"/>
<feGaussianBlur stdDeviation="8.90295"/>
<feComposite in2="hardAlpha" operator="arithmetic" k2="-1" k3="1"/>
<feColorMatrix type="matrix" values="0 0 0 0 0 0 0 0 0 0 0 0 0 0 0 0 0 0 0.5 0"/>
<feBlend mode="normal" in2="shape" result="effect1_innerShadow_2970_24826"/>
</filter>
<filter id="filter1_dd_2970_24826" x="170.839" y="502.775" width="198.585" height="244.518" filterUnits="userSpaceOnUse" color-interpolation-filters="sRGB">
<feFlood flood-opacity="0" result="BackgroundImageFix"/>
<feColorMatrix in="SourceAlpha" type="matrix" values="0 0 0 0 0 0 0 0 0 0 0 0 0 0 0 0 0 0 127 0" result="hardAlpha"/>
<feOffset dy="2.26421"/>
<feGaussianBlur stdDeviation="1.13211"/>
<feComposite in2="hardAlpha" operator="out"/>
<feColorMatrix type="matrix" values="0 0 0 0 0 0 0 0 0 0 0 0 0 0 0 0 0 0 0.25 0"/>
<feBlend mode="normal" in2="BackgroundImageFix" result="effect1_dropShadow_2970_24826"/>
<feColorMatrix in="SourceAlpha" type="matrix" values="0 0 0 0 0 0 0 0 0 0 0 0 0 0 0 0 0 0 127 0" result="hardAlpha"/>
<feOffset dy="11.3211"/>
<feGaussianBlur stdDeviation="11.3211"/>
<feComposite in2="hardAlpha" operator="out"/>
<feColorMatrix type="matrix" values="0 0 0 0 0 0 0 0 0 0 0 0 0 0 0 0 0 0 0.6 0"/>
<feBlend mode="normal" in2="effect1_dropShadow_2970_24826" result="effect2_dropShadow_2970_24826"/>
<feBlend mode="normal" in="SourceGraphic" in2="effect2_dropShadow_2970_24826" result="shape"/>
</filter>
<filter id="filter2_dd_2970_24826" x="46.3071" y="407.679" width="245.243" height="202.517" filterUnits="userSpaceOnUse" color-interpolation-filters="sRGB">
<feFlood flood-opacity="0" result="BackgroundImageFix"/>
<feColorMatrix in="SourceAlpha" type="matrix" values="0 0 0 0 0 0 0 0 0 0 0 0 0 0 0 0 0 0 127 0" result="hardAlpha"/>
<feOffset dy="2.26421"/>
<feGaussianBlur stdDeviation="1.13211"/>
<feComposite in2="hardAlpha" operator="out"/>
<feColorMatrix type="matrix" values="0 0 0 0 0 0 0 0 0 0 0 0 0 0 0 0 0 0 0.25 0"/>
<feBlend mode="normal" in2="BackgroundImageFix" result="effect1_dropShadow_2970_24826"/>
<feColorMatrix in="SourceAlpha" type="matrix" values="0 0 0 0 0 0 0 0 0 0 0 0 0 0 0 0 0 0 127 0" result="hardAlpha"/>
<feOffset dy="11.3211"/>
<feGaussianBlur stdDeviation="11.3211"/>
<feComposite in2="hardAlpha" operator="out"/>
<feColorMatrix type="matrix" values="0 0 0 0 0 0 0 0 0 0 0 0 0 0 0 0 0 0 0.6 0"/>
<feBlend mode="normal" in2="effect1_dropShadow_2970_24826" result="effect2_dropShadow_2970_24826"/>
<feBlend mode="normal" in="SourceGraphic" in2="effect2_dropShadow_2970_24826" result="shape"/>
</filter>
<filter id="filter3_dd_2970_24826" x="21.4007" y="519.191" width="228.852" height="245.528" filterUnits="userSpaceOnUse" color-interpolation-filters="sRGB">
<feFlood flood-opacity="0" result="BackgroundImageFix"/>
<feColorMatrix in="SourceAlpha" type="matrix" values="0 0 0 0 0 0 0 0 0 0 0 0 0 0 0 0 0 0 127 0" result="hardAlpha"/>
<feOffset dy="2.26421"/>
<feGaussianBlur stdDeviation="1.13211"/>
<feComposite in2="hardAlpha" operator="out"/>
<feColorMatrix type="matrix" values="0 0 0 0 0 0 0 0 0 0 0 0 0 0 0 0 0 0 0.25 0"/>
<feBlend mode="normal" in2="BackgroundImageFix" result="effect1_dropShadow_2970_24826"/>
<feColorMatrix in="SourceAlpha" type="matrix" values="0 0 0 0 0 0 0 0 0 0 0 0 0 0 0 0 0 0 127 0" result="hardAlpha"/>
<feOffset dy="11.3211"/>
<feGaussianBlur stdDeviation="11.3211"/>
<feComposite in2="hardAlpha" operator="out"/>
<feColorMatrix type="matrix" values="0 0 0 0 0 0 0 0 0 0 0 0 0 0 0 0 0 0 0.6 0"/>
<feBlend mode="normal" in2="effect1_dropShadow_2970_24826" result="effect2_dropShadow_2970_24826"/>
<feBlend mode="normal" in="SourceGraphic" in2="effect2_dropShadow_2970_24826" result="shape"/>
</filter>
<linearGradient id="paint0_linear_2970_24826" x1="193.98" y1="640.07" x2="193.98" y2="189.745" gradientUnits="userSpaceOnUse">
<stop stop-color="#000C7C"/>
<stop offset="1" stop-color="#D048DC"/>
</linearGradient>
<linearGradient id="paint1_linear_2970_24826" x1="195" y1="-9.06836" x2="195" y2="259" gradientUnits="userSpaceOnUse">
<stop/>
<stop offset="1" stop-opacity="0"/>
</linearGradient>
<linearGradient id="paint2_linear_2970_24826" x1="195" y1="0" x2="195" y2="72.8542" gradientUnits="userSpaceOnUse">
<stop offset="0.697917"/>
<stop offset="1" stop-opacity="0"/>
</linearGradient>
<clipPath id="clip0_2970_24826">
<rect x="-204" y="-471" width="798" height="1191" rx="399" fill="white"/>
</clipPath>
<clipPath id="clip1_2970_24826">
<rect width="638.044" height="359" fill="white" transform="translate(-125 385)"/>
</clipPath>
<clipPath id="clip2_2970_24826">
<rect x="286.773" y="514.096" width="175.932" height="99.2439" rx="17.8612" transform="rotate(70.0567 286.773 514.096)" fill="white"/>
</clipPath>
<clipPath id="clip3_2970_24826">
<rect x="68.9492" y="484.175" width="175.727" height="99.1279" rx="17.8403" transform="rotate(-21.7704 68.9492 484.175)" fill="white"/>
</clipPath>
<clipPath id="clip4_2970_24826">
<rect x="44.0428" y="672.335" width="175.612" height="99.063" rx="17.8286" transform="rotate(-53.8617 44.0428 672.335)" fill="white"/>
</clipPath>
<clipPath id="clip5_2970_24826">
<rect x="75.5036" y="667.431" width="54.034" height="54.034" rx="27.017" transform="rotate(-53.8627 75.5036 667.431)" fill="white"/>
</clipPath>
</defs>
</svg>
