<svg width="80" height="80" viewBox="0 0 80 80" fill="none" xmlns="http://www.w3.org/2000/svg">
<path fill-rule="evenodd" clip-rule="evenodd" d="M47.0155 37.4337C48.4739 37.4337 49.627 38.567 49.627 40.0003C49.627 41.4003 48.4739 42.567 47.0155 42.567H26.6667V58.5003C26.6667 66.667 33.4157 73.3337 41.7588 73.3337H58.2752C66.5843 73.3337 73.3334 66.7003 73.3334 58.5337V21.5003C73.3334 13.3003 66.5504 6.66699 58.2413 6.66699H41.6909C33.4157 6.66699 26.6667 13.3003 26.6667 21.467V37.4337H47.0155ZM14.566 28.4677L4.83271 38.1677C4.33271 38.6677 4.06604 39.301 4.06604 40.001C4.06604 40.6677 4.33271 41.3343 4.83271 41.801L14.566 51.501C15.066 52.001 15.7327 52.2677 16.366 52.2677C17.0327 52.2677 17.6994 52.001 18.1994 51.501C19.1994 50.501 19.1994 48.8677 18.1994 47.8677L12.866 42.5677H26.666V37.4343H12.866L18.1994 32.1343C19.1994 31.1343 19.1994 29.501 18.1994 28.501C17.1994 27.4677 15.566 27.4677 14.566 28.4677Z" fill="#3063E9"/>
</svg>
