<svg width="24" height="24" viewBox="0 0 24 24" fill="none" xmlns="http://www.w3.org/2000/svg">
<path fill-rule="evenodd" clip-rule="evenodd" d="M12 2.75C17.108 2.75 21.25 6.891 21.25 12C21.25 17.108 17.108 21.25 12 21.25C6.891 21.25 2.75 17.108 2.75 12C2.75 6.891 6.891 2.75 12 2.75Z" stroke="#3063E9" stroke-width="1.5" stroke-linecap="round" stroke-linejoin="round"/>
<path d="M12.825 7.41C13.815 7.41 14.615 7.69 15.225 8.25C15.835 8.81 16.14 9.56 16.14 10.5C16.14 11.55 15.815 12.33 15.165 12.84C14.515 13.34 13.635 13.59 12.525 13.59L12.48 15.015H11.295L11.235 12.645H11.67C12.66 12.645 13.435 12.495 13.995 12.195C14.555 11.895 14.835 11.33 14.835 10.5C14.835 9.9 14.655 9.425 14.295 9.075C13.935 8.725 13.45 8.55 12.84 8.55C12.22 8.55 11.73 8.72 11.37 9.06C11.02 9.39 10.845 9.845 10.845 10.425H9.555C9.555 9.825 9.69 9.3 9.96 8.85C10.23 8.39 10.61 8.035 11.1 7.785C11.6 7.535 12.175 7.41 12.825 7.41ZM11.88 18.09C11.62 18.09 11.4 18 11.22 17.82C11.04 17.64 10.95 17.42 10.95 17.16C10.95 16.9 11.04 16.68 11.22 16.5C11.4 16.32 11.62 16.23 11.88 16.23C12.13 16.23 12.34 16.32 12.51 16.5C12.69 16.68 12.78 16.9 12.78 17.16C12.78 17.42 12.69 17.64 12.51 17.82C12.34 18 12.13 18.09 11.88 18.09Z" fill="#3063E9"/>
<path d="M15.225 8.25L15.2926 8.17633L15.2926 8.17633L15.225 8.25ZM15.165 12.84L15.226 12.9193L15.2267 12.9187L15.165 12.84ZM12.525 13.59V13.49H12.4281L12.4251 13.5868L12.525 13.59ZM12.48 15.015V15.115H12.5769L12.58 15.0182L12.48 15.015ZM11.295 15.015L11.195 15.0175L11.1975 15.115H11.295V15.015ZM11.235 12.645V12.545H11.1324L11.135 12.6475L11.235 12.645ZM13.995 12.195L13.9478 12.1069L13.9478 12.1069L13.995 12.195ZM11.37 9.06L11.4386 9.13276L11.4387 9.1327L11.37 9.06ZM10.845 10.425V10.525H10.945V10.425H10.845ZM9.555 10.425H9.455V10.525H9.555V10.425ZM9.96 8.85L10.0458 8.90145L10.0462 8.90062L9.96 8.85ZM11.1 7.785L11.0553 7.69555L11.0546 7.69592L11.1 7.785ZM11.22 17.82L11.1493 17.8907L11.1493 17.8907L11.22 17.82ZM11.22 16.5L11.1493 16.4293L11.1493 16.4293L11.22 16.5ZM12.51 16.5L12.4373 16.5687L12.4393 16.5707L12.51 16.5ZM12.51 17.82L12.4393 17.7493L12.4373 17.7513L12.51 17.82ZM12.825 7.51C13.7951 7.51 14.5693 7.78381 15.1574 8.32366L15.2926 8.17633C14.6607 7.59619 13.8349 7.31 12.825 7.31V7.51ZM15.1574 8.32366C15.7439 8.86207 16.04 9.58383 16.04 10.5H16.24C16.24 9.53617 15.9261 8.75793 15.2926 8.17633L15.1574 8.32366ZM16.04 10.5C16.04 11.5284 15.7228 12.2753 15.1033 12.7613L15.2267 12.9187C15.9072 12.3847 16.24 11.5716 16.24 10.5H16.04ZM15.104 12.7607C14.4768 13.2432 13.6207 13.49 12.525 13.49V13.69C13.6493 13.69 14.5532 13.4368 15.226 12.9193L15.104 12.7607ZM12.4251 13.5868L12.38 15.0118L12.58 15.0182L12.625 13.5932L12.4251 13.5868ZM12.48 14.915H11.295V15.115H12.48V14.915ZM11.395 15.0125L11.335 12.6425L11.135 12.6475L11.195 15.0175L11.395 15.0125ZM11.235 12.745H11.67V12.545H11.235V12.745ZM11.67 12.745C12.6681 12.745 13.4618 12.5941 14.0422 12.2831L13.9478 12.1069C13.4082 12.3959 12.6519 12.545 11.67 12.545V12.745ZM14.0422 12.2831C14.6449 11.9603 14.935 11.3537 14.935 10.5H14.735C14.735 11.3063 14.4651 11.8297 13.9478 12.1069L14.0422 12.2831ZM14.935 10.5C14.935 9.87866 14.7478 9.37574 14.3647 9.0033L14.2253 9.1467C14.5622 9.47426 14.735 9.92134 14.735 10.5H14.935ZM14.3647 9.0033C13.9822 8.6314 13.4701 8.45 12.84 8.45V8.65C13.4299 8.65 13.8878 8.8186 14.2253 9.1467L14.3647 9.0033ZM12.84 8.45C12.2012 8.45 11.6843 8.62563 11.3013 8.9873L11.4387 9.1327C11.7757 8.81437 12.2388 8.65 12.84 8.65V8.45ZM11.3014 8.98724C10.9273 9.33995 10.745 9.82357 10.745 10.425H10.945C10.945 9.86643 11.1127 9.44004 11.4386 9.13276L11.3014 8.98724ZM10.845 10.325H9.555V10.525H10.845V10.325ZM9.655 10.425C9.655 9.84048 9.78635 9.33378 10.0457 8.90145L9.87425 8.79855C9.59365 9.26622 9.455 9.80952 9.455 10.425H9.655ZM10.0462 8.90062C10.3063 8.4576 10.6719 8.1157 11.1454 7.87408L11.0546 7.69592C10.5481 7.9543 10.1537 8.3224 9.87376 8.79938L10.0462 8.90062ZM11.1447 7.87444C11.6287 7.63243 12.188 7.51 12.825 7.51V7.31C12.162 7.31 11.5713 7.43757 11.0553 7.69556L11.1447 7.87444ZM11.88 17.99C11.6459 17.99 11.4515 17.9101 11.2907 17.7493L11.1493 17.8907C11.3485 18.0899 11.5941 18.19 11.88 18.19V17.99ZM11.2907 17.7493C11.1299 17.5885 11.05 17.3941 11.05 17.16H10.85C10.85 17.4459 10.9501 17.6915 11.1493 17.8907L11.2907 17.7493ZM11.05 17.16C11.05 16.9259 11.1299 16.7315 11.2907 16.5707L11.1493 16.4293C10.9501 16.6285 10.85 16.8741 10.85 17.16H11.05ZM11.2907 16.5707C11.4515 16.4099 11.6459 16.33 11.88 16.33V16.13C11.5941 16.13 11.3485 16.2301 11.1493 16.4293L11.2907 16.5707ZM11.88 16.33C12.1028 16.33 12.2864 16.4089 12.4373 16.5687L12.5827 16.4313C12.3936 16.2311 12.1572 16.13 11.88 16.13V16.33ZM12.4393 16.5707C12.6001 16.7315 12.68 16.9259 12.68 17.16H12.88C12.88 16.8741 12.7799 16.6285 12.5807 16.4293L12.4393 16.5707ZM12.68 17.16C12.68 17.3941 12.6001 17.5885 12.4393 17.7493L12.5807 17.8907C12.7799 17.6915 12.88 17.4459 12.88 17.16H12.68ZM12.4373 17.7513C12.2864 17.9111 12.1028 17.99 11.88 17.99V18.19C12.1572 18.19 12.3936 18.0889 12.5827 17.8887L12.4373 17.7513Z" fill="#3063E9"/>
</svg>
