<svg width="54" height="55" viewBox="0 0 54 55" fill="none" xmlns="http://www.w3.org/2000/svg">
<rect y="44" width="54" height="20.1356" rx="10.0678" fill="#3063E9"/>
<path d="M36.7998 8.52511L29.5998 3.48761C27.6373 2.11261 24.6248 2.18761 22.7373 3.65011L16.4748 8.5376C15.2248 9.5126 14.2373 11.5126 14.2373 13.0876V21.7126C14.2373 24.9001 16.8248 27.5001 20.0123 27.5001H33.4873C36.6748 27.5001 39.2623 24.9126 39.2623 21.7251V13.2501C39.2623 11.5626 38.1748 9.48761 36.7998 8.52511ZM27.6873 22.5001C27.6873 23.0126 27.2623 23.4376 26.7498 23.4376C26.2373 23.4376 25.8123 23.0126 25.8123 22.5001V18.7501C25.8123 18.2376 26.2373 17.8126 26.7498 17.8126C27.2623 17.8126 27.6873 18.2376 27.6873 18.7501V22.5001Z" fill="#3063E9"/>
</svg>
