<svg width="144" height="31" viewBox="0 0 144 31" fill="none" xmlns="http://www.w3.org/2000/svg">
<rect y="0.5" width="144" height="30" rx="8" fill="#01CB63" fill-opacity="0.2"/>
<path fill-rule="evenodd" clip-rule="evenodd" d="M21.7281 25.4137C21.8388 25.4715 21.9627 25.5009 22.0865 25.5C22.2103 25.499 22.3331 25.4686 22.4449 25.4097L26.0128 23.5025C27.0245 22.9631 27.8168 22.3601 28.435 21.6579C29.779 20.1282 30.5129 18.1758 30.4998 16.1626L30.4575 9.52198C30.4535 8.75711 29.9511 8.07461 29.2082 7.82652L22.5707 5.59956C22.1711 5.46424 21.7331 5.46718 21.3405 5.60643L14.7282 7.91281C13.9893 8.17071 13.496 8.85811 13.5 9.62397L13.5423 16.2597C13.5554 18.2758 14.3145 20.2194 15.6806 21.7335C16.3048 22.4258 17.1041 23.02 18.127 23.5505L21.7281 25.4137ZM20.7836 17.6089C20.9326 17.7521 21.1259 17.8227 21.3192 17.8207C21.5125 17.8198 21.7047 17.7472 21.8517 17.6021L25.7508 13.7581C26.0438 13.4688 26.0408 13.004 25.7448 12.7187C25.4478 12.4333 24.9696 12.4353 24.6766 12.7245L21.3081 16.0449L19.9289 14.7191C19.6319 14.4337 19.1547 14.4367 18.8607 14.726C18.5677 15.0152 18.5708 15.48 18.8678 15.7654L20.7836 17.6089Z" fill="#05A753"/>
<path d="M49.992 21.5H48.136L44.2 16.332L42.136 18.572V21.5H40.6V10.3H42.136V16.588L47.864 10.3H49.704L45.272 15.132L49.992 21.5ZM60.3445 10.3L56.1525 17.66V21.5H54.6165V17.724L50.3605 10.3H51.9285L55.3845 16.012L58.7765 10.3H60.3445ZM69.5245 12.988C69.0978 12.54 68.6018 12.1933 68.0365 11.948C67.4712 11.692 66.8898 11.564 66.2925 11.564C65.5032 11.564 64.7778 11.756 64.1165 12.14C63.4552 12.524 62.9325 13.0467 62.5485 13.708C62.1645 14.3587 61.9725 15.0787 61.9725 15.868C61.9725 16.6467 62.1645 17.3667 62.5485 18.028C62.9325 18.6893 63.4552 19.212 64.1165 19.596C64.7778 19.98 65.5032 20.172 66.2925 20.172C66.8792 20.172 67.4552 20.0547 68.0205 19.82C68.5858 19.5747 69.0872 19.244 69.5245 18.828L70.4525 19.836C69.8872 20.3907 69.2312 20.828 68.4845 21.148C67.7378 21.4573 66.9805 21.612 66.2125 21.612C65.1458 21.612 64.1698 21.3613 63.2845 20.86C62.3992 20.348 61.7005 19.6547 61.1885 18.78C60.6765 17.9053 60.4205 16.94 60.4205 15.884C60.4205 14.8387 60.6765 13.884 61.1885 13.02C61.7112 12.1453 62.4205 11.4573 63.3165 10.956C64.2125 10.4547 65.1992 10.204 66.2765 10.204C67.0552 10.204 67.8072 10.3533 68.5325 10.652C69.2685 10.94 69.9032 11.3507 70.4365 11.884L69.5245 12.988ZM75.2355 13.036H76.8195L79.3635 20.028L81.8915 13.036H83.3955L80.0995 21.5H78.5475L75.2355 13.036ZM87.9105 12.988C89.2225 12.988 90.2145 13.3773 90.8865 14.156C91.5585 14.924 91.8945 15.996 91.8945 17.372C91.8945 17.5853 91.8892 17.7453 91.8785 17.852H85.1905C85.3078 18.6093 85.6225 19.212 86.1345 19.66C86.6572 20.108 87.2972 20.332 88.0545 20.332C88.5558 20.332 89.0198 20.2413 89.4465 20.06C89.8838 19.8787 90.2625 19.6227 90.5825 19.292L91.3985 20.14C90.9825 20.588 90.4812 20.9347 89.8945 21.18C89.3078 21.4253 88.6572 21.548 87.9425 21.548C87.1105 21.548 86.3692 21.372 85.7185 21.02C85.0785 20.6573 84.5772 20.1507 84.2145 19.5C83.8625 18.8493 83.6865 18.108 83.6865 17.276C83.6865 16.444 83.8625 15.708 84.2145 15.068C84.5772 14.4173 85.0785 13.9107 85.7185 13.548C86.3585 13.1747 87.0892 12.988 87.9105 12.988ZM90.5505 16.7C90.5078 15.932 90.2518 15.3293 89.7825 14.892C89.3132 14.444 88.6945 14.22 87.9265 14.22C87.1798 14.22 86.5558 14.444 86.0545 14.892C85.5638 15.34 85.2705 15.9427 85.1745 16.7H90.5505ZM95.4128 14.86C95.6901 14.252 96.0848 13.7933 96.5968 13.484C97.1088 13.164 97.7168 12.9987 98.4208 12.988V14.428C97.5568 14.396 96.8581 14.62 96.3248 15.1C95.7914 15.58 95.4874 16.2253 95.4128 17.036V21.5H93.9248V13.036H95.4128V14.86ZM100.034 13.036H101.522V21.5H100.034V13.036ZM100.77 9.66C101.037 9.66 101.255 9.75067 101.426 9.932C101.607 10.1133 101.698 10.3427 101.698 10.62C101.698 10.8973 101.607 11.1267 101.426 11.308C101.255 11.4893 101.037 11.58 100.77 11.58C100.503 11.58 100.279 11.4893 100.098 11.308C99.9275 11.1267 99.8421 10.8973 99.8421 10.62C99.8421 10.3427 99.9275 10.1133 100.098 9.932C100.279 9.75067 100.503 9.66 100.77 9.66ZM107.545 10.86C107.161 10.86 106.841 10.9773 106.585 11.212C106.329 11.4467 106.201 11.7827 106.201 12.22V13.324H108.537V14.46H106.201V21.5H104.713V14.46H103.609V13.324H104.713V12.412C104.713 11.7933 104.841 11.2707 105.097 10.844C105.363 10.4067 105.71 10.0813 106.137 9.868C106.563 9.644 107.022 9.532 107.513 9.532C107.982 9.532 108.473 9.66 108.985 9.916L108.633 11.132C108.249 10.9507 107.886 10.86 107.545 10.86ZM109.897 13.036H111.385V21.5H109.897V13.036ZM110.633 9.66C110.899 9.66 111.118 9.75067 111.289 9.932C111.47 10.1133 111.561 10.3427 111.561 10.62C111.561 10.8973 111.47 11.1267 111.289 11.308C111.118 11.4893 110.899 11.58 110.633 11.58C110.366 11.58 110.142 11.4893 109.961 11.308C109.79 11.1267 109.705 10.8973 109.705 10.62C109.705 10.3427 109.79 10.1133 109.961 9.932C110.142 9.75067 110.366 9.66 110.633 9.66ZM117.676 12.988C118.988 12.988 119.98 13.3773 120.652 14.156C121.324 14.924 121.66 15.996 121.66 17.372C121.66 17.5853 121.655 17.7453 121.644 17.852H114.956C115.073 18.6093 115.388 19.212 115.9 19.66C116.423 20.108 117.063 20.332 117.82 20.332C118.321 20.332 118.785 20.2413 119.212 20.06C119.649 19.8787 120.028 19.6227 120.348 19.292L121.164 20.14C120.748 20.588 120.247 20.9347 119.66 21.18C119.073 21.4253 118.423 21.548 117.708 21.548C116.876 21.548 116.135 21.372 115.484 21.02C114.844 20.6573 114.343 20.1507 113.98 19.5C113.628 18.8493 113.452 18.108 113.452 17.276C113.452 16.444 113.628 15.708 113.98 15.068C114.343 14.4173 114.844 13.9107 115.484 13.548C116.124 13.1747 116.855 12.988 117.676 12.988ZM120.316 16.7C120.273 15.932 120.017 15.3293 119.548 14.892C119.079 14.444 118.46 14.22 117.692 14.22C116.945 14.22 116.321 14.444 115.82 14.892C115.329 15.34 115.036 15.9427 114.94 16.7H120.316ZM131.578 9.628V21.5H130.09V19.82C129.77 20.3853 129.338 20.8227 128.794 21.132C128.261 21.4307 127.637 21.58 126.922 21.58C126.122 21.58 125.413 21.3987 124.794 21.036C124.186 20.6627 123.712 20.1507 123.37 19.5C123.029 18.8387 122.858 18.0867 122.858 17.244C122.858 16.412 123.029 15.676 123.37 15.036C123.712 14.3853 124.186 13.8787 124.794 13.516C125.413 13.1533 126.117 12.972 126.906 12.972C127.632 12.972 128.266 13.1213 128.81 13.42C129.354 13.7187 129.781 14.1507 130.09 14.716V9.628H131.578ZM127.226 20.3C127.781 20.3 128.272 20.172 128.698 19.916C129.136 19.66 129.477 19.3027 129.722 18.844C129.968 18.3853 130.09 17.868 130.09 17.292C130.09 16.7053 129.968 16.1827 129.722 15.724C129.477 15.2653 129.136 14.908 128.698 14.652C128.272 14.396 127.781 14.268 127.226 14.268C126.672 14.268 126.176 14.4013 125.738 14.668C125.312 14.924 124.976 15.2813 124.73 15.74C124.485 16.1987 124.362 16.716 124.362 17.292C124.362 17.868 124.485 18.3853 124.73 18.844C124.976 19.3027 125.312 19.66 125.738 19.916C126.176 20.172 126.672 20.3 127.226 20.3Z" fill="#202020"/>
</svg>
