<svg width="25" height="26" viewBox="0 0 25 26" fill="none" xmlns="http://www.w3.org/2000/svg">
<path d="M11.72 20.12C10.7067 20.12 9.74667 19.96 8.84 19.64C7.94667 19.3067 7.22667 18.8667 6.68 18.32L7.38 17.18C7.83333 17.6467 8.44 18.0333 9.2 18.34C9.97333 18.6467 10.8133 18.8 11.72 18.8C12.88 18.8 13.7667 18.5467 14.38 18.04C15.0067 17.5333 15.32 16.8533 15.32 16C15.32 15.1467 15.0133 14.4667 14.4 13.96C13.8 13.4533 12.8467 13.2 11.54 13.2H10.54V12.14L14.86 6.72L15.06 7.28H7.26V6H16.26V7.02L11.94 12.44L11.24 11.98H11.78C13.46 11.98 14.7133 12.3533 15.54 13.1C16.38 13.8467 16.8 14.8067 16.8 15.98C16.8 16.7667 16.6133 17.4733 16.24 18.1C15.8667 18.7267 15.3 19.22 14.54 19.58C13.7933 19.94 12.8533 20.12 11.72 20.12Z" fill="#3063E9"/>
<rect x="0.75" y="1.25" width="23.5" height="23.5" rx="11.75" stroke="#3063E9" stroke-width="1.5"/>
</svg>
