<svg width="120" height="41" viewBox="0 0 120 41" fill="none" xmlns="http://www.w3.org/2000/svg">
<rect x="0.5" y="1.08203" width="119" height="39" rx="6.5" fill="#0C0D10"/>
<path d="M81.5259 19.7824V22.0734H80.0899V23.5759H81.5259V28.6808C81.5259 30.424 82.3145 31.1213 84.2984 31.1213C84.647 31.1213 84.9791 31.0798 85.2696 31.03V29.5441C85.0206 29.569 84.8628 29.5856 84.5889 29.5856C83.7007 29.5856 83.3106 29.1706 83.3106 28.2243V23.5759H85.2696V22.0734H83.3106V19.7824H81.5259Z" fill="white"/>
<path d="M90.3234 31.2458C92.9631 31.2458 94.5817 29.4777 94.5817 26.5475C94.5817 23.634 92.9548 21.8576 90.3234 21.8576C87.6838 21.8576 86.0568 23.634 86.0568 26.5475C86.0568 29.4777 87.6755 31.2458 90.3234 31.2458ZM90.3234 29.6603C88.7712 29.6603 87.8996 28.5231 87.8996 26.5475C87.8996 24.5886 88.7712 23.443 90.3234 23.443C91.8674 23.443 92.7473 24.5886 92.7473 26.5475C92.7473 28.5148 91.8674 29.6603 90.3234 29.6603Z" fill="white"/>
<path d="M95.9666 31.0715H97.7513V25.7341C97.7513 24.464 98.7059 23.6091 100.059 23.6091C100.374 23.6091 100.906 23.6672 101.055 23.717V21.9572C100.864 21.9074 100.524 21.8825 100.258 21.8825C99.0794 21.8825 98.075 22.53 97.8177 23.4181H97.6849V22.0319H95.9666V31.0715Z" fill="white"/>
<path d="M105.486 23.3766C106.806 23.3766 107.669 24.298 107.711 25.7175H103.145C103.245 24.3063 104.166 23.3766 105.486 23.3766ZM107.703 28.631C107.371 29.3366 106.632 29.7267 105.553 29.7267C104.125 29.7267 103.204 28.7223 103.145 27.1369V27.0373H109.529V26.4147C109.529 23.5759 108.01 21.8576 105.495 21.8576C102.946 21.8576 101.328 23.6921 101.328 26.5807C101.328 29.4694 102.913 31.2458 105.503 31.2458C107.57 31.2458 109.014 30.2497 109.421 28.631H107.703Z" fill="white"/>
<path d="M69.8223 27.7333C69.96 29.953 71.8098 31.3726 74.5629 31.3726C77.5053 31.3726 79.3464 29.8842 79.3464 27.5096C79.3464 25.6426 78.2968 24.6102 75.7502 24.0166L74.3822 23.681C72.7647 23.3025 72.1109 22.7949 72.1109 21.9087C72.1109 20.7903 73.1261 20.059 74.6489 20.059C76.0943 20.059 77.0923 20.7731 77.273 21.9173H79.1486C79.0367 19.8267 77.1956 18.3555 74.6747 18.3555C71.9646 18.3555 70.1579 19.8267 70.1579 22.0378C70.1579 23.8617 71.1817 24.9458 73.4272 25.4706L75.0275 25.8577C76.6707 26.2449 77.3934 26.8127 77.3934 27.7591C77.3934 28.8604 76.2578 29.6605 74.7091 29.6605C73.0487 29.6605 71.8958 28.912 71.7323 27.7333H69.8223Z" fill="white"/>
<path d="M51.335 21.8825C50.1065 21.8825 49.044 22.4968 48.4961 23.5261H48.3633V22.0319H46.6451V34.0763H48.4297V29.7018H48.5708C49.044 30.6564 50.065 31.2209 51.3516 31.2209C53.6343 31.2209 55.087 29.4196 55.087 26.5475C55.087 23.6755 53.6343 21.8825 51.335 21.8825ZM50.8287 29.6188C49.3345 29.6188 48.3965 28.4401 48.3965 26.5558C48.3965 24.6633 49.3345 23.4846 50.837 23.4846C52.3477 23.4846 53.2525 24.6384 53.2525 26.5475C53.2525 28.465 52.3477 29.6188 50.8287 29.6188Z" fill="white"/>
<path d="M61.3318 21.8825C60.1033 21.8825 59.0408 22.4968 58.4929 23.5261H58.3601V22.0319H56.6419V34.0763H58.4265V29.7018H58.5676C59.0408 30.6564 60.0618 31.2209 61.3484 31.2209C63.6311 31.2209 65.0838 29.4196 65.0838 26.5475C65.0838 23.6755 63.6311 21.8825 61.3318 21.8825ZM60.8255 29.6188C59.3313 29.6188 58.3933 28.4401 58.3933 26.5558C58.3933 24.6633 59.3313 23.4846 60.8338 23.4846C62.3445 23.4846 63.2493 24.6384 63.2493 26.5475C63.2493 28.465 62.3445 29.6188 60.8255 29.6188Z" fill="white"/>
<path d="M43.4431 31.0715H45.4907L41.0083 18.6566H38.9348L34.4524 31.0715H36.4312L37.5755 27.7763H42.3074L43.4431 31.0715ZM39.8726 20.9107H40.0189L41.817 26.1589H38.0659L39.8726 20.9107Z" fill="white"/>
<path d="M35.6511 9.29272V15.2817H37.8135C39.5981 15.2817 40.6316 14.1819 40.6316 12.2686C40.6316 10.3843 39.5898 9.29272 37.8135 9.29272H35.6511ZM36.5808 10.1394H37.7097C38.9507 10.1394 39.6853 10.928 39.6853 12.281C39.6853 13.6548 38.9631 14.4351 37.7097 14.4351H36.5808V10.1394Z" fill="white"/>
<path d="M43.7967 15.3689C45.1165 15.3689 45.9258 14.4849 45.9258 13.0198C45.9258 11.563 45.1124 10.6748 43.7967 10.6748C42.4769 10.6748 41.6634 11.563 41.6634 13.0198C41.6634 14.4849 42.4727 15.3689 43.7967 15.3689ZM43.7967 14.5762C43.0206 14.5762 42.5848 14.0076 42.5848 13.0198C42.5848 12.0403 43.0206 11.4675 43.7967 11.4675C44.5687 11.4675 45.0086 12.0403 45.0086 13.0198C45.0086 14.0034 44.5687 14.5762 43.7967 14.5762Z" fill="white"/>
<path d="M52.818 10.762H51.9256L51.1205 14.2109H51.0499L50.1202 10.762H49.2652L48.3355 14.2109H48.2691L47.4598 10.762H46.555L47.8001 15.2817H48.7174L49.6471 11.9531H49.7176L50.6515 15.2817H51.577L52.818 10.762Z" fill="white"/>
<path d="M53.8456 15.2817H54.7379V12.6379C54.7379 11.9324 55.1571 11.4924 55.817 11.4924C56.477 11.4924 56.7924 11.8535 56.7924 12.5798V15.2817H57.6847V12.3557C57.6847 11.2808 57.1286 10.6748 56.12 10.6748C55.4394 10.6748 54.9911 10.9778 54.7711 11.48H54.7047V10.762H53.8456V15.2817Z" fill="white"/>
<path d="M59.09 15.2817H59.9824V8.99805H59.09V15.2817Z" fill="white"/>
<path d="M63.3384 15.3689C64.6582 15.3689 65.4675 14.4849 65.4675 13.0198C65.4675 11.563 64.6541 10.6748 63.3384 10.6748C62.0186 10.6748 61.2051 11.563 61.2051 13.0198C61.2051 14.4849 62.0144 15.3689 63.3384 15.3689ZM63.3384 14.5762C62.5623 14.5762 62.1265 14.0076 62.1265 13.0198C62.1265 12.0403 62.5623 11.4675 63.3384 11.4675C64.1104 11.4675 64.5503 12.0403 64.5503 13.0198C64.5503 14.0034 64.1104 14.5762 63.3384 14.5762Z" fill="white"/>
<path d="M68.1263 14.6052C67.6407 14.6052 67.2879 14.3687 67.2879 13.9619C67.2879 13.5635 67.5701 13.3518 68.1927 13.3103L69.2967 13.2397V13.6174C69.2967 14.1777 68.7986 14.6052 68.1263 14.6052ZM67.898 15.3564C68.4915 15.3564 68.9854 15.0991 69.2552 14.6467H69.3257V15.2817H70.1849V12.1938C70.1849 11.2393 69.5457 10.6748 68.4126 10.6748C67.3875 10.6748 66.657 11.1729 66.5657 11.949H67.429C67.5286 11.6294 67.8731 11.4468 68.3711 11.4468C68.9812 11.4468 69.2967 11.7166 69.2967 12.1938V12.584L68.0723 12.6545C66.9974 12.7209 66.3914 13.1899 66.3914 14.0034C66.3914 14.8293 67.0264 15.3564 67.898 15.3564Z" fill="white"/>
<path d="M73.213 15.3564C73.8355 15.3564 74.3626 15.0618 74.6324 14.5679H74.703V15.2817H75.558V8.99805H74.6656V11.48H74.5992C74.3543 10.9819 73.8314 10.6873 73.213 10.6873C72.0716 10.6873 71.337 11.592 71.337 13.0198C71.337 14.4517 72.0633 15.3564 73.213 15.3564ZM73.4662 11.4883C74.2132 11.4883 74.6822 12.0818 74.6822 13.0239C74.6822 13.9702 74.2174 14.5554 73.4662 14.5554C72.7108 14.5554 72.2584 13.9785 72.2584 13.0198C72.2584 12.0693 72.7149 11.4883 73.4662 11.4883Z" fill="white"/>
<path d="M81.3444 15.3689C82.6643 15.3689 83.4736 14.4849 83.4736 13.0198C83.4736 11.563 82.6601 10.6748 81.3444 10.6748C80.0246 10.6748 79.2111 11.563 79.2111 13.0198C79.2111 14.4849 80.0205 15.3689 81.3444 15.3689ZM81.3444 14.5762C80.5683 14.5762 80.1325 14.0076 80.1325 13.0198C80.1325 12.0403 80.5683 11.4675 81.3444 11.4675C82.1164 11.4675 82.5563 12.0403 82.5563 13.0198C82.5563 14.0034 82.1164 14.5762 81.3444 14.5762Z" fill="white"/>
<path d="M84.6548 15.2817H85.5471V12.6379C85.5471 11.9324 85.9663 11.4924 86.6262 11.4924C87.2861 11.4924 87.6016 11.8535 87.6016 12.5798V15.2817H88.4939V12.3557C88.4939 11.2808 87.9377 10.6748 86.9292 10.6748C86.2485 10.6748 85.8003 10.9778 85.5803 11.48H85.5139V10.762H84.6548V15.2817Z" fill="white"/>
<path d="M92.6036 9.63721V10.7827H91.8856V11.5339H92.6036V14.0864C92.6036 14.958 92.9979 15.3066 93.9898 15.3066C94.1642 15.3066 94.3302 15.2859 94.4754 15.261V14.5181C94.3509 14.5305 94.2721 14.5388 94.1351 14.5388C93.691 14.5388 93.4959 14.3313 93.4959 13.8582V11.5339H94.4754V10.7827H93.4959V9.63721H92.6036Z" fill="white"/>
<path d="M95.6732 15.2817H96.5656V12.6421C96.5656 11.9573 96.9723 11.4966 97.7028 11.4966C98.3336 11.4966 98.6698 11.8618 98.6698 12.584V15.2817H99.5622V12.364C99.5622 11.2891 98.9687 10.679 98.0058 10.679C97.3251 10.679 96.8478 10.9819 96.6278 11.4883H96.5573V8.99805H95.6732V15.2817Z" fill="white"/>
<path d="M102.781 11.4343C103.441 11.4343 103.873 11.895 103.894 12.6047H101.611C101.661 11.8992 102.121 11.4343 102.781 11.4343ZM103.889 14.0615C103.723 14.4143 103.354 14.6094 102.814 14.6094C102.101 14.6094 101.64 14.1072 101.611 13.3145V13.2646H104.802V12.9534C104.802 11.5339 104.043 10.6748 102.785 10.6748C101.511 10.6748 100.702 11.592 100.702 13.0364C100.702 14.4807 101.495 15.3689 102.789 15.3689C103.823 15.3689 104.545 14.8708 104.748 14.0615H103.889Z" fill="white"/>
<path d="M24.769 20.8831C24.7907 19.2021 25.6934 17.6115 27.1256 16.731C26.2221 15.4407 24.7088 14.6226 23.1344 14.5734C21.4552 14.3971 19.8272 15.5782 18.9715 15.5782C18.0992 15.5782 16.7817 14.5909 15.363 14.62C13.5137 14.6798 11.7898 15.7312 10.8901 17.3479C8.95607 20.6963 10.3987 25.6174 12.2513 28.324C13.1782 29.6493 14.2615 31.1298 15.6789 31.0773C17.066 31.0198 17.584 30.1928 19.2583 30.1928C20.9171 30.1928 21.4031 31.0773 22.8493 31.0439C24.3377 31.0198 25.2754 29.7127 26.1698 28.3748C26.8358 27.4304 27.3483 26.3867 27.6882 25.2823C25.9391 24.5425 24.771 22.7822 24.769 20.8831Z" fill="white"/>
<path d="M22.0373 12.7934C22.8489 11.8191 23.2487 10.567 23.1518 9.30273C21.912 9.43295 20.7668 10.0255 19.9443 10.9623C19.14 11.8777 18.7214 13.1078 18.8006 14.3237C20.0408 14.3365 21.2601 13.76 22.0373 12.7934Z" fill="white"/>
<rect x="0.5" y="1.08203" width="119" height="39" rx="6.5" stroke="#A6A6A6"/>
</svg>
