<svg xmlns="http://www.w3.org/2000/svg" viewBox="0 0 399.85 399.86"><g id="Layer_2" data-name="Layer 2"><g id="svg"><g id="svgg"><path id="path0" d="M181.57,105.75a6.36,6.36,0,0,0-.68,2.11c-.16.88-1,4.57-1.87,8.2s-1.77,7.41-2,8.4-.58,2.43-.77,3.2c-.39,1.54-1.81,7.56-2.44,10.4-.22,1-.57,2.43-.76,3.2s-.73,3-1.18,4.9-1.18,5.07-1.63,7-1,4.13-1.18,4.9c-.37,1.42-.55,2.17-3.84,16.2-2.34,10-1.52,8.76-8.24,12.08l-14.82,7.31-9.1,4.48v5.56c0,4.76.09,5.57.61,5.57.34,0,6.13-2.7,12.85-6s12.39-6,12.58-6c.54,0,.43,1.28-.42,4.69-.74,3-1.43,5.85-3.24,13.61-.45,1.92-1,4.13-1.18,4.9-.36,1.36-1.68,6.95-2.41,10.2-.2.88-.83,3.58-1.4,6s-1.3,5.48-1.61,6.8-1,4.38-1.59,6.8l-1.83,7.8c-.43,1.87-1,4-1.15,4.8s-.57,2.3-.81,3.4c-.61,2.69-1.18,4.94-1.63,6.42a8.91,8.91,0,0,0-.37,2.13,4.08,4.08,0,0,1-.4,1.64c-.34.63-.23.78.7,1,1.69.32,96.83,0,97.16-.28a13.75,13.75,0,0,0,1-2.79c1.38-5.17,3.48-12.86,4.44-16.28.21-.77.54-2,.74-2.8s.52-2,.74-2.8c.67-2.36,2.05-7.79,2.05-8.1s-13.59-.3-30.21-.3c-25.18,0-30.24-.09-30.42-.55s1.58-10.21,3.45-18.85l.6-2.8c.14-.66.42-2.1.62-3.2s.55-2.81.77-3.8.58-2.7.78-3.8c.39-2.05,1-5.17,1.63-8,.38-1.79.62-3,1.23-6.2.23-1.21.57-2.83.76-3.6s.54-2.48.8-3.8.61-3.12.8-4,.55-2.68.81-4c1-5.09-.16-4.14,13.28-10.8l12.11-6L225,159c.08-4.42,0-5.7-.4-5.69s-5,2.24-10.51,5-10.16,4.81-10.36,4.62.64-5.19,2-11.68c1.26-6.23,2.44-12,2.61-12.92.53-2.7,1.24-6.32,1.59-8,.17-.88.53-2.68.8-4s.62-3.12.8-4,.53-2.68.8-4,.63-3.12.82-4c1.1-5.14,1.28-6.13,1.33-7.4l.05-1.4-16.25-.11c-12.7-.08-16.34,0-16.65.4" style="fill:#fbfbfb;fill-rule:evenodd"/><path id="path1" d="M181.46.19a16.15,16.15,0,0,1-3.5.3c-1.81,0-3.29.23-3.29.42s-1.14.35-2.52.35a6.4,6.4,0,0,0-3.06.5c-.44.4-.48.38-.21-.1s.23-.51-.25-.13A6.33,6.33,0,0,1,166,2.1c-1.13.06-2,.25-1.86.43s-2.88.55-4,.36c-.19,0-.22.13-.08.36s-.43.41-1.57.41-1.82.18-1.82.4-.9.4-2,.4-2,.18-2,.4-.72.4-1.6.4-1.6.18-1.6.4-.53.4-1.18.4a2,2,0,0,0-1.42.4,2.52,2.52,0,0,1-1.63.4c-.76,0-1.37.18-1.37.4s-.65.4-1.43.4-1.32.16-1.17.4-.33.4-1.16.4a2.52,2.52,0,0,0-1.66.42.68.68,0,0,1-.78.24.86.86,0,0,0-.87.17,2.94,2.94,0,0,1-1.45.45c-.6,0-1.08.23-1.08.4s-.53.32-1.17.32-1.23.13-1.3.3c-.17.37-3.74,1.73-5.23,2-.61.11-1.1.31-1.1.45,0,.29-1.36.9-3.8,1.72a8.32,8.32,0,0,0-1.8.75c-.49.53-3,1.51-3.35,1.3s-.25,0-.09.22,0,.47-.52.47a8.17,8.17,0,0,0-2.76,1.15,26.54,26.54,0,0,1-3.42,1.68c-.8.29-1.46.67-1.46.85s-.23.32-.5.33a3.67,3.67,0,0,0-1.5.79,3.93,3.93,0,0,1-1.93.79c-.51,0-.81.18-.67.41s0,.4-.38.4-.62.15-.62.35-.52.45-1.16.58a4.06,4.06,0,0,0-1.8.88c-.35.35-.64.53-.64.39s-.29,0-.64.37-.79.53-1,.41-.36,0-.36.19-.26.43-.57.43a.81.81,0,0,0-.7.31,7.69,7.69,0,0,1-3.21,2.09,1.82,1.82,0,0,0-1.12.8,1.89,1.89,0,0,1-1.2.8,1.84,1.84,0,0,0-1.2.8c-.32.44-.77.8-1,.8a4.4,4.4,0,0,0-1.57,1c-.63.54-1.33.88-1.56.74s-.29-.06-.12.2,0,.47-.25.47a1.81,1.81,0,0,0-1.11.8,2,2,0,0,1-1.32.8c-.4,0-.62.18-.48.4s0,.4-.21.4a2,2,0,0,0-1.06.6,1,1,0,0,1-1.07.34c-.25-.15-.34-.13-.18,0,.33.37-2.45,3-3.18,3a.49.49,0,0,0-.5.47c0,.26-.1.37-.22.26s-.77.3-1.44.93A4.4,4.4,0,0,1,72,44.86a.58.58,0,0,0-.55.6c0,.33-.17.6-.37.6s-2,1.42-4.38,3.69a3.18,3.18,0,0,1-1.2.86A30,30,0,0,0,62,53.91a37.71,37.71,0,0,0-3.09,3.35c.1,0-.23.42-.73.94s-1,.9-1,.85c-.24-.2-6.08,5.84-6.08,6.28,0,.25-.12.34-.26.2s-1.74,1.2-1.74,1.69a12,12,0,0,1-1.6,2,8.75,8.75,0,0,0-1.6,2.1c0,.19-.24.35-.53.35s-.83.63-1.2,1.41a3.84,3.84,0,0,1-1.27,1.64c-.33.13-.5.39-.38.59s0,.36-.2.36a.47.47,0,0,0-.43.5c0,.74-2.64,3.51-3,3.18-.17-.16-.19-.07,0,.19s-.19.93-.75,1.49-1,1.1-.9,1.2-.3.64-.79,1.21a3.77,3.77,0,0,0-.9,1.45c0,.23-.21.3-.47.14s-.35-.11-.2.12-.2.93-.74,1.56a4.16,4.16,0,0,0-1,1.66c0,.27-.17.5-.38.5s-.49.36-.63.81a5.5,5.5,0,0,1-1.23,1.78,3.2,3.2,0,0,0-1,1.59c0,.34-.18.62-.4.62a.47.47,0,0,0-.4.52,2.89,2.89,0,0,1-.8,1.38,3.05,3.05,0,0,0-.8,1.28.43.43,0,0,1-.43.42c-.23,0-.31.18-.17.4s.09.4-.1.4c-.42,0-2.1,3.38-2.1,4.21,0,.32-.18.59-.4.59s-.4.28-.4.62-.18.51-.4.38-.4.11-.4.55a1.38,1.38,0,0,1-.4,1,1.31,1.31,0,0,0-.4,1c0,.43-.18.78-.4.78s-.4.27-.4.6-.18.6-.4.6a.42.42,0,0,0-.4.44,27.07,27.07,0,0,1-1.56,3.7c-.86,1.79-1.8,3.84-2.1,4.56s-.68,1.3-.84,1.3-.3.36-.3.8-.18.8-.4.8-.4.45-.4,1-.18,1-.4,1-.4.45-.4,1-.18,1-.4,1-.4.36-.4.8-.18.8-.4.8-.4.35-.4.78a6.68,6.68,0,0,1-.45,1.9c-.25.61-.63,1.57-.85,2.12s-.56,1.31-.75,1.69a3.83,3.83,0,0,0-.35,1.5c0,.44-.21.81-.47.81s-.35.11-.22.25,0,.81-.27,1.5A3.61,3.61,0,0,0,9,137.92a.64.64,0,0,1-.26.72,2.54,2.54,0,0,0-.42,1.66c0,.84-.17,1.3-.4,1.16s-.4.33-.4,1.17-.18,1.43-.4,1.43-.4.62-.4,1.37a2.52,2.52,0,0,1-.4,1.63,2,2,0,0,0-.4,1.42c0,.65-.18,1.18-.4,1.18s-.4.72-.4,1.6-.18,1.6-.4,1.6-.4.71-.4,1.57a3,3,0,0,1-.4,1.83,3.43,3.43,0,0,0-.4,2,3.48,3.48,0,0,1-.4,2,3.49,3.49,0,0,0-.4,2c0,1-.15,1.78-.33,1.78s-.37.94-.43,2.08a6.4,6.4,0,0,1-.57,2.68c-.39.48-.36.53.13.25s.5-.23.1.21a5.91,5.91,0,0,0-.5,2.83,5.58,5.58,0,0,1-.35,2.51c-.85.53-1,49.85-.15,50.7a6.46,6.46,0,0,1,.5,3.19,6.69,6.69,0,0,0,.4,3,4.78,4.78,0,0,1,.4,2.44c0,1.37.15,2.11.4,2s.4.52.4,1.75a4.21,4.21,0,0,0,.4,2.25,3.55,3.55,0,0,1,.4,2c0,1.1.15,1.71.4,1.56s.4.45.4,1.55a3.61,3.61,0,0,0,.4,2.05,3,3,0,0,1,.4,1.82c0,.87.18,1.58.4,1.58s.4.39.4.87a14.34,14.34,0,0,0,1.24,4.42,5,5,0,0,1,.36,1.9c0,.66.18,1.21.4,1.21s.4.53.4,1.17a2,2,0,0,0,.42,1.44.64.64,0,0,1,.26.72,3.45,3.45,0,0,0,.34,1.67,7.22,7.22,0,0,1,.49,1.4,12.8,12.8,0,0,0,.64,1.75,9.19,9.19,0,0,1,.65,2,1.19,1.19,0,0,0,.26.75c.46.46,1.67,4.2,1.43,4.44s0,.23.24.23.47.36.47.8.18.8.4.8.4.46.4,1,.17.92.4.78.4.25.4.94.13,1.25.3,1.32c.47.21,2.1,3.54,2.1,4.29a1.72,1.72,0,0,0,.37,1.07c.2.21,1.34,2.31,2.53,4.67s2.29,4.18,2.43,4,.27.12.27.6.18.87.4.87.4.36.4.8.18.8.4.8.4.28.4.63a4.32,4.32,0,0,0,.82,1.8c.46.64.7,1.17.54,1.17s0,.31.31.7a37.52,37.52,0,0,1,3.52,5.91c0,.14.32.57.78,1a2.41,2.41,0,0,1,.83,1.17.44.44,0,0,0,.4.46c.22,0,.4.27.4.6s.18.6.4.6.4.27.4.61a3.35,3.35,0,0,0,1,1.63c.56.55.89,1.2.74,1.44s-.08.33.19.15.47,0,.47.34.14.63.31.63.61.49,1,1.1a19,19,0,0,0,1.39,2c.4.48,1.37,1.69,2.14,2.7s1.89,2.42,2.49,3.13a12.18,12.18,0,0,1,1.6,2.4c.28.6.73,1.1,1,1.1s.51.16.51.35a4.94,4.94,0,0,0,1.1,1.58l3.3,3.72a81.75,81.75,0,0,0,7.62,7.65c.73.6,1.22,1.1,1.08,1.1a21.45,21.45,0,0,0,2.79,3,25.79,25.79,0,0,0,3.34,3c.17,0,.43.36.57.8s.46.8.72.8a9.46,9.46,0,0,1,2.48,1.85c1.1,1,2.63,2.32,3.4,2.89a20,20,0,0,1,2.1,1.81c.38.42.7.61.7.41s.14-.17.3.06a10.46,10.46,0,0,0,1.7,1.39,33.41,33.41,0,0,1,3.34,2.6c.25.23,1.09.85,1.86,1.38a17.1,17.1,0,0,1,2,1.59,2.89,2.89,0,0,0,1.17.74,3.11,3.11,0,0,1,1.25.9,2.19,2.19,0,0,0,1.32.78c.36,0,.66.15.66.33s.49.59,1.1.9a7.83,7.83,0,0,1,1.8,1.32c.38.43.7.64.7.49s.54,0,1.2.42,1.2.85,1.2,1,.23.32.52.32a2.89,2.89,0,0,1,1.38.8,2.94,2.94,0,0,0,1.48.8c.34,0,.62.19.62.42s.18.31.4.18.4-.11.4.07c0,.38,1.92,1.33,2.68,1.33a.48.48,0,0,1,.52.4c0,.22.36.4.8.4s.8.18.8.4.28.4.62.4.51.18.37.41-.1.36.09.3a17.69,17.69,0,0,1,4.52,2.08,34,34,0,0,0,4.9,2.32,6.8,6.8,0,0,1,1.5.66c2.41,1.28,2.77,1.43,3.39,1.43.33,0,.61.13.61.3,0,.35,1.94,1.3,2.67,1.3a15.11,15.11,0,0,1,3,1.2,13.09,13.09,0,0,0,3.21,1.2c.4,0,.73.18.73.4s.33.4.75.4a8.15,8.15,0,0,1,2.3.67,18.8,18.8,0,0,0,2,.75c.22,0,1.37.37,2.57.73a15.27,15.27,0,0,0,3.12.65c.52,0,.86.14.76.31s.37.36,1.07.42,1.34.27,1.41.48.84.39,1.7.39,1.57.18,1.57.4.63.4,1.4.4,1.4.18,1.4.4.72.4,1.6.4,1.6.18,1.6.4.81.4,1.8.4,1.8.18,1.8.4.82.4,1.82.4,1.73.15,1.58.4.59.4,2,.4c1.22,0,2.23.18,2.23.4s1,.4,2.17.4a4.79,4.79,0,0,1,2.43.4,6.63,6.63,0,0,0,2.94.4,6.54,6.54,0,0,1,3.2.5c.38.39,6,.5,25.14.5,19.36,0,24.68-.11,24.82-.5s1.07-.5,2.91-.5a6.89,6.89,0,0,0,3-.4,4,4,0,0,1,2.2-.4,4.06,4.06,0,0,0,2.2-.4,4,4,0,0,1,2.2-.4,4.06,4.06,0,0,0,2.2-.4,3.43,3.43,0,0,1,2-.4,3.48,3.48,0,0,0,2-.4,2.46,2.46,0,0,1,1.62-.4c.76,0,1.38-.18,1.38-.4s.7-.4,1.57-.4a3,3,0,0,0,1.83-.4,1.42,1.42,0,0,1,1.09-.4,14.35,14.35,0,0,0,4.4-1.25,4.33,4.33,0,0,1,1.68-.35,1.67,1.67,0,0,0,1.2-.36,5.25,5.25,0,0,1,2.12-.67,10,10,0,0,0,3.85-1.1,8.4,8.4,0,0,1,2.11-.67,3.79,3.79,0,0,0,1.35-.4l1.59-.8a3.76,3.76,0,0,1,1.2-.4,12,12,0,0,0,2.31-.84c1-.47,2.35-1,2.9-1.25s1.31-.57,1.69-.76a3.57,3.57,0,0,1,1.3-.35c.33,0,.61-.18.61-.4s.45-.4,1-.4,1-.18,1-.4a.47.47,0,0,1,.52-.4,8.55,8.55,0,0,0,2.18-.8,8.21,8.21,0,0,1,2.3-.8c.35,0,.53-.18.4-.4s0-.4.29-.4c.76,0,2.7-.94,2.7-1.3,0-.17.37-.3.81-.3s.8-.18.8-.4a.47.47,0,0,1,.52-.4,2.89,2.89,0,0,0,1.38-.8,2.94,2.94,0,0,1,1.48-.8c.34,0,.62-.18.62-.4s.36-.4.8-.4.8-.18.8-.4.28-.4.63-.4a4.26,4.26,0,0,0,1.75-.79c.61-.44,1.22-.68,1.36-.54s.26.05.26-.21.34-.46.76-.46.83-.14.9-.3a16.52,16.52,0,0,1,4.3-2.9.42.42,0,0,0,.44-.4c0-.22.27-.4.6-.4s.6-.18.6-.4a.46.46,0,0,1,.5-.4,4.27,4.27,0,0,0,1.65-1c.63-.54,1.27-.91,1.42-.82s.53-.18.84-.6.75-.78,1-.78a5.81,5.81,0,0,0,1.82-1.2,5.81,5.81,0,0,1,1.81-1.2c.22,0,.67-.36,1-.8a1.81,1.81,0,0,1,1.08-.8.47.47,0,0,0,.52-.4.4.4,0,0,1,.41-.4,3.34,3.34,0,0,0,1.35-.9c1.35-1.31,2.64-2.33,2.64-2.1s.56-.34,1.25-1a5.24,5.24,0,0,1,1.64-1.2,6.66,6.66,0,0,0,1.84-1.52,24.65,24.65,0,0,1,2.84-2.48c1.14-.8,3-2.64,9.54-9.3l4-3.91a51.18,51.18,0,0,0,3.7-3.84c0-.21.62-.93,3.77-4.31a12.65,12.65,0,0,0,1.83-2.24,5.91,5.91,0,0,1,1.2-1.54c.66-.7,1.1-1.26,1-1.26s0-.24.3-.54,1-1.13,1.53-1.86,1.22-1.56,1.5-1.84a1.72,1.72,0,0,0,.5-.85c0-.18.36-.6.8-.91a1.89,1.89,0,0,0,.8-1.2,1.84,1.84,0,0,1,.8-1.2,1.86,1.86,0,0,0,.8-1,4.34,4.34,0,0,1,1.1-1.64,6.07,6.07,0,0,0,1.2-1.69,4.23,4.23,0,0,1,.9-1.34,2.89,2.89,0,0,0,.8-1.38.47.47,0,0,1,.4-.52c.22,0,.4-.28.4-.63s.18-.5.46-.34.35.12.19-.14a.89.89,0,0,1,.26-1,14.24,14.24,0,0,0,1.48-2.23,5.19,5.19,0,0,1,1.23-1.7c.16,0,.38-.37.49-.81l.29-1.1a8.94,8.94,0,0,1,.84-1.36,4.08,4.08,0,0,0,.76-1.52,2,2,0,0,1,.6-1.07c.33-.34.5-.77.38-1s0-.36.19-.36.43-.28.43-.63.18-.51.4-.37.4-.13.4-.58.18-.82.4-.82.4-.36.4-.8.18-.8.4-.8.4-.36.4-.8.13-.8.3-.81c.35,0,1.3-1.94,1.3-2.67,0-.29.13-.52.3-.52s.54-.59.82-1.3.7-1.62.9-2a3.28,3.28,0,0,0,.38-1.3c0-.33.18-.6.4-.6s.4-.36.4-.8.18-.8.4-.8.4-.45.4-1,.18-1,.4-1,.4-.45.4-1,.18-1,.4-1,.4-.46.4-1,.17-.91.4-.77.4-.07.4-.45a11.1,11.1,0,0,1,1.21-3.75,7.66,7.66,0,0,0,.7-1.8c.27-.88.94-3,1.49-4.75a25.1,25.1,0,0,0,1-3.88,1.24,1.24,0,0,1,.4-1,1.69,1.69,0,0,0,.4-1.23,4.33,4.33,0,0,1,.36-1.68,15.55,15.55,0,0,0,.82-2.49c.26-1,.64-2.36.84-3a9.43,9.43,0,0,0,.38-2.3c0-.59.18-1.07.4-1.07s.4-.62.4-1.38a2.46,2.46,0,0,1,.4-1.62,4.21,4.21,0,0,0,.4-2.25c0-1.1.14-1.91.32-1.8s.38-.73.43-1.87a5.89,5.89,0,0,1,.47-2.46,4.92,4.92,0,0,0,.38-2.28,3.85,3.85,0,0,1,.4-2.14,8,8,0,0,0,.4-3.25c0-1.66.16-2.9.35-2.78,1,.63,1.14-48.84.12-49.86a7,7,0,0,1-.47-3.17,6.63,6.63,0,0,0-.4-2.94,4.06,4.06,0,0,1-.4-2.2,4,4,0,0,0-.4-2.2,4.06,4.06,0,0,1-.4-2.2,4,4,0,0,0-.4-2.2,3,3,0,0,1-.4-1.83c0-.86-.18-1.57-.4-1.57s-.4-.8-.4-1.78a3.49,3.49,0,0,0-.4-2,2.52,2.52,0,0,1-.4-1.63c0-.75-.18-1.37-.4-1.37s-.4-.62-.4-1.38a2.46,2.46,0,0,0-.4-1.62,2.52,2.52,0,0,1-.4-1.63c0-.75-.18-1.37-.4-1.37s-.4-.44-.4-1a1.72,1.72,0,0,0-.36-1.2,4.05,4.05,0,0,1-.6-1.92c-.32-2.26-.44-2.84-.7-3.31-.12-.22-.65-1.79-1.18-3.49a10.62,10.62,0,0,0-1.26-3.1c-.17,0-.3-.33-.3-.73a8,8,0,0,0-.8-2.38,8.22,8.22,0,0,1-.8-2.27c0-.34-.18-.62-.4-.62s-.4-.46-.4-1-.18-.91-.4-.77-.4-.12-.4-.57a6.17,6.17,0,0,0-.8-2.23,6.34,6.34,0,0,1-.8-2c0-.32-.18-.58-.4-.58s-.4-.35-.4-.78a1.31,1.31,0,0,0-.4-1,1.35,1.35,0,0,1-.4-1c0-.42-.15-.77-.32-.77s-.56-.68-.86-1.5a12.83,12.83,0,0,0-1.28-2.57,4,4,0,0,1-.74-1.7c0-.35-.16-.63-.36-.63s-.57-.54-.84-1.2-.66-1.2-.85-1.2-.35-.36-.35-.8-.18-.8-.4-.8-.4-.24-.4-.53a20.69,20.69,0,0,0-2.38-5.07,10.92,10.92,0,0,1-1.23-1.9c-.52-.94-1.09-1.7-1.27-1.7s-.32-.24-.32-.53a2.89,2.89,0,0,0-.8-1.38,2.91,2.91,0,0,1-.8-1.39,1.82,1.82,0,0,0-.8-1.1,1.86,1.86,0,0,1-.8-1.11,3.41,3.41,0,0,0-1-1.53,3.79,3.79,0,0,1-1-1.36,3.79,3.79,0,0,0-1-1.37,4.2,4.2,0,0,1-1-1.32,6.89,6.89,0,0,0-1.19-1.71,5.92,5.92,0,0,1-1.2-1.81c0-.22-.45-.74-1-1.15s-1-1-1-1.28a1.36,1.36,0,0,0-.7-.93c-.39-.23-.57-.41-.41-.42s-.32-.68-1.09-1.49a6,6,0,0,1-1.26-1.6,7.67,7.67,0,0,0-1.51-1.88c-.9-1-2.44-2.69-3.43-3.85-2.37-2.76-6-6.39-6.47-6.39-.18,0-.33-.28-.33-.63s-.15-.53-.32-.43-.74-.34-1.27-1c-1.84-2.31-8.12-8.33-8.69-8.33-.31,0-.46-.18-.32-.4s.06-.4-.15-.4a10.56,10.56,0,0,1-2.45-2,10.74,10.74,0,0,0-2.46-2,1.91,1.91,0,0,1-1-.5c-.3-.28-1.14-1-1.87-1.59l-2.52-2.1a5.1,5.1,0,0,0-1.53-1c-.18,0-.19-.21,0-.47s.11-.35-.15-.19-.89-.18-1.44-.74a3.48,3.48,0,0,0-1.47-1,4,4,0,0,1-1.57-1.2,3.84,3.84,0,0,0-1.68-1.2,1.82,1.82,0,0,1-1.12-.8,1.93,1.93,0,0,0-1.29-.8c-.39,0-.71-.15-.71-.34s-.5-.58-1.1-.89a7.18,7.18,0,0,1-1.75-1.27,2.16,2.16,0,0,0-1.3-.7c-.36,0-.65-.14-.65-.31s-.51-.52-1.13-.8a8.73,8.73,0,0,1-1.91-1.19,4.27,4.27,0,0,0-1.38-.84,1.55,1.55,0,0,1-.87-.6c-.17-.25-.31-.32-.31-.14s-.53,0-1.17-.5a4.67,4.67,0,0,0-1.62-.82,2.08,2.08,0,0,1-1.08-.61c-.33-.33-.76-.5-1-.37s-.36,0-.36-.17-.63-.63-1.4-.91-1.4-.65-1.4-.82-.27-.32-.6-.32-.6-.18-.6-.4-.36-.4-.8-.4-.8-.16-.8-.36-.44-.47-1-.6a4,4,0,0,1-1.57-.85,3,3,0,0,0-1.63-.68c-.56-.05-1-.23-1-.4s-.26-.31-.57-.31a12.3,12.3,0,0,1-4.17-2.1c-.07-.17-.58-.3-1.12-.3s-.9-.15-.8-.32-.18-.35-.64-.38c-1.06-.08-3.1-.91-3.1-1.26,0-.15-.5-.31-1.1-.36s-1.16-.27-1.24-.49-.56-.39-1.07-.39a1.71,1.71,0,0,1-1.15-.32,6.89,6.89,0,0,0-2.22-.88c-1.11-.3-2-.73-2-.94s-.12-.28-.26-.15-.81,0-1.5-.26A3.63,3.63,0,0,0,262,9.14a.64.64,0,0,1-.72-.26,2,2,0,0,0-1.44-.42c-.65,0-1.17-.18-1.17-.4s-.62-.4-1.38-.4a2.46,2.46,0,0,1-1.62-.4,1.64,1.64,0,0,0-1.2-.4,1.6,1.6,0,0,1-1.2-.4,2.52,2.52,0,0,0-1.63-.4c-.76,0-1.37-.18-1.37-.4s-.71-.4-1.58-.4a3,3,0,0,1-1.82-.4,3.61,3.61,0,0,0-2.05-.4c-1.1,0-1.71-.16-1.55-.4s-.47-.4-1.58-.4-1.82-.18-1.82-.4-.89-.4-2-.4a4.07,4.07,0,0,1-2.22-.4,5.39,5.39,0,0,0-2.6-.4,5.33,5.33,0,0,1-2.6-.4,5.94,5.94,0,0,0-2.75-.4,6,6,0,0,1-3-.5c-.51-.51-42.8-1.06-43.27-.57M202,19.33c5.37,1.54,8.16,6.61,6.44,11.73-3,8.92-16.18,7.69-17.58-1.64C190,23.19,196.09,17.63,202,19.33m-29.23,2.76c3.47,1,6.25,4.84,6.27,8.74a8.94,8.94,0,0,1-15.25,6.44c-6.93-6.71-.38-17.79,9-15.18m61.64.93a9,9,0,1,1-13.66,8.64A9,9,0,0,1,234.43,23m-88.76,7.64c4.23,2.33,5.77,8.49,3.16,12.65-5.71,9.09-19.81,2.44-16.35-7.71a9.2,9.2,0,0,1,13.19-4.94M263,30.55a9,9,0,1,1-13.22,7.92c0-7,6.81-11,13.22-7.92M117.63,42.88c8.36,3.93,6.48,15.95-2.73,17.45-3.91.63-8.83-2.87-9.82-7-1.74-7.26,5.86-13.59,12.55-10.45m172.26.28a9,9,0,0,1-.27,16.29c-7.85,3.73-16-5.2-11.65-12.68,2.62-4.46,7.4-5.9,11.92-3.61m-77.22,8.49c2.09.19,4.43.46,5.2.6,1.95.35,8.31,1.41,10,1.66,1.38.2,6.9,1.44,9.6,2.16a149.93,149.93,0,0,1,16.4,5.06c.77.33,1.76.75,2.2.91,2.23.86,3.31,1.35,9.6,4.43,3.74,1.84,7,3.58,7.33,3.87a9.32,9.32,0,0,0,1.8,1.18c10.51,5.37,26.76,18.6,36.61,29.81,9.57,10.89,21.3,29.42,25.66,40.53.17.44.69,1.65,1.16,2.69a10.9,10.9,0,0,1,.84,2.42,1.68,1.68,0,0,0,.31.91,8.76,8.76,0,0,1,.83,2c.28.88.65,2,.83,2.4s.54,1.7.82,2.8.86,3.26,1.29,4.8a133.47,133.47,0,0,1,3.57,16.2l.8,5c1.67,10.41,1.79,24.68.3,36.6-1.38,11.06-6,29-9.33,36.6a20,20,0,0,0-.83,2.2c-.64,2.17-7.46,15.66-10.21,20.2-21.54,35.5-56.74,60.68-96.38,68.94-9.79,2-10.48,2.15-18.8,2.93-8.83.83-25,.57-29.2-.46-.77-.19-2.84-.55-4.6-.8a137.5,137.5,0,0,1-21.06-4.6,28.35,28.35,0,0,0-4.28-1,1.44,1.44,0,0,1-1-.32,6.74,6.74,0,0,0-2.24-.88,7.34,7.34,0,0,1-2.25-.88,1,1,0,0,0-.78-.32,10.58,10.58,0,0,1-2.48-.84c-1-.47-2.25-1-2.69-1.16-2.24-.88-13.1-6.31-15.13-7.56a260.65,260.65,0,0,1-23.47-16.35,173.46,173.46,0,0,1-15.85-15.74c-3.27-3.9-10.92-14.49-13.55-18.76-1.1-1.79-2.65-4.27-3.45-5.52-1.25-2-6.71-12.84-7.57-15.07-.16-.44-.58-1.43-.91-2.2a103.38,103.38,0,0,1-4.1-12.2c-.36-1.32-.8-2.85-1-3.4a135.24,135.24,0,0,1-4-19c-.26-1.76-.62-3.83-.81-4.6-1.31-5.33-1.29-23,0-34,.67-5.52,3.54-19.57,4.75-23.2.18-.55.73-2.35,1.22-4a163,163,0,0,1,12.84-29.49,152.12,152.12,0,0,1,31.16-37.95c1-.86,1.89-1.66,2-1.78,2-2.13,19.17-14.38,20.16-14.38.09,0,1.3-.69,2.69-1.53,2.25-1.35,10.06-5.26,13.95-7,13.07-5.8,36.59-11.77,46.9-11.92a37.39,37.39,0,0,0,4.5-.37c2.21-.38,14.66-.13,20.6.4M93.49,60.36c7.63,3.87,6.08,15-2.36,17a9,9,0,0,1-8.2-2.59c-7.2-7.27,1.42-19,10.56-14.37m219.63-.64a9.52,9.52,0,0,1,6.35,8.74c0,7.57-9.05,11.83-14.77,6.94-7.57-6.49-1.1-18.53,8.42-15.68M70.87,80.86a1.33,1.33,0,0,0,1,.4c1.44,0,4.26,3.3,5,5.84,3,10.31-11.88,16.16-16.73,6.58a9,9,0,0,1,8.17-13.2,5.11,5.11,0,0,1,2.53.38m264.4.44c8.85,4.16,6.14,17.21-3.59,17.21-12,0-12.15-17.7-.11-18a8.6,8.6,0,0,1,3.7.8M54.84,105.87a9.12,9.12,0,0,1-1.53,17c-7.21,1.94-13.72-5.59-10.66-12.34a9.12,9.12,0,0,1,12.19-4.69m296.68-.4c9.87,3.36,7.6,17.59-2.82,17.59a8.89,8.89,0,0,1-6.49-15.14,8.59,8.59,0,0,1,9.31-2.45M41.73,132.88a7.91,7.91,0,0,1,4.78,4.58c4,8.37-5.69,16.51-13.32,11.24-8.8-6.07-1.26-20,8.54-15.82m322.56-.21c8.63,3,8,15.45-.86,17.44-6.88,1.54-13.2-5.61-10.55-11.94,2-4.81,6.76-7.1,11.41-5.5m-330,29.26a9.12,9.12,0,0,1,5,10.76,9,9,0,0,1-15.52,3.46c-6.5-7.22,1.41-17.88,10.55-14.22M371,161.32c11.14,2.75,8.72,18.69-2.71,17.86-9.63-.7-11.19-14.37-2-17.54,2.64-.91,2.4-.89,4.72-.32M32.22,192c7,3.57,6.11,14.1-1.35,16.61-8.19,2.75-15.31-6.51-10.45-13.59a9.25,9.25,0,0,1,11.8-3m342.31-.59c9.05,2.69,8,16.31-1.4,17.6s-14.37-11.21-6.47-16.44a8.39,8.39,0,0,1,7.87-1.16m-338.89,31c5,3.43,5.53,9.54,1.24,13.83C30.05,243.1,19,236.17,22,227a9.05,9.05,0,0,1,13.62-4.54m336.94-1c8.07,3.36,7.34,14.39-1.14,17.29-5.94,2-12.68-4.43-11.18-10.7,1.31-5.45,7.33-8.67,12.32-6.59M42.07,250.56a9.08,9.08,0,0,1,0,16.55c-8.53,4-16.69-6.48-10.8-13.89,2.49-3.13,7.42-4.35,10.8-2.66m324.18.64a8.24,8.24,0,0,1,4.13,7.62,9,9,0,0,1-17.16,3.84c-3.81-8.08,5.31-16.09,13-11.46M55.68,278.25c2.82,1.65,4.88,5.6,4.48,8.6-1.3,9.64-14.25,11.29-17.7,2.26-3-7.81,5.94-15.13,13.22-10.86m298,.22a9.07,9.07,0,0,1-3.5,16.6c-4.29.78-9.33-2.67-10.32-7.07-1.75-7.85,7.24-14.06,13.82-9.53m-203.09-.11c4.91.06,12.83.06,17.6,0s.76-.12-8.92-.12-13.59.05-8.68.12m72.2,0c3,.06,7.9.06,10.8,0s.42-.13-5.52-.13-8.32.06-5.28.13M72.24,302.44c8.43,4.3,5.45,17.22-4,17.22-8,0-12.18-9.87-6.59-15.45a9.81,9.81,0,0,1,10.56-1.77m264.49.63c7.28,5.1,3.61,16.59-5.3,16.59-9.45,0-12.21-12.77-3.76-17.36,2.09-1.14,6.92-.73,9.06.77M93.29,323.49c6.7,3.18,6.8,13,.16,16.37-8.93,4.53-17.68-7.23-10.65-14.32a9.81,9.81,0,0,1,10.49-2.05M314,323.4c9.11,3.81,6.08,17.49-3.86,17.45-9.31-.05-12-12.92-3.65-17.33,1.49-.79,5.76-.86,7.51-.12M116.07,340.09a9.09,9.09,0,1,1-10.87,11.34c-2-6.5,4.29-13.11,10.87-11.34m172.12,0a10.21,10.21,0,0,1,6.46,6.65c2.32,9.69-10,15.45-16,7.49-5.17-6.82,1.23-16.25,9.59-14.14m-143.1,13.43a9.07,9.07,0,0,1,3.42,13.3c-3.14,4.75-10.42,5.08-14.32.66-6.48-7.37,2.13-18.41,10.9-14m117.38-.15a9,9,0,0,1-3.81,17.16c-5.33,0-8.91-3.58-8.91-8.92a8.82,8.82,0,0,1,12.72-8.24m-89.87,7.26c8.08,2.4,8.77,13.5,1.07,17-6.77,3.11-14.48-3.56-12.4-10.73a9,9,0,0,1,11.33-6.3m59.26-.14c10.3,2.38,8.47,17.9-2.11,17.92s-12.39-15-2.26-17.93c1.86-.53,2-.53,4.37,0m-27.07,3.83c7.52,5.05,4.07,16.72-4.92,16.67s-12.43-12-4.89-16.72a9.43,9.43,0,0,1,9.81.05" style="fill:#fccc64;fill-rule:evenodd"/><path id="path2" d="M195.36,20.84c-7.27,4.61-4.06,16,4.53,16,8.87,0,11.81-12.36,3.89-16.43a9.25,9.25,0,0,0-8.42.42m-29,2.08a8.69,8.69,0,0,0-.25,15.54,8.64,8.64,0,1,0,.25-15.54m60.9-.46a1.28,1.28,0,0,1-1,.4c-3.58,0-6.38,7.45-4.37,11.62,4.93,10.21,20.24,3.09,15.65-7.27-1.62-3.67-8.9-7-10.3-4.75m-90,8.26a8.62,8.62,0,0,0-2.51,13.6,6.67,6.67,0,0,0,2.12,1.74.73.73,0,0,1,.67.45c.34,1,6,.64,8-.54,9.31-5.47,1.3-20.28-8.24-15.25m117.6,0a8.55,8.55,0,0,0,4,16.28c9,0,11.69-12,3.67-16.18-1.86-1-6-1-7.71-.1M110.48,43.28c-7,3.48-6.92,12.7.1,15.83,7.31,3.27,14.78-4.7,11.1-11.83-.83-1.6-3.38-4-4.23-4a1.25,1.25,0,0,1-1-.4c-.43-.7-4.3-.42-6,.42m171.87-.06c-7.2,3.69-6.64,13.64.92,16.27,8.52,3,15.16-8.64,8.37-14.61-2.76-2.41-6.51-3.09-9.29-1.66m-95.48,8.86c-5.72.57-10,1.26-11,1.8-1.47.77-122.29,121.83-122.54,122.78-1.93,7.4-2.63,37.56-.9,39.29.3.3.71-.11,95.69-95,37.5-37.48,68.1-68.23,68-68.33-.82-.82-22.32-1.19-29.25-.5m36.4,29.57-22.78,22.79,7.59.11,7.59.11-.09,1c0,.55-.28,2-.52,3.2s-.53,2.92-.66,3.8a5.13,5.13,0,0,1-.58,2,4.37,4.37,0,0,0-.35,2,4.37,4.37,0,0,1-.36,2c-.34.35-.46.94-1.08,5.38a5.85,5.85,0,0,1-.61,2.18,4.56,4.56,0,0,0-.35,2.07,3.32,3.32,0,0,1-.4,1.95c-.43.26-.58,3.4-.17,3.4S273.07,71.33,273.07,71c0-.54-12.38-6.6-17.8-8.72a22.18,22.18,0,0,1-3.18-1.43,2.21,2.21,0,0,0-1.24-.34,2,2,0,0,1-1.13-.28,16,16,0,0,0-3.46-1.32c-.11,0-10.45,10.25-23,22.79M85.91,60.49C79.34,63.41,79,73,85.34,76l1.82.88c2.09,1.06,5.93-.07,8.31-2.44,6.8-6.81-.77-17.87-9.56-14m220.92.08c-2.37,1.28-2.71,1.55-3.63,2.89-1.73,2.48-1.88,6.88-.33,9.26.92,1.4,2.45,2.94,2.94,2.94.25,0,.46.13.46.3,0,.88,5,1.63,6.3.94l1.82-.88c5.45-2.56,6.17-11.39,1.19-14.65a8.56,8.56,0,0,0-8.75-.8m-242,21c-1.9.89-4.6,3.57-4.6,4.54a1.22,1.22,0,0,1-.4.94,4.1,4.1,0,0,0-.4,2.22A8.85,8.85,0,0,0,70.77,98c4.12-1.22,7.58-7.39,5.94-10.61-.19-.38-.59-1.2-.88-1.82a8.71,8.71,0,0,0-11-4m264.05-.31c-5.25,1.57-7.89,8.5-4.85,12.75,4.4,6.17,12.39,5.6,15.41-1.1s-3.43-13.79-10.56-11.65m-68.68,38.61-34.37,34.37v10.92l-6.9,3.4c-3.8,1.87-8.52,4.17-10.5,5.12-6.5,3.12-8.07,5.25-8.87,12a5.85,5.85,0,0,1-.57,2.18,3.75,3.75,0,0,0-.36,1.87,2.8,2.8,0,0,1-.4,1.75,3.43,3.43,0,0,0-.4,2,3.48,3.48,0,0,1-.4,2,3.43,3.43,0,0,0-.4,2,3.48,3.48,0,0,1-.4,2,2.9,2.9,0,0,0-.4,1.8,2.94,2.94,0,0,1-.4,1.8,3.43,3.43,0,0,0-.4,2,3.48,3.48,0,0,1-.4,2,3.43,3.43,0,0,0-.4,2,3.48,3.48,0,0,1-.4,2,2.9,2.9,0,0,0-.4,1.8,2.94,2.94,0,0,1-.4,1.8,3.43,3.43,0,0,0-.4,2,3.48,3.48,0,0,1-.4,2,3.43,3.43,0,0,0-.4,2,3.48,3.48,0,0,1-.4,2,3.43,3.43,0,0,0-.4,2,3.48,3.48,0,0,1-.4,2c-.47.28-.55,1.8-.1,1.8.16,0,28-27.71,61.87-61.58l61.57-61.57-2.36-2.73c-3.11-3.6-11.29-11.79-14.71-14.72l-2.72-2.34-34.38,34.36M47.14,106.25c-3.48,1.91-6.57,9.11-4.47,10.41a1.18,1.18,0,0,1,.4.93c0,1.67,3.9,4.65,6.65,5.08,8.37,1.31,13.48-9.5,7.1-15-2.3-2-7.3-2.72-9.68-1.41m298.53-.19a1.09,1.09,0,0,1-.84.4c-1.76,0-5,5-5,7.71.05,6.49,7.83,10.71,13.43,7.28,5.82-3.58,5.24-12.6-1-15.22-1.54-.65-6.28-.77-6.65-.17m-75.12,79.1-58.3,58.3,18.18.1,18.19.1.12,1.22c.1,1,86.32-84.06,92.28-91,.14-.16-.23-1.31-1.16-3.6-.18-.44-1.15-2.92-2.15-5.5-1.91-4.88-8.18-17.9-8.62-17.9-.14,0-26.48,26.23-58.54,58.3m-154.08,3.29c-53.37,53.37-58,58.07-57.5,58.8a3.39,3.39,0,0,1,.5,1.41,3.4,3.4,0,0,0,.36,1.3c.21.38,1,2.23,1.67,4.1,2.2,5.77,7.28,16.43,8.77,18.4l.7.93,31.33-31.31C128.39,216,133.51,210.71,133,210.4s-.68-1.16-.68-6.55c0-6.82,0-6.91,2.9-7.61.6-.15,1.1-.43,1.1-.63s.36-.35.8-.35.8-.18.8-.4.36-.4.8-.4.8-.18.8-.4.24-.4.54-.4a24,24,0,0,0,5.79-2.9.67.67,0,0,1,.6-.3c.85,0,13.31-6.43,14.75-7.61,1.25-1,1.52-1.6,2.28-4.88.47-2,1-4.34,1.23-5.11s.58-2.39.83-3.6a30,30,0,0,1,.82-3.12,6.81,6.81,0,0,0,.36-2.08,2,2,0,0,1,.4-1.4,2.46,2.46,0,0,0,.4-1.6,2.59,2.59,0,0,1,.35-1.58,3.79,3.79,0,0,0,.6-1.82c.14-.88.35-2.32.49-3.21a3.79,3.79,0,0,1,.6-1.82,2.56,2.56,0,0,0,.36-1.57,2.41,2.41,0,0,1,.4-1.6,3,3,0,0,0,.4-1.83c0-.86.18-1.57.4-1.57s.4-.71.4-1.58a3,3,0,0,1,.4-1.82,2.46,2.46,0,0,0,.4-1.6,2.41,2.41,0,0,1,.4-1.6,2.94,2.94,0,0,0,.4-1.8,2.9,2.9,0,0,1,.4-1.8,2.33,2.33,0,0,0,.4-1.55,3,3,0,0,1,.43-1.73,1.68,1.68,0,0,0,.3-1.28c-.11-.68-12,11-58.13,57.15M36.05,132.9c-6.4,1.47-8.45,10.63-3.35,14.92a8,8,0,0,0,9.57,1.09c9.16-4.72,3.87-18.34-6.22-16m322.89.12c-6.16,1.69-8.22,10.15-3.54,14.54a8.58,8.58,0,0,0,14.55-6.3,8.46,8.46,0,0,0-11-8.24M30.07,161.57c-6.64,1.23-10,6.75-7.38,12.24,3.94,8.39,16.51,5.69,16.53-3.55,0-4.79-4.93-9.48-9.15-8.69m336.41.38c-3.82,1-6.87,6.33-5.78,10.14,2.37,8.22,12.78,9.31,16.35,1.72,3.13-6.68-3.16-13.74-10.57-11.86M265.1,265.83c-81.63,81.62-81.77,81.76-80.4,82,8.06,1.24,27.66.77,37.31-.9,3.07-.54,124.18-121.65,124.7-124.71,1.93-11.19,2.24-38.14.45-38.14-.16,0-37.09,36.79-82.06,81.77M24,192.21c-5.23,2.91-6.22,10.43-1.88,14.25,5.56,4.89,14.56.94,14.53-6.38,0-6.07-7.51-10.73-12.65-7.87m344,0c-8.17,4.51-5.41,16.21,3.81,16.22s12-11.74,3.8-16.3c-1.14-.64-6.41-.59-7.61.08M26.87,222.08c-9.65,4.77-4,19,6.4,16a8.58,8.58,0,0,0,5.18-11.85,8.77,8.77,0,0,0-11.58-4.2M365.64,222c-7.55,4.06-6.64,14.13,1.48,16.27s14-7.62,8.56-14.12c-2.21-2.62-7.17-3.69-10-2.15M118.09,262,85.33,294.81l2.35,2.72C93,303.65,103.88,314,105.07,314c.33,0,8.61-8,18.4-17.78s17.57-17.8,17.29-17.8c-.6,0-.69-3.43-.09-3.8a2.46,2.46,0,0,0,.4-1.6,2.41,2.41,0,0,1,.4-1.6,2.94,2.94,0,0,0,.4-1.8,2.9,2.9,0,0,1,.4-1.8,2.46,2.46,0,0,0,.4-1.6,2.59,2.59,0,0,1,.35-1.58,3.43,3.43,0,0,0,.58-1.72,23.43,23.43,0,0,1,1.07-5.1,10.6,10.6,0,0,0,.54-2c.26-1.58,2.4-11.08,3.51-15.6.21-.88.55-2.32.75-3.2s.55-2.41.8-3.4c.57-2.28.93-4.4.74-4.4S136.11,244,118.09,262m-83-11.14c-3.59,1.63-5.2,4.1-5.2,8a8.54,8.54,0,0,0,14.21,6.53c7.17-6.45-.29-18.45-9-14.5m323.65-.29c-10.15,3.68-6,18.84,4.57,16.65,7-1.44,9.11-10.53,3.56-15.1a8.23,8.23,0,0,0-8.13-1.55m-309,26.91-1.71.37c-2.56.55-5.69,5-5.69,8.16,0,9.62,13.85,11.74,17,2.62,2-5.86-3.67-12.47-9.63-11.15m297.4,0a8.51,8.51,0,0,0-6.26,11.82,8.63,8.63,0,0,0,15.9,0c.8-1.84,1-5.45.36-5.86a1.09,1.09,0,0,1-.4-.84c0-2.74-5.71-5.76-9.6-5.09m-195,26.1c-27.46,27.44-25.77,25.64-24.5,26.27,9.69,4.85,13.64,6.71,17.3,8.12l6.35,2.47a16.63,16.63,0,0,0,2.24.77c.2,0,61.15-60.79,62.77-62.62.09-.1-8.64-.18-19.4-.18H177.26l-25.19,25.17m-86-1.48c-2.82.73-4.4,2.1-5.79,5-.86,1.79-1.12,5.47-.41,5.91a1.12,1.12,0,0,1,.4.88c0,1.2,2,3.25,4.21,4.34a8.43,8.43,0,0,0,11.35-3.7c.29-.62.69-1.44.88-1.82.69-1.34-.06-6.3-.94-6.3-.17,0-.3-.26-.3-.57,0-.93-2.85-3-5-3.64s-2.22-.67-4.42-.1m263,.12c-2.42.74-5.59,3.78-5.59,5.35a1.38,1.38,0,0,1-.4,1c-.95.58-.22,4.22,1.35,6.84,2.21,3.67,7.95,4.81,11.85,2.35,6.41-4,4.62-14-2.82-15.72-2.4-.56-2.11-.56-4.39.14M86.87,323.41c-5.38,2-7.58,7.08-5.26,12,3.45,7.42,13.7,6.34,16.24-1.7,1.92-6-5-12.6-11-10.35m221.6-.15a1.1,1.1,0,0,1-.85.4c-4.59,0-7.48,8.52-4.41,13,6.39,9.3,20.51-.25,14.37-9.71-1.85-2.86-8.07-5.38-9.11-3.69M110.82,340.88c-8.81,3.39-6.24,16.78,3.22,16.78,7.77,0,11.48-10.21,5.53-15.22-2.84-2.38-5.41-2.84-8.75-1.56m172.27-.23a8.8,8.8,0,0,0-2.88,14.86,5.12,5.12,0,0,0,2.13,1.34,1.25,1.25,0,0,1,.93.41c.89,1.45,6.77-.19,8.8-2.46,6-6.69-.66-17.15-9-14.15M139.27,353.11c-10,2.49-8.42,17.14,1.8,17.06a8.59,8.59,0,0,0,6.3-14.57,9.53,9.53,0,0,0-8.1-2.49m117.2.1a8.74,8.74,0,0,0-4.08,14.39c4.37,4.69,12.74,2.7,14.52-3.45a8.64,8.64,0,0,0-10.44-10.94M167.83,361c-7.79,2.48-8.65,12.79-1.36,16.21,9.5,4.47,17.11-9.13,8.4-15a7.78,7.78,0,0,0-7-1.21m59.61,0a8.63,8.63,0,0,0-6.37,8.19c0,10.65,14.8,12.11,17.14,1.7,1.35-6-5-11.76-10.77-9.89m-29.86,2.63c-9.73,2.45-7.61,16.83,2.48,16.83,10.67,0,11.39-15.88.77-17a11.56,11.56,0,0,0-3.25.13" style="fill:#e4ac54;fill-rule:evenodd"/><path id="path3" d="M198.07,19.26c-.56.23,0,.34,1.8.34s2.35-.11,1.8-.34a4.8,4.8,0,0,0-3.6,0m-3.2,1.3a10,10,0,0,0-3.09,3.57c-.46,1.17-.06.84.83-.67a9.87,9.87,0,0,1,2.72-2.6c1-.66,1.63-1.2,1.31-1.19a4.84,4.84,0,0,0-1.77.89m8.8-.24c8,4.22,5.19,16.57-3.78,16.53-5,0-8.4-3.59-8.46-8.91,0-2.41-.1-2.69-.41-1.68A9.17,9.17,0,0,0,192.28,33c5.1,8,17.83,3.5,16.6-5.92-.45-3.44-3.65-7.48-5.88-7.42-.29,0,0,.3.67.65m-34.5,1.62a7,7,0,0,0,2,0c.49-.1,0-.17-1.1-.17s-1.51.08-.9.17m59.6,0a7,7,0,0,0,2,0c.49-.1,0-.17-1.1-.17s-1.51.08-.9.17M166,22.57c-5.85,3.41-6.87,10.19-2.22,14.7,7,6.78,18.38-.94,14.64-9.93-1-2.42-4.24-5.32-5.86-5.27-.29,0,.19.37,1,.81,8.34,4.15,5.68,16.43-3.57,16.55-9.1.12-11.93-12.52-3.7-16.51.93-.45,1.43-.83,1.1-.83a3.57,3.57,0,0,0-1.44.48m59.64.06a9,9,0,0,0-4.94,8.31l.06,2.12.27-2.4c.43-3.85,3.08-7.8,5.23-7.8a1.28,1.28,0,0,0,1-.4c.32-.54-.15-.49-1.6.17m7.57.25c7.34,3.66,6.71,13.63-1,16.19-2.88,1-7.85-.36-8.68-2.3a.63.63,0,0,0-.56-.31c-1.58,0,2.82,2.76,5.45,3.42,4.49,1.13,10.67-4.18,10.64-9.14,0-3.47-4.18-8.74-6.83-8.67-.31,0,.15.37,1,.81m-93.57,6.68c-7,.78-10.16,10-5.28,15.23,1.08,1.16,3.08,2.25,3.08,1.68,0-.23-.25-.41-.55-.41-1.16,0-3.75-3.41-4.2-5.53-2.2-10.27,11.62-14.88,16.33-5.45.43.87.79,1.28.8.92.08-3.3-5.68-6.94-10.18-6.44m117.6,0c-3.21.37-7.42,4.16-7.4,6.65,0,.56.29.23.83-1a8.58,8.58,0,0,1,16.52,3.6c0,3.06-1.26,5.19-4.17,7.31l-1,.7,1.2-.57c8.81-4.19,3.9-17.89-6-16.74m-36.2,4.12a3.66,3.66,0,0,0,.82,1.58l.8,1-.49-1.2c-.61-1.51-1.14-2.16-1.13-1.38M150,38.46c0,.77.08,1.08.18.7a3.3,3.3,0,0,0,0-1.4c-.1-.39-.18-.07-.18.7M149.35,41c-.44,1.13-.37,1.71.15,1.19a1.46,1.46,0,0,0,.29-1.18c-.14-.72-.16-.72-.44,0m100.53-.08c-.07,3.75,7.39,7.94,11.37,6.38.48-.18-.42-.3-2.21-.28-4.29,0-6.08-1.07-8.26-5.11-.49-.9-.9-1.35-.9-1M110.42,42.82a8,8,0,0,0-3.85,3c-.25.46.26.17,1.22-.69,2.61-2.35,7.8-3.73,8.68-2.31a1.25,1.25,0,0,0,1,.4c1.67,0,4.6,3.87,5,6.65,1.3,8.29-9.85,13.62-15,7.14-.48-.61-1-1-1.09-.9-.46.45,3.51,3.43,5.22,3.91,6.06,1.69,12.07-3.74,11.23-10.13a9,9,0,0,0-12.47-7.11m175.45-.37q8.33,1,8.43,9c0,2.57.08,2.71.43,1.45,1.45-5-3.48-10.92-9-10.75l-2,.05,2.2.28m-4.41.75c-10,5.29-2.14,21.15,8.05,16.3,2.31-1.1,5.28-4.25,4.62-4.91-.13-.14-.41.21-.63.77-.8,2.11-5,4.68-7.63,4.68-8.93,0-11.86-13.2-3.7-16.64a3.65,3.65,0,0,0,1.3-.75c0-.36-.61-.2-2,.55M148,43.87c-1.34,2-4,3.19-7.35,3.14-1.83,0-2.69.09-2.2.28,3.17,1.24,8.64-.73,10.22-3.68.59-1.11.1-.92-.67.26m-43.08,6c-.34,1.73.3,5.18,1,5.64.28.17.31,0,.08-.51a18.49,18.49,0,0,1-.58-3.76c-.22-2.85-.25-2.92-.54-1.37m87.33,1.37c-1,.15,2.52.28,7.8.28,6,0,8.78-.11,7.4-.3a101.41,101.41,0,0,0-15.2,0m-9.4.82c-.71.19.43.24,2.8.1a33.92,33.92,0,0,0,4.16-.37c.32-.29-5.77-.06-7,.27m29.92,0a17.86,17.86,0,0,1,3.32.49c.11.11-30.49,30.87-68,68.35-95.38,95.34-95.39,95.34-95.71,95a12.1,12.1,0,0,1-.56-3.18l-.27-2.89-.06,3a18.53,18.53,0,0,0,.32,4.2,43.9,43.9,0,0,1,.82,4.43,135.79,135.79,0,0,0,4,19c.17.55.61,2.08,1,3.4a103.38,103.38,0,0,0,4.1,12.2c.33.77.75,1.76.91,2.2.86,2.23,6.32,13.09,7.57,15.07.8,1.25,2.35,3.73,3.45,5.52,2.63,4.27,10.28,14.86,13.55,18.76a173.46,173.46,0,0,0,15.85,15.74c.77.61,3.11,2.41,5.2,4,6.66,5.09,24.91,16.85,20.4,13.14a3.56,3.56,0,0,0-1.54-.82c-1,0,0-1.15,24.94-26l25.19-25.17h19.57c10.76,0,19.49.08,19.4.18-1.62,1.83-62.57,62.62-62.77,62.62a16.63,16.63,0,0,1-2.24-.77L144.87,338c-2.42-.94-6.72-2.85-9.56-4.25a33.28,33.28,0,0,0-5.35-2.35c-.16.16,9.17,4.81,11.71,5.83.44.17,1.65.69,2.69,1.16a10.58,10.58,0,0,0,2.48.84,1,1,0,0,1,.78.32,7.34,7.34,0,0,0,2.25.88,6.74,6.74,0,0,1,2.24.88,1.44,1.44,0,0,0,1,.32,28.35,28.35,0,0,1,4.28,1,134.91,134.91,0,0,0,21.06,4.59,40.34,40.34,0,0,1,4.42.83,16.52,16.52,0,0,0,3.8.31l2.58-.06-2.7-.27a15,15,0,0,1-2.89-.46c-.1-.1,36.61-37,81.59-81.95s81.9-81.63,82.08-81.45a9.12,9.12,0,0,1,.57,2.78c.25,2.35.25,2.33.14-.53a54,54,0,0,0-.53-5.4c-.22-1.32-.58-3.57-.81-5a133.47,133.47,0,0,0-3.57-16.2c-.43-1.54-1-3.7-1.29-4.8s-.65-2.36-.82-2.8-.55-1.52-.83-2.4a8.76,8.76,0,0,0-.83-2,1.68,1.68,0,0,1-.31-.91,10.9,10.9,0,0,0-.84-2.42c-.47-1-1-2.25-1.16-2.69-4.36-11.11-16.09-29.64-25.66-40.53a145.42,145.42,0,0,0-28.94-25.06c-6.52-4.25-9.4-5.9-9.4-5.38s-62.14,62.77-62.57,62.77c-.13,0-.23-.3-.23-.67,0-1.35-.57,0-.86,2-.17,1.15-.48,2.9-.69,3.89-.76,3.55-1.5,7.16-2.47,12.1-.22,1.15-.58,2.91-.78,3.9l-.73,3.6c-.2,1-.5,2.29-.66,2.9-.42,1.53-.75,1.65,10.49-3.94,9.78-4.87,11.3-5.39,11.3-3.88,0,.42,14.11-13.4,34.37-33.66l34.38-34.36,2.72,2.34c3.42,2.93,11.6,11.12,14.72,14.73l2.35,2.72-62.1,62.08L190.2,229.46l-.38,2.2c-.42,2.39-.88,4.69-1.55,7.8-.24,1.1-.54,2.49-.67,3.1l-.23,1.1h24.7l58.38-58.4c32.11-32.11,58.5-58.39,58.64-58.39.44,0,6.71,13,8.62,17.9,1,2.58,2,5.06,2.15,5.5.93,2.29,1.3,3.44,1.16,3.6s-20.85,20.9-46.15,46.21c-45,45.05-46,46-46.17,44.71-.13-1.14-.23-.95-.66,1.28-.28,1.43-.7,3.27-.94,4.1-1,3.36-1.3,4.56-1.63,5.9s-.78,3-1.64,5.9c-.24.82-.53,2.08-.65,2.8a2.88,2.88,0,0,1-.56,1.52,2.11,2.11,0,0,0-.35,1.38,2,2,0,0,1-.4,1.4,2.41,2.41,0,0,0-.4,1.6,2.46,2.46,0,0,1-.4,1.6,2,2,0,0,0-.4,1.4,2,2,0,0,1-.4,1.4,1.55,1.55,0,0,0-.4,1.16c0,2.17,2.57,2.07-50.12,2-42.86,0-48.76-.09-49.09-.61s-.38-.5-.39.1c0,.38.22.7.49.7s-7.51,8-17.29,17.8S105.4,314.05,105.07,314c-1.19,0-12.1-10.39-17.39-16.51l-2.35-2.72L118.1,262c30.72-30.73,32.78-32.71,33-31.67s.27.81.53-.89c.17-1.1.63-3.26,1-4.8s.93-3.79,1.19-5,.67-2.92.9-3.8c.57-2.22,1-4.06,1.55-6.4.6-2.69,1.17-5,1.62-6.43a8.89,8.89,0,0,0,.38-2.13,4.23,4.23,0,0,1,.43-1.7c1-1.82,1.31-2-15,6.08-4.84,2.38-9.3,4.45-9.9,4.6l-1.1.26V197.75l1.4-.67c1.65-.78,1.86-1.18.31-.59-2.1.8-2.11.86-2.11,7.4,0,5.35.08,6.17.68,6.51s-4.56,5.61-30.65,31.68L71,273.39l-.7-.93c-1.49-2-6.57-12.63-8.77-18.4-.71-1.87-1.46-3.72-1.67-4.1a3.4,3.4,0,0,1-.36-1.3,3.39,3.39,0,0,0-.5-1.41c-.51-.82,114.94-117.06,115.76-116.55.17.1.4-.22.5-.73s.3-1.45.44-2.11.34-1.74.45-2.4a10.56,10.56,0,0,1,.55-2c.32-.76.42-1.22,1-4.6a12,12,0,0,1,.59-2.2,10.6,10.6,0,0,0,.54-2c.12-.66.41-2,.65-3s.6-2.52.77-3.4c.41-2,.86-3.12,1.41-3.5s12-.32,24.83,0l8.8.25-.09,1.2c-.09,1.12-.06,1.14.35.32,1-2,.56-2.12-7.55-2.12h-7.51l22.84-22.85,22.85-22.84,1.55.52a8.89,8.89,0,0,1,1.94.85,2.28,2.28,0,0,0,1.22.32,2.16,2.16,0,0,1,1.22.34,22.18,22.18,0,0,0,3.18,1.43,93.84,93.84,0,0,1,10,4.49,24.33,24.33,0,0,0,4.55,2,34.24,34.24,0,0,0-5.35-2.85c-5.24-2.51-6.42-3-8.35-3.79-.44-.16-1.43-.58-2.2-.91a111.31,111.31,0,0,0-11.2-3.64,144.31,144.31,0,0,0-21.4-4.64,43.9,43.9,0,0,1-4.43-.82,18.53,18.53,0,0,0-4.2-.32l-3,.06,3.12.3m-38.32,1.25c-13,2.79-20.13,4.82-29.4,8.43a157.79,157.79,0,0,0-18.35,8.78c-1.39.84-2.6,1.53-2.69,1.53-1,0-18.18,12.25-20.16,14.38-.11.12-1,.92-2,1.78A148.94,148.94,0,0,0,61,146.86c-1.21,3.19-2.6,7.15-3.08,8.8s-1,3.45-1.22,4c-1.19,3.58-4.4,19-4.34,20.8,0,1.23.09,1.16.4-.6.2-1.1.46-2.45.58-3,.22-1,120.63-121.92,122.38-122.9a15.83,15.83,0,0,1,3.4-.93c2.43-.45,2.48-.48.8-.48a34,34,0,0,0-5.4.77M86.32,59.8c-4.26,1.55-7.59,8-5.66,11.06.26.4.3-.1.14-1.5-.77-6.56,6.14-11.64,12-8.87,2.64,1.24,3.55,2.27,4.94,5.57.39.92.42.93.45.14.13-4.2-7.17-8.11-11.92-6.4m220.82.06c-1.53.67-3.59,2.2-2.95,2.2a.85.85,0,0,0,.65-.36c2.23-3.61,10.58-2,13.3,2.56.26.44.49.56.5.28.14-3.09-7.76-6.3-11.5-4.68m-4.41,3.44c-.75,1.21-.3,1.37.49.17.37-.56.52-1,.35-1s-.55.37-.84.84m-1,2.17a5.38,5.38,0,0,0-.2,1.72c0,.86.11.76.4-.49.38-1.6.25-2.39-.2-1.23m17.14,2.72c0,4.43-1.92,7.14-5.94,8.44-.42.13-.66.35-.53.47.44.45,3.74-1.35,4.81-2.63,2-2.35,3-7,2-8.68-.16-.25-.3.83-.31,2.4M270.27,69c0,.13.54.51,1.2.85s1.2.45,1.2.25-.32-.47-.7-.61a12.45,12.45,0,0,1-1.2-.48c-.28-.13-.5-.13-.5,0m31.22.76c-.07,3,4.86,8.17,6.94,7.34.24-.1-.15-.31-.86-.47s-1.3-.44-1.3-.63a.39.39,0,0,0-.42-.35c-.43,0-1.19-.7-2.55-2.3a9,9,0,0,1-1.27-2.8c-.39-1.46-.52-1.64-.54-.79M97.64,71.24a9.89,9.89,0,0,1-5.39,5.39c-.76.16-1.17.39-.9.49,1.9.75,7.53-4.88,6.78-6.78-.1-.27-.33.14-.49.9M81.07,72c0,.85,1.85,3.06,3.29,3.93,1.68,1,3.31,1.54,2.93.93a1.1,1.1,0,0,0-.85-.44c-1,0-3.29-1.76-4.35-3.38-.56-.87-1-1.34-1-1m7.7,5.49a3.3,3.3,0,0,0,1.4,0c.38-.1.07-.18-.7-.18s-1.09.08-.7.18m220.8,0a3.3,3.3,0,0,0,1.4,0c.38-.1.07-.18-.7-.18s-1.09.08-.7.18M64.5,81.27a9.27,9.27,0,0,0-3.83,3.19c-.9,1.28-1.46,3-.85,2.62a1.22,1.22,0,0,0,.45-1c0-2.36,5.44-5.53,8.81-5.13,1.24.15,1.92.09,1.77-.14-.42-.69-4.69-.4-6.35.43m264.57-.43c-.38.25.17.3,1.62.15a8.56,8.56,0,0,1,8.83,11.93c-1.11,2.57-2.33,3.66-5.65,5.06-.93.39-.94.42-.15.45,4.31.14,8.29-7.45,6.35-12.11-1.78-4.24-8-7.36-11-5.48M72.89,82.28c1.62,1.06,3.38,3.31,3.38,4.35a1.07,1.07,0,0,0,.44.85c.6.38.09-1.25-.93-2.93-.87-1.44-3.08-3.29-3.93-3.29-.3,0,.17.46,1,1m252.5.72c-1.66,1.59-3.13,4.39-2.58,4.93.12.12.34-.3.5-.93a8.45,8.45,0,0,1,3.53-4.72c.87-.56,1.31-1,1-1A7,7,0,0,0,325.39,83M59.12,89.48c-.11,3.9,3,8.11,6.55,8.77,1.17.22,1.17.21.2-.23l-1.93-.89c-2.36-1.11-4.1-4-4.5-7.47l-.26-2.2-.06,2m18,.18c0,.77.08,1.08.18.7a3.3,3.3,0,0,0,0-1.4c-.1-.39-.18-.07-.18.7m-.72,2.78a9.89,9.89,0,0,1-5.39,5.39c-.76.16-1.17.39-.9.49,1.9.75,7.53-4.88,6.78-6.78-.1-.27-.33.14-.49.9m246.42-.21a9.38,9.38,0,0,0,2.59,4.13c1.63,1.35,2,1.22.62-.19-2.05-2-2.6-2.76-2.61-3.4a2.43,2.43,0,0,0-.43-1.11c-.33-.46-.37-.32-.17.57m5.41,5.83a2.94,2.94,0,0,0,1.4.36l.8,0-.8-.34c-1.2-.52-2.2-.52-1.4,0m-279.2,7.18c-.76.25-.33.35,1.72.38a11.47,11.47,0,0,1,3.54.47c.44.24.9.33,1,.21.71-.71-4.66-1.62-6.29-1.06m297.07.2c-1.77.63-2.29,1-1.36,1a1.15,1.15,0,0,0,.89-.4c.37-.6,5.11-.48,6.65.17,8.5,3.58,5.65,16.5-3.62,16.4-3.64,0-8-2.95-8-5.35a2.57,2.57,0,0,0-.43-1.22c-.33-.46-.37-.31-.17.6,1.69,7.89,13.44,8.7,17,1.16,3.27-7-3.75-14.93-10.9-12.38M44.67,107.59a9.08,9.08,0,0,0,5.07,15.49c8.66,1.15,13.84-9.33,7.61-15.41-.67-.66-1.31-1.12-1.42-1s.31.58.93,1.06c6.48,5.1,1.15,16.25-7.14,15-2.75-.43-6.65-3.41-6.65-5.08a1.18,1.18,0,0,0-.4-.93c-1.41-.87,0-6.07,2.25-8.61,1.66-1.84,1.5-2.13-.25-.46m297.71.17c-1.41,1.49-2.52,3.53-2.49,4.58,0,.39.38-.22.82-1.37a9,9,0,0,1,2-3.11c.67-.57,1.15-1.12,1.05-1.21s-.73.4-1.41,1.11m-127.66.9a18,18,0,0,1-.29,1.8c-.19.86-.16.9.23.29A3.06,3.06,0,0,0,215,109c-.11-.71-.19-.81-.23-.29m-.8,4.26a6.81,6.81,0,0,1-.31,1.4c-.2.57-.15.63.23.28a1.7,1.7,0,0,0,.31-1.4c-.09-.52-.2-.64-.23-.28m-.8,3.54c0,.33-.18,1.05-.31,1.6-.2.77-.14.89.23.55a2.12,2.12,0,0,0,.32-1.6c-.1-.64-.2-.88-.24-.55m-.81,4c0,.33-.16,1.05-.28,1.6-.19.86-.16.9.23.28a2.57,2.57,0,0,0,.29-1.6c-.1-.48-.2-.61-.24-.28m-.79,4.06a6.81,6.81,0,0,1-.31,1.4c-.2.57-.15.63.23.28a1.7,1.7,0,0,0,.31-1.4c-.09-.52-.2-.64-.23-.28m-1,4.48a2.27,2.27,0,0,0-.09,1.36c.32.32.71-1,.54-1.78-.11-.53-.23-.42-.45.42M35.27,132.69a9.12,9.12,0,0,0-2,16.07A7.59,7.59,0,0,0,35.81,150c.36,0-.05-.37-.92-.8-9.38-4.68-4.82-18.53,5.39-16.34a9.23,9.23,0,0,1,4.86,2.95c1.06,1.58,1.56,2,1,.81-1.75-3.61-6.75-5.44-10.85-4m322.29.41a9,9,0,0,0-1.15,15.66A7.89,7.89,0,0,0,359,150c.36,0-.06-.35-.94-.75-7.6-3.42-6.68-14.65,1.33-16.37,10.3-2.21,14.9,11.61,5.44,16.33-.86.43-1.29.79-.95.8,1.26,0,4.31-2.33,5.4-4.19,4.46-7.62-3.79-16.59-11.73-12.75m-183.43-.38a2,2,0,0,0-.24,1.1c0,.77.06.76.41-.12s.31-1.45-.17-1m-.77,3.18a1.87,1.87,0,0,0-.28,1.12c0,.77,0,.78.43.12s.33-1.72-.15-1.24m-126.54,5c.06,4-1.25,6.32-4.55,8-1.21.62-2,1.13-1.69,1.14,4.05.07,8.18-7.15,6.52-11.39-.19-.49-.3.39-.28,2.23m125.71-1.37a2.44,2.44,0,0,0-.23,1.3c0,1,0,1,.39-.14s.31-1.62-.16-1.16m-.8,3.2a2.44,2.44,0,0,0-.23,1.3c0,1,0,1,.39-.14s.31-1.62-.16-1.16m-1,4.44c0,1,.07,1,.38.3.46-1.1.46-1.4,0-1.4-.22,0-.39.49-.38,1.1m-.56,2.36a2.44,2.44,0,0,0-.23,1.3c0,1,0,1,.39-.14s.31-1.62-.16-1.16m-132.56.81a3.3,3.3,0,0,0,1.4,0c.38-.1.07-.18-.7-.18s-1.09.08-.7.18m323.2,0a3.3,3.3,0,0,0,1.4,0c.38-.1.07-.18-.7-.18s-1.09.08-.7.18m-191.44,2.39a3,3,0,0,0-.22,1.5l0,1.24.33-1.4c.34-1.46.3-1.79-.15-1.34m-.82,3.55a5.38,5.38,0,0,0-.2,1.72c0,.86.11.76.4-.49.38-1.6.25-2.39-.2-1.23m-.78,3.25a3,3,0,0,0-.22,1.5l0,1.24.33-1.4c.34-1.46.3-1.79-.15-1.34M28.47,161.34c-3,.81-6.59,4.23-6.57,6.32,0,.33.38-.17.83-1.1a8.67,8.67,0,0,1,15.52-.25c3,5.91-.62,11.85-7.58,12.56l-2.6.26,2.37.06c4.28.12,7.53-2.27,8.87-6.5,2-6.46-4.31-13.09-10.84-11.35m337.87.28a9.11,9.11,0,0,0-6.24,7.84c-.2,1.38-.14,1.3.47-.6,1.83-5.77,5.91-8.26,11.2-6.83,7.4,2,8.08,13.37,1,16.08-.54.2-.88.47-.76.59.34.33,2.38-.84,3.66-2.11,6.7-6.63-.38-18.05-9.29-15m-199.41,1.1a2.84,2.84,0,0,0-.26,1.38,6.66,6.66,0,0,1-.36,2,30,30,0,0,0-.82,3.12c-.25,1.21-.62,2.83-.83,3.6-1,3.81-1.63,6.89-1.44,7.08s.32-.31.45-.94c.44-2.11,1-4.73,1.4-6.14.42-1.64,1.84-7.71,2.18-9.3.23-1.12.16-1.32-.32-.84m58.58,1.41a2.15,2.15,0,0,1-.93,1.3c-.49.35-.72.62-.5.61.83,0,1.85-1.15,1.67-1.85s-.2-.64-.24-.06M216,169.6c-2.9,1.46-5.42,2.81-5.6,3s.22.08.88-.25l5.9-2.88c4.18-2,5.35-2.72,4.4-2.58-.17,0-2.68,1.24-5.58,2.7m-194.41.66c0,1.1.08,1.5.17.89a7.43,7.43,0,0,0,0-2c-.1-.49-.17,0-.17,1.11m338.74,1.6c-.16,3.71,4.46,7.46,9,7.33l2.32-.06-2.6-.26c-4.57-.47-7-2.31-8.26-6.39-.28-.87-.47-1.11-.49-.62m-338.44.92c-.05,1.8,4.93,6.86,5.86,5.94.1-.11-.43-.49-1.19-.85a7.93,7.93,0,0,1-3.87-4c-.43-.86-.79-1.34-.8-1.05m182,2.8c0,.18-.64.58-1.41.88a2.53,2.53,0,0,0-1.83,2.11c-.47,1.76-.19,2.52.38,1a9.26,9.26,0,0,1,2-2.46c1.7-1.53,1.93-1.88,1.25-1.88a.37.37,0,0,0-.4.32m-41.16,5.35c-.05.79-2.44,2.84-4.36,3.76-.74.35-1.26.72-1.16.82.88.88,6.09-3.27,5.75-4.57-.17-.63-.19-.63-.23,0m37.22.79a10.11,10.11,0,0,1-.29,1.8c-.22.7-.21.7.22,0a3.06,3.06,0,0,0,.29-1.8l-.16-1.09-.06,1.06M51.76,183.46a29.68,29.68,0,0,0-.24,4.4l0,2.8.36-3.6c.38-4,.28-6.15-.17-3.6m147.36,2a13.9,13.9,0,0,1-.31,1.8c-.2.77-.14.89.23.55a2.53,2.53,0,0,0,.32-1.8c-.09-.75-.2-1-.24-.55M153.56,187c-1.26.69-1.63,1.12-.68.77s2.5-1.37,2-1.31a4.93,4.93,0,0,0-1.29.54m44.77,2.48a7.82,7.82,0,0,1-.32,1.6c-.2.57-.15.63.23.29a2.12,2.12,0,0,0,.32-1.6c-.12-.81-.19-.9-.23-.29m150.06,10.34c0,6,.12,9.27.31,8.2a110.89,110.89,0,0,0,0-16.2c-.18-1.21-.3,2-.3,8M25.87,191.24c-.75.25-.26.35,1.88.38,5.32.07,8.88,3.45,8.91,8.46,0,9-12.31,11.79-16.53,3.78-.35-.66-.64-1-.65-.67-.06,2.23,4,5.43,7.42,5.88,8.39,1.09,13.31-8.86,7.59-15.35-1.77-2-6.23-3.3-8.62-2.48m25.05,2.08A96.25,96.25,0,0,0,51,207.66c.2,1.41.32-1.21.35-7.3,0-9.89,0-11.17-.47-7m318.64-2.07c-7.4,1.75-9.24,12-2.93,16.3,8.33,5.61,18.22-4.23,12.65-12.59-1-1.57-3.65-3.6-4.08-3.17-.13.13.18.41.71.62,4.89,1.9,5.91,10.34,1.69,14.05-2.61,2.3-7.36,2.83-10.13,1.14-7.76-4.73-4.6-15.86,4.54-16,2,0,2.57-.13,1.86-.36a7.75,7.75,0,0,0-4.31,0M23.84,192c-1.67.73-4.38,3.78-4.37,4.94,0,.29.38-.09.84-.86,1.09-1.83,2.77-3.6,3.41-3.6a1,1,0,0,0,.75-.4c.27-.45.25-.46-.63-.08m173.68,1.74a6.81,6.81,0,0,1-.31,1.4c-.2.57-.15.63.23.28a1.7,1.7,0,0,0,.31-1.4c-.09-.52-.2-.64-.23-.28m-.8,3.54c0,.33-.18,1.05-.31,1.6-.2.77-.14.89.23.55a2.12,2.12,0,0,0,.32-1.6c-.1-.64-.2-.88-.24-.55M18.84,199a5.76,5.76,0,0,0,.15,2.5c.36,1,.42.8.44-1.38,0-2.78-.19-3.22-.59-1.12m177.08,2.28a6.81,6.81,0,0,1-.31,1.4c-.2.57-.15.63.23.28a1.7,1.7,0,0,0,.31-1.4c-.09-.52-.2-.64-.23-.28m-.81,4.2a6.14,6.14,0,0,1-.3,1.2c-.2.57-.15.63.23.28a1.33,1.33,0,0,0,.31-1.2c-.11-.41-.21-.53-.24-.28m-1,4.28a2.27,2.27,0,0,0-.09,1.36c.32.32.71-1,.54-1.78-.11-.53-.23-.42-.45.42m153.59,4.78a17.88,17.88,0,0,0-.13,3.74c.32.31.76-3.85.6-5.66-.09-1.13-.23-.56-.47,1.92m-154.21-1.46a6.14,6.14,0,0,1-.3,1.2c-.2.57-.15.63.23.28a1.33,1.33,0,0,0,.31-1.2c-.11-.41-.21-.53-.24-.28m-.8,4a6.14,6.14,0,0,1-.3,1.2c-.2.57-.15.63.23.28a1.33,1.33,0,0,0,.31-1.2c-.11-.41-.21-.53-.24-.28m154.2,3.94c-.17,1.1-.38,2.27-.47,2.6-.5,1.82-122.8,123.2-124.18,123.24a9.18,9.18,0,0,0-2.39.39c-1.55.54,2.42.14,6-.61l5.2-1.08c39.63-8.26,74.84-33.44,96.38-68.94,2.75-4.54,9.57-18,10.21-20.2a20,20,0,0,1,.83-2.2c.88-2,3.29-9.2,4.53-13.53,2.05-7.22,4.59-19.33,4.35-20.76-.1-.58-.27-.19-.46,1.09m-320,.56c-2.43,1.12-5.69,5.09-4.86,5.91.09.09.35-.36.57-1,1-2.88,3.92-4.83,7.89-5.27l2.4-.27-2.2,0a8.64,8.64,0,0,0-3.8.69m164.88-.23c-.44,1.13-.37,1.71.15,1.19a1.46,1.46,0,0,0,.29-1.18c-.14-.72-.16-.72-.44,0m177.52-.14c10.69,1.19,11.83,14.82,1.42,17.16-9.58,2.15-14.26-12.18-5.28-16.2.74-.33,1.24-.7,1.12-.83-.45-.45-3.75,1.87-4.77,3.35-4.72,6.87,2,16.65,9.68,14,10.27-3.51,8.25-18.16-2.46-17.85l-2.11.06,2.4.27m-336,.33a7.83,7.83,0,0,0,1.58.81l1.2.49-1-.8c-.94-.75-2.64-1.22-1.78-.5m3,1.39a2.9,2.9,0,0,0,.77,1.16c4.2,4.51,2.09,12.34-3.78,14a8.65,8.65,0,0,1-10.59-4.7c-.43-.86-.79-1.32-.8-1-.06,2.11,3.31,5.34,6.69,6.42,6.18,2,12.75-5,10.73-11.43-.59-1.87-3-5.39-3-4.44M191,225.39c-.44,1.13-.37,1.71.15,1.19a1.46,1.46,0,0,0,.29-1.18c-.14-.72-.16-.72-.44,0M21.58,229.86c0,1.1.08,1.5.17.89a7.43,7.43,0,0,0,0-2c-.1-.49-.17,0-.17,1.11m128.89,2.85c-.13.63-.41,1.7-.62,2.37a8.64,8.64,0,0,0-.38,2,9,9,0,0,1-.37,2,43.72,43.72,0,0,0-1.43,5.63c-.38,2.22.1,1.56.61-.84.24-1.08.59-2.59.79-3.36,1.08-4.22,2-8.56,1.78-8.75s-.25.37-.38,1m-3.35,14.41a8.6,8.6,0,0,1-.28,1.6c-.22.7-.21.7.22,0a2.57,2.57,0,0,0,.29-1.6c-.18-.88-.18-.88-.23,0m-.81,3.14a17.34,17.34,0,0,1-.26,1.8l-.21,1,.43-1a3.58,3.58,0,0,0,.27-1.8c-.16-.8-.17-.8-.23,0m-112.66.83c-6.41,4.35-5.68,13.09,1.35,16.2,4,1.77,9.32-.07,11.11-3.83l.57-1.2-.71,1c-5.42,7.5-16.1,4.59-16.1-4.38,0-3.87,1.61-6.34,5.2-8,1.18-.54,1.51-.82,1-.82a5.71,5.71,0,0,0-2.37,1m8.62.12c3.29,1.69,4.58,4,4.55,8,0,1.81.1,2.71.28,2.24,1.56-4-2.62-11.42-6.38-11.37-.36,0,.34.51,1.55,1.14m314.27,0c-1.71,1.09-3.47,3.22-3.47,4.21,0,.22.34-.17.77-.86a11.3,11.3,0,0,1,4.92-4c.94-.34,1.07-.48.48-.5a7.11,7.11,0,0,0-2.7,1.16m7.63-.66c8.16,3,7.53,14.92-.88,16.66-5.66,1.18-10.37-2.74-10.37-8.61,0-1.44-.15-2.37-.32-2.09-.64,1-.32,4.11.62,6.11a9,9,0,0,0,17.16-3.8c0-4.26-3.53-8.89-6.69-8.77-.59,0-.46.16.48.5m-218.9,4.27c-.15.47-.19.95-.08,1.06s.33-.19.48-.66.18-.95.07-1.06-.32.18-.47.66m-1.6,6.8c-.15.47-.19.95-.08,1.06s.33-.19.48-.66.18-.95.07-1.06-.32.18-.47.66m-.74,3.06a2,2,0,0,0-.24,1.1c0,.77.06.76.41-.12s.31-1.45-.17-1m-.77,3.18a1.87,1.87,0,0,0-.28,1.12c0,.77,0,.78.43.12s.33-1.72-.15-1.24m-.83,3.62a2,2,0,0,0-.24,1.1c0,.77.06.76.41-.12s.31-1.45-.17-1m-.8,3.2a2,2,0,0,0-.24,1.1c0,.77.06.76.41-.12s.31-1.45-.17-1m-92.41,2.7c-10.43,3.87-5.82,20.86,4.75,17.49,1-.33.76-.39-1.64-.42-8-.1-11.86-8.63-6.43-14.37,6.23-6.57,17.45,0,14.5,8.54-.69,2-2.78,4.52-4.14,5-.55.22-.9.5-.76.63.66.66,3.81-2.31,4.91-4.62,3.3-6.94-4-14.95-11.19-12.28m298.26-.2c-3.12.8-7.63,5.85-6.36,7.13.13.13.35-.33.49-1,.95-4.77,8.06-7.46,12.63-4.77,1.8,1.05,3.53,3,3.53,4.05a1.09,1.09,0,0,0,.4.84c.62.38.47,3.92-.24,5.65-1.45,3.53-4.12,5.26-8.36,5.44l-2.8.11,1.82.33c5.15.94,10.34-3.47,10.36-8.81a9.24,9.24,0,0,0-11.47-9m-6.82,8.84c0,.77.08,1.08.18.7a3.3,3.3,0,0,0,0-1.4c-.1-.39-.18-.07-.18.7m.33,1.94c0,1,1.19,3.11,2.59,4.47.76.74,1.39,1.2,1.39,1s-.48-.69-1.06-1.15a9.16,9.16,0,0,1-2-2.86c-.5-1.11-.93-1.78-.94-1.48M65.07,302.06c-.77.49.05.49,1.6,0l1-.32-1,0a3.21,3.21,0,0,0-1.6.36m5.6.21c2,.62,4.8,2.73,4.8,3.62,0,.31.15.57.35.57s.47.58.63,1.3.37,1.1.47.86c.79-2-4.38-7-7.14-6.94-.58,0-.26.24.89.59m256.76.18c-1.62.86-4.17,3.55-3.73,3.95.15.14.37,0,.48-.34.41-1.15,3.09-3.24,4.88-3.79,1.26-.39,1.5-.56.81-.57a6.56,6.56,0,0,0-2.44.75m6.36-.29c7.59,2.18,8.68,11.84,1.83,16.17-.42.27-.53.49-.26.5.89,0,3.6-2.74,4.47-4.58,2.38-5.07-1-11.79-6.17-12.4l-1.59-.18,1.72.49m-270.9.91c-.42.32-.69.66-.59.76s.62-.17,1.17-.59.82-.76.6-.76a2.82,2.82,0,0,0-1.18.59m-1.75,1.63a10,10,0,0,0-2,6l0,2,.28-2.2a8.89,8.89,0,0,1,1.71-4.93c.85-1.21.82-1.75,0-.83M323,307.39c-.44,1.13-.37,1.71.15,1.19a1.46,1.46,0,0,0,.29-1.18c-.14-.72-.16-.72-.44,0M77.16,310.46c0,.77.08,1.08.18.7a3.3,3.3,0,0,0,0-1.4c-.1-.39-.18-.07-.18.7m245.53,1.91c-.22,4.15,8,9.17,11.44,7,.25-.16-.83-.3-2.4-.3-3.06,0-4.51-.55-6.29-2.33a9.81,9.81,0,0,1-2.3-3.86c-.23-.55-.43-.77-.45-.49m-246.25.73a8.42,8.42,0,0,1-12,5.18c-2.22-1.09-4.21-3.14-4.21-4.34a1.15,1.15,0,0,0-.45-.91c-.63-.39,0,1.35.91,2.71a9.09,9.09,0,0,0,15.82-1.63c.31-.74.47-1.44.35-1.55s-.33.12-.46.54m9.16,10.34c-1.61.7-4.53,3.6-4.53,4.5,0,.4.41,0,1-.91,1-1.56,3.29-3.37,4.27-3.38a2.56,2.56,0,0,0,1.11-.39c1-.62-.32-.49-1.87.18m5.87-.22a2.43,2.43,0,0,0,1.11.43c.63,0,1.33.54,3.4,2.58,1.42,1.4,1.53,1,.19-.59A9.43,9.43,0,0,0,92,323.05c-.89-.2-1-.16-.57.17m215,.3c-2.74,1.44-5,4.58-5,6.82,0,.87.14.72.53-.72.74-2.75,3.75-6,5.6-6a1.1,1.1,0,0,0,.85-.4c.36-.59-.63-.46-2,.26m6.2-.19a9.93,9.93,0,0,1,3.86,2.3c1.78,1.78,2.31,3.23,2.32,6.29,0,1.57.15,2.65.31,2.4,2.19-3.44-2.83-11.66-7-11.44-.28,0-.06.22.49.45M97.5,328.46a4.79,4.79,0,0,0,.37,1.4l.34.8,0-.8a2.94,2.94,0,0,0-.36-1.4c-.35-.54-.39-.54-.37,0m-17,1c-1.38,3.59,1.46,9,5.62,10.77,4.66,1.94,11-1.26,11.93-6,.22-1.18.21-1.18-.23-.2l-.9,1.92c-3.83,8.19-17.08,4.08-16.14-5,.22-2.17.14-2.59-.28-1.48m221.15,4.36c.59,5.12,7.14,8.46,12.28,6.26,1.68-.72,4.73-3.61,4.73-4.49,0-.23-.59.34-1.3,1.28a8.72,8.72,0,0,1-15.44-3l-.45-1.6.18,1.59m-190.28,6.28c-1.43.39-5.36,3.42-4.95,3.83.11.11.66-.35,1.22-1,1.06-1.27,3.33-2.35,6-2.89,1.33-.26,1.4-.32.4-.32a13.32,13.32,0,0,0-2.69.39m173.79-.2a3.3,3.3,0,0,0,1.4,0c.38-.1.07-.18-.7-.18s-1.09.08-.7.18m-169.3.49a2.57,2.57,0,0,0,1.22.43c3.65,0,6.76,8,4.66,11.88-5.33,9.93-20.33,2.62-15.69-7.64.23-.53.2-.68-.1-.49-1,.64-1.47,4.57-.76,6.83,3.19,10.1,17.67,8,17.67-2.53,0-4.16-2.74-7.86-6.4-8.65-.92-.2-1.06-.16-.6.17m166.2.19c-6.85,3-7,13.06-.2,16.51,6.35,3.24,14.2-2.49,12.93-9.44l-.33-1.82-.12,2.8c-.17,4.24-1.9,6.91-5.43,8.36-1.73.71-5.27.86-5.65.24a1.25,1.25,0,0,0-.93-.41c-3.44,0-6.27-7.65-4.34-11.71.75-1.59,3.66-4.28,4.64-4.29a2.77,2.77,0,0,0,1.23-.39c.93-.61-.31-.5-1.8.15m7,.3a14.4,14.4,0,0,1,3.2,2.07l1.4,1.28-1.37-1.49c-1.36-1.48-3.47-2.74-4.49-2.69-.3,0,.27.39,1.26.83m-76.4,7.15-2.2.27h2.8a22.63,22.63,0,0,0,4-.28c1.57-.41-1.33-.41-4.6,0m-20.8.82a106.71,106.71,0,0,0,16,0c1.1-.19-2.07-.31-8.2-.31s-9.14.13-7.8.31m-54.61,4.52c-8.85,4.12-5.91,17.16,3.87,17.17,4.05,0,8.8-3.52,8.72-6.49,0-.34-.37.09-.81,1-4.73,9.48-18.54,4.88-16.32-5.44,1.72-8,12.95-8.94,16.37-1.34.39.88.73,1.3.75.94.19-4.39-7.74-8.05-12.58-5.8m117.38.16c-2.34,1.18-4.8,4.22-4.74,5.84,0,.64.15.51.51-.49a8.77,8.77,0,0,1,15.8-1.65c1,1.57,1.16,1.34.29-.32-2.08-4-7.56-5.56-11.86-3.38m12.63,6.78c1.52,10-12.39,13.74-16.57,4.52-.53-1.16-.82-1.51-.83-1-.05,4.85,8.24,8.41,13.2,5.66,3.64-2,6.1-7.8,4.37-10.29-.31-.44-.35-.15-.17,1.08m-100.2.5c-9.57,3.3-7.15,17.65,3,17.61,3.71,0,10-4.72,8.47-6.29-.12-.12-.39.23-.59.76-3.48,9.14-17.34,5.13-16.33-4.72,1.09-10.64,16-9.72,17.09,1.06l.26,2.6.06-2.38a8.77,8.77,0,0,0-11.93-8.64m60.45-.32c-2.8.8-6.52,4.37-6.44,6.17,0,.2.33-.18.7-.86,5.88-10.54,21-2.89,15.49,7.82-4,7.76-15.2,4.87-16.21-4.19l-.27-2.4,0,2.2c-.26,10.66,14.34,12.6,17.84,2.37,2.09-6.13-4.69-12.95-11.06-11.11M150,361.66c0,.77.08,1.08.18.7a3.3,3.3,0,0,0,0-1.4c-.1-.39-.18-.07-.18.7m47.54,1.46c-4.18.89-7.66,6.53-6.5,10.55.36,1.25.4,1.11.43-1.47.1-7.8,8.5-11.73,14.28-6.68,4.19,3.65,3.31,11.45-1.58,14-.63.33-1,.69-.94.79.47.47,3.51-2,4.42-3.54a9.21,9.21,0,0,0-10.11-13.65m-5.85,12.68c1,3.23,6.47,6.1,9.82,5.13,1.29-.37,1.2-.4-1.32-.44-3.87-.05-5.75-1.12-8.2-4.68-.5-.72-.51-.72-.3,0" style="fill:#e4bc5c;fill-rule:evenodd"/><path id="path4" d="M181.77,104.7a1,1,0,0,0-.7.83c0,.48.12.52.54.17s5.11-.42,16.7-.35l16.16.11-.05,1.4c0,1.27-.23,2.26-1.33,7.4-.19.88-.56,2.68-.82,4s-.63,3.12-.81,4c-.4,2-1,4.86-1.6,8-.26,1.32-.62,3.12-.79,4s-.52,2.59-.75,3.8-1.33,6.61-2.44,12-2,10.05-2,10.36c0,1.19.53,0,.89-2.06.21-1.15.52-2.82.7-3.7s.54-2.68.81-4,.64-3.21.85-4.2c.36-1.72.63-3.05,1.55-7.6l.8-4c.22-1.1.55-2.86.74-3.9s.91-4.6,1.59-7.9c3.1-15,3.59-17.62,3.34-17.87s-32.37-.79-33.37-.49m-1.32,2.86c-.12.6-.38,1.73-.58,2.5s-.56,2.3-.8,3.4c-.44,1.92-.77,3.28-1.59,6.5-.21.82-.48,2-.61,2.7s-.42,1.92-.64,2.8-.57,2.32-.76,3.2-.53,2.32-.74,3.2c-.69,2.86-1.22,5.16-1.62,7-.22,1-1.1,4.77-2,8.4-2.46,10.25-2.58,10.83-2.34,11.07s.34-.3.47-.93.6-2.63,1-4.44,1.14-4.88,1.59-6.8,1-4.13,1.18-4.9.54-2.21.76-3.2c.63-2.84,2.05-8.86,2.44-10.4.19-.77.54-2.21.77-3.2s1.12-4.77,2-8.4,1.71-7.28,1.86-8.1c.31-1.71-.08-2.08-.43-.4m34,49.91c-11,5.49-10.47,5.27-10.73,4.29-.14-.54-.19-.5-.23.17-.08,1.51.33,1.37,10.56-3.7,5.5-2.72,10.23-5,10.51-5s.48,1.27.4,5.69l-.11,5.7-12.11,6c-13.44,6.66-12.27,5.71-13.28,10.8-.26,1.32-.63,3.12-.81,4s-.55,2.68-.8,4-.62,3-.8,3.8-.53,2.39-.76,3.6c-.76,4-1.09,5.64-2.1,10.4-.21,1-.55,2.7-.75,3.8s-.56,2.81-.79,3.8-.57,2.7-.77,3.8-.48,2.54-.62,3.2l-.6,2.8c-.19.88-.54,2.59-.78,3.8s-.89,4.4-1.44,7.1-1,5.21-1,5.57c0,1.25.54.11.85-1.78.17-1,.48-2.7.69-3.69.45-2.15,1.2-5.87,1.7-8.5.44-2.37,1-5.15,1.5-7.5.21-1,.59-2.88.85-4.2.83-4.22,1.19-6,1.6-7.8.23-1,.57-2.7.77-3.8s.75-3.8,1.21-6,1.48-7.15,2.25-11c1.8-9,2.08-10,2.79-10,.32,0,.59-.18.59-.4s.34-.4.76-.4.83-.14.9-.3c.14-.32,1-.78,13.26-6.71,6.36-3.09,8-4.05,8.31-4.88.65-1.72.29-11.49-.43-11.59-.33-.05-5.1,2.15-10.6,4.89m-46.82,4.38a12,12,0,0,0-.5,3.23c.12.11.53-1.15.93-2.81a12,12,0,0,0,.5-3.24c-.12-.11-.53,1.15-.93,2.82m-1.54,6.81c-.4,1.76-.87,3.65-1,4.2s-.54,2.08-.8,3.4a27,27,0,0,1-.84,3.32,6.09,6.09,0,0,0-.36,1.89c0,1.41,0,1.43-25.3,13.78l-5.1,2.49v12.38l1.1-.24c.6-.14,6.5-2.92,13.1-6.19,13.2-6.54,12.52-6.32,11.83-3.94-.53,1.81-.93,3.39-1.59,6.31-.23,1-1,4.41-1.81,7.6-1.55,6.44-3.11,13.14-4.05,17.4-.33,1.54-.81,3.55-1,4.47a6.07,6.07,0,0,0-.26,2.18c.15.45.46-.71,1.91-7.05.81-3.57,2.07-8.89,2.41-10.2.19-.77.73-3,1.18-4.9,1.81-7.76,2.5-10.64,3.24-13.61.85-3.41,1-4.69.42-4.69-.19,0-5.85,2.7-12.58,6s-12.51,6-12.85,6c-.52,0-.61-.81-.61-5.57v-5.56l9.1-4.48L157,186.33c3.63-1.8,5.88-3.14,6.1-3.66.61-1.44,4-16,3.85-16.61-.07-.33-.45.84-.85,2.6m-16.84,70.85c-.14.63-.4,1.78-.6,2.55s-.56,2.3-.8,3.4-.61,2.63-.8,3.4-.56,2.3-.8,3.4c-.61,2.69-1.18,4.94-1.63,6.42a8.79,8.79,0,0,0-.37,2.09,5.81,5.81,0,0,1-.36,1.77,30,30,0,0,0-.82,3.12c-.25,1.21-.62,2.83-.82,3.6-1.41,5.45-1.9,7.8-1.72,8.26.29.77,98.21.8,98.81,0a4.49,4.49,0,0,0,.62-1.5c.13-.55.43-1.72.69-2.6s.54-2,.65-2.6a10.88,10.88,0,0,1,.55-1.8,11.94,11.94,0,0,0,.54-1.8c.11-.55.41-1.72.66-2.6a29.74,29.74,0,0,0,.68-2.91,2.92,2.92,0,0,1,.56-1.52,1.63,1.63,0,0,0,.36-1.18,6.37,6.37,0,0,1,.35-1.87c.2-.51.56-1.64.8-2.52s.79-2.88,1.24-4.45a43.63,43.63,0,0,0,1.06-4.7l.25-1.85H218c-30.18,0-30.43,0-30.61-.81s-.17-.65-.13.1l.06.91,30.3.1c16.66.06,30.29.24,30.29.4s-1.38,5.75-2.05,8.1c-.22.77-.55,2-.74,2.8s-.53,2-.74,2.8c-1,3.42-3.06,11.11-4.44,16.28a13.75,13.75,0,0,1-1,2.79c-.33.33-95.47.6-97.16.28-.93-.18-1-.33-.7-1a4.08,4.08,0,0,0,.4-1.64,8.91,8.91,0,0,1,.37-2.13c.45-1.48,1-3.73,1.63-6.42.24-1.1.61-2.63.81-3.4s.72-2.93,1.15-4.8c.83-3.55,2.28-9.72,3.7-15.72a14.73,14.73,0,0,0,.61-3.75c-.13-.12-.34.29-.47.92" style="fill:#eed4a1;fill-rule:evenodd"/></g></g></g></svg>