<svg width="70" height="68" viewBox="0 0 70 68" fill="none" xmlns="http://www.w3.org/2000/svg">
<path fill-rule="evenodd" clip-rule="evenodd" d="M43.0155 31.4337C44.4739 31.4337 45.627 32.567 45.627 34.0003C45.627 35.4003 44.4739 36.567 43.0155 36.567H22.6667V52.5003C22.6667 60.667 29.4157 67.3337 37.7588 67.3337H54.2752C62.5843 67.3337 69.3334 60.7003 69.3334 52.5337V15.5003C69.3334 7.30032 62.5504 0.666992 54.2413 0.666992H37.6909C29.4157 0.666992 22.6667 7.30033 22.6667 15.467V31.4337H43.0155ZM10.566 22.4677L0.83271 32.1677C0.33271 32.6677 0.06604 33.301 0.06604 34.001C0.06604 34.6677 0.33271 35.3343 0.83271 35.801L10.566 45.501C11.066 46.001 11.7327 46.2677 12.366 46.2677C13.0327 46.2677 13.6994 46.001 14.1994 45.501C15.1994 44.501 15.1994 42.8677 14.1994 41.8677L8.86604 36.5677H22.666V31.4343H8.86604L14.1994 26.1343C15.1994 25.1343 15.1994 23.501 14.1994 22.501C13.1994 21.4677 11.566 21.4677 10.566 22.4677Z" fill="#3063E9"/>
</svg>
