<svg width="200" height="50" viewBox="0 0 5190 1072" fill="none" xmlns="http://www.w3.org/2000/svg">
<path d="M226.81 509.137V383.194C226.81 214.196 363.809 77.1963 532.807 77.1963V77.1963C701.805 77.1963 838.805 214.196 838.805 383.194V401.152" stroke="white" stroke-width="152.999"/>
<path d="M226.807 383.189L226.807 434.189L226.807 536.188L430.805 536.188" stroke="white" stroke-width="152.999"/>
<path d="M838.807 563.252V689.195C838.807 858.193 701.807 995.192 532.809 995.192V995.192C363.811 995.192 226.812 858.192 226.812 689.195V671.237" stroke="white" stroke-width="152.999"/>
<path d="M838.809 689.189L838.809 638.19L838.809 536.191L634.811 536.191" stroke="white" stroke-width="152.999"/>
<path d="M1264.81 805.326H1346.23V573.034H1524.64C1577.86 573.034 1613.91 558.533 1632.8 529.529C1651.69 500.26 1661.14 464.205 1661.14 421.366C1661.14 378.26 1651.96 341.673 1633.6 311.606C1615.24 281.538 1579.98 266.504 1527.83 266.504H1264.81V805.326ZM1576.92 805.326H1665.53L1551.38 546.293L1469.96 551.481L1576.92 805.326ZM1346.23 521.547V323.18H1501.89C1531.42 323.18 1551.65 332.227 1562.56 350.321C1573.73 368.415 1579.32 392.496 1579.32 422.563C1579.32 452.631 1573.73 476.711 1562.56 494.805C1551.65 512.633 1531.42 521.547 1501.89 521.547H1346.23ZM1936.79 809.317V756.234C1896.35 756.234 1864.68 741.599 1841.8 712.33C1819.18 682.794 1807.88 634.633 1807.88 567.845C1807.88 497.333 1819.58 448.639 1843 421.765C1866.68 394.89 1897.55 381.453 1935.6 381.453C1974.71 381.453 2005.18 394.358 2027 420.168C2048.81 445.713 2059.72 489.35 2059.72 551.082L2064.11 542.301H1799.09V592.591H2138.35C2139.42 584.609 2139.95 575.961 2139.95 566.648C2139.95 487.621 2124.12 428.151 2092.45 388.238C2061.05 348.059 2008.77 327.97 1935.6 327.97C1864.29 327.97 1812.13 348.059 1779.14 388.238C1746.14 428.151 1729.65 488.02 1729.65 567.845C1729.65 643.68 1745.74 702.884 1777.94 745.457C1810.4 788.031 1863.35 809.317 1936.79 809.317ZM1936.79 756.234V809.317C1976.71 809.317 2009.57 804.129 2035.38 793.751C2061.45 783.374 2082.74 766.877 2099.24 744.26C2115.74 721.642 2126.25 694.103 2130.77 661.64L2058.13 642.083C2053.6 665.233 2046.55 686.12 2036.97 704.746C2027.66 723.372 2014.36 736.676 1997.06 744.659C1980.03 752.375 1959.94 756.234 1936.79 756.234ZM2530.42 805.326H2605.46V178.696H2525.23V727.496L2530.42 805.326ZM2375.56 808.519C2427.45 808.519 2471.22 795.614 2506.87 769.804C2542.53 743.728 2560.35 716.72 2560.35 688.781L2525.63 645.675C2525.63 673.348 2513.52 698.094 2489.31 719.913C2465.36 741.466 2436.49 752.242 2402.7 752.242C2367.31 752.242 2339.24 739.337 2318.48 713.527C2297.73 687.451 2287.35 639.023 2287.35 568.245C2287.35 497.466 2297.73 449.172 2318.48 423.361C2339.24 397.285 2367.31 384.247 2402.7 384.247C2436.49 384.247 2465.36 395.156 2489.31 416.975C2513.52 438.794 2525.63 463.407 2525.63 490.814L2560.35 448.107C2560.35 419.902 2542.53 392.895 2506.87 367.084C2471.22 341.008 2427.45 327.97 2375.56 327.97C2318.88 327.97 2276.31 347.793 2247.84 387.44C2219.63 427.087 2205.53 487.222 2205.53 567.845C2205.53 648.469 2219.63 708.737 2247.84 748.65C2276.31 788.563 2318.88 808.519 2375.56 808.519ZM3108.23 809.317C3187.52 809.317 3245.66 787.498 3282.65 743.861C3319.9 700.223 3338.53 630.908 3338.53 535.915C3338.53 441.189 3319.9 371.874 3282.65 327.97C3245.66 284.066 3187.52 262.114 3108.23 262.114C3028.67 262.114 2970.4 284.066 2933.41 327.97C2896.43 371.874 2877.94 441.189 2877.94 535.915C2877.94 630.908 2896.43 700.223 2933.41 743.861C2970.67 787.498 3028.94 809.317 3108.23 809.317ZM3108.23 752.641C3064.06 752.641 3028.14 738.406 3000.47 709.935C2973.06 681.464 2959.36 623.457 2959.36 535.915C2959.36 447.841 2973.06 389.702 3000.47 361.497C3028.14 333.026 3064.06 318.79 3108.23 318.79C3152.4 318.79 3188.19 333.026 3215.6 361.497C3243.27 389.702 3257.11 447.841 3257.11 535.915C3257.11 623.457 3243.27 681.464 3215.6 709.935C3188.19 738.406 3152.4 752.641 3108.23 752.641ZM3413 805.326H3493.63V424.16L3476.06 332.36H3413V805.326ZM3709.55 805.326H3790.18V534.718C3790.18 470.325 3778.74 419.769 3755.85 383.05C3733.24 346.064 3694.52 327.571 3639.71 327.571C3584.63 327.571 3539.53 344.866 3504.4 379.457C3469.55 413.782 3452.12 450.236 3452.12 488.818L3491.23 513.963C3491.23 476.711 3502.67 445.846 3525.56 421.366C3548.71 396.62 3577.04 384.247 3610.57 384.247C3643.83 384.247 3668.58 395.689 3684.81 418.572C3701.31 441.455 3709.55 480.437 3709.55 535.516V805.326ZM3888.41 805.326H3969.43V331.961H3888.41V805.326ZM3888.41 202.644V274.487H3969.43V202.644H3888.41ZM4265.29 808.918C4335.81 808.918 4388.09 789.228 4422.15 749.847C4456.21 710.467 4473.24 649.667 4473.24 567.446C4473.24 485.226 4456.21 424.692 4422.15 385.843C4388.09 346.995 4335.81 327.571 4265.29 327.571C4194.78 327.571 4142.36 346.995 4108.04 385.843C4073.98 424.692 4056.95 485.226 4056.95 567.446C4056.95 649.667 4073.98 710.467 4108.04 749.847C4142.36 789.228 4194.78 808.918 4265.29 808.918ZM4265.29 753.041C4228.31 753.041 4197.84 740.135 4173.89 714.325C4149.95 688.249 4137.97 639.422 4137.97 567.845C4137.97 496.535 4149.95 447.974 4173.89 422.164C4197.84 396.088 4228.31 383.05 4265.29 383.05C4302.28 383.05 4332.75 396.088 4356.7 422.164C4380.64 447.974 4392.62 496.535 4392.62 567.845C4392.62 639.422 4380.64 688.249 4356.7 714.325C4332.75 740.135 4302.28 753.041 4265.29 753.041ZM4551.14 805.326H4631.76V424.16L4614.2 332.36H4551.14V805.326ZM4847.69 805.326H4928.31V534.718C4928.31 470.325 4916.87 419.769 4893.99 383.05C4871.37 346.064 4832.66 327.571 4777.84 327.571C4722.76 327.571 4677.66 344.866 4642.54 379.457C4607.68 413.782 4590.25 450.236 4590.25 488.818L4629.37 513.963C4629.37 476.711 4640.81 445.846 4663.69 421.366C4686.84 396.62 4715.18 384.247 4748.71 384.247C4781.97 384.247 4806.71 395.689 4822.94 418.572C4839.44 441.455 4847.69 480.437 4847.69 535.516V805.326Z" fill="white"/>
<path d="M1264.81 805.326H1256.49V813.641H1264.81V805.326ZM1346.23 805.326V813.641H1354.54V805.326H1346.23ZM1346.23 573.034V564.719H1337.91V573.034H1346.23ZM1632.8 529.529L1639.77 534.068L1639.78 534.053L1639.79 534.039L1632.8 529.529ZM1633.6 311.606L1640.7 307.272V307.272L1633.6 311.606ZM1264.81 266.504V258.189H1256.49V266.504H1264.81ZM1576.92 805.326L1569.26 808.555L1571.4 813.641H1576.92V805.326ZM1665.53 805.326V813.641H1678.28L1673.14 801.973L1665.53 805.326ZM1551.38 546.293L1558.99 542.939L1556.65 537.625L1550.85 537.994L1551.38 546.293ZM1469.96 551.481L1469.43 543.183L1457.75 543.927L1462.3 554.71L1469.96 551.481ZM1346.23 521.547H1337.91V529.862H1346.23V521.547ZM1346.23 323.18V314.865H1337.91V323.18H1346.23ZM1562.56 350.321L1555.43 354.615L1555.46 354.653L1555.48 354.691L1562.56 350.321ZM1562.56 494.805L1555.48 490.436L1555.47 490.45L1555.46 490.465L1562.56 494.805ZM1264.81 813.641H1346.23V797.011H1264.81V813.641ZM1354.54 805.326V573.034H1337.91V805.326H1354.54ZM1346.23 581.349H1524.64V564.719H1346.23V581.349ZM1524.64 581.349C1579.08 581.349 1618.64 566.505 1639.77 534.068L1625.83 524.991C1609.18 550.56 1576.63 564.719 1524.64 564.719V581.349ZM1639.79 534.039C1659.73 503.146 1669.45 465.436 1669.45 421.366H1652.82C1652.82 462.975 1643.66 497.374 1625.82 525.02L1639.79 534.039ZM1669.45 421.366C1669.45 377.073 1660.01 338.909 1640.7 307.272L1626.5 315.939C1643.91 344.438 1652.82 379.447 1652.82 421.366H1669.45ZM1640.7 307.272C1620.18 273.673 1581.38 258.189 1527.83 258.189V274.82C1578.59 274.82 1610.3 289.404 1626.5 315.939L1640.7 307.272ZM1527.83 258.189H1264.81V274.82H1527.83V258.189ZM1256.49 266.504V805.326H1273.12V266.504H1256.49ZM1576.92 813.641H1665.53V797.011H1576.92V813.641ZM1673.14 801.973L1558.99 542.939L1543.77 549.646L1657.92 808.679L1673.14 801.973ZM1550.85 537.994L1469.43 543.183L1470.49 559.78L1551.91 554.591L1550.85 537.994ZM1462.3 554.71L1569.26 808.555L1584.59 802.097L1477.62 548.252L1462.3 554.71ZM1354.54 521.547V323.18H1337.91V521.547H1354.54ZM1346.23 331.496H1501.89V314.865H1346.23V331.496ZM1501.89 331.496C1529.8 331.496 1546.59 339.95 1555.43 354.615L1569.68 346.028C1556.7 324.505 1533.05 314.865 1501.89 314.865V331.496ZM1555.48 354.691C1565.58 371.035 1571 393.431 1571 422.563H1587.63C1587.63 391.561 1581.89 365.794 1569.63 345.952L1555.48 354.691ZM1571 422.563C1571 451.696 1565.58 474.091 1555.48 490.436L1569.63 499.175C1581.89 479.332 1587.63 453.566 1587.63 422.563H1571ZM1555.46 490.465C1546.64 504.876 1529.85 513.232 1501.89 513.232V529.862C1533 529.862 1556.65 520.389 1569.65 499.145L1555.46 490.465ZM1501.89 513.232H1346.23V529.862H1501.89V513.232ZM1936.79 809.317V817.633H1945.11V809.317H1936.79ZM1936.79 756.234H1945.11V747.918H1936.79V756.234ZM1841.8 712.33L1835.2 717.385L1835.22 717.418L1835.25 717.451L1841.8 712.33ZM1843 421.765L1836.76 416.268L1836.74 416.285L1836.73 416.303L1843 421.765ZM2027 420.168L2020.65 425.537L2020.66 425.553L2020.67 425.569L2027 420.168ZM2059.72 551.082H2051.41L2067.16 554.801L2059.72 551.082ZM2064.11 542.301L2071.55 546.02L2077.57 533.986H2064.11V542.301ZM1799.09 542.301V533.986H1790.78V542.301H1799.09ZM1799.09 592.591H1790.78V600.906H1799.09V592.591ZM2138.35 592.591V600.906H2145.63L2146.59 593.69L2138.35 592.591ZM2092.45 388.238L2085.9 393.358L2085.92 393.382L2085.94 393.406L2092.45 388.238ZM1779.14 388.238L1785.55 393.536L1785.56 393.526L1785.56 393.515L1779.14 388.238ZM1777.94 745.457L1771.31 750.473L1771.32 750.486L1771.33 750.499L1777.94 745.457ZM1936.79 756.234V747.918H1928.48V756.234H1936.79ZM1936.79 809.317H1928.48V817.633H1936.79V809.317ZM2035.38 793.751L2032.3 786.026L2032.29 786.031L2032.28 786.037L2035.38 793.751ZM2099.24 744.26L2092.52 739.36L2099.24 744.26ZM2130.77 661.64L2139 662.788L2140.02 655.519L2132.93 653.611L2130.77 661.64ZM2058.13 642.083L2060.29 634.054L2051.68 631.735L2049.97 640.488L2058.13 642.083ZM2036.97 704.746L2029.58 700.943L2029.56 700.985L2029.54 701.027L2036.97 704.746ZM1997.06 744.659L2000.49 752.233L2000.52 752.221L2000.55 752.209L1997.06 744.659ZM1945.11 809.317V756.234H1928.48V809.317H1945.11ZM1936.79 747.918C1898.65 747.918 1869.51 734.265 1848.35 707.208L1835.25 717.451C1859.86 748.933 1894.05 764.549 1936.79 764.549V747.918ZM1848.4 707.274C1827.48 679.955 1816.19 634.088 1816.19 567.845H1799.56C1799.56 635.177 1810.88 685.633 1835.2 717.385L1848.4 707.274ZM1816.19 567.845C1816.19 497.659 1827.97 451.676 1849.27 427.227L1836.73 416.303C1811.2 445.603 1799.56 497.007 1799.56 567.845H1816.19ZM1849.24 427.262C1871.23 402.302 1899.76 389.768 1935.6 389.768V373.138C1895.33 373.138 1862.13 387.479 1836.76 416.268L1849.24 427.262ZM1935.6 389.768C1972.69 389.768 2000.66 401.9 2020.65 425.537L2033.35 414.8C2009.69 386.817 1976.73 373.138 1935.6 373.138V389.768ZM2020.67 425.569C2040.5 448.778 2051.41 489.863 2051.41 551.082H2068.04C2068.04 488.838 2057.13 442.647 2033.32 414.768L2020.67 425.569ZM2067.16 554.801L2071.55 546.02L2056.68 538.583L2052.29 547.363L2067.16 554.801ZM2064.11 533.986H1799.09V550.616H2064.11V533.986ZM1790.78 542.301V592.591H1807.41V542.301H1790.78ZM1799.09 600.906H2138.35V584.276H1799.09V600.906ZM2146.59 593.69C2147.71 585.292 2148.26 576.273 2148.26 566.648H2131.63C2131.63 575.649 2131.12 583.925 2130.11 591.492L2146.59 593.69ZM2148.26 566.648C2148.26 486.721 2132.29 425.069 2098.97 383.07L2085.94 393.406C2115.95 431.233 2131.63 488.521 2131.63 566.648H2148.26ZM2099 383.118C2065.43 340.154 2010.16 319.655 1935.6 319.655V336.285C2007.38 336.285 2056.68 355.964 2085.9 393.358L2099 383.118ZM1935.6 319.655C1862.77 319.655 1807.82 340.214 1772.71 382.961L1785.56 393.515C1816.45 355.905 1865.8 336.285 1935.6 336.285V319.655ZM1772.73 382.94C1737.99 424.964 1721.33 487.083 1721.33 567.845H1737.96C1737.96 488.958 1754.3 431.338 1785.55 393.536L1772.73 382.94ZM1721.33 567.845C1721.33 644.75 1737.64 705.959 1771.31 750.473L1784.57 740.442C1753.84 699.808 1737.96 642.609 1737.96 567.845H1721.33ZM1771.33 750.499C1805.9 795.837 1861.79 817.633 1936.79 817.633V801.002C1864.92 801.002 1814.91 780.225 1784.55 740.415L1771.33 750.499ZM1928.48 756.234V809.317H1945.11V756.234H1928.48ZM1936.79 817.633C1977.34 817.633 2011.35 812.373 2038.48 801.466L2032.28 786.037C2007.78 795.885 1976.07 801.002 1936.79 801.002V817.633ZM2038.45 801.477C2065.98 790.522 2088.53 773.047 2105.96 749.16L2092.52 739.36C2076.95 760.707 2056.93 776.226 2032.3 786.026L2038.45 801.477ZM2105.96 749.16C2123.39 725.261 2134.32 696.375 2139 662.788L2122.53 660.493C2118.17 691.831 2108.08 718.024 2092.52 739.36L2105.96 749.16ZM2132.93 653.611L2060.29 634.054L2055.97 650.112L2128.61 669.67L2132.93 653.611ZM2049.97 640.488C2045.58 662.965 2038.76 683.095 2029.58 700.943L2044.37 708.549C2054.35 689.145 2061.63 667.5 2066.29 643.678L2049.97 640.488ZM2029.54 701.027C2020.98 718.132 2009 729.993 1993.58 737.109L2000.55 752.209C2019.72 743.36 2034.34 728.612 2044.41 708.465L2029.54 701.027ZM1993.63 737.085C1977.9 744.211 1959.03 747.918 1936.79 747.918V764.549C1960.85 764.549 1982.16 760.54 2000.49 752.233L1993.63 737.085ZM2530.42 805.326L2522.12 805.879L2522.64 813.641H2530.42V805.326ZM2605.46 805.326V813.641H2613.77V805.326H2605.46ZM2605.46 178.696H2613.77V170.381H2605.46V178.696ZM2525.23 178.696V170.381H2516.92V178.696H2525.23ZM2525.23 727.496H2516.92V727.773L2516.93 728.049L2525.23 727.496ZM2506.87 769.804L2511.75 776.539L2511.76 776.528L2511.78 776.516L2506.87 769.804ZM2560.35 688.781H2568.67V685.848L2566.83 683.565L2560.35 688.781ZM2525.63 645.675L2532.11 640.459L2517.32 622.098V645.675H2525.63ZM2489.31 719.913L2494.87 726.094L2494.88 726.09L2489.31 719.913ZM2318.48 713.527L2311.98 718.705L2311.99 718.721L2312 718.738L2318.48 713.527ZM2318.48 423.361L2324.96 428.572L2324.98 428.556L2324.99 428.54L2318.48 423.361ZM2489.31 416.975L2483.71 423.122L2483.73 423.137L2483.74 423.153L2489.31 416.975ZM2525.63 490.814H2517.32V514.221L2532.08 496.06L2525.63 490.814ZM2560.35 448.107L2566.81 453.353L2568.67 451.061V448.107H2560.35ZM2506.87 367.084L2501.96 373.796L2501.98 373.808L2502 373.82L2506.87 367.084ZM2247.84 387.44L2241.08 382.59L2241.07 382.605L2241.06 382.62L2247.84 387.44ZM2247.84 748.65L2241.05 753.449L2241.06 753.464L2241.07 753.479L2247.84 748.65ZM2530.42 813.641H2605.46V797.011H2530.42V813.641ZM2613.77 805.326V178.696H2597.14V805.326H2613.77ZM2605.46 170.381H2525.23V187.012H2605.46V170.381ZM2516.92 178.696V727.496H2533.55V178.696H2516.92ZM2516.93 728.049L2522.12 805.879L2538.72 804.773L2533.53 726.943L2516.93 728.049ZM2375.56 816.834C2428.87 816.834 2474.43 803.551 2511.75 776.539L2502 763.068C2468 787.678 2426.02 800.204 2375.56 800.204V816.834ZM2511.78 776.516C2548.31 749.8 2568.67 720.626 2568.67 688.781H2552.04C2552.04 712.814 2536.74 737.655 2501.96 763.092L2511.78 776.516ZM2566.83 683.565L2532.11 640.459L2519.16 650.892L2553.88 693.997L2566.83 683.565ZM2517.32 645.675C2517.32 670.57 2506.55 693.187 2483.74 713.736L2494.88 726.09C2520.5 703.001 2533.95 676.126 2533.95 645.675H2517.32ZM2483.75 713.732C2461.41 733.839 2434.55 743.927 2402.7 743.927V760.557C2438.44 760.557 2469.32 749.092 2494.87 726.094L2483.75 713.732ZM2402.7 743.927C2369.63 743.927 2344.02 732.014 2324.96 708.316L2312 718.738C2334.46 746.66 2364.99 760.557 2402.7 760.557V743.927ZM2324.99 708.349C2315.71 696.684 2308.3 679.426 2303.27 655.907C2298.24 632.452 2295.67 603.275 2295.67 568.245H2279.04C2279.04 603.992 2281.65 634.419 2287 659.391C2292.34 684.3 2300.51 704.294 2311.98 718.705L2324.99 708.349ZM2295.67 568.245C2295.67 533.213 2298.24 504.072 2303.26 480.687C2308.3 457.235 2315.7 440.093 2324.96 428.572L2312 418.151C2300.51 432.44 2292.34 452.35 2287 477.193C2281.65 502.102 2279.04 532.498 2279.04 568.245H2295.67ZM2324.99 428.54C2344.06 404.583 2369.66 392.562 2402.7 392.562V375.932C2364.96 375.932 2334.42 389.988 2311.98 418.183L2324.99 428.54ZM2402.7 392.562C2434.52 392.562 2461.36 402.763 2483.71 423.122L2494.91 410.829C2469.36 387.55 2438.47 375.932 2402.7 375.932V392.562ZM2483.74 423.153C2506.57 443.721 2517.32 466.209 2517.32 490.814H2533.95C2533.95 460.605 2520.48 433.868 2494.88 410.798L2483.74 423.153ZM2532.08 496.06L2566.81 453.353L2553.9 442.862L2519.18 485.568L2532.08 496.06ZM2568.67 448.107C2568.67 416.003 2548.32 386.823 2511.75 360.349L2502 373.82C2536.73 398.966 2552.04 423.801 2552.04 448.107H2568.67ZM2511.78 360.373C2474.46 333.081 2428.89 319.655 2375.56 319.655V336.285C2426 336.285 2467.97 348.935 2501.96 373.796L2511.78 360.373ZM2375.56 319.655C2316.7 319.655 2271.38 340.395 2241.08 382.59L2254.59 392.29C2281.23 355.191 2321.07 336.285 2375.56 336.285V319.655ZM2241.06 382.62C2211.39 424.329 2197.22 486.524 2197.22 567.845H2213.85C2213.85 487.92 2227.88 429.844 2254.61 392.26L2241.06 382.62ZM2197.22 567.845C2197.22 649.174 2211.39 711.485 2241.05 753.449L2254.63 743.851C2227.87 705.99 2213.85 647.764 2213.85 567.845H2197.22ZM2241.07 753.479C2271.36 795.944 2316.68 816.834 2375.56 816.834V800.204C2321.09 800.204 2281.26 781.182 2254.61 743.821L2241.07 753.479ZM3282.65 743.861L3276.33 738.462L3276.32 738.473L3276.31 738.484L3282.65 743.861ZM3282.65 327.97L3276.29 333.327L3276.3 333.339L3276.31 333.35L3282.65 327.97ZM2933.41 327.97L2927.05 322.613L2933.41 327.97ZM2933.41 743.861L2927.07 749.237L2927.08 749.248L2927.09 749.259L2933.41 743.861ZM3000.47 709.935L2994.48 715.701L2994.49 715.716L2994.5 715.73L3000.47 709.935ZM3000.47 361.497L2994.5 355.701L2994.5 355.702L3000.47 361.497ZM3215.6 361.497L3209.61 367.263L3209.63 367.292L3209.66 367.32L3215.6 361.497ZM3215.6 709.935L3209.63 704.139L3209.62 704.154L3209.61 704.168L3215.6 709.935ZM3108.23 817.633C3188.98 817.633 3249.88 795.379 3288.99 749.237L3276.31 738.484C3241.44 779.617 3186.07 801.002 3108.23 801.002V817.633ZM3288.97 749.259C3328.12 703.402 3346.84 631.683 3346.84 535.915H3330.21C3330.21 630.132 3311.68 697.044 3276.33 738.462L3288.97 749.259ZM3346.84 535.915C3346.84 440.4 3328.12 368.702 3288.99 322.59L3276.31 333.35C3311.69 375.046 3330.21 441.978 3330.21 535.915H3346.84ZM3289.01 322.613C3249.91 276.194 3189 253.799 3108.23 253.799V270.429C3186.05 270.429 3241.42 291.938 3276.29 333.327L3289.01 322.613ZM3108.23 253.799C3027.21 253.799 2966.16 276.188 2927.05 322.613L2939.77 333.327C2974.64 291.944 3030.13 270.429 3108.23 270.429V253.799ZM2927.05 322.613C2888.21 368.723 2869.62 440.41 2869.62 535.915H2886.25C2886.25 441.968 2904.65 375.025 2939.77 333.327L2927.05 322.613ZM2869.62 535.915C2869.62 631.673 2888.2 703.381 2927.07 749.237L2939.76 738.484C2904.65 697.064 2886.25 630.142 2886.25 535.915H2869.62ZM2927.09 749.259C2966.46 795.378 3027.48 817.633 3108.23 817.633V801.002C3030.4 801.002 2974.87 779.619 2939.74 738.462L2927.09 749.259ZM3108.23 744.326C3066.03 744.326 3032.35 730.811 3006.43 704.139L2994.5 715.73C3023.93 746.001 3062.09 760.957 3108.23 760.957V744.326ZM3006.46 704.168C2994.18 691.418 2984.4 671.4 2977.73 643.165C2971.07 615.006 2967.67 579.313 2967.67 535.915H2951.04C2951.04 580.06 2954.49 617.141 2961.54 646.988C2968.58 676.759 2979.34 699.98 2994.48 715.701L3006.46 704.168ZM2967.67 535.915C2967.67 492.248 2971.08 456.388 2977.73 428.163C2984.4 399.855 2994.18 379.894 3006.43 367.291L2994.5 355.702C2979.34 371.304 2968.57 394.515 2961.54 424.348C2954.49 454.261 2951.04 491.509 2951.04 535.915H2967.67ZM3006.43 367.292C3032.35 340.621 3066.03 327.105 3108.23 327.105V310.475C3062.09 310.475 3023.93 325.43 2994.5 355.701L3006.43 367.292ZM3108.23 327.105C3150.43 327.105 3183.96 340.62 3209.61 367.263L3221.59 355.73C3192.42 325.431 3154.37 310.475 3108.23 310.475V327.105ZM3209.66 367.32C3222.03 379.926 3231.91 399.883 3238.64 428.18C3245.35 456.399 3248.79 492.252 3248.79 535.915H3265.42C3265.42 491.505 3261.94 454.251 3254.82 424.33C3247.72 394.487 3236.84 371.273 3221.53 355.673L3209.66 367.32ZM3248.79 535.915C3248.79 579.309 3245.36 614.995 3238.64 643.147C3231.91 671.372 3222.03 691.386 3209.63 704.139L3221.56 715.73C3236.84 700.012 3247.71 676.787 3254.82 647.006C3261.94 617.151 3265.42 580.064 3265.42 535.915H3248.79ZM3209.61 704.168C3183.96 730.811 3150.43 744.326 3108.23 744.326V760.957C3154.37 760.957 3192.42 746 3221.59 715.701L3209.61 704.168ZM3413 805.326H3404.69V813.641H3413V805.326ZM3493.63 805.326V813.641H3501.94V805.326H3493.63ZM3493.63 424.16H3501.94V423.371L3501.79 422.597L3493.63 424.16ZM3476.06 332.36L3484.23 330.798L3482.94 324.045H3476.06V332.36ZM3413 332.36V324.045H3404.69V332.36H3413ZM3709.55 805.326H3701.24V813.641H3709.55V805.326ZM3790.18 805.326V813.641H3798.49V805.326H3790.18ZM3755.85 383.05L3748.76 387.388L3748.78 387.418L3748.8 387.447L3755.85 383.05ZM3504.4 379.457L3510.24 385.382L3510.24 385.382L3504.4 379.457ZM3452.12 488.818H3443.8V493.358L3447.62 495.813L3452.12 488.818ZM3491.23 513.963L3486.73 520.958L3499.55 529.194V513.963H3491.23ZM3525.56 421.366L3519.48 415.685L3519.48 415.688L3525.56 421.366ZM3684.81 418.572L3678.03 423.383L3678.04 423.409L3678.06 423.435L3684.81 418.572ZM3413 813.641H3493.63V797.011H3413V813.641ZM3501.94 805.326V424.16H3485.31V805.326H3501.94ZM3501.79 422.597L3484.23 330.798L3467.9 333.923L3485.46 425.722L3501.79 422.597ZM3476.06 324.045H3413V340.676H3476.06V324.045ZM3404.69 332.36V805.326H3421.32V332.36H3404.69ZM3709.55 813.641H3790.18V797.011H3709.55V813.641ZM3798.49 805.326V534.718H3781.86V805.326H3798.49ZM3798.49 534.718C3798.49 469.48 3786.92 417.186 3762.91 378.652L3748.8 387.447C3770.55 422.353 3781.86 471.17 3781.86 534.718H3798.49ZM3762.95 378.712C3738.41 338.588 3696.54 319.256 3639.71 319.256V335.886C3692.5 335.886 3728.06 353.539 3748.76 387.388L3762.95 378.712ZM3639.71 319.256C3582.72 319.256 3535.43 337.224 3498.57 373.533L3510.24 385.382C3543.62 352.508 3586.53 335.886 3639.71 335.886V319.256ZM3498.57 373.533C3462.57 408.979 3443.8 447.45 3443.8 488.818H3460.43C3460.43 453.022 3476.52 418.586 3510.24 385.382L3498.57 373.533ZM3447.62 495.813L3486.73 520.958L3495.73 506.969L3456.61 481.824L3447.62 495.813ZM3499.55 513.963C3499.55 478.565 3510.35 449.807 3531.63 427.044L3519.48 415.688C3494.99 441.884 3482.92 474.858 3482.92 513.963H3499.55ZM3531.63 427.046C3553.22 403.961 3579.37 392.562 3610.57 392.562V375.932C3574.71 375.932 3544.19 389.279 3519.48 415.685L3531.63 427.046ZM3610.57 392.562C3641.71 392.562 3663.66 403.125 3678.03 423.383L3691.59 413.761C3673.5 388.253 3645.96 375.932 3610.57 375.932V392.562ZM3678.06 423.435C3692.95 444.08 3701.24 480.781 3701.24 535.516H3717.87C3717.87 480.092 3709.66 438.83 3691.55 413.709L3678.06 423.435ZM3701.24 535.516V805.326H3717.87V535.516H3701.24ZM3888.41 805.326H3880.09V813.641H3888.41V805.326ZM3969.43 805.326V813.641H3977.74V805.326H3969.43ZM3969.43 331.961H3977.74V323.646H3969.43V331.961ZM3888.41 331.961V323.646H3880.09V331.961H3888.41ZM3888.41 202.644V194.329H3880.09V202.644H3888.41ZM3888.41 274.487H3880.09V282.802H3888.41V274.487ZM3969.43 274.487V282.802H3977.74V274.487H3969.43ZM3969.43 202.644H3977.74V194.329H3969.43V202.644ZM3888.41 813.641H3969.43V797.011H3888.41V813.641ZM3977.74 805.326V331.961H3961.11V805.326H3977.74ZM3969.43 323.646H3888.41V340.276H3969.43V323.646ZM3880.09 331.961V805.326H3896.72V331.961H3880.09ZM3880.09 202.644V274.487H3896.72V202.644H3880.09ZM3888.41 282.802H3969.43V266.172H3888.41V282.802ZM3977.74 274.487V202.644H3961.11V274.487H3977.74ZM3969.43 194.329H3888.41V210.959H3969.43V194.329ZM4422.15 749.847L4428.44 755.287L4422.15 749.847ZM4422.15 385.843L4428.4 380.362L4422.15 385.843ZM4108.04 385.843L4101.81 380.338L4101.8 380.35L4101.79 380.362L4108.04 385.843ZM4108.04 749.847L4101.75 755.287L4101.76 755.299L4101.77 755.311L4108.04 749.847ZM4173.89 714.325L4167.77 719.95L4167.78 719.965L4167.8 719.981L4173.89 714.325ZM4173.89 422.164L4179.99 427.82L4180 427.804L4180.02 427.788L4173.89 422.164ZM4356.69 422.164L4350.57 427.788L4350.59 427.804L4350.6 427.82L4356.69 422.164ZM4356.69 714.325L4362.79 719.981L4362.81 719.965L4362.82 719.95L4356.69 714.325ZM4265.29 817.233C4337.32 817.233 4392.3 797.079 4428.44 755.287L4415.86 744.408C4383.89 781.377 4334.29 800.603 4265.29 800.603V817.233ZM4428.44 755.287C4464.38 713.733 4481.56 650.568 4481.56 567.446H4464.92C4464.92 648.766 4448.04 707.201 4415.86 744.408L4428.44 755.287ZM4481.56 567.446C4481.56 484.338 4464.38 421.402 4428.4 380.362L4415.9 391.325C4448.04 427.982 4464.92 486.114 4464.92 567.446H4481.56ZM4428.4 380.362C4392.25 339.123 4337.29 319.256 4265.29 319.256V335.886C4334.33 335.886 4383.94 354.867 4415.9 391.325L4428.4 380.362ZM4265.29 319.256C4193.3 319.256 4138.22 339.125 4101.81 380.338L4114.27 391.349C4146.51 354.865 4196.27 335.886 4265.29 335.886V319.256ZM4101.79 380.362C4065.81 421.402 4048.64 484.338 4048.64 567.446H4065.27C4065.27 486.114 4082.15 427.982 4114.29 391.325L4101.79 380.362ZM4048.64 567.446C4048.64 650.568 4065.81 713.733 4101.75 755.287L4114.33 744.408C4082.15 707.201 4065.27 648.766 4065.27 567.446H4048.64ZM4101.77 755.311C4138.18 797.078 4193.26 817.233 4265.29 817.233V800.603C4196.3 800.603 4146.55 781.379 4114.31 744.384L4101.77 755.311ZM4265.29 744.725C4230.49 744.725 4202.28 732.69 4179.99 708.669L4167.8 719.981C4193.41 747.581 4226.13 761.356 4265.29 761.356V744.725ZM4180.02 708.701C4158.35 685.11 4146.29 639.154 4146.29 567.845H4129.66C4129.66 639.69 4141.54 691.387 4167.77 719.95L4180.02 708.701ZM4146.29 567.845C4146.29 496.797 4158.36 451.135 4179.99 427.82L4167.8 416.508C4141.54 444.813 4129.66 496.272 4129.66 567.845H4146.29ZM4180.02 427.788C4202.31 403.512 4230.52 391.365 4265.29 391.365V374.734C4226.1 374.734 4193.37 388.664 4167.77 416.54L4180.02 427.788ZM4265.29 391.365C4300.07 391.365 4328.28 403.512 4350.57 427.788L4362.82 416.54C4337.22 388.664 4304.49 374.734 4265.29 374.734V391.365ZM4350.6 427.82C4372.23 451.135 4384.3 496.797 4384.3 567.845H4400.93C4400.93 496.272 4389.05 444.813 4362.79 416.508L4350.6 427.82ZM4384.3 567.845C4384.3 639.154 4372.24 685.11 4350.57 708.701L4362.82 719.95C4389.05 691.387 4400.93 639.69 4400.93 567.845H4384.3ZM4350.6 708.669C4328.31 732.69 4300.1 744.725 4265.29 744.725V761.356C4304.46 761.356 4337.18 747.581 4362.79 719.981L4350.6 708.669ZM4551.14 805.326H4542.82V813.641H4551.14V805.326ZM4631.76 805.326V813.641H4640.08V805.326H4631.76ZM4631.76 424.16H4640.08V423.371L4639.93 422.597L4631.76 424.16ZM4614.2 332.36L4622.37 330.798L4621.08 324.045H4614.2V332.36ZM4551.14 332.36V324.045H4542.82V332.36H4551.14ZM4847.69 805.326H4839.38V813.641H4847.69V805.326ZM4928.31 805.326V813.641H4936.63V805.326H4928.31ZM4893.99 383.05L4886.89 387.388L4886.91 387.418L4886.93 387.447L4893.99 383.05ZM4642.54 379.457L4648.37 385.382L4648.37 385.382L4642.54 379.457ZM4590.25 488.818H4581.94V493.358L4585.76 495.813L4590.25 488.818ZM4629.37 513.963L4624.87 520.958L4637.68 529.194V513.963H4629.37ZM4663.69 421.366L4657.62 415.685L4657.62 415.688L4663.69 421.366ZM4822.94 418.572L4816.16 423.383L4816.18 423.409L4816.2 423.435L4822.94 418.572ZM4551.14 813.641H4631.76V797.011H4551.14V813.641ZM4640.08 805.326V424.16H4623.45V805.326H4640.08ZM4639.93 422.597L4622.37 330.798L4606.03 333.923L4623.6 425.722L4639.93 422.597ZM4614.2 324.045H4551.14V340.676H4614.2V324.045ZM4542.82 332.36V805.326H4559.45V332.36H4542.82ZM4847.69 813.641H4928.31V797.011H4847.69V813.641ZM4936.63 805.326V534.718H4920V805.326H4936.63ZM4936.63 534.718C4936.63 469.48 4925.06 417.186 4901.05 378.652L4886.93 387.447C4908.68 422.353 4920 471.17 4920 534.718H4936.63ZM4901.08 378.712C4876.55 338.588 4834.67 319.256 4777.84 319.256V335.886C4830.64 335.886 4866.2 353.539 4886.89 387.388L4901.08 378.712ZM4777.84 319.256C4720.86 319.256 4673.57 337.224 4636.7 373.533L4648.37 385.382C4681.75 352.508 4724.67 335.886 4777.84 335.886V319.256ZM4636.7 373.533C4600.71 408.979 4581.94 447.45 4581.94 488.818H4598.57C4598.57 453.022 4614.65 418.586 4648.37 385.382L4636.7 373.533ZM4585.76 495.813L4624.87 520.958L4633.86 506.969L4594.75 481.824L4585.76 495.813ZM4637.68 513.963C4637.68 478.565 4648.49 449.807 4669.77 427.044L4657.62 415.688C4633.13 441.884 4621.05 474.858 4621.05 513.963H4637.68ZM4669.76 427.046C4691.36 403.961 4717.51 392.562 4748.71 392.562V375.932C4712.85 375.932 4682.32 389.279 4657.62 415.685L4669.76 427.046ZM4748.71 392.562C4779.84 392.562 4801.79 403.125 4816.16 423.383L4829.73 413.761C4811.63 388.253 4784.09 375.932 4748.71 375.932V392.562ZM4816.2 423.435C4831.08 444.08 4839.38 480.781 4839.38 535.516H4856.01C4856.01 480.092 4847.8 438.83 4829.69 413.709L4816.2 423.435ZM4839.38 535.516V805.326H4856.01V535.516H4839.38Z" fill="white"/>
</svg>
