<svg width="15" height="15" viewBox="0 0 15 15" fill="none" xmlns="http://www.w3.org/2000/svg">
<path d="M0.769361 7.49211C0.769361 11.3109 3.87469 14.4185 7.68718 14.4185C11.3306 14.4185 14.359 11.5737 14.605 7.94047C14.6203 7.75498 14.5128 7.56939 14.3283 7.49217C14.1592 7.41484 13.944 7.44579 13.8057 7.58491C12.8987 8.49707 11.7919 8.99187 10.685 8.99187C8.22526 8.99187 6.24221 6.98195 6.24221 4.52372C6.24221 3.39512 6.7342 2.28195 7.64117 1.36974C7.7795 1.23062 7.81028 1.0296 7.73339 0.859536C7.65651 0.689463 7.47207 0.581299 7.28763 0.581299C3.6286 0.782213 0.769361 3.82792 0.769361 7.49211Z" fill="#FFFDD5"/>
</svg>
