<svg width="20" height="20" viewBox="0 0 20 20" fill="none" xmlns="http://www.w3.org/2000/svg">
<path fill-rule="evenodd" clip-rule="evenodd" d="M14.3342 0.75H5.66524C2.64424 0.75 0.750244 2.889 0.750244 5.916V14.084C0.750244 17.111 2.63424 19.25 5.66524 19.25H14.3332C17.3642 19.25 19.2502 17.111 19.2502 14.084V5.916C19.2502 2.889 17.3642 0.75 14.3342 0.75Z" stroke="#3063E9" stroke-width="1.5" stroke-linecap="round" stroke-linejoin="round"/>
<path d="M4.94318 12.1364L4.99432 10.7301L3.8054 11.4844L3.49858 10.9474L4.75142 10.2955L3.49858 9.64347L3.8054 9.10653L4.99432 9.8608L4.94318 8.45455H5.55682L5.50568 9.8608L6.6946 9.10653L7.00142 9.64347L5.74858 10.2955L7.00142 10.9474L6.6946 11.4844L5.50568 10.7301L5.55682 12.1364H4.94318ZM9.44318 12.1364L9.49432 10.7301L8.3054 11.4844L7.99858 10.9474L9.25142 10.2955L7.99858 9.64347L8.3054 9.10653L9.49432 9.8608L9.44318 8.45455H10.0568L10.0057 9.8608L11.1946 9.10653L11.5014 9.64347L10.2486 10.2955L11.5014 10.9474L11.1946 11.4844L10.0057 10.7301L10.0568 12.1364H9.44318ZM13.9432 12.1364L13.9943 10.7301L12.8054 11.4844L12.4986 10.9474L13.7514 10.2955L12.4986 9.64347L12.8054 9.10653L13.9943 9.8608L13.9432 8.45455H14.5568L14.5057 9.8608L15.6946 9.10653L16.0014 9.64347L14.7486 10.2955L16.0014 10.9474L15.6946 11.4844L14.5057 10.7301L14.5568 12.1364H13.9432Z" fill="#3063E9"/>
</svg>
