<svg width="24" height="25" viewBox="0 0 24 25" fill="none" xmlns="http://www.w3.org/2000/svg">
<g id="Iconly/Bold/Notification">
<g id="Notification">
<path id="Notification_2" fill-rule="evenodd" clip-rule="evenodd" d="M18.7071 9.1164C18.7071 10.3723 19.039 11.1126 19.7695 11.9657C20.3231 12.5941 20.5 13.4009 20.5 14.2761C20.5 15.1503 20.2128 15.9802 19.6373 16.654C18.884 17.4617 17.8215 17.9774 16.7372 18.067C15.1659 18.201 13.5937 18.3138 12.0005 18.3138C10.4063 18.3138 8.83505 18.2463 7.26375 18.067C6.17846 17.9774 5.11602 17.4617 4.36367 16.654C3.78822 15.9802 3.5 15.1503 3.5 14.2761C3.5 13.4009 3.6779 12.5941 4.23049 11.9657C4.98384 11.1126 5.29392 10.3723 5.29392 9.1164V8.69037C5.29392 7.00841 5.71333 5.90859 6.577 4.83193C7.86106 3.26176 9.91935 2.32007 11.9558 2.32007H12.0452C14.1254 2.32007 16.2502 3.30709 17.5125 4.94473C18.3314 5.99923 18.7071 7.05272 18.7071 8.69037V9.1164ZM9.07367 20.3809C9.07367 19.8773 9.53582 19.6467 9.96318 19.548C10.4631 19.4422 13.5093 19.4422 14.0092 19.548C14.4366 19.6467 14.8987 19.8773 14.8987 20.3809C14.8738 20.8603 14.5926 21.2853 14.204 21.5553C13.7001 21.948 13.1088 22.1968 12.4906 22.2865C12.1487 22.3308 11.8128 22.3318 11.4828 22.2865C10.8636 22.1968 10.2723 21.948 9.76938 21.5542C9.37978 21.2853 9.09852 20.8603 9.07367 20.3809Z" fill="#3063E9"/>
</g>
</g>
</svg>
