<svg width="41" height="20" viewBox="0 0 41 20" fill="none" xmlns="http://www.w3.org/2000/svg">
<path d="M10.1018 12.8633L10.1018 2.8291" stroke="#838383" stroke-width="1.5" stroke-linecap="round" stroke-linejoin="round"/>
<path d="M12.5318 10.4233L10.1018 12.8633L7.6718 10.4233" stroke="#838383" stroke-width="1.5" stroke-linecap="round" stroke-linejoin="round"/>
<path d="M13.9625 6.77295H14.74C16.4358 6.77295 17.81 8.14712 17.81 9.84378V13.9138C17.81 15.6055 16.4392 16.9763 14.7475 16.9763H5.46416C3.76833 16.9763 2.39333 15.6013 2.39333 13.9055L2.39333 9.83462C2.39333 8.14378 3.765 6.77295 5.45583 6.77295L6.24083 6.77295" stroke="#838383" stroke-width="1.5" stroke-linecap="round" stroke-linejoin="round"/>
<path d="M25.14 5.7H32.798V6.932H29.634V15.5H28.29V6.932H25.14V5.7ZM36.2856 8.052C37.023 8.052 37.6763 8.21067 38.2456 8.528C38.8243 8.84533 39.2723 9.28867 39.5896 9.858C39.9163 10.418 40.0796 11.062 40.0796 11.79C40.0796 12.518 39.9163 13.1667 39.5896 13.736C39.2723 14.3053 38.8243 14.7487 38.2456 15.066C37.6763 15.3833 37.023 15.542 36.2856 15.542C35.539 15.542 34.8763 15.3833 34.2976 15.066C33.7283 14.7487 33.2803 14.31 32.9536 13.75C32.6363 13.1807 32.4776 12.5273 32.4776 11.79C32.4776 11.062 32.6363 10.418 32.9536 9.858C33.2803 9.28867 33.7283 8.84533 34.2976 8.528C34.8763 8.21067 35.539 8.052 36.2856 8.052ZM36.2856 9.186C35.8003 9.186 35.3663 9.298 34.9836 9.522C34.6103 9.746 34.3163 10.0587 34.1016 10.46C33.8963 10.852 33.7936 11.3 33.7936 11.804C33.7936 12.3173 33.8963 12.7747 34.1016 13.176C34.3163 13.5773 34.6103 13.89 34.9836 14.114C35.3663 14.3287 35.8003 14.436 36.2856 14.436C36.7616 14.436 37.1863 14.3287 37.5596 14.114C37.9423 13.89 38.2363 13.5773 38.4416 13.176C38.6563 12.7747 38.7636 12.3173 38.7636 11.804C38.7636 11.3 38.6563 10.852 38.4416 10.46C38.2363 10.0587 37.9423 9.746 37.5596 9.522C37.1863 9.298 36.7616 9.186 36.2856 9.186Z" fill="#838383"/>
</svg>
