<svg width="220" height="50" viewBox="0 0 5190 1072" fill="none" xmlns="http://www.w3.org/2000/svg">
<path d="M226.81 508.751V382.808C226.81 213.81 363.809 76.8105 532.807 76.8105V76.8105C701.805 76.8105 838.805 213.81 838.805 382.808V400.766" stroke="white" stroke-width="152.999"/>
<path d="M226.81 508.751V382.808C226.81 213.81 363.809 76.8105 532.807 76.8105V76.8105C701.805 76.8105 838.805 213.81 838.805 382.808V400.766" stroke="url(#paint0_linear_662_10769)" stroke-width="152.999"/>
<path d="M226.807 382.805L226.807 433.804L226.807 535.803L430.805 535.803" stroke="white" stroke-width="152.999"/>
<path d="M226.807 382.805L226.807 433.804L226.807 535.803L430.805 535.803" stroke="url(#paint1_linear_662_10769)" stroke-width="152.999"/>
<path d="M838.807 562.866V688.809C838.807 857.807 701.807 994.807 532.809 994.807V994.807C363.811 994.807 226.812 857.807 226.812 688.809V670.851" stroke="white" stroke-width="152.999"/>
<path d="M838.807 562.866V688.809C838.807 857.807 701.807 994.807 532.809 994.807V994.807C363.811 994.807 226.812 857.807 226.812 688.809V670.851" stroke="url(#paint2_linear_662_10769)" stroke-width="152.999"/>
<path d="M838.809 688.804L838.809 637.804L838.809 535.805L634.811 535.805" stroke="white" stroke-width="152.999"/>
<path d="M838.809 688.804L838.809 637.804L838.809 535.805L634.811 535.805" stroke="url(#paint3_linear_662_10769)" stroke-width="152.999"/>
<path d="M1264.81 804.941H1346.23V572.649H1524.64C1577.86 572.649 1613.91 558.148 1632.8 529.144C1651.69 499.875 1661.14 463.821 1661.14 420.981C1661.14 377.875 1651.96 341.289 1633.6 311.221C1615.24 281.153 1579.98 266.12 1527.83 266.12H1264.81V804.941ZM1576.92 804.941H1665.53L1551.38 545.908L1469.96 551.096L1576.92 804.941ZM1346.23 521.162V322.796H1501.89C1531.42 322.796 1551.65 331.843 1562.56 349.936C1573.73 368.03 1579.32 392.111 1579.32 422.178C1579.32 452.246 1573.73 476.327 1562.56 494.42C1551.65 512.248 1531.42 521.162 1501.89 521.162H1346.23ZM1936.79 808.933V755.849C1896.35 755.849 1864.68 741.214 1841.8 711.945C1819.18 682.409 1807.88 634.248 1807.88 567.461C1807.88 496.948 1819.58 448.255 1843 421.38C1866.68 394.506 1897.55 381.068 1935.6 381.068C1974.71 381.068 2005.18 393.973 2027 419.784C2048.81 445.328 2059.72 488.966 2059.72 550.697L2064.11 541.917H1799.09V592.207H2138.35C2139.42 584.224 2139.95 575.576 2139.95 566.263C2139.95 487.236 2124.12 427.766 2092.45 387.853C2061.05 347.675 2008.77 327.585 1935.6 327.585C1864.29 327.585 1812.13 347.675 1779.14 387.853C1746.14 427.766 1729.65 487.635 1729.65 567.461C1729.65 643.295 1745.74 702.499 1777.94 745.072C1810.4 787.646 1863.35 808.933 1936.79 808.933ZM1936.79 755.849V808.933C1976.71 808.933 2009.57 803.744 2035.38 793.367C2061.45 782.989 2082.74 766.492 2099.24 743.875C2115.74 721.258 2126.25 693.718 2130.77 661.256L2058.13 641.698C2053.6 664.848 2046.55 685.735 2036.97 704.361C2027.66 722.987 2014.36 736.292 1997.06 744.274C1980.03 751.991 1959.94 755.849 1936.79 755.849ZM2530.42 804.941H2605.46V178.312H2525.23V727.112L2530.42 804.941ZM2375.56 808.134C2427.45 808.134 2471.22 795.229 2506.87 769.419C2542.53 743.343 2560.35 716.335 2560.35 688.396L2525.63 645.291C2525.63 672.963 2513.52 697.709 2489.31 719.528C2465.36 741.081 2436.49 751.857 2402.7 751.857C2367.31 751.857 2339.24 738.952 2318.48 713.142C2297.73 687.066 2287.35 638.638 2287.35 567.86C2287.35 497.081 2297.73 448.787 2318.48 422.977C2339.24 396.9 2367.31 383.862 2402.7 383.862C2436.49 383.862 2465.36 394.772 2489.31 416.591C2513.52 438.41 2525.63 463.022 2525.63 490.429L2560.35 447.723C2560.35 419.518 2542.53 392.51 2506.87 366.7C2471.22 340.623 2427.45 327.585 2375.56 327.585C2318.88 327.585 2276.31 347.409 2247.84 387.055C2219.63 426.702 2205.53 486.837 2205.53 567.461C2205.53 648.084 2219.63 708.353 2247.84 748.265C2276.31 788.178 2318.88 808.134 2375.56 808.134ZM3108.23 808.933C3187.52 808.933 3245.66 787.114 3282.65 743.476C3319.9 699.838 3338.53 630.523 3338.53 535.531C3338.53 440.804 3319.9 371.489 3282.65 327.585C3245.66 283.681 3187.52 261.729 3108.23 261.729C3028.67 261.729 2970.4 283.681 2933.41 327.585C2896.43 371.489 2877.94 440.804 2877.94 535.531C2877.94 630.523 2896.43 699.838 2933.41 743.476C2970.67 787.114 3028.94 808.933 3108.23 808.933ZM3108.23 752.257C3064.06 752.257 3028.14 738.021 3000.47 709.55C2973.06 681.079 2959.36 623.072 2959.36 535.531C2959.36 447.456 2973.06 389.317 3000.47 361.112C3028.14 332.641 3064.06 318.405 3108.23 318.405C3152.4 318.405 3188.19 332.641 3215.6 361.112C3243.27 389.317 3257.11 447.456 3257.11 535.531C3257.11 623.072 3243.27 681.079 3215.6 709.55C3188.19 738.021 3152.4 752.257 3108.23 752.257ZM3413 804.941H3493.63V423.775L3476.06 331.976H3413V804.941ZM3709.55 804.941H3790.18V534.333C3790.18 469.941 3778.74 419.385 3755.85 382.665C3733.24 345.679 3694.52 327.186 3639.71 327.186C3584.63 327.186 3539.53 344.482 3504.4 379.073C3469.55 413.398 3452.12 449.851 3452.12 488.434L3491.23 513.579C3491.23 476.327 3502.67 445.461 3525.56 420.981C3548.71 396.235 3577.04 383.862 3610.57 383.862C3643.83 383.862 3668.58 395.304 3684.81 418.187C3701.31 441.07 3709.55 480.052 3709.55 535.131V804.941ZM3888.41 804.941H3969.43V331.577H3888.41V804.941ZM3888.41 202.259V274.102H3969.43V202.259H3888.41ZM4265.29 808.534C4335.81 808.534 4388.09 788.843 4422.15 749.463C4456.21 710.082 4473.24 649.282 4473.24 567.062C4473.24 484.841 4456.21 424.307 4422.15 385.459C4388.09 346.61 4335.81 327.186 4265.29 327.186C4194.78 327.186 4142.36 346.61 4108.04 385.459C4073.98 424.307 4056.95 484.841 4056.95 567.062C4056.95 649.282 4073.98 710.082 4108.04 749.463C4142.36 788.843 4194.78 808.534 4265.29 808.534ZM4265.29 752.656C4228.31 752.656 4197.84 739.751 4173.89 713.94C4149.95 687.864 4137.97 639.038 4137.97 567.461C4137.97 496.15 4149.95 447.59 4173.89 421.779C4197.84 395.703 4228.31 382.665 4265.29 382.665C4302.28 382.665 4332.75 395.703 4356.7 421.779C4380.64 447.59 4392.62 496.15 4392.62 567.461C4392.62 639.038 4380.64 687.864 4356.7 713.94C4332.75 739.751 4302.28 752.656 4265.29 752.656ZM4551.14 804.941H4631.76V423.775L4614.2 331.976H4551.14V804.941ZM4847.69 804.941H4928.31V534.333C4928.31 469.941 4916.87 419.385 4893.99 382.665C4871.37 345.679 4832.66 327.186 4777.84 327.186C4722.76 327.186 4677.66 344.482 4642.54 379.073C4607.68 413.398 4590.25 449.851 4590.25 488.434L4629.37 513.579C4629.37 476.327 4640.81 445.461 4663.69 420.981C4686.84 396.235 4715.18 383.862 4748.71 383.862C4781.97 383.862 4806.71 395.304 4822.94 418.187C4839.44 441.07 4847.69 480.052 4847.69 535.131V804.941Z" fill="#3063E9"/>
<path d="M1264.81 804.941H1256.49V813.257H1264.81V804.941ZM1346.23 804.941V813.257H1354.54V804.941H1346.23ZM1346.23 572.649V564.334H1337.91V572.649H1346.23ZM1632.8 529.145L1639.77 533.683L1639.78 533.668L1639.79 533.654L1632.8 529.145ZM1633.6 311.221L1640.7 306.888V306.888L1633.6 311.221ZM1264.81 266.12V257.805H1256.49V266.12H1264.81ZM1576.92 804.941L1569.26 808.17L1571.4 813.257H1576.92V804.941ZM1665.53 804.941V813.257H1678.28L1673.14 801.588L1665.53 804.941ZM1551.38 545.908L1558.99 542.555L1556.65 537.24L1550.85 537.61L1551.38 545.908ZM1469.96 551.096L1469.43 542.798L1457.75 543.542L1462.3 554.325L1469.96 551.096ZM1346.23 521.162H1337.91V529.477H1346.23V521.162ZM1346.23 322.796V314.481H1337.91V322.796H1346.23ZM1562.56 349.936L1555.43 354.23L1555.46 354.268L1555.48 354.306L1562.56 349.936ZM1562.56 494.42L1555.48 490.051L1555.47 490.066L1555.46 490.08L1562.56 494.42ZM1264.81 813.257H1346.23V796.626H1264.81V813.257ZM1354.54 804.941V572.649H1337.91V804.941H1354.54ZM1346.23 580.965H1524.64V564.334H1346.23V580.965ZM1524.64 580.965C1579.08 580.965 1618.64 566.12 1639.77 533.683L1625.83 524.606C1609.18 550.175 1576.63 564.334 1524.64 564.334V580.965ZM1639.79 533.654C1659.73 502.761 1669.45 465.051 1669.45 420.981H1652.82C1652.82 462.59 1643.66 496.989 1625.82 524.635L1639.79 533.654ZM1669.45 420.981C1669.45 376.688 1660.01 338.524 1640.7 306.888L1626.5 315.554C1643.91 344.053 1652.82 379.062 1652.82 420.981H1669.45ZM1640.7 306.888C1620.18 273.288 1581.38 257.805 1527.83 257.805V274.435C1578.59 274.435 1610.3 289.019 1626.5 315.554L1640.7 306.888ZM1527.83 257.805H1264.81V274.435H1527.83V257.805ZM1256.49 266.12V804.941H1273.12V266.12H1256.49ZM1576.92 813.257H1665.53V796.626H1576.92V813.257ZM1673.14 801.588L1558.99 542.555L1543.77 549.261L1657.92 808.295L1673.14 801.588ZM1550.85 537.61L1469.43 542.798L1470.49 559.395L1551.91 554.206L1550.85 537.61ZM1462.3 554.325L1569.26 808.17L1584.59 801.713L1477.62 547.868L1462.3 554.325ZM1354.54 521.162V322.796H1337.91V521.162H1354.54ZM1346.23 331.111H1501.89V314.481H1346.23V331.111ZM1501.89 331.111C1529.8 331.111 1546.59 339.565 1555.43 354.23L1569.68 345.643C1556.7 324.12 1533.05 314.481 1501.89 314.481V331.111ZM1555.48 354.306C1565.58 370.651 1571 393.046 1571 422.178H1587.63C1587.63 391.176 1581.89 365.41 1569.63 345.567L1555.48 354.306ZM1571 422.178C1571 451.311 1565.58 473.706 1555.48 490.051L1569.63 498.79C1581.89 478.947 1587.63 453.181 1587.63 422.178H1571ZM1555.46 490.08C1546.64 504.492 1529.85 512.847 1501.89 512.847V529.477C1533 529.477 1556.65 520.005 1569.65 498.761L1555.46 490.08ZM1501.89 512.847H1346.23V529.477H1501.89V512.847ZM1936.79 808.933V817.248H1945.11V808.933H1936.79ZM1936.79 755.849H1945.11V747.534H1936.79V755.849ZM1841.8 711.945L1835.2 717L1835.22 717.033L1835.25 717.066L1841.8 711.945ZM1843 421.38L1836.76 415.883L1836.74 415.9L1836.73 415.918L1843 421.38ZM2027 419.784L2020.65 425.152L2020.66 425.168L2020.67 425.184L2027 419.784ZM2059.72 550.697H2051.41L2067.16 554.416L2059.72 550.697ZM2064.11 541.917L2071.55 545.635L2077.57 533.601H2064.11V541.917ZM1799.09 541.917V533.601H1790.78V541.917H1799.09ZM1799.09 592.207H1790.78V600.522H1799.09V592.207ZM2138.35 592.207V600.522H2145.63L2146.59 593.306L2138.35 592.207ZM2092.45 387.853L2085.9 392.973L2085.92 392.997L2085.94 393.021L2092.45 387.853ZM1779.14 387.853L1785.55 393.151L1785.56 393.141L1785.56 393.13L1779.14 387.853ZM1777.94 745.072L1771.31 750.088L1771.32 750.101L1771.33 750.114L1777.94 745.072ZM1936.79 755.849V747.534H1928.48V755.849H1936.79ZM1936.79 808.933H1928.48V817.248H1936.79V808.933ZM2035.38 793.367L2032.3 785.641L2032.29 785.646L2032.28 785.652L2035.38 793.367ZM2099.24 743.875L2092.52 738.975L2099.24 743.875ZM2130.77 661.256L2139 662.403L2140.02 655.134L2132.93 653.226L2130.77 661.256ZM2058.13 641.698L2060.29 633.669L2051.68 631.35L2049.97 640.104L2058.13 641.698ZM2036.97 704.361L2029.58 700.558L2029.56 700.6L2029.54 700.643L2036.97 704.361ZM1997.06 744.274L2000.49 751.848L2000.52 751.836L2000.55 751.824L1997.06 744.274ZM1945.11 808.933V755.849H1928.48V808.933H1945.11ZM1936.79 747.534C1898.65 747.534 1869.51 733.88 1848.35 706.823L1835.25 717.066C1859.86 748.548 1894.05 764.164 1936.79 764.164V747.534ZM1848.4 706.889C1827.48 679.57 1816.19 633.703 1816.19 567.461H1799.56C1799.56 634.793 1810.88 685.248 1835.2 717L1848.4 706.889ZM1816.19 567.461C1816.19 497.274 1827.97 451.292 1849.27 426.843L1836.73 415.918C1811.2 445.218 1799.56 496.622 1799.56 567.461H1816.19ZM1849.24 426.878C1871.23 401.917 1899.76 389.383 1935.6 389.383V372.753C1895.33 372.753 1862.13 387.094 1836.76 415.883L1849.24 426.878ZM1935.6 389.383C1972.69 389.383 2000.66 401.515 2020.65 425.152L2033.35 414.415C2009.69 386.432 1976.73 372.753 1935.6 372.753V389.383ZM2020.67 425.184C2040.5 448.393 2051.41 489.478 2051.41 550.697H2068.04C2068.04 488.453 2057.13 442.262 2033.32 414.383L2020.67 425.184ZM2067.16 554.416L2071.55 545.635L2056.68 538.198L2052.29 546.979L2067.16 554.416ZM2064.11 533.601H1799.09V550.232H2064.11V533.601ZM1790.78 541.917V592.207H1807.41V541.917H1790.78ZM1799.09 600.522H2138.35V583.891H1799.09V600.522ZM2146.59 593.306C2147.71 584.908 2148.26 575.888 2148.26 566.263H2131.63C2131.63 575.264 2131.12 583.541 2130.11 591.108L2146.59 593.306ZM2148.26 566.263C2148.26 486.336 2132.29 424.684 2098.97 382.686L2085.94 393.021C2115.95 430.848 2131.63 488.136 2131.63 566.263H2148.26ZM2099 382.733C2065.43 339.77 2010.16 319.27 1935.6 319.27V335.9C2007.38 335.9 2056.68 355.58 2085.9 392.973L2099 382.733ZM1935.6 319.27C1862.77 319.27 1807.82 339.829 1772.71 382.576L1785.56 393.13C1816.45 355.52 1865.8 335.9 1935.6 335.9V319.27ZM1772.73 382.555C1737.99 424.579 1721.33 486.698 1721.33 567.461H1737.96C1737.96 488.573 1754.3 430.953 1785.55 393.151L1772.73 382.555ZM1721.33 567.461C1721.33 644.365 1737.64 705.574 1771.31 750.088L1784.57 740.057C1753.84 699.423 1737.96 642.224 1737.96 567.461H1721.33ZM1771.33 750.114C1805.9 795.452 1861.79 817.248 1936.79 817.248V800.618C1864.92 800.618 1814.91 779.84 1784.55 740.031L1771.33 750.114ZM1928.48 755.849V808.933H1945.11V755.849H1928.48ZM1936.79 817.248C1977.34 817.248 2011.35 811.988 2038.48 801.082L2032.28 785.652C2007.78 795.5 1976.07 800.618 1936.79 800.618V817.248ZM2038.45 801.093C2065.98 790.137 2088.53 772.662 2105.96 748.775L2092.52 738.975C2076.95 760.322 2056.93 775.842 2032.3 785.641L2038.45 801.093ZM2105.96 748.775C2123.39 724.876 2134.32 695.99 2139 662.403L2122.53 660.108C2118.17 691.446 2108.08 717.639 2092.52 738.975L2105.96 748.775ZM2132.93 653.226L2060.29 633.669L2055.97 649.728L2128.61 669.285L2132.93 653.226ZM2049.97 640.104C2045.58 662.58 2038.76 682.71 2029.58 700.558L2044.37 708.164C2054.35 688.761 2061.63 667.116 2066.29 643.293L2049.97 640.104ZM2029.54 700.643C2020.98 717.748 2009 729.608 1993.58 736.724L2000.55 751.824C2019.72 742.975 2034.34 728.227 2044.41 708.08L2029.54 700.643ZM1993.63 736.7C1977.9 743.826 1959.03 747.534 1936.79 747.534V764.164C1960.85 764.164 1982.16 760.155 2000.49 751.848L1993.63 736.7ZM2530.42 804.941L2522.12 805.495L2522.64 813.257H2530.42V804.941ZM2605.46 804.941V813.257H2613.77V804.941H2605.46ZM2605.46 178.312H2613.77V169.997H2605.46V178.312ZM2525.23 178.312V169.997H2516.92V178.312H2525.23ZM2525.23 727.112H2516.92V727.388L2516.93 727.665L2525.23 727.112ZM2506.87 769.419L2511.75 776.155L2511.76 776.143L2511.78 776.131L2506.87 769.419ZM2560.35 688.396H2568.67V685.464L2566.83 683.18L2560.35 688.396ZM2525.63 645.291L2532.11 640.074L2517.32 621.713V645.291H2525.63ZM2489.31 719.528L2494.87 725.709L2494.88 725.705L2489.31 719.528ZM2318.48 713.142L2311.98 718.32L2311.99 718.337L2312 718.353L2318.48 713.142ZM2318.48 422.977L2324.96 428.187L2324.98 428.171L2324.99 428.155L2318.48 422.977ZM2489.31 416.591L2483.71 422.737L2483.73 422.753L2483.74 422.768L2489.31 416.591ZM2525.63 490.429H2517.32V513.836L2532.08 495.675L2525.63 490.429ZM2560.35 447.723L2566.81 452.968L2568.67 450.676V447.723H2560.35ZM2506.87 366.7L2501.96 373.411L2501.98 373.423L2502 373.435L2506.87 366.7ZM2247.84 387.055L2241.08 382.205L2241.07 382.22L2241.06 382.235L2247.84 387.055ZM2247.84 748.265L2241.05 753.064L2241.06 753.079L2241.07 753.094L2247.84 748.265ZM2530.42 813.257H2605.46V796.626H2530.42V813.257ZM2613.77 804.941V178.312H2597.14V804.941H2613.77ZM2605.46 169.997H2525.23V186.627H2605.46V169.997ZM2516.92 178.312V727.112H2533.55V178.312H2516.92ZM2516.93 727.665L2522.12 805.495L2538.72 804.388L2533.53 726.558L2516.93 727.665ZM2375.56 816.45C2428.87 816.45 2474.43 803.166 2511.75 776.155L2502 762.683C2468 787.293 2426.02 799.819 2375.56 799.819V816.45ZM2511.78 776.131C2548.31 749.415 2568.67 720.241 2568.67 688.396H2552.04C2552.04 712.43 2536.74 737.27 2501.96 762.707L2511.78 776.131ZM2566.83 683.18L2532.11 640.074L2519.16 650.507L2553.88 693.613L2566.83 683.18ZM2517.32 645.291C2517.32 670.185 2506.55 692.802 2483.74 713.351L2494.88 725.705C2520.5 702.617 2533.95 675.741 2533.95 645.291H2517.32ZM2483.75 713.348C2461.41 733.454 2434.55 743.542 2402.7 743.542V760.173C2438.44 760.173 2469.32 748.708 2494.87 725.709L2483.75 713.348ZM2402.7 743.542C2369.63 743.542 2344.02 731.629 2324.96 707.931L2312 718.353C2334.46 746.275 2364.99 760.173 2402.7 760.173V743.542ZM2324.99 707.964C2315.71 696.299 2308.3 679.041 2303.27 655.522C2298.24 632.067 2295.67 602.891 2295.67 567.86H2279.04C2279.04 603.608 2281.65 634.034 2287 659.007C2292.34 683.915 2300.51 703.909 2311.98 718.32L2324.99 707.964ZM2295.67 567.86C2295.67 532.828 2298.24 503.687 2303.26 480.302C2308.3 456.85 2315.7 439.708 2324.96 428.187L2312 417.766C2300.51 432.055 2292.34 451.965 2287 476.808C2281.65 501.717 2279.04 532.113 2279.04 567.86H2295.67ZM2324.99 428.155C2344.06 404.198 2369.66 392.177 2402.7 392.177V375.547C2364.96 375.547 2334.42 389.603 2311.98 417.798L2324.99 428.155ZM2402.7 392.177C2434.52 392.177 2461.36 402.378 2483.71 422.737L2494.91 410.444C2469.36 387.165 2438.47 375.547 2402.7 375.547V392.177ZM2483.74 422.768C2506.57 443.336 2517.32 465.824 2517.32 490.429H2533.95C2533.95 460.221 2520.48 433.483 2494.88 410.413L2483.74 422.768ZM2532.08 495.675L2566.81 452.968L2553.9 442.477L2519.18 485.183L2532.08 495.675ZM2568.67 447.723C2568.67 415.619 2548.32 386.439 2511.75 359.964L2502 373.435C2536.73 398.581 2552.04 423.417 2552.04 447.723H2568.67ZM2511.78 359.988C2474.46 332.697 2428.89 319.27 2375.56 319.27V335.9C2426 335.9 2467.97 348.55 2501.96 373.411L2511.78 359.988ZM2375.56 319.27C2316.7 319.27 2271.38 340.011 2241.08 382.205L2254.59 391.905C2281.23 354.806 2321.07 335.9 2375.56 335.9V319.27ZM2241.06 382.235C2211.39 423.944 2197.22 486.139 2197.22 567.461H2213.85C2213.85 487.535 2227.88 429.46 2254.61 391.875L2241.06 382.235ZM2197.22 567.461C2197.22 648.789 2211.39 711.1 2241.05 753.064L2254.63 743.467C2227.87 705.605 2213.85 647.38 2213.85 567.461H2197.22ZM2241.07 753.094C2271.36 795.559 2316.68 816.45 2375.56 816.45V799.819C2321.09 799.819 2281.26 780.797 2254.61 743.437L2241.07 753.094ZM3282.65 743.476L3276.33 738.077L3276.32 738.088L3276.31 738.099L3282.65 743.476ZM3282.65 327.585L3276.29 332.943L3276.3 332.954L3276.31 332.965L3282.65 327.585ZM2933.41 327.585L2927.05 322.228L2933.41 327.585ZM2933.41 743.476L2927.07 748.852L2927.08 748.863L2927.09 748.875L2933.41 743.476ZM3000.47 709.55L2994.48 715.317L2994.49 715.331L2994.5 715.346L3000.47 709.55ZM3000.47 361.112L2994.5 355.316L2994.5 355.317L3000.47 361.112ZM3215.6 361.112L3209.61 366.879L3209.63 366.907L3209.66 366.935L3215.6 361.112ZM3215.6 709.55L3209.63 703.755L3209.62 703.769L3209.61 703.783L3215.6 709.55ZM3108.23 817.248C3188.98 817.248 3249.88 794.995 3288.99 748.852L3276.31 738.099C3241.44 779.233 3186.07 800.618 3108.23 800.618V817.248ZM3288.97 748.875C3328.12 703.017 3346.84 631.299 3346.84 535.531H3330.21C3330.21 629.747 3311.68 696.659 3276.33 738.077L3288.97 748.875ZM3346.84 535.531C3346.84 440.015 3328.12 368.317 3288.99 322.206L3276.31 332.965C3311.69 374.661 3330.21 441.594 3330.21 535.531H3346.84ZM3289.01 322.228C3249.91 275.81 3189 253.414 3108.23 253.414V270.044C3186.05 270.044 3241.42 291.553 3276.29 332.943L3289.01 322.228ZM3108.23 253.414C3027.21 253.414 2966.16 275.804 2927.05 322.228L2939.77 332.943C2974.64 291.559 3030.13 270.044 3108.23 270.044V253.414ZM2927.05 322.228C2888.21 368.338 2869.62 440.026 2869.62 535.531H2886.25C2886.25 441.583 2904.65 374.641 2939.77 332.943L2927.05 322.228ZM2869.62 535.531C2869.62 631.288 2888.2 702.996 2927.07 748.852L2939.76 738.099C2904.65 696.68 2886.25 629.757 2886.25 535.531H2869.62ZM2927.09 748.875C2966.46 794.993 3027.48 817.248 3108.23 817.248V800.618C3030.4 800.618 2974.87 779.234 2939.74 738.077L2927.09 748.875ZM3108.23 743.941C3066.03 743.941 3032.35 730.426 3006.43 703.755L2994.5 715.346C3023.93 745.616 3062.09 760.572 3108.23 760.572V743.941ZM3006.46 703.783C2994.18 691.033 2984.4 671.015 2977.73 642.78C2971.07 614.621 2967.67 578.928 2967.67 535.531H2951.04C2951.04 579.675 2954.49 616.756 2961.54 646.604C2968.58 676.375 2979.34 699.595 2994.48 715.317L3006.46 703.783ZM2967.67 535.531C2967.67 491.863 2971.08 456.004 2977.73 427.778C2984.4 399.47 2994.18 379.509 3006.43 366.907L2994.5 355.317C2979.34 370.92 2968.57 394.131 2961.54 423.963C2954.49 453.877 2951.04 491.124 2951.04 535.531H2967.67ZM3006.43 366.907C3032.35 340.236 3066.03 326.72 3108.23 326.72V310.09C3062.09 310.09 3023.93 325.046 2994.5 355.316L3006.43 366.907ZM3108.23 326.72C3150.43 326.72 3183.96 340.235 3209.61 366.879L3221.59 355.345C3192.42 325.046 3154.37 310.09 3108.23 310.09V326.72ZM3209.66 366.935C3222.03 379.541 3231.91 399.499 3238.64 427.795C3245.35 456.014 3248.79 491.867 3248.79 535.531H3265.42C3265.42 491.12 3261.94 453.866 3254.82 423.945C3247.72 394.103 3236.84 370.888 3221.53 355.288L3209.66 366.935ZM3248.79 535.531C3248.79 578.924 3245.36 614.61 3238.64 642.763C3231.91 670.987 3222.03 691.002 3209.63 703.755L3221.56 715.346C3236.84 699.627 3247.71 676.403 3254.82 646.621C3261.94 616.767 3265.42 579.679 3265.42 535.531H3248.79ZM3209.61 703.783C3183.96 730.427 3150.43 743.941 3108.23 743.941V760.572C3154.37 760.572 3192.42 745.616 3221.59 715.317L3209.61 703.783ZM3413 804.941H3404.69V813.257H3413V804.941ZM3493.63 804.941V813.257H3501.94V804.941H3493.63ZM3493.63 423.775H3501.94V422.987L3501.79 422.213L3493.63 423.775ZM3476.06 331.976L3484.23 330.413L3482.94 323.661H3476.06V331.976ZM3413 331.976V323.661H3404.69V331.976H3413ZM3709.55 804.941H3701.24V813.257H3709.55V804.941ZM3790.18 804.941V813.257H3798.49V804.941H3790.18ZM3755.85 382.665L3748.76 387.003L3748.78 387.033L3748.8 387.063L3755.85 382.665ZM3504.4 379.073L3510.24 384.997L3510.24 384.997L3504.4 379.073ZM3452.12 488.434H3443.8V492.973L3447.62 495.428L3452.12 488.434ZM3491.23 513.579L3486.73 520.573L3499.55 528.809V513.579H3491.23ZM3525.56 420.981L3519.48 415.3L3519.48 415.303L3525.56 420.981ZM3684.81 418.187L3678.03 422.998L3678.04 423.024L3678.06 423.05L3684.81 418.187ZM3413 813.257H3493.63V796.626H3413V813.257ZM3501.94 804.941V423.775H3485.31V804.941H3501.94ZM3501.79 422.213L3484.23 330.413L3467.9 333.538L3485.46 425.337L3501.79 422.213ZM3476.06 323.661H3413V340.291H3476.06V323.661ZM3404.69 331.976V804.941H3421.32V331.976H3404.69ZM3709.55 813.257H3790.18V796.626H3709.55V813.257ZM3798.49 804.941V534.333H3781.86V804.941H3798.49ZM3798.49 534.333C3798.49 469.096 3786.92 416.801 3762.91 378.267L3748.8 387.063C3770.55 421.968 3781.86 470.786 3781.86 534.333H3798.49ZM3762.95 378.327C3738.41 338.204 3696.54 318.871 3639.71 318.871V335.501C3692.5 335.501 3728.06 353.154 3748.76 387.003L3762.95 378.327ZM3639.71 318.871C3582.72 318.871 3535.43 336.84 3498.57 373.148L3510.24 384.997C3543.62 352.124 3586.53 335.501 3639.71 335.501V318.871ZM3498.57 373.148C3462.57 408.594 3443.8 447.065 3443.8 488.434H3460.43C3460.43 452.638 3476.52 418.201 3510.24 384.997L3498.57 373.148ZM3447.62 495.428L3486.73 520.573L3495.73 506.584L3456.61 481.439L3447.62 495.428ZM3499.55 513.579C3499.55 478.18 3510.35 449.422 3531.63 426.659L3519.48 415.303C3494.99 441.5 3482.92 474.474 3482.92 513.579H3499.55ZM3531.63 426.662C3553.22 403.576 3579.37 392.177 3610.57 392.177V375.547C3574.71 375.547 3544.19 388.894 3519.48 415.3L3531.63 426.662ZM3610.57 392.177C3641.71 392.177 3663.66 402.74 3678.03 422.998L3691.59 413.376C3673.5 387.868 3645.96 375.547 3610.57 375.547V392.177ZM3678.06 423.05C3692.95 443.696 3701.24 480.396 3701.24 535.131H3717.87C3717.87 479.708 3709.66 438.445 3691.55 413.324L3678.06 423.05ZM3701.24 535.131V804.941H3717.87V535.131H3701.24ZM3888.41 804.941H3880.09V813.257H3888.41V804.941ZM3969.43 804.941V813.257H3977.74V804.941H3969.43ZM3969.43 331.577H3977.74V323.261H3969.43V331.577ZM3888.41 331.577V323.261H3880.09V331.577H3888.41ZM3888.41 202.259V193.944H3880.09V202.259H3888.41ZM3888.41 274.102H3880.09V282.417H3888.41V274.102ZM3969.43 274.102V282.417H3977.74V274.102H3969.43ZM3969.43 202.259H3977.74V193.944H3969.43V202.259ZM3888.41 813.257H3969.43V796.626H3888.41V813.257ZM3977.74 804.941V331.577H3961.11V804.941H3977.74ZM3969.43 323.261H3888.41V339.892H3969.43V323.261ZM3880.09 331.577V804.941H3896.72V331.577H3880.09ZM3880.09 202.259V274.102H3896.72V202.259H3880.09ZM3888.41 282.417H3969.43V265.787H3888.41V282.417ZM3977.74 274.102V202.259H3961.11V274.102H3977.74ZM3969.43 193.944H3888.41V210.574H3969.43V193.944ZM4422.15 749.463L4428.44 754.902L4422.15 749.463ZM4422.15 385.459L4428.4 379.977L4422.15 385.459ZM4108.04 385.459L4101.81 379.953L4101.8 379.965L4101.79 379.977L4108.04 385.459ZM4108.04 749.463L4101.75 754.902L4101.76 754.914L4101.77 754.926L4108.04 749.463ZM4173.89 713.94L4167.77 719.565L4167.78 719.58L4167.8 719.596L4173.89 713.94ZM4173.89 421.779L4179.99 427.435L4180 427.419L4180.02 427.404L4173.89 421.779ZM4356.69 421.779L4350.57 427.404L4350.59 427.419L4350.6 427.435L4356.69 421.779ZM4356.69 713.94L4362.79 719.596L4362.81 719.58L4362.82 719.565L4356.69 713.94ZM4265.29 816.849C4337.32 816.849 4392.3 796.694 4428.44 754.902L4415.86 744.023C4383.89 780.992 4334.29 800.218 4265.29 800.218V816.849ZM4428.44 754.902C4464.38 713.348 4481.56 650.183 4481.56 567.062H4464.92C4464.92 648.381 4448.04 706.816 4415.86 744.023L4428.44 754.902ZM4481.56 567.062C4481.56 483.954 4464.38 421.017 4428.4 379.977L4415.9 390.94C4448.04 427.597 4464.92 485.729 4464.92 567.062H4481.56ZM4428.4 379.977C4392.25 338.739 4337.29 318.871 4265.29 318.871V335.501C4334.33 335.501 4383.94 354.482 4415.9 390.94L4428.4 379.977ZM4265.29 318.871C4193.3 318.871 4138.22 338.74 4101.81 379.953L4114.27 390.964C4146.51 354.48 4196.27 335.501 4265.29 335.501V318.871ZM4101.79 379.977C4065.81 421.017 4048.64 483.954 4048.64 567.062H4065.27C4065.27 485.729 4082.15 427.597 4114.29 390.94L4101.79 379.977ZM4048.64 567.062C4048.64 650.183 4065.81 713.348 4101.75 754.902L4114.33 744.023C4082.15 706.816 4065.27 648.381 4065.27 567.062H4048.64ZM4101.77 754.926C4138.18 796.693 4193.26 816.849 4265.29 816.849V800.218C4196.3 800.218 4146.55 780.994 4114.31 743.999L4101.77 754.926ZM4265.29 744.341C4230.49 744.341 4202.28 732.305 4179.99 708.285L4167.8 719.596C4193.41 747.196 4226.13 760.971 4265.29 760.971V744.341ZM4180.02 708.316C4158.35 684.726 4146.29 638.77 4146.29 567.461H4129.66C4129.66 639.305 4141.54 691.003 4167.77 719.565L4180.02 708.316ZM4146.29 567.461C4146.29 496.412 4158.36 450.75 4179.99 427.435L4167.8 416.124C4141.54 444.429 4129.66 495.888 4129.66 567.461H4146.29ZM4180.02 427.404C4202.31 403.127 4230.52 390.98 4265.29 390.98V374.35C4226.1 374.35 4193.37 388.279 4167.77 416.155L4180.02 427.404ZM4265.29 390.98C4300.07 390.98 4328.28 403.127 4350.57 427.404L4362.82 416.155C4337.22 388.279 4304.49 374.35 4265.29 374.35V390.98ZM4350.6 427.435C4372.23 450.75 4384.3 496.412 4384.3 567.461H4400.93C4400.93 495.888 4389.05 444.429 4362.79 416.124L4350.6 427.435ZM4384.3 567.461C4384.3 638.77 4372.24 684.726 4350.57 708.316L4362.82 719.565C4389.05 691.003 4400.93 639.305 4400.93 567.461H4384.3ZM4350.6 708.285C4328.31 732.305 4300.1 744.341 4265.29 744.341V760.971C4304.46 760.971 4337.18 747.196 4362.79 719.596L4350.6 708.285ZM4551.14 804.941H4542.82V813.257H4551.14V804.941ZM4631.76 804.941V813.257H4640.08V804.941H4631.76ZM4631.76 423.775H4640.08V422.987L4639.93 422.213L4631.76 423.775ZM4614.2 331.976L4622.37 330.413L4621.08 323.661H4614.2V331.976ZM4551.14 331.976V323.661H4542.82V331.976H4551.14ZM4847.69 804.941H4839.38V813.257H4847.69V804.941ZM4928.31 804.941V813.257H4936.63V804.941H4928.31ZM4893.99 382.665L4886.89 387.003L4886.91 387.033L4886.93 387.063L4893.99 382.665ZM4642.54 379.073L4648.37 384.997L4648.37 384.997L4642.54 379.073ZM4590.25 488.434H4581.94V492.973L4585.76 495.428L4590.25 488.434ZM4629.37 513.579L4624.87 520.573L4637.68 528.809V513.579H4629.37ZM4663.69 420.981L4657.62 415.3L4657.62 415.303L4663.69 420.981ZM4822.94 418.187L4816.16 422.998L4816.18 423.024L4816.2 423.05L4822.94 418.187ZM4551.14 813.257H4631.76V796.626H4551.14V813.257ZM4640.08 804.941V423.775H4623.45V804.941H4640.08ZM4639.93 422.213L4622.37 330.413L4606.03 333.538L4623.6 425.337L4639.93 422.213ZM4614.2 323.661H4551.14V340.291H4614.2V323.661ZM4542.82 331.976V804.941H4559.45V331.976H4542.82ZM4847.69 813.257H4928.31V796.626H4847.69V813.257ZM4936.63 804.941V534.333H4920V804.941H4936.63ZM4936.63 534.333C4936.63 469.096 4925.06 416.801 4901.05 378.267L4886.93 387.063C4908.68 421.968 4920 470.786 4920 534.333H4936.63ZM4901.08 378.327C4876.55 338.204 4834.67 318.871 4777.84 318.871V335.501C4830.64 335.501 4866.2 353.154 4886.89 387.003L4901.08 378.327ZM4777.84 318.871C4720.86 318.871 4673.57 336.84 4636.7 373.148L4648.37 384.997C4681.75 352.124 4724.67 335.501 4777.84 335.501V318.871ZM4636.7 373.148C4600.71 408.594 4581.94 447.065 4581.94 488.434H4598.57C4598.57 452.638 4614.65 418.201 4648.37 384.997L4636.7 373.148ZM4585.76 495.428L4624.87 520.573L4633.86 506.584L4594.75 481.439L4585.76 495.428ZM4637.68 513.579C4637.68 478.18 4648.49 449.422 4669.77 426.659L4657.62 415.303C4633.13 441.5 4621.05 474.474 4621.05 513.579H4637.68ZM4669.76 426.662C4691.36 403.576 4717.51 392.177 4748.71 392.177V375.547C4712.85 375.547 4682.32 388.894 4657.62 415.3L4669.76 426.662ZM4748.71 392.177C4779.84 392.177 4801.79 402.74 4816.16 422.998L4829.73 413.376C4811.63 387.868 4784.09 375.547 4748.71 375.547V392.177ZM4816.2 423.05C4831.08 443.696 4839.38 480.396 4839.38 535.131H4856.01C4856.01 479.708 4847.8 438.445 4829.69 413.324L4816.2 423.05ZM4839.38 535.131V804.941H4856.01V535.131H4839.38Z" fill="#3063E9"/>
<defs>
<linearGradient id="paint0_linear_662_10769" x1="532.807" y1="76.8105" x2="532.807" y2="508.751" gradientUnits="userSpaceOnUse">
<stop stop-color="#4B48DC"/>
<stop offset="1" stop-color="#D048DC"/>
</linearGradient>
<linearGradient id="paint1_linear_662_10769" x1="293.745" y1="-181.369" x2="293.745" y2="607.531" gradientUnits="userSpaceOnUse">
<stop stop-color="#4B48DC"/>
<stop offset="1" stop-color="#D048DC"/>
</linearGradient>
<linearGradient id="paint2_linear_662_10769" x1="532.809" y1="994.807" x2="532.809" y2="562.866" gradientUnits="userSpaceOnUse">
<stop stop-color="#4B48DC"/>
<stop offset="1" stop-color="#D048DC"/>
</linearGradient>
<linearGradient id="paint3_linear_662_10769" x1="795.777" y1="1372.51" x2="795.777" y2="464.077" gradientUnits="userSpaceOnUse">
<stop stop-color="#4B48DC"/>
<stop offset="1" stop-color="#D048DC"/>
</linearGradient>
</defs>
</svg>
