<svg width="385" height="278" viewBox="0 0 385 278" fill="none" xmlns="http://www.w3.org/2000/svg">
<path d="M304.249 245.402C303.667 245.028 302.967 244.878 302.282 244.981C301.597 245.083 300.972 245.431 300.525 245.96C300.112 246.516 299.92 247.206 299.985 247.895C300.05 248.584 300.368 249.225 300.878 249.695C301.417 250.129 302.099 250.345 302.79 250.302C303.481 250.26 304.131 249.96 304.613 249.464C305.546 248.438 305.693 246.386 304.249 245.402Z" fill="url(#paint0_linear_599_5064)"/>
<path d="M201.277 184.453C200.694 184.079 199.995 183.929 199.309 184.032C198.624 184.134 197.999 184.482 197.552 185.011C197.139 185.567 196.947 186.256 197.012 186.946C197.078 187.635 197.395 188.276 197.905 188.746C198.444 189.179 199.126 189.396 199.818 189.353C200.509 189.31 201.159 189.011 201.64 188.515C202.573 187.489 202.72 185.437 201.277 184.453Z" fill="url(#paint1_linear_599_5064)"/>
<path d="M374.277 51.4529C373.694 51.0787 372.995 50.9289 372.309 51.0315C371.624 51.1341 370.999 51.4821 370.552 52.0106C370.139 52.5672 369.947 53.2564 370.012 53.9458C370.078 54.6352 370.395 55.2763 370.905 55.746C371.444 56.1795 372.126 56.396 372.818 56.3532C373.509 56.3104 374.159 56.0113 374.64 55.5145C375.573 54.4886 375.72 52.4367 374.277 51.4529Z" fill="url(#paint2_linear_599_5064)"/>
<path d="M4.27893 230.453C3.696 230.079 2.99669 229.929 2.31136 230.032C1.62603 230.134 1.00145 230.482 0.554053 231.011C0.140907 231.567 -0.0520905 232.255 0.0120832 232.945C0.0762568 233.634 0.393084 234.276 0.90178 234.746C1.44253 235.179 2.1253 235.395 2.8169 235.352C3.5085 235.309 4.15934 235.011 4.64246 234.515C5.56972 233.489 5.71197 231.437 4.27893 230.453Z" fill="url(#paint3_linear_599_5064)"/>
<path d="M43.2789 250.453C42.696 250.079 41.9967 249.929 41.3114 250.032C40.626 250.134 40.0015 250.482 39.5541 251.011C39.1409 251.567 38.9479 252.255 39.0121 252.945C39.0763 253.634 39.3931 254.276 39.9018 254.746C40.4425 255.179 41.1253 255.395 41.8169 255.352C42.5085 255.309 43.1593 255.011 43.6425 254.515C44.5697 253.489 44.712 251.437 43.2789 250.453Z" fill="url(#paint4_linear_599_5064)"/>
<path d="M19.4251 42.9423C18.6778 42.2327 17.7192 41.7857 16.6946 41.6691C15.67 41.5525 14.6353 41.7727 13.7472 42.2962C12.8592 42.8197 12.1663 43.618 11.7735 44.5702C11.3807 45.5223 11.3094 46.5764 11.5705 47.5726C11.8316 48.5688 12.4108 49.4529 13.2204 50.0908C14.0299 50.7287 15.0256 51.0857 16.0566 51.1077C17.0876 51.1296 18.0977 50.8154 18.9337 50.2125C19.7698 49.6096 20.3862 48.751 20.6896 47.7668C20.9443 46.9243 20.9609 46.028 20.7378 45.1767C20.5147 44.3254 20.0604 43.5521 19.4251 42.9423Z" fill="url(#paint5_linear_599_5064)"/>
<path d="M336.308 211.458C335.561 210.748 334.602 210.301 333.577 210.185C332.553 210.068 331.518 210.288 330.63 210.812C329.742 211.335 329.049 212.134 328.656 213.086C328.263 214.038 328.192 215.092 328.453 216.088C328.714 217.084 329.294 217.969 330.103 218.606C330.913 219.244 331.908 219.601 332.939 219.623C333.97 219.645 334.98 219.331 335.816 218.728C336.653 218.125 337.269 217.267 337.572 216.282C337.827 215.44 337.844 214.544 337.621 213.692C337.397 212.841 336.943 212.068 336.308 211.458Z" fill="url(#paint6_linear_599_5064)"/>
<path d="M252.284 6.45396C251.7 6.07902 250.999 5.92888 250.312 6.03147C249.625 6.13405 248.998 6.48237 248.549 7.01164C248.138 7.56994 247.947 8.25943 248.012 8.94907C248.078 9.63871 248.394 10.2804 248.902 10.7523C249.443 11.185 250.125 11.401 250.817 11.3582C251.509 11.3154 252.159 11.0169 252.643 10.5208C253.57 9.48964 253.717 7.44305 252.284 6.45396Z" fill="url(#paint7_linear_599_5064)"/>
<path d="M356.009 1.30362C355.262 0.594018 354.303 0.14705 353.279 0.0304543C352.254 -0.086141 351.219 0.133995 350.331 0.657497C349.443 1.181 348.75 1.97933 348.357 2.93148C347.965 3.88363 347.893 4.93771 348.155 5.93393C348.416 6.93016 348.995 7.81423 349.804 8.45215C350.614 9.09007 351.61 9.44706 352.641 9.46901C353.672 9.49096 354.682 9.17668 355.518 8.5738C356.354 7.97092 356.97 7.1123 357.274 6.1281C357.528 5.28565 357.545 4.38933 357.322 3.53802C357.099 2.6867 356.644 1.91347 356.009 1.30362Z" fill="url(#paint8_linear_599_5064)"/>
<path d="M189.009 15.3036C188.262 14.594 187.303 14.147 186.279 14.0305C185.254 13.9139 184.219 14.134 183.331 14.6575C182.443 15.181 181.75 15.9793 181.357 16.9315C180.965 17.8836 180.893 18.9377 181.155 19.9339C181.416 20.9302 181.995 21.8142 182.804 22.4522C183.614 23.0901 184.61 23.4471 185.641 23.469C186.672 23.491 187.682 23.1767 188.518 22.5738C189.354 21.9709 189.97 21.1123 190.274 20.1281C190.528 19.2857 190.545 18.3893 190.322 17.538C190.099 16.6867 189.644 15.9135 189.009 15.3036Z" fill="url(#paint9_linear_599_5064)"/>
<path d="M383.009 269.304C382.262 268.594 381.303 268.147 380.279 268.03C379.254 267.914 378.219 268.134 377.331 268.657C376.443 269.181 375.75 269.979 375.357 270.931C374.965 271.884 374.893 272.938 375.155 273.934C375.416 274.93 375.995 275.814 376.804 276.452C377.614 277.09 378.61 277.447 379.641 277.469C380.672 277.491 381.682 277.177 382.518 276.574C383.354 275.971 383.97 275.112 384.274 274.128C384.528 273.286 384.545 272.389 384.322 271.538C384.099 270.687 383.644 269.913 383.009 269.304Z" fill="url(#paint10_linear_599_5064)"/>
<path d="M133.009 256.304C132.262 255.594 131.303 255.147 130.279 255.03C129.254 254.914 128.219 255.134 127.331 255.657C126.443 256.181 125.75 256.979 125.357 257.931C124.965 258.884 124.893 259.938 125.155 260.934C125.416 261.93 125.995 262.814 126.804 263.452C127.614 264.09 128.61 264.447 129.641 264.469C130.672 264.491 131.682 264.177 132.518 263.574C133.354 262.971 133.97 262.112 134.274 261.128C134.528 260.286 134.545 259.389 134.322 258.538C134.099 257.687 133.644 256.913 133.009 256.304Z" fill="url(#paint11_linear_599_5064)"/>
<path d="M196.009 222.304C195.262 221.594 194.303 221.147 193.279 221.03C192.254 220.914 191.219 221.134 190.331 221.657C189.443 222.181 188.75 222.979 188.357 223.931C187.965 224.884 187.893 225.938 188.155 226.934C188.416 227.93 188.995 228.814 189.804 229.452C190.614 230.09 191.61 230.447 192.641 230.469C193.672 230.491 194.682 230.177 195.518 229.574C196.354 228.971 196.97 228.112 197.274 227.128C197.528 226.286 197.545 225.389 197.322 224.538C197.099 223.687 196.644 222.913 196.009 222.304Z" fill="url(#paint12_linear_599_5064)"/>
<defs>
<linearGradient id="paint0_linear_599_5064" x1="298.568" y1="245.735" x2="307.763" y2="246.278" gradientUnits="userSpaceOnUse">
<stop stop-color="#F9E006"/>
<stop offset="1" stop-color="#FF6738"/>
</linearGradient>
<linearGradient id="paint1_linear_599_5064" x1="195.595" y1="184.786" x2="204.79" y2="185.328" gradientUnits="userSpaceOnUse">
<stop stop-color="#F9E006"/>
<stop offset="1" stop-color="#FF6738"/>
</linearGradient>
<linearGradient id="paint2_linear_599_5064" x1="368.595" y1="51.7859" x2="377.79" y2="52.3283" gradientUnits="userSpaceOnUse">
<stop stop-color="#F9E006"/>
<stop offset="1" stop-color="#FF6738"/>
</linearGradient>
<linearGradient id="paint3_linear_599_5064" x1="-1.40379" y1="230.786" x2="7.78509" y2="231.327" gradientUnits="userSpaceOnUse">
<stop stop-color="#F9E006"/>
<stop offset="1" stop-color="#FF6738"/>
</linearGradient>
<linearGradient id="paint4_linear_599_5064" x1="37.5962" y1="250.786" x2="46.7851" y2="251.327" gradientUnits="userSpaceOnUse">
<stop stop-color="#F9E006"/>
<stop offset="1" stop-color="#FF6738"/>
</linearGradient>
<linearGradient id="paint5_linear_599_5064" x1="8.92812" y1="43.0276" x2="25.213" y2="43.9902" gradientUnits="userSpaceOnUse">
<stop stop-color="#F9E006"/>
<stop offset="1" stop-color="#FF6738"/>
</linearGradient>
<linearGradient id="paint6_linear_599_5064" x1="325.811" y1="211.543" x2="342.096" y2="212.506" gradientUnits="userSpaceOnUse">
<stop stop-color="#F9E006"/>
<stop offset="1" stop-color="#FF6738"/>
</linearGradient>
<linearGradient id="paint7_linear_599_5064" x1="246.596" y1="6.78665" x2="255.789" y2="7.32832" gradientUnits="userSpaceOnUse">
<stop stop-color="#F9E006"/>
<stop offset="1" stop-color="#FF6738"/>
</linearGradient>
<linearGradient id="paint8_linear_599_5064" x1="345.512" y1="1.38895" x2="361.797" y2="2.35157" gradientUnits="userSpaceOnUse">
<stop stop-color="#F9E006"/>
<stop offset="1" stop-color="#FF6738"/>
</linearGradient>
<linearGradient id="paint9_linear_599_5064" x1="178.512" y1="15.3889" x2="194.797" y2="16.3516" gradientUnits="userSpaceOnUse">
<stop stop-color="#F9E006"/>
<stop offset="1" stop-color="#FF6738"/>
</linearGradient>
<linearGradient id="paint10_linear_599_5064" x1="372.512" y1="269.389" x2="388.797" y2="270.352" gradientUnits="userSpaceOnUse">
<stop stop-color="#F9E006"/>
<stop offset="1" stop-color="#FF6738"/>
</linearGradient>
<linearGradient id="paint11_linear_599_5064" x1="122.512" y1="256.389" x2="138.797" y2="257.352" gradientUnits="userSpaceOnUse">
<stop stop-color="#F9E006"/>
<stop offset="1" stop-color="#FF6738"/>
</linearGradient>
<linearGradient id="paint12_linear_599_5064" x1="185.512" y1="222.389" x2="201.797" y2="223.352" gradientUnits="userSpaceOnUse">
<stop stop-color="#F9E006"/>
<stop offset="1" stop-color="#FF6738"/>
</linearGradient>
</defs>
</svg>
