<svg width="334" height="217" viewBox="0 0 334 217" fill="none" xmlns="http://www.w3.org/2000/svg">
<path d="M32.4678 15.2268V203.581C32.4678 204.207 32.5911 204.826 32.8307 205.404C33.0703 205.983 33.4215 206.508 33.8642 206.95C34.3069 207.392 34.8324 207.743 35.4106 207.982C35.9889 208.221 36.6086 208.344 37.2343 208.343H129.789C131.052 208.343 132.264 207.841 133.158 206.948C134.051 206.056 134.554 204.844 134.555 203.581V15.2268C134.556 14.6006 134.433 13.9803 134.194 13.4016C133.955 12.8229 133.604 12.2971 133.161 11.8543C132.718 11.4115 132.192 11.0603 131.614 10.821C131.035 10.5816 130.415 10.4588 129.789 10.4595H37.2343C36.6082 10.4588 35.9881 10.5816 35.4094 10.821C34.8308 11.0603 34.3051 11.4115 33.8624 11.8543C33.4196 12.2971 33.0685 12.8229 32.8292 13.4016C32.5899 13.9803 32.4671 14.6006 32.4678 15.2268Z" fill="white"/>
<path d="M28.0815 15.2268V203.581C28.0815 204.207 28.2049 204.826 28.4445 205.404C28.6841 205.983 29.0353 206.508 29.478 206.95C29.9206 207.392 30.4461 207.743 31.0244 207.982C31.6027 208.221 32.2224 208.344 32.8481 208.343H125.403C126.666 208.343 127.878 207.841 128.771 206.948C129.665 206.056 130.168 204.844 130.169 203.581V15.2268C130.17 14.6006 130.047 13.9803 129.808 13.4016C129.568 12.8229 129.217 12.2971 128.775 11.8543C128.332 11.4115 127.806 11.0603 127.228 10.821C126.649 10.5816 126.029 10.4588 125.403 10.4595H32.8481C32.222 10.4588 31.6018 10.5816 31.0232 10.821C30.4446 11.0603 29.9189 11.4115 29.4761 11.8543C29.0334 12.2971 28.6823 12.8229 28.443 13.4016C28.2037 13.9803 28.0809 14.6006 28.0815 15.2268Z" fill="black"/>
<path d="M35.4448 33.9261V183.216C35.4448 186.255 37.7535 188.723 40.5867 188.723H118.363C121.212 188.723 123.505 186.255 123.505 183.216V33.9261C123.505 30.8816 121.202 28.4182 118.363 28.4182H40.597C37.7535 28.4182 35.4448 30.8816 35.4448 33.9261Z" fill="black"/>
<path d="M33.2184 183.216V33.9261C33.1908 32.2041 33.8471 30.5415 35.0433 29.3027C36.2394 28.064 37.8779 27.3501 39.5995 27.3176H119.361C121.083 27.3487 122.723 28.062 123.92 29.3009C125.118 30.5399 125.775 32.2033 125.747 33.9261V183.216C125.775 184.938 125.118 186.602 123.92 187.841C122.723 189.08 121.083 189.793 119.361 189.824H39.5995C37.8779 189.792 36.2394 189.078 35.0433 187.839C33.8471 186.6 33.1908 184.938 33.2184 183.216ZM39.5995 29.5239C38.462 29.5548 37.3832 30.0356 36.5996 30.8608C35.816 31.6861 35.3915 32.7883 35.4191 33.9261V183.216C35.3915 184.353 35.816 185.456 36.5996 186.281C37.3832 187.106 38.462 187.587 39.5995 187.618H119.361C120.498 187.587 121.577 187.106 122.361 186.281C123.144 185.456 123.569 184.353 123.541 183.216V33.9261C123.569 32.7883 123.144 31.6861 122.361 30.8608C121.577 30.0356 120.498 29.5548 119.361 29.5239H39.5995Z" fill="white"/>
<path d="M180.971 0.00947295C176.312 0.14155 171.797 1.65246 167.997 4.35114C164.196 7.04982 161.281 10.8151 159.621 15.1707C157.96 19.5263 157.628 24.2767 158.666 28.8212C159.705 33.3656 162.067 37.5 165.455 40.7014C168.843 43.9029 173.104 46.0276 177.699 46.8069C182.295 47.5863 187.018 46.9852 191.272 45.0798C195.525 43.1743 199.119 40.05 201.597 36.1021C204.075 32.1541 205.327 27.5597 205.195 22.9C205.018 16.6518 202.366 10.73 197.823 6.43725C193.28 2.1445 187.219 -0.167626 180.971 0.00947295ZM200.603 23.0337C200.709 26.7618 199.713 30.4382 197.741 33.6035C195.768 36.7687 192.907 39.2824 189.514 40.8302C186.122 42.3779 182.348 42.8913 178.665 42.3059C174.983 41.7206 171.554 40.0625 168.808 37.539C166.062 35.0156 164.121 31.7386 163.227 28.1178C162.333 24.497 162.526 20.6929 163.782 17.1811C165.037 13.6693 167.3 10.6055 170.287 8.37282C173.274 6.1401 176.852 4.83744 180.576 4.62769H181.09C186.026 4.494 190.821 6.28911 194.456 9.63224C198.092 12.9754 200.282 17.6035 200.562 22.5348C200.588 22.6891 200.598 22.8588 200.603 23.0337Z" fill="#FCC659"/>
<path d="M200.578 22.5144C200.578 22.6892 200.578 22.8589 200.603 23.0286C200.709 26.7567 199.713 30.4332 197.741 33.5985C195.768 36.7637 192.907 39.2773 189.514 40.8251C186.122 42.3729 182.348 42.8862 178.665 42.3009C174.983 41.7155 171.554 40.0575 168.808 37.534C166.062 35.0105 164.121 31.7336 163.227 28.1128C162.333 24.4919 162.526 20.6879 163.782 17.1761C165.037 13.6643 167.3 10.6005 170.287 8.36779C173.274 6.13506 176.852 4.8324 180.576 4.62265H181.09C186.027 4.48472 190.823 6.27589 194.461 9.61617C198.099 12.9565 200.293 17.583 200.578 22.5144Z" fill="#F49B51"/>
<path d="M181.244 38.1225L181.048 34.5586C179.137 34.6518 177.238 34.212 175.562 33.2883L176.282 30.8764C177.842 31.7719 179.627 32.202 181.424 32.1158C183.928 31.9769 185.537 30.4341 185.429 28.4233C185.321 26.4125 183.887 25.3376 181.213 24.4428C177.531 23.2342 175.223 21.7325 175.043 18.6623C174.883 15.7361 176.842 13.3961 180.056 12.6864L179.876 9.11733L182.061 8.9939L182.252 12.419C183.862 12.3434 185.466 12.6797 186.91 13.3961L186.165 15.8029C184.777 15.0777 183.217 14.7486 181.655 14.8515C178.935 15.0007 178.004 16.6823 178.082 18.0915C178.184 19.9274 179.542 20.7708 182.678 21.8714C186.396 23.1519 188.335 24.8851 188.509 28.0427C188.664 30.8301 186.864 33.5506 183.265 34.3478L183.47 38.0197L181.244 38.1225Z" fill="#FCC659"/>
<path d="M238.042 43.7333C234.119 43.4196 230.192 44.2761 226.756 46.1945C223.32 48.113 220.53 51.0073 218.738 54.5115C216.947 58.0156 216.234 61.9724 216.691 65.8815C217.147 69.7907 218.752 73.4767 221.303 76.4736C223.854 79.4704 227.236 81.6437 231.021 82.7185C234.807 83.7932 238.826 83.7214 242.571 82.5119C246.315 81.3025 249.617 79.0098 252.059 75.9236C254.501 72.8375 255.974 69.0964 256.29 65.1735C256.501 62.5671 256.195 59.9447 255.392 57.4564C254.589 54.9681 253.303 52.6624 251.608 50.6713C249.913 48.6802 247.843 47.0426 245.515 45.8522C243.187 44.6617 240.648 43.9417 238.042 43.7333ZM252.439 64.8546C252.187 67.994 251.015 70.9894 249.071 73.4665C247.126 75.9435 244.494 77.7922 241.505 78.7815C238.515 79.7708 235.3 79.8569 232.262 79.0288C229.224 78.2007 226.497 76.4953 224.423 74.1258C222.348 71.7563 221.018 68.8278 220.599 65.7064C220.18 62.5849 220.689 59.4091 222.065 56.5759C223.44 53.7427 225.62 51.3779 228.332 49.7769C231.043 48.176 234.167 47.4101 237.312 47.5749L237.754 47.6058C241.91 47.9452 245.771 49.8903 248.519 53.0286C251.266 56.1669 252.683 60.2518 252.47 64.4175C252.439 64.5615 252.434 64.7055 252.419 64.8546H252.439Z" fill="#FCC659"/>
<path d="M252.449 64.4175C252.449 64.5615 252.449 64.7055 252.418 64.8546C252.166 67.994 250.995 70.9895 249.05 73.4665C247.105 75.9435 244.473 77.7923 241.484 78.7816C238.494 79.7709 235.28 79.8569 232.241 79.0288C229.203 78.2008 226.477 76.4954 224.402 74.1258C222.328 71.7563 220.998 68.8278 220.578 65.7064C220.159 62.585 220.669 59.4092 222.044 56.576C223.419 53.7428 225.599 51.3779 228.311 49.777C231.023 48.176 234.146 47.4101 237.291 47.5749L237.733 47.6058C241.89 47.9453 245.751 49.8903 248.498 53.0286C251.245 56.1669 252.662 60.2518 252.449 64.4175Z" fill="#F49B51"/>
<path d="M234.792 75.7522L234.951 72.7437C233.341 72.6555 231.787 72.1213 230.462 71.2008L231.285 69.2414C232.519 70.1383 233.984 70.6614 235.507 70.7483C237.625 70.8614 239.106 69.7197 239.209 68.0175C239.312 66.3152 238.18 65.3021 236.026 64.2941C233.054 62.9415 231.249 61.4707 231.398 58.8788C231.532 56.4051 233.388 54.6205 236.155 54.3171L236.314 51.3086L238.16 51.4063L238.006 54.2966C239.365 54.3784 240.681 54.8088 241.826 55.5462L240.962 57.4594C239.863 56.724 238.582 56.3058 237.26 56.2508C234.967 56.1274 234.031 57.4542 233.964 58.6473C233.882 60.1902 234.946 61.0284 237.481 62.2473C240.484 63.6615 241.949 65.2918 241.811 67.9455C241.687 70.3009 239.929 72.4197 236.833 72.7642L236.674 75.8499L234.792 75.7522Z" fill="#FCC659"/>
<path d="M223.125 52.1159C223.96 52.9456 224.491 54.0328 224.632 55.2016C225.422 54.3253 226.486 53.7433 227.65 53.5507C226.813 52.722 226.282 51.6344 226.143 50.4651C225.353 51.3407 224.289 51.9226 223.125 52.1159Z" fill="#FFE6A6"/>
<path d="M142.854 118.309C149.328 117.321 172.857 108.321 172.857 108.321C172.857 108.321 171.125 104.963 164.898 105.853C158.671 106.743 142.751 110.795 142.751 110.795L142.854 118.309Z" fill="#FCB47E"/>
<path d="M145.996 63.4815C141.108 63.3174 136.281 64.6067 132.126 67.1864C127.971 69.7661 124.673 73.5204 122.651 77.9743C120.629 82.4283 119.973 87.3819 120.766 92.2088C121.559 97.0356 123.766 101.519 127.106 105.092C130.447 108.664 134.772 111.166 139.534 112.28C144.296 113.395 149.282 113.072 153.86 111.352C158.439 109.632 162.404 106.593 165.256 102.619C168.108 98.645 169.717 93.9144 169.88 89.0256C169.99 85.7797 169.458 82.5441 168.317 79.5036C167.176 76.4631 165.447 73.6772 163.229 71.3051C161.011 68.933 158.347 67.0212 155.391 65.6788C152.434 64.3364 149.242 63.5897 145.996 63.4815ZM165.062 88.861C164.931 92.7714 163.65 96.5564 161.38 99.7427C159.109 102.929 155.95 105.375 152.298 106.776C148.645 108.176 144.66 108.469 140.842 107.617C137.024 106.765 133.542 104.807 130.83 101.986C128.119 99.166 126.299 95.6089 125.597 91.7596C124.896 87.9103 125.345 83.9397 126.888 80.3441C128.43 76.7485 130.998 73.6874 134.271 71.5435C137.543 69.3996 141.375 68.2679 145.287 68.2899C145.472 68.2899 145.652 68.2899 145.837 68.2899C151.018 68.4679 155.926 70.6593 159.518 74.3986C163.11 78.138 165.103 83.1306 165.073 88.3159C165.073 88.501 165.068 88.681 165.062 88.861Z" fill="#FCC659"/>
<path d="M165.073 88.3161C165.073 88.4961 165.073 88.6761 165.073 88.8561C164.941 92.7665 163.66 96.5514 161.39 99.7377C159.119 102.924 155.961 105.37 152.308 106.771C148.655 108.171 144.67 108.464 140.852 107.612C137.034 106.76 133.552 104.802 130.84 101.982C128.129 99.1611 126.309 95.6039 125.608 91.7547C124.906 87.9054 125.355 83.9348 126.898 80.3392C128.44 76.7436 131.008 73.6825 134.281 71.5385C137.553 69.3946 141.385 68.2629 145.297 68.285H145.847C151.027 68.4668 155.933 70.6605 159.522 74.4004C163.112 78.1403 165.103 83.132 165.073 88.3161Z" fill="#F49B51"/>
<path d="M143.816 103.41L143.842 99.6661C141.692 99.6146 139.471 98.9358 138.186 97.9998L139.091 95.521C140.667 96.5608 142.509 97.1266 144.397 97.1512C147.03 97.1512 148.819 95.6547 148.829 93.5513C148.84 91.4479 147.405 90.2445 144.669 89.1131C140.9 87.6063 138.571 85.8886 138.592 82.6589C138.592 79.5733 140.813 77.259 144.248 76.7242L144.274 72.9802H146.572V76.5802C148.262 76.607 149.917 77.0655 151.38 77.9121L150.439 80.3498C149.032 79.5008 147.418 79.056 145.775 79.0641C142.921 79.0641 141.836 80.7407 141.826 82.2269C141.826 84.1555 143.178 85.1274 146.397 86.48C150.207 88.064 152.12 90.0028 152.1 93.3045C152.1 96.2307 150.043 98.9615 146.202 99.5684V103.425L143.816 103.41Z" fill="#FCC659"/>
<path d="M151.678 105.457C151.678 105.457 151.082 98.6015 141.199 98.1386C133.537 97.7941 131.018 93.5924 124.693 92.9959C118.59 92.425 112.353 95.4695 112.353 95.4695C110.367 96.2343 108.294 96.7524 106.182 97.0124C102.532 97.3406 98.8654 96.5971 95.6311 94.873L95.7339 116.035C95.7339 116.035 111.844 114.652 115.206 115.439C118.569 116.226 134.288 123.055 140.762 122.068C147.235 121.081 170.765 112.081 170.765 112.081C170.765 112.081 169.33 108.126 163.103 108.995C156.877 109.864 151.339 111.86 149.462 111.962C148.248 112.001 147.039 111.798 145.904 111.366L130.992 105.138C138.33 105.92 145.302 106.12 151.678 105.457Z" fill="#FFC49C"/>
<path d="M68.1218 105.102C68.1218 110.548 68.3429 115.784 68.7543 120.659C68.7543 120.695 68.7543 120.731 68.7543 120.767C70.3328 139.476 74.6521 152.904 79.7426 152.904C85.0079 152.904 89.4505 138.551 90.8902 118.849V118.658L91.1473 95.7474V95.5622C90.0675 73.7363 85.3678 57.3154 79.7426 57.3154C74.2664 57.3154 69.6798 72.8569 68.4303 93.7982V93.896C68.2401 97.4856 68.1218 101.24 68.1218 105.102Z" fill="white"/>
<path d="M92.9366 124.094C90.6999 144.223 85.0746 157.569 78.7192 157.569C73.2893 157.569 68.4045 148.101 65.6536 132.246L66.358 132.148C69.0112 147.437 73.747 156.941 78.6986 156.941C84.5656 156.941 90.0108 143.596 92.1962 124.177L92.9366 124.094Z" fill="#3F5A9F"/>
<path d="M63.7767 115.444C63.5813 112.081 63.4836 108.599 63.4836 105.102C63.4836 101.029 63.6225 96.9045 63.9001 92.8417C63.8984 92.8229 63.8984 92.8039 63.9001 92.7851V92.7337C64.2509 87.4323 64.8964 82.1545 65.8335 76.9248L66.5328 77.0225C65.6042 82.2342 64.9623 87.4928 64.6097 92.7748C64.6097 92.7748 64.6097 92.8057 64.6097 92.8314V92.8777C64.3372 96.9302 64.1932 101.039 64.1932 105.102C64.1932 108.589 64.2909 112.06 64.4863 115.388L63.7767 115.444Z" fill="#3F5A9F"/>
<path d="M93.0342 87.0456H92.3298C90.2216 67.1739 84.7198 53.2422 78.7191 53.2422C74.9707 53.2422 71.2582 58.7295 68.533 68.3053L67.8491 68.1562C70.6977 58.1329 74.5593 52.6147 78.7191 52.6147C82.2619 52.6147 85.563 56.5541 88.2625 64.0008C90.4067 70.0076 92.083 78.0303 93.0342 87.0456Z" fill="#3F5A9F"/>
<path d="M161.951 16.2658C163.743 17.1838 165.171 18.6809 166.003 20.5137C166.835 18.678 168.263 17.1774 170.055 16.2555C168.262 15.3405 166.833 13.8424 166.003 12.0076C165.173 13.8442 163.744 15.3452 161.951 16.2658Z" fill="#FFE6A6"/>
<path d="M168.394 27.3999C169.435 27.9317 170.264 28.8024 170.744 29.8685C171.229 28.8026 172.061 27.9325 173.104 27.3999C172.062 26.8661 171.231 25.9964 170.744 24.9314C170.264 25.9975 169.435 26.8682 168.394 27.3999Z" fill="#FFE6A6"/>
<path d="M95.6516 99.2599L95.7287 116.036C95.7287 116.036 98.382 115.809 101.755 115.593C101.58 111.721 100.917 101.975 98.5311 97.4033C97.9346 96.2616 96.9114 97.1307 95.6516 99.2599Z" fill="#FFA87D"/>
<path d="M98.9783 114.585C98.7966 116.179 98.5618 117.784 98.2738 119.399L93.2193 119.913L91.6408 120.073L90.7563 120.165L69.2014 122.387C69.2014 122.346 69.2014 122.31 69.2014 122.269C68.7592 116.313 68.5278 109.926 68.5278 103.276C68.5278 98.8227 68.6358 94.4873 68.8364 90.3165C68.8364 90.0748 68.8621 89.8331 68.8723 89.5965C68.8723 89.5605 68.8723 89.5245 68.8723 89.4885L90.9826 91.5456L91.759 91.6176L93.4559 91.7719L98.2327 92.2091C99.6113 99.5871 99.8627 107.132 98.9783 114.585Z" fill="#F9E006"/>
<path d="M98.9783 114.585C98.7863 116.179 98.5412 117.784 98.243 119.399L92.9879 119.913L91.6408 120.047L90.4324 120.165L69.1911 122.258H69.0832L68.9289 120.546C68.9289 120.51 68.9289 120.474 68.9289 120.433C68.5021 115.537 68.2759 110.27 68.2759 104.799C68.2759 100.916 68.3993 97.1358 68.6152 93.5153C68.6152 93.4844 68.6152 93.4536 68.6152 93.4176C68.6769 92.3633 68.7541 91.3245 68.8312 90.2959C68.8312 90.0542 68.8569 89.8125 68.8672 89.5759L71.1811 89.7816C71.6181 94.6776 73.1556 107.524 77.4645 111.047C80.4571 113.49 86.7765 114.246 91.7847 114.441C95.7491 114.595 98.8909 114.395 98.8909 114.395L98.9783 114.585Z" fill="#F9E006"/>
<path d="M284.098 40.2721C284.098 40.2721 282.18 38.827 283.244 36.8265C284.01 35.3813 286.587 34.8311 286.587 34.8311C285.81 35.8185 285.466 38.6984 284.689 39.691L284.098 40.2721Z" fill="black"/>
<path d="M290.499 59.9948C290.499 59.9948 293.399 53.5406 290.114 48.7424L296.012 45.4871C296.012 45.4871 297.837 55.1246 302.033 63.3839C298.85 66.2021 290.967 66.1096 290.499 59.9948Z" fill="#FFC49C"/>
<path d="M290.114 48.7423C291.147 50.321 291.685 52.1731 291.656 54.0599C294.474 52.08 296.798 47.6675 296.798 47.6675L290.114 48.7423Z" fill="#FFC49C"/>
<path d="M297.364 48.5829C296.336 49.9252 291.677 53.7874 288.494 53.3708C284.463 52.8566 282.046 38.2974 285.409 35.5306C287.224 34.0443 292.258 34.3066 295.086 37.6237C297.914 40.9407 298.768 46.7932 297.364 48.5829Z" fill="#FFC49C"/>
<path d="M272.606 194.005C283.861 198.906 294.119 194.005 294.119 194.005L283.034 190.606L272.606 194.005Z" fill="#374263"/>
<path d="M327.712 188.343C327.712 188.343 320.765 197.08 306.954 194.771L307.175 186.167L327.712 188.343Z" fill="#374263"/>
<path d="M328.066 194.257L324.714 186.857L316.651 189.629L320.94 196.463C322.734 199.107 328.02 197.59 328.066 194.257Z" fill="#FFC49C"/>
<path d="M286.35 199.811L287.826 191.722H279.28L278.874 199.575C279.743 202.676 285.234 202.943 286.35 199.811Z" fill="#FFC49C"/>
<path d="M327.712 188.343C321.665 191.881 314.745 194.024 306.954 194.771C306.954 194.771 277.599 152.22 283.928 101.281H305.442C305.442 101.281 300.197 140.649 327.712 188.343Z" fill="#141414"/>
<path d="M290.155 158.921C293.008 167.688 296.591 176.199 300.866 184.368L307.843 136.365C306.689 130.616 305.878 124.802 305.416 118.957L303.226 110.43L290.155 158.921Z" fill="#141414"/>
<path d="M272.364 194.087C279.503 195.052 286.739 195.052 293.878 194.087L305.704 124.336C305.704 124.336 310.81 118.931 312.08 111.119C312.501 108.622 312.463 106.068 311.967 103.585C311.825 102.83 311.636 102.085 311.402 101.353L310.666 101.25L301.843 100.026L299.786 99.7432L283.661 97.5061L272.364 194.087Z" fill="#141414"/>
<path d="M287.46 102.309C292.798 108.65 306.624 110.594 312.059 111.119C312.48 108.622 312.442 106.068 311.946 103.585L310.645 101.25L301.827 100.031L299.77 99.7483L287.46 102.309Z" fill="#141414"/>
<path d="M281.568 100.731C282.911 101.54 284.316 102.243 285.769 102.834C287.893 103.699 290.071 104.425 292.289 105.009C303.308 107.987 315.731 108.486 315.731 108.486C311.103 92.9599 315.006 78.7864 311.756 67.5957C309.55 60.0101 302.418 56.4719 302.418 56.4719C300.007 58.0765 293.713 60.9461 291.044 58.529C290.965 58.4553 290.872 58.3988 290.77 58.363C290.668 58.3273 290.56 58.313 290.452 58.3212C290.344 58.3295 290.239 58.3599 290.144 58.4108C290.049 58.4616 289.965 58.5316 289.898 58.6165C278.791 73.0162 282.092 79.7687 282.185 90.4451C282.167 93.8823 281.961 97.3159 281.568 100.731Z" fill="#F9E006"/>
<path d="M305.656 124.215L297.041 177.772L297.599 177.862L306.214 124.305L305.656 124.215Z" fill="black"/>
<path d="M284.19 37.0528C283.676 35.4586 284.704 34.7849 285.851 33.566C286.998 32.3472 288.911 32.2495 290.525 32.5786C292.05 32.8365 293.466 33.5356 294.597 34.5894C296.515 36.5231 296.942 41.743 293.569 41.8973C288.232 42.139 285.064 39.7991 284.19 37.0528Z" fill="black"/>
<path d="M295.827 45.3789C295.096 43.2036 293.322 41.8767 291.97 40.0202L284.771 35.5408C286.54 32.8615 292.073 30.7426 295.688 32.0643C299.56 33.4786 301.812 37.4591 303.858 43.4144C304.801 46.0438 306.368 48.405 308.424 50.2954C318.754 60.1181 319.109 70.1774 312.815 74.1219C308.105 77.0687 304.285 75.387 301.971 73.7413C294.973 68.7734 294.994 50.424 295.827 45.3789Z" fill="black"/>
<path d="M289.173 43.3269C290.62 43.515 292.091 43.3905 293.487 42.9618L293.353 42.5606C293.317 42.5606 289.754 43.7178 287.147 42.1955C285.779 41.4035 284.884 40.0253 284.489 38.0813L284.072 38.1687C284.494 40.2258 285.455 41.7018 286.936 42.5555C287.628 42.9476 288.386 43.2091 289.173 43.3269Z" fill="#374263"/>
<path d="M293.322 43.8722C293.267 44.2422 293.322 44.6205 293.481 44.9592C293.64 45.298 293.896 45.5819 294.217 45.7751C294.537 45.9683 294.908 46.0621 295.281 46.0447C295.655 46.0274 296.015 45.8995 296.317 45.6774C296.618 45.4553 296.846 45.1488 296.973 44.7968C297.1 44.4448 297.12 44.063 297.03 43.6997C296.94 43.3364 296.745 43.0079 296.468 42.7558C296.192 42.5036 295.847 42.3391 295.477 42.2831C295.231 42.2444 294.98 42.255 294.738 42.3141C294.496 42.3733 294.268 42.4798 294.068 42.6276C293.867 42.7755 293.698 42.9616 293.57 43.1752C293.442 43.3888 293.358 43.6257 293.322 43.8722Z" fill="#FFC49C"/>
<path d="M313.494 208.328H323.562C323.704 208.329 323.844 208.3 323.974 208.244C324.104 208.189 324.221 208.107 324.318 208.004L333.728 198.145C333.902 197.966 334 197.726 334 197.476C334 197.226 333.902 196.987 333.728 196.808L329.414 192.642C328.899 192.128 327.655 192.236 327.712 192.982C327.989 196.582 323.711 197.209 321.089 196.633C320.928 196.599 320.76 196.628 320.619 196.713C320.478 196.797 320.374 196.932 320.328 197.091C319.953 198.443 319.469 201.549 318.852 202.377C317.757 203.848 316.106 204.177 314.8 204.851C314.167 205.139 313.673 205.667 313.428 206.319C313.183 206.971 313.207 207.693 313.494 208.328Z" fill="#F9E006"/>
<path d="M321.875 202.239C321.398 202.363 320.895 202.335 320.434 202.16C319.974 201.985 319.579 201.671 319.304 201.262L319.634 201.061C319.865 201.406 320.199 201.669 320.589 201.813C320.978 201.957 321.403 201.975 321.803 201.863L321.875 202.239Z" fill="white"/>
<path d="M320.806 204.028C320.347 204.133 319.868 204.101 319.427 203.938C318.986 203.774 318.602 203.486 318.322 203.108L318.646 202.892C318.885 203.204 319.209 203.442 319.579 203.576C319.949 203.71 320.35 203.735 320.734 203.648L320.806 204.028Z" fill="white"/>
<path d="M326.575 197.631C325.651 198 324.66 198.175 323.665 198.145L323.691 197.759C323.727 197.759 327.516 197.975 328.257 195.291L328.632 195.394C328.486 195.9 328.224 196.366 327.867 196.754C327.51 197.142 327.068 197.442 326.575 197.631Z" fill="white"/>
<path d="M331.179 198.396L323.393 206.332L323.668 206.602L331.455 198.667L331.179 198.396Z" fill="white"/>
<path d="M288.057 208.261L266.091 208.343C265.91 208.344 265.731 208.308 265.564 208.237C265.398 208.165 265.248 208.061 265.124 207.929C265 207.797 264.905 207.641 264.844 207.471C264.783 207.301 264.757 207.12 264.769 206.939V206.908C264.769 206.744 264.805 206.569 264.831 206.394C264.875 205.846 265.051 205.316 265.345 204.851C266.374 203.463 268.405 202.825 271.999 201.385C273.755 200.661 275.436 199.765 277.017 198.711C277.151 198.624 277.31 198.586 277.468 198.603C277.626 198.62 277.774 198.691 277.886 198.803C282.242 203.036 284.91 202.12 285.697 200.346C286.304 199.009 287.167 199.287 287.409 199.678C288.144 200.896 288.561 204.486 288.731 206.281C288.731 206.476 288.767 206.651 288.777 206.795L288.818 207.335C288.842 207.448 288.84 207.564 288.813 207.676C288.786 207.788 288.734 207.892 288.66 207.981C288.587 208.07 288.495 208.142 288.391 208.19C288.286 208.238 288.172 208.263 288.057 208.261Z" fill="#F9E006"/>
<path d="M273.238 203.694C272.795 203.485 272.429 203.144 272.189 202.717C271.95 202.29 271.849 201.8 271.901 201.313L272.276 201.37C272.231 201.776 272.316 202.187 272.518 202.542C272.72 202.898 273.03 203.181 273.403 203.35L273.238 203.694Z" fill="white"/>
<path d="M271.31 204.347C270.898 204.137 270.558 203.81 270.33 203.408C270.102 203.006 269.998 202.545 270.029 202.084L270.405 202.131C270.385 202.517 270.477 202.901 270.67 203.236C270.864 203.571 271.15 203.842 271.495 204.018L271.31 204.347Z" fill="white"/>
<path d="M283.702 203.344C282.725 203.319 281.764 203.091 280.879 202.676L281.054 202.336C281.085 202.336 284.427 204.018 286.129 201.874L286.427 202.115C286.1 202.518 285.683 202.839 285.21 203.052C284.737 203.265 284.22 203.366 283.702 203.344Z" fill="white"/>
<path d="M286.073 206.564L273.275 206.611L273.277 206.991L286.075 206.944L286.073 206.564Z" fill="white"/>
<path d="M271.635 206.617L268.607 206.628L268.608 207.008L271.637 206.997L271.635 206.617Z" fill="white"/>
<path d="M285.769 102.834C287.893 103.699 290.071 104.425 292.289 105.009C295.477 101.445 302.48 95.0067 303.138 80.0413L285.769 102.834Z" fill="#F9E006"/>
<path d="M278.719 106.562C299.549 101.836 303.138 80.0412 303.138 80.0412C303.138 80.0412 299.698 70.4499 295.487 70.0951H295.369C294.373 70.0183 293.371 70.1424 292.424 70.4601C291.476 70.7777 290.602 71.2825 289.854 71.9445C289.105 72.6064 288.497 73.412 288.066 74.3134C287.634 75.2148 287.388 76.1938 287.342 77.1921C286.977 84.7571 285.486 94.1632 276.076 99.7329L278.719 106.562Z" fill="#FDF4A4"/>
<path d="M276.179 99.9541L275.922 99.5118C284.597 94.369 285.795 86.0274 286.844 78.6681C286.921 78.1539 286.993 77.6396 287.065 77.151C287.445 74.5796 288.756 68.3209 292.649 65.5129L292.952 65.9295C289.214 68.6243 287.944 74.7288 287.574 77.2436C287.502 77.7579 287.43 78.2464 287.353 78.7556C286.34 85.8475 285.075 94.6879 276.179 99.9541Z" fill="black"/>
<path d="M297.03 94.6519L296.644 94.3124C300.243 90.1982 302.732 81.2447 302.758 81.1521L303.272 81.2909C303.154 81.6612 300.711 90.4554 297.03 94.6519Z" fill="black"/>
<path d="M291.163 111.52C290.988 111.433 286.838 109.314 286.299 105.549L286.813 105.477C287.327 108.974 291.358 111.037 291.399 111.057L291.163 111.52Z" fill="black"/>
<path d="M270.796 106.48C270.847 106.655 267.145 107.421 267.361 108.023C267.654 108.805 270.616 107.401 270.78 107.745C270.857 107.915 269.752 108.224 269.073 108.496C268.713 108.645 268.775 108.964 269.037 109.01C271.778 109.273 275.66 106.439 276.118 106.352C276.909 106.192 277.66 106.012 278.416 105.837L276.442 100.777C276.071 101.039 275.686 101.291 275.29 101.517C274.776 101.816 273.398 102.649 272.822 102.664C272.246 102.68 269.371 102.387 269.366 103.014C269.361 103.641 271.423 103.446 271.315 103.96C271.259 104.279 267.253 104.773 267.546 105.503C267.736 105.981 270.117 105.354 270.117 105.637C270.117 105.92 267.032 106.064 267.274 106.789C267.515 107.514 270.698 106.125 270.796 106.48Z" fill="#FFBB8D"/>
<path d="M210.877 145.576L204.614 170.472C204.601 170.538 204.611 170.608 204.645 170.667C204.662 170.695 204.684 170.72 204.711 170.739C204.737 170.759 204.767 170.773 204.799 170.78L212.27 172.657C212.305 172.665 212.342 172.666 212.377 172.66C212.412 172.654 212.446 172.641 212.476 172.621C212.506 172.601 212.531 172.574 212.549 172.543C212.568 172.512 212.58 172.477 212.584 172.441L216.338 146.913C216.346 146.85 216.332 146.786 216.297 146.733C216.262 146.68 216.209 146.642 216.147 146.625L211.191 145.401C211.126 145.384 211.057 145.394 210.999 145.426C210.941 145.458 210.897 145.512 210.877 145.576Z" fill="#5A77D1"/>
<path d="M210.147 145.293L209.396 145.107L210.481 140.793C211.114 138.262 209.376 135.65 206.609 134.945L205.468 134.657C204.154 134.318 202.761 134.485 201.565 135.125C201.006 135.414 200.514 135.818 200.122 136.31C199.729 136.802 199.445 137.371 199.287 137.98L198.207 142.294L197.457 142.109L198.541 137.794C198.725 137.082 199.056 136.415 199.513 135.839C199.97 135.262 200.543 134.788 201.195 134.447C202.564 133.722 204.155 133.538 205.653 133.932L206.794 134.22C209.977 135.017 211.967 138.062 211.227 140.998L210.147 145.293Z" fill="#374263"/>
<path d="M179.773 164.208C179.748 164.276 179.748 164.351 179.773 164.419C179.809 164.481 179.868 164.528 179.938 164.547L204.789 170.786C204.851 170.801 204.916 170.792 204.972 170.762C205.028 170.731 205.071 170.681 205.092 170.621L213.833 146.352C213.849 146.319 213.857 146.283 213.857 146.247C213.857 146.21 213.849 146.174 213.833 146.141C213.796 146.08 213.737 146.034 213.669 146.013L188.823 139.775C188.76 139.758 188.694 139.766 188.637 139.796C188.579 139.827 188.536 139.878 188.515 139.939L179.773 164.208Z" fill="#6D92F0"/>
<path d="M206.856 146.62L206.1 146.429L207.694 140.093C208.326 137.563 206.588 134.951 203.817 134.246L202.675 133.958C201.362 133.62 199.97 133.785 198.773 134.421C198.215 134.712 197.724 135.117 197.333 135.609C196.941 136.102 196.658 136.671 196.5 137.28L194.906 143.621L194.16 143.431L195.749 137.095C195.933 136.382 196.264 135.715 196.722 135.138C197.18 134.562 197.755 134.088 198.408 133.747C199.776 133.022 201.368 132.839 202.866 133.233L204.002 133.516C207.19 134.318 209.18 137.363 208.44 140.299L206.856 146.62Z" fill="#374263"/>
<path d="M240.088 113.192L226.976 154.879C226.958 154.944 226.966 155.013 226.998 155.072C227.029 155.131 227.082 155.176 227.146 155.198L237.188 158.36C237.259 158.38 237.335 158.371 237.399 158.335C237.429 158.317 237.454 158.293 237.475 158.264C237.495 158.236 237.509 158.204 237.517 158.17L247.287 115.444C247.303 115.381 247.293 115.315 247.26 115.259C247.228 115.203 247.174 115.163 247.112 115.146L240.428 113.027C240.365 113.004 240.295 113.004 240.232 113.027C240.166 113.063 240.115 113.121 240.088 113.192Z" fill="#7C94D1"/>
<path d="M238.108 112.585L237.466 112.384L239.25 106.727C239.762 105.085 239.602 103.307 238.808 101.782C238.013 100.256 236.647 99.1074 235.008 98.586L233.63 98.154C231.987 97.6395 230.208 97.7971 228.681 98.5923C227.154 99.3876 226.005 100.756 225.485 102.397L223.701 108.054L223.068 107.858L224.853 102.201C225.432 100.395 226.7 98.8904 228.382 98.0141C230.064 97.1378 232.024 96.9608 233.836 97.5215L235.214 97.9535C237.02 98.5326 238.524 99.8011 239.4 101.483C240.276 103.166 240.453 105.126 239.893 106.938L238.108 112.585Z" fill="#3F5A9F"/>
<path d="M193.554 144.331C193.54 144.364 193.532 144.4 193.532 144.436C193.532 144.473 193.54 144.508 193.554 144.542C193.569 144.573 193.591 144.601 193.617 144.624C193.644 144.647 193.675 144.665 193.708 144.675L227.13 155.198C227.193 155.217 227.26 155.212 227.319 155.184C227.377 155.157 227.424 155.108 227.449 155.048L243.903 114.421C243.917 114.387 243.925 114.351 243.925 114.315C243.925 114.279 243.917 114.243 243.903 114.21C243.867 114.15 243.813 114.103 243.749 114.076L210.327 103.554C210.265 103.532 210.198 103.536 210.139 103.564C210.08 103.592 210.035 103.642 210.013 103.703L193.554 144.331Z" fill="#9AADE5"/>
<path d="M233.918 114.184L233.28 113.983L235.923 105.657C236.438 104.014 236.28 102.235 235.485 100.708C234.69 99.1807 233.322 98.0313 231.681 97.5112L230.267 97.0586C228.624 96.5428 226.843 96.7005 225.316 97.497C223.789 98.2934 222.64 99.6636 222.122 101.307L219.505 109.633L218.867 109.432L221.485 101.101C222.064 99.2945 223.332 97.7898 225.014 96.9135C226.696 96.0372 228.656 95.8602 230.468 96.4209L231.846 96.8529C233.652 97.432 235.156 98.7005 236.032 100.383C236.908 102.065 237.085 104.025 236.525 105.837L233.918 114.184Z" fill="#3F5A9F"/>
<path d="M198.937 117.496L204.419 142.577C204.434 142.643 204.475 142.701 204.532 142.737C204.589 142.772 204.656 142.784 204.722 142.773L212.27 141.127C212.306 141.119 212.34 141.103 212.369 141.081C212.398 141.059 212.422 141.031 212.44 140.998C212.454 140.966 212.462 140.931 212.462 140.896C212.462 140.86 212.454 140.825 212.44 140.793L204.434 116.267C204.413 116.206 204.371 116.155 204.315 116.123C204.259 116.091 204.194 116.08 204.131 116.092L199.138 117.187C199.071 117.202 199.012 117.243 198.974 117.301C198.937 117.358 198.924 117.429 198.937 117.496Z" fill="#F49B51"/>
<path d="M185.429 120.356L184.504 116.01C184.351 115.297 184.351 114.56 184.502 113.846C184.654 113.133 184.954 112.459 185.383 111.87C186.271 110.617 187.599 109.745 189.101 109.427L190.253 109.175C191.751 108.837 193.322 109.074 194.654 109.839C195.289 110.197 195.841 110.684 196.276 111.268C196.711 111.853 197.018 112.522 197.179 113.233L198.135 117.578L197.482 117.722L196.526 113.377C196.38 112.754 196.104 112.17 195.716 111.662C195.328 111.154 194.836 110.734 194.274 110.43C193.088 109.747 191.689 109.536 190.355 109.839L189.204 110.091C187.865 110.375 186.682 111.151 185.887 112.266C185.514 112.779 185.252 113.364 185.119 113.984C184.987 114.604 184.985 115.245 185.116 115.866L186.067 120.212L185.429 120.356Z" fill="#3F5A9F"/>
<path d="M179.388 148.034C179.4 148.105 179.438 148.169 179.496 148.214C179.524 148.234 179.557 148.248 179.592 148.255C179.626 148.262 179.662 148.262 179.696 148.255L204.727 142.768C204.79 142.756 204.845 142.721 204.882 142.669C204.918 142.617 204.933 142.553 204.922 142.49L201.945 116.863C201.942 116.827 201.931 116.792 201.912 116.761C201.894 116.73 201.868 116.703 201.837 116.683C201.808 116.664 201.775 116.65 201.741 116.643C201.707 116.636 201.671 116.636 201.637 116.642L176.611 122.119C176.548 122.135 176.494 122.173 176.457 122.226C176.42 122.279 176.404 122.343 176.41 122.407L179.388 148.034Z" fill="#FCC659"/>
<path d="M183.069 123.009L181.671 116.627C181.519 115.914 181.519 115.177 181.671 114.464C181.822 113.75 182.122 113.077 182.55 112.487C183.44 111.234 184.769 110.361 186.273 110.044L187.419 109.792C188.92 109.451 190.493 109.688 191.826 110.456C192.461 110.812 193.014 111.298 193.449 111.882C193.884 112.466 194.191 113.134 194.351 113.845L195.749 120.232L195.096 120.371L193.698 113.989C193.557 113.368 193.288 112.784 192.907 112.275C192.526 111.765 192.042 111.342 191.487 111.032C190.308 110.351 188.918 110.137 187.589 110.43L186.443 110.682C185.103 110.962 183.919 111.737 183.126 112.852C182.753 113.365 182.492 113.95 182.358 114.57C182.224 115.19 182.221 115.831 182.35 116.452L183.748 122.834L183.069 123.009Z" fill="#3F5A9F"/>
<path d="M233.239 193.64H171.274V192.869H233.239C233.84 192.869 234.427 192.69 234.925 192.354C235.423 192.017 235.808 191.539 236.031 190.981C236.288 190.397 236.364 189.75 236.25 189.122C236.137 188.495 235.838 187.915 235.394 187.458L224.781 173.264L225.398 172.807L235.98 186.96C236.522 187.522 236.884 188.234 237.019 189.003C237.155 189.773 237.058 190.565 236.741 191.279C236.46 191.978 235.976 192.576 235.352 192.997C234.728 193.418 233.992 193.642 233.239 193.64Z" fill="white"/>
<path d="M183.697 208.343C186.755 208.343 189.234 205.863 189.234 202.804C189.234 199.745 186.755 197.266 183.697 197.266C180.638 197.266 178.159 199.745 178.159 202.804C178.159 205.863 180.638 208.343 183.697 208.343Z" fill="#141414"/>
<path d="M178.565 193.794L181.902 203.565C182.033 203.951 182.282 204.286 182.613 204.523C182.944 204.76 183.341 204.887 183.748 204.887C183.961 204.888 184.173 204.853 184.375 204.784C184.865 204.617 185.269 204.262 185.497 203.797C185.726 203.332 185.761 202.796 185.594 202.305L182.694 193.815L178.565 193.794Z" fill="#333333"/>
<path d="M182.375 202.917C182.376 203.179 182.455 203.434 182.6 203.65C182.746 203.867 182.953 204.036 183.195 204.135C183.436 204.234 183.702 204.259 183.958 204.208C184.214 204.156 184.449 204.03 184.633 203.845C184.817 203.66 184.943 203.424 184.993 203.168C185.044 202.912 185.017 202.647 184.917 202.405C184.817 202.164 184.648 201.958 184.43 201.813C184.213 201.668 183.958 201.591 183.697 201.591C183.523 201.591 183.35 201.625 183.19 201.692C183.029 201.758 182.883 201.856 182.76 201.98C182.638 202.103 182.54 202.249 182.474 202.41C182.408 202.571 182.375 202.743 182.375 202.917Z" fill="white"/>
<path d="M224.323 208.343C227.381 208.343 229.861 205.863 229.861 202.804C229.861 199.745 227.381 197.266 224.323 197.266C221.265 197.266 218.785 199.745 218.785 202.804C218.785 205.863 221.265 208.343 224.323 208.343Z" fill="#141414"/>
<path d="M219.197 193.794L222.534 203.565C222.664 203.951 222.912 204.287 223.244 204.524C223.575 204.761 223.972 204.888 224.38 204.887C224.593 204.888 224.805 204.853 225.007 204.784C225.496 204.616 225.899 204.261 226.127 203.796C226.356 203.332 226.391 202.796 226.226 202.305L223.32 193.815L219.197 193.794Z" fill="#333333"/>
<path d="M223.001 202.917C223.002 203.179 223.081 203.434 223.227 203.65C223.373 203.867 223.579 204.036 223.821 204.135C224.062 204.234 224.328 204.259 224.584 204.208C224.84 204.156 225.075 204.03 225.259 203.845C225.443 203.66 225.569 203.424 225.619 203.168C225.67 202.912 225.643 202.647 225.543 202.405C225.443 202.164 225.274 201.958 225.057 201.813C224.839 201.668 224.584 201.591 224.323 201.591C224.149 201.591 223.977 201.625 223.816 201.692C223.655 201.758 223.509 201.856 223.387 201.98C223.264 202.103 223.167 202.249 223.101 202.41C223.034 202.571 223.001 202.743 223.001 202.917Z" fill="white"/>
<path d="M248.027 131.814L247.307 131.536L257.447 105.678L267.767 104.737L267.839 105.503L257.992 106.403L248.027 131.814Z" fill="white"/>
<path d="M227.228 173.383H226.986L172.96 171.439C169.16 171.3 166.044 168.055 165.705 163.884L163.103 131.711L163.484 131.68L250.896 124.177L234.195 168.286C233.013 171.361 230.267 173.383 227.228 173.383ZM163.936 132.41L166.482 163.817C166.785 167.597 169.567 170.539 172.991 170.662L227.017 172.606C229.804 172.719 232.385 170.857 233.465 168.008L249.734 125.046L163.936 132.41Z" fill="white"/>
<path d="M229.948 156.876L166.088 158.95L166.113 159.721L229.973 157.647L229.948 156.876Z" fill="white"/>
<path d="M239.132 140.705L165.365 145.127L165.411 145.897L239.178 141.475L239.132 140.705Z" fill="white"/>
<path d="M232.97 126.065L217.64 172.02L218.372 172.264L233.701 126.309L232.97 126.065Z" fill="white"/>
<path d="M178.623 130.827L177.854 130.881L180.686 171.091L181.456 171.036L178.623 130.827Z" fill="white"/>
<path d="M214.268 127.653L205.301 171.775L206.057 171.929L215.024 127.806L214.268 127.653Z" fill="white"/>
<path d="M195.828 129.036L193.255 171.844L194.025 171.89L196.598 129.082L195.828 129.036Z" fill="white"/>
<path d="M264.286 108.563L269.34 108.075C270.094 108.002 270.788 107.632 271.27 107.048C271.752 106.464 271.983 105.712 271.911 104.958C271.838 104.205 271.47 103.512 270.887 103.03C270.304 102.548 269.554 102.316 268.8 102.387L263.741 102.87C262.988 102.946 262.296 103.315 261.814 103.899C261.333 104.483 261.101 105.233 261.17 105.987C261.243 106.741 261.612 107.436 262.196 107.919C262.78 108.402 263.531 108.633 264.286 108.563Z" fill="white"/>
<path d="M62.7432 211.228C62.7432 212.653 73.1916 213.8 86.0721 213.8C98.9526 213.8 109.401 212.642 109.401 211.228C109.403 211.203 109.403 211.177 109.401 211.151V204.188H62.7586V211.146C62.7495 211.172 62.7443 211.2 62.7432 211.228Z" fill="#F49B51"/>
<path d="M62.7432 204.249C62.7432 205.674 73.1916 206.821 86.0721 206.821C98.9526 206.821 109.401 205.664 109.401 204.249C109.401 202.835 98.9577 201.678 86.0721 201.678C73.1864 201.678 62.7432 202.825 62.7432 204.249Z" fill="#FCC659"/>
<path d="M57.2312 202.825C57.2312 204.244 67.6796 205.396 80.5601 205.396C93.4406 205.396 103.889 204.234 103.889 202.825C103.892 202.799 103.892 202.773 103.889 202.748V195.8H57.2466V202.758C57.2386 202.78 57.2335 202.802 57.2312 202.825Z" fill="#F49B51"/>
<path d="M80.5601 198.418C93.4443 198.418 103.889 197.262 103.889 195.836C103.889 194.41 93.4443 193.254 80.5601 193.254C67.6759 193.254 57.2312 194.41 57.2312 195.836C57.2312 197.262 67.6759 198.418 80.5601 198.418Z" fill="#FCC659"/>
<path d="M62.7432 194.411C62.7432 195.831 73.1915 196.983 86.0721 196.983C98.9526 196.983 109.401 195.826 109.401 194.411C109.404 194.386 109.404 194.36 109.401 194.334V187.355H62.7586V194.314C62.7485 194.345 62.7433 194.378 62.7432 194.411Z" fill="#F49B51"/>
<path d="M86.0721 190.004C98.9563 190.004 109.401 188.848 109.401 187.422C109.401 185.996 98.9563 184.841 86.0721 184.841C73.1879 184.841 62.7432 185.996 62.7432 187.422C62.7432 188.848 73.1879 190.004 86.0721 190.004Z" fill="#FCC659"/>
<path d="M54.4751 185.993C54.4751 187.417 64.9235 188.564 77.804 188.564C90.6845 188.564 101.133 187.407 101.133 185.993C101.135 185.967 101.135 185.941 101.133 185.915V178.942H54.4905V185.9C54.4808 185.93 54.4756 185.961 54.4751 185.993Z" fill="#F49B51"/>
<path d="M77.804 181.59C90.6882 181.59 101.133 180.434 101.133 179.009C101.133 177.583 90.6882 176.427 77.804 176.427C64.9198 176.427 54.4751 177.583 54.4751 179.009C54.4751 180.434 64.9198 181.59 77.804 181.59Z" fill="#FCC659"/>
<path d="M58.8047 179.009C58.8047 179.965 67.3094 180.742 77.8298 180.742C88.3502 180.742 96.8549 179.965 96.8549 179.009C96.8549 178.052 88.345 177.271 77.8298 177.271C67.3146 177.271 58.8047 178.047 58.8047 179.009Z" fill="#F49B51"/>
<path d="M24.2046 169.87C19.5456 169.744 14.9537 171.002 11.0097 173.485C7.06558 175.969 3.94643 179.567 2.04663 183.823C0.146829 188.08 -0.448297 192.804 0.336503 197.399C1.1213 201.994 3.25078 206.253 6.45566 209.638C9.66055 213.022 13.7969 215.38 18.3417 216.414C22.8864 217.447 27.6355 217.109 31.9883 215.443C36.3412 213.777 40.1023 210.857 42.7961 207.053C45.4898 203.249 46.9953 198.732 47.1221 194.072C47.2908 187.823 44.9713 181.763 40.6737 177.225C36.376 172.686 30.4521 170.041 24.2046 169.87ZM42.5253 193.948C42.4232 197.676 41.2248 201.29 39.08 204.34C36.9352 207.39 33.939 209.74 30.4662 211.097C26.9933 212.453 23.1978 212.755 19.5542 211.966C15.9105 211.176 12.5803 209.33 9.97992 206.658C7.37954 203.986 5.62434 200.607 4.93375 196.942C4.24315 193.278 4.64779 189.491 6.0971 186.056C7.5464 182.62 9.97605 179.688 13.0823 177.626C16.1886 175.564 19.8337 174.464 23.5619 174.463H24.076C29.0127 174.6 33.7013 176.657 37.1461 180.197C40.5908 183.736 42.5205 188.479 42.5253 193.419C42.5304 193.604 42.5304 193.774 42.5253 193.948Z" fill="#FCC659"/>
<path d="M42.5355 193.429C42.5355 193.604 42.5355 193.774 42.5355 193.943C42.4354 197.672 41.2385 201.289 39.0946 204.341C36.9506 207.393 33.9547 209.745 30.4813 211.103C27.0079 212.462 23.2113 212.766 19.566 211.978C15.9208 211.19 12.5887 209.344 9.98638 206.672C7.38406 204.001 5.62696 200.621 4.93479 196.955C4.24262 193.29 4.64608 189.502 6.09474 186.065C7.54339 182.628 9.97296 179.694 13.0797 177.63C16.1864 175.567 19.8324 174.465 23.5618 174.463H24.076C29.0158 174.599 33.7078 176.657 37.1547 180.199C40.6017 183.74 42.532 188.487 42.5355 193.429Z" fill="#F49B51"/>
<path d="M22.3639 207.942V204.373C20.4542 204.37 18.5829 203.836 16.9597 202.83L17.8081 200.464C19.3198 201.457 21.0854 201.992 22.8935 202.007C25.4027 202.007 27.0996 200.562 27.0996 198.546C27.0996 196.53 25.7215 195.399 23.1094 194.339C19.5101 192.925 17.2785 191.3 17.2785 188.225C17.2785 185.293 19.361 183.082 22.6107 182.537V178.968H24.8011V182.393C26.4142 182.405 27.997 182.832 29.398 183.632L28.5136 185.962C27.1667 185.163 25.6266 184.748 24.0607 184.763C21.3406 184.763 20.3174 186.389 20.3174 187.803C20.3174 189.639 21.6234 190.559 24.6983 191.83C28.3388 193.316 30.1744 195.152 30.1744 198.299C30.1744 201.092 28.2308 203.704 24.5903 204.306V207.983L22.3639 207.942Z" fill="#FCC659"/>
<path d="M9.4729 180.089C11.2652 181.005 12.6936 182.503 13.5247 184.337C14.357 182.501 15.7848 181.001 17.5766 180.078C15.7865 179.159 14.3589 177.662 13.5247 175.831C12.6911 177.665 11.2637 179.165 9.4729 180.089Z" fill="#FFE6A6"/>
<path d="M32.7197 205.319C33.7612 205.852 34.5914 206.722 35.0747 207.788C35.5589 206.716 36.3955 205.843 37.4452 205.314C36.4037 204.781 35.5735 203.911 35.0902 202.845C34.6018 203.914 33.7664 204.786 32.7197 205.319Z" fill="#FFE6A6"/>
<path d="M7.86353 200.943C8.90503 201.475 9.7352 202.346 10.2185 203.411C10.6988 202.342 11.5297 201.47 12.5735 200.938C11.532 200.405 10.7019 199.535 10.2185 198.469C9.73411 199.535 8.90441 200.407 7.86353 200.943Z" fill="#FFE6A6"/>
</svg>
