<svg width="56" height="55" viewBox="0 0 56 55" fill="none" xmlns="http://www.w3.org/2000/svg">
<path fill-rule="evenodd" clip-rule="evenodd" d="M41.7803 34.6555C42.9188 34.6555 43.8428 33.7315 43.8428 32.593V27.5C43.8428 26.3615 42.9188 25.4375 41.7803 25.4375H26.1273C25.2362 22.5033 22.5357 20.3472 19.3127 20.3472C15.3693 20.3472 12.16 23.5565 12.16 27.5C12.16 31.4463 15.3693 34.6555 19.3127 34.6555C22.5357 34.6555 25.2362 32.4995 26.1273 29.5625H31.9352V32.593C31.9352 33.7315 32.8592 34.6555 33.9977 34.6555C35.1362 34.6555 36.0602 33.7315 36.0602 32.593V29.5625H39.7178V32.593C39.7178 33.7315 40.6418 34.6555 41.7803 34.6555ZM16.0815 0H39.9212C49.2383 0 55.5 6.5395 55.5 16.2717V38.731C55.5 48.4632 49.2383 55 39.9185 55H16.0815C6.76175 55 0.5 48.4632 0.5 38.731V16.2717C0.5 6.5395 6.76175 0 16.0815 0ZM16.2825 27.5025C16.2825 25.8305 17.6438 24.472 19.313 24.472C20.9823 24.472 22.3435 25.8305 22.3435 27.5025C22.3435 29.1717 20.9823 30.5302 19.313 30.5302C17.6438 30.5302 16.2825 29.1717 16.2825 27.5025Z" fill="#3063E9"/>
<path d="M26.1273 25.4375L25.6488 25.5828L25.7565 25.9375H26.1273V25.4375ZM26.1273 29.5625V29.0625H25.7564L25.6488 29.4173L26.1273 29.5625ZM31.9352 29.5625H32.4352V29.0625H31.9352V29.5625ZM36.0602 29.5625V29.0625H35.5602V29.5625H36.0602ZM39.7178 29.5625H40.2178V29.0625H39.7178V29.5625ZM43.3428 32.593C43.3428 33.4554 42.6426 34.1555 41.7803 34.1555V35.1555C43.1949 35.1555 44.3428 34.0076 44.3428 32.593H43.3428ZM43.3428 27.5V32.593H44.3428V27.5H43.3428ZM41.7803 25.9375C42.6426 25.9375 43.3428 26.6376 43.3428 27.5H44.3428C44.3428 26.0854 43.1949 24.9375 41.7803 24.9375V25.9375ZM26.1273 25.9375H41.7803V24.9375H26.1273V25.9375ZM19.3127 20.8472C22.305 20.8472 24.8187 22.8489 25.6488 25.5828L26.6057 25.2922C25.6538 22.1576 22.7665 19.8472 19.3127 19.8472V20.8472ZM12.66 27.5C12.66 23.8326 15.6454 20.8472 19.3127 20.8472V19.8472C15.0931 19.8472 11.66 23.2804 11.66 27.5H12.66ZM19.3127 34.1555C15.6455 34.1555 12.66 31.1702 12.66 27.5H11.66C11.66 31.7223 15.093 35.1555 19.3127 35.1555V34.1555ZM25.6488 29.4173C24.8186 32.1539 22.3049 34.1555 19.3127 34.1555V35.1555C22.7666 35.1555 25.6539 32.8451 26.6057 29.7077L25.6488 29.4173ZM31.9352 29.0625H26.1273V30.0625H31.9352V29.0625ZM32.4352 32.593V29.5625H31.4352V32.593H32.4352ZM33.9977 34.1555C33.1354 34.1555 32.4352 33.4554 32.4352 32.593H31.4352C31.4352 34.0076 32.5831 35.1555 33.9977 35.1555V34.1555ZM35.5602 32.593C35.5602 33.4554 34.8601 34.1555 33.9977 34.1555V35.1555C35.4124 35.1555 36.5602 34.0076 36.5602 32.593H35.5602ZM35.5602 29.5625V32.593H36.5602V29.5625H35.5602ZM39.7178 29.0625H36.0602V30.0625H39.7178V29.0625ZM40.2178 32.593V29.5625H39.2178V32.593H40.2178ZM41.7803 34.1555C40.9179 34.1555 40.2178 33.4554 40.2178 32.593H39.2178C39.2178 34.0076 40.3656 35.1555 41.7803 35.1555V34.1555ZM39.9212 -0.5H16.0815V0.5H39.9212V-0.5ZM56 16.2717C56 11.2974 54.3981 7.09885 51.5657 4.1405C48.7314 1.18024 44.7011 -0.5 39.9212 -0.5V0.5C44.4584 0.5 48.2175 2.08951 50.8433 4.83207C53.471 7.57652 55 11.5139 55 16.2717H56ZM56 38.731V16.2717H55V38.731H56ZM39.9185 55.5C44.6996 55.5 48.7306 53.8205 51.5652 50.8609C54.3981 47.9033 56 43.7054 56 38.731H55C55 43.4889 53.471 47.4255 50.8431 50.1692C48.2169 52.9111 44.4571 54.5 39.9185 54.5V55.5ZM16.0815 55.5H39.9185V54.5H16.0815V55.5ZM0 38.731C0 43.7054 1.60189 47.9033 4.43475 50.8609C7.26942 53.8205 11.3004 55.5 16.0815 55.5V54.5C11.5429 54.5 7.78308 52.9111 5.15693 50.1692C2.52899 47.4255 1 43.4889 1 38.731H0ZM0 16.2717V38.731H1V16.2717H0ZM16.0815 -0.5C11.3003 -0.5 7.26935 1.18022 4.43471 4.14047C1.60188 7.09884 0 11.2974 0 16.2717H1C1 11.5139 2.52899 7.57654 5.15698 4.83209C7.78315 2.08953 11.543 0.5 16.0815 0.5V-0.5ZM19.313 23.972C17.3679 23.972 15.7825 25.554 15.7825 27.5025H16.7825C16.7825 26.1069 17.9196 24.972 19.313 24.972V23.972ZM22.8435 27.5025C22.8435 25.554 21.2581 23.972 19.313 23.972V24.972C20.7064 24.972 21.8435 26.1069 21.8435 27.5025H22.8435ZM19.313 31.0302C21.2578 31.0302 22.8435 29.4485 22.8435 27.5025H21.8435C21.8435 28.895 20.7067 30.0302 19.313 30.0302V31.0302ZM15.7825 27.5025C15.7825 29.4485 17.3682 31.0302 19.313 31.0302V30.0302C17.9193 30.0302 16.7825 28.895 16.7825 27.5025H15.7825Z" fill="#3063E9"/>
</svg>
