<svg width="19" height="17" viewBox="0 0 19 17" fill="none" xmlns="http://www.w3.org/2000/svg">
<path d="M0.361328 16.7229H8.80057V9.24194H0.361328V16.7229ZM2.04903 10.7383H7.11268V15.2155H2.04903V10.7383Z" fill="white"/>
<path d="M3.73828 12.2347H5.42598V13.731H3.73828V12.2347Z" fill="white"/>
<path d="M13.8633 15.2269H15.5514V16.7232H13.8633V15.2269Z" fill="white"/>
<path d="M17.2383 15.2269H18.9266V16.7232H17.2383V15.2269Z" fill="white"/>
<path d="M17.2398 10.7382H15.5519V9.24183H10.4883V16.7228H12.1764V12.2341H13.8639V13.7304H18.9275V9.2417H17.2396L17.2398 10.7382Z" fill="white"/>
<path d="M0.361328 7.74593H8.80057V0.264954H0.361328V7.74593ZM2.04903 1.76088H7.11268V6.24956L2.04903 6.24938V1.76088Z" fill="white"/>
<path d="M3.73828 3.25739H5.42598V4.75362H3.73828V3.25739Z" fill="white"/>
<path d="M10.4883 0.265015V7.74599H18.928V0.265015H10.4883ZM17.24 6.24962H12.1763V1.76094H17.24V6.24962Z" fill="white"/>
<path d="M13.8633 3.25739H15.5514V4.75362H13.8633V3.25739Z" fill="white"/>
</svg>
