<svg width="341" height="341" viewBox="0 0 341 341" fill="none" xmlns="http://www.w3.org/2000/svg">
<path d="M6.82096 66.9061C10.5716 66.9061 13.64 63.8377 13.64 60.0871V13.6416H60.0833C63.8339 13.6416 66.9023 10.5731 66.9023 6.82255C66.9023 3.07195 63.8339 0.00354004 60.0833 0.00354004H6.82096C3.07036 0.00354004 0.00195312 3.07195 0.00195312 6.82255V60.0878C0.00195312 63.8384 3.07036 66.9068 6.82096 66.9068V66.9061Z" fill="#F9E006"/>
<path d="M334.181 274.093C330.43 274.093 327.362 277.162 327.362 280.912V327.358H280.919C277.168 327.358 274.1 330.426 274.1 334.177C274.1 337.928 277.168 340.996 280.919 340.996H334.181C337.932 340.996 341 337.928 341 334.177V280.912C341 277.161 337.932 274.093 334.181 274.093V274.093Z" fill="#F9E006"/>
<path d="M60.0835 327.362H13.638V280.919C13.638 277.168 10.5696 274.1 6.81901 274.1C3.06841 274.1 0 277.168 0 280.919V334.181C0 337.932 3.06841 341 6.81901 341H60.0843C63.8349 341 66.9033 337.932 66.9033 334.181C66.9033 330.43 63.8349 327.362 60.0843 327.362H60.0835Z" fill="#F9E006"/>
<path d="M334.182 0H280.917C277.167 0 274.098 3.06841 274.098 6.81901C274.098 10.5696 277.167 13.638 280.917 13.638H327.363V60.0814C327.363 63.832 330.431 66.9004 334.182 66.9004C337.932 66.9004 341.001 63.832 341.001 60.0814V6.81901C341.001 3.06841 337.932 0 334.182 0H334.182Z" fill="#F9E006"/>
</svg>
