<svg width="24" height="25" viewBox="0 0 24 25" fill="none" xmlns="http://www.w3.org/2000/svg">
<path d="M4.86636 9.03873V16.9638C4.86636 17.2277 4.65039 17.4437 4.38641 17.4437C4.12242 17.4437 3.90645 17.2277 3.90645 16.9638L3.90625 9.03873C3.90625 8.76992 4.12222 8.55878 4.38621 8.55878C4.65019 8.55878 4.86636 8.76993 4.86636 9.03873Z" fill="white"/>
<path d="M10.7033 9.03873V14.6648C10.7033 14.9288 10.4873 15.1447 10.2233 15.1447C9.95933 15.1447 9.74336 14.9288 9.74336 14.6648L9.74316 9.03873C9.74316 8.76992 9.95913 8.55878 10.2231 8.55878C10.4873 8.55878 10.7033 8.76993 10.7033 9.03873Z" fill="white"/>
<path d="M16.382 9.03873V14.6648C16.382 14.9288 16.1708 15.1447 15.902 15.1447C15.638 15.1447 15.4221 14.9288 15.4221 14.6648L15.4219 9.03873C15.4219 8.76992 15.6378 8.55878 15.9018 8.55878C16.1706 8.55878 16.382 8.76993 16.382 9.03873Z" fill="white"/>
<path d="M13.6798 9.03873V14.6648C13.6798 14.9288 13.4639 15.1447 13.1999 15.1447C12.9359 15.1447 12.7199 14.9288 12.7199 14.6648L12.7197 9.03873C12.7197 8.76992 12.9357 8.55878 13.1997 8.55878C13.4637 8.55878 13.6798 8.76993 13.6798 9.03873H13.6798Z" fill="white"/>
<path d="M20.0929 9.03873V16.9638C20.0929 17.2277 19.8818 17.4437 19.613 17.4437C19.349 17.4437 19.133 17.2277 19.133 16.9638L19.1328 9.03873C19.1328 8.76992 19.3488 8.55878 19.6128 8.55878C19.8818 8.55878 20.0929 8.76993 20.0929 9.03873Z" fill="white"/>
<path d="M7.65054 9.03873V14.6648C7.65054 14.9288 7.43457 15.1447 7.17059 15.1447C6.90178 15.1447 6.69063 14.9288 6.69063 14.6648L6.69043 9.03873C6.69043 8.76992 6.90158 8.55878 7.17039 8.55878C7.43437 8.55878 7.65054 8.76993 7.65054 9.03873Z" fill="white"/>
<path d="M0.478979 5.70753C0.742965 5.70753 0.958934 5.49156 0.958934 5.22757V1.95851H4.22785C4.49183 1.95851 4.7078 1.74254 4.7078 1.47855C4.7078 1.21457 4.49183 0.998596 4.22785 0.998596H0.478979C0.214993 0.998596 -0.000976562 1.21457 -0.000976562 1.47855V5.22762C-0.000976562 5.49161 0.214993 5.70758 0.478979 5.70758V5.70753Z" fill="white"/>
<path d="M23.5208 20.2903C23.2568 20.2903 23.0409 20.5063 23.0409 20.7703V24.0394H19.7719C19.508 24.0394 19.292 24.2553 19.292 24.5193C19.292 24.7833 19.508 24.9993 19.7719 24.9993H23.5208C23.7848 24.9993 24.0008 24.7833 24.0008 24.5193V20.7702C24.0008 20.5063 23.7848 20.2903 23.5208 20.2903V20.2903Z" fill="white"/>
<path d="M4.228 24.0396H0.958934V20.7707C0.958934 20.5067 0.742965 20.2908 0.478979 20.2908C0.214993 20.2908 -0.000976562 20.5067 -0.000976562 20.7707V24.5196C-0.000976562 24.7836 0.214993 24.9995 0.478979 24.9995H4.22805C4.49204 24.9995 4.70801 24.7836 4.70801 24.5196C4.70801 24.2556 4.49204 24.0396 4.22805 24.0396H4.228Z" fill="white"/>
<path d="M23.52 0.998413H19.771C19.507 0.998413 19.291 1.21438 19.291 1.47837C19.291 1.74235 19.507 1.95832 19.771 1.95832H23.04V5.22724C23.04 5.49122 23.256 5.70719 23.52 5.70719C23.784 5.70719 23.9999 5.49122 23.9999 5.22724V1.47837C23.9999 1.21438 23.784 0.998413 23.52 0.998413H23.52Z" fill="white"/>
</svg>
