<svg width="105" height="20" viewBox="0 0 105 20" fill="none" xmlns="http://www.w3.org/2000/svg">
<path d="M6.03738 12.3178L8.53166 9.07598L11.3768 11.3109L13.8177 8.16064" stroke="#3063E9" stroke-width="1.5" stroke-linecap="round" stroke-linejoin="round"/>
<ellipse cx="16.6629" cy="3.50027" rx="1.60183" ry="1.60183" stroke="#3063E9" stroke-width="1.5" stroke-linecap="round" stroke-linejoin="round"/>
<path d="M12.4371 2.6001H6.38063C3.8711 2.6001 2.31503 4.37737 2.31503 6.8869V13.6222C2.31503 16.1318 3.84059 17.9014 6.38063 17.9014H13.5507C16.0603 17.9014 17.6163 16.1318 17.6163 13.6222V7.75647" stroke="#3063E9" stroke-width="1.5" stroke-linecap="round" stroke-linejoin="round"/>
<path d="M25.14 5.7H32.798V6.932H29.634V15.5H28.29V6.932H25.14V5.7ZM34.8905 9.69C35.1331 9.158 35.4785 8.75667 35.9265 8.486C36.3745 8.206 36.9065 8.06133 37.5225 8.052V9.312C36.7665 9.284 36.1551 9.48 35.6885 9.9C35.2218 10.32 34.9558 10.8847 34.8905 11.594V15.5H33.5885V8.094H34.8905V9.69ZM43.128 15.5V14.464C42.5774 15.192 41.714 15.556 40.538 15.556C40.0247 15.556 39.572 15.458 39.18 15.262C38.7974 15.066 38.4987 14.7953 38.284 14.45C38.0787 14.1047 37.976 13.7173 37.976 13.288C37.976 12.6253 38.2187 12.1027 38.704 11.72C39.1987 11.328 39.8847 11.1273 40.762 11.118H43.114V10.768C43.114 10.2453 42.9507 9.844 42.624 9.564C42.3067 9.27467 41.84 9.13 41.224 9.13C40.4774 9.13 39.7167 9.396 38.942 9.928L38.396 9.032C38.928 8.68667 39.418 8.43933 39.866 8.29C40.3234 8.13133 40.8647 8.052 41.49 8.052C42.414 8.052 43.128 8.28067 43.632 8.738C44.136 9.186 44.3927 9.816 44.402 10.628L44.416 15.5H43.128ZM40.804 14.478C41.4107 14.478 41.924 14.3333 42.344 14.044C42.7734 13.7453 43.03 13.3533 43.114 12.868V12.126H40.944C40.356 12.126 39.9174 12.2147 39.628 12.392C39.348 12.5693 39.208 12.8493 39.208 13.232C39.208 13.6147 39.3527 13.918 39.642 14.142C39.9314 14.366 40.3187 14.478 40.804 14.478ZM50.8568 8.052C51.7248 8.052 52.4061 8.30867 52.9008 8.822C53.3955 9.326 53.6428 10.026 53.6428 10.922V15.5H52.3408V11.272C52.3408 10.6467 52.1635 10.1613 51.8088 9.816C51.4635 9.46133 50.9828 9.284 50.3668 9.284C49.7041 9.29333 49.1628 9.508 48.7428 9.928C48.3321 10.3387 48.0988 10.8753 48.0428 11.538V15.5H46.7408V8.094H48.0428V9.662C48.5375 8.60733 49.4755 8.07067 50.8568 8.052ZM60.0153 9.732C59.7073 9.54533 59.3666 9.396 58.9933 9.284C58.6293 9.172 58.2793 9.116 57.9433 9.116C57.5513 9.116 57.234 9.19067 56.9913 9.34C56.758 9.48 56.6413 9.69933 56.6413 9.998C56.6413 10.2967 56.772 10.5253 57.0333 10.684C57.304 10.8333 57.71 10.9873 58.2513 11.146C58.7646 11.2953 59.1846 11.4447 59.5113 11.594C59.838 11.7433 60.1133 11.9627 60.3373 12.252C60.5706 12.5413 60.6873 12.924 60.6873 13.4C60.6873 14.1 60.4213 14.632 59.8893 14.996C59.3666 15.36 58.7133 15.542 57.9293 15.542C57.3786 15.542 56.842 15.4533 56.3193 15.276C55.806 15.0987 55.372 14.8467 55.0173 14.52L55.5073 13.568C55.8153 13.848 56.1933 14.072 56.6413 14.24C57.0986 14.408 57.542 14.492 57.9713 14.492C58.4006 14.492 58.746 14.4127 59.0073 14.254C59.2686 14.0953 59.3993 13.8527 59.3993 13.526C59.3993 13.19 59.2593 12.938 58.9793 12.77C58.7086 12.602 58.2933 12.434 57.7333 12.266C57.2386 12.126 56.8326 11.986 56.5153 11.846C56.2073 11.6967 55.9413 11.482 55.7173 11.202C55.5026 10.922 55.3953 10.558 55.3953 10.11C55.3953 9.41933 55.6473 8.90133 56.1513 8.556C56.6553 8.21067 57.2853 8.038 58.0413 8.038C58.4893 8.038 58.928 8.10333 59.3573 8.234C59.796 8.35533 60.174 8.52333 60.4913 8.738L60.0153 9.732ZM66.9308 15.5V14.464C66.3801 15.192 65.5168 15.556 64.3408 15.556C63.8274 15.556 63.3748 15.458 62.9828 15.262C62.6001 15.066 62.3014 14.7953 62.0868 14.45C61.8814 14.1047 61.7788 13.7173 61.7788 13.288C61.7788 12.6253 62.0214 12.1027 62.5068 11.72C63.0014 11.328 63.6874 11.1273 64.5648 11.118H66.9168V10.768C66.9168 10.2453 66.7534 9.844 66.4268 9.564C66.1094 9.27467 65.6428 9.13 65.0268 9.13C64.2801 9.13 63.5194 9.396 62.7448 9.928L62.1988 9.032C62.7308 8.68667 63.2208 8.43933 63.6688 8.29C64.1261 8.13133 64.6674 8.052 65.2928 8.052C66.2168 8.052 66.9308 8.28067 67.4348 8.738C67.9388 9.186 68.1954 9.816 68.2048 10.628L68.2188 15.5H66.9308ZM64.6068 14.478C65.2134 14.478 65.7268 14.3333 66.1468 14.044C66.5761 13.7453 66.8328 13.3533 66.9168 12.868V12.126H64.7468C64.1588 12.126 63.7201 12.2147 63.4308 12.392C63.1508 12.5693 63.0108 12.8493 63.0108 13.232C63.0108 13.6147 63.1554 13.918 63.4448 14.142C63.7341 14.366 64.1214 14.478 64.6068 14.478ZM75.7375 10.068C75.1495 9.49867 74.4449 9.214 73.6235 9.214C73.1382 9.214 72.7042 9.32133 72.3215 9.536C71.9482 9.75067 71.6542 10.054 71.4395 10.446C71.2249 10.838 71.1175 11.2907 71.1175 11.804C71.1175 12.3173 71.2202 12.77 71.4255 13.162C71.6402 13.554 71.9295 13.862 72.2935 14.086C72.6669 14.3007 73.0915 14.408 73.5675 14.408C74.0435 14.408 74.4729 14.3287 74.8555 14.17C75.2382 14.0113 75.5555 13.7827 75.8075 13.484L76.5495 14.24C76.2135 14.66 75.7842 14.982 75.2615 15.206C74.7482 15.43 74.1649 15.542 73.5115 15.542C72.7929 15.542 72.1535 15.3833 71.5935 15.066C71.0335 14.7487 70.5949 14.31 70.2775 13.75C69.9695 13.1807 69.8155 12.532 69.8155 11.804C69.8155 11.076 69.9695 10.4273 70.2775 9.858C70.5949 9.28867 71.0335 8.84533 71.5935 8.528C72.1535 8.21067 72.7929 8.052 73.5115 8.052C74.1369 8.052 74.6969 8.15 75.1915 8.346C75.6955 8.53267 76.1155 8.808 76.4515 9.172L75.7375 10.068ZM82.3809 15.01C81.8115 15.374 81.2329 15.556 80.6449 15.556C80.0569 15.556 79.5809 15.3833 79.2169 15.038C78.8529 14.6833 78.6709 14.1513 78.6709 13.442V9.34H77.6209V8.346H78.6709V6.358H79.9869V8.346H82.2549V9.34H79.9869V13.204C79.9869 13.6147 80.0615 13.9087 80.2109 14.086C80.3602 14.2633 80.5842 14.352 80.8829 14.352C81.2375 14.352 81.6202 14.2353 82.0309 14.002L82.3809 15.01ZM83.9693 8.094H85.2713V15.5H83.9693V8.094ZM84.6133 5.14C84.8466 5.14 85.038 5.21933 85.1873 5.378C85.346 5.53667 85.4253 5.73733 85.4253 5.98C85.4253 6.22267 85.346 6.42333 85.1873 6.582C85.038 6.74067 84.8466 6.82 84.6133 6.82C84.38 6.82 84.184 6.74067 84.0253 6.582C83.876 6.42333 83.8013 6.22267 83.8013 5.98C83.8013 5.73733 83.876 5.53667 84.0253 5.378C84.184 5.21933 84.38 5.14 84.6133 5.14ZM90.8911 8.052C91.6284 8.052 92.2818 8.21067 92.8511 8.528C93.4298 8.84533 93.8778 9.28867 94.1951 9.858C94.5218 10.418 94.6851 11.062 94.6851 11.79C94.6851 12.518 94.5218 13.1667 94.1951 13.736C93.8778 14.3053 93.4298 14.7487 92.8511 15.066C92.2818 15.3833 91.6284 15.542 90.8911 15.542C90.1444 15.542 89.4818 15.3833 88.9031 15.066C88.3338 14.7487 87.8858 14.31 87.5591 13.75C87.2418 13.1807 87.0831 12.5273 87.0831 11.79C87.0831 11.062 87.2418 10.418 87.5591 9.858C87.8858 9.28867 88.3338 8.84533 88.9031 8.528C89.4818 8.21067 90.1444 8.052 90.8911 8.052ZM90.8911 9.186C90.4058 9.186 89.9718 9.298 89.5891 9.522C89.2158 9.746 88.9218 10.0587 88.7071 10.46C88.5018 10.852 88.3991 11.3 88.3991 11.804C88.3991 12.3173 88.5018 12.7747 88.7071 13.176C88.9218 13.5773 89.2158 13.89 89.5891 14.114C89.9718 14.3287 90.4058 14.436 90.8911 14.436C91.3671 14.436 91.7918 14.3287 92.1651 14.114C92.5478 13.89 92.8418 13.5773 93.0471 13.176C93.2618 12.7747 93.3691 12.3173 93.3691 11.804C93.3691 11.3 93.2618 10.852 93.0471 10.46C92.8418 10.0587 92.5478 9.746 92.1651 9.522C91.7918 9.298 91.3671 9.186 90.8911 9.186ZM100.622 8.052C101.49 8.052 102.172 8.30867 102.666 8.822C103.161 9.326 103.408 10.026 103.408 10.922V15.5H102.106V11.272C102.106 10.6467 101.929 10.1613 101.574 9.816C101.229 9.46133 100.748 9.284 100.132 9.284C99.4698 9.29333 98.9284 9.508 98.5084 9.928C98.0978 10.3387 97.8644 10.8753 97.8084 11.538V15.5H96.5064V8.094H97.8084V9.662C98.3031 8.60733 99.2411 8.07067 100.622 8.052Z" fill="#3063E9"/>
</svg>
