<svg width="40" height="40" viewBox="0 0 40 40" fill="none" xmlns="http://www.w3.org/2000/svg">
<rect width="40" height="40" rx="8" fill="#E8E8F3"/>
<path d="M25.3917 24.0249L25.7167 26.6582C25.8 27.3498 25.0584 27.8331 24.4667 27.4748L20.975 25.3998C20.5917 25.3998 20.2167 25.3748 19.85 25.3248C20.4667 24.5998 20.8334 23.6832 20.8334 22.6915C20.8334 20.3248 18.7834 18.4082 16.25 18.4082C15.2834 18.4082 14.3917 18.6832 13.65 19.1665C13.625 18.9582 13.6167 18.7498 13.6167 18.5332C13.6167 14.7415 16.9084 11.6665 20.975 11.6665C25.0417 11.6665 28.3334 14.7415 28.3334 18.5332C28.3334 20.7832 27.175 22.7749 25.3917 24.0249Z" stroke="#3063E9" stroke-width="1.5" stroke-linecap="round" stroke-linejoin="round"/>
<path d="M20.8334 22.6915C20.8334 23.6832 20.4668 24.5999 19.8501 25.3249C19.0251 26.3249 17.7167 26.9665 16.2501 26.9665L14.0751 28.2582C13.7084 28.4832 13.2417 28.1748 13.2917 27.7498L13.5001 26.1082C12.3834 25.3332 11.6667 24.0915 11.6667 22.6915C11.6667 21.2248 12.4501 19.9332 13.6501 19.1665C14.3918 18.6832 15.2834 18.4082 16.2501 18.4082C18.7834 18.4082 20.8334 20.3248 20.8334 22.6915Z" stroke="#3063E9" stroke-width="1.5" stroke-linecap="round" stroke-linejoin="round"/>
</svg>
