<svg width="35" height="36" viewBox="0 0 35 36" fill="none" xmlns="http://www.w3.org/2000/svg">
<path d="M25.8383 15.3172L11.8383 8.3172C11.2858 8.04221 10.6619 7.94431 10.0517 8.03685C9.44155 8.12939 8.87475 8.40787 8.42863 8.83431C7.9825 9.26076 7.67875 9.81442 7.55879 10.4198C7.43883 11.0252 7.5085 11.6529 7.75829 12.2172L10.1583 17.5872C10.2128 17.717 10.2408 17.8564 10.2408 17.9972C10.2408 18.138 10.2128 18.2774 10.1583 18.4072L7.75829 23.7772C7.55499 24.2339 7.46905 24.7342 7.50827 25.2326C7.54749 25.7309 7.71064 26.2116 7.98288 26.6309C8.25512 27.0502 8.62782 27.3948 9.06712 27.6334C9.50641 27.872 9.99838 27.9971 10.4983 27.9972C10.9665 27.9925 11.4278 27.8832 11.8483 27.6772L25.8483 20.6772C26.3449 20.4274 26.7623 20.0445 27.054 19.5713C27.3457 19.0981 27.5001 18.5531 27.5001 17.9972C27.5001 17.4413 27.3457 16.8963 27.054 16.4231C26.7623 15.9499 26.3449 15.567 25.8483 15.3172H25.8383ZM24.9483 18.8872L10.9483 25.8872C10.7645 25.9755 10.558 26.0054 10.3567 25.973C10.1553 25.9407 9.9687 25.8475 9.82181 25.7061C9.67491 25.5646 9.57477 25.3816 9.53482 25.1816C9.49487 24.9816 9.51702 24.7742 9.59829 24.5872L11.9883 19.2172C12.0192 19.1455 12.0459 19.072 12.0683 18.9972H18.9583C19.2235 18.9972 19.4779 18.8918 19.6654 18.7043C19.8529 18.5168 19.9583 18.2624 19.9583 17.9972C19.9583 17.732 19.8529 17.4776 19.6654 17.2901C19.4779 17.1026 19.2235 16.9972 18.9583 16.9972H12.0683C12.0459 16.9224 12.0192 16.8489 11.9883 16.7772L9.59829 11.4072C9.51702 11.2202 9.49487 11.0127 9.53482 10.8128C9.57477 10.6128 9.67491 10.4298 9.82181 10.2883C9.9687 10.1469 10.1553 10.0537 10.3567 10.0214C10.558 9.98897 10.7645 10.0189 10.9483 10.1072L24.9483 17.1072C25.1121 17.1911 25.2496 17.3186 25.3456 17.4756C25.4415 17.6327 25.4923 17.8132 25.4923 17.9972C25.4923 18.1812 25.4415 18.3617 25.3456 18.5188C25.2496 18.6758 25.1121 18.8033 24.9483 18.8872Z" fill="#3063E9"/>
</svg>
