<svg width="114" height="20" viewBox="0 0 114 20" fill="none" xmlns="http://www.w3.org/2000/svg">
<path fill-rule="evenodd" clip-rule="evenodd" d="M9.9873 12.7881C6.76428 12.7881 4.0119 13.2754 4.0119 15.227C4.0119 17.1786 6.74682 17.6833 9.9873 17.6833C13.2103 17.6833 15.9619 17.1952 15.9619 15.2444C15.9619 13.2936 13.2278 12.7881 9.9873 12.7881Z" stroke="#3063E9" stroke-width="1.5" stroke-linecap="round" stroke-linejoin="round"/>
<path fill-rule="evenodd" clip-rule="evenodd" d="M9.98729 10.0047C12.1024 10.0047 13.8167 8.28966 13.8167 6.17458C13.8167 4.0595 12.1024 2.34521 9.98729 2.34521C7.87221 2.34521 6.15713 4.0595 6.15713 6.17458C6.14998 8.28252 7.85316 9.99759 9.9603 10.0047H9.98729Z" stroke="#3063E9" stroke-width="1.42857" stroke-linecap="round" stroke-linejoin="round"/>
<path d="M32.126 7.744C31.6687 7.45467 31.1927 7.24 30.698 7.1C30.2127 6.95067 29.7647 6.876 29.354 6.876C28.7847 6.876 28.3273 6.988 27.982 7.212C27.646 7.42667 27.478 7.72533 27.478 8.108C27.478 8.45333 27.5807 8.738 27.786 8.962C27.9913 9.17667 28.2433 9.34933 28.542 9.48C28.8407 9.60133 29.256 9.746 29.788 9.914C30.4507 10.1193 30.9873 10.3153 31.398 10.502C31.8087 10.6887 32.1587 10.9687 32.448 11.342C32.7373 11.706 32.882 12.1913 32.882 12.798C32.882 13.358 32.728 13.848 32.42 14.268C32.1213 14.688 31.6967 15.0147 31.146 15.248C30.6047 15.472 29.9793 15.584 29.27 15.584C28.5513 15.584 27.8513 15.444 27.17 15.164C26.4887 14.884 25.9007 14.5107 25.406 14.044L26.008 12.882C26.4747 13.3393 26.9973 13.694 27.576 13.946C28.164 14.1887 28.7333 14.31 29.284 14.31C29.9373 14.31 30.4507 14.184 30.824 13.932C31.2067 13.6707 31.398 13.3207 31.398 12.882C31.398 12.5367 31.2953 12.252 31.09 12.028C30.8847 11.804 30.6233 11.6267 30.306 11.496C29.998 11.3653 29.578 11.2207 29.046 11.062C28.3927 10.866 27.8607 10.6747 27.45 10.488C27.0393 10.3013 26.6893 10.026 26.4 9.662C26.12 9.298 25.98 8.81733 25.98 8.22C25.98 7.69733 26.1247 7.23533 26.414 6.834C26.7033 6.43267 27.1093 6.12467 27.632 5.91C28.1547 5.69533 28.7613 5.588 29.452 5.588C30.04 5.588 30.614 5.67667 31.174 5.854C31.7433 6.022 32.2473 6.25067 32.686 6.54L32.126 7.744ZM37.869 8.052C39.017 8.052 39.885 8.39267 40.473 9.074C41.061 9.746 41.355 10.684 41.355 11.888C41.355 12.0747 41.3503 12.2147 41.341 12.308H35.489C35.5916 12.9707 35.867 13.498 36.315 13.89C36.7723 14.282 37.3323 14.478 37.995 14.478C38.4336 14.478 38.8396 14.3987 39.213 14.24C39.5956 14.0813 39.927 13.8573 40.207 13.568L40.921 14.31C40.557 14.702 40.1183 15.0053 39.605 15.22C39.0916 15.4347 38.5223 15.542 37.897 15.542C37.169 15.542 36.5203 15.388 35.951 15.08C35.391 14.7627 34.9523 14.3193 34.635 13.75C34.327 13.1807 34.173 12.532 34.173 11.804C34.173 11.076 34.327 10.432 34.635 9.872C34.9523 9.30267 35.391 8.85933 35.951 8.542C36.511 8.21533 37.1503 8.052 37.869 8.052ZM40.179 11.3C40.1416 10.628 39.9176 10.1007 39.507 9.718C39.0963 9.326 38.555 9.13 37.883 9.13C37.2296 9.13 36.6836 9.326 36.245 9.718C35.8156 10.11 35.559 10.6373 35.475 11.3H40.179ZM47.2474 8.052C48.1154 8.052 48.7968 8.30867 49.2914 8.822C49.7861 9.326 50.0334 10.026 50.0334 10.922V15.5H48.7314V11.272C48.7314 10.6467 48.5541 10.1613 48.1994 9.816C47.8541 9.46133 47.3734 9.284 46.7574 9.284C46.0948 9.29333 45.5534 9.508 45.1334 9.928C44.7228 10.3387 44.4894 10.8753 44.4334 11.538V15.5H43.1314V8.094H44.4334V9.662C44.9281 8.60733 45.8661 8.07067 47.2474 8.052ZM59.2619 5.112V15.5H57.9599V14.03C57.6799 14.5247 57.3019 14.9073 56.8259 15.178C56.3593 15.4393 55.8133 15.57 55.1879 15.57C54.4879 15.57 53.8673 15.4113 53.3259 15.094C52.7939 14.7673 52.3786 14.3193 52.0799 13.75C51.7813 13.1713 51.6319 12.5133 51.6319 11.776C51.6319 11.048 51.7813 10.404 52.0799 9.844C52.3786 9.27467 52.7939 8.83133 53.3259 8.514C53.8673 8.19667 54.4833 8.038 55.1739 8.038C55.8086 8.038 56.3639 8.16867 56.8399 8.43C57.3159 8.69133 57.6893 9.06933 57.9599 9.564V5.112H59.2619ZM55.4539 14.45C55.9393 14.45 56.3686 14.338 56.7419 14.114C57.1246 13.89 57.4233 13.5773 57.6379 13.176C57.8526 12.7747 57.9599 12.322 57.9599 11.818C57.9599 11.3047 57.8526 10.8473 57.6379 10.446C57.4233 10.0447 57.1246 9.732 56.7419 9.508C56.3686 9.284 55.9393 9.172 55.4539 9.172C54.9686 9.172 54.5346 9.28867 54.1519 9.522C53.7786 9.746 53.4846 10.0587 53.2699 10.46C53.0553 10.8613 52.9479 11.314 52.9479 11.818C52.9479 12.322 53.0553 12.7747 53.2699 13.176C53.4846 13.5773 53.7786 13.89 54.1519 14.114C54.5346 14.338 54.9686 14.45 55.4539 14.45ZM64.8436 8.052C65.9916 8.052 66.8596 8.39267 67.4476 9.074C68.0356 9.746 68.3296 10.684 68.3296 11.888C68.3296 12.0747 68.3249 12.2147 68.3156 12.308H62.4636C62.5662 12.9707 62.8416 13.498 63.2896 13.89C63.7469 14.282 64.3069 14.478 64.9696 14.478C65.4082 14.478 65.8142 14.3987 66.1876 14.24C66.5702 14.0813 66.9016 13.8573 67.1816 13.568L67.8956 14.31C67.5316 14.702 67.0929 15.0053 66.5796 15.22C66.0662 15.4347 65.4969 15.542 64.8716 15.542C64.1436 15.542 63.4949 15.388 62.9256 15.08C62.3656 14.7627 61.9269 14.3193 61.6096 13.75C61.3016 13.1807 61.1476 12.532 61.1476 11.804C61.1476 11.076 61.3016 10.432 61.6096 9.872C61.9269 9.30267 62.3656 8.85933 62.9256 8.542C63.4856 8.21533 64.1249 8.052 64.8436 8.052ZM67.1536 11.3C67.1162 10.628 66.8922 10.1007 66.4816 9.718C66.0709 9.326 65.5296 9.13 64.8576 9.13C64.2042 9.13 63.6582 9.326 63.2196 9.718C62.7902 10.11 62.5336 10.6373 62.4496 11.3H67.1536ZM71.408 9.69C71.6507 9.158 71.996 8.75667 72.444 8.486C72.892 8.206 73.424 8.06133 74.04 8.052V9.312C73.284 9.284 72.6727 9.48 72.206 9.9C71.7394 10.32 71.4734 10.8847 71.408 11.594V15.5H70.106V8.094H71.408V9.69ZM75.6337 5.112C75.8391 5.112 76.0117 5.182 76.1517 5.322C76.3011 5.462 76.3757 5.64867 76.3757 5.882C76.3757 5.98467 76.3524 6.092 76.3057 6.204C76.2684 6.316 76.2264 6.42333 76.1797 6.526L75.4237 8.122H74.7097L75.2697 6.54C75.1391 6.47467 75.0411 6.386 74.9757 6.274C74.9104 6.15267 74.8777 6.022 74.8777 5.882C74.8777 5.658 74.9477 5.476 75.0877 5.336C75.2371 5.18667 75.4191 5.112 75.6337 5.112ZM82.3552 9.732C82.0472 9.54533 81.7065 9.396 81.3332 9.284C80.9692 9.172 80.6192 9.116 80.2832 9.116C79.8912 9.116 79.5738 9.19067 79.3312 9.34C79.0978 9.48 78.9812 9.69933 78.9812 9.998C78.9812 10.2967 79.1118 10.5253 79.3732 10.684C79.6438 10.8333 80.0498 10.9873 80.5912 11.146C81.1045 11.2953 81.5245 11.4447 81.8512 11.594C82.1778 11.7433 82.4532 11.9627 82.6772 12.252C82.9105 12.5413 83.0272 12.924 83.0272 13.4C83.0272 14.1 82.7612 14.632 82.2292 14.996C81.7065 15.36 81.0532 15.542 80.2692 15.542C79.7185 15.542 79.1818 15.4533 78.6592 15.276C78.1458 15.0987 77.7118 14.8467 77.3572 14.52L77.8472 13.568C78.1552 13.848 78.5332 14.072 78.9812 14.24C79.4385 14.408 79.8818 14.492 80.3112 14.492C80.7405 14.492 81.0858 14.4127 81.3472 14.254C81.6085 14.0953 81.7392 13.8527 81.7392 13.526C81.7392 13.19 81.5992 12.938 81.3192 12.77C81.0485 12.602 80.6332 12.434 80.0732 12.266C79.5785 12.126 79.1725 11.986 78.8552 11.846C78.5472 11.6967 78.2812 11.482 78.0572 11.202C77.8425 10.922 77.7352 10.558 77.7352 10.11C77.7352 9.41933 77.9872 8.90133 78.4912 8.556C78.9952 8.21067 79.6252 8.038 80.3812 8.038C80.8292 8.038 81.2678 8.10333 81.6972 8.234C82.1358 8.35533 82.5138 8.52333 82.8312 8.738L82.3552 9.732ZM88.5387 5.7H89.8827V15.5H88.5387V5.7ZM96.6713 8.052C97.5393 8.052 98.2206 8.30867 98.7153 8.822C99.2099 9.326 99.4573 10.026 99.4573 10.922V15.5H98.1553V11.272C98.1553 10.6467 97.9779 10.1613 97.6233 9.816C97.2779 9.46133 96.7973 9.284 96.1813 9.284C95.5186 9.29333 94.9773 9.508 94.5573 9.928C94.1466 10.3387 93.9133 10.8753 93.8573 11.538V15.5H92.5553V8.094H93.8573V9.662C94.3519 8.60733 95.2899 8.07067 96.6713 8.052ZM104.514 6.19C104.178 6.19 103.898 6.29267 103.674 6.498C103.45 6.70333 103.338 6.99733 103.338 7.38V8.346H105.382V9.34H103.338V15.5H102.036V9.34H101.07V8.346H102.036V7.548C102.036 7.00667 102.148 6.54933 102.372 6.176C102.605 5.79333 102.908 5.50867 103.282 5.322C103.655 5.126 104.056 5.028 104.486 5.028C104.896 5.028 105.326 5.14 105.774 5.364L105.466 6.428C105.13 6.26933 104.812 6.19 104.514 6.19ZM109.512 8.052C110.25 8.052 110.903 8.21067 111.472 8.528C112.051 8.84533 112.499 9.28867 112.816 9.858C113.143 10.418 113.306 11.062 113.306 11.79C113.306 12.518 113.143 13.1667 112.816 13.736C112.499 14.3053 112.051 14.7487 111.472 15.066C110.903 15.3833 110.25 15.542 109.512 15.542C108.766 15.542 108.103 15.3833 107.524 15.066C106.955 14.7487 106.507 14.31 106.18 13.75C105.863 13.1807 105.704 12.5273 105.704 11.79C105.704 11.062 105.863 10.418 106.18 9.858C106.507 9.28867 106.955 8.84533 107.524 8.528C108.103 8.21067 108.766 8.052 109.512 8.052ZM109.512 9.186C109.027 9.186 108.593 9.298 108.21 9.522C107.837 9.746 107.543 10.0587 107.328 10.46C107.123 10.852 107.02 11.3 107.02 11.804C107.02 12.3173 107.123 12.7747 107.328 13.176C107.543 13.5773 107.837 13.89 108.21 14.114C108.593 14.3287 109.027 14.436 109.512 14.436C109.988 14.436 110.413 14.3287 110.786 14.114C111.169 13.89 111.463 13.5773 111.668 13.176C111.883 12.7747 111.99 12.3173 111.99 11.804C111.99 11.3 111.883 10.852 111.668 10.46C111.463 10.0587 111.169 9.746 110.786 9.522C110.413 9.298 109.988 9.186 109.512 9.186Z" fill="#3063E9"/>
</svg>
