<svg width="76" height="24" viewBox="0 0 76 24" fill="none" xmlns="http://www.w3.org/2000/svg">
<path d="M16.3325 8.17463L10.609 13.9592L4.09944 9.88767C3.16675 9.30414 3.36077 7.88744 4.41572 7.57893L19.8712 3.05277C20.8373 2.76963 21.7326 3.67283 21.4456 4.642L16.8731 20.0868C16.5598 21.1432 15.1512 21.332 14.5732 20.3953L10.606 13.9602" stroke="#3063E9" stroke-width="1.5" stroke-linecap="round" stroke-linejoin="round"/>
<path d="M37.644 9.136C37.1213 8.80533 36.5773 8.56 36.012 8.4C35.4573 8.22933 34.9453 8.144 34.476 8.144C33.8253 8.144 33.3027 8.272 32.908 8.528C32.524 8.77333 32.332 9.11467 32.332 9.552C32.332 9.94667 32.4493 10.272 32.684 10.528C32.9187 10.7733 33.2067 10.9707 33.548 11.12C33.8893 11.2587 34.364 11.424 34.972 11.616C35.7293 11.8507 36.3427 12.0747 36.812 12.288C37.2813 12.5013 37.6813 12.8213 38.012 13.248C38.3427 13.664 38.508 14.2187 38.508 14.912C38.508 15.552 38.332 16.112 37.98 16.592C37.6387 17.072 37.1533 17.4453 36.524 17.712C35.9053 17.968 35.1907 18.096 34.38 18.096C33.5587 18.096 32.7587 17.936 31.98 17.616C31.2013 17.296 30.5293 16.8693 29.964 16.336L30.652 15.008C31.1853 15.5307 31.7827 15.936 32.444 16.224C33.116 16.5013 33.7667 16.64 34.396 16.64C35.1427 16.64 35.7293 16.496 36.156 16.208C36.5933 15.9093 36.812 15.5093 36.812 15.008C36.812 14.6133 36.6947 14.288 36.46 14.032C36.2253 13.776 35.9267 13.5733 35.564 13.424C35.212 13.2747 34.732 13.1093 34.124 12.928C33.3773 12.704 32.7693 12.4853 32.3 12.272C31.8307 12.0587 31.4307 11.744 31.1 11.328C30.78 10.912 30.62 10.3627 30.62 9.68C30.62 9.08267 30.7853 8.55467 31.116 8.096C31.4467 7.63733 31.9107 7.28533 32.508 7.04C33.1053 6.79467 33.7987 6.672 34.588 6.672C35.26 6.672 35.916 6.77333 36.556 6.976C37.2067 7.168 37.7827 7.42933 38.284 7.76L37.644 9.136ZM45.6154 9.488C46.6074 9.488 47.386 9.78133 47.9514 10.368C48.5167 10.944 48.7994 11.744 48.7994 12.768V18H47.3114V13.168C47.3114 12.4533 47.1087 11.8987 46.7034 11.504C46.3087 11.0987 45.7594 10.896 45.0554 10.896C44.234 10.9067 43.5834 11.184 43.1034 11.728C42.6234 12.272 42.3834 12.976 42.3834 13.84V18H40.8954V6.128H42.3834V11.36C42.9487 10.1333 44.026 9.50933 45.6154 9.488ZM56.624 18V16.816C55.9947 17.648 55.008 18.064 53.664 18.064C53.0773 18.064 52.56 17.952 52.112 17.728C51.6747 17.504 51.3333 17.1947 51.088 16.8C50.8533 16.4053 50.736 15.9627 50.736 15.472C50.736 14.7147 51.0133 14.1173 51.568 13.68C52.1333 13.232 52.9173 13.0027 53.92 12.992H56.608V12.592C56.608 11.9947 56.4213 11.536 56.048 11.216C55.6853 10.8853 55.152 10.72 54.448 10.72C53.5947 10.72 52.7253 11.024 51.84 11.632L51.216 10.608C51.824 10.2133 52.384 9.93067 52.896 9.76C53.4187 9.57867 54.0373 9.488 54.752 9.488C55.808 9.488 56.624 9.74933 57.2 10.272C57.776 10.784 58.0693 11.504 58.08 12.432L58.096 18H56.624ZM53.968 16.832C54.6613 16.832 55.248 16.6667 55.728 16.336C56.2187 15.9947 56.512 15.5467 56.608 14.992V14.144H54.128C53.456 14.144 52.9547 14.2453 52.624 14.448C52.304 14.6507 52.144 14.9707 52.144 15.408C52.144 15.8453 52.3093 16.192 52.64 16.448C52.9707 16.704 53.4133 16.832 53.968 16.832ZM62.2409 11.36C62.5182 10.752 62.9129 10.2933 63.4249 9.984C63.9369 9.664 64.5449 9.49867 65.2489 9.488V10.928C64.3849 10.896 63.6862 11.12 63.1529 11.6C62.6195 12.08 62.3155 12.7253 62.2409 13.536V18H60.7529V9.536H62.2409V11.36ZM70.2543 9.488C71.5663 9.488 72.5583 9.87733 73.2303 10.656C73.9023 11.424 74.2383 12.496 74.2383 13.872C74.2383 14.0853 74.2329 14.2453 74.2222 14.352H67.5343C67.6516 15.1093 67.9663 15.712 68.4783 16.16C69.0009 16.608 69.6409 16.832 70.3983 16.832C70.8996 16.832 71.3636 16.7413 71.7903 16.56C72.2276 16.3787 72.6063 16.1227 72.9263 15.792L73.7423 16.64C73.3263 17.088 72.8249 17.4347 72.2383 17.68C71.6516 17.9253 71.0009 18.048 70.2863 18.048C69.4543 18.048 68.7129 17.872 68.0623 17.52C67.4223 17.1573 66.9209 16.6507 66.5583 16C66.2063 15.3493 66.0303 14.608 66.0303 13.776C66.0303 12.944 66.2063 12.208 66.5583 11.568C66.9209 10.9173 67.4223 10.4107 68.0623 10.048C68.7023 9.67467 69.4329 9.488 70.2543 9.488ZM72.8943 13.2C72.8516 12.432 72.5956 11.8293 72.1263 11.392C71.6569 10.944 71.0383 10.72 70.2703 10.72C69.5236 10.72 68.8996 10.944 68.3983 11.392C67.9076 11.84 67.6143 12.4427 67.5182 13.2H72.8943Z" fill="#3063E9"/>
</svg>
