<svg width="24" height="25" viewBox="0 0 24 25" fill="none" xmlns="http://www.w3.org/2000/svg">
<path fill-rule="evenodd" clip-rule="evenodd" d="M11.7281 22.4137C11.8389 22.4715 11.9627 22.5009 12.0865 22.5C12.2103 22.499 12.3332 22.4686 12.4449 22.4097L16.0128 20.5025C17.0246 19.9631 17.8169 19.3601 18.435 18.6579C19.779 17.1282 20.5129 15.1758 20.4998 13.1626L20.4575 6.52198C20.4535 5.75711 19.9512 5.07461 19.2082 4.82652L12.5708 2.59956C12.1711 2.46424 11.7332 2.46718 11.3405 2.60643L4.72827 4.91281C3.98932 5.17071 3.49602 5.85811 3.50005 6.62397L3.54233 13.2597C3.55542 15.2758 4.3145 17.2194 5.68064 18.7335C6.30482 19.4258 7.10417 20.02 8.12702 20.5505L11.7281 22.4137ZM10.7836 14.6089C10.9326 14.7521 11.1259 14.8227 11.3192 14.8207C11.5125 14.8198 11.7048 14.7472 11.8517 14.6021L15.7508 10.7581C16.0438 10.4688 16.0408 10.004 15.7448 9.71866C15.4478 9.4333 14.9696 9.43526 14.6767 9.72454L11.3081 13.0449L9.92888 11.7191C9.63189 11.4337 9.1547 11.4367 8.86073 11.726C8.56777 12.0152 8.57079 12.48 8.86777 12.7654L10.7836 14.6089Z" fill="#05A753"/>
</svg>
