<svg width="40" height="40" viewBox="0 0 14 13" fill="none" xmlns="http://www.w3.org/2000/svg">
<path d="M6.27447 0.463524C6.42415 0.00286841 7.07585 0.00286996 7.22553 0.463525L8.43386 4.18237C8.50079 4.38838 8.69277 4.52786 8.90938 4.52786H12.8196C13.304 4.52786 13.5054 5.14767 13.1135 5.43237L9.95006 7.73075C9.77482 7.85807 9.70149 8.08375 9.76843 8.28976L10.9768 12.0086C11.1264 12.4693 10.5992 12.8523 10.2073 12.5676L7.04389 10.2693C6.86865 10.1419 6.63135 10.1419 6.45611 10.2693L3.29267 12.5676C2.90081 12.8523 2.37357 12.4693 2.52325 12.0086L3.73157 8.28976C3.79851 8.08375 3.72518 7.85807 3.54994 7.73075L0.386495 5.43237C-0.00536144 5.14767 0.196028 4.52786 0.68039 4.52786H4.59062C4.80723 4.52786 4.99921 4.38838 5.06614 4.18237L6.27447 0.463524Z" fill="#FCC33C"/>
</svg>
