<svg width="15" height="15" viewBox="0 0 15 15" fill="none" xmlns="http://www.w3.org/2000/svg">
<path d="M13.4888 6.61444H12.2202C12.3295 7.19975 12.3295 7.8003 12.2202 8.38561H13.4888C13.8052 8.38561 14.0976 8.21685 14.2558 7.94281C14.414 7.66876 14.414 7.33123 14.2558 7.05722C14.0976 6.78317 13.8052 6.61441 13.4888 6.61441V6.61444Z" fill="#313131"/>
<path d="M11.4517 4.757L12.3484 3.86029H12.3483C12.5146 3.69413 12.6079 3.46876 12.608 3.23369C12.608 2.99872 12.5147 2.77327 12.3484 2.6071C12.1822 2.44083 11.9568 2.34749 11.7218 2.34749C11.4867 2.34759 11.2614 2.44093 11.0952 2.6072L10.1963 3.50602C10.6885 3.84185 11.1141 4.26592 11.4517 4.75698L11.4517 4.757Z" fill="#313131"/>
<path d="M11.4496 10.241C11.1145 10.7331 10.6902 11.1581 10.1987 11.4941L11.0954 12.3907V12.3908C11.3189 12.6147 11.6448 12.7023 11.9504 12.6207C12.256 12.5391 12.4947 12.3007 12.5769 11.9953C12.659 11.6898 12.572 11.3638 12.3485 11.1399L11.4496 10.241Z" fill="#313131"/>
<path d="M7.45601 3.85625C6.48988 3.85655 5.56353 4.24054 4.88044 4.92373C4.19747 5.60699 3.81386 6.53345 3.81396 7.49955C3.81407 8.46557 4.19788 9.39203 4.88093 10.0751C5.56401 10.7582 6.49045 11.142 7.45649 11.1421C8.42251 11.1422 9.34897 10.7586 10.0323 10.0756C10.7155 9.39262 11.0995 8.46626 11.0998 7.50003C11.0999 6.53363 10.716 5.60666 10.0326 4.92319C9.34926 4.23983 8.42228 3.85592 7.45578 3.85602L7.45601 3.85625ZM9.26244 8.11689C9.09888 8.11669 8.94214 8.05168 8.82645 7.9361C8.71087 7.82042 8.64577 7.66367 8.64567 7.50012C8.64547 7.18471 8.52007 6.88224 8.29701 6.65919C8.07395 6.43615 7.77149 6.31074 7.45609 6.31054C7.29233 6.31084 7.13528 6.24594 7.01941 6.13026C6.90353 6.01447 6.83843 5.85752 6.83843 5.69378C6.83843 5.53004 6.90353 5.37307 7.01941 5.25738C7.13529 5.1416 7.29235 5.0768 7.45609 5.077C8.09861 5.0775 8.71456 5.333 9.16888 5.78731C9.6232 6.24162 9.87871 6.85759 9.87919 7.5001C9.87929 7.66376 9.81439 7.82071 9.69871 7.9364C9.58303 8.05208 9.42608 8.11698 9.26241 8.11688L9.26244 8.11689Z" fill="#313131"/>
<path d="M6.57031 12.2621V13.5329C6.57031 13.8493 6.73908 14.1417 7.01312 14.2999C7.28716 14.4581 7.62469 14.4581 7.89871 14.2999C8.17275 14.1417 8.34151 13.8493 8.34151 13.5329V12.2621C7.7562 12.3713 7.15565 12.3713 6.57034 12.2621H6.57031Z" fill="#313131"/>
<path d="M8.34151 2.73774V1.46696C8.34151 1.15056 8.17275 0.858208 7.89871 0.699956C7.62466 0.541807 7.28714 0.541807 7.01312 0.699956C6.73908 0.858205 6.57031 1.15056 6.57031 1.46696V2.73774C7.15563 2.62857 7.75617 2.62857 8.34149 2.73774H8.34151Z" fill="#313131"/>
<path d="M3.46409 10.241L2.56517 11.1399C2.39931 11.3058 2.30615 11.5308 2.30615 11.7653C2.30615 11.9999 2.3993 12.225 2.56517 12.3908C2.73033 12.558 2.95559 12.6521 3.19066 12.6521C3.42563 12.6521 3.65088 12.558 3.81605 12.3908L4.71498 11.4919C4.22309 11.1573 3.79875 10.7329 3.46412 10.2411L3.46409 10.241Z" fill="#313131"/>
<path d="M3.46176 4.75693C3.7996 4.26697 4.22425 3.84298 4.71482 3.50597L3.8159 2.60715C3.59205 2.3837 3.26605 2.29667 2.96057 2.37879C2.6552 2.46092 2.41672 2.6997 2.33518 3.00528C2.25355 3.31086 2.34119 3.63678 2.56504 3.86023L3.46176 4.75693Z" fill="#313131"/>
<path d="M2.61158 7.5C2.61178 7.20293 2.63922 6.90648 2.6935 6.61441H1.42272C1.10632 6.61441 0.813973 6.78317 0.655721 7.05722C0.497572 7.33126 0.497572 7.66879 0.655721 7.9428C0.81397 8.21685 1.10632 8.38561 1.42272 8.38561H2.6935C2.63922 8.09354 2.61178 7.79709 2.61158 7.50002V7.5Z" fill="#313131"/>
</svg>
