<svg width="21" height="12" viewBox="0 0 21 12" fill="none" xmlns="http://www.w3.org/2000/svg">
<path d="M10.9699 3.16327H8.95681V4.60109H10.9699C12.4398 4.60109 13.6539 5.81535 13.6539 7.28506C13.6539 8.75501 12.4396 9.96904 10.9699 9.96904L4.86691 9.96926C3.39697 9.96926 2.18293 8.755 2.18293 7.28529C2.18293 5.81534 3.3972 4.60131 4.86691 4.60131H5.09069V3.16349L4.86691 3.16327C2.59815 3.16327 0.745117 5.01653 0.745117 7.28506C0.745117 9.55382 2.59838 11.4069 4.86691 11.4069H10.9699C13.2387 11.4069 15.0917 9.5536 15.0917 7.28506C15.0919 5.01653 13.2386 3.16327 10.9699 3.16327Z" fill="#007AD9"/>
<path d="M16.4977 0H10.3947C8.12598 0 6.27295 1.85326 6.27295 4.1218C6.27295 6.39056 8.12621 8.24359 10.3947 8.24359H12.248V6.806H10.3947C8.9248 6.806 7.71077 5.59174 7.71077 4.12202C7.71077 2.65208 8.92503 1.43805 10.3947 1.43805H16.4977C17.9677 1.43805 19.1817 2.65231 19.1817 4.12202C19.1817 5.59174 17.9674 6.806 16.4975 6.806H16.1141V8.24382H16.4975C18.7663 8.24382 20.6193 6.39056 20.6193 4.12202C20.6195 1.85326 18.7662 0 16.4975 0H16.4977Z" fill="#007AD9"/>
</svg>
