<svg width="286" height="219" viewBox="0 0 286 219" fill="none" xmlns="http://www.w3.org/2000/svg">
<path opacity="0.1" d="M211.531 47.5746C218.315 47.5746 223.814 41.7639 223.814 34.596C223.814 27.4281 218.315 21.6173 211.531 21.6173C204.747 21.6173 199.248 27.4281 199.248 34.596C199.248 41.7639 204.747 47.5746 211.531 47.5746Z" fill="#F2F2F2"/>
<path d="M214.855 35.1421C214.739 34.8382 214.525 34.5873 214.251 34.4336C214.08 34.328 213.896 34.2487 213.704 34.1982C213.833 34.1324 213.952 34.045 214.055 33.9393C214.208 33.7888 214.324 33.6003 214.391 33.3909C214.453 33.1762 214.479 32.9513 214.466 32.7271C214.465 32.3547 214.367 31.9898 214.182 31.6726C213.976 31.3827 213.695 31.162 213.373 31.037C213.06 30.9089 212.729 30.838 212.394 30.8275V29.3234L211.533 29.9119V30.8299H210.844V29.8648L209.962 29.3234V30.8299H208.088L208.69 31.9597C208.818 31.9505 208.946 31.9689 209.067 32.0139C209.128 32.0425 209.177 32.0924 209.207 32.1551C209.244 32.2887 209.257 32.4282 209.248 32.567V36.6438C209.257 36.7818 209.243 36.9205 209.207 37.0534C209.179 37.1146 209.164 37.1687 209.097 37.2017C209.03 37.2347 209.028 37.2323 208.843 37.2323H208.841L208.088 38.3621H209.96V39.8686H210.842V38.3621H211.531V39.8686H212.392V38.3527C212.827 38.3445 213.259 38.2627 213.67 38.1103C214.051 37.9662 214.385 37.7088 214.632 37.3688C214.846 37.0071 214.964 36.5905 214.972 36.1637C214.994 35.8184 214.955 35.4718 214.855 35.1421V35.1421ZM210.842 32.101H210.842V32.0697H211.444C211.783 32.0697 212.911 31.9463 212.929 32.954C212.948 33.9617 211.444 33.9205 211.444 33.9205H210.842V33.8428H210.842V32.101ZM210.842 34.9727H211.531C211.671 34.9727 212.152 34.996 212.327 35.0047C212.399 35.0075 212.469 35.0213 212.537 35.0456C212.562 35.0548 212.585 35.0652 212.611 35.0767C212.717 35.1144 212.817 35.1699 212.907 35.241C212.967 35.2839 213.019 35.3373 213.061 35.3987C213.126 35.4985 213.174 35.61 213.201 35.7278C213.222 35.8101 213.232 35.8949 213.233 35.9801C213.24 36.1424 213.203 36.3033 213.126 36.4438C213.015 36.6304 212.853 36.7767 212.661 36.8628C212.303 37.0179 211.918 37.0956 211.531 37.0911H210.842V34.9727Z" fill="#F9E006"/>
<path d="M254.778 123.944C260.133 123.944 264.474 119.358 264.474 113.7C264.474 108.042 260.133 103.455 254.778 103.455C249.423 103.455 245.082 108.042 245.082 113.7C245.082 119.358 249.423 123.944 254.778 123.944Z" fill="#303030"/>
<path d="M257.401 114.131C257.309 113.891 257.14 113.693 256.923 113.571C256.789 113.488 256.643 113.426 256.492 113.386C256.594 113.334 256.687 113.265 256.769 113.181C256.89 113.062 256.981 112.914 257.034 112.748C257.083 112.579 257.103 112.401 257.093 112.224C257.092 111.93 257.015 111.642 256.869 111.392C256.706 111.163 256.484 110.989 256.23 110.89C255.983 110.789 255.722 110.733 255.457 110.725V109.538L254.778 110.002V110.727H254.234V109.965L253.538 109.538V110.727H252.059L252.534 111.619C252.635 111.611 252.736 111.626 252.831 111.661C252.879 111.684 252.918 111.723 252.942 111.773C252.971 111.878 252.982 111.989 252.974 112.098V115.316C252.982 115.425 252.971 115.535 252.942 115.639C252.92 115.688 252.908 115.73 252.855 115.756C252.803 115.782 252.801 115.781 252.655 115.781H252.653L252.059 116.672H253.536V117.862H254.233V116.672H254.776V117.862H255.456V116.665C255.8 116.659 256.14 116.594 256.465 116.474C256.766 116.36 257.029 116.157 257.224 115.888C257.393 115.603 257.486 115.274 257.492 114.937C257.51 114.665 257.479 114.391 257.401 114.131V114.131ZM254.233 111.73H254.233V111.705H254.708C254.975 111.705 255.865 111.608 255.88 112.404C255.895 113.199 254.708 113.166 254.708 113.166H254.233V113.105H254.233V111.73ZM254.233 113.997H254.776C254.887 113.997 255.267 114.015 255.405 114.022C255.461 114.024 255.517 114.035 255.571 114.055C255.59 114.062 255.609 114.07 255.629 114.079C255.713 114.109 255.792 114.153 255.863 114.209C255.91 114.243 255.951 114.285 255.984 114.333C256.035 114.412 256.073 114.5 256.095 114.593C256.111 114.658 256.119 114.725 256.12 114.792C256.125 114.92 256.096 115.047 256.035 115.158C255.948 115.306 255.82 115.421 255.669 115.489C255.386 115.611 255.082 115.673 254.776 115.669H254.233V113.997Z" fill="#F9E006"/>
<path d="M38.8268 176.22C42.7213 176.22 45.8783 172.884 45.8783 168.769C45.8783 164.654 42.7213 161.318 38.8268 161.318C34.9324 161.318 31.7754 164.654 31.7754 168.769C31.7754 172.884 34.9324 176.22 38.8268 176.22Z" fill="#303030"/>
<path d="M40.7366 169.083C40.6698 168.908 40.5469 168.764 40.3895 168.676C40.2916 168.615 40.1859 168.57 40.0757 168.541C40.15 168.503 40.218 168.453 40.2771 168.392C40.3651 168.306 40.4313 168.197 40.4698 168.077C40.5057 167.954 40.5204 167.825 40.5131 167.696C40.5124 167.482 40.456 167.273 40.35 167.091C40.2317 166.924 40.0704 166.798 39.8855 166.726C39.706 166.652 39.5159 166.612 39.3234 166.606V165.742L38.8293 166.08V166.607H38.434V166.053L37.9275 165.742V166.607H36.8516L37.1975 167.256C37.2708 167.25 37.3443 167.261 37.4136 167.287C37.4484 167.303 37.4768 167.332 37.4939 167.368C37.515 167.445 37.5229 167.525 37.5174 167.604V169.945C37.5228 170.024 37.5148 170.104 37.4939 170.18C37.4779 170.215 37.4692 170.246 37.4309 170.265C37.3926 170.284 37.3914 170.283 37.2852 170.283H37.2839L36.8516 170.931H37.9263V171.796H38.4328V170.931H38.8281V171.796H39.3222V170.926C39.5723 170.921 39.82 170.874 40.056 170.787C40.275 170.704 40.4668 170.556 40.6082 170.361C40.7314 170.153 40.7989 169.914 40.8033 169.669C40.8164 169.471 40.7937 169.272 40.7366 169.083V169.083ZM38.4328 167.337H38.4329V167.319H38.7783C38.9726 167.319 39.6202 167.248 39.6309 167.826C39.6418 168.405 38.7783 168.381 38.7783 168.381H38.4329V168.337H38.4328V167.337ZM38.4328 168.985H38.8281C38.9084 168.985 39.1846 168.999 39.2851 169.004C39.3262 169.005 39.3668 169.013 39.4057 169.027C39.4199 169.032 39.4334 169.038 39.448 169.045C39.5091 169.067 39.5666 169.099 39.6183 169.139C39.6523 169.164 39.6821 169.195 39.7064 169.23C39.7438 169.287 39.7712 169.351 39.7871 169.419C39.7988 169.466 39.8049 169.515 39.8052 169.564C39.8093 169.657 39.7879 169.749 39.7436 169.83C39.6801 169.937 39.5871 170.021 39.477 170.07C39.2711 170.159 39.0505 170.204 38.8281 170.201H38.4328V168.985Z" fill="#F9E006"/>
<path d="M21.1992 217.199L285.629 217.199" stroke="#3F3D56" stroke-width="2" stroke-miterlimit="10"/>
<path d="M220.203 97.9033L68.7578 0L0.0458621 118.667L151.491 216.57L220.203 97.9033Z" fill="#373737"/>
<path d="M171.552 135.544C169.633 130.88 166.678 126.784 160.766 123.336C157.711 121.511 154.429 120.146 151.016 119.28C153.313 118.153 155.425 116.647 157.273 114.819C159.991 112.252 162.05 109.002 163.261 105.369C164.376 101.677 164.831 97.799 164.605 93.9315C164.182 87.1177 162.916 80.5067 159.538 75.7614C156.16 71.0161 151.4 67.3658 145.105 64.8106C140.269 62.8638 135.317 61.6471 127.64 61.2009V35.2842L112.286 45.4238V61.2415H100.003V44.6126L84.2652 35.2842V61.2415H50.832L61.5798 80.7095C64.9001 80.7136 67.1494 81.038 68.2971 81.6423C69.3685 82.1268 70.2495 82.9861 70.7922 84.0758C71.2912 85.0898 71.5215 87.4827 71.5215 91.1735V161.421C71.5215 165.071 71.2912 167.423 70.7922 168.478C70.2932 169.532 70.0245 170.465 68.8345 171.033C67.6446 171.601 67.6062 171.56 64.3051 171.56H64.2667L50.832 191.028H84.2269V216.985H99.9646V191.028H112.248V216.985H127.602V190.866C137.582 190.339 144.683 188.96 150.402 186.688C157.811 183.768 163.492 179.51 167.56 173.913C171.629 168.315 173.28 159.758 173.625 153.147C173.894 147.266 173.28 139.681 171.552 135.544ZM99.9646 83.143H99.9685V82.6036H110.701C116.739 82.6036 136.86 80.4783 137.194 97.8413C137.532 115.204 110.701 114.495 110.701 114.495H99.9685V113.156H99.9646V83.143ZM99.9646 132.624H112.248C114.743 132.624 123.326 133.026 126.45 133.176C127.724 133.225 128.985 133.462 130.197 133.881C130.638 134.04 131.056 134.218 131.509 134.417C133.403 135.063 135.189 136.018 136.803 137.248C137.855 137.982 138.78 138.901 139.539 139.965C139.868 140.445 140.171 140.945 140.445 141.462C141.172 142.761 141.711 144.168 142.046 145.635C142.412 147.053 142.601 148.514 142.61 149.983C142.61 153.143 142.057 155.759 140.695 157.973C138.848 161.242 135.82 163.558 132.411 165.193C123.598 169.427 112.248 169.127 112.248 169.127H99.9646V132.624Z" fill="#F9E006"/>
<path opacity="0.1" d="M132.412 165.193C123.598 169.427 112.248 169.127 112.248 169.127H99.9648V166.649C104.97 165.172 111.891 164.26 119.541 164.26C123.847 164.244 128.148 164.556 132.412 165.193V165.193Z" fill="black"/>
<path opacity="0.1" d="M147.177 172.371C147.177 176.853 134.801 180.483 119.539 180.483C104.278 180.483 91.9023 176.853 91.9023 172.371C91.9023 170.137 94.9808 168.113 99.9632 166.649V169.127H112.246C112.246 169.127 123.597 169.427 132.41 165.193C141.188 166.547 147.177 169.253 147.177 172.371Z" fill="black"/>
<path d="M123.07 121.864H111.311V134.311H123.07V121.864Z" fill="#2F2E41"/>
<path d="M115.685 130.666C115.685 130.666 116.658 134.266 114.955 134.523C113.898 134.697 112.896 135.138 112.035 135.808L115.198 140.179H121.039L124.689 136.323C124.689 136.323 119.822 132.466 120.795 130.152C121.769 127.838 115.685 130.666 115.685 130.666Z" fill="#FFB9B9"/>
<path opacity="0.1" d="M115.685 130.666C115.685 130.666 116.658 134.266 114.955 134.523C113.898 134.697 112.896 135.138 112.035 135.808L115.198 140.179H121.039L124.689 136.323C124.689 136.323 119.822 132.466 120.795 130.152C121.769 127.838 115.685 130.666 115.685 130.666Z" fill="black"/>
<path d="M117.145 175.404L122.741 177.461L126.634 177.718L126.391 174.118L118.361 171.609L117.145 175.404Z" fill="#FFB9B9"/>
<path d="M124.322 174.632C124.322 174.632 124.322 178.232 124.809 178.232C125.296 178.232 131.866 177.461 133.812 178.232C135.759 179.003 138.679 176.175 137.219 174.632C135.759 173.09 133.377 170.776 131.892 171.29C130.406 171.804 124.322 173.09 124.322 173.09L124.322 174.632Z" fill="#2F2E41"/>
<path d="M106.439 171.29C106.439 171.29 103.519 177.461 105.466 177.975C107.413 178.489 109.603 177.718 109.846 177.461C110.089 177.204 113.496 176.175 113.983 176.69C114.469 177.204 114.469 174.633 114.469 174.633L106.439 171.29Z" fill="#2F2E41"/>
<path d="M108.871 162.805C108.871 162.805 104.248 169.49 107.655 171.29C111.061 173.09 127.365 173.09 128.581 171.29C129.798 169.49 130.285 163.834 128.581 163.319C126.878 162.805 108.871 162.805 108.871 162.805Z" fill="#2F2E41"/>
<path opacity="0.2" d="M108.871 162.805C108.871 162.805 104.248 169.49 107.655 171.29C111.061 173.09 127.365 173.09 128.581 171.29C129.798 169.49 130.285 163.834 128.581 163.319C126.878 162.805 108.871 162.805 108.871 162.805Z" fill="black"/>
<path d="M117.632 132.466C120.723 132.466 123.228 129.818 123.228 126.552C123.228 123.286 120.723 120.639 117.632 120.639C114.541 120.639 112.035 123.286 112.035 126.552C112.035 129.818 114.541 132.466 117.632 132.466Z" fill="#FFB9B9"/>
<path d="M108.871 135.808L113.738 134.78C113.738 134.78 114.954 138.894 118.848 138.122C122.741 137.351 123.714 134.78 123.714 134.78C123.714 134.78 126.634 136.065 126.878 136.065C127.121 136.065 130.284 137.351 130.284 138.122C130.284 138.894 126.634 146.607 126.634 146.607L127.121 160.491L109.114 159.977L110.331 146.35L108.871 135.808Z" fill="#111111"/>
<path d="M106.194 142.493C106.194 142.493 104.734 156.12 105.708 157.149C106.681 158.177 110.574 161.005 110.574 161.005V157.92L108.628 154.063L110.574 145.065L106.194 142.493Z" fill="#FFB9B9"/>
<path d="M131.379 142.108C131.379 142.108 130.527 156.12 130.527 156.635C130.527 157.149 128.337 158.949 127.607 158.949C126.877 158.949 126.391 157.663 126.391 157.663L128.094 155.606L126.877 145.065L131.379 142.108Z" fill="#FFB9B9"/>
<path d="M129.067 161.777C129.067 161.777 140.017 155.349 140.26 161.777C140.503 168.204 134.663 170.776 134.663 170.776C134.663 170.776 119.577 175.556 118.968 173.808C118.36 172.061 117.143 169.233 118.116 168.976C119.09 168.719 120.307 168.204 120.793 168.719C121.28 169.233 127.363 164.862 127.363 164.862L129.067 161.777Z" fill="#2F2E41"/>
<path opacity="0.2" d="M134.177 161.006C134.177 161.006 131.987 162.034 131.257 162.805C130.527 163.577 127.363 164.862 127.363 164.862" stroke="black" stroke-width="2" stroke-miterlimit="10"/>
<path d="M110.331 136.323L108.871 135.808C108.871 135.808 103.518 141.722 105.221 143.265C106.925 144.807 107.898 145.322 108.385 145.836C108.871 146.35 111.305 146.607 111.305 146.607L110.331 136.323Z" fill="#111111"/>
<path d="M128.096 137.608L130.286 138.122C130.286 138.122 131.989 141.979 132.476 142.493C132.963 143.008 131.746 142.75 131.016 143.779C130.286 144.807 129.556 146.607 128.096 146.607C126.636 146.607 124.689 144.036 124.689 144.036L128.096 137.608Z" fill="#111111"/>
<path d="M109.356 164.091C109.356 164.091 100.109 157.149 96.946 162.291C93.7827 167.433 110.573 174.375 113.006 175.404C115.439 176.432 117.629 177.461 117.629 177.461C117.629 177.461 119.819 171.804 119.819 170.776C119.819 169.747 118.116 169.747 117.629 169.747C117.143 169.747 114.953 169.233 114.466 168.462C113.979 167.69 109.356 164.091 109.356 164.091Z" fill="#2F2E41"/>
<path opacity="0.2" d="M104.248 162.291C104.248 162.291 106.681 164.348 108.871 164.862C111.061 165.376 111.791 166.662 111.791 166.662" stroke="black" stroke-width="2" stroke-miterlimit="10"/>
<path d="M107.68 152.624L107.874 163.51C107.881 163.87 108.021 164.212 108.266 164.462C108.51 164.713 108.838 164.851 109.178 164.847L128.351 164.619C128.678 164.616 128.991 164.481 129.227 164.242C129.464 164.004 129.606 163.68 129.625 163.335L130.206 152.677C130.217 152.491 130.191 152.306 130.131 152.131C130.071 151.957 129.977 151.798 129.857 151.663C129.736 151.528 129.591 151.42 129.43 151.347C129.268 151.273 129.094 151.235 128.919 151.235H108.969C108.798 151.235 108.628 151.271 108.47 151.342C108.312 151.412 108.169 151.514 108.049 151.644C107.929 151.773 107.834 151.926 107.771 152.094C107.708 152.263 107.677 152.443 107.68 152.624V152.624Z" fill="white"/>
<path d="M105.461 135.873C105.983 134.656 106.685 133.513 107.019 132.224C107.42 130.679 107.264 129.044 107.216 127.442C107.14 126.026 107.254 124.605 107.556 123.223C107.861 121.834 108.548 120.571 109.529 119.592C112.08 117.187 116.747 117.014 119.86 118.015C121.088 118.41 122.396 119.162 122.7 120.479C122.746 120.678 122.766 120.883 122.818 121.08C123.073 122.061 124.022 122.681 124.365 123.631C124.808 124.861 124.125 126.197 124.035 127.509C123.931 129.041 124.644 130.488 125.346 131.833C125.764 132.632 126.198 133.483 126.156 134.395C126.122 134.894 125.978 135.377 125.737 135.807C125.29 136.588 124.662 137.235 123.913 137.688C123.164 138.142 122.318 138.387 121.455 138.401C120.894 138.449 120.333 138.309 119.851 138.001C119.091 137.448 118.868 136.335 119.027 135.374C119.185 134.414 119.646 133.545 120.008 132.648C120.119 132.373 120.219 132.093 120.311 131.811C121.432 131.149 122.296 130.091 122.75 128.822C123.204 127.553 123.219 126.155 122.793 124.876C122.367 123.596 121.526 122.517 120.42 121.829C119.313 121.141 118.012 120.888 116.746 121.114C115.481 121.341 114.331 122.034 113.502 123.069C112.672 124.104 112.215 125.416 112.212 126.772C112.209 128.129 112.659 129.443 113.484 130.483C114.309 131.522 115.455 132.221 116.719 132.454C116.992 133.905 116.868 135.408 116.362 136.788C115.902 137.91 115.324 138.974 114.64 139.961C114.36 140.466 113.987 140.908 113.543 141.258C113.25 141.441 112.936 141.583 112.608 141.68C111.234 142.147 109.786 142.523 108.356 142.313C106.926 142.103 105.51 141.191 105.023 139.755C104.596 138.497 104.939 137.091 105.461 135.873Z" fill="#FF003D"/>
<path d="M117.359 126.788C120.64 126.788 123.299 125.196 123.299 123.232C123.299 121.268 120.64 119.676 117.359 119.676C114.079 119.676 111.42 121.268 111.42 123.232C111.42 125.196 114.079 126.788 117.359 126.788Z" fill="#FF003D"/>
<g opacity="0.5">
<path d="M221.198 154.985C223.684 154.985 225.7 152.855 225.7 150.228C225.7 147.6 223.684 145.471 221.198 145.471C218.711 145.471 216.695 147.6 216.695 150.228C216.695 152.855 218.711 154.985 221.198 154.985Z" fill="#F8931A"/>
<path d="M256.691 202.013V147.848" stroke="black" stroke-width="2" stroke-miterlimit="10"/>
<path d="M256.691 155.507C260.694 155.507 263.94 152.078 263.94 147.848C263.94 143.617 260.694 140.188 256.691 140.188C252.687 140.188 249.441 143.617 249.441 147.848C249.441 152.078 252.687 155.507 256.691 155.507Z" fill="#525252"/>
<path d="M242.413 178.175C231.942 195.143 234.811 216.723 234.811 216.723C234.811 216.723 254.657 210.794 265.128 193.826C275.6 176.859 272.73 155.279 272.73 155.279C272.73 155.279 252.884 161.208 242.413 178.175Z" fill="#525252"/>
<path d="M234.755 216.526C234.755 216.526 234.5 216.483 234.031 216.383C233.657 216.302 233.142 216.188 232.513 216.03C226.888 214.629 211.935 209.892 202.159 197.439C189.923 181.846 190.439 160.061 190.439 160.061C190.439 160.061 209.148 163.273 221.476 177.276C222.01 177.878 222.53 178.501 223.035 179.147C233.681 192.714 234.674 210.97 234.753 215.483C234.763 216.159 234.755 216.526 234.755 216.526Z" fill="#777777"/>
<path d="M227.208 178.175C237.68 195.143 234.811 216.723 234.811 216.723C234.811 216.723 214.964 210.794 204.493 193.826C194.022 176.859 196.891 155.279 196.891 155.279C196.891 155.279 216.737 161.208 227.208 178.175Z" stroke="black" stroke-width="2" stroke-miterlimit="10"/>
<path d="M250.28 181.175C249.452 201.412 235.235 217.199 235.235 217.199C235.235 217.199 222.359 200.175 223.187 179.938C224.014 159.701 238.232 143.914 238.232 143.914C238.232 143.914 251.107 160.938 250.28 181.175Z" fill="#777777"/>
<path d="M235.234 216.626L238.36 144.739" stroke="black" stroke-width="2" stroke-miterlimit="10"/>
</g>
</svg>
