<svg width="286" height="219" viewBox="0 0 286 219" fill="none" xmlns="http://www.w3.org/2000/svg">
<ellipse cx="132.571" cy="107.178" rx="45.5759" ry="46.5305" fill="#262626"/>
<path opacity="0.1" d="M211.531 47.5746C218.314 47.5746 223.814 41.7639 223.814 34.596C223.814 27.4281 218.314 21.6173 211.531 21.6173C204.747 21.6173 199.247 27.4281 199.247 34.596C199.247 41.7639 204.747 47.5746 211.531 47.5746Z" fill="#F2F2F2"/>
<path d="M214.854 35.1421C214.738 34.8382 214.523 34.5873 214.249 34.4336C214.079 34.328 213.895 34.2487 213.703 34.1982C213.832 34.1324 213.95 34.045 214.053 33.9393C214.207 33.7888 214.322 33.6003 214.389 33.3909C214.452 33.1762 214.477 32.9513 214.464 32.7271C214.463 32.3547 214.365 31.9898 214.18 31.6726C213.974 31.3827 213.693 31.162 213.371 31.037C213.059 30.9089 212.728 30.838 212.392 30.8275V29.3234L211.532 29.9119V30.8299H210.843V29.8648L209.961 29.3234V30.8299H208.086L208.689 31.9597C208.817 31.9505 208.945 31.9689 209.066 32.0139C209.126 32.0425 209.176 32.0924 209.205 32.1551C209.242 32.2887 209.256 32.4282 209.246 32.567V36.6438C209.256 36.7818 209.242 36.9205 209.205 37.0534C209.177 37.1146 209.162 37.1687 209.096 37.2017C209.029 37.2347 209.027 37.2323 208.842 37.2323H208.84L208.086 38.3621H209.959V39.8686H210.841V38.3621H211.529V39.8686H212.39V38.3527C212.826 38.3445 213.257 38.2627 213.668 38.1103C214.05 37.9662 214.384 37.7088 214.63 37.3688C214.845 37.0071 214.962 36.5905 214.97 36.1637C214.993 35.8184 214.953 35.4718 214.854 35.1421ZM210.841 32.101H210.841V32.0697H211.443C211.781 32.0697 212.909 31.9463 212.928 32.954C212.947 33.9617 211.443 33.9205 211.443 33.9205H210.841V33.8428H210.841V32.101ZM210.841 34.9727H211.529C211.669 34.9727 212.15 34.996 212.326 35.0047C212.397 35.0075 212.468 35.0213 212.536 35.0456C212.56 35.0548 212.584 35.0652 212.609 35.0767C212.716 35.1144 212.816 35.1699 212.906 35.241C212.965 35.2839 213.017 35.3373 213.059 35.3987C213.125 35.4985 213.172 35.61 213.2 35.7278C213.22 35.8101 213.231 35.8949 213.231 35.9801C213.239 36.1424 213.201 36.3033 213.124 36.4438C213.014 36.6304 212.852 36.7767 212.66 36.8628C212.301 37.0179 211.917 37.0956 211.529 37.0911H210.841V34.9727Z" fill="#F9E006"/>
<path d="M254.778 123.944C260.133 123.944 264.474 119.358 264.474 113.7C264.474 108.042 260.133 103.455 254.778 103.455C249.423 103.455 245.082 108.042 245.082 113.7C245.082 119.358 249.423 123.944 254.778 123.944Z" fill="#303030"/>
<path d="M257.401 114.131C257.309 113.891 257.14 113.693 256.924 113.571C256.789 113.488 256.644 113.426 256.493 113.386C256.595 113.334 256.688 113.265 256.769 113.181C256.89 113.062 256.981 112.914 257.034 112.748C257.084 112.579 257.104 112.401 257.094 112.224C257.093 111.93 257.015 111.642 256.87 111.392C256.707 111.163 256.485 110.989 256.231 110.89C255.984 110.789 255.723 110.733 255.458 110.725V109.538L254.779 110.002V110.727H254.235V109.965L253.539 109.538V110.727H252.059L252.535 111.619C252.636 111.611 252.737 111.626 252.832 111.661C252.88 111.684 252.919 111.723 252.943 111.773C252.972 111.878 252.982 111.989 252.975 112.098V115.316C252.982 115.425 252.971 115.535 252.943 115.639C252.92 115.688 252.909 115.73 252.856 115.756C252.803 115.782 252.802 115.781 252.656 115.781H252.654L252.059 116.672H253.537V117.862H254.233V116.672H254.777V117.862H255.456V116.665C255.8 116.659 256.141 116.594 256.465 116.474C256.767 116.36 257.03 116.157 257.225 115.888C257.394 115.603 257.487 115.274 257.493 114.937C257.511 114.665 257.48 114.391 257.401 114.131ZM254.233 111.73H254.234V111.705H254.709C254.976 111.705 255.866 111.608 255.881 112.404C255.896 113.199 254.709 113.166 254.709 113.166H254.234V113.105H254.233V111.73ZM254.233 113.997H254.777C254.887 113.997 255.267 114.015 255.405 114.022C255.462 114.024 255.518 114.035 255.571 114.055C255.591 114.062 255.609 114.07 255.629 114.079C255.713 114.109 255.793 114.153 255.864 114.209C255.91 114.243 255.951 114.285 255.985 114.333C256.036 114.412 256.074 114.5 256.096 114.593C256.112 114.658 256.12 114.725 256.121 114.792C256.126 114.92 256.097 115.047 256.036 115.158C255.949 115.306 255.821 115.421 255.669 115.489C255.386 115.611 255.083 115.673 254.777 115.669H254.233V113.997Z" fill="#F9E006"/>
<path d="M38.827 176.22C42.7214 176.22 45.8785 172.884 45.8785 168.769C45.8785 164.654 42.7214 161.318 38.827 161.318C34.9326 161.318 31.7756 164.654 31.7756 168.769C31.7756 172.884 34.9326 176.22 38.827 176.22Z" fill="#303030"/>
<path d="M40.736 169.083C40.6691 168.908 40.5462 168.764 40.3888 168.676C40.2909 168.615 40.1852 168.57 40.0751 168.541C40.1493 168.503 40.2173 168.453 40.2764 168.392C40.3644 168.306 40.4306 168.197 40.4691 168.077C40.505 167.954 40.5197 167.825 40.5124 167.696C40.5117 167.482 40.4553 167.273 40.3493 167.091C40.231 166.924 40.0697 166.798 39.8848 166.726C39.7053 166.652 39.5152 166.612 39.3228 166.606V165.742L38.8286 166.08V166.607H38.4333V166.053L37.9269 165.742V166.607H36.8509L37.1968 167.256C37.2701 167.25 37.3437 167.261 37.413 167.287C37.4478 167.303 37.4761 167.332 37.4933 167.368C37.5143 167.445 37.5223 167.525 37.5167 167.604V169.945C37.5221 170.024 37.5142 170.104 37.4933 170.18C37.4772 170.215 37.4685 170.246 37.4302 170.265C37.392 170.284 37.3907 170.283 37.2845 170.283H37.2832L36.8509 170.931H37.9256V171.796H38.4321V170.931H38.8274V171.796H39.3215V170.926C39.5716 170.921 39.8193 170.874 40.0553 170.787C40.2743 170.704 40.4661 170.556 40.6075 170.361C40.7307 170.153 40.7982 169.914 40.8027 169.669C40.8157 169.471 40.7931 169.272 40.736 169.083ZM38.4321 167.337H38.4322V167.319H38.7776C38.9719 167.319 39.6195 167.248 39.6302 167.826C39.6411 168.405 38.7776 168.381 38.7776 168.381H38.4322V168.337H38.4321V167.337ZM38.4321 168.985H38.8274C38.9077 168.985 39.1839 168.999 39.2845 169.004C39.3255 169.005 39.3661 169.013 39.405 169.027C39.4192 169.032 39.4327 169.038 39.4473 169.045C39.5084 169.067 39.566 169.099 39.6176 169.139C39.6517 169.164 39.6815 169.195 39.7057 169.23C39.7432 169.287 39.7705 169.351 39.7864 169.419C39.7982 169.466 39.8043 169.515 39.8045 169.564C39.8086 169.657 39.7872 169.749 39.7429 169.83C39.6795 169.937 39.5864 170.021 39.4763 170.07C39.2705 170.159 39.0498 170.204 38.8274 170.201H38.4321V168.985Z" fill="#F9E006"/>
<path d="M21.1987 217.199L285.628 217.199" stroke="#3F3D56" stroke-opacity="0.4" stroke-width="2" stroke-miterlimit="10"/>
<path d="M220.201 97.9033L68.7562 0L0.0442752 118.667L151.489 216.57L220.201 97.9033Z" fill="#EAEAEA"/>
<path d="M171.552 135.544C169.633 130.88 166.677 126.784 160.766 123.336C157.711 121.511 154.429 120.146 151.016 119.28C153.312 118.153 155.424 116.647 157.273 114.819C159.99 112.252 162.05 109.002 163.261 105.369C164.376 101.677 164.831 97.799 164.604 93.9315C164.182 87.1177 162.916 80.5067 159.538 75.7614C156.16 71.0161 151.4 67.3658 145.105 64.8106C140.268 62.8638 135.317 61.6471 127.64 61.2009V35.2842L112.286 45.4238V61.2415H100.003V44.6126L84.265 35.2842V61.2415H50.8318L61.5796 80.7095C64.8998 80.7136 67.1492 81.038 68.2969 81.6423C69.3683 82.1268 70.2493 82.9861 70.7919 84.0758C71.2909 85.0898 71.5212 87.4827 71.5212 91.1735V161.421C71.5212 165.071 71.2909 167.423 70.7919 168.478C70.2929 169.532 70.0242 170.465 68.8343 171.033C67.6443 171.601 67.606 171.56 64.3049 171.56H64.2665L50.8318 191.028H84.2266V216.985H99.9644V191.028H112.248V216.985H127.601V190.866C137.582 190.339 144.683 188.96 150.402 186.688C157.81 183.768 163.491 179.51 167.56 173.913C171.629 168.315 173.279 159.758 173.625 153.147C173.894 147.266 173.279 139.681 171.552 135.544ZM99.9644 83.143H99.9682V82.6036H110.701C116.739 82.6036 136.86 80.4783 137.194 97.8413C137.532 115.204 110.701 114.495 110.701 114.495H99.9682V113.156H99.9644V83.143ZM99.9644 132.624H112.248C114.743 132.624 123.325 133.026 126.45 133.176C127.724 133.225 128.985 133.462 130.196 133.881C130.638 134.04 131.056 134.218 131.509 134.417C133.402 135.063 135.188 136.018 136.802 137.248C137.855 137.982 138.78 138.901 139.539 139.965C139.868 140.445 140.17 140.945 140.445 141.462C141.172 142.761 141.711 144.168 142.046 145.635C142.412 147.053 142.601 148.514 142.61 149.983C142.61 153.143 142.057 155.759 140.695 157.973C138.848 161.242 135.82 163.558 132.411 165.193C123.598 169.427 112.248 169.127 112.248 169.127H99.9644V132.624Z" fill="#F9E006"/>
<path opacity="0.1" d="M132.411 165.193C123.598 169.427 112.247 169.127 112.247 169.127H99.9643V166.649C104.97 165.172 111.89 164.26 119.541 164.26C123.846 164.244 128.148 164.556 132.411 165.193Z" fill="black"/>
<path opacity="0.1" d="M147.176 172.371C147.176 176.853 134.801 180.483 119.539 180.483C104.277 180.483 91.9021 176.853 91.9021 172.371C91.9021 170.137 94.9806 168.113 99.9629 166.649V169.127H112.246C112.246 169.127 123.596 169.427 132.41 165.193C141.188 166.547 147.176 169.253 147.176 172.371Z" fill="black"/>
<path d="M123.07 121.864H111.311V134.311H123.07V121.864Z" fill="#2F2E41"/>
<path d="M115.685 130.666C115.685 130.666 116.658 134.266 114.955 134.523C113.898 134.697 112.896 135.138 112.035 135.808L115.198 140.179H121.038L124.688 136.323C124.688 136.323 119.821 132.466 120.795 130.152C121.768 127.838 115.685 130.666 115.685 130.666Z" fill="#FFB9B9"/>
<path opacity="0.1" d="M115.685 130.666C115.685 130.666 116.658 134.266 114.955 134.523C113.898 134.697 112.896 135.138 112.035 135.808L115.198 140.179H121.038L124.688 136.323C124.688 136.323 119.821 132.466 120.795 130.152C121.768 127.838 115.685 130.666 115.685 130.666Z" fill="black"/>
<path d="M117.144 175.404L122.741 177.461L126.634 177.718L126.391 174.118L118.361 171.609L117.144 175.404Z" fill="#FFB9B9"/>
<path d="M124.322 174.632C124.322 174.632 124.322 178.232 124.809 178.232C125.295 178.232 131.865 177.461 133.812 178.232C135.759 179.003 138.679 176.175 137.219 174.632C135.759 173.09 133.377 170.776 131.891 171.29C130.405 171.804 124.322 173.09 124.322 173.09L124.322 174.632Z" fill="#2F2E41"/>
<path d="M106.438 171.29C106.438 171.29 103.518 177.461 105.465 177.975C107.411 178.489 109.601 177.718 109.845 177.461C110.088 177.204 113.495 176.175 113.981 176.69C114.468 177.204 114.468 174.633 114.468 174.633L106.438 171.29Z" fill="#2F2E41"/>
<path d="M108.87 162.805C108.87 162.805 104.247 169.49 107.654 171.29C111.06 173.09 127.364 173.09 128.581 171.29C129.797 169.49 130.284 163.834 128.581 163.319C126.877 162.805 108.87 162.805 108.87 162.805Z" fill="#2F2E41"/>
<path opacity="0.2" d="M108.87 162.805C108.87 162.805 104.247 169.49 107.654 171.29C111.06 173.09 127.364 173.09 128.581 171.29C129.797 169.49 130.284 163.834 128.581 163.319C126.877 162.805 108.87 162.805 108.87 162.805Z" fill="black"/>
<path d="M117.631 132.466C120.722 132.466 123.228 129.818 123.228 126.552C123.228 123.286 120.722 120.639 117.631 120.639C114.54 120.639 112.035 123.286 112.035 126.552C112.035 129.818 114.54 132.466 117.631 132.466Z" fill="#FFB9B9"/>
<path d="M108.87 135.808L113.737 134.78C113.737 134.78 114.954 138.894 118.847 138.122C122.74 137.351 123.714 134.78 123.714 134.78C123.714 134.78 126.634 136.065 126.877 136.065C127.12 136.065 130.284 137.351 130.284 138.122C130.284 138.894 126.634 146.607 126.634 146.607L127.12 160.491L109.114 159.977L110.33 146.35L108.87 135.808Z" fill="#111111"/>
<path d="M106.193 142.493C106.193 142.493 104.733 156.12 105.706 157.149C106.68 158.177 110.573 161.005 110.573 161.005V157.92L108.626 154.063L110.573 145.065L106.193 142.493Z" fill="#FFB9B9"/>
<path d="M131.378 142.108C131.378 142.108 130.527 156.12 130.527 156.635C130.527 157.149 128.337 158.949 127.607 158.949C126.877 158.949 126.39 157.663 126.39 157.663L128.093 155.606L126.877 145.065L131.378 142.108Z" fill="#FFB9B9"/>
<path d="M129.066 161.777C129.066 161.777 140.016 155.349 140.259 161.777C140.502 168.204 134.662 170.776 134.662 170.776C134.662 170.776 119.576 175.556 118.967 173.808C118.359 172.061 117.142 169.233 118.116 168.976C119.089 168.719 120.306 168.204 120.792 168.719C121.279 169.233 127.362 164.862 127.362 164.862L129.066 161.777Z" fill="#2F2E41"/>
<path opacity="0.2" d="M134.176 161.006C134.176 161.006 131.986 162.034 131.256 162.805C130.526 163.577 127.363 164.862 127.363 164.862" stroke="black" stroke-width="2" stroke-miterlimit="10"/>
<path d="M110.331 136.323L108.871 135.808C108.871 135.808 103.517 141.722 105.221 143.265C106.924 144.807 107.897 145.322 108.384 145.836C108.871 146.35 111.304 146.607 111.304 146.607L110.331 136.323Z" fill="#111111"/>
<path d="M128.095 137.608L130.285 138.122C130.285 138.122 131.988 141.979 132.475 142.493C132.962 143.008 131.745 142.75 131.015 143.779C130.285 144.807 129.555 146.607 128.095 146.607C126.635 146.607 124.688 144.036 124.688 144.036L128.095 137.608Z" fill="#111111"/>
<path d="M109.356 164.091C109.356 164.091 100.109 157.149 96.9462 162.291C93.7828 167.433 110.573 174.375 113.006 175.404C115.44 176.432 117.63 177.461 117.63 177.461C117.63 177.461 119.82 171.804 119.82 170.776C119.82 169.747 118.116 169.747 117.63 169.747C117.143 169.747 114.953 169.233 114.466 168.462C113.98 167.69 109.356 164.091 109.356 164.091Z" fill="#2F2E41"/>
<path opacity="0.2" d="M104.247 162.291C104.247 162.291 106.681 164.348 108.871 164.862C111.061 165.376 111.791 166.662 111.791 166.662" stroke="black" stroke-width="2" stroke-miterlimit="10"/>
<path d="M107.679 152.624L107.874 163.51C107.88 163.87 108.021 164.212 108.265 164.462C108.509 164.713 108.837 164.851 109.178 164.847L128.351 164.619C128.677 164.616 128.991 164.481 129.227 164.242C129.463 164.004 129.605 163.68 129.624 163.335L130.206 152.677C130.216 152.491 130.19 152.306 130.13 152.131C130.07 151.957 129.977 151.798 129.856 151.663C129.736 151.528 129.59 151.42 129.429 151.347C129.268 151.273 129.094 151.235 128.918 151.235H108.969C108.797 151.235 108.628 151.271 108.47 151.342C108.312 151.412 108.168 151.514 108.048 151.644C107.928 151.773 107.834 151.926 107.77 152.094C107.707 152.263 107.676 152.443 107.679 152.624Z" fill="white"/>
<path d="M105.461 135.873C105.983 134.656 106.684 133.513 107.019 132.224C107.42 130.679 107.264 129.044 107.216 127.442C107.14 126.026 107.254 124.605 107.555 123.223C107.861 121.834 108.548 120.571 109.529 119.592C112.079 117.187 116.746 117.014 119.86 118.015C121.087 118.41 122.395 119.162 122.699 120.479C122.745 120.678 122.766 120.883 122.817 121.08C123.072 122.061 124.022 122.681 124.364 123.631C124.807 124.861 124.124 126.197 124.035 127.509C123.931 129.041 124.643 130.488 125.346 131.833C125.763 132.632 126.197 133.483 126.156 134.395C126.121 134.894 125.978 135.377 125.737 135.807C125.289 136.588 124.661 137.235 123.912 137.688C123.163 138.142 122.318 138.387 121.454 138.401C120.893 138.449 120.332 138.309 119.85 138.001C119.09 137.448 118.868 136.335 119.026 135.374C119.184 134.414 119.646 133.545 120.007 132.648C120.118 132.373 120.218 132.093 120.311 131.811C121.432 131.149 122.296 130.091 122.75 128.822C123.204 127.553 123.219 126.155 122.793 124.876C122.366 123.596 121.526 122.517 120.419 121.829C119.313 121.141 118.012 120.888 116.746 121.114C115.48 121.341 114.331 122.034 113.501 123.069C112.672 124.104 112.215 125.416 112.212 126.772C112.208 128.129 112.659 129.443 113.484 130.483C114.308 131.522 115.454 132.221 116.719 132.454C116.991 133.905 116.868 135.408 116.362 136.788C115.902 137.91 115.324 138.974 114.639 139.961C114.36 140.466 113.986 140.908 113.542 141.258C113.25 141.441 112.935 141.583 112.608 141.68C111.233 142.147 109.786 142.523 108.356 142.313C106.926 142.103 105.51 141.191 105.022 139.755C104.595 138.497 104.938 137.091 105.461 135.873Z" fill="#FF003D"/>
<path d="M117.359 126.788C120.64 126.788 123.299 125.196 123.299 123.232C123.299 121.268 120.64 119.676 117.359 119.676C114.079 119.676 111.42 121.268 111.42 123.232C111.42 125.196 114.079 126.788 117.359 126.788Z" fill="#FF003D"/>
<g opacity="0.5">
<path d="M221.197 154.985C223.683 154.985 225.699 152.855 225.699 150.228C225.699 147.6 223.683 145.471 221.197 145.471C218.71 145.471 216.694 147.6 216.694 150.228C216.694 152.855 218.71 154.985 221.197 154.985Z" fill="#F8931A"/>
<path d="M256.689 202.013V147.848" stroke="black" stroke-opacity="0.4" stroke-width="2" stroke-miterlimit="10"/>
<path d="M256.689 155.507C260.692 155.507 263.938 152.078 263.938 147.848C263.938 143.617 260.692 140.188 256.689 140.188C252.685 140.188 249.44 143.617 249.44 147.848C249.44 152.078 252.685 155.507 256.689 155.507Z" fill="#525252"/>
<path d="M242.412 178.175C231.941 195.143 234.81 216.723 234.81 216.723C234.81 216.723 254.656 210.794 265.127 193.826C275.599 176.859 272.729 155.279 272.729 155.279C272.729 155.279 252.883 161.208 242.412 178.175Z" fill="#525252" fill-opacity="0.4"/>
<path d="M234.754 216.526C234.754 216.526 234.499 216.483 234.03 216.383C233.655 216.302 233.14 216.188 232.511 216.03C226.887 214.629 211.934 209.892 202.158 197.439C189.922 181.846 190.437 160.061 190.437 160.061C190.437 160.061 209.146 163.273 221.474 177.276C222.008 177.878 222.528 178.501 223.033 179.147C233.68 192.714 234.672 210.97 234.751 215.483C234.762 216.159 234.754 216.526 234.754 216.526Z" fill="#777777" fill-opacity="0.4"/>
<path d="M227.207 178.175C237.678 195.143 234.809 216.723 234.809 216.723C234.809 216.723 214.963 210.794 204.491 193.826C194.02 176.859 196.889 155.279 196.889 155.279C196.889 155.279 216.736 161.208 227.207 178.175Z" fill="#525252" fill-opacity="0.4" stroke="black" stroke-opacity="0.4" stroke-width="2" stroke-miterlimit="10"/>
<path d="M250.279 181.175C249.451 201.412 235.233 217.199 235.233 217.199C235.233 217.199 222.358 200.175 223.186 179.938C224.013 159.701 238.231 143.914 238.231 143.914C238.231 143.914 251.106 160.938 250.279 181.175Z" fill="#777777" fill-opacity="0.4"/>
<path d="M235.232 216.626L238.358 144.739" stroke="black" stroke-opacity="0.4" stroke-width="2" stroke-miterlimit="10"/>
</g>
</svg>
