<svg width="54" height="55" viewBox="0 0 54 55" fill="none" xmlns="http://www.w3.org/2000/svg">
<path fill-rule="evenodd" clip-rule="evenodd" d="M33.2246 5.5125C33.2246 3.85 34.5746 2.5 36.2371 2.5C37.8996 2.5 39.2496 3.85 39.2496 5.5125C39.2496 7.175 37.8996 8.525 36.2371 8.525C34.5746 8.525 33.2246 7.175 33.2246 5.5125ZM28.412 18.4491L32.0245 13.7879L31.9745 13.8129C32.1745 13.5379 32.212 13.1879 32.0745 12.8754C31.9383 12.5629 31.637 12.3504 31.3133 12.3254C30.9745 12.2879 30.6383 12.4379 30.437 12.7129L27.4133 16.6254L23.9495 13.9004C23.737 13.7379 23.487 13.6741 23.237 13.7004C22.9883 13.7379 22.7633 13.8741 22.612 14.0741L18.9133 18.8879L18.837 19.0004C18.6245 19.3991 18.7245 19.9116 19.0995 20.1879C19.2745 20.3004 19.462 20.3754 19.6745 20.3754C19.9633 20.3879 20.237 20.2366 20.412 20.0004L23.5495 15.9616L27.112 18.6379L27.2245 18.7116C27.6245 18.9241 28.1245 18.8254 28.412 18.4491ZM31.062 4.72538C31.012 5.03788 30.987 5.35038 30.987 5.66288C30.987 8.47537 33.262 10.7491 36.062 10.7491C36.3745 10.7491 36.6745 10.7129 36.987 10.6629V20.7491C36.987 24.9879 34.487 27.5004 30.237 27.5004H21.0008C16.7495 27.5004 14.2495 24.9879 14.2495 20.7491V11.5004C14.2495 7.25037 16.7495 4.72538 21.0008 4.72538H31.062Z" fill="#3063E9"/>
<rect y="44" width="54" height="20.1356" rx="10.0678" fill="#3063E9"/>
</svg>
