<svg width="50" height="50" viewBox="0 0 50 50" fill="none" xmlns="http://www.w3.org/2000/svg">
<circle cx="25" cy="25" r="25" fill="#22A079"/>
<path fill-rule="evenodd" clip-rule="evenodd" d="M28.3834 16.7519V20.9066L28.3878 20.9111C35.968 21.2663 41.6663 22.7996 41.6663 24.6296C41.6663 26.4642 35.968 27.9929 28.3878 28.3482V41.6665H21.6337V28.3482C14.0446 27.9884 8.33301 26.4597 8.33301 24.6251C8.33301 22.7906 14.0402 21.2618 21.6337 20.9066V16.7519H12.291V10.4165H37.7261V16.7519H28.3834ZM28.3834 27.2061V27.2106V27.2151C35.0757 26.9093 40.0717 25.7223 40.0717 24.3014C40.0717 22.8805 35.0801 21.6935 28.3834 21.3877V26.028C28.189 26.046 27.1465 26.1359 25.0615 26.1359C23.3255 26.1359 22.0666 26.0595 21.6292 26.028V21.3832C14.9237 21.6845 9.91442 22.876 9.91442 24.2969C9.91442 25.7223 14.9193 26.9093 21.6292 27.2106V27.2061C22.0621 27.2286 23.2857 27.278 25.0306 27.278C27.2128 27.278 28.1934 27.2196 28.3834 27.2061Z" fill="white"/>
</svg>
