<svg width="24" height="25" viewBox="0 0 24 25" fill="none" xmlns="http://www.w3.org/2000/svg">
<path d="M21.057 7.76122C21.0663 7.97242 21.0663 8.17402 21.0663 8.38523C21.0755 14.7884 16.3711 22.1805 7.76781 22.1805C5.23036 22.1805 2.73921 21.4221 0.599976 20.0013C0.970406 20.0493 1.34084 20.0685 1.71127 20.0685C3.81346 20.0685 5.86009 19.3389 7.51777 17.9853C5.51744 17.9469 3.7579 16.5933 3.14669 14.6156C3.8505 14.7596 4.57284 14.7308 5.25814 14.5292C3.08186 14.0876 1.51679 12.1004 1.50753 9.78683C1.50753 9.76763 1.50753 9.74843 1.50753 9.72923C2.15578 10.1036 2.88738 10.3148 3.62825 10.334C1.58162 8.91323 0.942624 6.08122 2.18357 3.86361C4.56358 6.89722 8.06415 8.73083 11.824 8.93243C11.4443 7.25242 11.9629 5.48602 13.1761 4.29561C15.056 2.46201 18.0195 2.55801 19.7975 4.50681C20.844 4.29561 21.8534 3.89241 22.7702 3.32601C22.4183 4.44921 21.6867 5.39962 20.7144 6.00442C21.6404 5.88922 22.548 5.63002 23.4 5.24601C22.7702 6.22522 21.9738 7.07002 21.057 7.76122Z" fill="#1D9BF0"/>
</svg>
