<svg width="40" height="33" viewBox="0 0 40 33" fill="none" xmlns="http://www.w3.org/2000/svg">
<path d="M39.4998 4.46475C38.0666 5.09958 36.525 5.52317 34.8989 5.72358C36.5521 4.74208 37.8239 3.17667 38.4208 1.32742C36.8738 2.23417 35.16 2.90042 33.3368 3.25142C31.8808 1.70767 29.804 0.75 27.503 0.75C23.083 0.75 19.5004 4.30117 19.5004 8.68C19.5004 9.29967 19.573 9.90308 19.7095 10.4892C13.06 10.1555 7.16233 6.99433 3.21683 2.19733C2.5235 3.3695 2.1335 4.74208 2.1335 6.1905C2.1335 8.94325 3.54292 11.3667 5.69225 12.7945C4.38033 12.7544 3.14533 12.3893 2.06416 11.8043C2.06416 11.8282 2.06416 11.8639 2.06416 11.8975C2.06416 15.7444 4.82341 18.9478 8.48075 19.6769C7.81233 19.86 7.106 19.9618 6.378 19.9618C5.86125 19.9618 5.3575 19.9033 4.87 19.8156C5.88833 22.9594 8.84258 25.2572 12.3428 25.3254C9.60417 27.4487 6.15483 28.7206 2.40433 28.7206C1.7565 28.7206 1.12275 28.6838 0.496582 28.6079C4.04017 30.8515 8.24783 32.1667 12.7642 32.1667C27.4813 32.1667 35.5327 20.081 35.5327 9.5965C35.5327 9.25308 35.5218 8.91075 35.5056 8.57275C37.0764 7.46342 38.4306 6.06375 39.4998 4.46475Z" fill="#03A9F4"/>
</svg>
