<svg width="20" height="20" viewBox="0 0 20 20" fill="none" xmlns="http://www.w3.org/2000/svg">
<path d="M14.9999 5.967C14.9499 5.95866 14.8916 5.95866 14.8416 5.967C13.6916 5.92533 12.7749 4.98366 12.7749 3.81699C12.7749 2.62533 13.7332 1.66699 14.9249 1.66699C16.1166 1.66699 17.0749 2.63366 17.0749 3.81699C17.0666 4.98366 16.1499 5.92533 14.9999 5.967Z" stroke="white" stroke-width="1.5" stroke-linecap="round" stroke-linejoin="round"/>
<path d="M14.1415 12.0338C15.2831 12.2255 16.5415 12.0255 17.4248 11.4338C18.5998 10.6505 18.5998 9.36713 17.4248 8.58379C16.5331 7.99213 15.2581 7.79212 14.1165 7.99212" stroke="white" stroke-width="1.5" stroke-linecap="round" stroke-linejoin="round"/>
<path d="M4.9749 5.967C5.0249 5.95866 5.08324 5.95866 5.13324 5.967C6.28324 5.92533 7.1999 4.98366 7.1999 3.81699C7.1999 2.62533 6.24157 1.66699 5.0499 1.66699C3.85824 1.66699 2.8999 2.63366 2.8999 3.81699C2.90824 4.98366 3.8249 5.92533 4.9749 5.967Z" stroke="white" stroke-width="1.5" stroke-linecap="round" stroke-linejoin="round"/>
<path d="M5.83328 12.0338C4.69162 12.2255 3.43328 12.0255 2.54995 11.4338C1.37495 10.6505 1.37495 9.36713 2.54995 8.58379C3.44162 7.99213 4.71662 7.79212 5.85828 7.99212" stroke="white" stroke-width="1.5" stroke-linecap="round" stroke-linejoin="round"/>
<path d="M10.0001 12.1916C9.95015 12.1833 9.89181 12.1833 9.84181 12.1916C8.69181 12.1499 7.77515 11.2083 7.77515 10.0416C7.77515 8.84994 8.73348 7.8916 9.92514 7.8916C11.1168 7.8916 12.0751 8.85827 12.0751 10.0416C12.0668 11.2083 11.1501 12.1583 10.0001 12.1916Z" stroke="white" stroke-width="1.5" stroke-linecap="round" stroke-linejoin="round"/>
<path d="M7.5751 14.8168C6.4001 15.6001 6.4001 16.8835 7.5751 17.6668C8.90843 18.5585 11.0918 18.5585 12.4251 17.6668C13.6001 16.8835 13.6001 15.6001 12.4251 14.8168C11.1001 13.9335 8.90843 13.9335 7.5751 14.8168Z" stroke="white" stroke-width="1.5" stroke-linecap="round" stroke-linejoin="round"/>
</svg>
