<svg width="647" height="707" viewBox="0 0 647 707" fill="none" xmlns="http://www.w3.org/2000/svg">
<path d="M282.053 196.485C286.334 186.681 248.41 177.795 236.941 208.005C226.543 235.412 209.28 242.412 217.401 261.391C226.186 281.934 275.885 284.397 297.464 261.629C314.964 243.16 295.968 235.378 298.415 218.013C300.862 200.648 295.73 194.99 282.053 196.485Z" fill="black"/>
<path d="M212.967 255.308C210.996 244.604 214.972 240.186 220.001 234.596C226.798 227.7 231.454 218.984 233.407 209.5C234.42 204.321 237.01 199.582 240.821 195.932C244.633 192.282 249.479 189.9 254.697 189.111C265.911 187.038 277.788 190.708 280.931 195.364C281.432 196.02 281.717 196.815 281.748 197.639C281.778 198.464 281.552 199.277 281.101 199.968L279.674 199.051C279.949 198.64 280.083 198.151 280.055 197.658C280.028 197.164 279.84 196.693 279.521 196.315C276.735 192.17 265.419 188.856 255.02 190.793C247.595 192.17 238.029 196.587 235.072 209.874C233.059 219.642 228.262 228.617 221.259 235.718C216.365 241.155 212.763 245.097 214.649 254.986L212.967 255.308Z" fill="black"/>
<path d="M189.604 247.17L188.55 243.772C187.823 241.462 186.505 239.383 184.727 237.74L181.329 234.647C180.254 233.654 178.866 233.067 177.404 232.99C175.943 232.912 174.5 233.348 173.326 234.223L169.69 236.941C169.026 237.438 168.466 238.062 168.044 238.776C167.623 239.491 167.347 240.282 167.233 241.103C167.119 241.925 167.17 242.762 167.382 243.564C167.593 244.366 167.962 245.118 168.467 245.777L170.812 248.835C170.812 248.835 176.317 258.146 184.286 261.374L186.121 259.811C187.876 258.277 189.142 256.261 189.762 254.014C190.381 251.766 190.326 249.386 189.604 247.17Z" fill="#FFC3BD"/>
<path d="M255.648 306.163L254.561 306.996L253.678 307.641L251.978 308.831C250.84 309.578 249.685 310.275 248.58 310.955C246.268 312.283 243.886 313.486 241.444 314.557C236.422 316.772 231.142 318.347 225.727 319.246C220.01 320.207 214.175 320.241 208.447 319.348C205.516 318.887 202.636 318.142 199.85 317.122C199.153 316.901 198.456 316.613 197.777 316.324L196.757 315.899L196.248 315.678L195.687 315.44L194.973 315.1C193.49 314.341 192.123 313.374 190.912 312.229C190.042 311.419 189.241 310.538 188.517 309.595C186.594 306.988 185.039 304.13 183.895 301.1C182.876 298.585 182.094 296.172 181.397 293.81C180.13 289.24 179.103 284.607 178.322 279.929C176.77 270.888 175.901 261.744 175.722 252.573C175.512 250.856 175.964 249.124 176.987 247.729C178.009 246.334 179.525 245.381 181.226 245.065C182.926 244.749 184.683 245.093 186.139 246.027C187.594 246.961 188.639 248.415 189.06 250.092V250.279C192.017 258.418 194.854 266.761 197.845 274.679C199.391 278.62 200.886 282.545 202.585 286.114C203.401 287.898 204.284 289.597 205.117 291.075C205.684 292.158 206.411 293.149 207.275 294.014C207.275 294.014 207.275 294.014 207.156 293.777C206.765 293.37 206.304 293.037 205.797 292.791L205.474 292.621C205.372 292.621 205.168 292.502 205.287 292.536H205.559L206.085 292.672C206.436 292.781 206.794 292.866 207.156 292.927C208.59 293.213 210.044 293.389 211.506 293.454C214.565 293.547 217.622 293.227 220.596 292.502C223.859 291.679 227.034 290.541 230.077 289.104C231.657 288.39 233.22 287.558 234.749 286.725C235.514 286.3 236.262 285.842 236.975 285.4L238.674 284.312L240 283.48C242.985 281.582 246.59 280.915 250.057 281.618C253.524 282.321 256.584 284.341 258.594 287.252C260.604 290.164 261.407 293.741 260.836 297.232C260.265 300.723 258.363 303.857 255.53 305.976L255.648 306.163Z" fill="#FFC3BD"/>
<path d="M285.451 699.83C296.206 696.279 305.263 689.007 303.444 676.246C302.646 670.775 320.198 668.634 320.198 668.634C318.21 686.016 320.385 689.024 322.475 692.949C324.564 696.873 324.445 701.682 320.775 702.107C316.426 702.634 315.457 702.107 310.054 702.871C303.733 703.704 299.638 707 287.014 707C280.201 707 282.053 700.951 285.451 699.83Z" fill="#F9E006"/>
<path d="M318.159 514.168C319.399 427.106 311.363 379.649 311.363 379.649L246.949 382.861C246.949 382.861 256.481 462.515 273.404 521.185C277.924 552.67 288.102 605.92 295.153 641.686C305.616 640.791 315.96 638.832 326.026 635.841C328.49 604.425 328.931 559.008 318.159 514.168Z" fill="#F9E006"/>
<path d="M319.552 677.164C319.552 677.164 322.067 660.716 323.766 635.841C315.218 638.818 306.35 640.78 297.345 641.686C301.015 663.401 303.631 677.232 303.631 677.232C308.781 679.084 314.419 679.06 319.552 677.164Z" fill="#FFC3BD"/>
<path d="M291.636 631.271C292.197 634.261 293.76 641.754 295.306 644.388C295.395 644.54 295.518 644.67 295.666 644.767C295.813 644.864 295.98 644.926 296.155 644.949C308.168 646.461 320.164 644.048 325.04 641.873C325.177 641.818 325.3 641.736 325.402 641.63C325.505 641.525 325.584 641.399 325.635 641.262C326.994 637.66 327.487 630.081 327.64 626.887C327.648 626.714 327.617 626.542 327.549 626.383C327.481 626.224 327.378 626.082 327.246 625.969C327.115 625.856 326.96 625.775 326.793 625.73C326.626 625.686 326.45 625.681 326.281 625.715C315.147 627.778 303.903 629.185 292.604 629.929C292.45 629.947 292.3 629.997 292.166 630.075C292.032 630.154 291.915 630.26 291.824 630.386C291.733 630.513 291.669 630.656 291.637 630.809C291.604 630.961 291.604 631.118 291.636 631.271Z" fill="black"/>
<path d="M247.798 280.49C238.249 282.189 223.688 290.259 223.688 290.259C223.688 290.259 216.025 308.61 225.2 321.829C234.239 323.97 238.793 322.22 238.793 322.22L247.798 280.49Z" fill="black"/>
<path opacity="0.2" d="M225.2 321.829C234.239 323.97 238.793 322.22 238.793 322.22L238.47 297.464C232.336 305.722 227.222 313.911 225.2 321.829Z" fill="black"/>
<path opacity="0.2" d="M317.819 462.804C310.614 445.184 302.867 430.674 299.893 417.421C294.796 453.459 298.806 486.608 318.193 510.362C318.413 492.827 318.226 476.958 317.819 462.804Z" fill="black"/>
<path d="M416.282 600.976L390.575 619.258C369.591 591.919 338.123 550.155 330.511 531.975C311.175 485.844 272.3 384.152 272.3 384.152L322.763 372.428C322.763 372.428 354.605 401.993 375.147 513.556C392.342 537.99 406.818 573.943 416.282 600.976Z" fill="#F9E006"/>
<path d="M414.804 687.63C421.209 675.108 421.294 661.311 414.379 650.437C411.405 645.781 426.511 636.589 426.511 636.589C431.846 653.257 436.195 654.226 439.9 656.809C443.604 659.391 443.977 664.947 440.851 666.833C437.439 668.839 434.533 671.6 432.356 674.904C428.482 680.001 426.307 687.002 420.751 691.368C417.199 694.138 411.983 693.119 414.804 687.63Z" fill="#F9E006"/>
<path d="M429.314 644.235C429.314 644.235 424.88 628.637 416.18 605.274C409.61 611.497 402.34 616.937 394.517 621.484C406.801 639.766 415.789 652.9 415.789 652.9C421.012 651.318 425.694 648.318 429.314 644.235Z" fill="#FFC3BD"/>
<path d="M385.018 614.348C386.717 616.828 391.271 623.03 393.768 624.78C393.915 624.883 394.082 624.952 394.259 624.982C394.435 625.011 394.616 625 394.788 624.95C406.342 621.382 416.282 614.229 419.918 610.202C420.02 610.094 420.097 609.965 420.144 609.824C420.191 609.683 420.206 609.534 420.19 609.386C419.952 605.563 417.267 598.444 416.095 595.47C416.031 595.313 415.932 595.172 415.806 595.057C415.68 594.942 415.53 594.858 415.367 594.809C415.204 594.76 415.032 594.748 414.864 594.774C414.696 594.801 414.536 594.864 414.396 594.961C405.124 601.43 395.479 607.347 385.511 612.682C385.36 612.749 385.225 612.848 385.116 612.972C385.007 613.096 384.926 613.243 384.879 613.401C384.832 613.559 384.82 613.726 384.844 613.89C384.868 614.053 384.928 614.209 385.018 614.348Z" fill="#263238"/>
<path d="M233.22 305.84C235.531 320.878 226.576 332.533 240.356 339.466C238.062 350.901 241.461 373.737 246.915 382.793C254.578 386.956 292.06 380.805 322.695 372.412C322.253 359.328 311.498 333.587 314.488 290.735C314.649 288.391 314.316 286.039 313.51 283.832C312.704 281.625 311.443 279.612 309.809 277.924C308.175 276.235 306.204 274.909 304.025 274.031C301.845 273.153 299.506 272.743 297.157 272.827C294.507 272.827 291.686 273.082 288.832 273.336C278.796 273.981 268.819 275.343 258.978 277.414C255.801 278.162 252.522 279.011 249.412 279.895C244.007 281.491 239.374 285.012 236.39 289.794C233.406 294.575 232.278 300.284 233.22 305.84Z" fill="black"/>
<path d="M254.867 294.405C254.867 294.405 264.467 290.905 269.497 299.503C277.873 294.796 289.648 274.899 288.815 273.387C274.798 277.244 254.867 294.405 254.867 294.405Z" fill="white"/>
<path d="M254.867 294.405C254.867 294.405 247.577 293.538 245.521 299.995C245.521 287.252 254.119 279.232 257.874 277.737C256.566 281.067 254.867 294.405 254.867 294.405Z" fill="white"/>
<path d="M285.145 239.66C284.075 249.599 283.905 265.571 288.832 273.404C288.832 273.404 270.142 286.198 254.85 294.405C250.041 283.276 257.857 277.737 257.857 277.737C265.146 274.95 265.078 265.622 264.093 258.486L285.145 239.66Z" fill="#FFC3BD"/>
<path opacity="0.2" d="M264.127 258.486L276.021 247.781C276.42 249.779 276.291 251.847 275.647 253.779C273.587 259.348 269.628 264.011 264.467 266.947C264.654 264.123 264.54 261.286 264.127 258.486Z" fill="black"/>
<path d="M288.985 221.19C287.286 237.332 287.031 244.179 278.706 252.165C266.166 264.178 247.085 258.673 243.942 242.395C241.104 227.732 244.214 203.808 259.981 197.981C275.749 192.153 290.548 205.066 288.985 221.19Z" fill="#FFC3BD"/>
<path d="M285.451 232.999C282.959 230.614 281.503 227.347 281.395 223.9C281.287 220.452 282.536 217.1 284.873 214.564C289.121 210.265 295.068 219.169 295.068 219.169L285.451 232.999Z" fill="#263238"/>
<path d="M265.758 225.659C265.758 226.985 264.959 228.021 264.059 227.987C263.158 227.953 262.547 226.849 262.598 225.541C262.649 224.232 263.396 223.179 264.297 223.213C265.197 223.247 265.809 224.283 265.758 225.659Z" fill="#263238"/>
<path d="M249.548 225.268C249.548 226.576 248.767 227.613 247.849 227.579C246.932 227.545 246.337 226.457 246.388 225.132C246.439 223.807 247.169 222.787 248.087 222.821C249.004 222.855 249.599 223.943 249.548 225.268Z" fill="#263238"/>
<path d="M248.46 222.907L245.334 221.87C245.334 221.87 246.863 224.402 248.46 222.907Z" fill="#263238"/>
<path d="M253.541 225.778C252.228 228.74 250.512 231.508 248.443 234.002C249.096 234.505 249.851 234.86 250.655 235.042C251.459 235.223 252.293 235.228 253.099 235.055L253.541 225.778Z" fill="#ED847E"/>
<path d="M260.559 240.22C259.822 240.324 259.076 240.359 258.333 240.322C258.232 240.318 258.137 240.275 258.067 240.202C257.998 240.129 257.959 240.032 257.959 239.931C257.961 239.88 257.973 239.83 257.995 239.783C258.017 239.737 258.047 239.695 258.085 239.66C258.123 239.625 258.168 239.598 258.216 239.581C258.264 239.563 258.315 239.555 258.367 239.558C260.003 239.655 261.639 239.368 263.144 238.719C264.649 238.07 265.981 237.077 267.032 235.82C267.06 235.778 267.095 235.742 267.137 235.714C267.178 235.686 267.225 235.667 267.274 235.657C267.323 235.648 267.374 235.648 267.423 235.659C267.472 235.669 267.518 235.689 267.559 235.718C267.601 235.747 267.638 235.784 267.666 235.827C267.694 235.87 267.713 235.918 267.723 235.968C267.732 236.019 267.732 236.071 267.721 236.121C267.71 236.171 267.69 236.219 267.661 236.261C265.899 238.455 263.351 239.876 260.559 240.22Z" fill="#263238"/>
<path d="M291.669 234.715C291.039 236.05 290.131 237.234 289.005 238.19C287.88 239.145 286.564 239.849 285.145 240.254C281.526 241.155 279.843 237.179 280.965 233.203C281.967 229.618 285.077 224.843 288.645 225.71C292.213 226.576 293.419 231.232 291.669 234.715Z" fill="#FFC3BD"/>
<path d="M280.625 198.235C269.187 205.371 256.344 209.956 242.973 211.675C242.973 200.071 265.673 187.038 280.625 198.235Z" fill="black"/>
<path d="M271.858 199.645C269.224 209.84 295.646 228.53 290.548 246.507C299.18 233.067 292.961 202.823 292.961 202.823C292.961 202.823 270.703 188.737 271.858 199.645Z" fill="black"/>
<path d="M269.139 216.993C269.036 216.979 268.937 216.943 268.849 216.887C268.761 216.831 268.686 216.758 268.629 216.671C268.105 215.851 267.394 215.168 266.556 214.675C265.718 214.182 264.775 213.893 263.804 213.833C263.703 213.838 263.602 213.822 263.507 213.786C263.413 213.751 263.326 213.696 263.253 213.626C263.18 213.557 263.122 213.473 263.082 213.38C263.043 213.287 263.022 213.187 263.022 213.085C263.018 212.982 263.034 212.879 263.07 212.782C263.107 212.686 263.162 212.597 263.234 212.523C263.305 212.448 263.391 212.389 263.486 212.348C263.581 212.308 263.684 212.287 263.787 212.287C265.014 212.34 266.21 212.687 267.274 213.3C268.339 213.912 269.24 214.771 269.904 215.804C269.961 215.887 270.002 215.981 270.023 216.081C270.044 216.18 270.045 216.282 270.026 216.382C270.007 216.482 269.968 216.576 269.912 216.661C269.856 216.746 269.784 216.818 269.7 216.874C269.619 216.93 269.527 216.969 269.431 216.99C269.335 217.01 269.236 217.011 269.139 216.993Z" fill="#263238"/>
<path d="M242.379 216.433C242.18 216.419 241.994 216.335 241.852 216.195C241.78 216.124 241.723 216.039 241.684 215.946C241.645 215.853 241.625 215.753 241.625 215.651C241.625 215.55 241.645 215.45 241.684 215.357C241.723 215.263 241.78 215.179 241.852 215.108C242.7 214.217 243.748 213.543 244.91 213.141C246.072 212.739 247.313 212.621 248.53 212.797C248.729 212.842 248.903 212.963 249.014 213.134C249.125 213.306 249.165 213.514 249.124 213.714C249.104 213.814 249.064 213.909 249.007 213.993C248.95 214.077 248.876 214.149 248.791 214.205C248.705 214.26 248.609 214.298 248.509 214.316C248.409 214.334 248.306 214.331 248.207 214.309C247.242 214.186 246.262 214.293 245.347 214.621C244.432 214.948 243.607 215.488 242.939 216.195C242.791 216.345 242.59 216.431 242.379 216.433Z" fill="#263238"/>
<path d="M264.67 223.297L261.544 222.278C261.544 222.278 263.056 224.809 264.67 223.297Z" fill="#263238"/>
<path opacity="0.2" d="M314.08 299.044C313.775 308.116 314.076 317.198 314.981 326.23C306.485 317.258 295.815 300.318 295.118 291.823L314.08 299.044Z" fill="black"/>
<path d="M369.557 267.134L371.409 256.345L388.179 262.818C388.179 262.818 384.288 272.86 377.135 277.295L375.147 276.037C373.588 275.089 372.271 273.791 371.301 272.245C370.331 270.7 369.734 268.95 369.557 267.134Z" fill="#FFC3BD"/>
<path d="M381.875 250.33L387.397 253.338C388.604 253.992 389.502 255.098 389.897 256.412C390.292 257.727 390.15 259.144 389.504 260.355L388.196 262.819L371.426 256.345L375.419 251.571C376.189 250.654 377.251 250.031 378.427 249.805C379.603 249.579 380.82 249.765 381.875 250.33Z" fill="#FFC3BD"/>
<path d="M311.09 279.453L313.231 281.662L315.559 284.024C317.139 285.57 318.719 287.15 320.35 288.645C323.578 291.687 326.909 294.507 330.256 297.141C333.413 299.617 336.766 301.833 340.281 303.767C342.968 305.279 345.892 306.324 348.929 306.86L344.359 307.709C343.237 308.253 343.305 308.491 343.543 308.304C344.002 307.997 344.424 307.638 344.8 307.234C346.044 305.94 347.18 304.548 348.199 303.071C350.509 299.791 352.854 296.07 354.995 292.213C357.136 288.356 359.413 284.398 361.605 280.32L368.146 268.222V268.12C368.913 266.678 370.168 265.556 371.686 264.955C373.204 264.353 374.887 264.311 376.433 264.836C377.98 265.361 379.289 266.419 380.127 267.821C380.965 269.222 381.278 270.876 381.008 272.487C380.227 277.38 379.156 282.002 377.967 286.708C376.778 291.415 375.503 296.07 373.804 300.743C372.139 305.561 370.164 310.266 367.891 314.829C366.573 317.397 365.08 319.872 363.423 322.237C362.377 323.695 361.205 325.06 359.922 326.315C358.022 328.209 355.779 329.726 353.313 330.783C352.102 331.299 350.805 331.581 349.49 331.616H348.742C342.028 331.655 335.384 330.259 329.253 327.521C326.548 326.364 323.905 325.065 321.336 323.63C318.878 322.18 316.504 320.679 314.216 319.127C309.77 316.014 305.535 312.608 301.541 308.933C299.587 307.132 297.65 305.314 295.798 303.394C294.88 302.442 293.946 301.491 293.045 300.488C292.145 299.486 291.346 298.568 290.242 297.294C287.799 294.59 286.531 291.027 286.716 287.388C286.901 283.749 288.524 280.332 291.227 277.89C293.931 275.448 297.494 274.179 301.133 274.364C304.772 274.549 308.189 276.172 310.631 278.875L311.09 279.453Z" fill="#FFC3BD"/>
<path d="M297.905 272.911C310.359 273.285 322.746 288.203 322.746 288.203C322.746 288.203 317.954 307.998 304.31 316.527C296.63 310.546 290.123 305.755 290.123 305.755C279.265 289.834 282.885 279.266 297.905 272.911Z" fill="black"/>
<path d="M244.434 381.688C245.352 387.006 246.456 391.186 246.813 392.46C246.847 392.596 246.909 392.722 246.993 392.833C247.078 392.944 247.184 393.037 247.306 393.106C249.124 394.108 257.415 398.203 272.64 397.303C289.631 396.385 314.557 387.108 327.487 377.236C327.675 377.09 327.811 376.887 327.872 376.657C327.933 376.426 327.917 376.182 327.827 375.962C326.828 373.748 325.664 371.612 324.343 369.573C324.214 369.378 324.026 369.229 323.805 369.149C323.585 369.07 323.344 369.064 323.12 369.132C317.547 370.831 282.46 380.872 245.505 380.431C245.348 380.431 245.193 380.466 245.051 380.532C244.908 380.598 244.782 380.694 244.68 380.813C244.579 380.933 244.504 381.073 244.462 381.224C244.419 381.375 244.41 381.533 244.434 381.688Z" fill="#F9E006"/>
<path opacity="0.3" d="M244.434 381.688C245.352 387.006 246.456 391.186 246.813 392.46C246.847 392.596 246.909 392.722 246.993 392.833C247.078 392.944 247.184 393.037 247.306 393.106C249.124 394.108 257.415 398.203 272.64 397.303C289.631 396.385 314.557 387.108 327.487 377.236C327.675 377.09 327.811 376.887 327.872 376.657C327.933 376.426 327.917 376.182 327.827 375.962C326.828 373.748 325.664 371.612 324.343 369.573C324.214 369.378 324.026 369.229 323.805 369.149C323.585 369.07 323.344 369.064 323.12 369.132C317.547 370.831 282.46 380.872 245.505 380.431C245.348 380.431 245.193 380.466 245.051 380.532C244.908 380.598 244.782 380.694 244.68 380.813C244.579 380.933 244.504 381.073 244.462 381.224C244.419 381.375 244.41 381.533 244.434 381.688Z" fill="white"/>
<path d="M584.953 656.554H361.248C357.11 656.592 353.009 655.773 349.203 654.15C345.398 652.526 341.969 650.133 339.133 647.119C336.297 644.106 334.115 640.539 332.725 636.642C331.335 632.745 330.766 628.602 331.054 624.474L358.24 159.513C358.86 150.882 362.696 142.798 368.988 136.859C375.279 130.919 383.571 127.556 392.222 127.433H615.978C620.116 127.395 624.217 128.214 628.023 129.837C631.828 131.461 635.257 133.854 638.093 136.867C640.929 139.881 643.111 143.448 644.501 147.345C645.891 151.242 646.46 155.385 646.172 159.513L618.901 624.474C618.281 633.099 614.451 641.178 608.166 647.117C601.881 653.056 593.598 656.423 584.953 656.554Z" fill="#F9E006"/>
<path opacity="0.8" d="M584.953 656.554H361.248C357.11 656.592 353.009 655.773 349.203 654.15C345.398 652.526 341.969 650.133 339.133 647.119C336.297 644.106 334.115 640.539 332.725 636.642C331.335 632.745 330.766 628.602 331.054 624.474L358.24 159.513C358.86 150.882 362.696 142.798 368.988 136.859C375.279 130.919 383.571 127.556 392.222 127.433H615.978C620.116 127.395 624.217 128.214 628.023 129.837C631.828 131.461 635.257 133.854 638.093 136.867C640.929 139.881 643.111 143.448 644.501 147.345C645.891 151.242 646.46 155.385 646.172 159.513L618.901 624.474C618.281 633.099 614.451 641.178 608.166 647.117C601.881 653.056 593.598 656.423 584.953 656.554Z" fill="white"/>
<path d="M583.628 647.242H366.142C363.235 647.27 360.353 646.697 357.679 645.557C355.004 644.417 352.595 642.737 350.601 640.62C348.608 638.504 347.074 635.998 346.097 633.261C345.119 630.523 344.718 627.612 344.92 624.712L372.106 161.772C372.542 155.723 375.224 150.056 379.625 145.884C384.027 141.712 389.83 139.337 395.893 139.225H613.379C616.287 139.199 619.169 139.775 621.844 140.917C624.518 142.058 626.928 143.741 628.921 145.858C630.914 147.976 632.447 150.483 633.425 153.221C634.402 155.96 634.803 158.871 634.601 161.772L607.416 624.712C606.979 630.76 604.297 636.425 599.895 640.594C595.493 644.763 589.69 647.135 583.628 647.242Z" fill="#F9E006"/>
<path d="M581.283 644.761H363.797C360.889 644.787 358.008 644.211 355.333 643.069C352.658 641.928 350.249 640.246 348.256 638.128C346.263 636.011 344.729 633.504 343.752 630.765C342.774 628.026 342.374 625.115 342.575 622.214L369.761 159.274C370.197 153.225 372.879 147.558 377.281 143.386C381.682 139.214 387.485 136.839 393.548 136.727H611.035C613.943 136.701 616.824 137.277 619.499 138.419C622.173 139.56 624.583 141.243 626.576 143.36C628.569 145.478 630.102 147.985 631.08 150.723C632.058 153.462 632.458 156.373 632.257 159.274L605.071 622.214C604.635 628.263 601.953 633.93 597.551 638.102C593.15 642.275 587.347 644.65 581.283 644.761Z" fill="white"/>
<path opacity="0.1" d="M574.928 627.549H372.105C370.308 627.565 368.527 627.21 366.875 626.504C365.222 625.799 363.732 624.759 362.501 623.451C361.269 622.143 360.321 620.594 359.716 618.901C359.112 617.209 358.864 615.41 358.988 613.617L370.406 420.513C370.674 416.766 372.337 413.255 375.068 410.676C377.799 408.096 381.398 406.634 385.155 406.58H587.892C589.689 406.564 591.47 406.92 593.123 407.625C594.776 408.331 596.265 409.37 597.497 410.679C598.729 411.987 599.677 413.536 600.281 415.228C600.886 416.921 601.134 418.72 601.01 420.513L589.676 613.617C589.409 617.364 587.745 620.874 585.014 623.454C582.284 626.034 578.684 627.495 574.928 627.549Z" fill="#F9E006"/>
<path opacity="0.1" d="M529.885 171.066H470.773C470.131 171.072 469.494 170.946 468.903 170.694C468.312 170.442 467.779 170.071 467.339 169.603C466.899 169.136 466.56 168.582 466.344 167.977C466.127 167.372 466.039 166.729 466.083 166.088C466.177 164.744 466.772 163.485 467.751 162.559C468.73 161.634 470.021 161.111 471.368 161.092H530.463C531.112 161.076 531.758 161.197 532.358 161.445C532.959 161.694 533.5 162.065 533.949 162.536C534.397 163.006 534.741 163.566 534.96 164.177C535.179 164.789 535.268 165.44 535.22 166.088C535.126 167.439 534.523 168.703 533.533 169.627C532.543 170.551 531.239 171.065 529.885 171.066Z" fill="#F9E006"/>
<path opacity="0.1" d="M553.401 357.439C589.801 322.091 592.286 265.609 558.952 231.282C525.617 196.956 469.086 197.784 432.686 233.132C396.286 268.48 393.801 324.962 427.136 359.289C460.47 393.615 517.001 392.787 553.401 357.439Z" fill="#F9E006"/>
<path d="M430.554 354.384C423.117 346.465 417.396 337.096 413.75 326.862C410.104 316.629 408.611 305.752 409.367 294.915H411.066C410.33 305.519 411.791 316.161 415.358 326.175C418.925 336.189 424.52 345.358 431.795 353.109L430.554 354.384Z" fill="#F9E006"/>
<path d="M576.713 295.645L575.014 295.543C575.478 288.058 574.906 280.545 573.314 273.217L575.014 272.843C576.639 280.328 577.21 288.002 576.713 295.645Z" fill="#F9E006"/>
<path d="M568.387 258.435C564.228 249.209 558.28 240.9 550.886 233.991C543.492 227.081 534.8 221.708 525.314 218.183L525.909 216.586C535.612 220.183 544.502 225.676 552.06 232.744C559.618 239.813 565.694 248.315 569.933 257.755L568.387 258.435Z" fill="#F9E006"/>
<path d="M545.636 349.443C577.358 318.638 579.526 269.419 550.48 239.509C521.435 209.599 472.173 210.324 440.452 241.128C408.731 271.933 406.562 321.152 435.608 351.062C464.654 380.972 513.915 380.247 545.636 349.443Z" fill="#F9E006"/>
<path d="M484.4 305.84C488.138 305.007 489.888 301.813 490.686 298.177C490.771 297.786 490.839 297.412 490.907 297.038V296.698C491.111 295.183 491.224 293.657 491.247 292.128C487.628 291.77 484.267 290.093 481.805 287.417C479.342 284.742 477.949 281.254 477.892 277.617C477.705 270.407 479.304 263.263 482.548 256.82C481.712 256.93 480.921 257.258 480.254 257.772C480.189 257.821 480.115 257.856 480.036 257.873C479.956 257.891 479.874 257.891 479.795 257.874C479.648 257.848 479.515 257.77 479.421 257.653C479.331 257.525 479.293 257.368 479.315 257.213C479.337 257.058 479.418 256.918 479.54 256.82C480.597 256.022 481.886 255.592 483.21 255.597C483.465 255.189 483.703 254.764 483.958 254.374C482.87 254.374 481.817 254.374 480.798 254.374C481.919 246.524 497.024 239.931 507.321 245.878C511.908 246.796 519.486 253.354 519.486 253.354C519.638 257.532 519.519 261.715 519.129 265.877C518.45 272.979 516.768 281.322 512.673 285.977C513.692 283.596 514.067 280.988 513.76 278.416C512.779 279.387 511.56 280.084 510.226 280.438C509.742 281.479 509.174 282.479 508.527 283.428C506.93 290.718 505.791 300.42 508.221 306.01C510.413 306.146 512.537 306.349 514.559 306.57L515.052 306.655C516.386 305.872 517.668 305.003 518.892 304.056C534.184 292.162 517.957 278.195 521.78 265.401C525.603 252.607 522.375 247.747 511.925 247.339C516.258 240.424 488.732 229.38 476.635 250.839C465.675 270.294 462.141 280.013 466.083 295.22C467.565 300.19 470.923 304.389 475.445 306.927C476.215 306.716 476.999 306.558 477.79 306.451C479.948 306.247 482.191 306.01 484.4 305.84Z" fill="black"/>
<path d="M460.629 335.744C460.005 334.641 459.438 333.507 458.93 332.346C457.774 335.744 456.636 339.142 455.531 342.54C454.478 345.599 453.475 348.657 452.422 351.58L450.842 355.708L450.162 357.408C449.924 357.866 450.162 357.594 450.162 357.73C449.438 358.574 448.636 359.348 447.766 360.041C447.579 360.228 447.342 360.398 447.138 360.568C451.839 363.739 456.898 366.345 462.209 368.333C462.328 360.568 463.279 352.497 464.299 350.339C458.182 346.092 459.099 341.521 460.629 335.744Z" fill="#FFC3BD"/>
<path d="M466.575 312.823L466.15 313.418C466.286 313.214 466.439 313.027 466.592 312.84L466.575 312.823Z" fill="#263238"/>
<path d="M462.651 324.207C462.626 320.467 463.759 316.811 465.896 313.741C462.638 318.865 459.96 324.336 457.91 330.052C457.91 330.052 458.216 330.953 458.862 332.363C459.37 333.524 459.937 334.658 460.561 335.761C461.772 332.021 462.475 328.135 462.651 324.207Z" fill="black"/>
<path d="M521.881 348.862C519.867 345.902 518.078 342.795 516.529 339.568C516.019 339.84 515.493 340.111 514.949 340.349C509.852 334.963 505.502 330.613 505.502 330.613C499.147 317.36 503.072 309.816 515.119 306.741C516.988 307.126 518.773 307.845 520.386 308.865C518.798 307.748 516.971 307.015 515.051 306.724L514.558 306.639C512.536 306.418 510.412 306.214 508.221 306.078C508.696 307.319 497.788 323.069 490.941 325.567C488.137 318.499 480.27 318.023 480.27 318.023C480.27 318.023 472.93 316.511 470.653 321.132C472.148 311.583 481.341 306.554 484.399 305.84C482.19 306.027 479.947 306.265 477.789 306.537C476.998 306.643 476.215 306.802 475.445 307.013C471.948 307.972 468.848 310.019 466.592 312.858C466.439 313.045 466.287 313.231 466.151 313.435L465.896 313.758C463.759 316.828 462.626 320.484 462.65 324.225C462.496 328.144 461.815 332.024 460.628 335.762C459.099 341.471 458.182 346.109 464.18 350.357C463.16 352.515 462.209 360.552 462.09 368.351C470.534 371.481 479.471 373.07 488.477 373.04C500.008 373.023 511.401 370.525 521.881 365.717C521.589 359.393 521.64 353.057 522.034 346.738C521.983 347.418 521.915 348.165 521.881 348.862Z" fill="black"/>
<path d="M480.271 318.023C480.271 318.023 488.137 318.498 490.941 325.567C497.737 322.984 508.697 307.318 508.221 306.078C508.221 306.078 492.742 313.588 480.271 318.023Z" fill="white"/>
<path d="M484.433 305.84C481.375 306.571 472.183 311.6 470.688 321.132C472.964 316.511 480.304 318.023 480.304 318.023C477.926 309.086 484.433 305.84 484.433 305.84Z" fill="white"/>
<path d="M508.527 283.497C507.05 285.639 505.182 287.484 503.022 288.934C502.113 289.588 501.146 290.157 500.133 290.633C497.907 294.206 494.588 296.964 490.669 298.5V298.211C489.87 301.847 488.12 305.008 484.382 305.874C484.382 305.874 477.875 309.136 480.22 318.074C492.708 313.639 508.17 306.18 508.17 306.18C505.791 300.505 506.93 290.786 508.527 283.497Z" fill="#FFC3BD"/>
<path d="M490.721 298.16C490.806 297.769 490.874 297.396 490.942 297.022C490.874 297.345 490.806 297.769 490.721 298.16Z" fill="#263238"/>
<path opacity="0.2" d="M490.721 298.16C490.806 297.769 490.874 297.396 490.942 297.022C490.874 297.345 490.806 297.769 490.721 298.16Z" fill="black"/>
<path d="M491.332 292.111C491.309 293.64 491.196 295.166 490.992 296.682C491.204 295.167 491.317 293.64 491.332 292.111Z" fill="#263238"/>
<path opacity="0.2" d="M491.332 292.111C491.309 293.64 491.196 295.166 490.992 296.682C491.204 295.167 491.317 293.64 491.332 292.111Z" fill="black"/>
<path d="M500.134 290.548C497.397 291.859 494.351 292.388 491.332 292.077C491.317 293.606 491.204 295.133 490.992 296.647V296.987C490.992 297.361 490.856 297.735 490.771 298.126V298.414C494.653 296.86 497.934 294.103 500.134 290.548Z" fill="#FFC3BD"/>
<path opacity="0.2" d="M500.134 290.548C497.397 291.859 494.351 292.388 491.332 292.077C491.317 293.606 491.204 295.133 490.992 296.647V296.987C490.992 297.361 490.856 297.735 490.771 298.126V298.414C494.653 296.86 497.934 294.103 500.134 290.548Z" fill="black"/>
<path d="M500.133 290.548C501.146 290.071 502.113 289.503 503.021 288.849C505.182 287.399 507.05 285.554 508.526 283.412C509.173 282.463 509.741 281.463 510.226 280.421C509.903 280.421 509.58 280.591 509.274 280.625C506.437 280.88 505.638 277.686 506.929 274.831C507.366 273.866 507.938 272.968 508.628 272.164C507.887 269.738 508.068 267.123 509.138 264.823C506.555 259.522 503.82 254.629 503.565 251.078C497.207 253.043 490.61 254.123 483.957 254.289C483.702 254.68 483.465 255.105 483.21 255.512C483.786 255.51 484.359 255.596 484.909 255.767C484.98 255.794 485.046 255.834 485.102 255.886C485.158 255.938 485.203 256.001 485.235 256.07C485.266 256.14 485.284 256.215 485.286 256.291C485.289 256.367 485.276 256.443 485.249 256.515C485.195 256.66 485.087 256.778 484.947 256.845C484.808 256.911 484.648 256.921 484.501 256.872C483.89 256.686 483.246 256.64 482.615 256.736C479.415 263.183 477.857 270.321 478.078 277.516C478.136 281.152 479.528 284.64 481.991 287.316C484.454 289.991 487.814 291.668 491.433 292.026C494.414 292.334 497.422 291.823 500.133 290.548ZM496.344 257.177C497.269 257.359 498.136 257.764 498.871 258.356C499.605 258.948 500.184 259.71 500.558 260.576C500.623 260.718 500.632 260.881 500.581 261.029C500.531 261.178 500.425 261.301 500.286 261.374C500.144 261.433 499.985 261.433 499.844 261.374C499.767 261.353 499.697 261.315 499.638 261.262C499.579 261.208 499.533 261.142 499.504 261.068C499.195 260.382 498.725 259.781 498.133 259.317C497.541 258.852 496.846 258.538 496.106 258.401C495.953 258.376 495.815 258.293 495.72 258.17C495.625 258.047 495.581 257.893 495.596 257.738C495.603 257.651 495.629 257.567 495.672 257.491C495.716 257.415 495.775 257.35 495.846 257.299C495.918 257.249 495.999 257.215 496.085 257.2C496.171 257.185 496.259 257.189 496.344 257.211V257.177ZM495.749 265.571C496.033 265.784 496.242 266.08 496.349 266.419C496.456 266.757 496.454 267.12 496.344 267.457C496.157 268.443 495.477 269.156 494.832 269.003C494.186 268.85 493.812 267.984 493.999 266.998C494.093 266.499 494.35 266.045 494.73 265.707C494.2 265.427 493.785 264.97 493.557 264.416L495.749 265.571ZM481.816 264.857C481.908 264.366 482.159 263.918 482.53 263.583C482.009 263.289 481.602 262.828 481.375 262.275L483.6 263.413C483.875 263.634 484.077 263.931 484.183 264.266C484.289 264.602 484.293 264.961 484.195 265.299C483.991 266.285 483.329 266.998 482.683 266.862C482.037 266.726 481.629 265.877 481.816 264.891V264.857ZM485.758 273.115C485.128 273.152 484.498 273.052 483.911 272.82C483.324 272.588 482.795 272.231 482.36 271.773C484.179 270.124 485.768 268.238 487.084 266.166L485.758 273.115ZM489.038 277.669C488.962 277.649 488.897 277.601 488.856 277.534C488.815 277.468 488.801 277.388 488.817 277.312C488.833 277.238 488.878 277.173 488.941 277.132C489.005 277.091 489.082 277.076 489.157 277.091C490.383 277.355 491.654 277.327 492.867 277.008C494.081 276.689 495.202 276.089 496.14 275.256C496.167 275.228 496.199 275.206 496.234 275.19C496.27 275.175 496.308 275.166 496.346 275.166C496.385 275.165 496.423 275.172 496.459 275.186C496.495 275.2 496.528 275.221 496.556 275.247C496.584 275.274 496.606 275.306 496.622 275.342C496.637 275.377 496.646 275.415 496.647 275.454C496.647 275.493 496.641 275.531 496.627 275.567C496.612 275.603 496.591 275.636 496.565 275.664C494.985 277.118 492.9 277.898 490.754 277.839C490.179 277.834 489.606 277.788 489.038 277.703V277.669Z" fill="#FFC3BD"/>
<path d="M511.432 270.158C510.718 268.459 509.903 266.641 509.07 264.942C508 267.242 507.819 269.857 508.56 272.282C509.314 271.334 510.304 270.601 511.432 270.158Z" fill="#263238"/>
<path d="M494.696 265.758C494.316 266.095 494.059 266.55 493.965 267.049C493.778 268.035 494.152 268.935 494.798 269.054C495.443 269.173 496.123 268.493 496.31 267.508C496.42 267.171 496.422 266.808 496.315 266.469C496.209 266.131 495.999 265.835 495.715 265.622C495.572 265.731 495.402 265.801 495.224 265.825C495.045 265.849 494.863 265.826 494.696 265.758Z" fill="#263238"/>
<path d="M484.246 265.35C484.344 265.012 484.34 264.653 484.234 264.317C484.129 263.982 483.926 263.685 483.652 263.464C483.504 263.572 483.333 263.642 483.153 263.669C482.972 263.696 482.787 263.678 482.615 263.617C482.244 263.952 481.993 264.4 481.902 264.891C481.715 265.877 482.089 266.777 482.734 266.913C483.38 267.049 483.958 266.336 484.246 265.35Z" fill="#263238"/>
<path d="M483.568 263.464L481.342 262.326C481.569 262.879 481.976 263.34 482.497 263.634C482.675 263.698 482.867 263.717 483.054 263.687C483.241 263.657 483.418 263.581 483.568 263.464Z" fill="#263238"/>
<path d="M482.377 271.858C482.811 272.316 483.341 272.673 483.928 272.905C484.515 273.137 485.145 273.237 485.775 273.2L487.117 266.251C485.797 268.325 484.202 270.211 482.377 271.858Z" fill="#ED847E"/>
<path d="M496.531 275.256C496.474 275.201 496.398 275.17 496.318 275.17C496.239 275.17 496.163 275.201 496.106 275.256C495.172 276.084 494.056 276.681 492.849 276.999C491.643 277.318 490.378 277.349 489.157 277.091C489.082 277.076 489.005 277.09 488.941 277.132C488.878 277.173 488.833 277.238 488.817 277.312C488.801 277.388 488.815 277.468 488.856 277.534C488.897 277.6 488.962 277.649 489.038 277.669C489.599 277.765 490.167 277.821 490.737 277.839C492.883 277.898 494.968 277.118 496.548 275.664C496.596 275.606 496.62 275.532 496.617 275.457C496.614 275.381 496.583 275.31 496.531 275.256Z" fill="#263238"/>
<path d="M511.432 270.159C510.305 270.602 509.314 271.334 508.561 272.283C507.871 273.087 507.299 273.985 506.862 274.95C505.57 277.805 506.369 280.999 509.206 280.744C509.512 280.744 509.835 280.608 510.158 280.541C511.492 280.186 512.71 279.489 513.692 278.519C513.336 275.639 512.576 272.825 511.432 270.159Z" fill="#FFC3BD"/>
<path d="M503.889 248.614C503.99 246.167 505.384 245.573 507.287 245.947C496.99 239.932 481.885 246.524 480.764 254.442C481.783 254.442 482.837 254.442 483.924 254.442C490.576 254.277 497.174 253.196 503.532 251.231C503.433 250.342 503.556 249.444 503.889 248.614Z" fill="black"/>
<path d="M503.888 248.614C503.566 249.423 503.444 250.297 503.531 251.163C503.786 254.765 506.522 259.658 509.104 264.909C509.937 266.608 510.803 268.307 511.466 270.125C512.609 272.791 513.37 275.605 513.726 278.485C514.032 281.057 513.657 283.664 512.639 286.046C516.733 281.39 518.416 273.047 519.095 265.945C519.485 261.783 519.604 257.6 519.452 253.423C519.452 253.423 511.874 246.864 507.286 245.947C505.383 245.573 503.99 246.167 503.888 248.614Z" fill="black"/>
<path d="M496.14 258.384C496.88 258.521 497.576 258.835 498.168 259.299C498.759 259.764 499.23 260.365 499.539 261.051C499.567 261.125 499.613 261.191 499.672 261.244C499.731 261.298 499.802 261.336 499.878 261.357C500.02 261.416 500.179 261.416 500.32 261.357C500.459 261.284 500.565 261.161 500.616 261.012C500.666 260.864 500.658 260.701 500.592 260.559C500.218 259.693 499.639 258.931 498.905 258.339C498.171 257.747 497.304 257.342 496.378 257.16C496.223 257.141 496.066 257.184 495.942 257.279C495.818 257.375 495.737 257.515 495.716 257.67C495.684 257.821 495.709 257.978 495.788 258.11C495.867 258.242 495.993 258.34 496.14 258.384Z" fill="#263238"/>
<path d="M484.4 256.957C484.546 257.006 484.706 256.996 484.846 256.93C484.986 256.863 485.094 256.745 485.147 256.6C485.175 256.528 485.187 256.452 485.185 256.376C485.183 256.3 485.165 256.225 485.134 256.155C485.102 256.085 485.057 256.023 485.001 255.971C484.945 255.919 484.879 255.879 484.808 255.852C484.258 255.681 483.685 255.595 483.109 255.597C481.784 255.592 480.495 256.022 479.438 256.821C479.316 256.918 479.235 257.058 479.213 257.213C479.191 257.368 479.229 257.525 479.32 257.653C479.413 257.77 479.546 257.849 479.693 257.874C479.773 257.891 479.855 257.891 479.934 257.873C480.013 257.856 480.088 257.821 480.152 257.772C480.819 257.258 481.611 256.93 482.446 256.821C483.099 256.714 483.768 256.761 484.4 256.957Z" fill="#263238"/>
<path d="M494.696 265.758C494.863 265.826 495.045 265.849 495.223 265.825C495.402 265.802 495.572 265.731 495.715 265.622L493.489 264.484C493.729 265.037 494.156 265.488 494.696 265.758Z" fill="#263238"/>
<path d="M521.881 348.861C521.881 348.165 521.983 347.417 522.017 346.703C521.066 345.191 520.097 343.662 519.095 342.15L517.141 339.244L516.529 339.567C518.078 342.795 519.867 345.902 521.881 348.861Z" fill="#263238"/>
<path opacity="0.2" d="M521.881 348.861C521.881 348.165 521.983 347.417 522.017 346.703C521.066 345.191 520.097 343.662 519.095 342.15L517.141 339.244L516.529 339.567C518.078 342.795 519.867 345.902 521.881 348.861Z" fill="black"/>
<path d="M526.928 362.93V363.202C533.705 359.54 539.948 354.966 545.483 349.609C544.555 346.868 543.465 344.184 542.22 341.572C540.572 338.019 538.74 334.554 536.732 331.191C535.033 328.268 533.232 325.482 531.38 322.695C529.681 326.246 524.855 334.793 517.192 339.193L519.146 342.099C520.149 343.611 521.117 345.14 522.069 346.653C522.901 347.978 523.768 349.32 524.465 350.645C525.773 352.939 526.996 355.25 527.863 357.442L527.693 358.597C527.489 360.008 527.234 361.452 526.928 362.93Z" fill="#FFC3BD"/>
<path d="M505.503 330.613C505.503 330.613 509.852 334.962 514.95 340.349C515.493 340.111 516.02 339.839 516.53 339.567L517.141 339.244C524.804 334.844 529.596 326.297 531.329 322.746C531.822 321.743 532.077 321.132 532.077 321.132C532.077 321.132 527.149 312.976 520.387 308.864C518.773 307.845 516.989 307.125 515.12 306.74C503.073 309.816 499.148 317.36 505.503 330.613Z" fill="black"/>
<path d="M586.975 160.175H610.916C611.569 160.164 612.196 159.908 612.67 159.459C613.145 159.009 613.435 158.398 613.481 157.745C613.502 157.435 613.459 157.123 613.354 156.83C613.249 156.536 613.084 156.268 612.87 156.041C612.656 155.815 612.398 155.635 612.111 155.513C611.825 155.391 611.516 155.33 611.204 155.333H587.247C586.596 155.343 585.972 155.597 585.497 156.043C585.023 156.489 584.732 157.096 584.681 157.745C584.658 158.059 584.7 158.374 584.805 158.671C584.91 158.967 585.076 159.238 585.291 159.467C585.507 159.696 585.769 159.877 586.058 159.999C586.348 160.121 586.661 160.181 586.975 160.175Z" fill="#F9E006"/>
<path d="M586.481 168.518H610.422C611.076 168.507 611.702 168.251 612.177 167.801C612.652 167.352 612.941 166.74 612.988 166.088C613.011 165.776 612.97 165.462 612.865 165.167C612.761 164.872 612.597 164.601 612.383 164.373C612.169 164.144 611.91 163.963 611.622 163.84C611.334 163.717 611.024 163.655 610.711 163.658H586.77C586.113 163.665 585.483 163.919 585.005 164.369C584.526 164.819 584.235 165.433 584.188 166.088C584.169 166.401 584.215 166.713 584.322 167.008C584.429 167.302 584.595 167.571 584.809 167.799C585.024 168.026 585.284 168.207 585.571 168.331C585.859 168.455 586.168 168.518 586.481 168.518Z" fill="#F9E006"/>
<path d="M392.8 168.518H416.741C417.397 168.507 418.025 168.252 418.502 167.803C418.98 167.353 419.273 166.742 419.324 166.088C419.345 165.775 419.301 165.461 419.195 165.166C419.089 164.87 418.923 164.6 418.708 164.372C418.492 164.144 418.232 163.963 417.943 163.84C417.655 163.717 417.344 163.655 417.03 163.658H393.089C392.434 163.665 391.806 163.92 391.33 164.37C390.855 164.821 390.566 165.434 390.524 166.088C390.503 166.4 390.546 166.712 390.651 167.006C390.756 167.3 390.92 167.57 391.134 167.798C391.348 168.026 391.606 168.207 391.892 168.331C392.179 168.455 392.488 168.518 392.8 168.518Z" fill="#F9E006"/>
<path d="M585.989 176.843H609.981C610.638 176.836 611.268 176.583 611.746 176.132C612.225 175.682 612.517 175.069 612.563 174.413C612.582 174.101 612.536 173.788 612.429 173.494C612.323 173.2 612.157 172.93 611.942 172.703C611.727 172.475 611.468 172.294 611.18 172.17C610.892 172.047 610.583 171.983 610.27 171.984H586.278C585.622 171.994 584.994 172.249 584.517 172.699C584.039 173.148 583.746 173.76 583.696 174.413C583.674 174.726 583.718 175.04 583.824 175.336C583.93 175.631 584.096 175.901 584.312 176.129C584.527 176.358 584.787 176.539 585.076 176.662C585.365 176.784 585.676 176.846 585.989 176.843Z" fill="#F9E006"/>
<path d="M554.522 481.681H409.689C406.985 481.706 404.304 481.171 401.816 480.11C399.327 479.049 397.086 477.485 395.231 475.516C393.377 473.547 391.95 471.215 391.04 468.668C390.131 466.12 389.758 463.412 389.946 460.714C390.353 455.074 392.86 449.792 396.971 445.911C401.082 442.029 406.5 439.83 412.153 439.747H556.985C559.69 439.721 562.371 440.256 564.859 441.317C567.347 442.378 569.589 443.942 571.443 445.912C573.298 447.881 574.725 450.212 575.634 452.76C576.544 455.307 576.917 458.015 576.729 460.714C576.321 466.353 573.815 471.635 569.703 475.517C565.592 479.398 560.175 481.598 554.522 481.681Z" fill="white"/>
<path d="M551.226 538.04H406.377C403.672 538.06 400.992 537.522 398.505 536.458C396.018 535.395 393.777 533.829 391.923 531.859C390.07 529.888 388.643 527.557 387.733 525.01C386.822 522.462 386.448 519.755 386.633 517.056C387.053 511.426 389.565 506.156 393.675 502.285C397.785 498.414 403.195 496.222 408.84 496.14H553.689C556.394 496.115 559.075 496.649 561.563 497.71C564.051 498.771 566.293 500.336 568.148 502.305C570.002 504.274 571.429 506.606 572.338 509.153C573.248 511.701 573.621 514.409 573.433 517.107C573.014 522.739 570.502 528.01 566.393 531.884C562.283 535.758 556.873 537.954 551.226 538.04Z" fill="white"/>
<path d="M547.912 594.383H403.08C400.375 594.408 397.694 593.873 395.206 592.813C392.718 591.752 390.476 590.187 388.622 588.218C386.767 586.249 385.341 583.917 384.431 581.37C383.521 578.822 383.149 576.114 383.336 573.416C383.744 567.775 386.25 562.491 390.361 558.607C394.471 554.722 399.889 552.519 405.544 552.432H550.376C553.082 552.409 555.763 552.946 558.251 554.009C560.739 555.071 562.981 556.637 564.835 558.608C566.689 560.579 568.115 562.911 569.025 565.46C569.934 568.008 570.307 570.717 570.12 573.416C569.712 579.055 567.205 584.337 563.094 588.219C558.983 592.1 553.566 594.3 547.912 594.383Z" fill="white"/>
<path d="M420.942 468.228C425.351 463.946 425.656 457.108 421.622 452.954C417.589 448.801 410.744 448.905 406.335 453.187C401.925 457.469 401.62 464.307 405.654 468.461C409.688 472.614 416.532 472.51 420.942 468.228Z" fill="#F9E006"/>
<path d="M412.357 506.845L413.784 512.231C413.866 512.527 414.044 512.787 414.29 512.972C414.536 513.156 414.836 513.254 415.143 513.25H420.801C421.12 513.253 421.43 513.361 421.682 513.556C421.934 513.751 422.116 514.024 422.199 514.332C422.282 514.64 422.261 514.967 422.141 515.263C422.02 515.558 421.807 515.806 421.532 515.969L416.757 519.367C416.486 519.548 416.278 519.808 416.162 520.113C416.046 520.418 416.029 520.751 416.112 521.066L417.539 526.452C417.624 526.762 417.611 527.089 417.503 527.391C417.395 527.693 417.197 527.955 416.936 528.14C416.674 528.325 416.362 528.426 416.041 528.428C415.721 528.43 415.407 528.334 415.143 528.151L410.76 524.753C410.511 524.578 410.214 524.485 409.91 524.485C409.606 524.485 409.309 524.578 409.06 524.753L404.286 528.151C404.036 528.351 403.726 528.46 403.406 528.462C403.087 528.464 402.775 528.359 402.523 528.163C402.27 527.967 402.09 527.692 402.013 527.382C401.935 527.071 401.964 526.744 402.094 526.452L404.15 521.066C404.276 520.774 404.301 520.448 404.221 520.141C404.141 519.833 403.961 519.561 403.708 519.367L399.325 515.969C399.083 515.761 398.912 515.485 398.834 515.176C398.755 514.868 398.774 514.543 398.888 514.245C399.001 513.948 399.203 513.693 399.467 513.515C399.731 513.337 400.043 513.244 400.361 513.25H406.019C406.34 513.25 406.653 513.153 406.917 512.971C407.181 512.789 407.383 512.531 407.497 512.231L409.485 506.845C409.576 506.534 409.764 506.261 410.023 506.066C410.282 505.872 410.597 505.767 410.921 505.767C411.245 505.767 411.56 505.872 411.819 506.066C412.078 506.261 412.266 506.534 412.357 506.845Z" fill="#F9E006"/>
<path d="M416.283 567.707L415.382 582.829C415.339 583.463 415.058 584.058 414.594 584.493C414.131 584.928 413.52 585.171 412.884 585.174H399.648C399.356 585.157 399.069 585.081 398.806 584.951C398.543 584.822 398.309 584.641 398.118 584.419C397.926 584.197 397.781 583.939 397.69 583.66C397.6 583.381 397.567 583.087 397.592 582.795L398.697 563.969C398.735 563.335 399.013 562.739 399.473 562.3C399.933 561.862 400.542 561.615 401.177 561.607H410.692L416.283 567.707Z" fill="#F9E006"/>
<path d="M410.607 561.641L416.333 567.707H412.612C412.309 567.71 412.009 567.65 411.731 567.532C411.452 567.413 411.201 567.238 410.994 567.018C410.786 566.798 410.627 566.537 410.525 566.252C410.423 565.967 410.382 565.664 410.403 565.362L410.607 561.641ZM409.095 557.478L408.857 561.539L408.636 565.26C408.606 565.802 408.686 566.345 408.87 566.855C409.054 567.366 409.338 567.835 409.706 568.234C410.08 568.628 410.531 568.941 411.031 569.155C411.53 569.368 412.068 569.477 412.612 569.474H420.394L417.607 566.501L411.898 560.435L409.095 557.478Z" fill="white"/>
<path opacity="0.2" d="M549.662 458.488H441.275C440.837 458.491 440.402 458.404 439.999 458.232C439.595 458.06 439.232 457.807 438.93 457.488C438.629 457.169 438.397 456.791 438.248 456.379C438.099 455.966 438.036 455.527 438.064 455.09C438.136 454.174 438.547 453.319 439.216 452.69C439.885 452.062 440.765 451.706 441.683 451.691H550.053C550.491 451.688 550.926 451.775 551.329 451.947C551.733 452.12 552.096 452.373 552.398 452.692C552.699 453.011 552.931 453.388 553.08 453.801C553.229 454.213 553.292 454.652 553.264 455.09C553.196 456.004 552.789 456.859 552.122 457.488C551.456 458.117 550.578 458.473 549.662 458.488Z" fill="#F9E006"/>
<path opacity="0.2" d="M529.12 469.77H440.63C440.191 469.773 439.756 469.686 439.351 469.514C438.947 469.342 438.582 469.089 438.28 468.771C437.977 468.452 437.743 468.075 437.592 467.662C437.441 467.25 437.376 466.81 437.402 466.372C437.474 465.457 437.885 464.601 438.554 463.972C439.223 463.344 440.103 462.988 441.021 462.974H529.511C529.951 462.968 530.387 463.053 530.793 463.225C531.198 463.396 531.564 463.649 531.867 463.968C532.17 464.287 532.404 464.665 532.554 465.079C532.704 465.492 532.767 465.933 532.739 466.372C532.664 467.286 532.252 468.139 531.583 468.767C530.915 469.395 530.037 469.752 529.12 469.77Z" fill="#F9E006"/>
<path opacity="0.2" d="M546.094 519.282H516.19C515.271 519.292 514.389 519.647 513.719 520.276C513.049 520.906 512.639 521.764 512.571 522.68C512.543 523.118 512.605 523.557 512.754 523.969C512.903 524.382 513.136 524.759 513.437 525.078C513.738 525.397 514.102 525.65 514.506 525.823C514.909 525.995 515.344 526.082 515.782 526.079H545.687C546.606 526.068 547.488 525.713 548.158 525.084C548.828 524.455 549.238 523.597 549.306 522.68C549.334 522.243 549.271 521.804 549.122 521.391C548.973 520.979 548.741 520.601 548.44 520.282C548.138 519.964 547.775 519.71 547.371 519.538C546.968 519.366 546.533 519.279 546.094 519.282Z" fill="#F9E006"/>
<path opacity="0.2" d="M498.706 519.282H437.724C436.805 519.292 435.923 519.647 435.253 520.277C434.583 520.906 434.173 521.764 434.105 522.68C434.075 523.119 434.135 523.559 434.284 523.972C434.432 524.386 434.664 524.765 434.966 525.084C435.267 525.403 435.632 525.657 436.037 525.828C436.442 525.999 436.877 526.084 437.317 526.079H498.315C499.233 526.065 500.113 525.708 500.782 525.08C501.451 524.451 501.862 523.596 501.934 522.68C501.962 522.241 501.899 521.801 501.749 521.387C501.599 520.974 501.365 520.595 501.062 520.276C500.759 519.957 500.393 519.704 499.988 519.533C499.582 519.362 499.146 519.277 498.706 519.282Z" fill="#F9E006"/>
<path opacity="0.2" d="M526.877 508.034H438.371C437.452 508.045 436.57 508.399 435.899 509.029C435.229 509.658 434.82 510.516 434.752 511.433C434.724 511.87 434.786 512.309 434.935 512.722C435.084 513.134 435.317 513.512 435.618 513.831C435.919 514.149 436.283 514.403 436.686 514.575C437.09 514.747 437.524 514.834 437.963 514.831H526.453C527.371 514.817 528.25 514.461 528.92 513.832C529.589 513.204 530 512.348 530.072 511.433C530.1 510.996 530.038 510.559 529.89 510.148C529.742 509.736 529.511 509.36 529.211 509.041C528.912 508.722 528.55 508.469 528.149 508.296C527.747 508.122 527.315 508.034 526.877 508.034Z" fill="#F9E006"/>
<path opacity="0.2" d="M542.781 575.625H434.412C433.495 575.643 432.617 576 431.949 576.628C431.28 577.256 430.868 578.109 430.793 579.023C430.765 579.463 430.827 579.903 430.978 580.317C431.128 580.73 431.361 581.108 431.665 581.428C431.968 581.747 432.333 582 432.739 582.171C433.144 582.342 433.581 582.427 434.021 582.422H542.39C543.307 582.407 544.184 582.05 544.851 581.421C545.517 580.793 545.925 579.937 545.992 579.023C546.02 578.586 545.958 578.147 545.809 577.734C545.66 577.322 545.428 576.944 545.126 576.625C544.825 576.307 544.461 576.053 544.058 575.881C543.654 575.709 543.22 575.622 542.781 575.625Z" fill="#F9E006"/>
<path opacity="0.2" d="M523.565 564.359H435.075C434.157 564.374 433.277 564.73 432.608 565.358C431.938 565.987 431.528 566.842 431.456 567.758C431.428 568.195 431.49 568.634 431.639 569.047C431.788 569.459 432.021 569.837 432.322 570.156C432.623 570.474 432.987 570.728 433.39 570.9C433.794 571.072 434.228 571.159 434.667 571.156H523.174C524.09 571.141 524.968 570.785 525.634 570.156C526.301 569.527 526.708 568.672 526.776 567.758C526.804 567.32 526.741 566.881 526.592 566.469C526.443 566.056 526.211 565.679 525.91 565.36C525.608 565.041 525.245 564.788 524.841 564.615C524.438 564.443 524.003 564.356 523.565 564.359Z" fill="#F9E006"/>
</svg>
