<svg width="593" height="715" viewBox="0 0 593 715" fill="none" xmlns="http://www.w3.org/2000/svg">
<g filter="url(#filter0_d_595_1709)">
<path d="M539.059 576H417.767L415.801 536.351H541.537L539.059 576ZM419.237 574.447H537.606L539.885 537.97H417.42L419.237 574.447Z" fill="#DBDBDB"/>
<path d="M489.482 508.382H467.84L466.485 497.792H490.836L489.482 508.382ZM469.211 506.813H488.111L489.069 499.345H468.253L469.211 506.813Z" fill="#DBDBDB"/>
<path d="M489.482 561.495H467.84L466.485 550.922H490.836L489.482 561.495ZM469.211 559.942H488.111L489.069 552.475H468.253L469.211 559.942Z" fill="#DBDBDB"/>
<path d="M427.166 594.057L425.234 607.818L421.335 635.473H413.735V594.057H427.166Z" fill="#EBEBEB"/>
<path d="M427.166 594.057L425.234 607.818H413.735V594.057H427.166Z" fill="#DBDBDB"/>
<path d="M371.806 511.62L350.132 512.083L339.129 512.264C335.445 512.347 331.744 512.264 328.06 512.363H327.333V511.62L327.234 493.134V492.308H328.06L349.933 492.407C357.219 492.407 364.521 492.605 371.806 492.688H372.269V493.134C372.269 496.273 372.137 499.395 372.054 502.468L371.806 511.62ZM371.806 511.62L371.575 502.286C371.492 499.197 371.393 496.157 371.36 493.134L371.806 493.58C364.521 493.662 357.219 493.844 349.933 493.86L328.06 493.96L328.886 493.134V511.62L328.143 510.877C331.744 510.877 335.346 510.877 338.964 510.976L349.834 511.157L371.806 511.62Z" fill="#EBEBEB"/>
<path d="M347.406 534.93L325.715 535.393L314.713 535.575C311.045 535.657 307.345 535.575 303.66 535.674H302.934V534.93V516.444V515.618H303.76L325.633 515.717C332.918 515.717 340.22 515.915 347.506 515.998H347.968V516.394C347.968 519.533 347.836 522.656 347.753 525.728L347.406 534.93ZM347.406 534.93L347.175 525.596C347.175 522.507 346.993 519.467 346.96 516.444L347.406 516.89C340.121 516.973 332.819 517.154 325.533 517.171L303.66 517.27L304.487 516.444L304.387 534.93L303.66 534.187C307.262 534.187 310.863 534.187 314.465 534.286L325.335 534.468L347.406 534.93Z" fill="#EBEBEB"/>
<path d="M323.105 511.62L301.413 512.083L290.411 512.264C286.727 512.347 283.043 512.264 279.359 512.363H278.615V511.62V493.134V492.308H279.458L301.331 492.407C308.616 492.407 315.902 492.605 323.204 492.688H323.65V493.134C323.65 496.273 323.501 499.395 323.435 502.468L323.105 511.62ZM323.105 511.62L322.857 502.286C322.857 499.197 322.675 496.157 322.642 493.134L323.105 493.58C315.803 493.662 308.517 493.844 301.232 493.86L279.359 493.96L280.168 493.134V511.62L279.441 510.877C283.043 510.877 286.628 510.877 290.246 510.976L301.116 511.157L323.105 511.62Z" fill="#EBEBEB"/>
<path d="M498.022 2.79175H218.728C211.167 2.86589 203.945 5.93857 198.648 11.3347C193.351 16.7308 190.412 24.009 190.478 31.5703V606.48C190.437 610.23 191.135 613.952 192.532 617.432C193.93 620.912 195.999 624.083 198.623 626.764C201.246 629.444 204.372 631.581 207.822 633.053C211.272 634.524 214.978 635.302 218.728 635.341H498.022C505.587 635.267 512.815 632.195 518.12 626.801C523.425 621.406 526.374 614.128 526.321 606.562V31.6529C526.363 27.8984 525.663 24.1727 524.262 20.689C522.862 17.2054 520.788 14.0322 518.159 11.3513C515.53 8.67039 512.398 6.53438 508.943 5.06559C505.488 3.59681 501.776 2.82411 498.022 2.79175ZM508.628 588.72C508.628 603.853 497.311 616.094 483.319 616.094H233.481C219.472 616.094 208.122 603.853 208.122 588.72V53.3606C208.122 22.5336 219.472 21.0303 233.481 21.0303H283.538C286.445 21.0303 288.824 24.3343 288.824 28.4314V30.1991C288.824 39.7974 294.078 39.8304 300.504 39.8304H416.229C422.738 39.8304 427.959 39.8304 427.959 30.1991V28.4314C427.959 24.3343 430.305 21.0303 433.278 21.0303H483.302C497.295 21.0303 508.611 25.1273 508.611 53.3606L508.628 588.72Z" fill="white"/>
<path d="M508.645 53.3607V588.72C508.645 603.853 497.312 616.095 483.352 616.095H233.498C219.472 616.095 208.155 603.853 208.155 588.72V53.3607C208.155 22.5336 219.472 21.0303 233.498 21.0303H283.554C286.445 21.0303 288.841 24.3343 288.841 28.4314V30.1991C288.841 39.7974 294.078 39.8305 300.537 39.8305H416.18C422.788 39.8305 427.926 39.8305 427.926 30.1991V28.4314C427.926 24.3343 430.272 21.0303 433.212 21.0303H483.269C497.312 21.0303 508.645 25.1273 508.645 53.3607Z" fill="black"/>
<path d="M374.185 27.8532H342.614C342.358 27.8532 342.105 27.8027 341.868 27.7048C341.632 27.6068 341.417 27.4632 341.236 27.2822C341.055 27.1012 340.911 26.8863 340.813 26.6498C340.715 26.4132 340.665 26.1598 340.665 25.9038C340.665 25.6478 340.715 25.3943 340.813 25.1577C340.911 24.9212 341.055 24.7063 341.236 24.5253C341.417 24.3443 341.632 24.2007 341.868 24.1027C342.105 24.0048 342.358 23.9543 342.614 23.9543H374.185C374.441 23.9543 374.694 24.0048 374.931 24.1027C375.167 24.2007 375.382 24.3443 375.563 24.5253C375.744 24.7063 375.888 24.9212 375.986 25.1577C376.084 25.3943 376.134 25.6478 376.134 25.9038C376.134 26.1598 376.084 26.4132 375.986 26.6498C375.888 26.8863 375.744 27.1012 375.563 27.2822C375.382 27.4632 375.167 27.6068 374.931 27.7048C374.694 27.8027 374.441 27.8532 374.185 27.8532Z" fill="#37474F"/>
<path d="M274.897 33.0572L274.418 33.5362L274.137 33.8171C273.528 33.2012 272.803 32.713 272.003 32.3811C271.203 32.0492 270.344 31.8802 269.478 31.8842C268.612 31.8765 267.752 32.0437 266.952 32.3758C266.151 32.7079 265.426 33.1981 264.82 33.8171C264.72 33.8171 264.638 33.6354 264.555 33.5528L264.076 33.0737L264.687 32.5285C265.121 32.1671 265.598 31.8618 266.108 31.6199C266.703 31.3369 267.33 31.1262 267.975 30.9921L268.917 30.8765H269.743H270.37C270.936 30.9432 271.492 31.082 272.023 31.2895C272.428 31.4374 272.821 31.6198 273.195 31.8346C273.591 32.0534 273.962 32.3137 274.302 32.6111L274.814 33.0572H274.897Z" fill="white"/>
<path d="M266.339 35.3369L265.579 34.577C266.41 33.7244 267.504 33.1773 268.685 33.0241C269.53 32.8944 270.394 32.9659 271.206 33.2328C272.019 33.4998 272.757 33.9547 273.36 34.5605L272.6 35.3369C272.194 34.9208 271.708 34.5908 271.172 34.3666C270.635 34.1424 270.059 34.0285 269.478 34.0318C268.894 34.03 268.316 34.1445 267.777 34.3686C267.238 34.5927 266.749 34.9219 266.339 35.3369Z" fill="white"/>
<path d="M271.841 36.0969L271.081 36.8568C270.654 36.4351 270.079 36.1986 269.479 36.1986C268.879 36.1986 268.303 36.4351 267.876 36.8568C267.612 36.609 267.364 36.3612 267.116 36.0969C267.424 35.7822 267.791 35.5321 268.197 35.3614C268.603 35.1907 269.038 35.1028 269.479 35.1028C269.919 35.1028 270.354 35.1907 270.76 35.3614C271.166 35.5321 271.533 35.7822 271.841 36.0969Z" fill="white"/>
<path d="M270.155 37.5508C270.155 37.7304 270.084 37.9027 269.957 38.0297C269.83 38.1568 269.658 38.2281 269.478 38.2281C269.388 38.2303 269.298 38.2144 269.214 38.1814C269.13 38.1483 269.053 38.0988 268.988 38.0357C268.924 37.9725 268.872 37.8971 268.837 37.8139C268.802 37.7306 268.784 37.6411 268.784 37.5508C268.784 37.3668 268.857 37.1903 268.987 37.0601C269.118 36.93 269.294 36.8569 269.478 36.8569C269.568 36.8569 269.658 36.875 269.741 36.91C269.824 36.9451 269.9 36.9965 269.963 37.0611C270.026 37.1258 270.076 37.2024 270.109 37.2865C270.142 37.3706 270.158 37.4605 270.155 37.5508Z" fill="white"/>
<path d="M227.732 34.5275C227.728 34.1314 227.843 33.7433 228.06 33.4124C228.278 33.0815 228.589 32.8227 228.954 32.6689C229.319 32.5151 229.721 32.4731 230.11 32.5484C230.499 32.6236 230.857 32.8127 231.138 33.0916C231.419 33.3705 231.611 33.7266 231.69 34.1148C231.768 34.503 231.73 34.9058 231.579 35.272C231.428 35.6383 231.172 35.9514 230.843 36.1718C230.514 36.3922 230.127 36.5099 229.73 36.5099C229.203 36.5099 228.697 36.3016 228.323 35.9303C227.948 35.559 227.736 35.0547 227.732 34.5275Z" fill="white"/>
<path d="M234.01 34.5275C234.007 34.1314 234.121 33.7433 234.339 33.4124C234.556 33.0815 234.867 32.8227 235.232 32.6689C235.597 32.5151 236 32.4731 236.389 32.5484C236.777 32.6236 237.135 32.8127 237.416 33.0916C237.698 33.3705 237.89 33.7266 237.968 34.1148C238.047 34.503 238.008 34.9058 237.857 35.272C237.706 35.6383 237.45 35.9514 237.121 36.1718C236.792 36.3922 236.405 36.5099 236.009 36.5099C235.482 36.5099 234.976 36.3016 234.601 35.9303C234.227 35.559 234.014 35.0547 234.01 34.5275Z" fill="white"/>
<path d="M240.287 34.5274C240.284 34.1306 240.399 33.7419 240.617 33.4106C240.836 33.0794 241.148 32.8206 241.514 32.6673C241.879 32.5139 242.283 32.473 242.672 32.5496C243.061 32.6262 243.419 32.8169 243.7 33.0974C243.98 33.378 244.171 33.7357 244.247 34.125C244.324 34.5143 244.283 34.9176 244.13 35.2835C243.976 35.6494 243.718 35.9614 243.386 36.1798C243.055 36.3982 242.666 36.5131 242.27 36.5098C241.745 36.5055 241.243 36.2953 240.873 35.9244C240.502 35.5536 240.291 35.0518 240.287 34.5274Z" fill="white"/>
<path d="M246.565 34.5274C246.561 34.1306 246.676 33.7419 246.895 33.4106C247.113 33.0794 247.425 32.8206 247.791 32.6673C248.157 32.5139 248.56 32.473 248.949 32.5496C249.339 32.6262 249.696 32.8169 249.977 33.0974C250.257 33.378 250.448 33.7357 250.525 34.125C250.601 34.5143 250.56 34.9176 250.407 35.2835C250.254 35.6494 249.995 35.9614 249.664 36.1798C249.332 36.3982 248.944 36.5131 248.547 36.5098C248.023 36.5055 247.521 36.2953 247.15 35.9244C246.779 35.5536 246.569 35.0518 246.565 34.5274Z" fill="white"/>
<path d="M252.826 34.5275C252.823 34.1314 252.937 33.7433 253.155 33.4124C253.373 33.0815 253.684 32.8227 254.049 32.6689C254.414 32.5151 254.816 32.4731 255.205 32.5484C255.594 32.6236 255.952 32.8127 256.233 33.0916C256.514 33.3705 256.706 33.7266 256.784 34.1148C256.863 34.503 256.824 34.9058 256.674 35.272C256.523 35.6383 256.267 35.9514 255.937 36.1718C255.608 36.3922 255.221 36.5099 254.825 36.5099C254.298 36.5099 253.792 36.3016 253.418 35.9303C253.043 35.559 252.831 35.0547 252.826 34.5275Z" fill="white"/>
<path d="M486.111 38.9548H469.888V31.3555H486.111V38.9548ZM470.714 38.1288H485.285V32.1815H470.747L470.714 38.1288Z" fill="white"/>
<path d="M481.7 32.6274H471.242V37.5836H481.7V32.6274Z" fill="white"/>
<path d="M487.548 33.1067H486.11V37.1211H487.548V33.1067Z" fill="white"/>
<path d="M292.607 162.296V247.508H306.699V162.296H292.607ZM296.738 243.907H295.631V165.898H296.738V243.907ZM300.207 243.907H299.083V165.898H300.207V243.907ZM303.676 243.907H302.553V165.898H303.676V243.907Z" fill="#EBEBEB"/>
<path d="M310.301 158.414H289.006V162.313H310.301V158.414Z" fill="#EBEBEB"/>
<path d="M310.301 247.492H289.006V251.391H310.301V247.492Z" fill="#EBEBEB"/>
<path d="M323.153 162.296V247.508H337.245V162.296H323.153ZM327.3 243.907H326.177V165.898H327.3V243.907ZM330.769 243.907H329.646V165.898H330.769V243.907ZM334.222 243.907H333.115V165.898H334.222V243.907Z" fill="#EBEBEB"/>
<path d="M340.847 158.414H319.552V162.313H340.847V158.414Z" fill="#EBEBEB"/>
<path d="M340.847 247.492H319.552V251.391H340.847V247.492Z" fill="#EBEBEB"/>
<path d="M379.537 162.296V247.508H393.646V162.296H379.537ZM383.684 243.907H382.56V165.898H383.684V243.907ZM387.153 243.907H386.03V165.898H387.153V243.907ZM390.606 243.907H389.499V165.898H390.606V243.907Z" fill="#EBEBEB"/>
<path d="M397.231 158.414H375.937V162.313H397.231V158.414Z" fill="#EBEBEB"/>
<path d="M397.231 247.492H375.937V251.391H397.231V247.492Z" fill="#EBEBEB"/>
<path d="M410.101 162.296V247.508H424.192V162.296H410.101ZM414.231 243.907H413.124V165.898H414.231V243.907ZM417.7 243.907H416.593V165.898H417.7V243.907ZM421.169 243.907H420.046V165.898H421.186L421.169 243.907Z" fill="#EBEBEB"/>
<path d="M427.794 158.414H406.499V162.313H427.794V158.414Z" fill="#EBEBEB"/>
<path d="M427.794 247.492H406.499V251.391H427.794V247.492Z" fill="#EBEBEB"/>
<path d="M433.675 152.912H283.108V158.414H433.675V152.912Z" fill="#EBEBEB"/>
<path d="M283.108 152.912H433.675V154.052L283.108 154.73V152.912Z" fill="#EBEBEB"/>
<path d="M433.675 251.39H283.108V256.892H433.675V251.39Z" fill="#EBEBEB"/>
<path d="M283.108 255.273L433.675 256.082V256.908H283.108V255.273Z" fill="#EBEBEB"/>
<path d="M437.821 256.892H278.978V262.393H437.821V256.892Z" fill="#EBEBEB"/>
<path d="M442.415 148.27V152.912H274.386V148.27L358.392 104.392L442.415 148.27Z" fill="#EBEBEB"/>
<path d="M430.239 148.303C382.247 148.551 330.571 149.261 282.695 149.261L286.132 147.461C304.238 138.077 340.236 119.293 358.408 109.992C379.455 121.226 409.522 137.433 430.255 148.386L430.239 148.303ZM430.239 148.303C409.291 137.4 379.273 122.416 358.028 111.479H358.755L322.889 130.329L287.007 149.129L286.561 147.362C332.818 147.362 383.751 148.072 430.288 148.303H430.239Z" fill="#EBEBEB"/>
<path d="M445.338 316.844H271.461V342.038H445.338V316.844Z" fill="#EBEBEB"/>
<path d="M296.655 316.844H271.461V342.038H296.655V316.844Z" fill="#F9E006"/>
<path d="M286.462 327.351C286.462 327.828 286.32 328.295 286.055 328.691C285.79 329.088 285.413 329.397 284.973 329.58C284.532 329.762 284.047 329.81 283.579 329.717C283.111 329.624 282.681 329.394 282.344 329.057C282.007 328.719 281.777 328.29 281.684 327.822C281.591 327.354 281.639 326.869 281.821 326.428C282.004 325.987 282.313 325.611 282.71 325.346C283.106 325.081 283.573 324.939 284.05 324.939C284.367 324.937 284.682 324.998 284.975 325.118C285.269 325.239 285.536 325.416 285.76 325.641C285.985 325.865 286.162 326.132 286.283 326.426C286.403 326.719 286.464 327.034 286.462 327.351Z" fill="white"/>
<path d="M288.23 333.959H279.887C279.954 332.898 280.422 331.903 281.197 331.175C281.972 330.447 282.995 330.042 284.058 330.042C285.121 330.042 286.144 330.447 286.919 331.175C287.694 331.903 288.163 332.898 288.23 333.959Z" fill="white"/>
<path d="M445.338 356.724H271.461V381.918H445.338V356.724Z" fill="#EBEBEB"/>
<path d="M311.969 366.356C310.401 368.719 308.373 370.742 306.005 372.303C307.577 369.943 309.605 367.921 311.969 366.356Z" fill="#A6A6A6"/>
<path d="M306.005 366.356C308.369 367.921 310.397 369.943 311.969 372.303C309.597 370.747 307.568 368.723 306.005 366.356Z" fill="#A6A6A6"/>
<path d="M313.192 369.363C310.417 369.924 307.558 369.924 304.783 369.363C307.558 368.801 310.417 368.801 313.192 369.363Z" fill="#A6A6A6"/>
<path d="M308.979 365.117C309.549 367.896 309.549 370.763 308.979 373.542C308.417 370.762 308.417 367.897 308.979 365.117Z" fill="#A6A6A6"/>
<path d="M326.474 366.356C324.912 368.718 322.889 370.741 320.526 372.303C322.093 369.944 324.115 367.922 326.474 366.356Z" fill="#A6A6A6"/>
<path d="M320.526 366.356C322.889 367.917 324.912 369.94 326.474 372.303C324.111 370.741 322.088 368.718 320.526 366.356Z" fill="#A6A6A6"/>
<path d="M327.713 369.363C324.933 369.924 322.068 369.924 319.288 369.363C322.068 368.801 324.933 368.801 327.713 369.363Z" fill="#A6A6A6"/>
<path d="M323.5 365.117C324.062 367.897 324.062 370.762 323.5 373.542C322.939 370.762 322.939 367.897 323.5 365.117Z" fill="#A6A6A6"/>
<path d="M340.995 366.356C339.433 368.718 337.411 370.741 335.048 372.303C336.61 369.94 338.633 367.917 340.995 366.356Z" fill="#A6A6A6"/>
<path d="M335.048 366.356C337.407 367.922 339.429 369.944 340.995 372.303C338.633 370.741 336.61 368.718 335.048 366.356Z" fill="#A6A6A6"/>
<path d="M342.235 369.363C339.455 369.924 336.59 369.924 333.81 369.363C336.59 368.801 339.455 368.801 342.235 369.363Z" fill="#A6A6A6"/>
<path d="M338.022 365.117C338.583 367.897 338.583 370.762 338.022 373.542C337.46 370.762 337.46 367.897 338.022 365.117Z" fill="#A6A6A6"/>
<path d="M355.517 366.356C353.954 368.723 351.924 370.747 349.553 372.303C351.125 369.943 353.153 367.921 355.517 366.356Z" fill="#A6A6A6"/>
<path d="M349.553 366.356C351.917 367.921 353.944 369.943 355.517 372.303C353.149 370.742 351.12 368.719 349.553 366.356Z" fill="#A6A6A6"/>
<path d="M356.756 369.363C353.981 369.924 351.122 369.924 348.347 369.363C351.122 368.801 353.981 368.801 356.756 369.363Z" fill="#A6A6A6"/>
<path d="M352.543 365.117C353.104 367.897 353.104 370.762 352.543 373.542C351.973 370.763 351.973 367.896 352.543 365.117Z" fill="#A6A6A6"/>
<path d="M296.655 356.724H271.461V381.918H296.655V356.724Z" fill="#F9E006"/>
<path d="M286.875 366.62V369.66H286.016V366.62C286.041 366.348 286.009 366.074 285.922 365.814C285.835 365.555 285.695 365.317 285.511 365.115C285.327 364.913 285.102 364.752 284.852 364.642C284.602 364.531 284.332 364.474 284.058 364.474C283.785 364.474 283.515 364.531 283.265 364.642C283.015 364.752 282.79 364.913 282.606 365.115C282.422 365.317 282.282 365.555 282.195 365.814C282.108 366.074 282.076 366.348 282.101 366.62V369.66H281.242V366.62C281.212 366.232 281.263 365.842 281.391 365.475C281.519 365.107 281.721 364.77 281.986 364.485C282.25 364.199 282.571 363.971 282.928 363.816C283.284 363.66 283.669 363.579 284.058 363.579C284.448 363.579 284.833 363.66 285.189 363.816C285.546 363.971 285.866 364.199 286.131 364.485C286.395 364.77 286.598 365.107 286.726 365.475C286.854 365.842 286.905 366.232 286.875 366.62Z" fill="white"/>
<path d="M280.135 368.537V375.046H287.982V368.537H280.135ZM284.711 373.311H283.323L283.654 371.758C283.553 371.695 283.47 371.607 283.413 371.503C283.355 371.399 283.324 371.282 283.323 371.163C283.323 370.979 283.396 370.803 283.526 370.673C283.657 370.543 283.833 370.47 284.017 370.47C284.201 370.47 284.378 370.543 284.508 370.673C284.638 370.803 284.711 370.979 284.711 371.163C284.71 371.282 284.679 371.399 284.622 371.503C284.564 371.607 284.481 371.695 284.381 371.758L284.711 373.311Z" fill="white"/>
<path d="M579.682 613.782H482.905V635.159H579.682V613.782Z" fill="#F9E006"/>
<g opacity="0.1">
<path opacity="0.1" d="M486.903 615.748C488.035 621.391 488.035 627.203 486.903 632.846C485.763 627.204 485.763 621.39 486.903 615.748Z" fill="black"/>
<path opacity="0.1" d="M494.106 615.748C495.237 621.391 495.237 627.203 494.106 632.846C492.974 627.203 492.974 621.391 494.106 615.748Z" fill="black"/>
<path opacity="0.1" d="M497.624 615.748C498.764 621.39 498.764 627.204 497.624 632.846C496.492 627.203 496.492 621.391 497.624 615.748Z" fill="black"/>
<path opacity="0.1" d="M517.003 615.748C518.143 621.39 518.143 627.204 517.003 632.846C515.871 627.203 515.871 621.391 517.003 615.748Z" fill="black"/>
<path opacity="0.1" d="M522.191 615.748C523.323 621.391 523.323 627.203 522.191 632.846C521.051 627.204 521.051 621.39 522.191 615.748Z" fill="black"/>
<path opacity="0.1" d="M543.799 615.748C544.939 621.39 544.939 627.204 543.799 632.846C542.667 627.203 542.667 621.391 543.799 615.748Z" fill="black"/>
<path opacity="0.1" d="M548.805 615.748C549.937 621.391 549.937 627.203 548.805 632.846C547.665 627.204 547.665 621.39 548.805 615.748Z" fill="black"/>
<path opacity="0.1" d="M557.974 615.748C559.105 621.391 559.105 627.203 557.974 632.846C556.842 627.203 556.842 621.391 557.974 615.748Z" fill="black"/>
<path opacity="0.1" d="M539.636 615.748C540.768 621.391 540.768 627.203 539.636 632.846C538.496 627.204 538.496 621.39 539.636 615.748Z" fill="black"/>
<path opacity="0.1" d="M504.018 615.748C505.15 621.391 505.15 627.203 504.018 632.846C502.878 627.204 502.878 621.39 504.018 615.748Z" fill="black"/>
<path opacity="0.1" d="M529.063 615.748C530.203 621.39 530.203 627.204 529.063 632.846C527.931 627.203 527.931 621.391 529.063 615.748Z" fill="black"/>
<path opacity="0.1" d="M532.664 615.748C533.804 621.39 533.804 627.204 532.664 632.846C531.533 627.203 531.533 621.391 532.664 615.748Z" fill="black"/>
<path opacity="0.1" d="M569.869 615.748C571 621.391 571 627.203 569.869 632.846C568.729 627.204 568.729 621.39 569.869 615.748Z" fill="black"/>
<path opacity="0.1" d="M575.336 615.748C576.468 621.391 576.468 627.203 575.336 632.846C574.196 627.204 574.196 621.39 575.336 615.748Z" fill="black"/>
<path opacity="0.1" d="M562.236 615.748C563.368 621.391 563.368 627.203 562.236 632.846C561.096 627.204 561.096 621.39 562.236 615.748Z" fill="black"/>
<path opacity="0.1" d="M512.774 615.748C513.914 621.39 513.914 627.204 512.774 632.846C511.642 627.203 511.642 621.391 512.774 615.748Z" fill="black"/>
</g>
<path opacity="0.1" d="M579.682 613.782V618.325L482.905 621.381V613.782H579.682Z" fill="black"/>
<path d="M573.073 592.404H476.297V613.782H573.073V592.404Z" fill="#F9E006"/>
<g opacity="0.1">
<path opacity="0.1" d="M480.278 594.354C481.419 600.002 481.419 605.821 480.278 611.469C479.147 605.82 479.147 600.003 480.278 594.354Z" fill="black"/>
<path opacity="0.1" d="M487.482 594.354C488.622 600.002 488.622 605.821 487.482 611.469C486.35 605.82 486.35 600.003 487.482 594.354Z" fill="black"/>
<path opacity="0.1" d="M491.017 594.354C492.149 600.003 492.149 605.82 491.017 611.469C489.877 605.821 489.877 600.002 491.017 594.354Z" fill="black"/>
<path opacity="0.1" d="M510.395 594.354C511.535 600.002 511.535 605.821 510.395 611.469C509.263 605.82 509.263 600.003 510.395 594.354Z" fill="black"/>
<path opacity="0.1" d="M515.566 594.354C516.697 600.003 516.697 605.82 515.566 611.469C514.434 605.82 514.434 600.003 515.566 594.354Z" fill="black"/>
<path opacity="0.1" d="M537.191 594.354C538.323 600.003 538.323 605.82 537.191 611.469C536.051 605.821 536.051 600.002 537.191 594.354Z" fill="black"/>
<path opacity="0.1" d="M542.181 594.354C543.321 600.002 543.321 605.821 542.181 611.469C541.049 605.82 541.049 600.003 542.181 594.354Z" fill="black"/>
<path opacity="0.1" d="M551.349 594.354C552.489 600.002 552.489 605.821 551.349 611.469C550.217 605.82 550.217 600.003 551.349 594.354Z" fill="black"/>
<path opacity="0.1" d="M533.011 594.354C534.143 600.003 534.143 605.82 533.011 611.469C531.871 605.821 531.871 600.002 533.011 594.354Z" fill="black"/>
<path opacity="0.1" d="M497.394 594.354C498.534 600.002 498.534 605.821 497.394 611.469C496.262 605.82 496.262 600.003 497.394 594.354Z" fill="black"/>
<path opacity="0.1" d="M522.439 594.354C523.579 600.002 523.579 605.821 522.439 611.469C521.307 605.82 521.307 600.003 522.439 594.354Z" fill="black"/>
<path opacity="0.1" d="M526.056 594.354C527.188 600.003 527.188 605.82 526.056 611.469C524.916 605.821 524.916 600.002 526.056 594.354Z" fill="black"/>
<path opacity="0.1" d="M563.26 594.354C564.4 600.002 564.4 605.821 563.26 611.469C562.128 605.82 562.128 600.003 563.26 594.354Z" fill="black"/>
<path opacity="0.1" d="M568.712 594.354C569.852 600.002 569.852 605.821 568.712 611.469C567.58 605.82 567.58 600.003 568.712 594.354Z" fill="black"/>
<path opacity="0.1" d="M555.611 594.354C556.752 600.002 556.752 605.821 555.611 611.469C554.48 605.82 554.48 600.003 555.611 594.354Z" fill="black"/>
<path opacity="0.1" d="M506.166 594.354C507.297 600.003 507.297 605.82 506.166 611.469C505.026 605.821 505.026 600.002 506.166 594.354Z" fill="black"/>
</g>
<path opacity="0.1" d="M573.057 592.404V596.947L476.28 600.004V592.404H573.057Z" fill="black"/>
<path d="M588.008 549.798H491.231V571.175H588.008V549.798Z" fill="#F9E006"/>
<g opacity="0.1">
<path opacity="0.1" d="M495.23 551.764C496.37 557.412 496.37 563.231 495.23 568.879C494.098 563.23 494.098 557.413 495.23 551.764Z" fill="black"/>
<path opacity="0.1" d="M502.433 551.764C503.573 557.412 503.573 563.231 502.433 568.879C501.301 563.23 501.301 557.413 502.433 551.764Z" fill="black"/>
<path opacity="0.1" d="M505.968 551.764C507.1 557.413 507.1 563.23 505.968 568.879C504.828 563.231 504.828 557.412 505.968 551.764Z" fill="black"/>
<path opacity="0.1" d="M525.264 551.764C526.404 557.412 526.404 563.231 525.264 568.879C524.132 563.23 524.132 557.413 525.264 551.764Z" fill="black"/>
<path opacity="0.1" d="M530.517 551.764C531.648 557.413 531.648 563.23 530.517 568.879C529.385 563.23 529.385 557.413 530.517 551.764Z" fill="black"/>
<path opacity="0.1" d="M552.142 551.764C553.274 557.413 553.274 563.23 552.142 568.879C551.002 563.231 551.002 557.412 552.142 551.764Z" fill="black"/>
<path opacity="0.1" d="M557.132 551.764C558.272 557.412 558.272 563.231 557.132 568.879C556 563.23 556 557.413 557.132 551.764Z" fill="black"/>
<path opacity="0.1" d="M566.3 551.764C567.44 557.412 567.44 563.231 566.3 568.879C565.168 563.23 565.168 557.413 566.3 551.764Z" fill="black"/>
<path opacity="0.1" d="M547.962 551.764C549.094 557.413 549.094 563.23 547.962 568.879C546.822 563.231 546.822 557.412 547.962 551.764Z" fill="black"/>
<path opacity="0.1" d="M512.345 551.764C513.485 557.412 513.485 563.231 512.345 568.879C511.213 563.23 511.213 557.413 512.345 551.764Z" fill="black"/>
<path opacity="0.1" d="M537.39 551.764C538.53 557.412 538.53 563.231 537.39 568.879C536.258 563.23 536.258 557.413 537.39 551.764Z" fill="black"/>
<path opacity="0.1" d="M541.008 551.764C542.139 557.413 542.139 563.23 541.008 568.879C539.859 563.232 539.859 557.411 541.008 551.764Z" fill="black"/>
<path opacity="0.1" d="M578.261 551.764C579.401 557.412 579.401 563.231 578.261 568.879C577.129 563.23 577.129 557.413 578.261 551.764Z" fill="black"/>
<path opacity="0.1" d="M583.663 551.764C584.803 557.412 584.803 563.231 583.663 568.879C582.532 563.23 582.532 557.413 583.663 551.764Z" fill="black"/>
<path opacity="0.1" d="M570.563 551.764C571.703 557.412 571.703 563.231 570.563 568.879C569.431 563.23 569.431 557.413 570.563 551.764Z" fill="black"/>
<path opacity="0.1" d="M521.117 551.764C522.248 557.413 522.248 563.23 521.117 568.879C519.977 563.231 519.977 557.412 521.117 551.764Z" fill="black"/>
</g>
<path opacity="0.1" d="M588.008 549.815V554.358L491.231 557.398V549.815H588.008Z" fill="black"/>
<path d="M585.579 528.421H488.803V549.798H585.579V528.421Z" fill="#F9E006"/>
<g opacity="0.1">
<path opacity="0.1" d="M581.218 547.485C580.086 541.842 580.086 536.03 581.218 530.387C582.358 536.029 582.358 541.843 581.218 547.485Z" fill="black"/>
<path opacity="0.1" d="M574.015 547.485C572.883 541.842 572.883 536.03 574.015 530.387C575.155 536.029 575.155 541.843 574.015 547.485Z" fill="black"/>
<path opacity="0.1" d="M570.496 547.485C569.365 541.842 569.365 536.03 570.496 530.387C571.628 536.03 571.628 541.842 570.496 547.485Z" fill="black"/>
<path opacity="0.1" d="M551.167 547.485C550.035 541.842 550.035 536.03 551.167 530.387C552.307 536.029 552.307 541.843 551.167 547.485Z" fill="black"/>
<path opacity="0.1" d="M545.947 547.485C544.807 541.843 544.807 536.029 545.947 530.387C547.079 536.03 547.079 541.842 545.947 547.485Z" fill="black"/>
<path opacity="0.1" d="M524.322 547.485C523.182 541.843 523.182 536.029 524.322 530.387C525.454 536.03 525.454 541.842 524.322 547.485Z" fill="black"/>
<path opacity="0.1" d="M519.316 547.485C518.184 541.842 518.184 536.03 519.316 530.387C520.456 536.029 520.456 541.843 519.316 547.485Z" fill="black"/>
<path opacity="0.1" d="M510.148 547.485C509.016 541.842 509.016 536.03 510.148 530.387C511.288 536.029 511.288 541.843 510.148 547.485Z" fill="black"/>
<path opacity="0.1" d="M528.568 547.485C527.428 541.843 527.428 536.029 528.568 530.387C529.7 536.03 529.7 541.842 528.568 547.485Z" fill="black"/>
<path opacity="0.1" d="M564.103 547.485C562.971 541.842 562.971 536.03 564.103 530.387C565.243 536.029 565.243 541.843 564.103 547.485Z" fill="black"/>
<path opacity="0.1" d="M539.058 547.485C537.926 541.842 537.926 536.03 539.058 530.387C540.198 536.029 540.198 541.843 539.058 547.485Z" fill="black"/>
<path opacity="0.1" d="M535.456 547.485C534.325 541.842 534.325 536.03 535.456 530.387C536.588 536.03 536.588 541.842 535.456 547.485Z" fill="black"/>
<path opacity="0.1" d="M498.187 547.485C497.055 541.842 497.055 536.03 498.187 530.387C499.327 536.029 499.327 541.843 498.187 547.485Z" fill="black"/>
<path opacity="0.1" d="M492.784 547.485C491.653 541.842 491.653 536.03 492.784 530.387C493.924 536.029 493.924 541.843 492.784 547.485Z" fill="black"/>
<path opacity="0.1" d="M505.885 547.485C504.753 541.842 504.753 536.03 505.885 530.387C507.025 536.029 507.025 541.843 505.885 547.485Z" fill="black"/>
<path opacity="0.1" d="M555.347 547.485C554.207 541.843 554.207 536.029 555.347 530.387C556.479 536.03 556.479 541.842 555.347 547.485Z" fill="black"/>
</g>
<path opacity="0.1" d="M585.563 528.421V532.964L488.786 536.02V528.421H585.563Z" fill="black"/>
<path d="M579.682 507.043H482.905V528.421H579.682V507.043Z" fill="#F9E006"/>
<g opacity="0.1">
<path opacity="0.1" d="M486.903 508.993C488.035 514.642 488.035 520.459 486.903 526.108C485.763 520.46 485.763 514.641 486.903 508.993Z" fill="black"/>
<path opacity="0.1" d="M494.106 508.993C495.246 514.641 495.246 520.46 494.106 526.108C492.974 520.459 492.974 514.642 494.106 508.993Z" fill="black"/>
<path opacity="0.1" d="M497.624 508.993C498.764 514.641 498.764 520.46 497.624 526.108C496.492 520.459 496.492 514.642 497.624 508.993Z" fill="black"/>
<path opacity="0.1" d="M517.003 508.993C518.143 514.641 518.143 520.46 517.003 526.108C515.871 520.459 515.871 514.642 517.003 508.993Z" fill="black"/>
<path opacity="0.1" d="M522.191 508.993C523.323 514.642 523.323 520.459 522.191 526.108C521.051 520.46 521.051 514.641 522.191 508.993Z" fill="black"/>
<path opacity="0.1" d="M543.799 508.993C544.939 514.641 544.939 520.46 543.799 526.108C542.659 520.46 542.659 514.641 543.799 508.993Z" fill="black"/>
<path opacity="0.1" d="M548.805 508.993C549.937 514.642 549.937 520.459 548.805 526.108C547.665 520.46 547.665 514.641 548.805 508.993Z" fill="black"/>
<path opacity="0.1" d="M557.974 508.993C559.114 514.641 559.114 520.46 557.974 526.108C556.842 520.459 556.842 514.642 557.974 508.993Z" fill="black"/>
<path opacity="0.1" d="M539.636 508.993C540.768 514.642 540.768 520.459 539.636 526.108C538.496 520.46 538.496 514.641 539.636 508.993Z" fill="black"/>
<path opacity="0.1" d="M504.018 508.993C505.15 514.642 505.15 520.459 504.018 526.108C502.878 520.46 502.878 514.641 504.018 508.993Z" fill="black"/>
<path opacity="0.1" d="M529.063 508.993C530.203 514.641 530.203 520.46 529.063 526.108C527.931 520.459 527.931 514.642 529.063 508.993Z" fill="black"/>
<path opacity="0.1" d="M532.664 508.993C533.804 514.641 533.804 520.46 532.664 526.108C531.533 520.459 531.533 514.642 532.664 508.993Z" fill="black"/>
<path opacity="0.1" d="M569.869 508.993C571 514.642 571 520.459 569.869 526.108C568.729 520.46 568.729 514.641 569.869 508.993Z" fill="black"/>
<path opacity="0.1" d="M575.337 508.993C576.477 514.641 576.477 520.46 575.337 526.108C574.205 520.459 574.205 514.642 575.337 508.993Z" fill="black"/>
<path opacity="0.1" d="M562.236 508.993C563.368 514.642 563.368 520.459 562.236 526.108C561.096 520.46 561.096 514.641 562.236 508.993Z" fill="black"/>
<path opacity="0.1" d="M512.774 508.993C513.914 514.641 513.914 520.46 512.774 526.108C511.642 520.459 511.642 514.642 512.774 508.993Z" fill="black"/>
</g>
<path opacity="0.1" d="M579.682 507.043V511.587L482.905 514.643V507.043H579.682Z" fill="black"/>
<path d="M579.682 571.192H482.905V592.569H579.682V571.192Z" fill="#F9E006"/>
<g opacity="0.1">
<path opacity="0.1" d="M575.337 590.257C574.205 584.608 574.205 578.791 575.337 573.142C576.469 578.791 576.469 584.608 575.337 590.257Z" fill="black"/>
<path opacity="0.1" d="M568.216 590.257C567.076 584.609 567.076 578.79 568.216 573.142C569.348 578.791 569.348 584.608 568.216 590.257Z" fill="black"/>
<path opacity="0.1" d="M564.615 590.257C563.475 584.609 563.475 578.79 564.615 573.142C565.746 578.791 565.746 584.608 564.615 590.257Z" fill="black"/>
<path opacity="0.1" d="M545.286 590.257C544.146 584.609 544.146 578.79 545.286 573.142C546.417 578.791 546.417 584.608 545.286 590.257Z" fill="black"/>
<path opacity="0.1" d="M540.132 590.257C539 584.608 539 578.791 540.132 573.142C541.272 578.79 541.272 584.609 540.132 590.257Z" fill="black"/>
<path opacity="0.1" d="M518.424 590.257C517.292 584.608 517.292 578.791 518.424 573.142C519.564 578.79 519.564 584.609 518.424 590.257Z" fill="black"/>
<path opacity="0.1" d="M513.435 590.257C512.303 584.608 512.303 578.791 513.435 573.142C514.566 578.791 514.566 584.608 513.435 590.257Z" fill="black"/>
<path opacity="0.1" d="M504.266 590.257C503.126 584.609 503.126 578.79 504.266 573.142C505.398 578.791 505.398 584.608 504.266 590.257Z" fill="black"/>
<path opacity="0.1" d="M522.604 590.257C521.472 584.608 521.472 578.791 522.604 573.142C523.744 578.79 523.744 584.609 522.604 590.257Z" fill="black"/>
<path opacity="0.1" d="M558.304 590.257C557.164 584.609 557.164 578.79 558.304 573.142C559.436 578.791 559.436 584.608 558.304 590.257Z" fill="black"/>
<path opacity="0.1" d="M533.176 590.257C532.036 584.609 532.036 578.79 533.176 573.142C534.308 578.791 534.308 584.608 533.176 590.257Z" fill="black"/>
<path opacity="0.1" d="M529.575 590.257C528.435 584.609 528.435 578.79 529.575 573.142C530.707 578.791 530.707 584.608 529.575 590.257Z" fill="black"/>
<path opacity="0.1" d="M492.305 590.257C491.173 584.608 491.173 578.791 492.305 573.142C493.437 578.791 493.437 584.608 492.305 590.257Z" fill="black"/>
<path opacity="0.1" d="M486.903 590.257C485.763 584.609 485.763 578.79 486.903 573.142C488.035 578.791 488.035 584.608 486.903 590.257Z" fill="black"/>
<path opacity="0.1" d="M500.004 590.257C498.872 584.608 498.872 578.791 500.004 573.142C501.136 578.791 501.136 584.608 500.004 590.257Z" fill="black"/>
<path opacity="0.1" d="M549.449 590.257C548.318 584.608 548.318 578.791 549.449 573.142C550.589 578.79 550.589 584.609 549.449 590.257Z" fill="black"/>
</g>
<path opacity="0.1" d="M579.682 571.192V575.735L482.905 578.792V571.192H579.682Z" fill="black"/>
<path d="M476.726 543.57C540.429 555.002 523.595 649.383 459.793 637.934C395.991 626.486 412.924 532.121 476.726 543.57Z" fill="#F9E006"/>
<path opacity="0.1" d="M476.726 543.57C540.429 555.002 523.595 649.383 459.793 637.934C395.991 626.486 412.924 532.121 476.726 543.57Z" fill="black"/>
<path d="M470.746 542.496C531.459 553.4 514.624 647.764 453.813 636.861C393.001 625.957 409.935 531.593 470.746 542.496Z" fill="#F9E006"/>
<path opacity="0.1" d="M423.778 591.892C424.092 608.71 433.889 624.933 455.266 628.832C505.719 637.885 519.696 559.562 469.308 550.525C468.978 550.525 468.648 550.41 468.317 550.376C515.566 559.826 502.019 633.953 453.911 625.313C434.285 621.794 424.819 607.256 423.778 591.892Z" fill="black"/>
<g opacity="0.1">
<path opacity="0.1" d="M467.525 560.305C467.933 560.418 468.282 560.683 468.5 561.046C468.719 561.408 468.789 561.841 468.698 562.254L468.054 564.848C472.176 566.228 475.794 568.804 478.445 572.249C478.66 572.461 478.821 572.722 478.913 573.01C479.005 573.298 479.026 573.604 478.974 573.901C478.92 574.119 478.823 574.324 478.688 574.503C478.553 574.682 478.383 574.832 478.188 574.943C477.994 575.055 477.778 575.125 477.555 575.151C477.333 575.176 477.107 575.156 476.892 575.091C476.673 575.05 476.465 574.963 476.282 574.834C476.1 574.706 475.947 574.54 475.835 574.347C473.654 571.348 470.646 569.052 467.178 567.739L462.651 585.912C471.969 590.438 475.19 595.163 473.621 601.507C471.969 608.379 464.931 611.799 456.77 610.031L455.515 615.087C455.402 615.495 455.137 615.844 454.774 616.062C454.411 616.28 453.979 616.351 453.565 616.26C453.16 616.143 452.815 615.877 452.6 615.515C452.385 615.152 452.317 614.721 452.409 614.31L453.681 609.189C448.36 607.433 443.781 603.943 440.679 599.277C440.421 599.015 440.258 598.676 440.215 598.311C440.171 597.947 440.251 597.578 440.44 597.264C440.629 596.949 440.918 596.707 441.261 596.575C441.603 596.443 441.98 596.428 442.331 596.534C442.549 596.581 442.754 596.671 442.936 596.798C443.117 596.926 443.271 597.089 443.389 597.278C445.965 601.475 449.9 604.664 454.54 606.314L459.182 587.861C450.013 583.301 446.891 578.742 448.493 572.266C450.096 565.79 457.068 562.155 465.014 564.006L465.642 561.544C465.74 561.137 465.99 560.783 466.339 560.553C466.689 560.323 467.112 560.235 467.525 560.305ZM459.959 584.557L464.37 566.88C458.059 565.443 452.987 568.169 451.814 572.828C450.724 577.238 452.111 580.476 459.959 584.557ZM461.825 589.216L457.365 607.091C463.874 608.578 469.028 605.868 470.251 600.945C471.358 596.485 469.772 593.197 461.825 589.216Z" fill="black"/>
</g>
<path d="M50.0218 634.631C50.0218 634.631 106.968 661.509 181.64 661.509C261.02 661.509 299.513 635.655 299.513 635.655C357.483 590.141 363.463 522.689 322.112 481.817C297.084 457.037 278.796 462.075 248.531 458.143H248.432C237.741 457.016 227.342 453.966 217.737 449.14C186.579 432.702 169.002 393.912 142.8 361.301C139.496 357.204 136.071 353.234 132.525 349.39C111.048 326.377 68.0951 325.633 45.6108 357.997C-11.368 440.202 -9.76548 562.651 50.0218 634.631Z" fill="#F9E006"/>
<g opacity="0.1">
<path opacity="0.1" d="M50.0218 634.631C50.0218 634.631 106.968 661.509 181.64 661.509C261.02 661.509 299.513 635.655 299.513 635.655C357.483 590.141 363.463 522.689 322.112 481.817C297.084 457.037 278.796 462.075 248.531 458.143H248.432C237.741 457.016 227.342 453.966 217.737 449.14C186.579 432.702 169.002 393.912 142.8 361.301C139.496 357.204 136.071 353.234 132.525 349.39C111.048 326.377 68.0951 325.633 45.6108 357.997C-11.368 440.202 -9.76548 562.651 50.0218 634.631Z" fill="black"/>
</g>
<path opacity="0.1" d="M209.295 568.318C133.219 587.019 63.6351 544.33 57.4069 446.48C52.8142 374.831 103.78 340.997 142.834 361.284C169.068 393.896 186.629 432.685 217.787 449.123C227.396 453.943 237.793 456.998 248.482 458.143H248.581L251.802 458.54C286.479 480.248 268.372 553.796 209.295 568.318Z" fill="black"/>
<path d="M276.731 703.075C272.948 702.166 183.589 645.815 181.54 641.52C180.764 639.868 188.149 626.387 197.664 610.346C199.713 606.876 201.844 603.308 204.025 599.706C218.183 576.248 233.761 551.698 233.761 551.698L293.615 589.084L262.226 636.051L255.354 646.377C255.354 646.377 279.952 683.25 281.687 688.206C283.422 693.162 280.514 703.917 276.731 703.075Z" fill="#F7A9A0"/>
<path d="M276.731 703.075C272.948 702.166 183.606 645.815 181.541 641.52C180.847 640.082 186.497 629.427 194.41 615.913C197.797 621.431 249.225 668.778 266.604 673.635C273.708 675.634 263.135 658.304 262.673 657.578C270.057 668.877 280.548 685.15 281.655 688.322C283.406 693.162 280.515 703.917 276.731 703.075Z" fill="#141414"/>
<path d="M263.664 658.916C263.664 658.916 255.932 651.663 240.535 657.363L263.664 658.916Z" fill="#263238"/>
<path d="M336.172 514.874C329.563 543.124 267.364 636.167 267.364 636.167L203.48 594.866L249.373 528.041C249.373 528.041 159.883 536.037 126.33 520.706C90.5134 504.367 97.1051 461.068 97.1051 461.068L185.753 453.237C185.753 453.237 187.835 461.629 197.797 461.15C232.077 459.498 278.747 462.257 296.589 464.735C319.602 467.973 342.218 488.97 336.172 514.874Z" fill="black"/>
<path d="M270.189 504.83C268.068 506.786 266.075 508.878 264.225 511.091C262.176 513.289 260.095 515.469 258.046 517.699C258.426 517.022 258.806 516.361 259.219 515.7C260.59 513.437 261.747 511.075 263.316 508.944C263.336 508.917 263.344 508.884 263.34 508.852C263.335 508.819 263.318 508.79 263.292 508.77C263.265 508.75 263.232 508.742 263.2 508.747C263.167 508.751 263.138 508.769 263.118 508.795C261.466 510.91 259.682 512.892 258.261 515.139C257.6 516.196 256.956 517.27 256.345 518.443C256.014 519.038 255.667 519.632 255.37 520.26C255.238 520.541 255.056 520.838 254.94 521.136C254.032 522.16 253.107 523.201 252.215 524.242C250.249 526.587 248.464 529.082 246.465 531.395C246.366 531.51 246.565 531.659 246.664 531.544C248.663 529.379 250.876 527.397 252.892 525.249C254.907 523.102 256.939 520.822 258.905 518.542C260.871 516.262 262.689 514.081 264.588 511.851C266.663 509.688 268.594 507.392 270.37 504.979C270.37 504.83 270.271 504.83 270.189 504.83Z" fill="#263238"/>
<path d="M272.006 621.018C270.354 619.68 268.57 618.441 266.835 617.185L261.681 613.501C258.146 610.99 254.561 608.545 250.992 606.1C243.822 601.144 236.586 596.369 229.351 591.546C225.287 588.836 221.173 586.21 217.109 583.533C217.026 583.533 216.927 583.616 216.993 583.665C223.91 588.743 230.876 593.754 237.892 598.699C245.012 603.655 252.182 608.611 259.467 613.402C261.483 614.724 263.515 616.029 265.563 617.317C267.645 618.622 269.71 619.994 271.874 621.183C271.957 621.233 272.089 621.1 272.006 621.018Z" fill="#263238"/>
<path d="M109.082 464.157C107.842 475.714 111.063 487.308 118.085 496.57C121.631 501.066 126.012 504.836 130.988 507.671C136.005 510.42 141.424 512.36 147.046 513.421C158.303 515.675 169.721 517.034 181.193 517.485C192.758 518.046 204.173 518.03 215.638 517.485C227.115 517.06 238.553 515.912 249.885 514.048C252.71 513.553 255.518 512.991 258.294 512.297C259.682 511.95 261.053 511.587 262.424 511.157C263.803 510.643 265.231 510.272 266.686 510.05C267.479 509.946 268.285 510.013 269.049 510.249C269.477 510.382 269.864 510.624 270.171 510.951C270.478 511.278 270.694 511.679 270.8 512.115C270.903 512.514 270.942 512.927 270.915 513.338C270.877 513.756 270.765 514.165 270.585 514.544C270.288 515.238 269.941 515.882 269.594 516.526C268.19 519.054 266.637 521.482 265.084 523.927C252.528 543.223 239.13 561.924 225.716 580.625C232.324 571.176 238.827 561.688 245.226 552.161C251.686 542.645 258.145 533.129 264.291 523.415C265.811 520.97 267.331 518.459 268.685 516.031C269.027 515.42 269.335 514.791 269.61 514.147C269.752 513.882 269.837 513.589 269.858 513.288C269.909 512.988 269.909 512.68 269.858 512.38C269.627 511.207 268.206 510.959 266.868 511.124C265.48 511.343 264.118 511.702 262.804 512.198C261.416 512.628 260.029 513.008 258.624 513.354C255.816 514.065 252.991 514.643 250.149 515.155C238.777 517.072 227.294 518.258 215.77 518.707C204.206 519.186 192.642 519.17 181.21 518.575C169.678 518.109 158.206 516.678 146.913 514.296C141.217 513.168 135.736 511.144 130.674 508.299C125.646 505.38 121.235 501.508 117.689 496.9C114.207 492.261 111.696 486.969 110.304 481.338C108.84 475.735 108.425 469.91 109.082 464.157Z" fill="#263238"/>
<path d="M192.196 706.808C188.694 705.156 113.03 631.393 111.923 626.767C111.494 625.016 121.588 613.369 134.176 599.641C136.902 596.667 139.727 593.627 142.618 590.554C161.336 570.565 181.672 549.782 181.672 549.782L232.423 598.996L191.981 638.414L183.11 647.071C183.11 647.071 199.448 688.256 200.126 693.46C200.803 698.664 195.715 708.493 192.196 706.808Z" fill="#F7A9A0"/>
<path d="M192.196 706.792C188.694 705.14 113.03 631.409 111.923 626.767C111.543 625.214 119.341 615.979 129.832 604.398C131.979 610.494 172.438 667.49 188.413 675.882C194.938 679.318 188.198 660.171 187.917 659.362C192.774 671.95 199.647 690.04 200.06 693.377C200.77 698.614 195.715 708.493 192.196 706.792Z" fill="#141414"/>
<path d="M188.594 660.964C188.594 660.964 182.548 652.258 166.259 654.62L188.594 660.964Z" fill="#263238"/>
<path d="M296.324 520.31C289.716 548.543 211.112 624.19 202.026 632.863L199.961 634.829L146.055 584.276L146.815 583.483L190.23 538.498C190.23 538.498 124.876 558.422 98.3769 517.6C87.8369 501.361 97.0222 461.067 97.0222 461.067L168.225 455.071C168.225 455.071 169.068 467.263 179.013 466.784C213.309 465.131 240.287 463.479 258.179 465.957C281.274 469.179 302.371 494.389 296.324 520.31Z" fill="black"/>
<path d="M180.946 466.701C203.018 465.264 225.138 464.107 247.292 464.818C250.051 464.933 252.826 465.082 255.552 465.33C258.335 465.554 261.096 465.99 263.813 466.635C265.172 467.024 266.498 467.521 267.777 468.122C269.049 468.684 270.305 469.295 271.528 469.956C273.993 471.275 276.357 472.777 278.598 474.449C283.125 477.758 287.071 481.794 290.278 486.393C295.154 493.326 297.81 501.576 297.894 510.051C297.894 510.744 297.894 511.455 297.894 512.149C297.894 512.843 297.894 513.553 297.778 514.263C297.624 515.667 297.37 517.059 297.018 518.426C295.48 523.788 293.259 528.929 290.41 533.724C284.744 543.266 278.313 552.332 271.181 560.834C264.176 569.408 256.791 577.652 249.225 585.73C241.659 593.809 233.812 601.607 225.898 609.322C233.663 601.458 241.328 593.479 248.779 585.317C256.23 577.156 263.532 568.797 270.454 560.24C277.46 551.715 283.806 542.669 289.436 533.179C292.234 528.458 294.421 523.401 295.945 518.129C296.28 516.821 296.518 515.491 296.655 514.148C296.763 512.79 296.796 511.428 296.754 510.067C296.702 507.34 296.392 504.624 295.829 501.956C294.671 496.624 292.476 491.572 289.37 487.087C286.246 482.583 282.4 478.625 277.987 475.374C275.801 473.73 273.492 472.256 271.081 470.963C269.876 470.303 268.653 469.691 267.397 469.146C266.175 468.559 264.903 468.078 263.598 467.709C260.942 467.066 258.241 466.625 255.519 466.387C252.777 466.123 250.018 465.925 247.259 465.792C236.24 465.28 225.171 465.379 214.119 465.594C203.067 465.809 191.998 466.139 180.946 466.701Z" fill="#263238"/>
<path d="M213.904 511.818C211.786 513.784 209.795 515.881 207.94 518.096C205.891 520.293 203.81 522.474 201.761 524.704L202.934 522.705C204.305 520.458 205.462 518.096 207.048 515.965C207.13 515.833 206.932 515.684 206.849 515.816C205.197 517.931 203.413 519.897 201.976 522.16C201.315 523.217 200.671 524.291 200.06 525.381C199.729 525.976 199.399 526.587 199.085 527.199C198.953 527.48 198.771 527.777 198.655 528.074C197.747 529.115 196.838 530.139 195.946 531.197C193.964 533.526 192.179 536.021 190.18 538.333C190.081 538.466 190.279 538.598 190.379 538.482C192.378 536.318 194.591 534.335 196.623 532.204C198.655 530.073 200.654 527.76 202.62 525.497C204.586 523.234 206.403 521.02 208.303 518.889C210.374 516.717 212.305 514.416 214.085 512C214.097 511.988 214.107 511.974 214.113 511.958C214.12 511.943 214.123 511.926 214.123 511.909C214.123 511.892 214.12 511.875 214.113 511.86C214.107 511.844 214.097 511.83 214.085 511.818C214.073 511.806 214.059 511.797 214.044 511.79C214.028 511.784 214.011 511.781 213.994 511.781C213.978 511.781 213.961 511.784 213.945 511.79C213.93 511.797 213.916 511.806 213.904 511.818Z" fill="#263238"/>
<path d="M207.428 622.125C206.024 620.473 204.471 619.002 202.968 617.466C201.464 615.93 200.011 614.459 198.507 612.956C195.451 609.9 192.329 606.893 189.223 603.886C182.978 597.823 176.651 591.859 170.34 585.879C166.805 582.575 163.187 579.271 159.618 575.967C159.618 575.967 159.42 575.967 159.486 576.082C165.467 582.245 171.463 588.374 177.559 594.42C183.655 600.467 189.983 606.596 196.343 612.592C198.111 614.245 199.912 615.897 201.712 617.549C203.513 619.201 205.347 620.853 207.263 622.422C207.346 622.372 207.494 622.257 207.428 622.125Z" fill="#263238"/>
<path d="M106.538 465.264C105.064 471.428 104.414 477.761 104.605 484.097C104.718 490.412 106.018 496.65 108.438 502.484C110.917 508.279 114.983 513.256 120.167 516.84C125.429 520.284 131.418 522.461 137.663 523.201C143.906 524.068 150.22 524.317 156.512 523.944C162.821 523.622 169.108 522.96 175.346 521.962C187.844 520.008 200.192 517.193 212.302 513.536L212.764 513.404L212.946 513.801C213.656 515.362 214.065 517.043 214.152 518.757C214.259 520.422 214.108 522.093 213.706 523.713C213.285 525.323 212.658 526.873 211.839 528.322C210.951 529.705 209.969 531.024 208.898 532.27C204.719 537.226 200.225 541.869 195.682 546.511C191.139 551.153 186.612 555.713 182.003 560.223C177.394 564.733 172.768 569.243 168.093 573.704C172.675 569.144 177.212 564.557 181.706 559.942C186.216 555.316 190.709 550.691 195.153 546.015C199.597 541.34 203.992 536.615 208.089 531.659C209.105 530.44 210.037 529.154 210.881 527.81C211.608 526.435 212.163 524.976 212.533 523.465C213.312 520.437 213.068 517.237 211.839 514.362L212.483 514.627C200.339 518.361 187.945 521.232 175.395 523.217C169.107 524.2 162.77 524.845 156.413 525.15C150.047 525.494 143.662 525.218 137.349 524.324C130.958 523.561 124.838 521.296 119.49 517.716C114.218 513.976 110.112 508.822 107.645 502.848C105.249 496.917 104.031 490.576 104.06 484.18C104.048 477.793 104.881 471.432 106.538 465.264Z" fill="#263238"/>
<path d="M137.034 465.297C136.274 468.601 135.382 471.905 134.292 475.126C133.533 478.11 132.197 480.916 130.36 483.387C128.429 485.53 126.025 487.193 123.339 488.244C121.801 488.919 120.223 489.499 118.614 489.978C116.965 490.419 115.348 490.971 113.774 491.63C113.711 491.666 113.661 491.72 113.631 491.785C113.6 491.85 113.59 491.923 113.603 491.993C113.616 492.064 113.65 492.129 113.701 492.179C113.753 492.23 113.818 492.263 113.889 492.275C115.691 492.298 117.489 492.098 119.242 491.68C120.928 491.349 122.585 490.885 124.198 490.292C127.169 489.193 129.808 487.35 131.863 484.939C133.819 482.296 135.156 479.247 135.779 476.018C136.674 472.562 137.228 469.026 137.431 465.462C137.453 465.409 137.453 465.35 137.431 465.298C137.409 465.245 137.368 465.203 137.315 465.181C137.262 465.159 137.203 465.159 137.151 465.181C137.098 465.202 137.056 465.244 137.034 465.297Z" fill="#263238"/>
<path d="M162.393 287.802C162.393 287.802 148.566 278.616 135.036 285.555C121.505 292.494 113.774 311.723 114.616 328.508C115.459 345.293 101.07 355.073 98.5916 367.248C96.1136 379.424 103.729 385.784 105.91 392.458C108.405 400.107 93.8172 425.317 124.942 434.007C163.88 444.878 181.012 421.799 178.633 401.346C177.46 391.335 172.504 383.868 173.247 375.905C173.991 367.942 180.169 362.061 178.055 351.703C175.94 341.344 171.942 342.418 171.645 326.41C171.347 310.402 176.171 291.717 162.393 287.802Z" fill="#263238"/>
<path d="M137.811 285.406C128.962 290.123 121.772 297.44 117.21 306.371C114.93 310.797 113.395 315.57 112.667 320.496C111.726 326.922 112.221 333.068 109.363 339.147C104.688 348.878 96.279 356.642 95.7338 367.86C95.4758 373.095 96.7073 378.296 99.2857 382.86C102.292 388.196 106.836 392.591 109.198 398.241C109.297 398.488 109.661 398.241 109.561 398.092C107.579 393.136 104.011 389.072 101.153 384.496C97.6774 379.145 96.1275 372.771 96.7581 366.422C97.931 355.8 106.208 348.25 110.553 338.833C112.297 334.68 113.201 330.221 113.212 325.716C113.418 320.287 114.535 314.932 116.516 309.873C120.845 299.707 128.305 291.187 137.811 285.555C137.811 285.555 137.894 285.357 137.811 285.406Z" fill="#263238"/>
<path d="M178.715 398.439C178.121 393.598 175.989 389.072 175.411 384.248C174.684 378.449 176.601 372.882 178.154 367.364C180.351 359.484 180.797 351.917 177.889 344.103C176.006 339.048 173.611 334.191 172.322 329.004C170.932 323.299 170.376 317.422 170.67 311.558C170.67 311.426 170.472 311.409 170.472 311.558C169.622 320.022 170.753 328.569 173.776 336.52C175.56 341.196 177.889 345.64 178.732 350.596C179.756 356.543 178.732 362.16 177.212 367.909C176.043 371.726 175.225 375.641 174.767 379.606C174.652 383.643 175.273 387.668 176.601 391.484C179.587 401.511 178.636 412.3 173.941 421.65C173.858 421.815 174.156 421.964 174.255 421.799C178.126 414.662 179.684 406.499 178.715 398.439Z" fill="#263238"/>
<path d="M97.65 365.695C98.7238 356.956 105.315 351.504 109.644 344.219C112.948 338.718 115.327 332.737 114.93 326.327C114.93 326.228 114.732 326.245 114.732 326.327C114.451 335.529 109.925 343.509 104.225 350.761C100.442 355.585 97.237 360.26 96.7083 366.389C96.1797 372.518 98.1621 377.656 101.185 382.91C103.333 386.66 105.464 390.162 106.141 394.474C106.601 398.771 106.434 403.111 105.646 407.36C105.646 407.575 105.976 407.591 106.009 407.36C107.133 400.851 107.661 394.49 104.935 388.213C101.532 380.448 96.5596 374.567 97.65 365.695Z" fill="#263238"/>
<path d="M180.748 392.343C179.581 389.245 178.127 386.264 176.403 383.438C173.462 378.234 173.231 374.187 174.751 368.421C174.751 368.289 174.586 368.223 174.536 368.339C172.521 373.03 171.81 377.012 174.305 381.687C177.791 388.295 181.227 394.177 181.442 401.644C181.822 414.86 173.396 426.523 160.824 432.19C160.659 432.19 160.824 432.504 160.956 432.438C166.031 430.595 170.574 427.529 174.181 423.513C177.789 419.496 180.351 414.651 181.64 409.408C182.927 403.747 182.618 397.839 180.748 392.343Z" fill="#263238"/>
<path d="M168.159 365.266C204.272 394.457 238.04 426.722 241.476 443.936C246.234 467.775 231.812 475.225 225.203 475.655C207.18 476.795 170.488 405.526 157.602 378.185C145.08 351.769 160.163 358.856 168.159 365.266Z" fill="#EBEBEB"/>
<path d="M166.92 364.291L152.927 364.787C152.927 364.506 152.927 364.242 152.845 363.977L165.846 363.515L166.92 364.291ZM173 369.247L154.15 369.908C154.249 370.172 154.332 370.437 154.431 370.718L173.974 370.04L173 369.247ZM179.889 374.963L156.446 375.773C156.578 376.037 156.694 376.318 156.826 376.599L180.83 375.756L179.889 374.963ZM186.579 380.679L159.205 381.621L159.585 382.447L187.488 381.472C187.191 381.158 186.893 380.927 186.596 380.646L186.579 380.679ZM193.188 386.395L162.096 387.486L162.509 388.295L194.08 387.188L193.188 386.395ZM199.548 392.128L165.02 393.334L165.417 394.143L200.407 392.921L199.548 392.128ZM205.71 397.861L167.994 399.182C168.143 399.446 168.275 399.711 168.407 399.992L206.553 398.654L205.71 397.861ZM211.657 403.61L171.05 405.03C171.182 405.311 171.331 405.576 171.48 405.84L212.467 404.403L211.657 403.61ZM217.34 409.359L174.156 410.862L174.586 411.672L218.117 410.152L217.34 409.359ZM222.742 415.124L177.344 416.776L177.791 417.586L223.453 415.934L222.742 415.124ZM227.781 420.906L180.616 422.559C180.764 422.823 180.913 423.104 181.078 423.368L228.442 421.716L227.781 420.906ZM232.357 426.689L183.969 428.341L184.432 429.15L232.952 427.498C232.721 427.184 232.523 426.936 232.308 426.656L232.357 426.689ZM236.388 432.504L187.438 434.156L187.918 434.965L236.884 433.313L236.388 432.504ZM239.593 438.335L191.023 439.988C191.189 440.268 191.37 440.533 191.535 440.797L239.94 439.145C239.823 438.857 239.691 438.576 239.544 438.302L239.593 438.335ZM241.576 444.217L194.757 445.869C194.939 446.133 195.12 446.397 195.286 446.678L241.724 445.026C241.642 444.745 241.576 444.465 241.526 444.184L241.576 444.217ZM242.369 450.148L198.722 451.667C198.904 451.948 199.102 452.213 199.284 452.477L242.418 450.957L242.369 450.148ZM202.935 457.466C203.133 457.747 203.348 458.011 203.546 458.276L242.22 456.921C242.22 456.657 242.22 456.376 242.319 456.095L202.935 457.466ZM207.577 463.265L208.254 464.058L240.799 462.918L241.097 462.092L207.577 463.265ZM212.979 469.03C213.26 469.311 213.557 469.576 213.838 469.823L237.346 468.997L238.007 468.155L212.979 469.03ZM220.777 474.713C221.457 475.026 222.165 475.275 222.891 475.457L227.616 475.292C228.509 475.057 229.381 474.754 230.226 474.383L220.777 474.713Z" fill="#DBDBDB"/>
<path d="M196.128 460.621L189.9 430.34C189.9 430.34 201.464 417.322 194.641 404.502C191.205 398.009 168.374 366.505 156.644 358.955C145.576 351.785 133.103 358.674 128.692 367.116C117.541 388.444 107.116 412.861 102.375 464.669L196.128 460.621Z" fill="#EBEBEB"/>
<path d="M156.231 358.724L135.762 359.434C136.226 359.117 136.705 358.825 137.2 358.559L154.86 357.947C155.336 358.171 155.795 358.43 156.231 358.724ZM162.377 363.68L130.146 364.82C129.931 365.101 129.749 365.381 129.567 365.662L163.219 364.473L162.377 363.68ZM168.027 369.429L126.726 370.883L126.296 371.725L168.721 370.238L168.027 369.429ZM173.099 375.211L123.818 376.896L123.422 377.722L173.809 375.971L173.099 375.211ZM177.856 380.993L121.026 382.976L120.646 383.818L178.468 381.803L177.856 380.993ZM182.383 386.792L118.499 389.022L118.168 389.865L182.994 387.535L182.383 386.792ZM186.711 392.591L116.235 395.052L115.921 395.895L187.29 393.4L186.711 392.591ZM190.792 398.389L114.187 401.082C114.088 401.363 114.005 401.627 113.922 401.908L191.354 399.1L190.792 398.389ZM194.707 404.551L194.525 404.221L112.353 407.095C112.353 407.376 112.204 407.657 112.122 407.938L194.955 405.03L194.707 404.551ZM196.607 410.102L110.701 413.092C110.701 413.373 110.552 413.638 110.486 413.935L196.69 410.912C196.69 410.664 196.64 410.317 196.607 410.053V410.102ZM109.28 419.056C109.28 419.337 109.148 419.618 109.082 419.882L196.508 416.826C196.508 416.562 196.607 416.281 196.64 416L109.28 419.056ZM107.975 425.053C107.975 425.334 107.86 425.598 107.81 425.879L194.625 422.839L194.971 422.013L107.975 425.053ZM106.819 431.033C106.819 431.314 106.72 431.595 106.654 431.876L191.089 428.919L191.684 428.076L106.819 431.033ZM190.726 434.057L105.794 437.096C105.794 437.377 105.695 437.642 105.662 437.922L190.891 434.949L190.726 434.057ZM191.932 439.971L104.869 443.011C104.869 443.292 104.869 443.556 104.754 443.837L192.097 440.781L191.932 439.971ZM193.121 445.885L103.994 448.991L103.895 449.817L193.237 446.695L193.121 445.885ZM194.327 451.783L103.349 454.972L103.25 455.798L194.492 452.609L194.327 451.783ZM195.533 457.697L102.722 461.001C102.722 461.282 102.722 461.563 102.722 461.844L195.781 458.54L195.533 457.697Z" fill="#DBDBDB"/>
<path d="M175.494 427.019C170.638 427.758 165.845 428.862 161.155 430.323C158.842 431.067 156.579 431.975 154.315 432.834C153.175 433.28 152.035 433.693 150.896 434.106C149.708 434.561 148.472 434.877 147.212 435.048C147.096 435.048 147.112 435.213 147.212 435.213C148.412 435.202 149.609 435.109 150.796 434.932C151.915 434.711 153.019 434.419 154.101 434.057C156.463 433.33 158.792 432.405 161.138 431.711C165.88 430.158 170.637 428.622 175.478 427.432C175.808 427.349 175.726 426.97 175.494 427.019Z" fill="#263238"/>
<path d="M187.819 430.571C183.776 430.408 179.728 430.469 175.693 430.753C173.661 430.901 171.662 431.166 169.663 431.496C168.705 431.645 167.763 431.81 166.805 431.992C165.846 432.173 164.74 432.537 163.699 432.719C163.583 432.719 163.6 432.917 163.699 432.9C164.69 432.752 165.714 432.768 166.706 432.686L169.729 432.421C171.728 432.24 173.743 432.091 175.759 431.893C179.79 431.513 183.788 431.166 187.835 430.901C188.066 430.901 188.033 430.587 187.819 430.571Z" fill="#263238"/>
<path d="M192.378 442.218C191.404 438.236 190.445 434.238 189.57 430.224C202.786 416 194.526 404.056 185.142 390.872C182.235 386.863 179.239 382.904 176.155 378.994C179.558 382.629 182.763 386.428 185.82 390.377C190.264 396.374 194.989 402.519 197.087 409.821C197.839 413.584 197.601 417.477 196.396 421.121C195.192 424.764 193.061 428.032 190.214 430.604L190.33 430.273C191.057 434.238 191.734 438.236 192.378 442.218Z" fill="#263238"/>
<path d="M180.632 381.671C182.537 383.615 183.76 386.125 184.118 388.824C182.713 386.566 181.545 384.168 180.632 381.671Z" fill="#263238"/>
<path d="M127.32 364.027C96.0142 390.839 65.9966 436.188 66.8722 460.787C67.6817 485.088 76.041 482.362 78.4365 482.114C93.057 480.462 124.694 411.473 134.044 383.471C143.395 355.469 135.052 357.386 127.32 364.027Z" fill="#EBEBEB"/>
<path d="M138.141 365.299L125.338 365.745L126.313 364.902L138.125 364.489C138.147 364.758 138.152 365.029 138.141 365.299ZM119.556 371.015L118.664 371.874L137.431 371.213L137.58 370.387L119.556 371.015ZM113.394 377.193L112.568 378.036L135.944 377.227C136.043 376.946 136.109 376.665 136.192 376.384L113.394 377.193ZM107.711 383.323L106.951 384.182L134.094 383.24C134.193 382.959 134.292 382.678 134.375 382.397L107.711 383.323ZM102.424 389.468L101.714 390.311L131.996 389.253L132.293 388.427L102.424 389.468ZM97.4682 395.597L96.8239 396.44L129.699 395.283C129.815 395.002 129.914 394.738 130.013 394.457L97.4682 395.597ZM92.8755 401.71L92.2642 402.552L127.287 401.33L127.634 400.487L92.8755 401.71ZM88.5802 407.806L88.002 408.665L124.76 407.376C124.892 407.095 125.008 406.815 125.123 406.534L88.5802 407.806ZM84.6153 413.968C84.4336 414.249 84.2518 414.53 84.0866 414.81L122.084 413.489C122.216 413.208 122.331 412.927 122.447 412.646L84.6153 413.968ZM80.8652 420.031L80.3861 420.89L119.407 419.519C119.539 419.238 119.672 418.957 119.787 418.676L80.8652 420.031ZM77.5611 426.11L77.115 426.953L116.665 425.565L117.061 424.739L77.5611 426.11ZM74.5379 432.14C74.4057 432.421 74.2735 432.702 74.1579 432.983L113.807 431.595C113.955 431.314 114.088 431.033 114.22 430.753L74.5379 432.14ZM71.9111 438.187C71.7955 438.468 71.6798 438.748 71.5807 439.013L110.784 437.642C110.932 437.361 111.064 437.08 111.213 436.815L71.9111 438.187ZM69.7304 444.2C69.6274 444.476 69.5391 444.757 69.4661 445.043L107.678 443.705L108.124 442.862L69.7304 444.2ZM68.0784 450.214C68.0784 450.494 67.9462 450.759 67.8801 451.04L104.44 449.768L104.919 448.925L68.0784 450.214ZM67.0706 456.194C67.0706 456.475 67.0706 456.756 67.0706 457.036L101.086 455.847L101.582 455.004L67.0706 456.194ZM66.9385 462.158V462.984L97.3855 461.96C97.5673 461.679 97.7325 461.398 97.9307 461.117L66.9385 462.158ZM67.4506 468.089C67.4506 468.369 67.4506 468.634 67.5662 468.898L93.3711 468.006L93.9493 467.163L67.4506 468.089ZM68.5905 474.003L68.8383 474.829L88.7619 474.119L89.4558 473.276L68.5905 474.003ZM71.3494 479.851C71.5817 480.14 71.8358 480.411 72.1094 480.661L82.4842 480.297C82.8807 480.028 83.2613 479.735 83.6241 479.422L71.3494 479.851Z" fill="#DBDBDB"/>
<path d="M97.1211 462.307C98.7731 459.168 100.31 456.078 101.813 452.923L106.472 443.523C109.544 437.245 112.667 430.984 115.64 424.657C118.614 418.329 121.687 412.052 124.628 405.708C126.092 402.536 127.524 399.347 128.923 396.142C130.377 392.954 131.682 389.716 133.02 386.478C130.987 393.187 128.582 399.778 125.817 406.22C123.124 412.696 120.151 419.04 117.177 425.384C114.203 431.727 110.965 437.956 107.628 444.118C104.291 450.28 100.888 456.409 97.1211 462.307Z" fill="#263238"/>
<path d="M129.931 394.755C130.486 393.617 131.109 392.513 131.797 391.451C132.144 390.938 132.475 390.41 132.838 389.914C133.202 389.419 133.532 388.89 133.962 388.394C133.714 389.652 133.22 390.848 132.508 391.913C131.838 393.016 130.963 393.981 129.931 394.755Z" fill="#263238"/>
<path d="M229.796 408.83C227.616 397.497 223.535 381.753 219.273 378.647C215.011 375.542 198.639 364.506 194.063 363.201C189.487 361.896 169.067 355.354 165.499 357.666C162.657 359.533 166.556 367.083 176.287 370.288C181.567 372.151 186.731 374.33 191.75 376.814C194.244 377.722 200.539 385.322 199.118 388.906C198.292 391.005 192.427 393.747 188.611 392.211C184.795 390.674 183.473 383.405 179.013 380.151C174.552 376.896 167.085 377.722 166.754 379.771C166.424 381.819 168.952 382.645 173.181 389.336C175.89 393.631 176.634 404.204 182.647 411.606C185.749 415.968 188.585 420.514 191.139 425.218L229.796 408.83Z" fill="#F7A9A0"/>
<path d="M174.867 377.26C173.479 377.137 172.155 376.621 171.05 375.773C170.701 375.477 170.428 375.103 170.253 374.68C170.077 374.258 170.005 373.8 170.043 373.344C170.041 373.007 170.158 372.679 170.373 372.419C170.373 372.419 170.373 372.27 170.29 372.419C170.19 372.585 170.079 372.745 169.96 372.898C169.883 373.034 169.822 373.178 169.778 373.328C169.683 373.632 169.644 373.951 169.663 374.269C169.727 374.968 170.024 375.626 170.505 376.136C171.082 376.675 171.776 377.074 172.533 377.3C173.29 377.526 174.088 377.575 174.867 377.441C174.867 377.441 174.933 377.276 174.867 377.26Z" fill="#263238"/>
<path d="M219.273 378.647C215.341 373.146 205.512 363.366 196.145 360.326C189.817 358.278 168.985 369.826 169.828 373.89C170.67 377.954 174.321 377.755 179.74 376.83C181.706 376.483 191.915 372.188 193.815 374.286C196.524 377.293 200.341 387.849 200.341 387.849L219.273 378.647Z" fill="#F7A9A0"/>
<path d="M170.258 372.27C172.67 367.744 178.336 365.101 184.019 362.953C184.118 362.953 184.168 363.052 184.019 363.085C182.565 363.63 173.38 368.471 170.258 372.336C170.291 372.369 170.225 372.303 170.258 372.27Z" fill="#263238"/>
<path d="M219.273 378.647C215.341 373.146 205.512 363.366 196.145 360.326C189.817 358.278 173.611 372.502 174.454 376.566C175.296 380.63 180.55 380.663 186.249 378.333C188.083 377.574 194.129 372.816 196.029 374.914C198.739 377.92 205.38 385.388 205.38 385.388L219.273 378.647Z" fill="#F7A9A0"/>
<path d="M201.464 380.746C200.837 379.886 200.622 379.573 199.978 378.714C199.333 377.854 198.672 377.061 197.979 376.219C197.419 375.466 196.731 374.817 195.947 374.303C195.146 373.898 194.236 373.764 193.353 373.923C191.38 374.448 189.539 375.382 187.951 376.665C186.117 377.854 182.251 379.853 179.211 379.688C178.373 379.688 177.545 379.508 176.783 379.16C176.205 378.94 175.693 378.576 175.296 378.102C173.859 375.938 175.296 373.311 176.948 371.494C180.077 368.06 183.798 365.217 187.934 363.102C188.909 362.557 189.9 362.044 190.891 361.45C191.993 360.792 193.219 360.37 194.493 360.211C196.607 360.079 200.159 362.028 201.266 362.623C201.349 362.623 201.398 362.54 201.266 362.49C199.928 361.747 196.591 359.302 193.204 359.649C191.974 359.9 190.799 360.37 189.735 361.037C188.595 361.598 187.455 362.21 186.332 362.854C184.139 364.075 182.045 365.467 180.07 367.017C178.112 368.465 176.433 370.256 175.114 372.304C174.567 373.22 174.278 374.268 174.278 375.335C174.278 376.403 174.567 377.45 175.114 378.367C175.594 378.939 176.193 379.4 176.869 379.717C177.545 380.034 178.283 380.199 179.03 380.2C179.925 380.261 180.825 380.206 181.706 380.035C183.663 379.503 185.579 378.83 187.439 378.02C189.239 377.194 190.825 375.855 192.692 375.195C193.125 375.006 193.591 374.909 194.063 374.909C194.535 374.909 195.002 375.006 195.434 375.195C196.241 375.665 196.971 376.255 197.599 376.946C198.923 378.13 200.139 379.429 201.233 380.828C201.464 381.258 201.778 381.109 201.464 380.746Z" fill="#263238"/>
<path d="M222.231 383.471C220.76 380.828 217.902 369.776 215.622 366.472C213.343 363.168 202.819 351.851 198.243 352.611C192.51 353.553 199.086 363.647 202.324 367.76C205.561 371.874 205.462 379.209 205.462 379.209L222.231 383.471Z" fill="#F7A9A0"/>
<path d="M197.681 360.888C198.818 362.221 199.887 363.611 200.886 365.051C201.923 366.347 202.856 367.722 203.678 369.165C204.396 370.641 204.865 372.227 205.065 373.856C205.181 374.649 205.247 375.509 205.297 376.252C205.346 376.995 205.297 378.036 205.396 378.912C205.396 378.994 205.247 379.027 205.247 378.912C205.057 377.308 204.759 375.718 204.355 374.154C204.002 372.527 203.447 370.951 202.703 369.462C201.2 366.521 199.085 363.928 197.549 360.987C197.433 360.888 197.598 360.789 197.681 360.888Z" fill="#263238"/>
<path d="M205.412 380.432C205.759 383.23 205.396 386.071 204.355 388.692C203.894 390.006 203.342 391.287 202.703 392.525C202.05 393.751 201.316 394.932 200.506 396.06C198.934 398.212 197.641 400.555 196.657 403.032C195.741 405.565 195.137 408.2 194.856 410.879C194.518 408.114 194.714 405.31 195.434 402.619C196.23 399.926 197.47 397.386 199.102 395.102C200.665 392.933 201.999 390.607 203.083 388.163C204.282 385.733 205.069 383.12 205.412 380.432Z" fill="#263238"/>
<path d="M223.486 474.895C212.169 473.854 203.992 455.335 189.718 422.757C187.224 417.041 215.11 380.052 219.339 385.222C224.675 391.715 239.841 428.539 241.708 438.666C245.375 458.573 236.719 476.101 223.486 474.895Z" fill="#F7A9A0"/>
<path d="M197.301 440.946L232.093 404.138C232.093 404.138 243.657 434.04 243.277 446.81C242.897 459.581 239.048 474.251 223.766 475.704C212.318 476.745 197.301 440.946 197.301 440.946Z" fill="#EBEBEB"/>
<path d="M234.091 409.557L226.723 409.821L227.533 408.962L233.811 408.748C233.893 409.012 233.992 409.276 234.091 409.557ZM235.876 414.629L221.701 415.124L220.892 415.983L236.14 415.455C236.041 415.174 235.958 414.893 235.876 414.629ZM237.809 420.576L215.902 421.353L215.109 422.195L238.056 421.386L237.809 420.576ZM239.576 426.474L210.087 427.498L209.278 428.357L239.791 427.184C239.708 426.953 239.642 426.672 239.56 426.408L239.576 426.474ZM241.146 432.372L204.272 433.66L203.463 434.503L241.344 433.181L241.146 432.372ZM242.434 438.269L198.457 439.806L197.647 440.665L242.583 439.095L242.434 438.269ZM243.244 444.2L199.432 445.72C199.547 445.985 199.679 446.265 199.828 446.546L243.277 445.026C243.26 444.696 243.244 444.415 243.227 444.134L243.244 444.2ZM202.306 451.585C202.438 451.849 202.571 452.114 202.719 452.378L243.029 450.974C243.029 450.709 243.029 450.428 243.029 450.148L202.306 451.585ZM205.462 457.417L205.924 458.226L242.137 456.954C242.137 456.69 242.253 456.409 242.302 456.128L205.462 457.417ZM209.03 463.248L209.559 464.041L240.32 462.967C240.435 462.703 240.534 462.422 240.65 462.141L209.03 463.248ZM213.276 469.047C213.507 469.333 213.738 469.598 213.97 469.84L236.817 469.047C237.049 468.766 237.263 468.502 237.478 468.204L213.276 469.047ZM219.719 474.78C220.299 475.103 220.914 475.358 221.552 475.539L226.343 475.374C227.422 475.157 228.478 474.842 229.499 474.433L219.719 474.78Z" fill="#DBDBDB"/>
<path d="M210.088 464.867C208.683 463.067 207.444 461.167 206.222 459.267C204.999 457.367 203.859 455.401 202.736 453.419C201.613 451.436 200.605 449.421 199.68 447.339C198.705 445.28 197.909 443.141 197.301 440.946C198.342 442.978 199.448 444.927 200.605 446.893L203.909 452.807C204.983 454.79 206.073 456.756 207.114 458.771C208.155 460.787 209.146 462.786 210.088 464.867Z" fill="#263238"/>
<path d="M205.38 446.761C207.032 444.762 208.915 442.879 210.699 440.979C212.483 439.079 214.317 437.179 216.151 435.312C219.835 431.579 223.519 427.862 227.269 424.211C228.293 423.203 229.318 422.195 230.358 421.22C231.399 420.246 232.721 419.254 233.828 418.181C233.828 418.098 234.042 418.181 233.96 418.313C233.068 419.254 232.308 420.312 231.449 421.27C230.59 422.228 229.631 423.219 228.706 424.177C226.889 426.061 225.061 427.939 223.222 429.811C219.554 433.544 215.853 437.262 212.07 440.88C209.923 442.928 207.825 445.043 205.561 446.959C205.535 446.983 205.5 446.996 205.465 446.994C205.429 446.993 205.395 446.977 205.371 446.951C205.347 446.924 205.335 446.89 205.336 446.854C205.338 446.818 205.353 446.785 205.38 446.761Z" fill="#263238"/>
<path d="M136.82 360.805C137.167 362.656 145.361 375.062 155.488 374.022C161.37 373.41 156.843 361.829 156.843 361.829L161.254 345.524L141.165 331.498C141.165 331.498 136.688 360.029 136.82 360.805Z" fill="#F7A9A0"/>
<path d="M139.546 342.154C141.026 346.316 143.347 350.13 146.366 353.356C149.384 356.582 153.035 359.151 157.091 360.904L161.254 345.524L141.181 331.498C141.181 331.498 140.438 336.322 139.546 342.154Z" fill="#263238"/>
<path d="M183.192 321.949C184.96 349.555 168.621 353.718 162.674 354.098C157.272 354.429 138.835 354.908 134.226 327.666C129.617 300.423 141.908 290.858 154.216 289.421C166.523 287.984 181.441 294.36 183.192 321.949Z" fill="#F7A9A0"/>
<path d="M177.014 320.743C176.393 320.608 175.781 320.437 175.18 320.231C174.503 320.15 173.874 319.841 173.396 319.356C173.265 319.185 173.193 318.976 173.193 318.761C173.193 318.546 173.265 318.337 173.396 318.166C173.729 317.884 174.131 317.696 174.56 317.621C174.99 317.545 175.432 317.585 175.841 317.737C176.71 317.924 177.48 318.424 178.005 319.141C178.106 319.308 178.159 319.499 178.159 319.694C178.158 319.889 178.103 320.08 178 320.246C177.898 320.412 177.751 320.546 177.577 320.634C177.403 320.722 177.208 320.76 177.014 320.743Z" fill="#263238"/>
<path d="M158.066 320.132C158.698 320.071 159.326 319.977 159.949 319.851C160.63 319.845 161.29 319.619 161.832 319.207C161.965 319.034 162.037 318.822 162.037 318.604C162.037 318.386 161.965 318.174 161.832 318.001C161.54 317.679 161.166 317.443 160.749 317.318C160.333 317.193 159.891 317.184 159.47 317.291C158.578 317.352 157.744 317.755 157.14 318.414C157.009 318.576 156.928 318.773 156.909 318.981C156.889 319.189 156.932 319.397 157.031 319.581C157.13 319.765 157.281 319.915 157.465 320.013C157.649 320.111 157.858 320.153 158.066 320.132Z" fill="#263238"/>
<path d="M161.584 327.352C161.584 327.352 161.419 327.434 161.419 327.517C161.419 329.4 161.072 331.548 159.354 332.109V332.225C161.452 332.01 161.815 329.136 161.584 327.352Z" fill="#263238"/>
<path d="M159.964 325.32C156.958 324.973 156.479 331.036 159.271 331.366C162.063 331.696 162.509 325.617 159.964 325.32Z" fill="#263238"/>
<path d="M158.759 325.551C158.198 325.848 157.636 326.41 156.992 326.426C156.347 326.443 155.736 325.766 155.34 325.121C155.34 325.121 155.24 325.121 155.224 325.121C155.125 326.278 155.472 327.5 156.711 327.765C157.95 328.029 158.726 327.054 159.106 325.914C159.139 325.766 158.974 325.435 158.759 325.551Z" fill="#263238"/>
<path d="M172.95 327.401C172.95 327.401 173.082 327.5 173.082 327.583C172.851 329.45 172.917 331.63 174.569 332.407C174.569 332.407 174.569 332.522 174.569 332.506C172.487 332.043 172.437 329.136 172.95 327.401Z" fill="#263238"/>
<path d="M174.783 325.584C177.823 325.584 177.542 331.696 174.783 331.663C172.024 331.63 172.239 325.567 174.783 325.584Z" fill="#263238"/>
<path d="M176.039 326.046C176.502 326.393 176.948 326.988 177.526 327.054C178.104 327.12 178.699 326.492 179.178 325.898C179.178 325.898 179.277 325.898 179.261 325.898C179.261 327.054 178.798 328.244 177.609 328.425C176.419 328.607 175.957 327.55 175.659 326.377C175.676 326.228 175.857 325.914 176.039 326.046Z" fill="#263238"/>
<path d="M161.815 341.807C162.195 342.303 162.575 342.963 163.252 343.112C163.949 343.182 164.653 343.103 165.317 342.881C165.317 342.881 165.433 342.881 165.317 342.996C165.003 343.328 164.606 343.568 164.167 343.693C163.728 343.818 163.264 343.823 162.823 343.707C162.452 343.562 162.133 343.311 161.907 342.984C161.68 342.657 161.556 342.271 161.551 341.873C161.518 341.757 161.666 341.741 161.815 341.807Z" fill="#263238"/>
<path d="M170.076 335.529C170.145 336.894 170.145 338.261 170.076 339.626C170.076 339.758 169.745 339.791 169.299 339.791C168.148 339.92 166.984 339.731 165.932 339.244C164.881 338.758 163.983 337.993 163.335 337.032C163.253 336.9 163.434 336.768 163.55 336.867C165.161 338.129 167.137 338.836 169.184 338.883C169.299 338.519 168.671 334.042 168.886 334.042C169.906 334.204 170.9 334.498 171.843 334.918C171.596 329.004 170.406 323.188 170.191 317.291C170.191 317.092 170.489 317.043 170.538 317.291C172.014 323.495 172.866 329.832 173.082 336.206C173.215 336.966 170.555 335.793 170.076 335.529Z" fill="#263238"/>
<path d="M168.523 339.081C167.786 339.988 166.831 340.693 165.747 341.129C165.147 341.329 164.498 341.329 163.897 341.129C162.559 340.749 162.559 339.477 162.823 338.47C162.976 337.897 163.192 337.343 163.467 336.818C164.864 338.098 166.637 338.892 168.523 339.081Z" fill="#263238"/>
<path d="M165.747 341.13C165.147 341.329 164.498 341.329 163.897 341.13C162.559 340.75 162.559 339.477 162.823 338.47C163.542 338.511 164.224 338.797 164.757 339.282C165.289 339.766 165.639 340.418 165.747 341.13Z" fill="#FF9ABB"/>
<path d="M134.028 328.062C137.084 327.913 145.146 319.587 145.592 304.801C145.592 304.801 144.303 318.018 143.296 319.984C142.288 321.95 147.806 315.292 148.252 303.463C151.981 306.186 156.081 308.361 160.427 309.923C166.044 311.575 169.48 311.575 169.893 311.145C170.306 310.716 162.03 308.039 159.832 305.446C159.832 305.446 174.701 312.566 181.623 313.161C182.432 313.161 183.556 296.822 172.95 289.735C162.344 282.648 145.361 289.999 140.768 294.344C140.768 294.344 135.432 295.038 129.534 302.868C123.636 310.699 130.724 328.277 134.028 328.062Z" fill="#263238"/>
<path d="M148.599 301.894C148.599 301.563 148.037 301.563 148.07 301.894C148.392 307.28 147.594 312.675 145.725 317.737C145.725 317.737 145.725 317.852 145.84 317.737C148.104 312.615 149.541 307.577 148.599 301.894Z" fill="#263238"/>
<path d="M167.746 311.988C159.734 310.947 152.878 308.353 147.542 302.075C147.516 302.056 147.486 302.045 147.454 302.045C147.422 302.044 147.391 302.054 147.365 302.073C147.339 302.091 147.32 302.117 147.31 302.148C147.3 302.178 147.3 302.21 147.31 302.241C151.655 309.13 159.899 312.021 167.713 312.335C167.878 312.285 167.911 312.004 167.746 311.988Z" fill="#263238"/>
<path d="M166.771 328.409L166.11 327.517C167.382 326.46 170.273 325.072 172.173 327.335L171.364 328.095C169.695 326.063 166.936 328.31 166.771 328.409Z" fill="#37474F"/>
<path d="M129.32 332.242L128.246 331.878C128.411 331.366 129.997 326.922 132.442 326.195C134.887 325.468 150.003 324.708 150.615 324.675V325.815C146.253 326.03 134.474 326.724 132.707 327.269C130.939 327.814 129.733 331.036 129.32 332.242Z" fill="#37474F"/>
<path d="M156.86 333.762C155.254 333.604 153.725 332.998 152.449 332.01C149.987 329.698 149.145 322.098 149.145 321.702V320.958L149.888 321.057C150.466 321.057 163.881 322.709 166.623 326.013C168.11 327.798 166.788 331.647 165.533 332.704C163.93 334.009 160.164 334.307 156.86 333.762ZM150.45 322.346C150.764 324.824 151.689 329.648 153.275 331.151C155.406 333.167 162.889 333.299 164.69 331.779C165.566 331.052 166.59 327.946 165.632 326.823C163.732 324.494 154.646 322.891 150.45 322.346Z" fill="#37474F"/>
<path d="M175.659 333.481C174.386 333.376 173.203 332.784 172.355 331.829C171.772 330.906 171.423 329.854 171.34 328.766C171.256 327.677 171.441 326.585 171.876 325.584C173.528 322.412 181.788 321.933 182.747 321.883H183.473L183.374 322.594C183.374 322.891 182.4 329.879 180.995 331.994C180.532 332.548 179.946 332.986 179.283 333.273C178.621 333.56 177.9 333.687 177.179 333.646C176.669 333.626 176.161 333.571 175.659 333.481ZM182.135 323.106C179.393 323.321 174.007 324.13 173.016 326.096C172.69 326.894 172.553 327.757 172.616 328.617C172.679 329.477 172.94 330.31 173.38 331.052C173.891 331.527 174.496 331.889 175.157 332.114C175.817 332.339 176.518 332.422 177.212 332.357C177.74 332.393 178.268 332.311 178.76 332.117C179.252 331.922 179.694 331.621 180.054 331.234C181.123 328.635 181.824 325.899 182.135 323.106Z" fill="#37474F"/>
<path d="M138.918 327.566C138.918 327.566 133.086 318.811 129.122 320.958C125.157 323.106 129.402 335.628 133.962 337.479C134.531 337.753 135.15 337.908 135.781 337.936C136.413 337.964 137.043 337.864 137.634 337.642C138.226 337.419 138.766 337.08 139.222 336.643C139.678 336.206 140.042 335.681 140.289 335.1L138.918 327.566Z" fill="#F7A9A0"/>
<path d="M130.427 324.46C130.427 324.46 130.427 324.543 130.427 324.576C133.615 325.964 135.234 328.987 136.358 332.109C136.178 331.781 135.929 331.496 135.629 331.274C135.328 331.052 134.983 330.897 134.617 330.822C134.25 330.746 133.872 330.752 133.508 330.837C133.144 330.922 132.803 331.086 132.508 331.316C132.508 331.316 132.508 331.515 132.508 331.498C133.078 331.323 133.688 331.333 134.252 331.526C134.816 331.719 135.304 332.085 135.647 332.572C136.229 333.381 136.722 334.251 137.118 335.166C137.25 335.446 137.778 335.314 137.679 334.984C137.688 334.957 137.688 334.928 137.679 334.901C137.894 330.788 134.838 324.973 130.427 324.46Z" fill="#263238"/>
<path d="M164.855 372.667L151.639 420.692C151.077 422.096 151.771 423.269 153.159 423.302L178.088 423.864C178.85 423.822 179.585 423.566 180.207 423.124C180.83 422.683 181.315 422.074 181.607 421.369L194.823 373.344C195.368 371.924 194.674 370.767 193.287 370.734L168.423 370.123C167.645 370.153 166.893 370.41 166.259 370.862C165.626 371.314 165.137 371.942 164.855 372.667Z" fill="#37474F"/>
<path d="M167.812 372.667L154.596 420.692C154.051 422.112 154.728 423.269 156.116 423.302L181.045 423.864C181.806 423.825 182.54 423.572 183.163 423.134C183.785 422.695 184.271 422.089 184.564 421.386L197.78 373.344C198.325 371.94 197.648 370.767 196.244 370.751L171.331 370.172C170.568 370.212 169.833 370.468 169.21 370.909C168.587 371.351 168.102 371.961 167.812 372.667Z" fill="#455A64"/>
<path d="M174.586 375.013C174.562 375.574 174.316 376.102 173.902 376.482C173.488 376.861 172.941 377.061 172.38 377.037C171.819 377.012 171.291 376.767 170.912 376.353C170.532 375.939 170.332 375.392 170.356 374.831C170.368 374.553 170.435 374.281 170.552 374.029C170.669 373.777 170.835 373.55 171.04 373.363C171.245 373.175 171.485 373.029 171.746 372.934C172.007 372.838 172.284 372.795 172.562 372.807C172.84 372.819 173.112 372.886 173.364 373.003C173.616 373.12 173.843 373.286 174.031 373.491C174.218 373.696 174.364 373.936 174.459 374.197C174.555 374.458 174.598 374.735 174.586 375.013Z" fill="#263238"/>
<path d="M75.0664 482.197C85.9864 483.221 99.1531 474.218 133.136 447.108C137.844 443.358 120.283 403.031 115.062 406.782C108.454 411.506 83.9379 431.265 82.3354 432.933C68.7391 447.009 67.6488 481.503 75.0664 482.197Z" fill="#F7A9A0"/>
<path d="M103.052 419.717C103.052 419.717 112.452 405.278 119.737 399.215C127.442 393.112 136.512 388.968 146.17 387.139C156.627 385.14 183.258 387.535 183.919 395.399C184.497 402.453 157.387 398.62 157.387 398.62C157.387 398.62 185.67 397.96 184.828 406.583C183.985 415.207 152.828 409.012 152.828 409.012C152.828 409.012 181.904 409.012 179.624 417.735C177.889 424.343 149.292 420.295 149.292 420.295C149.292 420.295 174.288 420.444 172.801 427.333C171.149 434.932 144.534 432.851 144.534 432.851C137.827 449.701 127.37 454.823 119.754 457.714C117.904 458.342 103.052 419.717 103.052 419.717Z" fill="#F7A9A0"/>
<path d="M147.673 398.158C150.977 397.96 154.281 397.745 157.685 397.844C161.088 397.943 164.293 398.158 167.597 398.554C171.925 399.005 176.187 399.947 180.301 401.363C172.817 399.38 160.923 398.852 157.586 398.753C154.248 398.654 150.977 398.389 147.673 398.29C147.591 398.29 147.591 398.174 147.673 398.158Z" fill="#263238"/>
<path d="M147.112 410.168C151.358 410.168 155.571 409.871 159.833 409.986C164.095 410.102 168.093 410.598 172.289 410.994C172.603 410.994 172.488 411.192 172.157 411.176C167.928 410.945 163.996 411.044 159.767 410.845C155.538 410.647 151.325 410.3 147.096 410.267C147.03 410.267 147.046 410.168 147.112 410.168Z" fill="#263238"/>
<path d="M144.766 420.378C151.283 420.124 157.809 420.534 164.244 421.6C164.558 421.6 164.376 421.832 164.046 421.815C157.586 421.286 152.481 420.824 144.783 420.609C144.667 420.576 144.634 420.394 144.766 420.378Z" fill="#263238"/>
<path d="M102.821 414.15L118.862 463.926C118.862 463.926 82.7158 487.352 74.2574 481.933C65.7989 476.514 69.929 447.24 78.7344 435.676C82.3523 430.901 102.821 414.15 102.821 414.15Z" fill="#EBEBEB"/>
<path d="M104.705 420.031L95.3705 420.361L96.3948 419.502L104.44 419.221L104.705 420.031ZM106.357 425.103L89.1258 425.714C88.7954 425.995 88.465 426.276 88.1511 426.573L106.588 425.929L106.357 425.103ZM108.24 430.984L82.3194 431.893L81.4438 432.752L108.504 431.81L108.24 430.984ZM110.14 436.882L77.099 438.038C76.9338 438.302 76.7686 438.583 76.6199 438.864L110.371 437.691L110.14 436.882ZM112.023 442.763L74.1749 444.085C74.0592 444.349 73.9601 444.63 73.861 444.911L112.287 443.573L112.023 442.763ZM113.906 448.661L72.1594 450.115C72.1594 450.395 71.9942 450.676 71.9281 450.957L114.171 449.487L113.906 448.661ZM115.806 454.542L70.7551 456.194L70.6065 457.02L116.054 455.368L115.806 454.542ZM117.69 460.44L69.8961 462.092C69.8961 462.373 69.8961 462.654 69.8961 462.918L118.02 461.266L117.69 460.44ZM69.6152 468.072C69.6152 468.353 69.6152 468.617 69.6152 468.882L113.279 467.362C113.791 467.064 114.253 466.767 114.699 466.486L69.6152 468.072ZM70.1274 474.003L70.276 474.829L102.111 473.706L103.763 472.83L70.1274 474.003ZM72.2089 479.868C72.3845 480.158 72.5893 480.429 72.8202 480.677L88.4154 480.132L90.6292 479.24L72.2089 479.868Z" fill="#DBDBDB"/>
<path d="M103.35 415.802L102.738 414.15H102.871C99.5664 417.156 96.0971 420.147 92.76 423.186C89.4229 426.226 86.1519 429.249 82.8478 432.438C81.2328 433.985 79.7259 435.641 78.3377 437.394C77.0108 439.179 75.8391 441.075 74.8354 443.06C72.8745 447.132 71.5644 451.485 70.9531 455.963C71.1165 451.401 72.1599 446.913 74.0259 442.747C74.9467 440.637 76.0992 438.637 77.4622 436.783C78.8612 434.966 80.3789 433.244 82.0053 431.628C85.3093 428.44 88.6134 425.417 92.0827 422.493C95.552 419.568 99.1039 416.776 102.771 414.1L102.871 414.018V414.133L103.35 415.802Z" fill="#263238"/>
<path d="M95.2214 427.003C96.1796 429.431 96.8735 431.959 97.7325 434.453C98.5916 436.948 99.3846 439.409 100.078 441.954C101.582 446.91 103.052 451.998 104.473 457.053C104.853 458.424 105.233 459.812 105.596 461.2C105.96 462.588 106.191 464.223 106.587 465.693C106.58 465.711 106.567 465.726 106.551 465.737C106.535 465.747 106.516 465.753 106.497 465.753C106.477 465.753 106.458 465.747 106.442 465.737C106.426 465.726 106.413 465.711 106.406 465.693C106.009 464.471 105.448 463.298 105.035 462.075C104.622 460.853 104.192 459.548 103.796 458.259C103.019 455.765 102.259 453.303 101.499 450.742C99.9958 445.786 98.509 440.715 97.1708 435.643C96.4109 432.785 95.5188 429.927 94.9736 427.019C94.9812 426.993 94.9966 426.97 95.0177 426.953C95.0389 426.936 95.0647 426.926 95.0918 426.924C95.1188 426.922 95.1458 426.929 95.169 426.943C95.1922 426.957 95.2105 426.978 95.2214 427.003Z" fill="#263238"/>
<path d="M118.863 463.926C119.127 464.405 119.094 464.008 119.028 463.711C118.962 463.413 118.284 461.001 117.69 459.515C117.69 459.349 117.376 459.085 117.491 459.647C117.875 461.096 118.332 462.524 118.863 463.926Z" fill="#263238"/>
<path d="M251.405 40.095C251.405 40.095 242.418 112.091 227.632 128.297C209.889 147.742 197.003 144.818 189.85 154.912C182.68 144.884 169.811 147.742 152.051 128.281C137.183 112.074 128.278 40.0785 128.278 40.0785C167.217 21.1791 189.899 0 189.899 0C190.544 0.660815 213.028 21.493 251.405 40.095Z" fill="#F9E006"/>
<path opacity="0.1" d="M251.405 40.095C251.405 40.095 242.417 112.091 227.632 128.297C209.889 147.742 197.003 144.818 189.85 154.912V0C190.543 0.660815 213.028 21.493 251.405 40.095Z" fill="black"/>
<path d="M137.827 45.8936C137.827 45.8936 145.427 106.722 157.899 120.417C172.916 136.855 183.787 134.443 189.85 142.918C195.896 134.443 206.783 136.855 221.784 120.417C234.273 106.722 241.856 45.8936 241.856 45.8936C208.947 29.9183 189.899 12.0103 189.899 12.0103C189.899 12.0103 170.719 29.9183 137.827 45.8936Z" fill="#F9E006"/>
<path opacity="0.2" d="M137.827 45.8936C137.827 45.8936 145.427 106.722 157.916 120.417C172.916 136.855 183.803 134.443 189.85 142.918V12.0103C189.85 12.0103 170.736 29.9183 137.827 45.8936Z" fill="white"/>
<path d="M205.429 68.824H174.222V97.1399H205.429V68.824Z" fill="white"/>
<path d="M202.323 77.5631H199.151V64.925C199.204 63.6695 199.002 62.4163 198.558 61.2407C198.115 60.0652 197.437 58.9915 196.568 58.0845C195.698 57.1774 194.654 56.4556 193.498 55.9625C192.342 55.4695 191.099 55.2153 189.842 55.2153C188.585 55.2153 187.342 55.4695 186.186 55.9625C185.03 56.4556 183.986 57.1774 183.116 58.0845C182.247 58.9915 181.569 60.0652 181.125 61.2407C180.681 62.4163 180.48 63.6695 180.533 64.925V77.5631H177.361V64.925C177.3 63.2478 177.577 61.5754 178.177 60.0079C178.777 58.4403 179.686 57.0097 180.851 55.8016C182.016 54.5934 183.413 53.6324 184.958 52.9761C186.502 52.3197 188.164 51.9814 189.842 51.9814C191.52 51.9814 193.181 52.3197 194.726 52.9761C196.271 53.6324 197.667 54.5934 198.832 55.8016C199.997 57.0097 200.907 58.4403 201.507 60.0079C202.106 61.5754 202.384 63.2478 202.323 64.925V77.5631Z" fill="white"/>
<path d="M191.155 83.3287L192.46 89.5404H186.926L188.231 83.3287C187.832 83.085 187.502 82.7427 187.274 82.3348C187.045 81.9268 186.925 81.4669 186.926 80.9993C186.92 80.514 187.041 80.0355 187.278 79.6117C187.514 79.1879 187.858 78.8336 188.274 78.584C188.691 78.3345 189.165 78.1985 189.651 78.1897C190.136 78.1808 190.615 78.2994 191.04 78.5336C191.465 78.7677 191.822 79.1093 192.074 79.5242C192.326 79.9391 192.464 80.4128 192.476 80.8981C192.487 81.3833 192.372 81.8631 192.14 82.2896C191.908 82.7161 191.569 83.0744 191.155 83.3287Z" fill="#37474F"/>
</g>
<defs>
<filter id="filter0_d_595_1709" x="0" y="0" width="592.008" height="715" filterUnits="userSpaceOnUse" color-interpolation-filters="sRGB">
<feFlood flood-opacity="0" result="BackgroundImageFix"/>
<feColorMatrix in="SourceAlpha" type="matrix" values="0 0 0 0 0 0 0 0 0 0 0 0 0 0 0 0 0 0 127 0" result="hardAlpha"/>
<feOffset dy="4"/>
<feGaussianBlur stdDeviation="2"/>
<feComposite in2="hardAlpha" operator="out"/>
<feColorMatrix type="matrix" values="0 0 0 0 0 0 0 0 0 0 0 0 0 0 0 0 0 0 0.25 0"/>
<feBlend mode="normal" in2="BackgroundImageFix" result="effect1_dropShadow_595_1709"/>
<feBlend mode="normal" in="SourceGraphic" in2="effect1_dropShadow_595_1709" result="shape"/>
</filter>
</defs>
</svg>
