<svg width="585" height="707" viewBox="0 0 585 707" fill="none" xmlns="http://www.w3.org/2000/svg">
<path d="M535.059 576H413.766L411.8 536.351H537.537L535.059 576ZM415.237 574.447H533.605L535.885 537.97H413.419L415.237 574.447Z" fill="#DBDBDB"/>
<path d="M485.481 508.382H463.839L462.485 497.792H486.836L485.481 508.382ZM465.211 506.813H484.11L485.068 499.345H464.253L465.211 506.813Z" fill="#DBDBDB"/>
<path d="M485.481 561.495H463.839L462.485 550.922H486.836L485.481 561.495ZM465.211 559.942H484.11L485.068 552.475H464.253L465.211 559.942Z" fill="#DBDBDB"/>
<path d="M423.166 594.057L421.234 607.818L417.335 635.473H409.735V594.057H423.166Z" fill="#EBEBEB"/>
<path d="M423.166 594.057L421.234 607.818H409.735V594.057H423.166Z" fill="#DBDBDB"/>
<path d="M367.807 511.62L346.132 512.083L335.13 512.264C331.445 512.347 327.745 512.264 324.061 512.363H323.334V511.62L323.235 493.134V492.308H324.061L345.934 492.407C353.219 492.407 360.521 492.605 367.807 492.688H368.269V493.134C368.269 496.273 368.137 499.395 368.055 502.468L367.807 511.62ZM367.807 511.62L367.576 502.286C367.493 499.197 367.394 496.157 367.361 493.134L367.807 493.58C360.521 493.662 353.219 493.844 345.934 493.86L324.061 493.96L324.887 493.134V511.62L324.143 510.877C327.745 510.877 331.346 510.877 334.964 510.976L345.835 511.157L367.807 511.62Z" fill="#EBEBEB"/>
<path d="M343.406 534.93L321.715 535.393L310.712 535.575C307.045 535.657 303.344 535.575 299.66 535.674H298.933V534.93V516.444V515.618H299.759L321.632 515.717C328.918 515.717 336.22 515.915 343.505 515.998H343.968V516.394C343.968 519.533 343.836 522.656 343.753 525.728L343.406 534.93ZM343.406 534.93L343.175 525.596C343.175 522.507 342.993 519.467 342.96 516.444L343.406 516.89C336.12 516.973 328.818 517.154 321.533 517.171L299.66 517.27L300.486 516.444L300.387 534.93L299.66 534.187C303.261 534.187 306.863 534.187 310.464 534.286L321.335 534.468L343.406 534.93Z" fill="#EBEBEB"/>
<path d="M319.105 511.62L297.413 512.083L286.411 512.264C282.727 512.347 279.043 512.264 275.359 512.363H274.615V511.62V493.134V492.308H275.458L297.331 492.407C304.616 492.407 311.902 492.605 319.204 492.688H319.65V493.134C319.65 496.273 319.501 499.395 319.435 502.468L319.105 511.62ZM319.105 511.62L318.857 502.286C318.857 499.197 318.675 496.157 318.642 493.134L319.105 493.58C311.803 493.662 304.517 493.844 297.232 493.86L275.359 493.96L276.168 493.134V511.62L275.441 510.877C279.043 510.877 282.628 510.877 286.246 510.976L297.116 511.157L319.105 511.62Z" fill="#EBEBEB"/>
<path d="M494.022 2.79175H214.729C207.167 2.86589 199.945 5.93857 194.648 11.3347C189.351 16.7308 186.413 24.009 186.479 31.5703V606.48C186.437 610.23 187.135 613.952 188.533 617.432C189.93 620.912 192 624.083 194.623 626.764C197.247 629.444 200.373 631.581 203.823 633.053C207.272 634.524 210.978 635.302 214.729 635.341H494.022C501.588 635.267 508.815 632.195 514.12 626.801C519.425 621.406 522.375 614.128 522.322 606.562V31.6529C522.363 27.8984 521.663 24.1727 520.263 20.689C518.862 17.2054 516.788 14.0322 514.159 11.3513C511.531 8.67039 508.399 6.53438 504.944 5.06559C501.488 3.59681 497.777 2.82411 494.022 2.79175ZM504.628 588.72C504.628 603.853 493.312 616.094 479.319 616.094H229.481C215.472 616.094 204.123 603.853 204.123 588.72V53.3606C204.123 22.5336 215.472 21.0303 229.481 21.0303H279.538C282.446 21.0303 284.825 24.3343 284.825 28.4314V30.1991C284.825 39.7974 290.078 39.8304 296.505 39.8304H412.23C418.739 39.8304 423.959 39.8304 423.959 30.1991V28.4314C423.959 24.3343 426.305 21.0303 429.279 21.0303H479.303C493.295 21.0303 504.612 25.1273 504.612 53.3606L504.628 588.72Z" fill="#263238"/>
<path d="M504.645 53.3607V588.72C504.645 603.853 493.312 616.095 479.352 616.095H229.498C215.472 616.095 204.156 603.853 204.156 588.72V53.3607C204.156 22.5336 215.472 21.0303 229.498 21.0303H279.555C282.446 21.0303 284.841 24.3343 284.841 28.4314V30.1991C284.841 39.7974 290.078 39.8305 296.538 39.8305H412.18C418.789 39.8305 423.926 39.8305 423.926 30.1991V28.4314C423.926 24.3343 426.272 21.0303 429.213 21.0303H479.27C493.312 21.0303 504.645 25.1273 504.645 53.3607Z" fill="white"/>
<path d="M370.185 27.8532H338.615C338.359 27.8532 338.105 27.8027 337.869 27.7048C337.632 27.6068 337.418 27.4632 337.237 27.2822C337.055 27.1012 336.912 26.8863 336.814 26.6498C336.716 26.4132 336.666 26.1598 336.666 25.9038C336.666 25.6478 336.716 25.3943 336.814 25.1577C336.912 24.9212 337.055 24.7063 337.237 24.5253C337.418 24.3443 337.632 24.2007 337.869 24.1027C338.105 24.0048 338.359 23.9543 338.615 23.9543H370.185C370.441 23.9543 370.695 24.0048 370.931 24.1027C371.168 24.2007 371.383 24.3443 371.564 24.5253C371.745 24.7063 371.888 24.9212 371.986 25.1577C372.084 25.3943 372.135 25.6478 372.135 25.9038C372.135 26.1598 372.084 26.4132 371.986 26.6498C371.888 26.8863 371.745 27.1012 371.564 27.2822C371.383 27.4632 371.168 27.6068 370.931 27.7048C370.695 27.8027 370.441 27.8532 370.185 27.8532Z" fill="#37474F"/>
<path d="M270.898 33.0572L270.419 33.5362L270.138 33.8171C269.529 33.2012 268.804 32.713 268.004 32.3811C267.204 32.0492 266.345 31.8802 265.479 31.8842C264.613 31.8765 263.753 32.0437 262.953 32.3758C262.152 32.7079 261.427 33.1981 260.821 33.8171C260.721 33.8171 260.639 33.6354 260.556 33.5528L260.077 33.0737L260.688 32.5285C261.122 32.1671 261.599 31.8618 262.109 31.6199C262.704 31.3369 263.331 31.1262 263.976 30.9921L264.918 30.8765H265.744H266.371C266.937 30.9432 267.493 31.082 268.023 31.2895C268.429 31.4374 268.822 31.6198 269.196 31.8346C269.592 32.0534 269.963 32.3137 270.303 32.6111L270.815 33.0572H270.898Z" fill="white"/>
<path d="M262.341 35.3369L261.581 34.577C262.411 33.7244 263.506 33.1773 264.686 33.0241C265.532 32.8944 266.396 32.9659 267.208 33.2328C268.02 33.4998 268.758 33.9547 269.362 34.5605L268.602 35.3369C268.196 34.9208 267.71 34.5908 267.173 34.3666C266.637 34.1424 266.061 34.0285 265.479 34.0318C264.896 34.03 264.318 34.1445 263.779 34.3686C263.24 34.5927 262.751 34.9219 262.341 35.3369Z" fill="white"/>
<path d="M267.842 36.0969L267.082 36.8568C266.655 36.4351 266.08 36.1986 265.48 36.1986C264.88 36.1986 264.304 36.4351 263.877 36.8568C263.613 36.609 263.365 36.3612 263.117 36.0969C263.425 35.7822 263.792 35.5321 264.198 35.3614C264.604 35.1907 265.039 35.1028 265.48 35.1028C265.92 35.1028 266.355 35.1907 266.761 35.3614C267.167 35.5321 267.534 35.7822 267.842 36.0969Z" fill="white"/>
<path d="M266.157 37.5508C266.157 37.7304 266.085 37.9027 265.958 38.0297C265.831 38.1568 265.659 38.2281 265.479 38.2281C265.389 38.2303 265.299 38.2144 265.215 38.1814C265.131 38.1483 265.054 38.0988 264.99 38.0357C264.925 37.9725 264.874 37.8971 264.839 37.8139C264.804 37.7306 264.786 37.6411 264.786 37.5508C264.786 37.3668 264.859 37.1903 264.989 37.0601C265.119 36.93 265.295 36.8569 265.479 36.8569C265.57 36.8569 265.659 36.875 265.743 36.91C265.826 36.9451 265.901 36.9965 265.964 37.0611C266.027 37.1258 266.077 37.2024 266.11 37.2865C266.143 37.3706 266.159 37.4605 266.157 37.5508Z" fill="white"/>
<path d="M223.732 34.5275C223.729 34.1314 223.843 33.7433 224.061 33.4124C224.278 33.0815 224.59 32.8227 224.954 32.6689C225.319 32.5151 225.722 32.4731 226.111 32.5484C226.5 32.6236 226.857 32.8127 227.139 33.0916C227.42 33.3705 227.612 33.7266 227.69 34.1148C227.769 34.503 227.73 34.9058 227.579 35.272C227.429 35.6383 227.172 35.9514 226.843 36.1718C226.514 36.3922 226.127 36.5099 225.731 36.5099C225.204 36.5099 224.698 36.3016 224.323 35.9303C223.949 35.559 223.736 35.0547 223.732 34.5275Z" fill="white"/>
<path d="M230.01 34.5275C230.007 34.1314 230.121 33.7433 230.339 33.4124C230.556 33.0815 230.867 32.8227 231.232 32.6689C231.597 32.5151 232 32.4731 232.389 32.5484C232.777 32.6236 233.135 32.8127 233.416 33.0916C233.698 33.3705 233.89 33.7266 233.968 34.1148C234.047 34.503 234.008 34.9058 233.857 35.272C233.706 35.6383 233.45 35.9514 233.121 36.1718C232.792 36.3922 232.405 36.5099 232.009 36.5099C231.482 36.5099 230.976 36.3016 230.601 35.9303C230.227 35.559 230.014 35.0547 230.01 34.5275Z" fill="white"/>
<path d="M236.288 34.5274C236.284 34.1306 236.399 33.7419 236.618 33.4106C236.836 33.0794 237.148 32.8206 237.514 32.6673C237.88 32.5139 238.283 32.473 238.673 32.5496C239.062 32.6262 239.419 32.8169 239.7 33.0974C239.981 33.378 240.171 33.7357 240.248 34.125C240.325 34.5143 240.284 34.9176 240.13 35.2835C239.977 35.6494 239.718 35.9614 239.387 36.1798C239.056 36.3982 238.667 36.5131 238.27 36.5098C237.746 36.5055 237.244 36.2953 236.873 35.9244C236.502 35.5536 236.292 35.0518 236.288 34.5274Z" fill="white"/>
<path d="M242.565 34.5274C242.562 34.1306 242.677 33.7419 242.895 33.4106C243.114 33.0794 243.426 32.8206 243.792 32.6673C244.158 32.5139 244.561 32.473 244.95 32.5496C245.34 32.6262 245.697 32.8169 245.978 33.0974C246.258 33.378 246.449 33.7357 246.526 34.125C246.602 34.5143 246.561 34.9176 246.408 35.2835C246.255 35.6494 245.996 35.9614 245.665 36.1798C245.333 36.3982 244.945 36.5131 244.548 36.5098C244.023 36.5055 243.522 36.2953 243.151 35.9244C242.78 35.5536 242.57 35.0518 242.565 34.5274Z" fill="white"/>
<path d="M248.827 34.5275C248.823 34.1314 248.938 33.7433 249.156 33.4124C249.373 33.0815 249.684 32.8227 250.049 32.6689C250.414 32.5151 250.817 32.4731 251.205 32.5484C251.594 32.6236 251.952 32.8127 252.233 33.0916C252.514 33.3705 252.706 33.7266 252.785 34.1148C252.863 34.503 252.825 34.9058 252.674 35.272C252.523 35.6383 252.267 35.9514 251.938 36.1718C251.609 36.3922 251.222 36.5099 250.826 36.5099C250.298 36.5099 249.792 36.3016 249.418 35.9303C249.044 35.559 248.831 35.0547 248.827 34.5275Z" fill="white"/>
<path d="M482.111 38.9548H465.888V31.3555H482.111V38.9548ZM466.714 38.1288H481.285V32.1815H466.747L466.714 38.1288Z" fill="white"/>
<path d="M477.7 32.6274H467.243V37.5836H477.7V32.6274Z" fill="white"/>
<path d="M483.548 33.1067H482.111V37.1211H483.548V33.1067Z" fill="white"/>
<path d="M288.608 162.296V247.508H302.7V162.296H288.608ZM292.738 243.907H291.631V165.898H292.738V243.907ZM296.207 243.907H295.084V165.898H296.207V243.907ZM299.677 243.907H298.553V165.898H299.677V243.907Z" fill="#EBEBEB"/>
<path d="M306.301 158.414H285.006V162.313H306.301V158.414Z" fill="#EBEBEB"/>
<path d="M306.301 247.492H285.006V251.391H306.301V247.492Z" fill="#EBEBEB"/>
<path d="M319.154 162.296V247.508H333.246V162.296H319.154ZM323.3 243.907H322.177V165.898H323.3V243.907ZM326.77 243.907H325.646V165.898H326.77V243.907ZM330.222 243.907H329.116V165.898H330.222V243.907Z" fill="#EBEBEB"/>
<path d="M336.848 158.414H315.553V162.313H336.848V158.414Z" fill="#EBEBEB"/>
<path d="M336.848 247.492H315.553V251.391H336.848V247.492Z" fill="#EBEBEB"/>
<path d="M375.538 162.296V247.508H389.646V162.296H375.538ZM379.685 243.907H378.561V165.898H379.685V243.907ZM383.154 243.907H382.031V165.898H383.154V243.907ZM386.607 243.907H385.5V165.898H386.607V243.907Z" fill="#EBEBEB"/>
<path d="M393.231 158.414H371.937V162.313H393.231V158.414Z" fill="#EBEBEB"/>
<path d="M393.231 247.492H371.937V251.391H393.231V247.492Z" fill="#EBEBEB"/>
<path d="M406.101 162.296V247.508H420.192V162.296H406.101ZM410.231 243.907H409.124V165.898H410.231V243.907ZM413.7 243.907H412.593V165.898H413.7V243.907ZM417.169 243.907H416.046V165.898H417.186L417.169 243.907Z" fill="#EBEBEB"/>
<path d="M423.794 158.414H402.5V162.313H423.794V158.414Z" fill="#EBEBEB"/>
<path d="M423.794 247.492H402.5V251.391H423.794V247.492Z" fill="#EBEBEB"/>
<path d="M429.675 152.912H279.108V158.414H429.675V152.912Z" fill="#EBEBEB"/>
<path d="M279.108 152.912H429.675V154.052L279.108 154.73V152.912Z" fill="#EBEBEB"/>
<path d="M429.675 251.39H279.108V256.892H429.675V251.39Z" fill="#EBEBEB"/>
<path d="M279.108 255.273L429.675 256.082V256.908H279.108V255.273Z" fill="#EBEBEB"/>
<path d="M433.822 256.892H274.979V262.393H433.822V256.892Z" fill="#EBEBEB"/>
<path d="M438.415 148.27V152.912H270.386V148.27L354.392 104.392L438.415 148.27Z" fill="#EBEBEB"/>
<path d="M426.239 148.303C378.247 148.551 326.571 149.261 278.695 149.261L282.132 147.461C300.238 138.077 336.236 119.293 354.408 109.992C375.455 121.226 405.522 137.433 426.255 148.386L426.239 148.303ZM426.239 148.303C405.291 137.4 375.273 122.416 354.028 111.479H354.755L318.889 130.329L283.007 149.129L282.561 147.362C328.818 147.362 379.751 148.072 426.288 148.303H426.239Z" fill="#EBEBEB"/>
<path d="M441.339 316.844H267.462V342.038H441.339V316.844Z" fill="#EBEBEB"/>
<path d="M292.655 316.844H267.462V342.038H292.655V316.844Z" fill="#F9E006"/>
<path d="M282.462 327.351C282.462 327.828 282.321 328.295 282.056 328.691C281.791 329.088 281.414 329.397 280.973 329.58C280.532 329.762 280.047 329.81 279.58 329.717C279.112 329.624 278.682 329.394 278.345 329.057C278.007 328.719 277.778 328.29 277.685 327.822C277.591 327.354 277.639 326.869 277.822 326.428C278.004 325.987 278.313 325.611 278.71 325.346C279.107 325.081 279.573 324.939 280.05 324.939C280.368 324.937 280.682 324.998 280.976 325.118C281.269 325.239 281.536 325.416 281.761 325.641C281.985 325.865 282.163 326.132 282.283 326.426C282.403 326.719 282.464 327.034 282.462 327.351Z" fill="white"/>
<path d="M284.23 333.959H275.887C275.954 332.898 276.423 331.903 277.197 331.175C277.972 330.447 278.996 330.042 280.059 330.042C281.122 330.042 282.145 330.447 282.92 331.175C283.695 331.903 284.163 332.898 284.23 333.959Z" fill="white"/>
<path d="M441.339 356.724H267.462V381.918H441.339V356.724Z" fill="#EBEBEB"/>
<path d="M307.97 366.356C306.402 368.719 304.374 370.742 302.006 372.303C303.578 369.943 305.606 367.921 307.97 366.356Z" fill="#A6A6A6"/>
<path d="M302.006 366.356C304.37 367.921 306.398 369.943 307.97 372.303C305.598 370.747 303.569 368.723 302.006 366.356Z" fill="#A6A6A6"/>
<path d="M309.192 369.363C306.417 369.924 303.558 369.924 300.783 369.363C303.558 368.801 306.417 368.801 309.192 369.363Z" fill="#A6A6A6"/>
<path d="M304.979 365.117C305.549 367.896 305.549 370.763 304.979 373.542C304.418 370.762 304.418 367.897 304.979 365.117Z" fill="#A6A6A6"/>
<path d="M322.475 366.356C320.913 368.718 318.89 370.741 316.527 372.303C318.094 369.944 320.116 367.922 322.475 366.356Z" fill="#A6A6A6"/>
<path d="M316.527 366.356C318.89 367.917 320.913 369.94 322.475 372.303C320.112 370.741 318.089 368.718 316.527 366.356Z" fill="#A6A6A6"/>
<path d="M323.713 369.363C320.933 369.924 318.068 369.924 315.288 369.363C318.068 368.801 320.933 368.801 323.713 369.363Z" fill="#A6A6A6"/>
<path d="M319.501 365.117C320.062 367.897 320.062 370.762 319.501 373.542C318.939 370.762 318.939 367.897 319.501 365.117Z" fill="#A6A6A6"/>
<path d="M336.996 366.356C335.434 368.718 333.412 370.741 331.049 372.303C332.611 369.94 334.633 367.917 336.996 366.356Z" fill="#A6A6A6"/>
<path d="M331.049 366.356C333.408 367.922 335.43 369.944 336.996 372.303C334.633 370.741 332.611 368.718 331.049 366.356Z" fill="#A6A6A6"/>
<path d="M338.235 369.363C335.455 369.924 332.59 369.924 329.81 369.363C332.59 368.801 335.455 368.801 338.235 369.363Z" fill="#A6A6A6"/>
<path d="M334.022 365.117C334.584 367.897 334.584 370.762 334.022 373.542C333.461 370.762 333.461 367.897 334.022 365.117Z" fill="#A6A6A6"/>
<path d="M351.518 366.356C349.955 368.723 347.925 370.747 345.554 372.303C347.126 369.943 349.153 367.921 351.518 366.356Z" fill="#A6A6A6"/>
<path d="M345.554 366.356C347.918 367.921 349.945 369.943 351.518 372.303C349.15 370.742 347.121 368.719 345.554 366.356Z" fill="#A6A6A6"/>
<path d="M352.757 369.363C349.982 369.924 347.122 369.924 344.348 369.363C347.122 368.801 349.982 368.801 352.757 369.363Z" fill="#A6A6A6"/>
<path d="M348.544 365.117C349.105 367.897 349.105 370.762 348.544 373.542C347.974 370.763 347.974 367.896 348.544 365.117Z" fill="#A6A6A6"/>
<path d="M292.655 356.724H267.462V381.918H292.655V356.724Z" fill="#F9E006"/>
<path d="M282.875 366.62V369.66H282.016V366.62C282.041 366.348 282.009 366.074 281.922 365.814C281.835 365.555 281.695 365.317 281.511 365.115C281.327 364.913 281.102 364.752 280.852 364.642C280.602 364.531 280.332 364.474 280.058 364.474C279.785 364.474 279.515 364.531 279.265 364.642C279.015 364.752 278.79 364.913 278.606 365.115C278.422 365.317 278.282 365.555 278.195 365.814C278.108 366.074 278.076 366.348 278.101 366.62V369.66H277.242V366.62C277.212 366.232 277.263 365.842 277.391 365.475C277.519 365.107 277.721 364.77 277.986 364.485C278.25 364.199 278.571 363.971 278.928 363.816C279.284 363.66 279.669 363.579 280.058 363.579C280.448 363.579 280.833 363.66 281.189 363.816C281.546 363.971 281.866 364.199 282.131 364.485C282.395 364.77 282.598 365.107 282.726 365.475C282.854 365.842 282.905 366.232 282.875 366.62Z" fill="white"/>
<path d="M276.135 368.537V375.046H283.982V368.537H276.135ZM280.711 373.311H279.323L279.654 371.758C279.553 371.695 279.47 371.607 279.413 371.503C279.355 371.399 279.324 371.282 279.323 371.163C279.323 370.979 279.396 370.803 279.526 370.673C279.657 370.543 279.833 370.47 280.017 370.47C280.201 370.47 280.378 370.543 280.508 370.673C280.638 370.803 280.711 370.979 280.711 371.163C280.71 371.282 280.679 371.399 280.622 371.503C280.564 371.607 280.481 371.695 280.381 371.758L280.711 373.311Z" fill="white"/>
<path d="M575.682 613.782H478.905V635.159H575.682V613.782Z" fill="#F9E006"/>
<g opacity="0.1">
<path opacity="0.1" d="M482.903 615.748C484.035 621.391 484.035 627.203 482.903 632.846C481.763 627.204 481.763 621.39 482.903 615.748Z" fill="black"/>
<path opacity="0.1" d="M490.106 615.748C491.237 621.391 491.237 627.203 490.106 632.846C488.974 627.203 488.974 621.391 490.106 615.748Z" fill="black"/>
<path opacity="0.1" d="M493.625 615.748C494.765 621.39 494.765 627.204 493.625 632.846C492.493 627.203 492.493 621.391 493.625 615.748Z" fill="black"/>
<path opacity="0.1" d="M513.003 615.748C514.143 621.39 514.143 627.204 513.003 632.846C511.871 627.203 511.871 621.391 513.003 615.748Z" fill="black"/>
<path opacity="0.1" d="M518.19 615.748C519.322 621.391 519.322 627.203 518.19 632.846C517.05 627.204 517.05 621.39 518.19 615.748Z" fill="black"/>
<path opacity="0.1" d="M539.799 615.748C540.939 621.39 540.939 627.204 539.799 632.846C538.667 627.203 538.667 621.391 539.799 615.748Z" fill="black"/>
<path opacity="0.1" d="M544.805 615.748C545.936 621.391 545.936 627.203 544.805 632.846C543.665 627.204 543.665 621.39 544.805 615.748Z" fill="black"/>
<path opacity="0.1" d="M553.974 615.748C555.105 621.391 555.105 627.203 553.974 632.846C552.842 627.203 552.842 621.391 553.974 615.748Z" fill="black"/>
<path opacity="0.1" d="M535.636 615.748C536.767 621.391 536.767 627.203 535.636 632.846C534.496 627.204 534.496 621.39 535.636 615.748Z" fill="black"/>
<path opacity="0.1" d="M500.018 615.748C501.15 621.391 501.15 627.203 500.018 632.846C498.878 627.204 498.878 621.39 500.018 615.748Z" fill="black"/>
<path opacity="0.1" d="M525.063 615.748C526.203 621.39 526.203 627.204 525.063 632.846C523.931 627.203 523.931 621.391 525.063 615.748Z" fill="black"/>
<path opacity="0.1" d="M528.664 615.748C529.804 621.39 529.804 627.204 528.664 632.846C527.533 627.203 527.533 621.391 528.664 615.748Z" fill="black"/>
<path opacity="0.1" d="M565.869 615.748C567 621.391 567 627.203 565.869 632.846C564.729 627.204 564.729 621.39 565.869 615.748Z" fill="black"/>
<path opacity="0.1" d="M571.336 615.748C572.468 621.391 572.468 627.203 571.336 632.846C570.196 627.204 570.196 621.39 571.336 615.748Z" fill="black"/>
<path opacity="0.1" d="M558.236 615.748C559.368 621.391 559.368 627.203 558.236 632.846C557.096 627.204 557.096 621.39 558.236 615.748Z" fill="black"/>
<path opacity="0.1" d="M508.774 615.748C509.914 621.39 509.914 627.204 508.774 632.846C507.642 627.203 507.642 621.391 508.774 615.748Z" fill="black"/>
</g>
<path opacity="0.1" d="M575.682 613.782V618.325L478.905 621.381V613.782H575.682Z" fill="black"/>
<path d="M569.073 592.404H472.297V613.782H569.073V592.404Z" fill="#F9E006"/>
<g opacity="0.1">
<path opacity="0.1" d="M476.278 594.354C477.419 600.002 477.419 605.821 476.278 611.469C475.147 605.82 475.147 600.003 476.278 594.354Z" fill="black"/>
<path opacity="0.1" d="M483.482 594.354C484.622 600.002 484.622 605.821 483.482 611.469C482.35 605.82 482.35 600.003 483.482 594.354Z" fill="black"/>
<path opacity="0.1" d="M487.017 594.354C488.148 600.003 488.148 605.82 487.017 611.469C485.877 605.821 485.877 600.002 487.017 594.354Z" fill="black"/>
<path opacity="0.1" d="M506.395 594.354C507.535 600.002 507.535 605.821 506.395 611.469C505.263 605.82 505.263 600.003 506.395 594.354Z" fill="black"/>
<path opacity="0.1" d="M511.566 594.354C512.698 600.003 512.698 605.82 511.566 611.469C510.434 605.82 510.434 600.003 511.566 594.354Z" fill="black"/>
<path opacity="0.1" d="M533.191 594.354C534.323 600.003 534.323 605.82 533.191 611.469C532.051 605.821 532.051 600.002 533.191 594.354Z" fill="black"/>
<path opacity="0.1" d="M538.18 594.354C539.32 600.002 539.32 605.821 538.18 611.469C537.049 605.82 537.049 600.003 538.18 594.354Z" fill="black"/>
<path opacity="0.1" d="M547.349 594.354C548.489 600.002 548.489 605.821 547.349 611.469C546.217 605.82 546.217 600.003 547.349 594.354Z" fill="black"/>
<path opacity="0.1" d="M529.011 594.354C530.143 600.003 530.143 605.82 529.011 611.469C527.871 605.821 527.871 600.002 529.011 594.354Z" fill="black"/>
<path opacity="0.1" d="M493.394 594.354C494.534 600.002 494.534 605.821 493.394 611.469C492.262 605.82 492.262 600.003 493.394 594.354Z" fill="black"/>
<path opacity="0.1" d="M518.439 594.354C519.579 600.002 519.579 605.821 518.439 611.469C517.307 605.82 517.307 600.003 518.439 594.354Z" fill="black"/>
<path opacity="0.1" d="M522.056 594.354C523.188 600.003 523.188 605.82 522.056 611.469C520.916 605.821 520.916 600.002 522.056 594.354Z" fill="black"/>
<path opacity="0.1" d="M559.26 594.354C560.4 600.002 560.4 605.821 559.26 611.469C558.128 605.82 558.128 600.003 559.26 594.354Z" fill="black"/>
<path opacity="0.1" d="M564.712 594.354C565.852 600.002 565.852 605.821 564.712 611.469C563.58 605.82 563.58 600.003 564.712 594.354Z" fill="black"/>
<path opacity="0.1" d="M551.611 594.354C552.752 600.002 552.752 605.821 551.611 611.469C550.48 605.82 550.48 600.003 551.611 594.354Z" fill="black"/>
<path opacity="0.1" d="M502.166 594.354C503.298 600.003 503.298 605.82 502.166 611.469C501.026 605.821 501.026 600.002 502.166 594.354Z" fill="black"/>
</g>
<path opacity="0.1" d="M569.057 592.404V596.947L472.28 600.004V592.404H569.057Z" fill="black"/>
<path d="M584.008 549.798H487.231V571.175H584.008V549.798Z" fill="#F9E006"/>
<g opacity="0.1">
<path opacity="0.1" d="M491.23 551.764C492.37 557.412 492.37 563.231 491.23 568.879C490.098 563.23 490.098 557.413 491.23 551.764Z" fill="black"/>
<path opacity="0.1" d="M498.433 551.764C499.573 557.412 499.573 563.231 498.433 568.879C497.301 563.23 497.301 557.413 498.433 551.764Z" fill="black"/>
<path opacity="0.1" d="M501.968 551.764C503.1 557.413 503.1 563.23 501.968 568.879C500.828 563.231 500.828 557.412 501.968 551.764Z" fill="black"/>
<path opacity="0.1" d="M521.264 551.764C522.404 557.412 522.404 563.231 521.264 568.879C520.132 563.23 520.132 557.413 521.264 551.764Z" fill="black"/>
<path opacity="0.1" d="M526.517 551.764C527.649 557.413 527.649 563.23 526.517 568.879C525.386 563.23 525.386 557.413 526.517 551.764Z" fill="black"/>
<path opacity="0.1" d="M548.142 551.764C549.274 557.413 549.274 563.23 548.142 568.879C547.002 563.231 547.002 557.412 548.142 551.764Z" fill="black"/>
<path opacity="0.1" d="M553.132 551.764C554.272 557.412 554.272 563.231 553.132 568.879C552 563.23 552 557.413 553.132 551.764Z" fill="black"/>
<path opacity="0.1" d="M562.3 551.764C563.44 557.412 563.44 563.231 562.3 568.879C561.168 563.23 561.168 557.413 562.3 551.764Z" fill="black"/>
<path opacity="0.1" d="M543.962 551.764C545.094 557.413 545.094 563.23 543.962 568.879C542.822 563.231 542.822 557.412 543.962 551.764Z" fill="black"/>
<path opacity="0.1" d="M508.345 551.764C509.485 557.412 509.485 563.231 508.345 568.879C507.213 563.23 507.213 557.413 508.345 551.764Z" fill="black"/>
<path opacity="0.1" d="M533.39 551.764C534.53 557.412 534.53 563.231 533.39 568.879C532.258 563.23 532.258 557.413 533.39 551.764Z" fill="black"/>
<path opacity="0.1" d="M537.008 551.764C538.139 557.413 538.139 563.23 537.008 568.879C535.859 563.232 535.859 557.411 537.008 551.764Z" fill="black"/>
<path opacity="0.1" d="M574.261 551.764C575.401 557.412 575.401 563.231 574.261 568.879C573.129 563.23 573.129 557.413 574.261 551.764Z" fill="black"/>
<path opacity="0.1" d="M579.663 551.764C580.803 557.412 580.803 563.231 579.663 568.879C578.532 563.23 578.532 557.413 579.663 551.764Z" fill="black"/>
<path opacity="0.1" d="M566.563 551.764C567.703 557.412 567.703 563.231 566.563 568.879C565.431 563.23 565.431 557.413 566.563 551.764Z" fill="black"/>
<path opacity="0.1" d="M517.117 551.764C518.249 557.413 518.249 563.23 517.117 568.879C515.977 563.231 515.977 557.412 517.117 551.764Z" fill="black"/>
</g>
<path opacity="0.1" d="M584.008 549.815V554.358L487.231 557.398V549.815H584.008Z" fill="black"/>
<path d="M581.579 528.421H484.803V549.798H581.579V528.421Z" fill="#F9E006"/>
<g opacity="0.1">
<path opacity="0.1" d="M577.218 547.485C576.086 541.842 576.086 536.03 577.218 530.387C578.358 536.029 578.358 541.843 577.218 547.485Z" fill="black"/>
<path opacity="0.1" d="M570.015 547.485C568.883 541.842 568.883 536.03 570.015 530.387C571.155 536.029 571.155 541.843 570.015 547.485Z" fill="black"/>
<path opacity="0.1" d="M566.496 547.485C565.365 541.842 565.365 536.03 566.496 530.387C567.628 536.03 567.628 541.842 566.496 547.485Z" fill="black"/>
<path opacity="0.1" d="M547.167 547.485C546.035 541.842 546.035 536.03 547.167 530.387C548.307 536.029 548.307 541.843 547.167 547.485Z" fill="black"/>
<path opacity="0.1" d="M541.947 547.485C540.807 541.843 540.807 536.029 541.947 530.387C543.079 536.03 543.079 541.842 541.947 547.485Z" fill="black"/>
<path opacity="0.1" d="M520.322 547.485C519.182 541.843 519.182 536.029 520.322 530.387C521.454 536.03 521.454 541.842 520.322 547.485Z" fill="black"/>
<path opacity="0.1" d="M515.316 547.485C514.184 541.842 514.184 536.03 515.316 530.387C516.456 536.029 516.456 541.843 515.316 547.485Z" fill="black"/>
<path opacity="0.1" d="M506.147 547.485C505.015 541.842 505.015 536.03 506.147 530.387C507.287 536.029 507.287 541.843 506.147 547.485Z" fill="black"/>
<path opacity="0.1" d="M524.567 547.485C523.427 541.843 523.427 536.029 524.567 530.387C525.699 536.03 525.699 541.842 524.567 547.485Z" fill="black"/>
<path opacity="0.1" d="M560.103 547.485C558.971 541.842 558.971 536.03 560.103 530.387C561.243 536.029 561.243 541.843 560.103 547.485Z" fill="black"/>
<path opacity="0.1" d="M535.058 547.485C533.926 541.842 533.926 536.03 535.058 530.387C536.198 536.029 536.198 541.843 535.058 547.485Z" fill="black"/>
<path opacity="0.1" d="M531.457 547.485C530.325 541.842 530.325 536.03 531.457 530.387C532.588 536.03 532.588 541.842 531.457 547.485Z" fill="black"/>
<path opacity="0.1" d="M494.187 547.485C493.055 541.842 493.055 536.03 494.187 530.387C495.327 536.029 495.327 541.843 494.187 547.485Z" fill="black"/>
<path opacity="0.1" d="M488.784 547.485C487.653 541.842 487.653 536.03 488.784 530.387C489.924 536.029 489.924 541.843 488.784 547.485Z" fill="black"/>
<path opacity="0.1" d="M501.885 547.485C500.753 541.842 500.753 536.03 501.885 530.387C503.025 536.029 503.025 541.843 501.885 547.485Z" fill="black"/>
<path opacity="0.1" d="M551.347 547.485C550.207 541.843 550.207 536.029 551.347 530.387C552.479 536.03 552.479 541.842 551.347 547.485Z" fill="black"/>
</g>
<path opacity="0.1" d="M581.563 528.421V532.964L484.787 536.02V528.421H581.563Z" fill="black"/>
<path d="M575.682 507.043H478.905V528.421H575.682V507.043Z" fill="#F9E006"/>
<g opacity="0.1">
<path opacity="0.1" d="M482.903 508.993C484.035 514.642 484.035 520.459 482.903 526.108C481.763 520.46 481.763 514.641 482.903 508.993Z" fill="black"/>
<path opacity="0.1" d="M490.106 508.993C491.246 514.641 491.246 520.46 490.106 526.108C488.974 520.459 488.974 514.642 490.106 508.993Z" fill="black"/>
<path opacity="0.1" d="M493.625 508.993C494.765 514.641 494.765 520.46 493.625 526.108C492.493 520.459 492.493 514.642 493.625 508.993Z" fill="black"/>
<path opacity="0.1" d="M513.003 508.993C514.143 514.641 514.143 520.46 513.003 526.108C511.871 520.459 511.871 514.642 513.003 508.993Z" fill="black"/>
<path opacity="0.1" d="M518.19 508.993C519.322 514.642 519.322 520.459 518.19 526.108C517.05 520.46 517.05 514.641 518.19 508.993Z" fill="black"/>
<path opacity="0.1" d="M539.799 508.993C540.939 514.641 540.939 520.46 539.799 526.108C538.659 520.46 538.659 514.641 539.799 508.993Z" fill="black"/>
<path opacity="0.1" d="M544.805 508.993C545.936 514.642 545.936 520.459 544.805 526.108C543.665 520.46 543.665 514.641 544.805 508.993Z" fill="black"/>
<path opacity="0.1" d="M553.974 508.993C555.114 514.641 555.114 520.46 553.974 526.108C552.842 520.459 552.842 514.642 553.974 508.993Z" fill="black"/>
<path opacity="0.1" d="M535.636 508.993C536.767 514.642 536.767 520.459 535.636 526.108C534.496 520.46 534.496 514.641 535.636 508.993Z" fill="black"/>
<path opacity="0.1" d="M500.018 508.993C501.15 514.642 501.15 520.459 500.018 526.108C498.878 520.46 498.878 514.641 500.018 508.993Z" fill="black"/>
<path opacity="0.1" d="M525.063 508.993C526.203 514.641 526.203 520.46 525.063 526.108C523.931 520.459 523.931 514.642 525.063 508.993Z" fill="black"/>
<path opacity="0.1" d="M528.664 508.993C529.804 514.641 529.804 520.46 528.664 526.108C527.533 520.459 527.533 514.642 528.664 508.993Z" fill="black"/>
<path opacity="0.1" d="M565.869 508.993C567 514.642 567 520.459 565.869 526.108C564.729 520.46 564.729 514.641 565.869 508.993Z" fill="black"/>
<path opacity="0.1" d="M571.337 508.993C572.477 514.641 572.477 520.46 571.337 526.108C570.205 520.459 570.205 514.642 571.337 508.993Z" fill="black"/>
<path opacity="0.1" d="M558.236 508.993C559.368 514.642 559.368 520.459 558.236 526.108C557.096 520.46 557.096 514.641 558.236 508.993Z" fill="black"/>
<path opacity="0.1" d="M508.774 508.993C509.914 514.641 509.914 520.46 508.774 526.108C507.642 520.459 507.642 514.642 508.774 508.993Z" fill="black"/>
</g>
<path opacity="0.1" d="M575.682 507.043V511.587L478.905 514.643V507.043H575.682Z" fill="black"/>
<path d="M575.682 571.192H478.905V592.569H575.682V571.192Z" fill="#F9E006"/>
<g opacity="0.1">
<path opacity="0.1" d="M571.337 590.257C570.205 584.608 570.205 578.791 571.337 573.142C572.469 578.791 572.469 584.608 571.337 590.257Z" fill="black"/>
<path opacity="0.1" d="M564.216 590.257C563.076 584.609 563.076 578.79 564.216 573.142C565.348 578.791 565.348 584.608 564.216 590.257Z" fill="black"/>
<path opacity="0.1" d="M560.615 590.257C559.475 584.609 559.475 578.79 560.615 573.142C561.746 578.791 561.746 584.608 560.615 590.257Z" fill="black"/>
<path opacity="0.1" d="M541.286 590.257C540.146 584.609 540.146 578.79 541.286 573.142C542.417 578.791 542.417 584.608 541.286 590.257Z" fill="black"/>
<path opacity="0.1" d="M536.132 590.257C535 584.608 535 578.791 536.132 573.142C537.272 578.79 537.272 584.609 536.132 590.257Z" fill="black"/>
<path opacity="0.1" d="M514.424 590.257C513.292 584.608 513.292 578.791 514.424 573.142C515.564 578.79 515.564 584.609 514.424 590.257Z" fill="black"/>
<path opacity="0.1" d="M509.435 590.257C508.303 584.608 508.303 578.791 509.435 573.142C510.566 578.791 510.566 584.608 509.435 590.257Z" fill="black"/>
<path opacity="0.1" d="M500.266 590.257C499.126 584.609 499.126 578.79 500.266 573.142C501.397 578.791 501.397 584.608 500.266 590.257Z" fill="black"/>
<path opacity="0.1" d="M518.604 590.257C517.472 584.608 517.472 578.791 518.604 573.142C519.744 578.79 519.744 584.609 518.604 590.257Z" fill="black"/>
<path opacity="0.1" d="M554.304 590.257C553.164 584.609 553.164 578.79 554.304 573.142C555.436 578.791 555.436 584.608 554.304 590.257Z" fill="black"/>
<path opacity="0.1" d="M529.176 590.257C528.036 584.609 528.036 578.79 529.176 573.142C530.308 578.791 530.308 584.608 529.176 590.257Z" fill="black"/>
<path opacity="0.1" d="M525.575 590.257C524.435 584.609 524.435 578.79 525.575 573.142C526.707 578.791 526.707 584.608 525.575 590.257Z" fill="black"/>
<path opacity="0.1" d="M488.305 590.257C487.174 584.608 487.174 578.791 488.305 573.142C489.437 578.791 489.437 584.608 488.305 590.257Z" fill="black"/>
<path opacity="0.1" d="M482.903 590.257C481.763 584.609 481.763 578.79 482.903 573.142C484.035 578.791 484.035 584.608 482.903 590.257Z" fill="black"/>
<path opacity="0.1" d="M496.004 590.257C494.872 584.608 494.872 578.791 496.004 573.142C497.135 578.791 497.135 584.608 496.004 590.257Z" fill="black"/>
<path opacity="0.1" d="M545.449 590.257C544.318 584.608 544.318 578.791 545.449 573.142C546.589 578.79 546.589 584.609 545.449 590.257Z" fill="black"/>
</g>
<path opacity="0.1" d="M575.682 571.192V575.735L478.905 578.792V571.192H575.682Z" fill="black"/>
<path d="M472.727 543.57C536.429 555.002 519.595 649.383 455.793 637.934C391.992 626.486 408.925 532.121 472.727 543.57Z" fill="#F9E006"/>
<path opacity="0.1" d="M472.727 543.57C536.429 555.002 519.595 649.383 455.793 637.934C391.992 626.486 408.925 532.121 472.727 543.57Z" fill="black"/>
<path d="M466.746 542.496C527.459 553.4 510.624 647.764 449.813 636.861C389.001 625.957 405.935 531.593 466.746 542.496Z" fill="#F9E006"/>
<path opacity="0.1" d="M419.779 591.892C420.093 608.71 429.889 624.933 451.267 628.832C501.72 637.885 515.696 559.562 465.309 550.525C464.979 550.525 464.648 550.41 464.318 550.376C511.566 559.826 498.019 633.953 449.912 625.313C430.286 621.794 420.82 607.256 419.779 591.892Z" fill="black"/>
<g opacity="0.1">
<path opacity="0.1" d="M463.525 560.305C463.933 560.418 464.282 560.683 464.5 561.046C464.719 561.408 464.789 561.841 464.698 562.254L464.054 564.848C468.176 566.228 471.794 568.804 474.445 572.249C474.66 572.461 474.821 572.722 474.913 573.01C475.005 573.298 475.026 573.604 474.974 573.901C474.92 574.119 474.823 574.324 474.688 574.503C474.553 574.682 474.383 574.832 474.188 574.943C473.994 575.055 473.778 575.125 473.555 575.151C473.333 575.176 473.107 575.156 472.892 575.091C472.673 575.05 472.465 574.963 472.282 574.834C472.1 574.706 471.947 574.54 471.835 574.347C469.654 571.348 466.646 569.052 463.178 567.739L458.651 585.912C467.969 590.438 471.19 595.163 469.621 601.507C467.969 608.379 460.931 611.799 452.77 610.031L451.515 615.087C451.402 615.495 451.137 615.844 450.774 616.062C450.411 616.28 449.979 616.351 449.565 616.26C449.16 616.143 448.815 615.877 448.6 615.515C448.385 615.152 448.317 614.721 448.409 614.31L449.681 609.189C444.36 607.433 439.781 603.943 436.679 599.277C436.421 599.015 436.258 598.676 436.215 598.311C436.171 597.947 436.251 597.578 436.44 597.264C436.629 596.949 436.918 596.707 437.261 596.575C437.603 596.443 437.98 596.428 438.331 596.534C438.549 596.581 438.754 596.671 438.936 596.798C439.117 596.926 439.271 597.089 439.389 597.278C441.965 601.475 445.9 604.664 450.54 606.314L455.182 587.861C446.013 583.301 442.891 578.742 444.493 572.266C446.096 565.79 453.068 562.155 461.014 564.006L461.642 561.544C461.74 561.137 461.99 560.783 462.339 560.553C462.689 560.323 463.112 560.235 463.525 560.305ZM455.959 584.557L460.37 566.88C454.059 565.443 448.987 568.169 447.814 572.828C446.724 577.238 448.111 580.476 455.959 584.557ZM457.825 589.216L453.365 607.091C459.874 608.578 465.028 605.868 466.251 600.945C467.358 596.485 465.772 593.197 457.825 589.216Z" fill="black"/>
</g>
<path d="M46.0218 634.631C46.0218 634.631 102.968 661.509 177.64 661.509C257.02 661.509 295.513 635.655 295.513 635.655C353.483 590.141 359.463 522.689 318.112 481.817C293.084 457.037 274.796 462.075 244.531 458.143H244.432C233.741 457.016 223.342 453.966 213.737 449.14C182.579 432.702 165.002 393.912 138.8 361.301C135.496 357.204 132.071 353.234 128.525 349.39C107.048 326.377 64.0951 325.633 41.6108 357.997C-15.368 440.202 -13.7655 562.651 46.0218 634.631Z" fill="#F9E006"/>
<g opacity="0.1">
<path opacity="0.1" d="M46.0218 634.631C46.0218 634.631 102.968 661.509 177.64 661.509C257.02 661.509 295.513 635.655 295.513 635.655C353.483 590.141 359.463 522.689 318.112 481.817C293.084 457.037 274.796 462.075 244.531 458.143H244.432C233.741 457.016 223.342 453.966 213.737 449.14C182.579 432.702 165.002 393.912 138.8 361.301C135.496 357.204 132.071 353.234 128.525 349.39C107.048 326.377 64.0951 325.633 41.6108 357.997C-15.368 440.202 -13.7655 562.651 46.0218 634.631Z" fill="black"/>
</g>
<path opacity="0.1" d="M205.295 568.318C129.218 587.019 59.6346 544.33 53.4064 446.48C48.8137 374.831 99.7791 340.997 138.833 361.284C165.068 393.896 182.629 432.685 213.786 449.123C223.395 453.943 233.792 456.998 244.481 458.143H244.58L247.802 458.54C282.478 480.248 264.372 553.796 205.295 568.318Z" fill="black"/>
<path d="M272.731 703.075C268.948 702.166 179.589 645.815 177.54 641.52C176.764 639.868 184.149 626.387 193.664 610.346C195.713 606.876 197.844 603.308 200.025 599.706C214.183 576.248 229.761 551.698 229.761 551.698L289.615 589.084L258.226 636.051L251.354 646.377C251.354 646.377 275.952 683.25 277.687 688.206C279.422 693.162 276.514 703.917 272.731 703.075Z" fill="#F7A9A0"/>
<path d="M272.731 703.075C268.948 702.166 179.606 645.815 177.541 641.52C176.847 640.082 182.497 629.427 190.41 615.913C193.797 621.431 245.225 668.778 262.604 673.635C269.708 675.634 259.135 658.304 258.672 657.578C266.057 668.877 276.547 685.15 277.654 688.322C279.405 693.162 276.514 703.917 272.731 703.075Z" fill="#263238"/>
<path d="M259.663 658.916C259.663 658.916 251.932 651.663 236.535 657.363L259.663 658.916Z" fill="#263238"/>
<path d="M332.172 514.874C325.563 543.124 263.364 636.167 263.364 636.167L199.48 594.866L245.373 528.041C245.373 528.041 155.883 536.037 122.33 520.706C86.5134 504.367 93.1051 461.068 93.1051 461.068L181.753 453.237C181.753 453.237 183.835 461.629 193.797 461.15C228.077 459.498 274.747 462.257 292.589 464.735C315.602 467.973 338.218 488.97 332.172 514.874Z" fill="#37474F"/>
<path d="M266.189 504.83C264.068 506.786 262.075 508.878 260.225 511.091C258.176 513.289 256.095 515.469 254.046 517.699C254.426 517.022 254.806 516.361 255.219 515.7C256.59 513.437 257.747 511.075 259.316 508.944C259.336 508.917 259.344 508.884 259.34 508.852C259.335 508.819 259.318 508.79 259.292 508.77C259.265 508.75 259.232 508.742 259.2 508.747C259.167 508.751 259.138 508.769 259.118 508.795C257.466 510.91 255.682 512.892 254.261 515.139C253.6 516.196 252.956 517.27 252.345 518.443C252.014 519.038 251.667 519.632 251.37 520.26C251.238 520.541 251.056 520.838 250.94 521.136C250.032 522.16 249.107 523.201 248.215 524.242C246.249 526.587 244.464 529.082 242.465 531.395C242.366 531.51 242.565 531.659 242.664 531.544C244.663 529.379 246.876 527.397 248.892 525.249C250.907 523.102 252.939 520.822 254.905 518.542C256.871 516.262 258.689 514.081 260.588 511.851C262.663 509.688 264.594 507.392 266.37 504.979C266.37 504.83 266.271 504.83 266.189 504.83Z" fill="#263238"/>
<path d="M268.006 621.018C266.354 619.68 264.57 618.441 262.835 617.185L257.681 613.501C254.146 610.99 250.561 608.545 246.992 606.1C239.822 601.144 232.586 596.369 225.351 591.546C221.287 588.836 217.173 586.21 213.109 583.533C213.026 583.533 212.927 583.616 212.993 583.665C219.91 588.743 226.876 593.754 233.892 598.699C241.012 603.655 248.182 608.611 255.467 613.402C257.483 614.724 259.515 616.029 261.563 617.317C263.645 618.622 265.71 619.994 267.874 621.183C267.957 621.233 268.089 621.1 268.006 621.018Z" fill="#263238"/>
<path d="M105.082 464.157C103.842 475.714 107.063 487.308 114.086 496.57C117.632 501.066 122.013 504.836 126.988 507.671C132.005 510.42 137.425 512.36 143.046 513.421C154.303 515.675 165.722 517.034 177.194 517.485C188.758 518.046 200.174 518.03 211.639 517.485C223.115 517.06 234.554 515.912 245.886 514.048C248.711 513.553 251.519 512.991 254.294 512.297C255.682 511.95 257.053 511.587 258.424 511.157C259.804 510.643 261.232 510.272 262.687 510.05C263.479 509.946 264.285 510.013 265.049 510.249C265.478 510.382 265.864 510.624 266.171 510.951C266.478 511.278 266.695 511.679 266.8 512.115C266.904 512.514 266.943 512.927 266.916 513.338C266.878 513.756 266.766 514.165 266.586 514.544C266.288 515.238 265.941 515.882 265.594 516.526C264.19 519.054 262.637 521.482 261.084 523.927C248.529 543.223 235.131 561.924 221.716 580.625C228.324 571.176 234.828 561.688 241.227 552.161C247.686 542.645 254.146 533.129 260.291 523.415C261.811 520.97 263.331 518.459 264.686 516.031C265.027 515.42 265.336 514.791 265.611 514.147C265.753 513.882 265.837 513.589 265.859 513.288C265.91 512.988 265.91 512.68 265.859 512.38C265.627 511.207 264.207 510.959 262.868 511.124C261.481 511.343 260.119 511.702 258.804 512.198C257.417 512.628 256.029 513.008 254.625 513.354C251.816 514.065 248.991 514.643 246.15 515.155C234.778 517.072 223.295 518.258 211.771 518.707C200.207 519.186 188.642 519.17 177.21 518.575C165.679 518.109 154.207 516.678 142.914 514.296C137.218 513.168 131.737 511.144 126.674 508.299C121.646 505.38 117.235 501.508 113.689 496.9C110.208 492.261 107.696 486.969 106.305 481.338C104.84 475.735 104.426 469.91 105.082 464.157Z" fill="#263238"/>
<path d="M188.196 706.808C184.694 705.156 109.031 631.393 107.924 626.767C107.494 625.016 117.588 613.369 130.177 599.641C132.903 596.667 135.728 593.627 138.619 590.554C157.336 570.565 177.673 549.782 177.673 549.782L228.424 598.996L187.982 638.414L179.11 647.071C179.11 647.071 195.449 688.256 196.126 693.46C196.804 698.664 191.715 708.493 188.196 706.808Z" fill="#F7A9A0"/>
<path d="M188.196 706.792C184.694 705.14 109.03 631.409 107.923 626.767C107.543 625.214 115.341 615.979 125.832 604.398C127.979 610.494 168.438 667.49 184.413 675.882C190.938 679.318 184.198 660.171 183.917 659.362C188.774 671.95 195.647 690.04 196.06 693.377C196.77 698.614 191.715 708.493 188.196 706.792Z" fill="#263238"/>
<path d="M184.595 660.964C184.595 660.964 178.548 652.258 162.259 654.62L184.595 660.964Z" fill="#263238"/>
<path d="M292.324 520.31C285.716 548.543 207.112 624.19 198.026 632.863L195.961 634.829L142.055 584.276L142.815 583.483L186.23 538.498C186.23 538.498 120.876 558.422 94.3769 517.6C83.8369 501.361 93.0222 461.067 93.0222 461.067L164.225 455.071C164.225 455.071 165.068 467.263 175.013 466.784C209.309 465.131 236.287 463.479 254.179 465.957C277.274 469.179 298.371 494.389 292.324 520.31Z" fill="#37474F"/>
<path d="M176.946 466.701C199.017 465.264 221.138 464.107 243.292 464.818C246.051 464.933 248.826 465.082 251.552 465.33C254.335 465.554 257.096 465.99 259.812 466.635C261.171 467.024 262.497 467.521 263.777 468.122C265.049 468.684 266.305 469.295 267.527 469.956C269.993 471.275 272.356 472.777 274.598 474.449C279.124 477.758 283.071 481.794 286.278 486.393C291.153 493.326 293.809 501.576 293.894 510.051C293.894 510.744 293.894 511.455 293.894 512.149C293.894 512.843 293.894 513.553 293.778 514.263C293.624 515.667 293.37 517.059 293.018 518.426C291.48 523.788 289.259 528.929 286.41 533.724C280.744 543.266 274.313 552.332 267.18 560.834C260.175 569.408 252.791 577.652 245.225 585.73C237.658 593.809 229.811 601.607 221.898 609.322C229.662 601.458 237.328 593.479 244.778 585.317C252.229 577.156 259.531 568.797 266.453 560.24C273.459 551.715 279.805 542.669 285.435 533.179C288.233 528.458 290.42 523.401 291.944 518.129C292.28 516.821 292.517 515.491 292.655 514.148C292.762 512.79 292.795 511.428 292.754 510.067C292.702 507.34 292.392 504.624 291.829 501.956C290.67 496.624 288.476 491.572 285.369 487.087C282.246 482.583 278.4 478.625 273.987 475.374C271.8 473.73 269.492 472.256 267.081 470.963C265.875 470.303 264.653 469.691 263.397 469.146C262.174 468.559 260.903 468.078 259.597 467.709C256.941 467.066 254.241 466.625 251.519 466.387C248.776 466.123 246.018 465.925 243.259 465.792C232.24 465.28 221.171 465.379 210.119 465.594C199.067 465.809 187.998 466.139 176.946 466.701Z" fill="#263238"/>
<path d="M209.904 511.818C207.787 513.784 205.795 515.881 203.94 518.096C201.892 520.293 199.81 522.474 197.762 524.704L198.935 522.705C200.306 520.458 201.462 518.096 203.048 515.965C203.131 515.833 202.932 515.684 202.85 515.816C201.198 517.931 199.414 519.897 197.976 522.16C197.316 523.217 196.671 524.291 196.06 525.381C195.73 525.976 195.399 526.587 195.085 527.199C194.953 527.48 194.771 527.777 194.656 528.074C193.747 529.115 192.839 530.139 191.946 531.197C189.964 533.526 188.18 536.021 186.181 538.333C186.082 538.466 186.28 538.598 186.379 538.482C188.378 536.318 190.592 534.335 192.624 532.204C194.656 530.073 196.655 527.76 198.621 525.497C200.587 523.234 202.404 521.02 204.304 518.889C206.374 516.717 208.305 514.416 210.086 512C210.098 511.988 210.107 511.974 210.114 511.958C210.12 511.943 210.123 511.926 210.123 511.909C210.123 511.892 210.12 511.875 210.114 511.86C210.107 511.844 210.098 511.83 210.086 511.818C210.074 511.806 210.06 511.797 210.044 511.79C210.029 511.784 210.012 511.781 209.995 511.781C209.978 511.781 209.961 511.784 209.946 511.79C209.93 511.797 209.916 511.806 209.904 511.818Z" fill="#263238"/>
<path d="M203.428 622.125C202.024 620.473 200.471 619.002 198.967 617.466C197.464 615.93 196.01 614.459 194.507 612.956C191.451 609.9 188.328 606.893 185.222 603.886C178.978 597.823 172.65 591.859 166.34 585.879C162.804 582.575 159.186 579.271 155.618 575.967C155.618 575.967 155.42 575.967 155.486 576.082C161.466 582.245 167.463 588.374 173.559 594.42C179.655 600.467 185.982 606.596 192.343 612.592C194.11 614.245 195.911 615.897 197.712 617.549C199.512 619.201 201.346 620.853 203.263 622.422C203.345 622.372 203.494 622.257 203.428 622.125Z" fill="#263238"/>
<path d="M102.538 465.264C101.064 471.428 100.414 477.761 100.605 484.097C100.718 490.412 102.018 496.65 104.438 502.484C106.917 508.279 110.983 513.256 116.167 516.84C121.429 520.284 127.418 522.461 133.663 523.201C139.906 524.068 146.22 524.317 152.512 523.944C158.821 523.622 165.108 522.96 171.346 521.962C183.844 520.008 196.192 517.193 208.302 513.536L208.764 513.404L208.946 513.801C209.656 515.362 210.065 517.043 210.152 518.757C210.259 520.422 210.108 522.093 209.706 523.713C209.285 525.323 208.658 526.873 207.839 528.322C206.951 529.705 205.969 531.024 204.898 532.27C200.719 537.226 196.225 541.869 191.682 546.511C187.139 551.153 182.612 555.713 178.003 560.223C173.394 564.733 168.768 569.243 164.093 573.704C168.675 569.144 173.212 564.557 177.706 559.942C182.216 555.316 186.709 550.691 191.153 546.015C195.597 541.34 199.992 536.615 204.089 531.659C205.105 530.44 206.037 529.154 206.881 527.81C207.608 526.435 208.163 524.976 208.533 523.465C209.312 520.437 209.068 517.237 207.839 514.362L208.483 514.627C196.339 518.361 183.945 521.232 171.395 523.217C165.107 524.2 158.77 524.845 152.413 525.15C146.047 525.494 139.662 525.218 133.349 524.324C126.958 523.561 120.838 521.296 115.49 517.716C110.218 513.976 106.112 508.822 103.645 502.848C101.249 496.917 100.031 490.576 100.06 484.18C100.048 477.793 100.881 471.432 102.538 465.264Z" fill="#263238"/>
<path d="M133.035 465.297C132.275 468.601 131.383 471.905 130.292 475.126C129.533 478.11 128.198 480.916 126.36 483.387C124.43 485.53 122.026 487.193 119.339 488.244C117.802 488.919 116.224 489.499 114.614 489.978C112.965 490.419 111.348 490.971 109.774 491.63C109.711 491.666 109.662 491.72 109.631 491.785C109.6 491.85 109.591 491.923 109.604 491.993C109.616 492.064 109.651 492.129 109.702 492.179C109.753 492.23 109.819 492.263 109.89 492.275C111.692 492.298 113.489 492.098 115.242 491.68C116.928 491.349 118.586 490.885 120.198 490.292C123.169 489.193 125.809 487.35 127.864 484.939C129.819 482.296 131.157 479.247 131.779 476.018C132.675 472.562 133.228 469.026 133.431 465.462C133.453 465.409 133.453 465.35 133.432 465.298C133.41 465.245 133.368 465.203 133.316 465.181C133.263 465.159 133.204 465.159 133.151 465.181C133.099 465.202 133.057 465.244 133.035 465.297Z" fill="#263238"/>
<path d="M158.393 287.802C158.393 287.802 144.566 278.616 131.036 285.555C117.505 292.494 109.774 311.723 110.616 328.508C111.459 345.293 97.0697 355.073 94.5916 367.248C92.1136 379.424 99.7295 385.784 101.91 392.458C104.405 400.107 89.8172 425.317 120.942 434.007C159.88 444.878 177.012 421.799 174.633 401.346C173.46 391.335 168.504 383.868 169.247 375.905C169.991 367.942 176.169 362.061 174.055 351.703C171.94 341.344 167.942 342.418 167.645 326.41C167.347 310.402 172.171 291.717 158.393 287.802Z" fill="#263238"/>
<path d="M133.811 285.406C124.962 290.123 117.772 297.44 113.21 306.371C110.93 310.797 109.395 315.57 108.667 320.496C107.726 326.922 108.221 333.068 105.363 339.147C100.688 348.878 92.279 356.642 91.7338 367.86C91.4758 373.095 92.7073 378.296 95.2857 382.86C98.2924 388.196 102.836 392.591 105.198 398.241C105.297 398.488 105.661 398.241 105.561 398.092C103.579 393.136 100.011 389.072 97.1525 384.496C93.6774 379.145 92.1275 372.771 92.7581 366.422C93.931 355.8 102.208 348.25 106.553 338.833C108.297 334.68 109.201 330.221 109.212 325.716C109.418 320.287 110.535 314.932 112.516 309.873C116.845 299.707 124.305 291.187 133.811 285.555C133.811 285.555 133.894 285.357 133.811 285.406Z" fill="#263238"/>
<path d="M174.715 398.439C174.121 393.598 171.989 389.072 171.411 384.248C170.684 378.449 172.601 372.882 174.154 367.364C176.351 359.484 176.797 351.917 173.889 344.103C172.006 339.048 169.611 334.191 168.322 329.004C166.932 323.299 166.376 317.422 166.67 311.558C166.67 311.426 166.472 311.409 166.472 311.558C165.622 320.022 166.753 328.569 169.776 336.52C171.56 341.196 173.889 345.64 174.732 350.596C175.756 356.543 174.732 362.16 173.212 367.909C172.043 371.726 171.225 375.641 170.767 379.606C170.652 383.643 171.273 387.668 172.601 391.484C175.587 401.511 174.636 412.3 169.941 421.65C169.858 421.815 170.156 421.964 170.255 421.799C174.126 414.662 175.684 406.499 174.715 398.439Z" fill="#263238"/>
<path d="M93.65 365.695C94.7238 356.956 101.315 351.504 105.644 344.219C108.948 338.718 111.327 332.737 110.93 326.327C110.93 326.228 110.732 326.245 110.732 326.327C110.451 335.529 105.925 343.509 100.225 350.761C96.4419 355.585 93.237 360.26 92.7083 366.389C92.1797 372.518 94.1621 377.656 97.1854 382.91C99.333 386.66 101.464 390.162 102.141 394.474C102.601 398.771 102.434 403.111 101.646 407.36C101.646 407.575 101.976 407.591 102.009 407.36C103.133 400.851 103.661 394.49 100.935 388.213C97.5323 380.448 92.5596 374.567 93.65 365.695Z" fill="#263238"/>
<path d="M176.748 392.343C175.581 389.245 174.127 386.264 172.403 383.438C169.462 378.234 169.231 374.187 170.751 368.421C170.751 368.289 170.586 368.223 170.536 368.339C168.521 373.03 167.81 377.012 170.305 381.687C173.791 388.295 177.227 394.177 177.442 401.644C177.822 414.86 169.396 426.523 156.824 432.19C156.659 432.19 156.824 432.504 156.956 432.438C162.031 430.595 166.574 427.529 170.181 423.513C173.789 419.496 176.351 414.651 177.64 409.408C178.927 403.747 178.618 397.839 176.748 392.343Z" fill="#263238"/>
<path d="M164.159 365.266C200.273 394.457 234.04 426.722 237.477 443.936C242.234 467.775 227.812 475.225 221.204 475.655C203.18 476.795 166.488 405.526 153.603 378.185C141.08 351.769 156.163 358.856 164.159 365.266Z" fill="#EBEBEB"/>
<path d="M162.92 364.291L148.927 364.787C148.927 364.506 148.927 364.242 148.845 363.977L161.846 363.515L162.92 364.291ZM169 369.247L150.15 369.908C150.249 370.172 150.332 370.437 150.431 370.718L169.974 370.04L169 369.247ZM175.889 374.963L152.446 375.773C152.578 376.037 152.694 376.318 152.826 376.599L176.83 375.756L175.889 374.963ZM182.579 380.679L155.205 381.621L155.585 382.447L183.488 381.472C183.191 381.158 182.893 380.927 182.596 380.646L182.579 380.679ZM189.188 386.395L158.096 387.486L158.509 388.295L190.08 387.188L189.188 386.395ZM195.548 392.128L161.02 393.334L161.417 394.143L196.407 392.921L195.548 392.128ZM201.71 397.861L163.994 399.182C164.143 399.446 164.275 399.711 164.407 399.992L202.553 398.654L201.71 397.861ZM207.657 403.61L167.05 405.03C167.182 405.311 167.331 405.576 167.48 405.84L208.467 404.403L207.657 403.61ZM213.34 409.359L170.156 410.862L170.586 411.672L214.117 410.152L213.34 409.359ZM218.742 415.124L173.344 416.776L173.791 417.586L219.453 415.934L218.742 415.124ZM223.781 420.906L176.616 422.559C176.764 422.823 176.913 423.104 177.078 423.368L224.442 421.716L223.781 420.906ZM228.357 426.689L179.969 428.341L180.432 429.15L228.952 427.498C228.721 427.184 228.523 426.936 228.308 426.656L228.357 426.689ZM232.388 432.504L183.438 434.156L183.918 434.965L232.884 433.313L232.388 432.504ZM235.593 438.335L187.023 439.988C187.189 440.268 187.37 440.533 187.535 440.797L235.94 439.145C235.823 438.857 235.691 438.576 235.544 438.302L235.593 438.335ZM237.576 444.217L190.757 445.869C190.939 446.133 191.12 446.397 191.286 446.678L237.724 445.026C237.642 444.745 237.576 444.465 237.526 444.184L237.576 444.217ZM238.369 450.148L194.722 451.667C194.904 451.948 195.102 452.213 195.284 452.477L238.418 450.957L238.369 450.148ZM198.935 457.466C199.133 457.747 199.348 458.011 199.546 458.276L238.22 456.921C238.22 456.657 238.22 456.376 238.319 456.095L198.935 457.466ZM203.577 463.265L204.254 464.058L236.799 462.918L237.097 462.092L203.577 463.265ZM208.979 469.03C209.26 469.311 209.557 469.576 209.838 469.823L233.346 468.997L234.007 468.155L208.979 469.03ZM216.777 474.713C217.457 475.026 218.165 475.275 218.891 475.457L223.616 475.292C224.509 475.057 225.381 474.754 226.226 474.383L216.777 474.713Z" fill="#DBDBDB"/>
<path d="M192.128 460.621L185.9 430.34C185.9 430.34 197.464 417.322 190.641 404.502C187.205 398.009 164.374 366.505 152.644 358.955C141.576 351.785 129.103 358.674 124.692 367.116C113.541 388.444 103.116 412.861 98.375 464.669L192.128 460.621Z" fill="#EBEBEB"/>
<path d="M152.231 358.724L131.762 359.434C132.226 359.117 132.705 358.825 133.2 358.559L150.86 357.947C151.336 358.171 151.795 358.43 152.231 358.724ZM158.377 363.68L126.146 364.82C125.931 365.101 125.749 365.381 125.567 365.662L159.219 364.473L158.377 363.68ZM164.027 369.429L122.726 370.883L122.296 371.725L164.721 370.238L164.027 369.429ZM169.099 375.211L119.818 376.896L119.422 377.722L169.809 375.971L169.099 375.211ZM173.856 380.993L117.026 382.976L116.646 383.818L174.468 381.803L173.856 380.993ZM178.383 386.792L114.499 389.022L114.168 389.865L178.994 387.535L178.383 386.792ZM182.711 392.591L112.235 395.052L111.921 395.895L183.29 393.4L182.711 392.591ZM186.792 398.389L110.187 401.082C110.088 401.363 110.005 401.627 109.922 401.908L187.354 399.1L186.792 398.389ZM190.707 404.551L190.525 404.221L108.353 407.095C108.353 407.376 108.204 407.657 108.122 407.938L190.955 405.03L190.707 404.551ZM192.607 410.102L106.701 413.092C106.701 413.373 106.552 413.638 106.486 413.935L192.69 410.912C192.69 410.664 192.64 410.317 192.607 410.053V410.102ZM105.28 419.056C105.28 419.337 105.148 419.618 105.082 419.882L192.508 416.826C192.508 416.562 192.607 416.281 192.64 416L105.28 419.056ZM103.975 425.053C103.975 425.334 103.86 425.598 103.81 425.879L190.625 422.839L190.971 422.013L103.975 425.053ZM102.819 431.033C102.819 431.314 102.72 431.595 102.654 431.876L187.089 428.919L187.684 428.076L102.819 431.033ZM186.726 434.057L101.794 437.096C101.794 437.377 101.695 437.642 101.662 437.922L186.891 434.949L186.726 434.057ZM187.932 439.971L100.869 443.011C100.869 443.292 100.869 443.556 100.754 443.837L188.097 440.781L187.932 439.971ZM189.121 445.885L99.9937 448.991L99.8946 449.817L189.237 446.695L189.121 445.885ZM190.327 451.783L99.3494 454.972L99.2503 455.798L190.492 452.609L190.327 451.783ZM191.533 457.697L98.7217 461.001C98.7217 461.282 98.7217 461.563 98.7217 461.844L191.781 458.54L191.533 457.697Z" fill="#DBDBDB"/>
<path d="M171.494 427.019C166.638 427.758 161.844 428.862 157.154 430.323C154.841 431.067 152.578 431.975 150.315 432.834C149.175 433.28 148.035 433.693 146.895 434.106C145.707 434.561 144.471 434.877 143.211 435.048C143.095 435.048 143.112 435.213 143.211 435.213C144.411 435.202 145.609 435.109 146.796 434.932C147.915 434.711 149.018 434.419 150.1 434.057C152.462 433.33 154.792 432.405 157.138 431.711C161.879 430.158 166.637 428.622 171.477 427.432C171.808 427.349 171.725 426.97 171.494 427.019Z" fill="#263238"/>
<path d="M183.818 430.571C179.776 430.408 175.728 430.469 171.692 430.753C169.66 430.901 167.661 431.166 165.662 431.496C164.704 431.645 163.762 431.81 162.804 431.992C161.846 432.173 160.739 432.537 159.698 432.719C159.583 432.719 159.599 432.917 159.698 432.9C160.69 432.752 161.714 432.768 162.705 432.686L165.728 432.421C167.727 432.24 169.743 432.091 171.758 431.893C175.789 431.513 179.787 431.166 183.835 430.901C184.066 430.901 184.033 430.587 183.818 430.571Z" fill="#263238"/>
<path d="M188.378 442.218C187.403 438.236 186.445 434.238 185.569 430.224C198.786 416 190.525 404.056 181.142 390.872C178.234 386.863 175.239 382.904 172.155 378.994C175.558 382.629 178.763 386.428 181.819 390.377C186.263 396.374 190.988 402.519 193.086 409.821C193.839 413.584 193.601 417.477 192.396 421.121C191.191 424.764 189.061 428.032 186.214 430.604L186.329 430.273C187.056 434.238 187.734 438.236 188.378 442.218Z" fill="#263238"/>
<path d="M176.632 381.671C178.537 383.615 179.76 386.125 180.118 388.824C178.713 386.566 177.545 384.168 176.632 381.671Z" fill="#263238"/>
<path d="M123.321 364.027C92.0147 390.839 61.9971 436.188 62.8727 460.787C63.6822 485.088 72.0415 482.362 74.437 482.114C89.0575 480.462 120.694 411.473 130.045 383.471C139.395 355.469 131.052 357.386 123.321 364.027Z" fill="#EBEBEB"/>
<path d="M134.141 365.299L121.338 365.745L122.313 364.902L134.125 364.489C134.147 364.758 134.152 365.029 134.141 365.299ZM115.556 371.015L114.664 371.874L133.431 371.213L133.58 370.387L115.556 371.015ZM109.394 377.193L108.568 378.036L131.944 377.227C132.043 376.946 132.109 376.665 132.192 376.384L109.394 377.193ZM103.711 383.323L102.951 384.182L130.094 383.24C130.193 382.959 130.292 382.678 130.375 382.397L103.711 383.323ZM98.4243 389.468L97.7139 390.311L127.996 389.253L128.293 388.427L98.4243 389.468ZM93.4682 395.597L92.8239 396.44L125.699 395.283C125.815 395.002 125.914 394.738 126.013 394.457L93.4682 395.597ZM88.8755 401.71L88.2642 402.552L123.287 401.33L123.634 400.487L88.8755 401.71ZM84.5802 407.806L84.002 408.665L120.76 407.376C120.892 407.095 121.008 406.815 121.123 406.534L84.5802 407.806ZM80.6153 413.968C80.4336 414.249 80.2518 414.53 80.0866 414.81L118.084 413.489C118.216 413.208 118.331 412.927 118.447 412.646L80.6153 413.968ZM76.8652 420.031L76.3861 420.89L115.407 419.519C115.539 419.238 115.672 418.957 115.787 418.676L76.8652 420.031ZM73.5611 426.11L73.115 426.953L112.665 425.565L113.061 424.739L73.5611 426.11ZM70.5379 432.14C70.4057 432.421 70.2735 432.702 70.1579 432.983L109.807 431.595C109.955 431.314 110.088 431.033 110.22 430.753L70.5379 432.14ZM67.9111 438.187C67.7955 438.468 67.6798 438.748 67.5807 439.013L106.784 437.642C106.932 437.361 107.064 437.08 107.213 436.815L67.9111 438.187ZM65.7304 444.2C65.6274 444.476 65.5391 444.757 65.4661 445.043L103.678 443.705L104.124 442.862L65.7304 444.2ZM64.0784 450.214C64.0784 450.494 63.9462 450.759 63.8801 451.04L100.44 449.768L100.919 448.925L64.0784 450.214ZM63.0706 456.194C63.0706 456.475 63.0706 456.756 63.0706 457.036L97.0861 455.847L97.5817 455.004L63.0706 456.194ZM62.9385 462.158V462.984L93.3855 461.96C93.5673 461.679 93.7325 461.398 93.9307 461.117L62.9385 462.158ZM63.4506 468.089C63.4506 468.369 63.4506 468.634 63.5662 468.898L89.3711 468.006L89.9493 467.163L63.4506 468.089ZM64.5905 474.003L64.8383 474.829L84.7619 474.119L85.4558 473.276L64.5905 474.003ZM67.3494 479.851C67.5817 480.14 67.8358 480.411 68.1094 480.661L78.4842 480.297C78.8807 480.028 79.2613 479.735 79.6241 479.422L67.3494 479.851Z" fill="#DBDBDB"/>
<path d="M93.1216 462.307C94.7736 459.168 96.31 456.078 97.8134 452.923L102.472 443.523C105.545 437.245 108.667 430.984 111.641 424.657C114.615 418.329 117.687 412.052 120.628 405.708C122.093 402.536 123.525 399.347 124.923 396.142C126.377 392.954 127.682 389.716 129.02 386.478C126.987 393.187 124.583 399.778 121.817 406.22C119.125 412.696 116.151 419.04 113.177 425.384C110.204 431.727 106.966 437.956 103.629 444.118C100.291 450.28 96.8882 456.409 93.1216 462.307Z" fill="#263238"/>
<path d="M125.931 394.755C126.486 393.617 127.109 392.513 127.797 391.451C128.144 390.938 128.475 390.41 128.838 389.914C129.202 389.419 129.532 388.89 129.962 388.394C129.714 389.652 129.22 390.848 128.508 391.913C127.838 393.016 126.963 393.981 125.931 394.755Z" fill="#263238"/>
<path d="M225.797 408.83C223.616 397.497 219.536 381.753 215.273 378.647C211.011 375.542 194.639 364.506 190.063 363.201C185.487 361.896 165.068 355.354 161.499 357.666C158.658 359.533 162.557 367.083 172.287 370.288C177.568 372.151 182.732 374.33 187.75 376.814C190.245 377.722 196.539 385.322 195.118 388.906C194.292 391.005 188.428 393.747 184.611 392.211C180.795 390.674 179.474 383.405 175.013 380.151C170.553 376.896 163.085 377.722 162.755 379.771C162.425 381.819 164.952 382.645 169.181 389.336C171.891 393.631 172.634 404.204 178.648 411.606C181.75 415.968 184.586 420.514 187.139 425.218L225.797 408.83Z" fill="#F7A9A0"/>
<path d="M170.866 377.26C169.478 377.137 168.155 376.621 167.05 375.773C166.701 375.477 166.427 375.103 166.252 374.68C166.077 374.258 166.005 373.8 166.042 373.344C166.04 373.007 166.157 372.679 166.373 372.419C166.373 372.419 166.373 372.27 166.29 372.419C166.189 372.585 166.079 372.745 165.96 372.898C165.882 373.034 165.821 373.178 165.778 373.328C165.683 373.632 165.644 373.951 165.662 374.269C165.726 374.968 166.023 375.626 166.505 376.136C167.082 376.675 167.776 377.074 168.532 377.3C169.289 377.526 170.088 377.575 170.866 377.441C170.866 377.441 170.932 377.276 170.866 377.26Z" fill="#263238"/>
<path d="M215.273 378.647C211.341 373.146 201.512 363.366 192.145 360.326C185.817 358.278 164.985 369.826 165.828 373.89C166.67 377.954 170.321 377.755 175.74 376.83C177.706 376.483 187.915 372.188 189.815 374.286C192.524 377.293 196.341 387.849 196.341 387.849L215.273 378.647Z" fill="#F7A9A0"/>
<path d="M166.257 372.27C168.669 367.744 174.336 365.101 180.019 362.953C180.118 362.953 180.167 363.052 180.019 363.085C178.565 363.63 169.379 368.471 166.257 372.336C166.29 372.369 166.224 372.303 166.257 372.27Z" fill="#263238"/>
<path d="M215.273 378.647C211.341 373.146 201.512 363.366 192.145 360.326C185.817 358.278 169.611 372.502 170.454 376.566C171.296 380.63 176.55 380.663 182.249 378.333C184.083 377.574 190.129 372.816 192.029 374.914C194.739 377.92 201.38 385.388 201.38 385.388L215.273 378.647Z" fill="#F7A9A0"/>
<path d="M197.464 380.746C196.837 379.886 196.622 379.573 195.978 378.714C195.333 377.854 194.672 377.061 193.979 376.219C193.419 375.466 192.731 374.817 191.947 374.303C191.146 373.898 190.236 373.764 189.353 373.923C187.38 374.448 185.539 375.382 183.951 376.665C182.117 377.854 178.251 379.853 175.211 379.688C174.373 379.688 173.545 379.508 172.783 379.16C172.205 378.94 171.693 378.576 171.296 378.102C169.859 375.938 171.296 373.311 172.948 371.494C176.077 368.06 179.798 365.217 183.934 363.102C184.909 362.557 185.9 362.044 186.891 361.45C187.993 360.792 189.219 360.37 190.493 360.211C192.607 360.079 196.159 362.028 197.266 362.623C197.349 362.623 197.398 362.54 197.266 362.49C195.928 361.747 192.591 359.302 189.204 359.649C187.974 359.9 186.799 360.37 185.735 361.037C184.595 361.598 183.455 362.21 182.332 362.854C180.139 364.075 178.045 365.467 176.07 367.017C174.112 368.465 172.433 370.256 171.114 372.304C170.567 373.22 170.278 374.268 170.278 375.335C170.278 376.403 170.567 377.45 171.114 378.367C171.594 378.939 172.193 379.4 172.869 379.717C173.545 380.034 174.283 380.199 175.03 380.2C175.925 380.261 176.825 380.206 177.706 380.035C179.663 379.503 181.579 378.83 183.439 378.02C185.239 377.194 186.825 375.855 188.692 375.195C189.125 375.006 189.591 374.909 190.063 374.909C190.535 374.909 191.002 375.006 191.434 375.195C192.241 375.665 192.971 376.255 193.599 376.946C194.923 378.13 196.139 379.429 197.233 380.828C197.464 381.258 197.778 381.109 197.464 380.746Z" fill="#263238"/>
<path d="M218.23 383.471C216.76 380.828 213.902 369.776 211.622 366.472C209.342 363.168 198.819 351.851 194.242 352.611C188.51 353.553 195.085 363.647 198.323 367.76C201.561 371.874 201.462 379.209 201.462 379.209L218.23 383.471Z" fill="#F7A9A0"/>
<path d="M193.681 360.888C194.818 362.221 195.887 363.611 196.886 365.051C197.923 366.347 198.856 367.722 199.678 369.165C200.396 370.641 200.865 372.227 201.065 373.856C201.181 374.649 201.247 375.509 201.297 376.252C201.346 376.995 201.297 378.036 201.396 378.912C201.396 378.994 201.247 379.027 201.247 378.912C201.057 377.308 200.759 375.718 200.355 374.154C200.002 372.527 199.447 370.951 198.703 369.462C197.2 366.521 195.085 363.928 193.549 360.987C193.433 360.888 193.598 360.789 193.681 360.888Z" fill="#263238"/>
<path d="M201.412 380.432C201.759 383.23 201.396 386.071 200.355 388.692C199.894 390.006 199.342 391.287 198.703 392.525C198.05 393.751 197.316 394.932 196.506 396.06C194.934 398.212 193.641 400.555 192.657 403.032C191.741 405.565 191.137 408.2 190.856 410.879C190.518 408.114 190.714 405.31 191.434 402.619C192.23 399.926 193.47 397.386 195.102 395.102C196.665 392.933 197.999 390.607 199.083 388.163C200.282 385.733 201.069 383.12 201.412 380.432Z" fill="#263238"/>
<path d="M219.486 474.895C208.169 473.854 199.992 455.335 185.718 422.757C183.224 417.041 211.11 380.052 215.339 385.222C220.675 391.715 235.841 428.539 237.708 438.666C241.375 458.573 232.719 476.101 219.486 474.895Z" fill="#F7A9A0"/>
<path d="M193.301 440.946L228.093 404.138C228.093 404.138 239.657 434.04 239.277 446.81C238.897 459.581 235.048 474.251 219.766 475.704C208.318 476.745 193.301 440.946 193.301 440.946Z" fill="#EBEBEB"/>
<path d="M230.092 409.557L222.724 409.821L223.533 408.962L229.811 408.748C229.894 409.012 229.993 409.276 230.092 409.557ZM231.876 414.629L217.702 415.124L216.892 415.983L232.14 415.455C232.041 415.174 231.959 414.893 231.876 414.629ZM233.809 420.576L211.903 421.353L211.11 422.195L234.057 421.386L233.809 420.576ZM235.577 426.474L206.088 427.498L205.278 428.357L235.791 427.184C235.709 426.953 235.643 426.672 235.56 426.408L235.577 426.474ZM237.146 432.372L200.273 433.66L199.463 434.503L237.344 433.181L237.146 432.372ZM238.435 438.269L194.457 439.806L193.648 440.665L238.583 439.095L238.435 438.269ZM239.244 444.2L195.432 445.72C195.548 445.985 195.68 446.265 195.829 446.546L239.277 445.026C239.261 444.696 239.244 444.415 239.228 444.134L239.244 444.2ZM198.307 451.585C198.439 451.849 198.571 452.114 198.72 452.378L239.029 450.974C239.029 450.709 239.029 450.428 239.029 450.148L198.307 451.585ZM201.462 457.417L201.925 458.226L238.137 456.954C238.137 456.69 238.253 456.409 238.303 456.128L201.462 457.417ZM205.03 463.248L205.559 464.041L236.32 462.967C236.436 462.703 236.535 462.422 236.651 462.141L205.03 463.248ZM209.276 469.047C209.508 469.333 209.739 469.598 209.97 469.84L232.818 469.047C233.049 468.766 233.264 468.502 233.479 468.204L209.276 469.047ZM215.719 474.78C216.299 475.103 216.914 475.358 217.553 475.539L222.344 475.374C223.422 475.157 224.478 474.842 225.499 474.433L215.719 474.78Z" fill="#DBDBDB"/>
<path d="M206.088 464.867C204.683 463.067 203.444 461.167 202.222 459.267C200.999 457.367 199.859 455.401 198.736 453.419C197.613 451.436 196.605 449.421 195.68 447.339C194.705 445.28 193.909 443.141 193.301 440.946C194.342 442.978 195.448 444.927 196.605 446.893L199.909 452.807C200.983 454.79 202.073 456.756 203.114 458.771C204.155 460.787 205.146 462.786 206.088 464.867Z" fill="#263238"/>
<path d="M201.38 446.761C203.032 444.762 204.915 442.879 206.699 440.979C208.483 439.079 210.317 437.179 212.151 435.312C215.835 431.579 219.519 427.862 223.269 424.211C224.293 423.203 225.318 422.195 226.358 421.22C227.399 420.246 228.721 419.254 229.828 418.181C229.828 418.098 230.042 418.181 229.96 418.313C229.068 419.254 228.308 420.312 227.449 421.27C226.59 422.228 225.631 423.219 224.706 424.177C222.889 426.061 221.061 427.939 219.222 429.811C215.554 433.544 211.853 437.262 208.07 440.88C205.923 442.928 203.825 445.043 201.561 446.959C201.535 446.983 201.5 446.996 201.465 446.994C201.429 446.993 201.395 446.977 201.371 446.951C201.347 446.924 201.335 446.89 201.336 446.854C201.338 446.818 201.353 446.785 201.38 446.761Z" fill="#263238"/>
<path d="M132.82 360.805C133.167 362.656 141.361 375.062 151.488 374.022C157.369 373.41 152.842 361.829 152.842 361.829L157.253 345.524L137.165 331.498C137.165 331.498 132.688 360.029 132.82 360.805Z" fill="#F7A9A0"/>
<path d="M135.546 342.154C137.026 346.316 139.347 350.13 142.366 353.356C145.384 356.582 149.035 359.151 153.091 360.904L157.254 345.524L137.181 331.498C137.181 331.498 136.438 336.322 135.546 342.154Z" fill="#263238"/>
<path d="M179.192 321.949C180.96 349.555 164.621 353.718 158.674 354.098C153.272 354.429 134.835 354.908 130.226 327.666C125.617 300.423 137.908 290.858 150.216 289.421C162.523 287.984 177.441 294.36 179.192 321.949Z" fill="#F7A9A0"/>
<path d="M173.014 320.743C172.393 320.608 171.781 320.437 171.18 320.231C170.503 320.15 169.874 319.841 169.396 319.356C169.265 319.185 169.193 318.976 169.193 318.761C169.193 318.546 169.265 318.337 169.396 318.166C169.729 317.884 170.131 317.696 170.56 317.621C170.99 317.545 171.432 317.585 171.841 317.737C172.71 317.924 173.48 318.424 174.005 319.141C174.106 319.308 174.159 319.499 174.159 319.694C174.158 319.889 174.103 320.08 174 320.246C173.898 320.412 173.751 320.546 173.577 320.634C173.403 320.722 173.208 320.76 173.014 320.743Z" fill="#263238"/>
<path d="M154.065 320.132C154.697 320.071 155.326 319.977 155.948 319.851C156.629 319.845 157.29 319.619 157.832 319.207C157.964 319.034 158.036 318.822 158.036 318.604C158.036 318.386 157.964 318.174 157.832 318.001C157.539 317.679 157.165 317.443 156.749 317.318C156.333 317.193 155.89 317.184 155.469 317.291C154.577 317.352 153.744 317.755 153.14 318.414C153.008 318.576 152.928 318.773 152.908 318.981C152.889 319.189 152.931 319.397 153.03 319.581C153.129 319.765 153.28 319.915 153.464 320.013C153.648 320.111 153.857 320.153 154.065 320.132Z" fill="#263238"/>
<path d="M157.584 327.352C157.584 327.352 157.419 327.434 157.419 327.517C157.419 329.4 157.072 331.548 155.354 332.109V332.225C157.452 332.01 157.815 329.136 157.584 327.352Z" fill="#263238"/>
<path d="M155.965 325.32C152.958 324.973 152.479 331.036 155.271 331.366C158.063 331.696 158.509 325.617 155.965 325.32Z" fill="#263238"/>
<path d="M154.759 325.551C154.197 325.848 153.635 326.41 152.991 326.426C152.347 326.443 151.736 325.766 151.339 325.121C151.339 325.121 151.24 325.121 151.223 325.121C151.124 326.278 151.471 327.5 152.71 327.765C153.949 328.029 154.726 327.054 155.106 325.914C155.139 325.766 154.974 325.435 154.759 325.551Z" fill="#263238"/>
<path d="M168.95 327.401C168.95 327.401 169.082 327.5 169.082 327.583C168.851 329.45 168.917 331.63 170.569 332.407C170.569 332.407 170.569 332.522 170.569 332.506C168.488 332.043 168.438 329.136 168.95 327.401Z" fill="#263238"/>
<path d="M170.784 325.584C173.824 325.584 173.543 331.696 170.784 331.663C168.025 331.63 168.24 325.567 170.784 325.584Z" fill="#263238"/>
<path d="M172.039 326.046C172.502 326.393 172.948 326.988 173.526 327.054C174.104 327.12 174.699 326.492 175.178 325.898C175.178 325.898 175.277 325.898 175.261 325.898C175.261 327.054 174.798 328.244 173.609 328.425C172.419 328.607 171.957 327.55 171.659 326.377C171.676 326.228 171.857 325.914 172.039 326.046Z" fill="#263238"/>
<path d="M157.815 341.807C158.195 342.303 158.575 342.963 159.253 343.112C159.95 343.182 160.653 343.103 161.318 342.881C161.318 342.881 161.433 342.881 161.318 342.996C161.004 343.328 160.607 343.568 160.168 343.693C159.729 343.818 159.264 343.823 158.823 343.707C158.453 343.562 158.134 343.311 157.907 342.984C157.681 342.657 157.557 342.271 157.551 341.873C157.518 341.757 157.667 341.741 157.815 341.807Z" fill="#263238"/>
<path d="M166.076 335.529C166.145 336.894 166.145 338.261 166.076 339.626C166.076 339.758 165.745 339.791 165.299 339.791C164.148 339.92 162.984 339.731 161.932 339.244C160.881 338.758 159.983 337.993 159.335 337.032C159.253 336.9 159.434 336.768 159.55 336.867C161.161 338.129 163.137 338.836 165.184 338.883C165.299 338.519 164.671 334.042 164.886 334.042C165.906 334.204 166.9 334.498 167.843 334.918C167.596 329.004 166.406 323.188 166.191 317.291C166.191 317.092 166.489 317.043 166.538 317.291C168.014 323.495 168.866 329.832 169.082 336.206C169.215 336.966 166.555 335.793 166.076 335.529Z" fill="#263238"/>
<path d="M164.523 339.081C163.786 339.988 162.831 340.693 161.747 341.129C161.147 341.329 160.498 341.329 159.897 341.129C158.559 340.749 158.559 339.477 158.823 338.47C158.976 337.897 159.192 337.343 159.467 336.818C160.864 338.098 162.637 338.892 164.523 339.081Z" fill="#263238"/>
<path d="M161.747 341.13C161.147 341.329 160.498 341.329 159.897 341.13C158.559 340.75 158.559 339.477 158.823 338.47C159.542 338.511 160.224 338.797 160.757 339.282C161.289 339.766 161.639 340.418 161.747 341.13Z" fill="#FF9ABB"/>
<path d="M130.028 328.062C133.084 327.913 141.146 319.587 141.592 304.801C141.592 304.801 140.304 318.018 139.296 319.984C138.288 321.95 143.806 315.292 144.252 303.463C147.982 306.186 152.082 308.361 156.428 309.923C162.045 311.575 165.481 311.575 165.894 311.145C166.307 310.716 158.03 308.039 155.833 305.446C155.833 305.446 170.701 312.566 177.623 313.161C178.433 313.161 179.556 296.822 168.95 289.735C158.344 282.648 141.361 289.999 136.768 294.344C136.768 294.344 131.432 295.038 125.535 302.868C119.637 310.699 126.724 328.277 130.028 328.062Z" fill="#263238"/>
<path d="M144.599 301.894C144.599 301.563 144.037 301.563 144.07 301.894C144.392 307.28 143.594 312.675 141.725 317.737C141.725 317.737 141.725 317.852 141.84 317.737C144.104 312.615 145.541 307.577 144.599 301.894Z" fill="#263238"/>
<path d="M163.746 311.988C155.734 310.947 148.878 308.353 143.542 302.075C143.516 302.056 143.486 302.045 143.454 302.045C143.422 302.044 143.391 302.054 143.365 302.073C143.339 302.091 143.32 302.117 143.31 302.148C143.3 302.178 143.3 302.21 143.31 302.241C147.655 309.13 155.899 312.021 163.713 312.335C163.878 312.285 163.911 312.004 163.746 311.988Z" fill="#263238"/>
<path d="M162.771 328.409L162.11 327.517C163.382 326.46 166.273 325.072 168.173 327.335L167.364 328.095C165.695 326.063 162.936 328.31 162.771 328.409Z" fill="#37474F"/>
<path d="M125.319 332.242L124.246 331.878C124.411 331.366 125.997 326.922 128.442 326.195C130.887 325.468 146.003 324.708 146.614 324.675V325.815C142.253 326.03 130.474 326.724 128.706 327.269C126.938 327.814 125.732 331.036 125.319 332.242Z" fill="#37474F"/>
<path d="M152.859 333.762C151.253 333.604 149.724 332.998 148.448 332.01C145.987 329.698 145.144 322.098 145.144 321.702V320.958L145.887 321.057C146.466 321.057 159.88 322.709 162.623 326.013C164.109 327.798 162.788 331.647 161.532 332.704C159.93 334.009 156.163 334.307 152.859 333.762ZM146.449 322.346C146.763 324.824 147.688 329.648 149.274 331.151C151.405 333.167 158.889 333.299 160.69 331.779C161.565 331.052 162.59 327.946 161.631 326.823C159.732 324.494 150.645 322.891 146.449 322.346Z" fill="#37474F"/>
<path d="M171.659 333.481C170.386 333.376 169.203 332.784 168.355 331.829C167.772 330.906 167.423 329.854 167.34 328.766C167.256 327.677 167.441 326.585 167.876 325.584C169.528 322.412 177.788 321.933 178.747 321.883H179.473L179.374 322.594C179.374 322.891 178.4 329.879 176.995 331.994C176.532 332.548 175.946 332.986 175.283 333.273C174.621 333.56 173.9 333.687 173.179 333.646C172.669 333.626 172.161 333.571 171.659 333.481ZM178.135 323.106C175.393 323.321 170.007 324.13 169.016 326.096C168.69 326.894 168.553 327.757 168.616 328.617C168.679 329.477 168.94 330.31 169.38 331.052C169.891 331.527 170.496 331.889 171.157 332.114C171.817 332.339 172.518 332.422 173.212 332.357C173.74 332.393 174.268 332.311 174.76 332.117C175.252 331.922 175.694 331.621 176.054 331.234C177.123 328.635 177.824 325.899 178.135 323.106Z" fill="#37474F"/>
<path d="M134.918 327.566C134.918 327.566 129.086 318.811 125.122 320.958C121.157 323.106 125.402 335.628 129.962 337.479C130.531 337.753 131.15 337.908 131.781 337.936C132.413 337.964 133.043 337.864 133.634 337.642C134.226 337.419 134.766 337.08 135.222 336.643C135.678 336.206 136.042 335.681 136.289 335.1L134.918 327.566Z" fill="#F7A9A0"/>
<path d="M126.426 324.46C126.426 324.46 126.426 324.543 126.426 324.576C129.615 325.964 131.234 328.987 132.357 332.109C132.178 331.781 131.929 331.496 131.628 331.274C131.328 331.052 130.982 330.897 130.616 330.822C130.25 330.746 129.872 330.752 129.507 330.837C129.143 330.922 128.802 331.086 128.508 331.316C128.508 331.316 128.508 331.515 128.508 331.498C129.077 331.323 129.688 331.333 130.252 331.526C130.815 331.719 131.304 332.085 131.647 332.572C132.229 333.381 132.722 334.251 133.117 335.166C133.249 335.446 133.778 335.314 133.679 334.984C133.688 334.957 133.688 334.928 133.679 334.901C133.893 330.788 130.837 324.973 126.426 324.46Z" fill="#263238"/>
<path d="M160.855 372.667L147.639 420.692C147.077 422.096 147.771 423.269 149.159 423.302L174.088 423.864C174.85 423.822 175.585 423.566 176.207 423.124C176.83 422.683 177.315 422.074 177.607 421.369L190.823 373.344C191.368 371.924 190.674 370.767 189.287 370.734L164.423 370.123C163.645 370.153 162.893 370.41 162.259 370.862C161.626 371.314 161.137 371.942 160.855 372.667Z" fill="#37474F"/>
<path d="M163.812 372.667L150.596 420.692C150.051 422.112 150.728 423.269 152.116 423.302L177.045 423.864C177.806 423.825 178.54 423.572 179.163 423.134C179.785 422.695 180.271 422.089 180.564 421.386L193.78 373.344C194.325 371.94 193.648 370.767 192.244 370.751L167.331 370.172C166.568 370.212 165.833 370.468 165.21 370.909C164.587 371.351 164.102 371.961 163.812 372.667Z" fill="#455A64"/>
<path d="M170.586 375.013C170.562 375.574 170.316 376.102 169.902 376.482C169.488 376.861 168.941 377.061 168.38 377.037C167.819 377.012 167.291 376.767 166.912 376.353C166.532 375.939 166.332 375.392 166.356 374.831C166.368 374.553 166.435 374.281 166.552 374.029C166.669 373.777 166.835 373.55 167.04 373.363C167.245 373.175 167.485 373.029 167.746 372.934C168.007 372.838 168.284 372.795 168.562 372.807C168.84 372.819 169.112 372.886 169.364 373.003C169.616 373.12 169.843 373.286 170.031 373.491C170.218 373.696 170.364 373.936 170.459 374.197C170.555 374.458 170.598 374.735 170.586 375.013Z" fill="#263238"/>
<path d="M71.0669 482.197C81.9869 483.221 95.1536 474.218 129.136 447.108C133.844 443.358 116.283 403.031 111.063 406.782C104.455 411.506 79.9384 431.265 78.3359 432.933C64.7396 447.009 63.6493 481.503 71.0669 482.197Z" fill="#F7A9A0"/>
<path d="M99.0522 419.717C99.0522 419.717 108.452 405.278 115.738 399.215C123.443 393.112 132.513 388.968 142.17 387.139C152.628 385.14 179.259 387.535 179.92 395.399C180.498 402.453 153.388 398.62 153.388 398.62C153.388 398.62 181.671 397.96 180.828 406.583C179.986 415.207 148.828 409.012 148.828 409.012C148.828 409.012 177.904 409.012 175.624 417.735C173.89 424.343 145.293 420.295 145.293 420.295C145.293 420.295 170.288 420.444 168.801 427.333C167.149 434.932 140.535 432.851 140.535 432.851C133.828 449.701 123.37 454.823 115.754 457.714C113.904 458.342 99.0522 419.717 99.0522 419.717Z" fill="#F7A9A0"/>
<path d="M143.674 398.158C146.978 397.96 150.282 397.745 153.685 397.844C157.088 397.943 160.293 398.158 163.597 398.554C167.925 399.005 172.187 399.947 176.302 401.363C168.818 399.38 156.923 398.852 153.586 398.753C150.249 398.654 146.978 398.389 143.674 398.29C143.591 398.29 143.591 398.174 143.674 398.158Z" fill="#263238"/>
<path d="M143.112 410.168C147.358 410.168 151.571 409.871 155.833 409.986C160.095 410.102 164.093 410.598 168.289 410.994C168.603 410.994 168.488 411.192 168.157 411.176C163.928 410.945 159.996 411.044 155.767 410.845C151.538 410.647 147.325 410.3 143.096 410.267C143.03 410.267 143.046 410.168 143.112 410.168Z" fill="#263238"/>
<path d="M140.766 420.378C147.283 420.124 153.809 420.534 160.244 421.6C160.558 421.6 160.376 421.832 160.046 421.815C153.586 421.286 148.481 420.824 140.783 420.609C140.667 420.576 140.634 420.394 140.766 420.378Z" fill="#263238"/>
<path d="M98.8211 414.15L114.862 463.926C114.862 463.926 78.7158 487.352 70.2574 481.933C61.7989 476.514 65.929 447.24 74.7344 435.676C78.3523 430.901 98.8211 414.15 98.8211 414.15Z" fill="#EBEBEB"/>
<path d="M100.704 420.031L91.37 420.361L92.3943 419.502L100.44 419.221L100.704 420.031ZM102.356 425.103L85.1253 425.714C84.7949 425.995 84.4645 426.276 84.1506 426.573L102.587 425.929L102.356 425.103ZM104.239 430.984L78.3189 431.893L77.4433 432.752L104.504 431.81L104.239 430.984ZM106.139 436.882L73.0985 438.038C72.9333 438.302 72.7681 438.583 72.6194 438.864L106.371 437.691L106.139 436.882ZM108.023 442.763L70.1744 444.085C70.0587 444.349 69.9596 444.63 69.8605 444.911L108.287 443.573L108.023 442.763ZM109.906 448.661L68.1589 450.115C68.1589 450.395 67.9937 450.676 67.9276 450.957L110.17 449.487L109.906 448.661ZM111.806 454.542L66.7546 456.194L66.606 457.02L112.054 455.368L111.806 454.542ZM113.689 460.44L65.8956 462.092C65.8956 462.373 65.8956 462.654 65.8956 462.918L114.019 461.266L113.689 460.44ZM65.6147 468.072C65.6147 468.353 65.6147 468.617 65.6147 468.882L109.278 467.362C109.79 467.064 110.253 466.767 110.699 466.486L65.6147 468.072ZM66.1269 474.003L66.2756 474.829L98.1103 473.706L99.7624 472.83L66.1269 474.003ZM68.2084 479.868C68.384 480.158 68.5888 480.429 68.8197 480.677L84.4149 480.132L86.6287 479.24L68.2084 479.868Z" fill="#DBDBDB"/>
<path d="M99.3496 415.802L98.7383 414.15H98.8705C95.5664 417.156 92.0971 420.147 88.76 423.186C85.4229 426.226 82.1519 429.249 78.8478 432.438C77.2328 433.985 75.7259 435.641 74.3377 437.394C73.0108 439.179 71.8391 441.075 70.8354 443.06C68.8745 447.132 67.5644 451.485 66.9531 455.963C67.1165 451.401 68.1599 446.913 70.0259 442.747C70.9467 440.637 72.0992 438.637 73.4622 436.783C74.8612 434.966 76.3789 433.244 78.0053 431.628C81.3093 428.44 84.6134 425.417 88.0827 422.493C91.552 419.568 95.1039 416.776 98.7714 414.1L98.8705 414.018V414.133L99.3496 415.802Z" fill="#263238"/>
<path d="M91.2214 427.003C92.1796 429.431 92.8735 431.959 93.7325 434.453C94.5916 436.948 95.3846 439.409 96.0784 441.954C97.5818 446.91 99.0521 451.998 100.473 457.053C100.853 458.424 101.233 459.812 101.596 461.2C101.96 462.588 102.191 464.223 102.587 465.693C102.58 465.711 102.567 465.726 102.551 465.737C102.535 465.747 102.516 465.753 102.497 465.753C102.477 465.753 102.458 465.747 102.442 465.737C102.426 465.726 102.413 465.711 102.406 465.693C102.009 464.471 101.448 463.298 101.035 462.075C100.622 460.853 100.192 459.548 99.7955 458.259C99.0191 455.765 98.2591 453.303 97.4992 450.742C95.9958 445.786 94.509 440.715 93.1708 435.643C92.4109 432.785 91.5188 429.927 90.9736 427.019C90.9812 426.993 90.9966 426.97 91.0177 426.953C91.0389 426.936 91.0647 426.926 91.0918 426.924C91.1188 426.922 91.1458 426.929 91.169 426.943C91.1922 426.957 91.2105 426.978 91.2214 427.003Z" fill="#263238"/>
<path d="M114.862 463.926C115.126 464.405 115.093 464.008 115.027 463.711C114.961 463.413 114.284 461.001 113.689 459.515C113.689 459.349 113.375 459.085 113.491 459.647C113.874 461.096 114.332 462.524 114.862 463.926Z" fill="#263238"/>
<path d="M247.405 40.095C247.405 40.095 238.418 112.091 223.632 128.297C205.889 147.742 193.004 144.818 185.85 154.912C178.68 144.884 165.811 147.742 148.052 128.281C133.183 112.074 124.279 40.0785 124.279 40.0785C163.217 21.1791 185.9 0 185.9 0C186.544 0.660815 209.028 21.493 247.405 40.095Z" fill="#F9E006"/>
<path opacity="0.1" d="M247.405 40.095C247.405 40.095 238.418 112.091 223.632 128.297C205.889 147.742 193.003 144.818 185.85 154.912V0C186.544 0.660815 209.028 21.493 247.405 40.095Z" fill="black"/>
<path d="M133.828 45.8936C133.828 45.8936 141.427 106.722 153.9 120.417C168.917 136.855 179.787 134.443 185.85 142.918C191.897 134.443 202.784 136.855 217.784 120.417C230.274 106.722 237.856 45.8936 237.856 45.8936C204.948 29.9183 185.9 12.0103 185.9 12.0103C185.9 12.0103 166.72 29.9183 133.828 45.8936Z" fill="#F9E006"/>
<path opacity="0.2" d="M133.828 45.8936C133.828 45.8936 141.427 106.722 153.916 120.417C168.917 136.855 179.804 134.443 185.85 142.918V12.0103C185.85 12.0103 166.736 29.9183 133.828 45.8936Z" fill="white"/>
<path d="M201.429 68.824H170.222V97.1399H201.429V68.824Z" fill="white"/>
<path d="M198.323 77.5631H195.151V64.925C195.204 63.6695 195.002 62.4163 194.558 61.2407C194.115 60.0652 193.437 58.9915 192.568 58.0845C191.698 57.1774 190.654 56.4556 189.498 55.9625C188.342 55.4695 187.099 55.2153 185.842 55.2153C184.585 55.2153 183.342 55.4695 182.186 55.9625C181.03 56.4556 179.986 57.1774 179.116 58.0845C178.247 58.9915 177.569 60.0652 177.125 61.2407C176.681 62.4163 176.48 63.6695 176.533 64.925V77.5631H173.361V64.925C173.3 63.2478 173.577 61.5754 174.177 60.0079C174.777 58.4403 175.686 57.0097 176.851 55.8016C178.016 54.5934 179.413 53.6324 180.958 52.9761C182.502 52.3197 184.164 51.9814 185.842 51.9814C187.52 51.9814 189.181 52.3197 190.726 52.9761C192.271 53.6324 193.667 54.5934 194.832 55.8016C195.997 57.0097 196.907 58.4403 197.507 60.0079C198.106 61.5754 198.384 63.2478 198.323 64.925V77.5631Z" fill="white"/>
<path d="M187.155 83.3287L188.46 89.5404H182.926L184.231 83.3287C183.832 83.085 183.502 82.7427 183.274 82.3348C183.045 81.9268 182.925 81.4669 182.926 80.9993C182.92 80.514 183.041 80.0355 183.278 79.6117C183.514 79.1879 183.858 78.8336 184.274 78.584C184.691 78.3345 185.165 78.1985 185.651 78.1897C186.136 78.1808 186.615 78.2994 187.04 78.5336C187.465 78.7677 187.822 79.1093 188.074 79.5242C188.326 79.9391 188.464 80.4128 188.476 80.8981C188.487 81.3833 188.372 81.8631 188.14 82.2896C187.908 82.7161 187.569 83.0744 187.155 83.3287Z" fill="#37474F"/>
</svg>
