<svg width="549" height="463" viewBox="0 0 549 463" fill="none" xmlns="http://www.w3.org/2000/svg">
<path d="M388.67 461.828H43.1689C31.8389 461.828 20.9729 457.349 12.9614 449.377C4.94991 441.405 0.449097 430.593 0.449097 419.319V261.809C0.449097 259.522 0.917381 257.259 1.82535 255.157C2.73332 253.056 4.06194 251.161 5.7302 249.587L188.811 76.8984C196.131 69.994 205.833 66.1455 215.919 66.1455C226.005 66.1455 235.707 69.994 243.027 76.8984L417.585 241.548C421.946 245.661 425.419 250.615 427.792 256.107C430.166 261.6 431.389 267.516 431.389 273.495V419.319C431.389 424.901 430.285 430.429 428.138 435.586C425.991 440.744 422.844 445.43 418.877 449.377C414.91 453.325 410.201 456.456 405.018 458.592C399.835 460.728 394.28 461.828 388.67 461.828Z" fill="#3F3D56"/>
<path opacity="0.1" d="M0.449097 264.395H427.798V436.159C427.798 442.967 425.08 449.496 420.243 454.309C415.405 459.123 408.844 461.827 402.003 461.827H26.2447C19.4033 461.827 12.8421 459.123 8.00445 454.309C3.16683 449.496 0.449097 442.967 0.449097 436.159V264.395Z" fill="black"/>
<path d="M350.875 129.051H80.0665C67.0849 129.051 56.5613 139.522 56.5613 152.44V421.91C56.5613 434.828 67.0849 445.3 80.0665 445.3H350.875C363.856 445.3 374.38 434.828 374.38 421.91V152.44C374.38 139.522 363.856 129.051 350.875 129.051Z" fill="#F9E006"/>
<path opacity="0.1" d="M374.379 271.498V445.301H56.5608V271.498L215.47 347.925L374.379 271.498Z" fill="black"/>
<path d="M215.47 357.752L11.8564 259.825C10.597 259.219 9.20366 258.942 7.80697 259.018C6.41028 259.095 5.05598 259.523 3.87104 260.263C2.68611 261.002 1.70933 262.029 1.03226 263.247C0.355196 264.465 1.409e-06 265.834 0 267.226V435.714C-1.179e-06 439.084 0.667214 442.422 1.96356 445.536C3.25992 448.651 5.16002 451.48 7.55537 453.864C9.95071 456.247 12.7944 458.138 15.9241 459.428C19.0537 460.718 22.4081 461.382 25.7956 461.382H405.145C408.532 461.382 411.887 460.718 415.016 459.428C418.146 458.138 420.99 456.247 423.385 453.864C425.78 451.48 427.68 448.651 428.977 445.536C430.273 442.422 430.94 439.084 430.94 435.714V270.113C430.94 268.414 430.507 266.743 429.681 265.257C428.855 263.771 427.663 262.518 426.217 261.615C424.771 260.712 423.118 260.19 421.414 260.097C419.709 260.003 418.009 260.342 416.472 261.081L215.47 357.752Z" fill="#3F3D56"/>
<path d="M172.825 158.085H83.9438V170.592H172.825V158.085Z" fill="#F2F2F2"/>
<path d="M340.712 203.646H76.7615V210.793H340.712V203.646Z" fill="#F2F2F2"/>
<path d="M340.712 227.767H76.7615V234.914H340.712V227.767Z" fill="#F2F2F2"/>
<path d="M340.712 251.889H76.7615V259.035H340.712V251.889Z" fill="#F2F2F2"/>
<path d="M430.275 63.1921C429.736 67.9756 426.069 71.8289 424.71 76.4487C422.666 83.4022 426.201 90.8639 431.038 96.2793C434.941 100.603 439.667 104.113 444.943 106.605C450.219 109.098 455.939 110.524 461.773 110.8C463.487 110.95 465.213 110.763 466.854 110.249C468.32 109.663 469.639 108.766 470.721 107.62C474.363 103.981 476.319 98.9381 477.098 93.8605C477.877 88.783 477.574 83.61 477.269 78.4825C477.271 77.4226 477.077 76.3714 476.698 75.3808C476.202 74.4372 475.519 73.6025 474.692 72.9265C472.07 70.5327 469.181 68.4446 466.082 66.703C464.682 66.0785 463.447 65.138 462.475 63.956C461.889 62.9435 461.51 61.8258 461.36 60.6673L460.408 55.8441C460.239 54.4542 459.762 53.119 459.012 51.9344C457.331 49.6789 454.117 49.3719 451.298 49.2619L440.968 48.8587C437.755 48.7333 433.522 47.8165 430.385 48.4443C427.456 49.0307 428.429 51.7164 428.961 54.1618C429.733 57.1144 430.174 60.143 430.275 63.1921Z" fill="#A0616A"/>
<path opacity="0.1" d="M430.275 63.1921C429.736 67.9756 426.069 71.8289 424.71 76.4487C422.666 83.4022 426.201 90.8639 431.038 96.2793C434.941 100.603 439.667 104.113 444.943 106.605C450.219 109.098 455.939 110.524 461.773 110.8C463.487 110.95 465.213 110.763 466.854 110.249C468.32 109.663 469.639 108.766 470.721 107.62C474.363 103.981 476.319 98.9381 477.098 93.8605C477.877 88.783 477.574 83.61 477.269 78.4825C477.271 77.4226 477.077 76.3714 476.698 75.3808C476.202 74.4372 475.519 73.6025 474.692 72.9265C472.07 70.5327 469.181 68.4446 466.082 66.703C464.682 66.0785 463.447 65.138 462.475 63.956C461.889 62.9435 461.51 61.8258 461.36 60.6673L460.408 55.8441C460.239 54.4542 459.762 53.119 459.012 51.9344C457.331 49.6789 454.117 49.3719 451.298 49.2619L440.968 48.8587C437.755 48.7333 433.522 47.8165 430.385 48.4443C427.456 49.0307 428.429 51.7164 428.961 54.1618C429.733 57.1144 430.174 60.143 430.275 63.1921Z" fill="black"/>
<path d="M495.983 278.501C494.519 294.468 493.056 310.432 491.593 326.393C490.447 338.954 489.279 351.567 487.032 363.966C486.256 368.239 485.347 372.49 484.268 376.704C481.267 388.405 476.914 399.841 475.51 411.836C475.466 412.181 475.429 412.534 475.392 412.887C475.235 415.54 474.73 418.161 473.891 420.683C473.189 422.514 472.11 424.184 471.349 425.993C469.834 429.611 469.634 433.612 469.45 437.532C464.12 434.549 458.286 432.565 452.236 431.678C449.317 431.244 446.065 430.935 444.077 428.765C441.874 426.368 442.118 422.698 442.488 419.477C443.648 409.475 444.806 399.478 445.961 389.486C446.338 385.187 447.073 380.927 448.156 376.748C448.556 375.358 449.036 373.99 449.524 372.622C450.196 370.74 450.876 368.857 451.386 366.923C452.121 363.798 452.635 360.625 452.924 357.428C454.113 347.368 455.547 337.329 456.804 327.276L456.87 326.746C458.755 311.508 460.189 296.196 459.775 280.848C459.716 278.575 459.62 276.303 459.472 274.023C459.265 270.721 458.962 268.97 461.711 266.904C464.749 264.624 468.747 263.028 472.221 261.535C474.091 260.726 494.682 253.453 495.162 255.049C496.128 258.453 496.635 261.969 496.67 265.506C496.685 269.847 496.455 274.186 495.983 278.501Z" fill="#2F2E41"/>
<path opacity="0.1" d="M487.033 363.967C486.257 368.24 485.348 372.491 484.268 376.705C481.268 388.405 476.915 399.841 475.51 411.836C475.466 412.182 475.429 412.535 475.392 412.888C466.213 399.841 458.482 385.809 449.524 372.623C450.197 370.74 450.877 368.858 451.387 366.923C452.122 363.798 452.635 360.626 452.924 357.429C454.114 347.368 455.548 337.33 456.804 327.276L456.871 326.747C457.396 328.881 458.147 330.954 459.11 332.932C465.126 345.096 479.42 351.244 486.412 362.886C486.626 363.246 486.833 363.607 487.033 363.967Z" fill="black"/>
<path d="M412.547 257.005C412.851 266.761 414.42 276.429 415.986 286.065L419.218 305.945C420.987 316.826 422.828 327.928 428.003 337.674C431.874 344.964 437.451 351.185 442.496 357.725C454.899 373.804 464.217 392.018 475.978 408.569C479.397 413.379 484.283 418.581 490.117 417.577C493.946 416.918 496.728 413.745 499.737 411.3C503.286 408.416 507.563 406.306 510.355 402.692C513.147 399.077 513.694 393.069 509.911 390.497C508.543 389.743 507.089 389.151 505.582 388.734C499.718 386.515 495.922 380.817 493.507 375.056C491.092 369.294 489.629 363.099 486.411 357.74C479.42 346.098 465.124 339.95 459.107 327.782C455.736 320.966 455.415 313.111 455.157 305.519L454.501 286.167C454.429 284.051 454.373 281.85 455.237 279.915C457.539 274.764 464.489 274.284 470.116 273.631C476.503 272.886 482.69 270.944 488.35 267.907C491.592 266.165 494.758 263.945 496.492 260.711C498.074 257.76 498.293 254.3 498.478 250.961L500.427 215.889C500.594 212.872 500.747 209.752 499.678 206.924C496.995 199.821 487.981 197.5 480.363 197.839C466.187 198.47 453.1 204.538 439.734 208.635C436.423 209.674 433.062 210.547 429.663 211.249C426.663 211.848 423.033 211.6 420.172 212.559C415.084 214.266 415.213 225.338 414.492 229.931C413.001 238.876 412.351 247.94 412.547 257.005Z" fill="#2F2E41"/>
<path d="M488.192 419.048C489.442 420.302 489.851 422.14 490.176 423.876C491.982 433.509 492.921 443.284 492.983 453.083C492.899 453.997 493.083 454.916 493.511 455.729C493.863 456.214 494.34 456.595 494.892 456.833C498.505 458.546 502.698 456.158 505.709 453.534C511.29 448.669 516.012 442.14 516.329 434.764C516.271 432.864 516.338 430.962 516.529 429.071C517.02 426.294 518.649 423.875 520.085 421.444C522.529 417.307 524.5 412.91 525.961 408.337C526.51 406.619 526.875 404.455 525.522 403.256C525.042 402.882 524.497 402.6 523.914 402.424L507.593 396.394C506.179 395.872 502.66 404.867 502.101 405.851C500.735 408.256 499.376 409.622 496.635 410.177C493.837 410.744 490.506 409.93 487.895 411.32C483.479 413.669 485.691 416.538 488.192 419.048Z" fill="#535070"/>
<path d="M463.009 424.599C462.706 423.998 462.283 423.465 461.767 423.031C461.012 422.555 460.153 422.264 459.261 422.184C456.154 421.659 452.472 421.314 450.327 423.612C448.317 425.766 448.662 429.276 446.981 431.694C446.449 432.459 445.728 433.09 445.267 433.9C444.694 435.138 444.436 436.496 444.515 437.857C444.428 441.604 444.342 445.359 444.602 449.099C444.82 452.232 445.351 455.516 447.32 457.972C450.481 461.912 456.183 462.479 461.243 462.735L465.342 462.942C466.471 463.078 467.616 462.974 468.701 462.635C469.373 462.326 469.975 461.887 470.473 461.342C470.97 460.797 471.353 460.158 471.598 459.463C473.732 454.187 470.353 448.502 468.272 443.205C465.88 437.116 466.309 430.355 463.009 424.599Z" fill="#535070"/>
<path d="M429.087 36.2396C429.037 35.7047 429.116 35.1655 429.318 34.6672C429.918 33.6109 431.486 33.8984 432.668 34.195C437.423 35.388 442.434 34.3081 447.33 34.5868C452.226 34.8655 457.742 37.3012 458.726 42.0818C462.28 39.5748 465.343 36.4426 467.766 32.8397C469.124 30.8162 470.309 28.4985 470.124 26.0718C469.857 22.5717 466.906 19.954 464.173 17.7342L456.027 11.1171C454.958 10.1394 453.723 9.35816 452.38 8.80973C450.499 8.17008 448.448 8.47484 446.46 8.47611C440.53 8.47989 434.208 5.79463 428.934 8.49213C426.731 9.61893 425.073 11.5499 423.475 13.4327L416.205 21.9963C415.657 22.5421 415.257 23.2167 415.042 23.9574C414.835 25.0027 415.375 26.0343 415.563 27.083C415.907 28.9962 415.079 31.0379 415.715 32.8752C416.772 35.9252 420.494 36.357 422.769 38.1055C423.617 38.7572 424.946 40.9658 425.956 40.9389C427.779 40.8902 429.04 37.6489 429.087 36.2396Z" fill="#3F3D56"/>
<path d="M441.424 61.4816C454.281 61.4816 464.705 51.1098 464.705 38.3155C464.705 25.5211 454.281 15.1493 441.424 15.1493C428.566 15.1493 418.142 25.5211 418.142 38.3155C418.142 51.1098 428.566 61.4816 441.424 61.4816Z" fill="#A0616A"/>
<path d="M446.877 89.0156C446.087 86.7642 444.597 84.8217 442.623 83.4699C440.649 82.118 438.293 81.4271 435.898 81.4972C435.212 81.6242 434.504 81.5351 433.872 81.2424C433.515 80.9692 433.229 80.6139 433.04 80.2069C431.624 77.6738 430.486 74.9967 429.645 72.2216C429.274 70.9954 428.766 69.5499 427.52 69.2311C427.004 69.1639 426.479 69.2375 426.001 69.4441C425.524 69.6507 425.112 69.9825 424.81 70.4041C424.218 71.2525 423.571 72.0617 422.873 72.8264C419.945 75.4315 414.754 73.057 411.647 75.4471C411.139 75.8375 410.72 76.3376 410.187 76.6928C409.653 77.0124 409.078 77.2578 408.477 77.422C402.476 79.3716 396.593 81.6644 390.857 84.2891C392.924 96.6771 395.043 109.281 399.888 120.876C402.194 126.394 404.808 131.798 406.654 137.485C410.746 150.085 410.927 163.566 410.973 176.807C411.004 185.869 410.959 195.125 408.013 203.7C407.22 205.595 406.661 207.578 406.349 209.607C406.171 211.65 406.768 213.903 408.432 215.114C409.397 215.742 410.5 216.127 411.647 216.238C416.753 216.983 421.9 215.631 426.927 214.473C440.401 211.368 454.144 209.591 467.859 207.819L490.843 204.849C492.49 204.738 494.102 204.323 495.598 203.626C499.804 201.335 500.203 195.04 497.591 191.039C496.339 189.121 494.572 187.547 493.52 185.513C492.468 183.479 492.379 180.636 494.19 179.227C497.874 176.362 496.775 171.046 496.951 166.396C497.442 153.396 497.375 140.39 496.751 127.379C496.567 124.686 496.523 121.985 496.621 119.287C497.03 114.716 497.879 110.194 499.156 105.784L506.14 78.4223C504.316 75.5536 500.822 73.7336 497.513 72.9073C494.204 72.0809 490.758 71.8377 487.499 70.8329C480.823 68.7743 474.879 63.5502 467.907 64.0371C467.379 64.0465 466.861 64.1726 466.388 64.4061C464.816 65.2925 465.065 67.5474 464.964 69.343C464.742 73.3157 461.805 76.6359 458.563 78.9638C455.32 81.2917 451.616 82.9891 448.638 85.6439C448.11 86.0396 447.678 86.5478 447.374 87.1312C447.069 87.7146 446.899 88.3584 446.877 89.0156Z" fill="#F9E006"/>
<path d="M354.628 114.968C353.085 115.965 351.444 116.805 349.731 117.476C348.054 117.972 346.47 118.737 345.04 119.741C344.382 120.308 343.829 120.987 343.409 121.746C342.621 123.137 342.223 124.713 342.255 126.309C342.288 127.905 342.751 129.463 343.595 130.821C344.439 132.178 345.634 133.286 347.056 134.027C348.477 134.768 350.072 135.116 351.674 135.034C353.803 134.797 355.873 134.183 357.786 133.221L374.206 126.141C376.985 124.942 379.988 123.538 381.301 120.822C381.454 120.569 381.511 120.269 381.461 119.978C381.329 119.67 381.089 119.419 380.787 119.272C377.083 116.879 373.844 113.839 371.225 110.301C370.552 109.391 369.727 107.242 368.775 106.696C365.299 104.704 357.41 113.172 354.628 114.968Z" fill="#A0616A"/>
<path d="M530.172 109.159L536.226 116.04C537.525 117.518 538.826 118.997 540.011 120.567C542.92 124.556 545.254 128.931 546.945 133.565C548.261 137.001 549.353 140.661 548.893 144.309C548.588 146.18 548.08 148.012 547.379 149.773C546.269 153.162 544.894 156.458 543.265 159.632C541.895 162.044 540.348 164.351 538.636 166.535C533.949 172.717 528.82 178.554 523.29 184.002C521.22 186.041 520.352 189.337 519.451 192.093C517.789 197.176 513.835 201.135 510.011 204.889C508.783 206.18 507.424 207.343 505.958 208.36C503.761 209.768 501.194 210.495 498.582 210.45C497.438 210.458 496.306 210.225 495.259 209.766C492.643 208.529 491.313 205.518 491.04 202.649C490.797 200.045 491.235 197.422 492.313 195.037C495.787 187.379 504.708 184.061 511.014 178.474C514.711 175.197 517.539 171.082 520.328 167.011C522.222 164.47 523.803 161.712 525.038 158.796C526.446 155.057 525.898 150.63 527.128 146.83C527.648 145.223 528.573 143.773 529.132 142.179C529.691 140.586 529.832 138.694 528.854 137.315C528.116 136.439 527.175 135.754 526.113 135.318C522.085 133.284 517.573 130.666 516.802 126.237C516.495 123.78 517.14 121.3 518.606 119.3C520.067 117.327 521.773 115.547 523.686 114.003C525.447 112.453 528.41 110.709 530.172 109.159Z" fill="#A0616A"/>
<path d="M350.742 124.574C349.673 122.425 348.336 120.233 346.179 119.165C345.134 118.713 344.006 118.478 342.866 118.473C341.726 118.468 340.597 118.694 339.548 119.137C337.456 120.035 335.498 121.213 333.728 122.639L328.509 126.467C327.326 127.239 326.279 128.2 325.411 129.312C324.588 130.661 324.04 132.158 323.798 133.717C322.888 137.274 322.611 140.961 322.977 144.613C323.805 150.469 327.353 155.581 331.258 160.038C333.698 162.823 336.711 165.634 340.422 165.752C342.024 165.804 343.806 165.175 344.472 163.725C344.703 163.15 344.826 162.537 344.834 161.918C345.235 155.387 342.887 149.007 340.149 143.058C339.276 141.501 338.76 139.77 338.638 137.991C338.619 137.691 338.697 137.393 338.861 137.142C339.098 136.897 339.413 136.744 339.752 136.709C343.5 135.971 349.955 138.868 352.583 134.727C354.288 132.043 351.953 127.009 350.742 124.574Z" fill="#A0616A"/>
<path d="M427.866 28.9497C427.816 28.4147 427.895 27.8756 428.097 27.3773C428.697 26.321 430.265 26.6085 431.447 26.9051C436.202 28.0981 441.213 27.0182 446.109 27.2969C451.005 27.5756 456.521 30.0113 457.505 34.7919C461.059 32.2849 464.122 29.1527 466.545 25.5498C467.904 23.5263 469.088 21.2086 468.903 18.7819C468.636 15.2818 465.685 12.6641 462.952 10.4443L454.806 3.8272C453.737 2.84947 452.502 2.06824 451.159 1.51982C449.278 0.880175 447.227 1.18492 445.239 1.18619C439.309 1.18997 432.987 -1.49528 427.713 1.2022C425.51 2.32901 423.852 4.25996 422.254 6.14278L414.984 14.7064C414.436 15.2522 414.037 15.9268 413.821 16.6674C413.615 17.7128 414.154 18.7444 414.342 19.7931C414.686 21.7063 413.858 23.7481 414.494 25.5853C415.551 28.6353 419.273 29.0671 421.548 30.8156C422.396 31.4673 423.725 33.6759 424.735 33.649C426.558 33.6003 427.819 30.359 427.866 28.9497Z" fill="#3F3D56"/>
<path d="M378.419 92.4357C377.479 93.039 376.654 93.8032 375.982 94.693C375.129 95.9772 374.955 97.5984 374.222 98.9542C372.653 101.855 368.983 102.888 366.694 105.268C366.33 105.595 366.077 106.026 365.97 106.503C365.959 107.149 366.177 107.778 366.585 108.28L377.625 125.55C381.301 125.872 384.827 123.581 388.505 123.885C389.878 123.998 391.283 124.47 392.599 124.067C393.542 123.651 394.426 123.113 395.227 122.468C397.421 121.087 400.343 120.926 402.184 119.105C403.95 117.358 404.175 114.623 404.154 112.144C404.184 109.992 403.964 107.843 403.498 105.741C401.873 99.112 396.778 94.025 393.584 88.153C392.029 85.2943 391.182 83.6207 387.891 85.5836C384.583 87.5567 381.533 90.1701 378.419 92.4357Z" fill="#F9E006"/>
<path d="M512.497 83.702C514.572 85.0426 516.442 86.6728 518.051 88.5427C519.733 90.7006 520.685 93.3415 522.301 95.5489C523.867 97.6886 525.998 99.3457 527.775 101.316C530.468 104.304 532.293 107.949 534.085 111.546C529.708 117.225 524.937 122.592 519.804 127.606C519.233 128.276 518.48 128.768 517.636 129.024C517.061 129.085 516.481 129.003 515.946 128.786C515.411 128.569 514.939 128.224 514.57 127.781C513.775 126.951 513.212 125.927 512.452 125.065C510.658 123.224 508.267 122.073 505.702 121.817C503.16 121.573 500.603 121.538 498.055 121.712C497.496 121.774 496.93 121.68 496.422 121.439C496.044 121.18 495.738 120.83 495.531 120.422C492.542 115.361 493.503 109.007 494.558 103.231L496.977 89.9776C497.328 87.4465 498.005 84.9708 498.991 82.6117C499.908 80.6626 501.957 77.3575 504.477 77.941C507.018 78.5292 510.36 82.1723 512.497 83.702Z" fill="#F9E006"/>
<path d="M69.5793 170.725C89.9086 170.725 106.389 154.296 106.389 134.031C106.389 113.765 89.9086 97.3363 69.5793 97.3363C49.2499 97.3363 32.7698 113.765 32.7698 134.031C32.7698 154.296 49.2499 170.725 69.5793 170.725Z" fill="white"/>
<path d="M69.5793 91.083C60.8785 91.083 52.3731 93.6504 45.1387 98.4604C37.9043 103.27 32.2657 110.107 28.9361 118.106C25.6065 126.105 24.7353 134.906 26.4327 143.398C28.1301 151.889 32.32 159.689 38.4723 165.811C44.6247 171.933 52.4633 176.102 60.9969 177.791C69.5305 179.48 78.3757 178.613 86.4142 175.3C94.4527 171.987 101.323 166.376 106.157 159.178C110.991 151.979 113.571 143.515 113.571 134.858C113.537 123.258 108.891 112.144 100.648 103.942C92.4058 95.7398 81.2361 91.117 69.5793 91.083ZM60.5483 158.197L38.0024 135.763L44.3263 129.47L60.5694 145.633L94.8534 111.518L101.177 117.811L60.5482 158.197L60.5483 158.197Z" fill="#57B894"/>
</svg>
