<svg width="549" height="463" viewBox="0 0 549 463" fill="none" xmlns="http://www.w3.org/2000/svg">
<path d="M388.67 461.828H43.169C31.839 461.828 20.9731 457.349 12.9615 449.377C4.95003 441.405 0.449219 430.593 0.449219 419.319V261.809C0.449219 259.522 0.917503 257.259 1.82547 255.157C2.73344 253.056 4.06206 251.161 5.73033 249.587L188.812 76.8984C196.132 69.994 205.833 66.1455 215.919 66.1455C226.005 66.1455 235.707 69.994 243.027 76.8984L417.586 241.548C421.946 245.661 425.419 250.615 427.792 256.107C430.166 261.6 431.39 267.516 431.39 273.495V419.319C431.39 424.901 430.285 430.429 428.138 435.586C425.991 440.744 422.844 445.43 418.877 449.377C414.91 453.325 410.201 456.456 405.018 458.592C399.835 460.728 394.28 461.828 388.67 461.828Z" fill="black"/>
<path opacity="0.1" d="M0.449219 264.395H427.798V436.159C427.798 442.967 425.081 449.496 420.243 454.309C415.405 459.123 408.844 461.827 402.003 461.827H26.2448C19.4034 461.827 12.8422 459.123 8.00457 454.309C3.16696 449.496 0.449219 442.967 0.449219 436.159V264.395Z" fill="black"/>
<path d="M350.874 129.051H80.0657C67.0842 129.051 56.5605 139.522 56.5605 152.44V421.91C56.5605 434.828 67.0842 445.3 80.0657 445.3H350.874C363.855 445.3 374.379 434.828 374.379 421.91V152.44C374.379 139.522 363.855 129.051 350.874 129.051Z" fill="#F9E006"/>
<path opacity="0.1" d="M374.379 271.498V445.301H56.5605V271.498L215.47 347.925L374.379 271.498Z" fill="black"/>
<path d="M215.47 357.752L11.8564 259.825C10.597 259.219 9.20366 258.942 7.80697 259.018C6.41028 259.095 5.05598 259.523 3.87104 260.263C2.68611 261.002 1.70933 262.029 1.03226 263.247C0.355196 264.465 1.409e-06 265.834 0 267.226V435.714C-1.179e-06 439.084 0.667214 442.422 1.96356 445.536C3.25992 448.651 5.16002 451.48 7.55537 453.864C9.95071 456.247 12.7944 458.138 15.9241 459.428C19.0537 460.718 22.4081 461.382 25.7956 461.382H405.145C408.532 461.382 411.887 460.718 415.016 459.428C418.146 458.138 420.99 456.247 423.385 453.864C425.78 451.48 427.68 448.651 428.977 445.536C430.273 442.422 430.94 439.084 430.94 435.714V270.113C430.94 268.414 430.507 266.743 429.681 265.257C428.855 263.771 427.663 262.518 426.217 261.615C424.771 260.712 423.118 260.19 421.414 260.097C419.709 260.003 418.009 260.342 416.472 261.081L215.47 357.752Z" fill="black"/>
<path d="M172.825 158.085H83.9434V170.592H172.825V158.085Z" fill="#F2F2F2"/>
<path d="M340.713 203.646H76.7617V210.793H340.713V203.646Z" fill="#F2F2F2"/>
<path d="M340.713 227.767H76.7617V234.914H340.713V227.767Z" fill="#F2F2F2"/>
<path d="M340.713 251.889H76.7617V259.035H340.713V251.889Z" fill="#F2F2F2"/>
<path d="M430.275 63.1921C429.736 67.9756 426.069 71.8289 424.711 76.4487C422.666 83.4022 426.202 90.8639 431.038 96.2793C434.941 100.603 439.667 104.113 444.943 106.605C450.219 109.098 455.939 110.524 461.773 110.8C463.487 110.95 465.214 110.763 466.855 110.249C468.32 109.663 469.639 108.766 470.721 107.62C474.363 103.981 476.319 98.9381 477.098 93.8605C477.877 88.783 477.574 83.61 477.27 78.4825C477.271 77.4226 477.078 76.3714 476.699 75.3808C476.202 74.4372 475.52 73.6025 474.692 72.9265C472.07 70.5327 469.181 68.4446 466.083 66.703C464.682 66.0785 463.447 65.138 462.475 63.956C461.889 62.9435 461.51 61.8258 461.36 60.6673L460.409 55.8441C460.239 54.4542 459.762 53.119 459.012 51.9344C457.332 49.6789 454.117 49.3719 451.298 49.2619L440.969 48.8587C437.756 48.7333 433.522 47.8165 430.386 48.4443C427.457 49.0307 428.43 51.7164 428.962 54.1618C429.733 57.1144 430.174 60.143 430.275 63.1921Z" fill="#A0616A"/>
<path opacity="0.1" d="M430.275 63.1921C429.736 67.9756 426.069 71.8289 424.711 76.4487C422.666 83.4022 426.202 90.8639 431.038 96.2793C434.941 100.603 439.667 104.113 444.943 106.605C450.219 109.098 455.939 110.524 461.773 110.8C463.487 110.95 465.214 110.763 466.855 110.249C468.32 109.663 469.639 108.766 470.721 107.62C474.363 103.981 476.319 98.9381 477.098 93.8605C477.877 88.783 477.574 83.61 477.27 78.4825C477.271 77.4226 477.078 76.3714 476.699 75.3808C476.202 74.4372 475.52 73.6025 474.692 72.9265C472.07 70.5327 469.181 68.4446 466.083 66.703C464.682 66.0785 463.447 65.138 462.475 63.956C461.889 62.9435 461.51 61.8258 461.36 60.6673L460.409 55.8441C460.239 54.4542 459.762 53.119 459.012 51.9344C457.332 49.6789 454.117 49.3719 451.298 49.2619L440.969 48.8587C437.756 48.7333 433.522 47.8165 430.386 48.4443C427.457 49.0307 428.43 51.7164 428.962 54.1618C429.733 57.1144 430.174 60.143 430.275 63.1921Z" fill="black"/>
<path d="M495.983 278.501C494.52 294.468 493.057 310.432 491.593 326.393C490.448 338.954 489.28 351.567 487.033 363.966C486.257 368.239 485.348 372.49 484.269 376.704C481.268 388.405 476.915 399.841 475.511 411.836C475.466 412.181 475.429 412.534 475.393 412.887C475.235 415.54 474.731 418.161 473.892 420.683C473.19 422.514 472.111 424.184 471.35 425.993C469.835 429.611 469.635 433.612 469.45 437.532C464.121 434.549 458.286 432.565 452.237 431.678C449.318 431.244 446.066 430.935 444.078 428.765C441.875 426.368 442.119 422.698 442.488 419.477C443.649 409.475 444.807 399.478 445.962 389.486C446.339 385.187 447.073 380.927 448.157 376.748C448.556 375.358 449.037 373.99 449.524 372.622C450.197 370.74 450.877 368.857 451.387 366.923C452.122 363.798 452.636 360.625 452.924 357.428C454.114 347.368 455.548 337.329 456.804 327.276L456.871 326.746C458.756 311.508 460.19 296.196 459.776 280.848C459.716 278.575 459.62 276.303 459.473 274.023C459.266 270.721 458.963 268.97 461.712 266.904C464.75 264.624 468.748 263.028 472.222 261.535C474.092 260.726 494.683 253.453 495.163 255.049C496.129 258.453 496.636 261.969 496.671 265.506C496.685 269.847 496.456 274.186 495.983 278.501Z" fill="black"/>
<path opacity="0.1" d="M487.032 363.967C486.256 368.24 485.347 372.491 484.268 376.705C481.267 388.405 476.914 399.841 475.51 411.836C475.465 412.182 475.428 412.535 475.391 412.888C466.212 399.841 458.481 385.809 449.523 372.623C450.196 370.74 450.876 368.858 451.386 366.923C452.121 363.798 452.634 360.626 452.923 357.429C454.113 347.368 455.547 337.33 456.803 327.276L456.87 326.747C457.396 328.881 458.146 330.954 459.109 332.932C465.125 345.096 479.419 351.244 486.411 362.886C486.625 363.246 486.832 363.607 487.032 363.967Z" fill="black"/>
<path d="M412.548 257.005C412.851 266.761 414.421 276.429 415.987 286.065L419.218 305.945C420.987 316.826 422.828 327.928 428.003 337.674C431.874 344.964 437.451 351.185 442.496 357.725C454.9 373.804 464.218 392.018 475.979 408.569C479.397 413.379 484.284 418.581 490.118 417.577C493.947 416.918 496.728 413.745 499.738 411.3C503.286 408.416 507.563 406.306 510.355 402.692C513.147 399.077 513.694 393.069 509.912 390.497C508.543 389.743 507.09 389.151 505.582 388.734C499.718 386.515 495.923 380.817 493.508 375.056C491.093 369.294 489.63 363.099 486.412 357.74C479.421 346.098 465.125 339.95 459.107 327.782C455.737 320.966 455.415 313.111 455.158 305.519L454.501 286.167C454.429 284.051 454.373 281.85 455.238 279.915C457.539 274.764 464.489 274.284 470.117 273.631C476.504 272.886 482.691 270.944 488.351 267.907C491.592 266.165 494.759 263.945 496.493 260.711C498.075 257.76 498.293 254.3 498.479 250.961L500.427 215.889C500.595 212.872 500.748 209.752 499.679 206.924C496.995 199.821 487.982 197.5 480.364 197.839C466.188 198.47 453.101 204.538 439.735 208.635C436.424 209.674 433.063 210.547 429.664 211.249C426.664 211.848 423.033 211.6 420.172 212.559C415.084 214.266 415.214 225.338 414.492 229.931C413.002 238.876 412.351 247.94 412.548 257.005Z" fill="black"/>
<path d="M488.193 419.048C489.443 420.302 489.851 422.14 490.177 423.876C491.983 433.509 492.922 443.284 492.983 453.083C492.9 453.997 493.083 454.916 493.512 455.729C493.864 456.214 494.341 456.595 494.892 456.833C498.505 458.546 502.699 456.158 505.709 453.534C511.29 448.669 516.013 442.14 516.33 434.764C516.272 432.864 516.338 430.962 516.53 429.071C517.02 426.294 518.65 423.875 520.086 421.444C522.529 417.307 524.5 412.91 525.962 408.337C526.511 406.619 526.876 404.455 525.523 403.256C525.043 402.882 524.498 402.6 523.914 402.424L507.594 396.394C506.179 395.872 502.66 404.867 502.102 405.851C500.735 408.256 499.377 409.622 496.636 410.177C493.837 410.744 490.507 409.93 487.896 411.32C483.479 413.669 485.692 416.538 488.193 419.048Z" fill="#141414"/>
<path d="M463.009 424.599C462.705 423.998 462.283 423.465 461.767 423.031C461.011 422.555 460.152 422.264 459.261 422.184C456.154 421.659 452.471 421.314 450.327 423.612C448.316 425.766 448.662 429.276 446.981 431.694C446.449 432.459 445.728 433.09 445.267 433.9C444.694 435.138 444.436 436.496 444.514 437.857C444.428 441.604 444.341 445.359 444.601 449.099C444.819 452.232 445.35 455.516 447.32 457.972C450.481 461.912 456.182 462.479 461.243 462.735L465.341 462.942C466.47 463.078 467.615 462.974 468.7 462.635C469.372 462.326 469.975 461.887 470.472 461.342C470.97 460.797 471.353 460.158 471.598 459.463C473.731 454.187 470.352 448.502 468.271 443.205C465.879 437.116 466.309 430.355 463.009 424.599Z" fill="#141414"/>
<path d="M429.087 36.2396C429.037 35.7047 429.116 35.1655 429.318 34.6672C429.918 33.6109 431.486 33.8984 432.668 34.195C437.424 35.388 442.434 34.3081 447.331 34.5868C452.227 34.8655 457.742 37.3012 458.726 42.0818C462.28 39.5748 465.344 36.4426 467.766 32.8397C469.125 30.8162 470.309 28.4985 470.124 26.0718C469.857 22.5717 466.906 19.954 464.173 17.7342L456.028 11.1171C454.958 10.1394 453.724 9.35816 452.38 8.80973C450.499 8.17008 448.448 8.47484 446.46 8.47611C440.53 8.47989 434.208 5.79463 428.935 8.49213C426.732 9.61893 425.073 11.5499 423.475 13.4327L416.205 21.9963C415.657 22.5421 415.258 23.2167 415.043 23.9574C414.836 25.0027 415.375 26.0343 415.563 27.083C415.907 28.9962 415.079 31.0379 415.715 32.8752C416.772 35.9252 420.494 36.357 422.769 38.1055C423.617 38.7572 424.946 40.9658 425.957 40.9389C427.78 40.8902 429.04 37.6489 429.087 36.2396Z" fill="#3F3D56"/>
<path d="M441.424 61.4816C454.282 61.4816 464.705 51.1098 464.705 38.3155C464.705 25.5211 454.282 15.1493 441.424 15.1493C428.566 15.1493 418.143 25.5211 418.143 38.3155C418.143 51.1098 428.566 61.4816 441.424 61.4816Z" fill="#A0616A"/>
<path d="M446.877 89.0156C446.087 86.7642 444.597 84.8217 442.623 83.4699C440.649 82.118 438.293 81.4271 435.898 81.4972C435.213 81.6242 434.505 81.5351 433.873 81.2424C433.515 80.9692 433.23 80.6139 433.04 80.2069C431.625 77.6738 430.487 74.9967 429.646 72.2216C429.274 70.9954 428.766 69.5499 427.52 69.2311C427.004 69.1639 426.479 69.2375 426.002 69.4441C425.524 69.6507 425.112 69.9825 424.81 70.4041C424.218 71.2525 423.571 72.0617 422.873 72.8264C419.945 75.4315 414.755 73.057 411.647 75.4471C411.139 75.8375 410.72 76.3376 410.187 76.6928C409.653 77.0124 409.078 77.2578 408.478 77.422C402.476 79.3716 396.593 81.6644 390.857 84.2891C392.925 96.6771 395.043 109.281 399.889 120.876C402.195 126.394 404.808 131.798 406.654 137.485C410.746 150.085 410.927 163.566 410.973 176.807C411.005 185.869 410.959 195.125 408.013 203.7C407.22 205.595 406.661 207.578 406.349 209.607C406.171 211.65 406.769 213.903 408.432 215.114C409.397 215.742 410.5 216.127 411.648 216.238C416.753 216.983 421.9 215.631 426.927 214.473C440.402 211.368 454.144 209.591 467.86 207.819L490.843 204.849C492.49 204.738 494.103 204.323 495.598 203.626C499.804 201.335 500.203 195.04 497.591 191.039C496.339 189.121 494.573 187.547 493.521 185.513C492.469 183.479 492.379 180.636 494.19 179.227C497.874 176.362 496.775 171.046 496.951 166.396C497.442 153.396 497.376 140.39 496.751 127.379C496.567 124.686 496.524 121.985 496.622 119.287C497.03 114.716 497.879 110.194 499.157 105.784L506.14 78.4223C504.316 75.5536 500.823 73.7336 497.514 72.9073C494.204 72.0809 490.758 71.8377 487.499 70.8329C480.823 68.7743 474.879 63.5502 467.907 64.0371C467.38 64.0465 466.861 64.1726 466.388 64.4061C464.816 65.2925 465.065 67.5474 464.964 69.343C464.742 73.3157 461.806 76.6359 458.563 78.9638C455.32 81.2917 451.617 82.9891 448.638 85.6439C448.111 86.0396 447.679 86.5478 447.374 87.1312C447.069 87.7146 446.899 88.3584 446.877 89.0156Z" fill="#F9E006"/>
<path d="M354.629 114.968C353.085 115.965 351.444 116.805 349.732 117.476C348.055 117.972 346.471 118.737 345.041 119.741C344.382 120.308 343.83 120.987 343.41 121.746C342.622 123.137 342.223 124.713 342.256 126.309C342.288 127.905 342.751 129.463 343.595 130.821C344.44 132.178 345.635 133.286 347.056 134.027C348.477 134.768 350.072 135.116 351.674 135.034C353.804 134.797 355.874 134.183 357.786 133.221L374.207 126.141C376.986 124.942 379.988 123.538 381.302 120.822C381.455 120.569 381.511 120.269 381.462 119.978C381.329 119.67 381.09 119.419 380.787 119.272C377.083 116.879 373.844 113.839 371.226 110.301C370.552 109.391 369.728 107.242 368.775 106.696C365.3 104.704 357.411 113.172 354.629 114.968Z" fill="#A0616A"/>
<path d="M530.172 109.159L536.226 116.04C537.525 117.518 538.826 118.997 540.011 120.567C542.92 124.556 545.254 128.931 546.945 133.565C548.261 137.001 549.353 140.661 548.893 144.309C548.588 146.18 548.08 148.012 547.379 149.773C546.269 153.162 544.894 156.458 543.265 159.632C541.895 162.044 540.348 164.351 538.636 166.535C533.949 172.717 528.82 178.554 523.29 184.002C521.22 186.041 520.352 189.337 519.451 192.093C517.789 197.176 513.835 201.135 510.011 204.889C508.783 206.18 507.424 207.343 505.958 208.36C503.761 209.768 501.194 210.495 498.582 210.45C497.438 210.458 496.306 210.225 495.259 209.766C492.643 208.529 491.313 205.518 491.04 202.649C490.797 200.045 491.235 197.422 492.313 195.037C495.787 187.379 504.708 184.061 511.014 178.474C514.711 175.197 517.539 171.082 520.328 167.011C522.222 164.47 523.803 161.712 525.038 158.796C526.446 155.057 525.898 150.63 527.128 146.83C527.648 145.223 528.573 143.773 529.132 142.179C529.691 140.586 529.832 138.694 528.854 137.315C528.116 136.439 527.175 135.754 526.113 135.318C522.085 133.284 517.573 130.666 516.802 126.237C516.495 123.78 517.14 121.3 518.606 119.3C520.067 117.327 521.773 115.547 523.686 114.003C525.447 112.453 528.41 110.709 530.172 109.159Z" fill="#A0616A"/>
<path d="M350.742 124.574C349.673 122.425 348.336 120.233 346.179 119.165C345.133 118.713 344.006 118.478 342.866 118.473C341.726 118.468 340.597 118.694 339.547 119.137C337.456 120.035 335.497 121.213 333.727 122.639L328.509 126.467C327.326 127.239 326.279 128.2 325.411 129.312C324.588 130.661 324.039 132.158 323.798 133.717C322.888 137.274 322.61 140.961 322.977 144.613C323.805 150.469 327.353 155.581 331.258 160.038C333.698 162.823 336.711 165.634 340.422 165.752C342.024 165.804 343.806 165.175 344.472 163.725C344.703 163.15 344.825 162.537 344.834 161.918C345.235 155.387 342.887 149.007 340.149 143.058C339.276 141.501 338.76 139.77 338.638 137.991C338.619 137.691 338.697 137.393 338.861 137.142C339.097 136.897 339.413 136.744 339.752 136.709C343.5 135.971 349.954 138.868 352.583 134.727C354.287 132.043 351.953 127.009 350.742 124.574Z" fill="#A0616A"/>
<path d="M427.867 28.9497C427.817 28.4147 427.896 27.8756 428.097 27.3773C428.698 26.321 430.265 26.6085 431.448 26.9051C436.203 28.0981 441.214 27.0182 446.11 27.2969C451.006 27.5756 456.521 30.0113 457.506 34.7919C461.059 32.2849 464.123 29.1527 466.545 25.5498C467.904 23.5263 469.088 21.2086 468.903 18.7819C468.637 15.2818 465.685 12.6641 462.953 10.4443L454.807 3.8272C453.738 2.84947 452.503 2.06824 451.16 1.51982C449.279 0.880175 447.227 1.18492 445.239 1.18619C439.31 1.18997 432.988 -1.49528 427.714 1.2022C425.511 2.32901 423.853 4.25996 422.254 6.14278L414.984 14.7064C414.437 15.2522 414.037 15.9268 413.822 16.6674C413.615 17.7128 414.155 18.7444 414.343 19.7931C414.686 21.7063 413.858 23.7481 414.495 25.5853C415.552 28.6353 419.273 29.0671 421.549 30.8156C422.397 31.4673 423.726 33.6759 424.736 33.649C426.559 33.6003 427.819 30.359 427.867 28.9497Z" fill="black"/>
<path d="M378.42 92.4357C377.48 93.039 376.655 93.8032 375.983 94.693C375.129 95.9772 374.956 97.5984 374.223 98.9542C372.654 101.855 368.984 102.888 366.695 105.268C366.331 105.595 366.078 106.026 365.971 106.503C365.96 107.149 366.178 107.778 366.586 108.28L377.626 125.55C381.302 125.872 384.828 123.581 388.505 123.885C389.878 123.998 391.284 124.47 392.6 124.067C393.543 123.651 394.426 123.113 395.228 122.468C397.422 121.087 400.344 120.926 402.184 119.105C403.951 117.358 404.176 114.623 404.155 112.144C404.185 109.992 403.964 107.843 403.499 105.741C401.873 99.112 396.778 94.025 393.584 88.153C392.029 85.2943 391.183 83.6207 387.892 85.5836C384.584 87.5567 381.533 90.1701 378.42 92.4357Z" fill="#F9E006"/>
<path d="M512.496 83.702C514.571 85.0426 516.442 86.6728 518.05 88.5427C519.732 90.7006 520.685 93.3415 522.3 95.5489C523.866 97.6886 525.998 99.3457 527.774 101.316C530.468 104.304 532.292 107.949 534.084 111.546C529.708 117.225 524.936 122.592 519.804 127.606C519.233 128.276 518.48 128.768 517.635 129.024C517.061 129.085 516.48 129.003 515.946 128.786C515.411 128.569 514.938 128.224 514.57 127.781C513.775 126.951 513.211 125.927 512.451 125.065C510.657 123.224 508.266 122.073 505.702 121.817C503.16 121.573 500.602 121.538 498.055 121.712C497.495 121.774 496.93 121.68 496.421 121.439C496.043 121.18 495.737 120.83 495.53 120.422C492.541 115.361 493.503 109.007 494.557 103.231L496.977 89.9776C497.327 87.4465 498.004 84.9708 498.991 82.6117C499.907 80.6626 501.957 77.3575 504.477 77.941C507.017 78.5292 510.359 82.1723 512.496 83.702Z" fill="#F9E006"/>
<path d="M69.579 170.725C89.9083 170.725 106.389 154.296 106.389 134.031C106.389 113.765 89.9083 97.3363 69.579 97.3363C49.2497 97.3363 32.7695 113.765 32.7695 134.031C32.7695 154.296 49.2497 170.725 69.579 170.725Z" fill="white"/>
<path d="M69.5797 91.083C60.879 91.083 52.3736 93.6504 45.1392 98.4604C37.9048 103.27 32.2662 110.107 28.9366 118.106C25.607 126.105 24.7358 134.906 26.4332 143.398C28.1306 151.889 32.3205 159.689 38.4728 165.811C44.6252 171.933 52.4638 176.102 60.9974 177.791C69.5309 179.48 78.3762 178.613 86.4147 175.3C94.4531 171.987 101.324 166.376 106.158 159.178C110.991 151.979 113.572 143.515 113.572 134.858C113.537 123.258 108.892 112.144 100.649 103.942C92.4063 95.7398 81.2366 91.117 69.5797 91.083ZM60.5487 158.197L38.0029 135.763L44.3267 129.47L60.5699 145.633L94.8539 111.518L101.178 117.811L60.5487 158.197L60.5487 158.197Z" fill="#57B894"/>
</svg>
