<svg width="475" height="577" viewBox="0 0 475 577" fill="none" xmlns="http://www.w3.org/2000/svg">
<path d="M474.106 7.78049V541.921C474.106 543.026 473.922 544.12 473.565 545.14C473.207 546.159 472.683 547.083 472.023 547.859C471.364 548.634 470.581 549.245 469.722 549.656C468.862 550.067 467.943 550.269 467.018 550.251H226.642C225.804 550.267 224.971 550.081 224.194 549.705C223.417 549.329 222.711 548.77 222.118 548.062C221.525 547.354 221.057 546.512 220.743 545.584C220.428 544.656 220.272 543.662 220.285 542.661V7.09732C220.255 6.21093 220.372 5.32626 220.629 4.49406C220.887 3.66187 221.279 2.89855 221.784 2.24792C222.289 1.59729 222.897 1.07216 223.573 0.702683C224.248 0.333207 224.978 0.126663 225.72 0.0948898H282.858C283.74 0.11559 284.597 0.449845 285.319 1.05494C286.041 1.66003 286.595 2.50846 286.911 3.49174L289.533 11.0825C289.855 12.0616 290.414 12.904 291.139 13.5022C291.864 14.1005 292.721 14.4274 293.602 14.4413H401.059C401.933 14.4333 402.785 14.115 403.506 13.527C404.228 12.939 404.787 12.1078 405.112 11.1394L407.734 3.41583C408.05 2.43044 408.603 1.57939 409.325 0.971079C410.047 0.362768 410.904 0.0247261 411.787 0H467.955C469.633 0.0644912 471.222 0.918761 472.374 2.3764C473.526 3.83404 474.149 5.77671 474.106 7.78049Z" fill="white"/>
<path d="M474.122 35.7336H220.316V512.374H474.122V35.7336Z" fill="#F9E006"/>
<path opacity="0.7" d="M474.122 35.7336H220.316V512.374H474.122V35.7336Z" fill="white"/>
<path opacity="0.6" d="M250.292 23.0759H253.582V17.8573H250.292V23.0759Z" fill="white"/>
<path opacity="0.6" d="M244.937 23.0759H248.227V16.1114H244.937V23.0759Z" fill="white"/>
<path opacity="0.6" d="M239.579 23.0759H242.869V14.3656H239.579V23.0759Z" fill="white"/>
<path opacity="0.6" d="M234.224 23.0759H237.514V12.6197H234.224V23.0759Z" fill="white"/>
<path opacity="0.6" d="M444.703 15.9404H442.764V21.1591H444.703V15.9404Z" fill="white"/>
<path opacity="0.6" d="M446.039 23.0759L461.551 23.0759V14.024L446.039 14.024V23.0759Z" fill="white"/>
<path d="M334.656 83.0613H418.177C418.426 83.0893 418.677 83.055 418.914 82.9605C419.151 82.8659 419.369 82.7133 419.554 82.5123C419.739 82.3113 419.887 82.0664 419.988 81.7933C420.089 81.5202 420.141 81.225 420.141 80.9264C420.141 80.6278 420.089 80.3325 419.988 80.0594C419.887 79.7863 419.739 79.5414 419.554 79.3404C419.369 79.1394 419.151 78.9868 418.914 78.8923C418.677 78.7977 418.426 78.7634 418.177 78.7915H334.656C334.21 78.8416 333.797 79.0882 333.496 79.4831C333.195 79.8779 333.028 80.3925 333.028 80.9264C333.028 81.4602 333.195 81.9748 333.496 82.3697C333.797 82.7645 334.21 83.0111 334.656 83.0613Z" fill="#263238"/>
<path d="M437.185 90.9748H334.194C334.01 90.9506 333.823 90.973 333.647 91.0406C333.47 91.1082 333.308 91.2195 333.169 91.3672C333.031 91.5149 332.921 91.6958 332.845 91.8979C332.77 92.1001 332.73 92.319 332.73 92.5404C332.73 92.7618 332.77 92.9807 332.845 93.1829C332.921 93.385 333.031 93.5659 333.169 93.7136C333.308 93.8613 333.47 93.9726 333.647 94.0402C333.823 94.1079 334.01 94.1302 334.194 94.106H437.185C437.508 94.0635 437.806 93.8802 438.023 93.5913C438.24 93.3025 438.36 92.9282 438.36 92.5404C438.36 92.1526 438.24 91.7783 438.023 91.4895C437.806 91.2006 437.508 91.0173 437.185 90.9748Z" fill="#263238"/>
<path d="M406.971 99.9509H334.194C334.01 99.9266 333.823 99.949 333.647 100.017C333.47 100.084 333.308 100.196 333.169 100.343C333.031 100.491 332.921 100.672 332.845 100.874C332.77 101.076 332.73 101.295 332.73 101.516C332.73 101.738 332.77 101.957 332.845 102.159C332.921 102.361 333.031 102.542 333.169 102.69C333.308 102.837 333.47 102.949 333.647 103.016C333.823 103.084 334.01 103.106 334.194 103.082H406.971C407.294 103.04 407.592 102.856 407.809 102.567C408.026 102.279 408.146 101.904 408.146 101.516C408.146 101.129 408.026 100.754 407.809 100.466C407.592 100.177 407.294 99.9934 406.971 99.9509Z" fill="#263238"/>
<path d="M471.086 158.02H223.336V453.83H471.086V158.02Z" fill="#F9E006"/>
<path d="M463.108 485.826L456.131 478.633L449.138 485.826V466.052H463.108V485.826Z" fill="#F9E006"/>
<path d="M437.901 466.052H427.379C426.688 466.052 426.025 466.38 425.536 466.963C425.047 467.547 424.772 468.339 424.772 469.164V477.742C424.772 478.567 425.047 479.359 425.536 479.942C426.025 480.526 426.688 480.854 427.379 480.854H430.955V485.826L433.673 480.854H437.901C438.243 480.856 438.583 480.777 438.901 480.622C439.218 480.466 439.506 480.237 439.748 479.948C439.991 479.658 440.183 479.314 440.313 478.936C440.443 478.557 440.509 478.151 440.507 477.742V469.164C440.509 468.755 440.443 468.349 440.313 467.97C440.183 467.591 439.991 467.247 439.748 466.958C439.506 466.668 439.218 466.439 438.901 466.284C438.583 466.128 438.243 466.049 437.901 466.052Z" fill="#F9E006"/>
<path d="M416.809 468.405C414.87 464.61 411.12 466.033 409.181 468.975C407.257 466.014 403.522 464.515 401.536 468.31C398.214 474.687 404.985 480.664 408.195 483.017L409.101 483.682L410.023 483.017C413.186 480.721 420.084 474.838 416.809 468.405Z" fill="#F9E006"/>
<g opacity="0.3">
<path opacity="0.7" d="M420.497 182.918H429.874L425.186 197.435L420.497 182.918Z" fill="white"/>
<path opacity="0.7" d="M450.711 255.181L453.556 265.846L440.555 264.897L450.711 255.181Z" fill="white"/>
<path opacity="0.3" d="M447.056 208.385L442.605 221.422L456.131 227.058V216.507L447.056 208.385Z" fill="white"/>
<path opacity="0.3" d="M271.685 179.426H278.567L271.685 190.186V179.426Z" fill="white"/>
<path opacity="0.3" d="M245.811 232.466L253.598 230.341L255.776 238.33L246.796 242.068L245.811 232.466Z" fill="white"/>
<path opacity="0.3" d="M324.61 190.186C326.286 190.186 327.646 188.563 327.646 186.562C327.646 184.56 326.286 182.937 324.61 182.937C322.933 182.937 321.574 184.56 321.574 186.562C321.574 188.563 322.933 190.186 324.61 190.186Z" fill="white"/>
<path opacity="0.3" d="M280.378 429.597C280.378 431.021 280.025 432.412 279.362 433.595C278.7 434.778 277.758 435.7 276.656 436.244C275.555 436.788 274.343 436.929 273.174 436.65C272.005 436.371 270.932 435.684 270.09 434.676C269.248 433.668 268.675 432.385 268.445 430.989C268.214 429.592 268.336 428.146 268.794 426.832C269.253 425.518 270.027 424.396 271.02 423.608C272.012 422.82 273.179 422.401 274.371 422.405C275.161 422.405 275.943 422.591 276.673 422.953C277.403 423.315 278.066 423.845 278.624 424.513C279.183 425.181 279.625 425.974 279.926 426.846C280.227 427.719 280.381 428.654 280.378 429.597Z" fill="white"/>
<path opacity="0.3" d="M251.373 367.106L253.598 371.604L242.838 377.107L240.391 374.109L251.373 367.106Z" fill="white"/>
<path opacity="0.3" d="M321.574 440.736L319.477 434.379H327.662L321.574 440.736Z" fill="white"/>
<path opacity="0.3" d="M408.529 434.379L409.165 427.301L420.386 430.831V441.173L408.529 434.379Z" fill="white"/>
<path opacity="0.3" d="M432.639 397.887H442.668L437.661 404.965L432.639 397.887Z" fill="white"/>
<path opacity="0.3" d="M449.137 325.054L447.055 340.084L449.359 342.589L451.521 325.054H449.137Z" fill="white"/>
<path opacity="0.3" d="M233.953 281.028L242.838 288.733L236.48 294.312L233.953 281.028Z" fill="white"/>
<path opacity="0.3" d="M273.369 220.036C273.922 220.036 274.371 219.501 274.371 218.841C274.371 218.181 273.922 217.645 273.369 217.645C272.816 217.645 272.368 218.181 272.368 218.841C272.368 219.501 272.816 220.036 273.369 220.036Z" fill="white"/>
<path opacity="0.3" d="M402.044 205.785C402.817 205.785 403.443 205.037 403.443 204.115C403.443 203.193 402.817 202.445 402.044 202.445C401.272 202.445 400.646 203.193 400.646 204.115C400.646 205.037 401.272 205.785 402.044 205.785Z" fill="white"/>
<path opacity="0.3" d="M364.504 433.013C364.504 433.37 364.385 433.713 364.173 433.966C363.962 434.218 363.675 434.36 363.376 434.36C363.076 434.36 362.789 434.218 362.578 433.966C362.366 433.713 362.247 433.37 362.247 433.013C362.247 432.656 362.366 432.313 362.578 432.06C362.789 431.807 363.076 431.666 363.376 431.666C363.675 431.666 363.962 431.807 364.173 432.06C364.385 432.313 364.504 432.656 364.504 433.013Z" fill="white"/>
<path opacity="0.3" d="M377.743 172.917L388.932 170.906V177.415L377.743 179.426V172.917Z" fill="white"/>
<path opacity="0.3" d="M451.521 179.426H455.193L453.349 184.796L451.521 179.426Z" fill="white"/>
<path opacity="0.3" d="M240.391 186.562H245.81L243.093 190.186L240.391 186.562Z" fill="white"/>
<path opacity="0.3" d="M445.848 440.737L445.323 428.288L453.35 431.666L445.848 440.737Z" fill="white"/>
<path opacity="0.3" d="M453.555 369.1L449.359 365.095V369.1L453.555 372.117V369.1Z" fill="white"/>
<path opacity="0.3" d="M238.387 329.058L243.091 333.821L240.739 338.072L234.509 332.113L238.387 329.058Z" fill="white"/>
<path opacity="0.3" d="M234.509 217.645H240.39L233.953 220.036L234.509 217.645Z" fill="white"/>
</g>
<path d="M337.007 206.278L347.64 194.342L358.162 206.392L370.94 197.985L378.633 212.787L392.762 208.46L397.117 225.065H411.708L412.486 242.448L426.616 246.774L423.723 263.854L436.517 272.241L430.176 287.916L440.809 299.834L431.4 313.136L439.219 327.843L427.331 337.939L431.845 354.487L418.24 360.73L419.162 378.113L404.667 380.124L401.949 397.242L387.486 394.869L381.287 410.639L367.778 404.054L358.48 417.49L346.766 407.109L334.973 417.357L325.787 403.826L312.229 410.241L306.158 394.414L291.695 396.596L289.104 379.46L274.625 377.278L275.69 359.914L262.133 353.519L266.773 337.009L254.965 326.781L262.911 312.169L253.598 298.752L264.342 286.967L258.127 271.198L270.985 262.962L268.236 245.864L282.397 241.708L283.303 224.325L297.893 224.496L302.391 207.929L316.489 212.426L324.293 197.719L337.007 206.278Z" fill="#F9E006"/>
<path opacity="0.4" d="M432.99 316.932L442.399 303.648L431.766 291.731L438.123 276.056L425.329 267.668L428.221 250.589L414.092 246.262L413.313 228.879H398.723L394.368 212.275L380.239 216.601L372.546 201.8L359.831 210.206L349.31 198.156L338.677 210.092L325.962 201.534L318.158 216.26L304.06 211.743L299.563 228.31L284.972 228.139L284.066 245.522L269.905 249.678L272.655 266.757L259.797 274.993L266.011 290.763L255.188 302.623L264.501 316.04L256.554 330.652L268.363 340.881L263.722 357.39L277.28 363.786L276.215 381.149L290.694 383.332L293.269 400.411L307.748 398.228L313.819 414.055L327.376 407.641L336.563 421.171L348.356 410.924L360.07 421.304L369.367 407.869L382.877 414.454L389.075 398.684L403.523 401.056L406.257 383.977L420.751 381.965L419.814 364.583L433.435 358.339L428.921 341.772L440.809 331.696L432.99 316.932ZM430.065 329.191L419.559 338.11L423.549 352.741L411.517 358.244L412.344 373.597L399.533 375.38L397.134 390.562L384.419 388.474L378.935 402.403L367.015 396.596L358.798 408.438L348.451 399.272L338.041 408.324L329.935 396.369L317.951 402.062L312.595 388.076L299.801 389.974L297.528 374.792L284.813 372.894L285.767 357.561L273.783 351.868L277.884 337.294L267.457 328.261L274.482 315.357L266.249 303.515L275.786 293.097L270.143 279.092L281.507 271.824L279.076 256.643L291.6 252.98L292.395 237.628L305.268 237.78L309.242 223.148L321.686 227.134L328.584 214.134L339.821 221.725L349.198 211.174L358.496 221.82L369.781 214.4L376.583 227.475L389.06 223.68L392.906 238.368H405.796L406.479 253.739L418.956 257.534L416.413 272.602L427.697 280.003L422.102 293.856L431.496 304.388L423.183 316.135L430.065 329.191Z" fill="black"/>
<path opacity="0.4" d="M337.007 206.278L347.64 194.342L358.162 206.392L370.94 197.985L378.633 212.787L392.762 208.46L397.117 225.065H411.708L412.486 242.448L426.616 246.774L423.723 263.854L436.517 272.241L430.176 287.916L440.809 299.834L431.4 313.136L439.219 327.843L427.331 337.939L431.845 354.487L418.24 360.73L419.162 378.113L404.667 380.124L401.949 397.242L387.486 394.869L381.287 410.639L367.778 404.054L358.48 417.49L346.766 407.109L334.973 417.357L325.787 403.826L312.229 410.241L306.158 394.414L291.695 396.596L289.104 379.46L274.625 377.278L275.69 359.914L262.133 353.519L266.773 337.009L254.965 326.781L262.911 312.169L253.598 298.752L264.342 286.967L258.127 271.198L270.985 262.962L268.236 245.864L282.397 241.708L283.303 224.325L297.893 224.496L302.391 207.929L316.489 212.426L324.293 197.719L337.007 206.278Z" fill="black"/>
<path d="M431.4 313.136L440.809 299.852L430.176 287.935L436.533 272.26L423.739 263.872L426.632 246.793L412.502 242.467L411.723 225.084H397.133L392.778 208.479L378.649 212.806L370.956 198.004L358.241 206.411L347.72 194.36L337.087 206.297L324.372 197.738L316.568 212.464L302.471 207.948L297.973 224.514L283.382 224.344L282.476 241.726L268.315 245.882L271.065 262.962L258.207 271.197L264.421 286.967L253.598 298.828L262.911 312.244L254.965 326.856L266.773 337.085L262.133 353.595L275.69 359.99L274.625 377.354L289.104 379.536L291.679 396.615L306.158 394.433L312.229 410.259L325.787 403.845L334.973 417.376L346.766 407.128L358.48 417.509L367.778 404.073L381.287 410.658L387.486 394.888L401.933 397.26L404.667 380.181L419.162 378.17L418.224 360.787L431.845 354.544L427.331 337.977L439.219 327.9L431.4 313.136ZM428.475 325.395L417.97 334.314L421.959 348.945L409.927 354.449L410.754 369.801L397.944 371.585L395.544 386.766L382.829 384.679L377.346 398.608L365.425 392.801L357.208 404.642L346.861 395.477L336.451 404.529L328.345 392.573L316.362 398.266L311.005 384.28L298.211 386.178L295.938 370.996L283.223 369.099L284.177 353.766L272.193 348.073L276.294 333.498L265.868 324.465L272.893 311.561L264.66 299.72L274.196 289.301L268.554 275.296L279.918 268.028L277.486 252.847L290.01 249.184L290.805 233.832L303.679 233.984L307.652 219.353L320.097 223.338L326.994 210.339L338.231 217.93L347.608 207.378L356.906 218.024L368.191 210.604L374.993 223.68L387.47 219.884L391.316 234.572H404.206L404.889 249.943L417.366 253.739L414.823 268.806L426.107 276.207L420.513 290.06L429.906 300.593L421.593 312.339L428.475 325.395Z" fill="#F9E006"/>
<path opacity="0.6" d="M431.4 313.136L440.809 299.852L430.176 287.935L436.533 272.26L423.739 263.872L426.632 246.793L412.502 242.467L411.723 225.084H397.133L392.778 208.479L378.649 212.806L370.956 198.004L358.241 206.411L347.72 194.36L337.087 206.297L324.372 197.738L316.568 212.464L302.471 207.948L297.973 224.514L283.382 224.344L282.476 241.726L268.315 245.882L271.065 262.962L258.207 271.197L264.421 286.967L253.598 298.828L262.911 312.244L254.965 326.856L266.773 337.085L262.133 353.595L275.69 359.99L274.625 377.354L289.104 379.536L291.679 396.615L306.158 394.433L312.229 410.259L325.787 403.845L334.973 417.376L346.766 407.128L358.48 417.509L367.778 404.073L381.287 410.658L387.486 394.888L401.933 397.26L404.667 380.181L419.162 378.17L418.224 360.787L431.845 354.544L427.331 337.977L439.219 327.9L431.4 313.136ZM428.475 325.395L417.97 334.314L421.959 348.945L409.927 354.449L410.754 369.801L397.944 371.585L395.544 386.766L382.829 384.679L377.346 398.608L365.425 392.801L357.208 404.642L346.861 395.477L336.451 404.529L328.345 392.573L316.362 398.266L311.005 384.28L298.211 386.178L295.938 370.996L283.223 369.099L284.177 353.766L272.193 348.073L276.294 333.498L265.868 324.465L272.893 311.561L264.66 299.72L274.196 289.301L268.554 275.296L279.918 268.028L277.486 252.847L290.01 249.184L290.805 233.832L303.679 233.984L307.652 219.353L320.097 223.338L326.994 210.339L338.231 217.93L347.608 207.378L356.906 218.024L368.191 210.604L374.993 223.68L387.47 219.884L391.316 234.572H404.206L404.889 249.943L417.366 253.739L414.823 268.806L426.107 276.207L420.513 290.06L429.906 300.593L421.593 312.339L428.475 325.395Z" fill="white"/>
<path opacity="0.4" d="M300.499 300.365C300.499 300.365 308.605 298.695 312.595 300.365C316.584 302.035 333.463 336.421 333.463 336.421C333.463 336.421 366.204 282.641 392.381 259.129C392.381 259.129 358.416 295.45 338.724 356.423C338.724 356.423 332.096 359.914 327.407 353.671C326.056 351.773 310.846 320.822 307.906 319.665C305.601 318.735 298.163 319.19 298.163 319.19L300.499 300.365Z" fill="black"/>
<path d="M298.911 298.467C298.911 298.467 307.016 296.797 311.006 298.467C314.995 300.137 331.874 334.523 331.874 334.523C331.874 334.523 364.615 280.743 390.792 257.231C390.792 257.231 356.827 293.552 337.135 354.525C337.135 354.525 330.507 358.017 325.818 351.773C324.468 349.875 309.257 318.924 306.317 317.767C304.012 316.837 296.574 317.292 296.574 317.292L298.911 298.467Z" fill="white"/>
<path d="M311.133 99.8558C311.166 107.635 309.524 115.293 306.365 122.097L305.666 123.52C303.394 128.02 300.485 132.014 297.067 135.323L296.877 135.513C293.641 138.627 290.001 141.088 286.101 142.8C281.886 144.645 277.43 145.583 272.941 145.571C271.512 145.581 270.084 145.486 268.665 145.286C266.282 144.984 263.93 144.405 261.64 143.559C256.066 141.513 250.963 137.954 246.732 133.16C242.106 127.964 238.634 121.475 236.629 114.279C234.623 107.083 234.148 99.4042 235.245 91.9341C236.342 84.4639 238.977 77.4365 242.913 71.484C246.849 65.5315 251.962 60.8405 257.793 57.8331C263.625 54.8258 269.99 53.5963 276.318 54.2554C282.646 54.9144 288.738 57.4412 294.045 61.6086C299.352 65.776 303.708 71.4532 306.721 78.1295C309.735 84.8057 311.311 92.2717 311.308 99.8558H311.133Z" fill="#F9E006"/>
<path d="M306.302 122.097L305.602 123.52C296.84 123.356 288.096 124.536 279.584 127.031L276.739 127.866L274.8 128.473C272.369 129.251 270.032 130.067 268.046 130.845L267.14 131.206L266.488 131.452C264.12 132.401 262.101 133.255 260.56 133.957C258.255 135.001 256.936 135.684 256.936 135.684C256.182 134.524 255.492 133.307 254.87 132.041L254.774 131.832C251.326 124.924 245.238 109.06 248.099 86.2875C251.278 60.9534 268.872 62.5665 275.118 63.9708C275.865 64.1183 276.602 64.3211 277.328 64.578C277.328 64.578 297.02 70.1192 297.751 84.7693C297.854 86.7303 298.056 88.6821 298.355 90.6142C300.206 101.372 302.866 111.909 306.302 122.097Z" fill="#263238"/>
<path d="M286.037 142.8C281.822 144.645 277.366 145.583 272.877 145.571C271.448 145.581 270.02 145.486 268.602 145.286C266.219 144.984 263.866 144.405 261.577 143.559L260.353 131.623L259.765 125.93L285.973 130.37V133.046L286.053 140.903V142.8H286.037Z" fill="#F9E006"/>
<path d="M296.813 135.513C293.578 138.627 289.938 141.088 286.037 142.8C281.822 144.645 277.367 145.583 272.878 145.571C271.449 145.581 270.021 145.486 268.602 145.286C266.219 144.984 263.866 144.405 261.577 143.559C256.002 141.513 250.9 137.954 246.669 133.16C247.877 132.932 249.101 132.762 250.324 132.572H250.626C252.073 132.382 253.519 132.211 254.965 132.078C256.682 131.908 258.383 131.775 260.099 131.699H260.401L262.499 131.604H264.994H267.919C271.097 131.604 274.319 131.743 277.582 132.021L280.872 132.344L282.604 132.553L285.116 133.008L285.672 133.103H286.053L289.01 133.71C289.47 133.805 289.931 133.938 290.392 134.014L291.266 134.223L292.204 134.432L293.794 134.811L294.906 135.077L296.813 135.513Z" fill="#263238"/>
<path d="M279.33 143.218C268.411 140.998 265.296 135.229 265.296 135.229C269.969 130.409 269.412 122.913 268.475 118.15C268.174 116.664 267.77 115.21 267.267 113.804L280.379 117.41C279.999 119.587 279.749 121.794 279.632 124.014C279.532 125.656 279.601 127.307 279.839 128.929C280.57 133.673 282.827 133.863 282.827 133.863C284.909 139.271 279.33 143.218 279.33 143.218Z" fill="#E4897B"/>
<path opacity="0.2" d="M279.584 124.127C279.484 125.769 279.553 127.42 279.791 129.042C274.578 127.941 270.763 122.742 268.427 118.263C268.126 116.777 267.722 115.323 267.219 113.917L280.331 117.523C279.951 119.7 279.701 121.907 279.584 124.127Z" fill="black"/>
<path d="M277.804 72.6618C290.217 73.3071 293.936 81.4481 294.285 96.7624C294.746 115.891 290.709 129.27 275.34 124.412C254.456 117.789 257.19 71.5991 277.804 72.6618Z" fill="#E4897B"/>
<path d="M286.291 95.5103C287.209 97.7776 288.351 99.9056 289.692 101.849C289.304 102.44 288.788 102.893 288.2 103.161C287.612 103.428 286.974 103.499 286.355 103.367L286.291 95.5103Z" fill="#DE5753"/>
<path d="M273.528 86.2875C273.388 86.2884 273.252 86.2276 273.147 86.1167C273.092 86.0546 273.048 85.9796 273.017 85.8964C272.987 85.8132 272.972 85.7234 272.972 85.6328C272.972 85.5421 272.987 85.4524 273.017 85.3692C273.048 85.286 273.092 85.211 273.147 85.1489C273.933 84.2501 274.884 83.5844 275.925 83.2053C276.966 82.8262 278.067 82.7445 279.139 82.9665C279.213 82.9825 279.284 83.0159 279.347 83.0646C279.411 83.1134 279.465 83.1766 279.508 83.2507C279.551 83.3247 279.581 83.4082 279.597 83.4962C279.612 83.5842 279.613 83.6751 279.6 83.7636C279.586 83.8521 279.558 83.9367 279.518 84.0123C279.477 84.088 279.424 84.1533 279.362 84.2044C279.3 84.2555 279.23 84.2915 279.156 84.3103C279.082 84.3291 279.006 84.3303 278.932 84.3139C278.054 84.1476 277.156 84.2181 276.303 84.5202C275.45 84.8223 274.665 85.3483 274.005 86.0598C273.946 86.1395 273.872 86.2015 273.789 86.2411C273.707 86.2806 273.617 86.2965 273.528 86.2875Z" fill="#263238"/>
<path d="M292.935 85.6802C292.815 85.6764 292.699 85.6302 292.601 85.5473C292.002 84.9414 291.298 84.5026 290.539 84.263C289.78 84.0233 288.986 83.9888 288.214 84.162C288.142 84.1917 288.066 84.2038 287.99 84.1979C287.914 84.1919 287.84 84.1679 287.772 84.1272C287.704 84.0866 287.643 84.0301 287.594 83.9611C287.544 83.8922 287.506 83.8121 287.483 83.7256C287.437 83.5519 287.45 83.3637 287.518 83.2009C287.586 83.038 287.705 82.9132 287.849 82.8526C288.793 82.606 289.772 82.6196 290.711 82.8926C291.65 83.1655 292.525 83.6905 293.268 84.4277C293.391 84.5375 293.473 84.7 293.497 84.8808C293.52 85.0615 293.484 85.2462 293.396 85.3955C293.341 85.4809 293.272 85.5507 293.192 85.6C293.112 85.6492 293.024 85.6766 292.935 85.6802Z" fill="#263238"/>
<path d="M263.342 96.9521C263.342 96.9521 269.588 85.0726 269.048 75.6222C269.048 75.6222 294.08 64.8813 294.223 94.7508C294.223 94.7508 297.577 68.411 276.263 66.7221C254.95 65.0331 253.695 102.323 264.311 113.993C264.311 113.993 259.48 104.372 263.342 96.9521Z" fill="#263238"/>
<path d="M265.263 100.178C265.201 98.4601 264.574 96.8405 263.517 95.6714C262.461 94.5024 261.061 93.8783 259.621 93.9349C255.743 94.2386 253.581 103.575 263.07 106.327C264.421 106.725 265.247 105.264 265.263 100.178Z" fill="#E4897B"/>
<path d="M286.593 107.731C285.748 109.234 284.994 110.807 284.336 112.437L283.557 112.172C280.093 110.881 278.789 108.927 278.487 107.143C278.334 106.263 278.361 105.351 278.567 104.486C278.668 103.993 278.829 103.52 279.044 103.082C280.888 105.006 283.055 106.436 285.401 107.276C286.132 107.579 286.593 107.731 286.593 107.731Z" fill="#263238"/>
<path d="M285.418 107.276L284.718 108.642C281.539 107.427 279.283 106.061 278.567 104.486C278.669 103.993 278.829 103.52 279.044 103.082C280.893 105.008 283.066 106.438 285.418 107.276Z" fill="white"/>
<path d="M283.557 112.172C280.093 110.881 278.789 108.927 278.487 107.143C279.803 107.656 281.03 108.446 282.111 109.477C282.825 110.164 283.333 111.11 283.557 112.172Z" fill="#DE5753"/>
<path d="M277.518 73.7627C277.518 73.7627 271.638 97.9012 258.796 96.9334C245.954 95.9656 266.902 66.0961 266.902 66.0961C266.902 66.0961 288.215 57.7273 298.101 71.5614C307.987 85.3955 294.223 94.7511 294.223 94.7511C294.223 94.7511 295.685 75.9071 277.518 73.7627Z" fill="#263238"/>
<path d="M267.982 94.5614C267.903 94.5602 267.826 94.5306 267.761 94.4765C267.695 94.4224 267.645 94.3462 267.617 94.2578C267.579 94.1443 267.58 94.0178 267.618 93.9047C267.657 93.7916 267.73 93.7006 267.823 93.6505C277.836 88.5268 277.058 72.2257 277.058 72.0549C277.053 71.9322 277.089 71.8122 277.157 71.7201C277.225 71.6281 277.321 71.5713 277.423 71.5615C277.528 71.5559 277.63 71.5978 277.71 71.6788C277.789 71.7598 277.84 71.8739 277.852 71.998C277.852 72.1688 278.663 89.0771 268.141 94.5235L267.982 94.5614Z" fill="#263238"/>
<path d="M278.981 94.6748C279.092 95.8134 278.663 96.8192 278.027 96.9141C277.391 97.009 276.771 96.136 276.66 95.0164C276.549 93.8968 276.978 92.872 277.614 92.7771C278.249 92.6822 278.869 93.5172 278.981 94.6748Z" fill="#263238"/>
<path d="M277.343 92.8533L279.345 91.5818C279.345 91.5818 278.503 93.878 277.343 92.8533Z" fill="#263238"/>
<path d="M290.884 92.7391C290.995 93.8777 290.566 94.8835 289.93 94.9784C289.295 95.0733 288.675 94.2193 288.563 93.0807C288.452 91.9421 288.881 90.9363 289.517 90.8414C290.153 90.7465 290.804 91.6005 290.884 92.7391Z" fill="#263238"/>
<path d="M289.216 90.9174L291.203 89.646C291.203 89.646 290.424 91.9801 289.216 90.9174Z" fill="#263238"/>
<path d="M297.004 135.323L296.813 135.513C293.577 138.627 289.938 141.088 286.037 142.8V141.453V140.865L283.955 135.836L285.02 132.837L285.926 130.333L286.848 132.724L297.004 135.323Z" fill="#F9E006"/>
<path opacity="0.6" d="M297.004 135.323L296.813 135.513C293.577 138.627 289.938 141.088 286.037 142.8V141.453V140.865L283.955 135.836L285.02 132.837L285.926 130.333L286.848 132.724L297.004 135.323Z" fill="white"/>
<path d="M273.116 135.456L268.777 141.965L268.554 145.305C266.171 145.003 263.819 144.424 261.529 143.578C255.954 141.532 250.852 137.973 246.621 133.179L250.229 132.572H250.531L258.176 131.281L259.765 125.949L267.553 131.49L273.163 135.494L273.116 135.456Z" fill="#F9E006"/>
<path opacity="0.6" d="M273.1 135.456L268.777 141.965L268.554 145.305C266.171 145.003 263.819 144.424 261.529 143.578C255.954 141.532 250.852 137.973 246.621 133.179L250.531 132.534L258.176 131.262L259.765 125.93L267.553 131.471L273.1 135.456Z" fill="white"/>
<path d="M313.756 138.53C313.756 140.989 313.146 143.392 312.002 145.436C310.858 147.48 309.232 149.073 307.33 150.014C305.428 150.955 303.334 151.201 301.315 150.721C299.296 150.242 297.441 149.058 295.985 147.32C294.529 145.581 293.537 143.366 293.136 140.955C292.734 138.544 292.94 136.045 293.728 133.774C294.516 131.502 295.85 129.561 297.562 128.195C299.274 126.83 301.287 126.101 303.346 126.101C306.107 126.101 308.755 127.41 310.707 129.741C312.659 132.072 313.756 135.234 313.756 138.53Z" fill="white"/>
<path d="M312.229 138.53C312.229 140.628 311.708 142.679 310.732 144.424C309.755 146.168 308.368 147.528 306.744 148.331C305.121 149.134 303.335 149.344 301.611 148.934C299.888 148.525 298.305 147.515 297.062 146.031C295.82 144.548 294.973 142.657 294.631 140.6C294.288 138.542 294.464 136.409 295.136 134.471C295.809 132.532 296.947 130.876 298.409 129.71C299.87 128.544 301.587 127.922 303.345 127.922C305.701 127.922 307.961 129.04 309.627 131.029C311.293 133.019 312.229 135.717 312.229 138.53Z" fill="#263238"/>
<path d="M302.996 144.052L298.26 139.061L299.309 137.638L302.742 141.244L307.256 133.843L308.543 134.962L302.996 144.052Z" fill="white"/>
<path d="M65.3527 531.18L111.206 525.809V458.441H129.356V525.771L175.337 531.18C177.54 531.434 179.585 532.66 181.072 534.618C182.559 536.576 183.381 539.126 183.379 541.769V549.986H57.3105V541.731C57.316 539.094 58.1421 536.554 59.6284 534.604C61.1146 532.654 63.1549 531.434 65.3527 531.18Z" fill="#263238"/>
<path opacity="0.1" d="M65.3527 531.18L111.206 525.809V458.441H129.356V525.771L175.337 531.18C177.54 531.434 179.585 532.66 181.072 534.618C182.559 536.576 183.381 539.126 183.379 541.769V549.986H57.3105V541.731C57.316 539.094 58.1421 536.554 59.6284 534.604C61.1146 532.654 63.1549 531.434 65.3527 531.18Z" fill="white"/>
<path d="M180.41 574.135C186.883 572.881 191.278 565.599 190.227 557.872C189.177 550.144 183.078 544.896 176.606 546.15C170.134 547.405 165.738 554.686 166.789 562.414C167.84 570.142 173.938 575.39 180.41 574.135Z" fill="#263238"/>
<path d="M73.8738 562.469C74.9244 554.741 70.5292 547.459 64.0569 546.205C57.5846 544.951 51.4861 550.198 50.4355 557.926C49.3849 565.654 53.78 572.936 60.2524 574.19C66.7247 575.444 72.8232 570.197 73.8738 562.469Z" fill="#263238"/>
<path d="M125.861 474.97H114.592C112.851 474.97 111.182 474.145 109.951 472.675C108.72 471.205 108.028 469.212 108.028 467.133V406.54H132.425V467.133C132.425 469.212 131.733 471.205 130.502 472.675C129.271 474.145 127.602 474.97 125.861 474.97Z" fill="#263238"/>
<path opacity="0.2" d="M125.861 474.97H114.592C112.851 474.97 111.182 474.145 109.951 472.675C108.72 471.205 108.028 469.212 108.028 467.133V406.54H132.425V467.133C132.425 469.212 131.733 471.205 130.502 472.675C129.271 474.145 127.602 474.97 125.861 474.97Z" fill="white"/>
<path d="M56.8492 287.707C56.8492 287.707 70.4383 389.062 97.2667 406.521H69.9933C69.9933 406.521 43.0536 371.983 34.916 287.707H56.8492Z" fill="#263238"/>
<path opacity="0.1" d="M56.8492 287.707C56.8492 287.707 70.4383 389.062 97.2667 406.521H69.9933C69.9933 406.521 43.0536 371.983 34.916 287.707H56.8492Z" fill="white"/>
<path d="M68.6587 392.193H175.019C177.127 392.193 179.148 393.193 180.638 394.972C182.128 396.752 182.966 399.165 182.966 401.682V414.377H60.7119V401.682C60.7119 399.165 61.5492 396.752 63.0395 394.972C64.5298 393.193 66.5511 392.193 68.6587 392.193Z" fill="#F9E006"/>
<path d="M184.857 403.276H58.805C57.0406 403.276 55.6104 404.984 55.6104 407.091V410.544C55.6104 412.651 57.0406 414.359 58.805 414.359H184.857C186.622 414.359 188.052 412.651 188.052 410.544V407.091C188.052 404.984 186.622 403.276 184.857 403.276Z" fill="#263238"/>
<path opacity="0.6" d="M184.857 403.276H58.805C57.0406 403.276 55.6104 404.984 55.6104 407.091V410.544C55.6104 412.651 57.0406 414.359 58.805 414.359H184.857C186.622 414.359 188.052 412.651 188.052 410.544V407.091C188.052 404.984 186.622 403.276 184.857 403.276Z" fill="white"/>
<path d="M31.6105 308.316H75.318C88.0329 308.316 96.4406 296.057 93.8817 280.933L90.5441 260.741C88.0011 245.56 75.5564 233.377 62.762 233.377H19.0227C6.30784 233.377 -2.09989 245.636 0.458983 260.741L3.84433 280.933C6.30784 296.057 18.8161 308.316 31.6105 308.316Z" fill="#F9E006"/>
<path d="M72.7588 208.384H100.604L103.163 228.215L78.401 233.376L72.7588 208.384Z" fill="#F9E006"/>
<path d="M257.665 483.87L247.668 488.539L240.484 472.351L233.952 457.644L245.03 449.712L251.721 467.778L257.665 483.87Z" fill="#E4897B"/>
<path opacity="0.2" d="M251.721 467.778L240.484 472.351L233.952 457.644L245.03 449.712L251.721 467.778Z" fill="black"/>
<path d="M249.654 458.955L236.049 467.722C236.049 467.722 184.665 359.858 176.766 360.75C168.867 361.641 93.9124 418.629 71.0574 397.508C48.2023 376.386 70.4375 313.042 70.4375 313.042C70.4375 313.042 115.099 292.775 120.232 305.166C122.484 310.185 124.49 315.355 126.24 320.652C127.241 324.447 128.004 327.806 128.004 327.806C129.451 327.104 176.146 304.237 196.998 316.42C218.201 329.001 249.654 458.955 249.654 458.955Z" fill="#F9E006"/>
<path opacity="0.3" d="M249.654 458.955L236.049 467.722C236.049 467.722 184.665 359.858 176.766 360.75C168.867 361.641 93.9124 418.629 71.0574 397.508C48.2023 376.386 70.4375 313.042 70.4375 313.042C70.4375 313.042 115.099 292.775 120.232 305.166C122.484 310.185 124.49 315.355 126.24 320.652C127.241 324.447 128.004 327.806 128.004 327.806C129.451 327.104 176.146 304.237 196.998 316.42C218.201 329.001 249.654 458.955 249.654 458.955Z" fill="white"/>
<path d="M175.782 546.911L165.117 545.45L165.07 527.498L165.054 511.007L177.943 510.286L176.799 529.68L175.782 546.911Z" fill="#E4897B"/>
<path opacity="0.2" d="M176.767 530.079L165.037 527.84V511.197L177.927 510.381L176.767 530.079Z" fill="black"/>
<path d="M229.406 462.313L249.305 450.415L251.371 460.472L236.304 469.752L229.406 462.313Z" fill="#263238"/>
<path d="M106.438 397.735C106.438 397.735 109.713 397.298 159.968 386.178C159.968 386.178 161.113 462.939 163.497 520.135L178.977 520.743C178.977 520.743 201.228 393.75 198.574 374.621C195.92 355.493 176.847 352.855 176.847 352.855C176.847 352.855 143.614 383.597 106.438 397.735Z" fill="#F9E006"/>
<path opacity="0.4" d="M106.438 397.735C106.438 397.735 109.713 397.298 159.968 386.178C159.968 386.178 161.113 462.939 163.497 520.135L178.977 520.743C178.977 520.743 201.228 393.75 198.574 374.621C195.92 355.493 176.847 352.855 176.847 352.855C176.847 352.855 143.614 383.597 106.438 397.735Z" fill="white"/>
<path opacity="0.3" d="M106.438 397.735C106.438 397.735 109.713 397.298 159.968 386.178C159.968 386.178 161.113 462.939 163.497 520.135L178.977 520.743C178.977 520.743 201.228 393.75 198.574 374.621C195.92 355.493 176.847 352.855 176.847 352.855C176.847 352.855 143.614 383.597 106.438 397.735Z" fill="black"/>
<path d="M160.588 515.03L181.695 514.442L178.818 524.822L161.685 525.012L160.588 515.03Z" fill="#263238"/>
<path opacity="0.3" d="M128.005 327.862L100.604 339.514C100.604 339.514 115.02 326.666 126.241 320.708C127.242 324.579 128.005 327.862 128.005 327.862Z" fill="black"/>
<path d="M68.6747 308.543L68.2773 318.26L119.63 305.261L118.438 294.539L68.6747 308.543Z" fill="#263238"/>
<path opacity="0.2" d="M68.6747 308.543L68.2773 318.26L119.63 305.261L118.438 294.539L68.6747 308.543Z" fill="black"/>
<path d="M84.2806 302.601L81.7178 303.169L84.1327 318.711L86.6956 318.144L84.2806 302.601Z" fill="#F9E006"/>
<path d="M106.688 298.653L95.4785 301.67L97.3933 311.815L108.603 308.798L106.688 298.653Z" fill="white"/>
<path d="M115.469 293.428L112.906 293.996L115.319 309.539L117.882 308.971L115.469 293.428Z" fill="#F9E006"/>
<path opacity="0.3" d="M84.2806 302.601L81.7178 303.169L84.1327 318.711L86.6956 318.144L84.2806 302.601Z" fill="white"/>
<path opacity="0.3" d="M115.469 293.428L112.906 293.996L115.319 309.539L117.882 308.971L115.469 293.428Z" fill="white"/>
<path d="M277.533 505.029C275.862 504.417 274.111 504.179 272.367 504.327C272.367 504.327 265.93 501.12 258.063 485.787L251.404 486.831C250.282 487.033 249.24 487.643 248.418 488.576C247.597 489.51 247.035 490.722 246.81 492.049C246.755 492.419 246.755 492.799 246.81 493.169C247.09 495.095 247.477 496.997 247.971 498.862C249.678 505.023 251.695 511.056 254.01 516.928L255.107 516.396L251.69 504.878C250.545 500.968 254.535 504.27 256.648 508.066C258.762 511.861 261.75 515.524 268.871 512.316C277.151 508.464 280.425 506.415 277.533 505.029Z" fill="#F9E006"/>
<path d="M256.441 481.726C256.441 481.726 267.138 501.102 272.335 504.328C272.335 504.328 266.454 510.021 258.603 500.874C248.463 489.165 246.778 493.169 246.778 493.169C246.688 490.874 246.778 488.574 247.048 486.3C247.891 481.859 256.441 481.726 256.441 481.726Z" fill="#E4897B"/>
<path d="M191.738 569.494C190.232 568.436 188.58 567.709 186.859 567.349C186.859 567.349 181.232 562.396 176.703 545.317L170.027 544.444C168.892 544.319 167.752 544.616 166.765 545.296C165.777 545.976 164.99 547.004 164.512 548.24C164.37 548.58 164.273 548.945 164.226 549.321C164.123 551.255 164.123 553.195 164.226 555.128C164.666 561.591 165.43 568.017 166.515 574.371L167.675 574.162L166.642 562.017C166.308 557.88 169.535 562.226 170.838 566.514C172.141 570.803 174.303 575.206 181.852 574.105C190.673 572.72 194.265 571.657 191.738 569.494Z" fill="#F9E006"/>
<path d="M175.861 540.877C175.861 540.877 182.409 562.738 186.859 567.35C186.859 567.35 180.025 571.145 174.144 560.119C166.611 545.849 164.163 549.284 164.163 549.284C164.522 547.029 165.054 544.818 165.752 542.68C167.533 538.581 175.861 540.877 175.861 540.877Z" fill="#E4897B"/>
<path d="M97.3305 141.32C97.3305 141.32 72.2344 126.765 63.9538 158.115C55.6732 189.464 66.2902 211.098 66.2902 211.098C66.2902 211.098 95.3279 202.217 119.772 208.422C119.772 208.422 114.496 181.703 115.767 166.369C117.039 151.036 97.3305 141.32 97.3305 141.32Z" fill="#263238"/>
<path d="M116.911 212.275C122.426 212.559 145.52 249.621 145.52 249.621L154.102 236.337C154.102 236.337 167.326 267.023 160.778 281.635C154.229 296.247 119.74 256.32 119.74 256.32L116.911 212.275Z" fill="#F9E006"/>
<path opacity="0.6" d="M116.896 212.275L119.152 241.897L119.725 256.339C119.725 256.339 125.399 262.905 132.567 269.736C143.104 279.775 156.868 290.364 160.762 281.673C167.31 267.08 154.071 236.375 154.071 236.375L145.504 249.659V249.545C144.169 247.268 122.236 212.559 116.896 212.275Z" fill="white"/>
<path opacity="0.2" d="M119.152 241.897L119.725 256.338C119.725 256.338 125.399 262.904 132.567 269.736C133.25 252.391 119.725 227.133 119.725 227.133L119.152 241.897Z" fill="black"/>
<path opacity="0.2" d="M145.537 249.621L144.297 252.449L147.889 269.148C147.889 269.148 137.971 258.369 144.297 247.818L145.537 249.621Z" fill="black"/>
<path d="M119.805 245.332C119.805 245.787 119.805 246.262 119.805 246.736C119.805 248.786 119.805 250.949 119.693 253.245C119.693 253.435 119.693 253.625 119.693 253.833C119.693 255.067 119.693 256.338 119.693 257.629C119.693 257.856 119.693 258.065 119.693 258.293C119.693 260.191 119.582 262.088 119.519 263.986C119.519 264.252 119.519 264.517 119.519 264.783C119.519 267.364 119.344 270.077 119.232 272.943C118.978 279.376 118.676 286.511 118.295 294.425L117.58 294.634L69.0245 308.373H68.8337C68.8337 308.373 70.7887 277.365 67.4351 259.811C67.4108 259.657 67.379 259.505 67.3397 259.356C67.3397 259.09 67.2444 258.824 67.1808 258.559C67.1172 258.293 66.9583 257.572 66.8629 257.059C66.7676 256.547 66.6404 256.035 66.5133 255.503C66.0841 253.606 65.6232 251.708 65.1305 249.621C64.8127 248.254 64.463 246.85 64.0974 245.408L63.9067 244.687C63.4776 242.979 63.0167 241.214 62.5399 239.392C62.3968 238.861 62.2697 238.348 62.1266 237.798C61.4273 235.198 60.6803 232.447 59.8697 229.562C58.9797 226.311 58.0049 222.863 56.9453 219.22C62.5136 217.1 68.1883 215.401 73.9356 214.134L76.3991 213.603L79.0057 213.09C83.3605 212.255 87.7631 211.667 92.1656 211.287C93.9351 211.136 95.6993 211.022 97.4582 210.946C98.523 210.946 99.6197 210.946 100.637 210.946H101.082L104.261 211.06H105.739H106.676H107.694L109.283 211.174H110.491L112.668 211.344L113.527 211.439H114.29H114.989H115.561L116.944 211.591C116.944 211.591 116.944 211.591 117.071 211.591L117.182 211.724C117.288 211.875 117.379 212.04 117.452 212.217C117.941 213.453 118.288 214.761 118.485 216.107C118.485 216.487 118.613 216.905 118.692 217.36C118.772 217.815 118.883 218.783 118.994 219.618C119.105 220.453 119.137 220.833 119.201 221.516C119.264 222.199 119.312 222.749 119.36 223.414C119.83 230.705 119.978 238.021 119.805 245.332Z" fill="#263238"/>
<path d="M93.4367 223.509C81.8662 221.744 78.4014 215.823 78.4014 215.823C83.1695 210.51 82.2635 202.673 81.0556 197.776C80.6921 196.223 80.2134 194.712 79.6252 193.26L93.548 196.372C93.2242 198.681 93.0436 201.015 93.0076 203.356C92.9553 205.083 93.0889 206.811 93.405 208.498C94.3427 213.47 96.7108 213.546 96.7108 213.546C99.1584 218.993 93.4367 223.509 93.4367 223.509Z" fill="#E4897B"/>
<path opacity="0.2" d="M93.0074 203.356C92.9552 205.083 93.0887 206.811 93.4048 208.498C87.8738 207.644 83.6938 202.35 81.0554 197.776C80.6919 196.223 80.2132 194.712 79.625 193.26L93.5478 196.372C93.224 198.681 93.0434 201.015 93.0074 203.356Z" fill="black"/>
<path d="M96.7097 149.746C109.52 152.858 112.238 162.062 110.49 178.041C108.296 198.023 102.257 211.117 86.951 203.014C66.194 192.007 75.4441 144.565 96.7097 149.746Z" fill="#E4897B"/>
<path d="M102.352 175.175C102.99 177.71 103.881 180.144 105.006 182.424C104.521 182.96 103.923 183.327 103.275 183.484C102.628 183.641 101.957 183.583 101.335 183.316L102.352 175.175Z" fill="#DE5753"/>
<path d="M90.5441 163.067C90.4594 163.067 90.3758 163.045 90.299 163.002C90.2222 162.959 90.154 162.898 90.0991 162.821C90.0437 162.758 89.9997 162.683 89.9695 162.6C89.9394 162.517 89.9238 162.427 89.9238 162.337C89.9238 162.246 89.9394 162.156 89.9695 162.073C89.9997 161.99 90.0437 161.915 90.0991 161.853C91.0354 161.076 92.1118 160.573 93.2412 160.385C94.3705 160.197 95.521 160.33 96.5996 160.771C96.6705 160.801 96.7359 160.847 96.7918 160.907C96.8478 160.967 96.8933 161.04 96.9258 161.121C96.9583 161.202 96.9771 161.29 96.9811 161.38C96.9851 161.469 96.9743 161.559 96.9492 161.644C96.9242 161.729 96.8854 161.807 96.8351 161.874C96.7848 161.94 96.724 161.995 96.6561 162.034C96.5882 162.072 96.5146 162.095 96.4394 162.1C96.3643 162.104 96.2891 162.091 96.2181 162.061C95.323 161.719 94.3755 161.619 93.4439 161.766C92.5122 161.914 91.6196 162.306 90.8302 162.915C90.7469 162.994 90.6486 163.046 90.5441 163.067Z" fill="#263238"/>
<path d="M110.713 166.237C110.562 166.232 110.42 166.157 110.315 166.028C109.769 165.28 109.091 164.684 108.33 164.284C107.569 163.884 106.744 163.689 105.913 163.713C105.838 163.729 105.762 163.727 105.688 163.707C105.615 163.687 105.545 163.649 105.484 163.595C105.423 163.542 105.372 163.475 105.334 163.397C105.295 163.319 105.271 163.233 105.261 163.143C105.247 163.055 105.249 162.964 105.266 162.876C105.283 162.788 105.315 162.705 105.359 162.632C105.404 162.559 105.46 162.498 105.526 162.452C105.591 162.406 105.663 162.377 105.738 162.365C106.749 162.293 107.76 162.499 108.694 162.966C109.628 163.433 110.46 164.149 111.126 165.06C111.179 165.124 111.221 165.199 111.25 165.282C111.279 165.365 111.294 165.454 111.294 165.544C111.294 165.634 111.279 165.723 111.25 165.806C111.221 165.889 111.179 165.964 111.126 166.028C111.016 166.158 110.868 166.233 110.713 166.237Z" fill="#263238"/>
<path d="M78.3216 172.101C78.3216 172.101 86.4591 160.999 87.2061 151.074C87.2061 151.074 114.686 144.888 110.697 175.953C110.697 175.953 117.833 149.234 95.9317 143.275C74.0303 137.316 67.5457 175.782 76.9547 189.996C76.9547 189.996 73.2674 179.065 78.3216 172.101Z" fill="#263238"/>
<path d="M79.8638 175.839C79.9525 174.948 79.8934 174.045 79.6898 173.181C79.4862 172.318 79.1422 171.51 78.6773 170.806C78.2124 170.101 77.6357 169.512 76.9803 169.073C76.3249 168.635 75.6034 168.354 74.8573 168.248C70.8044 167.793 67.2442 177.054 76.7168 181.798C78.0837 182.481 79.1644 181.02 79.8638 175.839Z" fill="#E4897B"/>
<path d="M100.97 187.908C99.8814 189.308 98.8775 190.798 97.9664 192.368L97.2035 191.912C93.7705 189.901 92.7374 187.624 92.6262 185.707C92.5984 184.76 92.7562 183.817 93.0871 182.955C93.2618 182.465 93.4918 182.005 93.7705 181.589C95.4163 183.985 97.4766 185.927 99.8101 187.282C100.525 187.662 100.97 187.908 100.97 187.908Z" fill="#263238"/>
<path d="M99.8109 187.206L98.905 188.497C95.7262 186.599 93.6124 184.701 93.0879 182.955C93.2626 182.465 93.4926 182.005 93.7713 181.589C95.4237 183.957 97.4835 185.873 99.8109 187.206Z" fill="white"/>
<path d="M97.2043 191.912C93.7713 189.901 92.7382 187.624 92.627 185.707C93.9291 186.487 95.0986 187.548 96.0759 188.838C96.7156 189.694 97.1108 190.771 97.2043 191.912Z" fill="#DE5753"/>
<path d="M96.2499 150.809C96.2499 150.809 86.7137 174.72 73.5856 171.171C60.4574 167.622 86.3005 140.808 86.3005 140.808C86.3005 140.808 109.616 136.273 117.945 152.707C126.273 169.14 110.697 176.048 110.697 176.048C110.697 176.048 114.83 156.654 96.2499 150.809Z" fill="#263238"/>
<path d="M83.5355 170.526C83.4482 170.522 83.3642 170.484 83.2957 170.42C83.2271 170.355 83.1776 170.266 83.1541 170.165C83.1399 170.105 83.1361 170.043 83.143 169.981C83.1498 169.919 83.1672 169.86 83.194 169.807C83.2208 169.753 83.2565 169.707 83.2988 169.671C83.3412 169.635 83.3893 169.609 83.4402 169.596C94.5657 166.237 96.0279 149.139 96.0438 148.968C96.0559 148.846 96.1074 148.733 96.1875 148.655C96.2676 148.578 96.37 148.54 96.473 148.551C96.5255 148.552 96.5771 148.568 96.6242 148.595C96.6713 148.623 96.7129 148.663 96.7461 148.711C96.7792 148.76 96.8033 148.816 96.8165 148.877C96.8297 148.938 96.8318 149.001 96.8226 149.063C96.8226 149.234 95.2333 166.996 83.6309 170.507L83.5355 170.526Z" fill="#263238"/>
<path d="M94.8675 172.84C94.8675 174.055 94.2477 175.004 93.5802 174.985C92.9126 174.966 92.3722 173.941 92.4199 172.727C92.4676 171.512 93.0398 170.544 93.7232 170.582C94.4066 170.62 94.9152 171.683 94.8675 172.84Z" fill="#263238"/>
<path d="M93.4365 170.62L95.6775 169.69C95.6775 169.69 94.5014 171.873 93.4365 170.62Z" fill="#263238"/>
<path d="M107.519 173.182C107.519 174.397 106.883 175.365 106.215 175.327C105.548 175.289 105.023 174.283 105.055 173.068C105.087 171.854 105.675 170.905 106.358 170.943C107.042 170.981 107.55 171.968 107.519 173.182Z" fill="#263238"/>
<path d="M106.072 170.981L108.313 170.051C108.313 170.051 107.137 172.215 106.072 170.981Z" fill="#263238"/>
<path d="M125.319 236.735C125.296 236.938 125.31 237.145 125.361 237.34C125.412 237.536 125.497 237.716 125.613 237.868C125.728 238.02 125.869 238.14 126.027 238.22C126.185 238.299 126.356 238.337 126.527 238.329H139.814C140.182 238.313 140.533 238.145 140.808 237.855C141.083 237.564 141.266 237.168 141.324 236.735L144.281 205.424C144.32 205.204 144.319 204.977 144.278 204.757C144.238 204.538 144.158 204.331 144.045 204.152C143.933 203.972 143.789 203.823 143.624 203.715C143.459 203.607 143.276 203.543 143.089 203.526H129.801C129.404 203.582 129.035 203.803 128.76 204.149C128.484 204.496 128.318 204.947 128.292 205.424L125.319 236.735Z" fill="#263238"/>
<path opacity="0.5" d="M129.769 205.215L126.749 236.83C126.712 237.015 126.711 237.208 126.747 237.393C126.783 237.578 126.855 237.75 126.957 237.896C127.059 238.042 127.189 238.157 127.335 238.232C127.481 238.308 127.64 238.341 127.798 238.33H139.067C139.83 238.33 141.213 237.836 141.292 236.944L144.312 205.215C144.312 204.323 143.104 203.602 142.341 203.602H131.073C130.724 203.621 130.395 203.799 130.152 204.099C129.91 204.399 129.773 204.798 129.769 205.215Z" fill="white"/>
<path d="M153.165 239.354L146.235 225.311C146.29 222.26 146.093 219.209 145.647 216.203C145.043 214.457 138.257 210.51 136.922 211.117C135.587 211.724 135.11 226.184 136.318 228.196C137.526 230.208 141.769 232.314 141.769 232.314L141.483 235.066L145.536 249.678L153.165 239.354Z" fill="#E4897B"/>
<path d="M155.946 237.76L153.657 235.009L142.738 249.621L144.296 255.409L155.946 237.76Z" fill="#F9E006"/>
<path d="M100.604 208.384L99.2217 214.457L102.035 219.391L108.265 288.77L125.319 285.771C124.143 231.707 123.73 231.422 117.15 211.971L101.876 210.699L100.604 208.384Z" fill="#F9E006"/>
<path opacity="0.6" d="M100.604 208.384L99.2217 214.457L102.035 219.391L108.265 288.77L125.319 285.771C124.143 231.707 123.73 231.422 117.15 211.971L101.876 210.699L100.604 208.384Z" fill="white"/>
<path d="M72.7592 208.384L87.9058 215.975L84.1867 223.565L87.8581 294.596L64.9077 302.623C64.9077 302.623 48.2512 250.437 56.7861 219.466L71.8214 214.286L72.7592 208.384Z" fill="#F9E006"/>
<path opacity="0.6" d="M87.27 283.285L87.858 294.539L77.6226 298.106L64.9076 302.547C60.2099 287.114 56.9272 271.118 55.1172 254.839C53.8934 242.485 53.9251 229.752 56.786 219.391L71.8214 214.21L72.7591 208.384L87.9057 215.975L84.1866 223.565L85.6488 251.765L87.27 283.285Z" fill="white"/>
<path opacity="0.2" d="M100.7 261.102C100.7 261.102 94.9943 271.027 87.27 283.286C84.282 288.03 80.9126 293.116 77.6226 298.107L64.9077 302.547C60.2099 287.114 56.9272 271.118 55.1172 254.839C61.3475 247.382 68.9764 238.349 68.9764 238.349C68.9764 238.349 72.473 251.253 70.9314 262.468L85.6488 251.708L90.2262 248.368L100.7 261.102Z" fill="black"/>
<path d="M88.2715 253.094L104.022 238.33C104.934 235.136 106.056 232.034 107.376 229.05C108.329 227.665 122.141 221.592 123.269 221.459C124.398 221.327 123.269 234.971 121.537 237.286C119.804 239.601 108.695 244.194 108.695 244.194L92.229 262.772L88.2715 253.094Z" fill="#E4897B"/>
<path d="M56.7856 219.391C47.5355 224.932 43.4191 287.29 59.4875 298.049C75.556 308.809 99.5395 260.096 99.5395 260.096L90.2099 248.273C90.2099 248.273 70.6608 267.819 68.3085 266.017C65.9563 264.214 68.6264 245.142 68.6264 245.142C68.6264 245.142 71.376 239.449 65.5907 230.283C59.8054 221.118 56.7856 219.391 56.7856 219.391Z" fill="#F9E006"/>
<path opacity="0.6" d="M56.7856 219.391C47.5355 224.932 43.4191 287.29 59.4875 298.049C75.556 308.809 99.5395 260.096 99.5395 260.096L90.2099 248.273C90.2099 248.273 70.6608 267.819 68.3085 266.017C65.9563 264.214 68.6264 245.142 68.6264 245.142C68.6264 245.142 71.376 239.449 65.5907 230.283C59.8054 221.118 56.7856 219.391 56.7856 219.391Z" fill="white"/>
<path d="M99.7143 264.499L102.512 262.487L92.0377 244.156L88.1914 246.717L99.7143 264.499Z" fill="#F9E006"/>
</svg>
