<svg width="531" height="515" viewBox="0 0 531 515" fill="none" xmlns="http://www.w3.org/2000/svg">
<path d="M506.541 464.295C500.054 464.295 493.833 466.863 489.246 471.433C484.659 476.003 482.082 482.201 482.082 488.664C482.082 495.127 484.659 501.325 489.246 505.896C493.833 510.466 500.054 513.033 506.541 513.033H506.541C513.028 513.033 519.249 510.466 523.836 505.896C528.423 501.326 531 495.127 531 488.664C531 482.201 528.423 476.003 523.836 471.433C519.249 466.863 513.028 464.295 506.541 464.295Z" fill="#F9E006"/>
<path d="M504.22 498.785C503.576 498.786 502.95 498.579 502.434 498.194L502.403 498.17L495.676 493.044C495.365 492.806 495.103 492.509 494.906 492.17C494.71 491.832 494.582 491.458 494.531 491.07C494.479 490.682 494.505 490.288 494.606 489.91C494.708 489.532 494.883 489.178 495.122 488.867C495.361 488.557 495.659 488.296 495.999 488.101C496.339 487.905 496.714 487.778 497.103 487.727C497.492 487.676 497.888 487.701 498.267 487.803C498.647 487.904 499.002 488.079 499.314 488.317L503.67 491.645L513.965 478.264C514.204 477.953 514.502 477.693 514.841 477.497C515.181 477.302 515.556 477.175 515.945 477.124C516.334 477.072 516.73 477.098 517.109 477.199C517.488 477.3 517.843 477.474 518.154 477.712L518.155 477.713L518.091 477.801L518.157 477.713C518.785 478.194 519.196 478.904 519.3 479.686C519.403 480.469 519.191 481.26 518.71 481.887L506.6 497.62C506.32 497.983 505.96 498.276 505.548 498.477C505.135 498.679 504.682 498.783 504.223 498.782L504.22 498.785Z" fill="white"/>
<path d="M453.288 503.288L441.708 503.287L436.201 458.783L453.292 458.785L453.288 503.288Z" fill="#FFB8B8"/>
<path d="M433.437 499.99H455.771V514H419.375C419.375 512.16 419.739 510.338 420.445 508.638C421.152 506.939 422.188 505.394 423.494 504.093C424.799 502.792 426.35 501.76 428.056 501.056C429.762 500.352 431.59 499.99 433.437 499.99Z" fill="#141414"/>
<path d="M407.198 503.288L395.618 503.287L390.111 458.783L407.202 458.785L407.198 503.288Z" fill="#FFB8B8"/>
<path d="M387.347 499.99H409.681V514H373.285C373.285 512.16 373.649 510.338 374.356 508.638C375.062 506.939 376.098 505.394 377.404 504.093C378.71 502.792 380.26 501.76 381.966 501.056C383.672 500.352 385.5 499.99 387.347 499.99Z" fill="#141414"/>
<path d="M462.21 349.428C461.278 348.402 460.583 347.186 460.174 345.863C459.765 344.541 459.652 343.146 459.843 341.775C460.034 340.405 460.524 339.093 461.279 337.932C462.034 336.771 463.035 335.788 464.212 335.054L460.625 313.726L473.103 308.393L477.743 338.584C478.85 340.636 479.163 343.021 478.622 345.287C478.082 347.553 476.726 349.543 474.811 350.88C472.897 352.217 470.556 352.807 468.234 352.539C465.911 352.272 463.768 351.165 462.21 349.428V349.428Z" fill="#FFB8B8"/>
<path d="M364.521 339.35C365.611 338.492 366.498 337.406 367.12 336.17C367.743 334.933 368.086 333.575 368.125 332.192C368.164 330.809 367.898 329.435 367.346 328.165C366.794 326.896 365.97 325.762 364.931 324.844L372.005 304.399L360.583 297.086L351 326.098C349.568 327.94 348.864 330.241 349.022 332.565C349.179 334.889 350.186 337.074 351.853 338.708C353.52 340.341 355.73 341.309 358.065 341.427C360.4 341.546 362.697 340.807 364.521 339.35Z" fill="#FFB8B8"/>
<path d="M423.831 188.731C437.571 188.731 448.71 177.633 448.71 163.943C448.71 150.253 437.571 139.155 423.831 139.155C410.09 139.155 398.951 150.253 398.951 163.943C398.951 177.633 410.09 188.731 423.831 188.731Z" fill="#FFB8B8"/>
<path d="M363.753 324.054C363.326 324.054 362.901 323.994 362.491 323.876L355.24 321.802C354.082 321.468 353.103 320.692 352.517 319.643C351.931 318.593 351.786 317.355 352.112 316.199L367.077 263.555L387.946 212.512C390.022 207.438 394.357 204.11 399.261 203.828C401.501 203.719 403.725 204.259 405.662 205.384C407.6 206.508 409.169 208.168 410.179 210.163C411.302 212.298 411.918 214.661 411.981 217.07C412.043 219.479 411.551 221.871 410.541 224.061L386.82 275.744L367.962 321.245C367.619 322.075 367.035 322.786 366.286 323.286C365.536 323.786 364.655 324.053 363.753 324.054Z" fill="#F9E006"/>
<path d="M437.871 184.731L424.047 184.976C422.607 185.004 421.181 184.695 419.883 184.073C418.585 183.451 417.452 182.534 416.575 181.396C415.698 180.258 415.102 178.93 414.835 177.52C414.567 176.11 414.636 174.658 415.036 173.279C415.331 172.283 415.553 171.267 415.7 170.239C415.855 169.117 415.886 167.982 415.791 166.854C415.703 165.724 415.233 164.658 414.457 163.83C413.681 163.001 412.646 162.46 411.521 162.295C410.396 162.13 409.248 162.35 408.265 162.92C407.283 163.49 406.523 164.376 406.112 165.433C403.788 165.466 398.836 164.711 396.512 164.744C391.577 152.138 402.331 135.644 413.908 129.449C425.711 123.133 441.031 129.558 445.555 142.722C451.834 142.834 456.935 149.004 457.744 155.949C458.554 162.895 455.686 170.147 451.299 175.47C446.912 180.793 441.151 184.673 437.871 184.731Z" fill="black"/>
<path d="M392.432 499.133C391.312 499.126 390.233 498.711 389.4 497.965C388.567 497.219 388.038 496.195 387.912 495.086L382.783 323.277L447.398 327.859L447.447 328.273C462.049 450.051 457.058 492.206 457.005 492.618C456.97 493.241 456.805 493.85 456.523 494.407C456.24 494.964 455.845 495.457 455.362 495.855C454.88 496.253 454.32 496.547 453.718 496.72C453.117 496.893 452.485 496.94 451.864 496.859L437.585 497.2C436.502 497.078 435.499 496.574 434.758 495.779C434.017 494.983 433.586 493.949 433.544 492.865L420.202 368.425C420.119 368.102 419.925 367.818 419.654 367.623C419.382 367.428 419.051 367.335 418.717 367.359C418.373 367.358 418.04 367.476 417.774 367.693C417.508 367.91 417.326 368.212 417.259 368.548L412.104 493.395C412.159 494.553 411.765 495.689 411.003 496.566C410.241 497.444 409.17 497.996 408.011 498.108L392.885 499.11C392.734 499.125 392.583 499.133 392.432 499.133Z" fill="black"/>
<path d="M419.243 343.806C418.856 343.806 418.47 343.8 418.083 343.788C399.503 343.231 384.967 329.226 380.955 324.946C380.444 324.401 380.077 323.737 379.886 323.016C379.694 322.294 379.686 321.537 379.86 320.811L390.578 275.633L387.735 236.356C387.288 230.905 388.005 225.422 389.84 220.267C391.674 215.112 394.583 210.403 398.376 206.449C401.537 203.123 405.379 200.512 409.641 198.794C413.903 197.076 418.486 196.291 423.079 196.492C441.165 197.352 455.434 213.459 455.563 233.161C455.763 263.675 454.862 265.771 454.566 266.46C445.539 287.449 450.469 316.912 452.195 325.442C452.349 326.203 452.306 326.991 452.069 327.73C451.832 328.47 451.409 329.137 450.84 329.668C440.913 339.053 430.287 343.805 419.243 343.806Z" fill="#F9E006"/>
<path d="M465.905 332.322C464.874 332.321 463.874 331.972 463.068 331.331C462.262 330.691 461.698 329.797 461.468 328.795L450.41 280.799L435.589 225.939C434.956 223.613 434.867 221.173 435.329 218.807C435.79 216.441 436.789 214.212 438.251 212.291C439.578 210.491 441.401 209.113 443.498 208.323C445.595 207.533 447.877 207.365 450.068 207.84C454.858 208.926 458.583 212.922 459.788 218.268L471.898 271.989L477.937 326.429C478.067 327.623 477.718 328.82 476.966 329.758C476.214 330.697 475.121 331.301 473.923 331.44L466.427 332.292C466.254 332.312 466.08 332.322 465.905 332.322Z" fill="#F9E006"/>
<path d="M0 122.383H2.83196V44.8653C2.83195 38.9735 3.99337 33.1394 6.24987 27.6961C8.50638 22.2528 11.8138 17.3069 15.9833 13.1408C20.1528 8.97463 25.1026 5.66988 30.5503 3.41519C35.998 1.16049 41.8369 4.51404e-06 47.7334 0H212.098C217.995 -1.20371e-05 223.834 1.16046 229.281 3.41513C234.729 5.66981 239.679 8.97456 243.849 13.1407C248.018 17.3068 251.325 22.2527 253.582 27.696C255.839 33.1393 257 38.9734 257 44.8652V470.135C257 476.026 255.839 481.861 253.582 487.304C251.326 492.747 248.018 497.693 243.849 501.859C239.679 506.025 234.729 509.33 229.282 511.585C223.834 513.84 217.995 515 212.099 515H47.7337C35.825 515 24.4041 510.273 15.9834 501.859C7.56275 493.446 2.83203 482.034 2.832 470.135V177.562H0V122.383Z" fill="white"/>
<path d="M45.9216 11.6723H67.3767C66.39 14.0893 66.0134 16.7117 66.28 19.3084C66.5466 21.9051 67.4482 24.3965 68.9054 26.563C70.3626 28.7296 72.3306 30.5048 74.6362 31.7323C76.9418 32.9599 79.5141 33.602 82.1266 33.6022H176.289C178.902 33.602 181.474 32.9599 183.779 31.7324C186.085 30.5048 188.053 28.7296 189.51 26.563C190.968 24.3965 191.869 21.9051 192.136 19.3084C192.402 16.7117 192.026 14.0893 191.039 11.6722H211.078C219.971 11.6722 228.5 15.2022 234.789 21.4856C241.077 27.7689 244.61 36.291 244.61 45.1771V469.823C244.61 474.223 243.743 478.579 242.058 482.644C240.372 486.709 237.903 490.403 234.789 493.514C231.675 496.625 227.979 499.093 223.91 500.777C219.842 502.461 215.482 503.328 211.078 503.328H45.9216C41.5182 503.328 37.1578 502.461 33.0895 500.777C29.0212 499.093 25.3247 496.625 22.211 493.514C19.0972 490.403 16.6273 486.71 14.9421 482.645C13.257 478.579 12.3897 474.223 12.3896 469.823V45.1771C12.3897 40.7772 13.257 36.4204 14.9421 32.3554C16.6273 28.2904 19.0972 24.5968 22.211 21.4856C25.3247 18.3744 29.0212 15.9064 33.0895 14.2227C37.1578 12.5389 41.5182 11.6723 45.9216 11.6723Z" fill="black"/>
<path d="M163.884 130.637H93.1152V147.7H163.884V130.637Z" fill="#F9E006"/>
<path d="M167.253 203.958H89.7461V221.021H167.253V203.958Z" fill="#E5E5E5"/>
<path d="M214.995 240.612H42.0059V257.676H214.995V240.612Z" fill="#E5E5E5"/>
<path d="M214.995 277.266H42.0059V294.33H214.995V277.266Z" fill="#E5E5E5"/>
<path d="M128.587 441.587C155.965 441.587 178.159 419.411 178.159 392.055C178.159 364.7 155.965 342.524 128.587 342.524C101.21 342.524 79.0156 364.7 79.0156 392.055C79.0156 419.411 101.21 441.587 128.587 441.587Z" fill="#F9E006"/>
</svg>
