<svg width="487" height="517" viewBox="0 0 487 517" fill="none" xmlns="http://www.w3.org/2000/svg">
<path d="M255.544 120.801V44.2851C255.544 32.54 250.841 21.276 242.47 12.9709C234.099 4.66585 222.745 8.10997e-05 210.907 8.77735e-10H47.5088C41.6469 -3.66124e-05 35.8424 1.1454 30.4268 3.37091C25.0111 5.59642 20.0902 8.85841 15.9452 12.9707C11.8002 17.0829 8.51225 21.9648 6.26898 27.3378C4.0257 32.7107 2.87107 38.4693 2.87103 44.285V95.1012H0V113.006H2.87103V132.105H0V159.56H2.87103V171.497H0V198.951H2.87103V464.055C2.871 469.871 4.02557 475.63 6.26878 481.003C8.51199 486.376 11.7999 491.258 15.9449 495.37C20.0898 499.482 25.0106 502.744 30.4262 504.97C35.8419 507.195 41.6463 508.341 47.5082 508.341H210.906C216.768 508.341 222.573 507.195 227.988 504.97C233.404 502.744 238.325 499.482 242.47 495.37C246.615 491.258 249.903 486.376 252.146 481.003C254.389 475.63 255.544 469.871 255.544 464.056V175.266H258.359V120.801H255.544Z" fill="white"/>
<path d="M211.457 11.659H190.382C191.351 14.0434 191.721 16.6304 191.459 19.1921C191.198 21.7538 190.312 24.2115 188.881 26.3488C187.449 28.4861 185.516 30.2374 183.251 31.4484C180.987 32.6594 178.46 33.2928 175.894 33.293H83.4019C80.8357 33.2928 78.3091 32.6594 76.0444 31.4484C73.7797 30.2374 71.8465 28.4861 70.4152 26.3488C68.9838 24.2115 68.0982 21.7537 67.8364 19.1921C67.5745 16.6304 67.9445 14.0434 68.9136 11.6589H49.2301C40.4946 11.6589 32.1169 15.1413 25.94 21.3399C19.7631 27.5385 16.293 35.9456 16.293 44.7118V463.628C16.293 467.969 17.1449 472.267 18.8001 476.277C20.4554 480.287 22.8815 483.931 25.94 487C28.9985 490.07 32.6295 492.504 36.6256 494.165C40.6217 495.826 44.9047 496.681 49.2301 496.681H211.457C220.192 496.681 228.57 493.199 234.747 487C240.924 480.802 244.394 472.395 244.394 463.628V44.7118C244.394 40.3712 243.542 36.0732 241.887 32.063C240.231 28.0528 237.805 24.4091 234.747 21.3399C231.688 18.2706 228.057 15.836 224.061 14.1749C220.065 12.5139 215.782 11.659 211.457 11.659Z" fill="black"/>
<path d="M216.584 156.232H44.102C42.9 156.231 41.7477 155.766 40.8978 154.938C40.0478 154.111 39.5698 152.989 39.5684 151.819V83.6946C39.5698 82.5246 40.0478 81.403 40.8978 80.5757C41.7477 79.7483 42.9 79.283 44.102 79.2816H216.584C217.786 79.283 218.939 79.7483 219.789 80.5756C220.639 81.403 221.117 82.5246 221.118 83.6946V151.819C221.117 152.989 220.639 154.111 219.789 154.938C218.939 155.766 217.786 156.231 216.584 156.232Z" fill="#F9E006"/>
<path d="M199.86 191.209H60.8268C59.5099 191.209 58.2469 190.595 57.3157 189.502C56.3845 188.409 55.8613 186.926 55.8613 185.38C55.8613 183.834 56.3845 182.351 57.3157 181.258C58.2469 180.164 59.5099 179.55 60.8268 179.55H199.86C201.177 179.55 202.44 180.164 203.371 181.258C204.302 182.351 204.825 183.834 204.825 185.38C204.825 186.926 204.302 188.409 203.371 189.502C202.44 190.595 201.177 191.209 199.86 191.209Z" fill="#F9E006"/>
<path d="M199.441 214.528H61.2456C59.8176 214.528 58.4481 214.036 57.4383 213.162C56.4286 212.287 55.8613 211.101 55.8613 209.864C55.8613 208.627 56.4286 207.441 57.4383 206.566C58.4481 205.692 59.8176 205.2 61.2456 205.2H199.441C200.869 205.2 202.238 205.692 203.248 206.566C204.258 207.441 204.825 208.627 204.825 209.864C204.825 211.101 204.258 212.287 203.248 213.162C202.238 214.036 200.869 214.528 199.441 214.528Z" fill="#E4E4E4"/>
<path d="M199.441 240.179H61.2456C59.8176 240.179 58.4481 239.565 57.4383 238.472C56.4286 237.378 55.8613 235.895 55.8613 234.349C55.8613 232.803 56.4286 231.32 57.4383 230.227C58.4481 229.134 59.8176 228.52 61.2456 228.52H199.441C200.869 228.52 202.238 229.134 203.248 230.227C204.258 231.32 204.825 232.803 204.825 234.349C204.825 235.895 204.258 237.378 203.248 238.472C202.238 239.565 200.869 240.179 199.441 240.179Z" fill="#E4E4E4"/>
<path d="M216.584 363.767H44.102C42.9 363.765 41.7477 363.3 40.8978 362.473C40.0478 361.645 39.5698 360.524 39.5684 359.354V291.229C39.5698 290.059 40.0478 288.937 40.8978 288.11C41.7477 287.283 42.9 286.817 44.102 286.816H216.584C217.786 286.817 218.939 287.283 219.789 288.11C220.639 288.937 221.117 290.059 221.118 291.229V359.354C221.117 360.524 220.639 361.645 219.789 362.473C218.939 363.3 217.786 363.765 216.584 363.767Z" fill="#E4E4E4"/>
<path d="M199.441 398.744H61.2456C59.8176 398.744 58.4481 398.129 57.4383 397.036C56.4286 395.943 55.8613 394.46 55.8613 392.914C55.8613 391.368 56.4286 389.885 57.4383 388.792C58.4481 387.699 59.8176 387.084 61.2456 387.084H199.441C200.869 387.084 202.238 387.699 203.248 388.792C204.258 389.885 204.825 391.368 204.825 392.914C204.825 394.46 204.258 395.943 203.248 397.036C202.238 398.129 200.869 398.744 199.441 398.744Z" fill="#E4E4E4"/>
<path d="M199.441 422.062H61.2456C59.8176 422.062 58.4481 421.571 57.4383 420.696C56.4286 419.822 55.8613 418.635 55.8613 417.399C55.8613 416.162 56.4286 414.975 57.4383 414.101C58.4481 413.226 59.8176 412.735 61.2456 412.735H199.441C200.869 412.735 202.238 413.226 203.248 414.101C204.258 414.975 204.825 416.162 204.825 417.399C204.825 418.635 204.258 419.822 203.248 420.696C202.238 421.571 200.869 422.062 199.441 422.062Z" fill="#E4E4E4"/>
<path d="M199.441 447.712H61.2456C59.8176 447.712 58.4481 447.098 57.4383 446.004C56.4286 444.911 55.8613 443.428 55.8613 441.882C55.8613 440.336 56.4286 438.853 57.4383 437.76C58.4481 436.667 59.8176 436.053 61.2456 436.053H199.441C200.869 436.053 202.238 436.667 203.248 437.76C204.258 438.853 204.825 440.336 204.825 441.882C204.825 443.428 204.258 444.911 203.248 446.004C202.238 447.098 200.869 447.712 199.441 447.712Z" fill="#E4E4E4"/>
<path d="M359.431 126.993C357.626 113.774 355.361 99.5824 346.021 90.0403C343.058 87.0126 339.511 84.6154 335.594 82.993C331.677 81.3707 327.471 80.5569 323.231 80.6007C318.991 80.6445 314.803 81.545 310.921 83.2479C307.038 84.9509 303.541 87.4209 300.641 90.5092C293.842 97.7491 290.84 107.915 290.565 117.835C290.29 127.754 292.504 137.564 294.959 147.18C307.952 147.439 320.849 144.905 332.775 139.75C335.698 138.326 338.73 137.138 341.842 136.197C344.993 135.396 347.239 137.41 350.169 138.815L351.778 135.74C353.095 138.186 357.173 137.461 358.652 135.109C360.131 132.757 359.807 129.744 359.431 126.993Z" fill="black"/>
<path d="M478.448 489.059L468.904 495.359L440.02 461.613L454.104 452.315L478.448 489.059Z" fill="#9E616A"/>
<path d="M487 496.687L456.228 517L455.971 516.611C453.87 513.441 453.118 509.567 453.878 505.842C454.639 502.117 456.85 498.847 460.027 496.75L460.027 496.749L478.822 484.343L487 496.687Z" fill="#141414"/>
<path d="M355.255 505.928H343.814L338.371 461.877L355.257 461.878L355.255 505.928Z" fill="#9E616A"/>
<path d="M358.173 517L321.281 516.999V516.533C321.282 512.731 322.794 509.086 325.487 506.398C328.18 503.71 331.832 502.2 335.641 502.2H335.641L358.174 502.201L358.173 517Z" fill="#141414"/>
<path d="M273.851 203.203L230.652 172.4C230.842 170.787 230.559 169.153 229.836 167.697C229.113 166.241 227.981 165.027 226.58 164.201C225.178 163.376 223.566 162.974 221.939 163.047C220.313 163.119 218.743 163.661 217.42 164.608C216.098 165.555 215.079 166.865 214.488 168.379C213.898 169.893 213.761 171.546 214.094 173.136C214.427 174.726 215.216 176.186 216.365 177.337C217.514 178.488 218.974 179.28 220.566 179.618C225.966 184.144 265.406 223.297 271.053 221.232C276.785 219.136 301.844 215.341 301.844 215.341L302.542 191.591L273.851 203.203Z" fill="#9E616A"/>
<path d="M307.792 259.247L308.2 313.443C308.2 313.443 317.548 393.743 320.996 407.309C324.444 420.874 338.44 483.645 338.44 483.645L361.192 479.982L346.54 397.914L350.968 329.895L376.506 398.064L441.353 465.725L457.787 452.488L401.344 369.691L384.104 301.864C384.104 301.864 386.249 266.781 366.932 253.271L307.792 259.247Z" fill="black"/>
<path d="M320.861 140.071C334.633 140.071 345.798 128.927 345.798 115.179C345.798 101.432 334.633 90.2874 320.861 90.2874C307.089 90.2874 295.924 101.432 295.924 115.179C295.924 128.927 307.089 140.071 320.861 140.071Z" fill="#9E616A"/>
<path d="M327.35 267.991L318.081 288.642L344.976 300.67L354.245 280.019L327.35 267.991Z" fill="#2F2E41"/>
<path d="M360.801 163.073C357.862 157.235 356.434 150.023 350.169 148.13C345.939 146.852 328.828 148.767 324.972 150.925C318.558 154.513 324.37 161.238 320.586 167.531C316.473 174.372 312.36 181.213 308.247 188.054C305.419 192.757 302.562 197.527 301.033 202.795C299.504 208.064 299.43 213.977 302.035 218.806C304.366 223.129 308.589 226.195 310.933 230.511C313.371 234.999 308.995 255.04 306.726 259.616L307.815 260.118C322.901 261.001 338.036 260.493 353.029 258.599C356.75 258.129 360.614 257.514 363.68 255.358C368.197 252.182 369.982 246.42 371.098 241.018C376.469 214.617 372.844 187.182 360.801 163.073Z" fill="#F9E006"/>
<path d="M309.766 219.611C316.522 212.984 323.313 206.316 328.874 198.662C334.436 191.008 338.761 182.247 339.968 172.869C340.485 169.877 340.28 166.805 339.37 163.908C338.333 161.067 336.039 158.547 333.081 157.899C328.347 156.861 324.044 160.632 320.667 164.101C310.707 174.328 300.748 184.555 290.789 194.782C297.133 203.118 303.477 211.453 309.821 219.788L309.766 219.611Z" fill="#F9E006"/>
<path d="M383.403 224.716C381.304 218.995 377.502 193.981 377.502 193.981L353.709 193.285L365.341 221.923L333.598 266.28C333.598 266.28 333.657 266.378 333.764 266.552C332.095 266.284 330.384 266.526 328.855 267.245C327.326 267.965 326.05 269.128 325.195 270.583C324.339 272.038 323.943 273.717 324.059 275.4C324.175 277.083 324.797 278.693 325.844 280.017C326.891 281.341 328.315 282.319 329.928 282.823C331.541 283.327 333.269 283.333 334.886 282.84C336.502 282.347 337.932 281.379 338.988 280.061C340.045 278.744 340.678 277.139 340.805 275.457C340.922 275.524 341.059 275.548 341.191 275.525C341.324 275.502 341.445 275.434 341.533 275.332C345.065 270.908 385.503 230.437 383.403 224.716Z" fill="#9E616A"/>
<path d="M385.822 208.918C383.638 199.718 381.438 190.467 377.756 181.755C374.074 173.044 368.803 164.815 361.39 158.929C359.092 156.939 356.353 155.524 353.398 154.802C350.427 154.217 347.079 154.872 344.992 157.062C341.653 160.568 342.658 166.195 343.882 170.875C347.494 184.675 351.105 198.474 354.716 212.274C365.145 211.17 375.573 210.067 386.002 208.964L385.822 208.918Z" fill="#F9E006"/>
<path d="M352.035 117.116C351.256 111.094 350.441 105.022 348.61 99.3522C346.778 93.6822 343.826 88.3715 339.59 85.1595C332.885 80.0742 324.203 81.055 316.685 83.9802C310.871 86.2424 305.195 89.6808 301.095 95.2086C296.995 100.736 294.692 108.624 296.217 115.852C304.237 113.624 312.257 111.396 320.276 109.168L319.398 109.898C324.602 112.825 328.555 118.881 329.736 125.739C330.923 132.572 329.405 139.599 325.502 145.337C330.971 143.055 336.441 140.774 341.91 138.493C345.286 137.085 348.899 135.462 350.901 131.851C353.222 127.663 352.683 122.113 352.035 117.116Z" fill="black"/>
<path d="M234.298 156.138L218.256 180.171C217.873 180.748 217.352 181.22 216.74 181.546C216.128 181.871 215.445 182.039 214.751 182.035C213.926 182.035 213.119 181.791 212.433 181.335C211.746 180.878 211.21 180.229 210.892 179.469C210.78 179.212 210.696 178.944 210.641 178.67C210.424 177.579 210.649 176.447 211.266 175.522L227.308 151.49C227.614 151.032 228.007 150.638 228.465 150.332C228.923 150.025 229.437 149.812 229.978 149.704C230.519 149.596 231.076 149.595 231.617 149.702C232.158 149.808 232.673 150.02 233.131 150.326C233.59 150.631 233.985 151.023 234.292 151.481C234.599 151.938 234.812 152.451 234.921 152.991C235.029 153.531 235.03 154.086 234.923 154.627C234.816 155.167 234.604 155.68 234.298 156.138Z" fill="#F9E006"/>
<path d="M219.549 178.232L216.302 183.068L210.557 188.124C210.179 188.457 209.701 188.656 209.198 188.69C208.695 188.724 208.194 188.591 207.775 188.312C207.355 188.033 207.04 187.623 206.877 187.146C206.715 186.67 206.715 186.153 206.878 185.676L209.393 178.328L212.56 173.584L219.549 178.232Z" fill="#3F3D56"/>
<path d="M235.006 143.535L226.967 150.608C226.703 150.84 226.497 151.129 226.363 151.453C226.23 151.776 226.173 152.127 226.196 152.476C226.22 152.825 226.324 153.165 226.5 153.468C226.675 153.771 226.919 154.029 227.211 154.224L228.732 155.235L224.333 161.825C224.265 161.926 224.218 162.041 224.194 162.161C224.171 162.281 224.171 162.404 224.195 162.524C224.219 162.644 224.267 162.758 224.335 162.86C224.403 162.961 224.491 163.049 224.593 163.116C224.695 163.184 224.809 163.231 224.929 163.255C225.049 163.279 225.173 163.279 225.293 163.255C225.413 163.231 225.528 163.183 225.63 163.115C225.731 163.047 225.819 162.96 225.887 162.858L230.285 156.268L231.806 157.28C232.311 157.615 232.928 157.737 233.522 157.619C234.117 157.501 234.64 157.153 234.978 156.651C235.089 156.484 235.178 156.303 235.243 156.113L238.686 145.983C238.848 145.507 238.848 144.99 238.686 144.513C238.523 144.037 238.208 143.627 237.788 143.348C237.368 143.069 236.868 142.936 236.365 142.97C235.862 143.004 235.384 143.203 235.006 143.535L235.006 143.535Z" fill="#3F3D56"/>
<path d="M137.851 18.654H113.525C113.047 18.654 112.588 18.5311 112.25 18.3125C111.913 18.0938 111.723 17.7973 111.723 17.4881C111.723 17.1788 111.913 16.8823 112.25 16.6636C112.588 16.445 113.047 16.3221 113.525 16.3221H137.851C138.329 16.3221 138.788 16.445 139.126 16.6636C139.464 16.8823 139.653 17.1788 139.653 17.4881C139.653 17.7973 139.464 18.0938 139.126 18.3125C138.788 18.5311 138.329 18.654 137.851 18.654Z" fill="white"/>
<path d="M148.964 18.654C150.25 18.654 151.292 18.132 151.292 17.4881C151.292 16.8441 150.25 16.3221 148.964 16.3221C147.679 16.3221 146.637 16.8441 146.637 17.4881C146.637 18.132 147.679 18.654 148.964 18.654Z" fill="white"/>
</svg>
